<svg width="3062" height="3062" viewBox="0 0 3062 3062" fill="none" xmlns="http://www.w3.org/2000/svg">
<g clip-path="url(#clip0_35_474)">
<path d="M1133.28 2202C1136.78 2197.84 1141.81 2199.59 1146.15 2199.59C1402.06 2199.59 1657.97 2199.59 1913.88 2199.59C1918.21 2199.59 1923.11 2197.84 1926.75 2202H1133.28Z" fill="#64728C"/>
<path d="M2163.73 1158.45C2151.76 1107.18 2124.46 1060.78 2085.47 1025.42C2050.5 993.661 2009.38 970.824 1961.22 964.529C1942.36 961.882 1923.34 960.457 1904.29 960.263C1875.76 960.263 1878.14 962.606 1878.14 934.174C1878.14 917.563 1878.41 901.126 1870.44 885.669C1860.3 866.049 1843.41 860.349 1822.92 860.769C1803.02 861.188 1788.16 869.022 1778.82 887.382C1770.11 904.553 1771.41 922.738 1771.37 940.924C1771.37 960.263 1771.37 960.298 1752.17 960.298C1604.65 960.298 1457.11 960.298 1309.56 960.298C1308.34 960.298 1307.08 960.298 1305.82 960.298C1292.22 960.018 1291.31 959.144 1291.13 945.155C1291.13 934.664 1291.87 924.382 1290.85 914.1C1289.14 896.615 1284.17 880.493 1269.14 869.826C1251.65 857.446 1232.07 857.761 1213.18 865.245C1193.88 872.974 1186.78 890.669 1184.58 910.079C1183.25 921.549 1184.33 933.23 1184.16 944.84C1183.95 959.109 1182.9 960.543 1168.35 960.193C1146.44 959.948 1124.53 961.316 1102.82 964.285C1072.85 968.097 1045.92 980.092 1019.56 995.025C979.76 1017.62 949.966 1049.3 927.131 1088.12C902.827 1129.46 893 1174.15 893 1222.27C893.629 1464.16 893.699 1706.06 893.21 1947.97C893.21 1981.43 897.756 2013.78 910.695 2044.94C932.866 2097.78 967.416 2140.1 1016.62 2169.55C1045.3 2187.01 1077.41 2198.08 1110.76 2202H1133.14C1137.4 2199.59 1142.06 2200.78 1146.53 2200.78C1402.09 2200.78 1657.65 2200.78 1913.21 2200.78C1917.65 2200.78 1922.3 2199.59 1926.6 2202H1944.09C1960.78 2200.52 1977.27 2197.31 1993.29 2192.42C2061.83 2171.12 2109.43 2126.32 2142.23 2064.18C2157.16 2036.04 2165.95 2005.04 2168 1973.25V1195.13C2165.45 1183.03 2166.71 1170.48 2163.73 1158.45ZM993.678 1260.7C994.447 1229.23 991.965 1197.76 1004.17 1167.57C1016.08 1137.56 1036.61 1111.74 1063.16 1093.36C1092.75 1072.38 1125.13 1068.88 1159.19 1069.16C1187.94 1069.16 1187.94 1069.16 1187.94 1098.02C1187.94 1123.27 1187.52 1148.55 1188.15 1173.83C1188.74 1198.31 1204.83 1217.79 1226.61 1222.27C1237.22 1224.59 1248.29 1223.39 1258.15 1218.84C1268.01 1214.3 1276.11 1206.66 1281.24 1197.09C1285.54 1188.1 1287.61 1178.2 1287.25 1168.24C1287.25 1138.44 1287.49 1108.79 1287.25 1078.78C1287.25 1071.26 1289 1068.99 1296.83 1068.99C1453.03 1069.22 1609.29 1069.22 1765.6 1068.99C1773.23 1068.99 1775.43 1070.88 1775.32 1078.61C1774.87 1109.66 1774.66 1140.75 1775.32 1171.81C1776.13 1209.65 1810.78 1233.67 1843.9 1219.58C1864.88 1210.66 1874.32 1193.66 1874.53 1171.46C1874.81 1140.79 1874.88 1110.12 1874.53 1079.48C1874.53 1071.61 1876.14 1068.71 1884.64 1068.99C1912.62 1069.72 1941.36 1066.47 1968.25 1077.03C2025.88 1099.62 2064.59 1149.77 2068.41 1215.87C2069.35 1231.96 2068.41 1248.18 2068.83 1264.31C2069.07 1271.3 2066.94 1273.29 2059.87 1273.19C2032.11 1272.8 2004.34 1273.19 1976.58 1273.19H1531.3C1356.46 1273.19 1181.61 1273.27 1006.76 1273.43C996.511 1273.29 993.398 1271.37 993.678 1260.7ZM1958.5 2090.75C1944.1 2094.83 1929.25 2097.09 1914.29 2097.47C1659.01 2097.47 1403.73 2097.47 1148.45 2097.47C1109.37 2097.96 1071.6 2083.39 1042.99 2056.76C1012.28 2028.79 994.657 1992.13 994.482 1950.31C993.643 1762.27 994.168 1574.19 993.783 1386.11C993.783 1374.68 1000.32 1377.16 1006.51 1377.16H1531.06C1705.91 1377.16 1880.76 1377.08 2055.61 1376.91C2065.89 1376.91 2068.55 1379.29 2068.55 1389.68C2068.2 1571.95 2067.67 1754.22 2068.55 1936.5C2069.21 2003.57 2028.47 2072.99 1958.5 2090.75Z" fill="#64728C"/>
<path d="M1234.65 1818.96C1249.58 1818.96 1264.55 1818.47 1279.48 1818.96C1287.69 1819.43 1295.71 1821.65 1302.99 1825.48C1310.27 1829.31 1316.64 1834.65 1321.69 1841.14C1326.73 1847.64 1330.32 1855.14 1332.22 1863.15C1334.12 1871.15 1334.29 1879.46 1332.71 1887.54C1329.84 1903.66 1322.57 1916.42 1309.84 1924.54C1299.03 1931.53 1287.81 1936.71 1274.2 1936.15C1245.98 1934.99 1217.66 1937.02 1189.47 1935.48C1153.94 1933.59 1128.27 1901.35 1137.02 1861.62C1142.02 1838.99 1168.49 1819.03 1187.2 1818.89C1203.07 1818.89 1218.85 1818.96 1234.65 1818.96Z" fill="#64728C"/>
<path d="M1824.04 1818.96C1839.01 1818.96 1853.97 1818.47 1868.9 1818.96C1904.33 1820.32 1929.86 1853.93 1921.99 1891.17C1916.85 1915.48 1891.53 1935.2 1870.58 1935.62C1840.26 1936.25 1809.88 1936.85 1779.66 1935.62C1745.78 1934.15 1720.21 1904.15 1726.05 1866.1C1729.86 1841.02 1756.34 1819.55 1776.76 1819.06C1792.46 1818.68 1808.23 1818.96 1824.04 1818.96Z" fill="#64728C"/>
<path d="M1529.77 1818.96C1544.32 1818.96 1558.86 1818.64 1573.38 1818.96C1606.53 1819.8 1633.31 1850.71 1627.37 1886.84C1624.82 1902.47 1618.14 1915.13 1606 1923.42C1595.02 1930.9 1583.52 1936.6 1569.49 1936.15C1540.85 1935.13 1512.14 1936.15 1483.5 1935.76C1461.61 1935.52 1434.9 1914.5 1431.05 1889.32C1426.85 1862.08 1438.04 1837.67 1460.63 1825.53C1470.03 1820.58 1480.59 1818.26 1491.2 1818.82C1504 1819.17 1516.9 1818.96 1529.77 1818.96Z" fill="#64728C"/>
<path d="M1827.75 1541.28C1843.55 1541.28 1859.43 1542.12 1875.2 1541.28C1911.04 1539.04 1940.38 1589.82 1920.42 1627.35C1910.9 1645.25 1896.6 1655.32 1877.72 1655.32C1844.43 1655.81 1811.27 1655.95 1777.81 1655.32C1756.3 1654.87 1740.39 1643.12 1732.59 1621.12C1728.8 1611.26 1727.67 1600.58 1729.31 1590.15C1730.95 1579.71 1735.3 1569.89 1741.93 1561.67C1746.7 1554.74 1753.24 1549.21 1760.86 1545.63C1768.48 1542.06 1776.91 1540.59 1785.29 1541.35C1799.42 1541.95 1813.58 1541.28 1827.75 1541.28Z" fill="#64728C"/>
<path d="M1237.42 1655.5C1221.16 1655.5 1204.93 1655.88 1188.71 1655.5C1167.2 1654.8 1151.22 1643.71 1143.25 1621.86C1134.89 1599.33 1138.84 1578.88 1153.56 1560.1C1164.79 1545.79 1178.36 1540.97 1195 1541.28C1224.97 1541.84 1255.01 1542.75 1284.91 1541.04C1313.8 1539.39 1337.93 1573.32 1337.37 1599.33C1336.67 1632.28 1315.75 1655.29 1284.91 1655.6C1269.03 1655.67 1253.19 1655.5 1237.42 1655.5Z" fill="#64728C"/>
<path d="M1532.64 1541.32C1549.28 1541.32 1565.96 1542.02 1582.57 1541.32C1608.03 1540.02 1632.2 1573.21 1631.53 1598.85C1630.94 1630.32 1611.35 1654.8 1583.52 1655.36C1549.81 1656.16 1516.06 1656.02 1482.35 1655.36C1461.86 1654.97 1446.47 1643.89 1438.11 1623.53C1433.94 1614.02 1432.31 1603.58 1433.4 1593.25C1434.48 1582.92 1438.24 1573.05 1444.3 1564.61C1455.39 1548.14 1469.76 1540.13 1488.78 1541.21C1503.47 1541.95 1518.05 1541.28 1532.64 1541.32Z" fill="#64728C"/>
</g>
<defs>
<clipPath id="clip0_35_474">
<rect width="1275" height="1342" fill="white" transform="translate(893 860)"/>
</clipPath>
</defs>
</svg>
