<svg xmlns="http://www.w3.org/2000/svg" viewBox="0 0 336.68 313.55" fill="#64728c"><g id="Layer_2" data-name="Layer 2"><g id="Layer_1-2" data-name="Layer 1"><path d="M109.55,231.08c7-7,13.25-13.45,19.71-19.75,7-6.84,15.34-9,24.72-6.09,15.88,5,21.9,24.64,11.63,37.74a38.49,38.49,0,0,1-3.14,3.49q-29.46,29.49-59,59c-9.47,9.44-22.26,10.76-32.27,3.46a21.31,21.31,0,0,1-2.58-2.15c-20.61-20.59-41.37-41-61.76-61.84a24,24,0,0,1,10.94-39.95c8.66-2.38,16.51-.43,23,5.78,6.69,6.42,13.07,13.17,20.34,20.56V226.8q0-100.52,0-201c0-11.66,6-20.69,16.1-24.29,15.89-5.67,32.22,6,32.25,23.18q.11,66.06,0,132.11v74.3Z"/><path class="cls-1" d="M230.35,0c-.43.61-1,.36-1.62.35-.11-.09-.15-.17-.1-.24s.08-.11.13-.11Z"/><path class="cls-1" d="M336.68,100.34c-.61-.44-.36-1.06-.34-1.63.13-.15.24-.14.34,0Z"/><path class="cls-2" d="M239.16.34c-.45,0-.92.17-1.21-.34h1.2c.12.07.17.14.13.22S239.2.34,239.16.34Z"/><path class="cls-2" d="M336.34,109.15c0-.45-.17-.92.34-1.22v1.2C336.58,109.31,336.46,109.31,336.34,109.15Z"/><path class="cls-3" d="M228.76,0a2.07,2.07,0,0,1,0,.35c-.33,0-.68.12-.77-.35Z"/><path class="cls-4" d="M239.16.34c0-.11,0-.23,0-.34h.8c.12.07.16.14.13.22s-.07.12-.11.12Z"/><path class="cls-3" d="M240,.34c0-.12,0-.23,0-.34h.8C240.65.49,240.3.38,240,.34Z"/><path class="cls-3" d="M336.68,98.74a2,2,0,0,1-.34,0c0-.32-.13-.67.34-.77Z"/><path class="cls-4" d="M336.34,109.15l.34,0v.8q-.15.25-.33,0Z"/><path class="cls-3" d="M336.35,110l.33,0v.8C336.2,110.64,336.3,110.28,336.35,110Z"/><path d="M336.68,96.34c-.34-2-.2-4.09-.45-6.11a106.18,106.18,0,0,0-14-40.49c-4.43-7.65-10.18-14.31-16.28-20.66-8.56-8.9-19-15.31-29.91-20.69A86.23,86.23,0,0,0,248.45.51C246.29.24,244.1.39,242,0h-1.2c-.26.28-.6.19-.91.21h-.73c-.39,0-.82.13-1.16-.21h-7.6c-.44.38-1,.13-1.45.21-.32,0-.68.08-.94-.21h-1.6c-2,.36-4,.2-5.91.49-11.27,1.66-22,4.67-32.14,10.25-10.65,5.87-20.38,12.68-28.65,21.71A105.65,105.65,0,0,0,139.89,63,95.47,95.47,0,0,0,132,97.61c-.33,11.29,0,22.44,2.92,33.47a108.3,108.3,0,0,0,11.6,27.74,98.65,98.65,0,0,0,21.38,25.43c9.87,8.36,20.78,15.13,33.08,19.34a89,89,0,0,0,26.57,5.15c5.92.15,11.88.43,17.74-.2,12.73-1.37,24.89-4.71,36.18-11.14,10.2-5.8,19.72-12.31,27.57-21.18a112.9,112.9,0,0,0,15.38-21.31,105.45,105.45,0,0,0,11.78-36.07c.27-2,.12-4.09.51-6.11v-2c-.27-.25-.18-.59-.2-.9v-.73c0-.39-.14-.83.2-1.17v-7.59c-.38-.44-.13-1-.2-1.46,0-.32-.09-.67.2-.94Zm-27.85,37.41a86,86,0,0,1-10.21,18.83c-7.17,10.34-16.64,17.9-27.55,24-14.76,8.22-30.51,10.62-47.09,8.62a69.12,69.12,0,0,1-24.1-7.25c-10.09-5.34-19.36-11.89-26.54-20.9-5-6.28-9.51-13-12.49-20.51-4.08-10.33-6.65-21-6.45-30.5a86,86,0,0,1,4.95-29.67,84.33,84.33,0,0,1,11.5-21.29c7.25-10,16.62-17.36,27.41-23.23C214.68,22.89,232,21,250.13,24.39a62.41,62.41,0,0,1,17.89,6c10.07,5.36,19.45,11.7,26.77,20.63,11,13.5,17.7,28.85,19.18,46.36A82.52,82.52,0,0,1,308.83,133.75Z"/><path d="M236,52.31c4.55.94,7.14,4.12,7.15,8.94q0,20.67,0,41.35a4,4,0,0,0,1.27,3.13c9.37,9.43,18.74,18.87,28,28.41,2.61,2.7,3.94,6,2.54,9.85a8.31,8.31,0,0,1-7.26,5.73,8.73,8.73,0,0,1-7.51-2.94c-5.33-5.47-10.64-10.95-16-16.39-4.49-4.55-9-9.09-13.57-13.55a14.78,14.78,0,0,1-4.81-11.46c.22-14.65.07-29.3.09-43.95,0-5,2.56-8.19,7.17-9.12A3.18,3.18,0,0,1,236,52.31Z"/></g></g></svg>