<svg xmlns="http://www.w3.org/2000/svg" viewBox="0 0 176.16 169.2" fill="#64728c"><defs><style>.cls-1{stroke-miterlimit:10;}</style></defs><g id="Layer_2" data-name="Layer 2"><g id="Layer_1-2" data-name="Layer 1"><path class="cls-1" d="M170.06,105.8c-.4.13-.33.53-.46.81a6.73,6.73,0,0,1-7.37,4,6.6,6.6,0,0,1-5.41-6.7c0-13.88,0-27.76,0-41.65,0-1.67-.37-2.11-2.11-2.11q-57.61.07-115.23,0c-3.64,0-6.07-1.45-7.13-4.23a6.59,6.59,0,0,1,5.8-8.88c.55,0,1.1,0,1.65,0q57.63,0,115.24,0c1.46,0,1.9-.34,1.77-1.77s0-2.95,0-4.43c0-4.23-2.78-6.95-7.06-7H86.34c-4.58,0-9.16,0-13.74,0-4.43,0-7.11-2.65-7.19-7A13.16,13.16,0,0,0,51.86,13.64q-12.34-.06-24.67,0A13.12,13.12,0,0,0,13.76,26.92q0,50.52,0,101c0,7.62,5.81,13.29,13.58,13.29q33.45,0,66.89,0c4,0,6.91,2.38,7.26,5.93a6.55,6.55,0,0,1-6.64,7.18c-6.9,0-13.8,0-20.7,0H27.3A26.37,26.37,0,0,1,1,133.26a25.47,25.47,0,0,1-.53-5.37Q.52,77.46.51,27C.52,12.13,12.21.56,27.25.52q12.17,0,24.34,0c12.53,0,22.52,7.39,26.05,19.27.37,1.25,1.13,1.07,2,1.07h70c9.27,0,16.8,5.39,19.52,13.86.31,1,.25,2,.89,2.86Z"/><path class="cls-2" d="M176.16,135.12c-.89,1.4-1.43,3-2.85,4.07a8.25,8.25,0,0,1-5.06,1.63c-6,0-12.08,0-18.12,0-1.55,0-2.11.23-2.07,2,.14,6,.06,12.11.05,18.17,0,4.9-3.11,8.29-7.54,8.26s-7.4-3.41-7.41-8.21c0-6.18,0-12.37,0-18.55,0-1.31-.28-1.68-1.61-1.66-6.11.08-12.21,0-18.32,0-4.83,0-8.18-3.19-8.14-7.67s3.4-7.47,8.14-7.48c6.16,0,12.33,0,18.5,0,1.16,0,1.44-.29,1.43-1.46-.06-6.24,0-12.49,0-18.74,0-4.79,3.07-8.19,7.39-8.24s7.55,3.38,7.56,8.27c0,6.18,0,12.36,0,18.55,0,1.35.36,1.64,1.65,1.62,5.73-.07,11.46.12,17.19-.08,4.61-.15,7.72,1.62,9.24,6.1Z"/></g></g></svg>