<svg xmlns="http://www.w3.org/2000/svg" viewBox="0 0 387.7 443.09" fill="#64728c"><title>Allreport</title><g id="Layer_2" data-name="Layer 2"><g id="Layer_1-2" data-name="Layer 1"><path d="M52.47,357.65c-15.82,0-26.91-11-26.92-26.81q-.06-114.88,0-229.77c0-12.45,5-22.7,14.64-30.63C54.48,58.74,68.77,47.05,83,35.24a41.3,41.3,0,0,1,27.54-9.79q71.47.15,143,.14c16.92,0,27.61,10.66,27.63,27.58,0,2.22,0,30,0,32.21l25.7,0c0-3.18,0-31.93-.09-35.1A51.18,51.18,0,0,0,269.08,1.82C266.71,1.16,264.31.6,261.92,0H101a5.24,5.24,0,0,1-1.31.59c-13,1.72-24.21,7.2-34.18,15.62C51.69,27.87,37.7,39.33,23.81,50.91,8.12,64,.09,80.84.07,101.24q-.13,115.05,0,230.11c0,29.42,22.58,51.87,52,51.89h54.45q0-12.78,0-25.58Z"/><path d="M387.6,110.12A51.18,51.18,0,0,0,350,61.64c-2.37-.65-4.77-1.21-7.16-1.81H306.78c0,5.8,0,11.6,0,17.41V85.4l27.61,0C351.27,85.44,362,96.07,362,113q.07,69.42,0,138.84,0,68.85,0,137.71c0,13.68-6.95,23.58-18.78,26.92a29.69,29.69,0,0,1-8.13,1q-100.84,0-201.7,0c-15.82,0-26.91-11-26.92-26.82v-7.41H81v7.94c0,29.41,22.58,51.87,52,51.88q101.4.06,202.8,0a51.63,51.63,0,0,0,11.5-1.19c24.4-5.51,40.41-25.87,40.42-51.52q0-126.66,0-253.32C387.65,128.08,387.78,119.1,387.6,110.12Z"/><path d="M106.47,160.89c0-12.44,5-22.69,14.65-30.63,14.27-11.7,28.56-23.39,42.74-35.2a41.4,41.4,0,0,1,27.54-9.79q44.83.11,89.68.11,0-12.78,0-25.55H181.9a5.15,5.15,0,0,1-1.32.59c-13,1.72-24.2,7.19-34.17,15.61-13.81,11.67-27.8,23.12-41.69,34.7C89,123.83,81,140.66,81,161.06q-.12,98.3,0,196.6h25.5Q106.41,259.27,106.47,160.89Z"/><path d="M234.25,299.68q38.52,0,77,0c7.88,0,13.62,5.31,13.64,12.73s-5.67,12.85-13.56,12.86q-33.09,0-66.2,0-43.75,0-87.51,0c-8.2,0-14-5.26-14-12.78s5.77-12.82,13.92-12.8q38.32.06,76.67,0Z"/><path d="M234.25,351.45q38.52,0,77,0c7.88,0,13.62,5.31,13.64,12.73S319.26,377,311.37,377q-33.09,0-66.2,0H157.66c-8.2,0-14-5.26-14-12.78s5.77-12.81,13.92-12.8q38.32.06,76.67,0Z"/><path d="M235.46,276.66c-25.33,0-50.65,0-76,0-10.43,0-16.69-10.39-11.57-19.06,2.63-4.46,6.7-6.45,11.87-6.44q28.07.06,56.14,0l95.44,0c7.87,0,13.62,5.36,13.64,12.78s-5.55,12.75-13.57,12.75q-38,0-76,0Z"/><path d="M298.14,160.49c0,12.46,0,24.92,0,37.38,0,8.36-5.16,14.13-12.56,14.21s-12.91-5.9-12.92-14.34q-.06-37.74,0-75.5c0-7.86,5.44-13.52,12.88-13.5s12.65,5.6,12.66,13.62v38.13Z"/><path d="M221.59,174.12c0-8.1,0-16.21,0-24.31,0-7.51,5.69-13.28,12.83-13.19a12.84,12.84,0,0,1,12.63,13.06q.08,24.49,0,49c0,7.61-5.59,13.38-12.68,13.41s-12.71-5.68-12.77-13.27C221.54,190.57,221.59,182.34,221.59,174.12Z"/><path d="M196,179.3c0,6.61.16,13.23,0,19.83-.21,6.83-4.56,11.72-10.94,12.81-5.61.95-11.52-2.59-13.7-8.14a16,16,0,0,1-.83-5.89c0-12.6-.08-25.2,0-37.8,0-7.49,5.32-13,12.45-13.17,7.34-.13,12.93,5.31,13.14,12.9.09,3.24,0,6.48,0,9.73v9.73Z"/></g></g></svg>