<svg xmlns="http://www.w3.org/2000/svg" viewBox="0 0 209.45 129.51" fill="#64728c"><defs><style>.cls-1{stroke:#64728c;stroke-miterlimit:10;stroke-width:9px;}</style></defs><g id="Layer_2" data-name="Layer 2"><g id="Layer_1-2" data-name="Layer 1"><g id="Layer_2-2" data-name="Layer 2"><g id="Layer_1-2-2" data-name="Layer 1-2"><path class="cls-1" d="M104.47,38.22c-12.12,13.21-24.1,26.21-36,39.21L30.23,119.07c-3.49,3.8-7.77,5.83-13.2,5.18a13.44,13.44,0,0,1-11.47-8.42c-2.09-5-1-9.59,2.67-13.64,6.12-6.72,12.3-13.41,18.45-20.12Q59.56,46.27,92.45,10.4c4.08-4.46,8.85-6.83,15.24-5.56a14.67,14.67,0,0,1,8,4.69q42.86,46.72,85.7,93.47a12.53,12.53,0,0,1-1.24,18.54l-.22.17c-6.25,5-14.89,4.24-20.47-1.83q-33.15-36-66.23-72.14C110.39,44.61,107.49,41.48,104.47,38.22Z"/></g></g></g></g></svg>