<svg xmlns="http://www.w3.org/2000/svg" viewBox="0 0 359.26 408.92" fill="#64728c"><title>bin</title><g id="Layer_2" data-name="Layer 2"><g id="Layer_1-2" data-name="Layer 1"><path d="M334.1,120H24.89c.84,10.39,1.64,20.56,2.48,30.74q3,36.78,6.1,73.57,3.44,41.16,6.88,82.32c1.9,22.8,3.62,45.62,5.74,68.39,1.67,17.9,12.58,29.6,30.26,33.32a4.18,4.18,0,0,1,1,.54H281.85c7.68-1.89,14.83-4.73,20.64-10.43,7.81-7.67,10.37-17.28,11.22-27.78q5.84-72,11.88-144Q330,174,334.27,121.34A6.81,6.81,0,0,0,334.1,120ZM115.75,360.23c-5-1.82-7.66-5.6-8-10.85q-2.07-32.46-4-64.9-3-48.59-6.08-97.15c-.64-10.35-1.51-20.7-1.79-31.06a11.87,11.87,0,0,1,17.52-11.05,11.46,11.46,0,0,1,6.3,10q2.06,31.85,4,63.7,3.08,49.36,6.13,98.74c.6,9.69,1.17,19.38,1.93,32C132,356.81,124.37,363.36,115.75,360.23Zm75.82-12.41c0,9.38-7.7,15.35-15.86,12.43-4.86-1.74-7.45-5.35-8-10.43a35.38,35.38,0,0,1-.07-4V159c0-9.59,4.41-15.15,12-15.16s12,5.58,12,15.15V252.4Q191.59,300.11,191.57,347.82Zm65.82-94.11q-2.56,41.23-5.09,82.47c-.27,4.38-.5,8.76-.82,13.14-.51,6.92-5.69,11.8-12.26,11.65a11.76,11.76,0,0,1-11.6-12.63c.67-14.49,1.68-29,2.58-43.43q2.61-41.84,5.27-83.66c1.37-21.91,2.67-43.82,4.06-65.73a12.22,12.22,0,0,1,12.7-11.68c7,.39,11.49,6.08,11.22,13.09C261.38,190,259.37,221.84,257.39,253.71Z"/><path d="M358.36,65.45C355.36,54.76,346.09,48,334,48c-22-.06-43.92,0-65.89,0h-4.66c0-3.8,0-7.23,0-10.66C263.25,15.57,247.89.15,226.12.08q-46.51-.15-93,0C111.32.15,96,15.58,95.75,37.32c0,3.42,0,6.85,0,10.64H91.07C69,48,46.88,47.85,24.79,48,7.16,48.12-4.1,63.68,1.41,80,4.78,90,13.9,95.87,26.08,95.87q153.54,0,307.08,0a35.42,35.42,0,0,0,7.13-.63A23.77,23.77,0,0,0,358.36,65.45ZM239.51,47.75H119.71c0-3.75,0-7.07,0-10.4C119.79,28.81,124.53,24,133.1,24q40.29,0,80.58,0c4.39,0,8.78-.06,13.16,0,7.59.14,12.48,4.95,12.65,12.46C239.58,40.17,239.51,43.86,239.51,47.75Z"/></g></g></svg>