<?xml version="1.0" encoding="utf-8"?>
<!-- Generator: Adobe Illustrator 24.0.1, SVG Export Plug-In . SVG Version: 6.00 Build 0)  -->
<svg version="1.1" id="Layer_1" xmlns="http://www.w3.org/2000/svg" xmlns:xlink="http://www.w3.org/1999/xlink" x="0px" y="0px"
	 viewBox="0 0 512 512" style="enable-background:new 0 0 512 512;" xml:space="preserve">
<style type="text/css">
	.st0{fill:#FFFFFF;}
</style>
<path class="st0" d="M455.5,303v-24.3c0-30.4-24.4-55.2-54.5-55.2s-54.5,24.7-54.5,55.2v23.9c-29,9.7-49.9,37.3-49.9,69.9v24.8
	c0,40.6,32.6,73.6,72.6,73.6h62.6c40,0,72.6-33,72.6-73.6v-24.8C504.5,340.4,484,313,455.5,303z M401,260.3c10,0,18.2,8.3,18.2,18.4
	V299h-36.3v-20.2C382.9,268.6,391,260.3,401,260.3z M468.2,397.4c0,20.3-16.2,36.8-36.3,36.8h-62.6c-20.1,0-36.3-16.5-36.3-36.8
	v-24.8c0-20.3,16.2-36.8,36.3-36.8h62.6c20.1,0,36.3,16.5,36.3,36.8V397.4z M254,248.4c67.5,0,122.5-55.7,122.5-124.2S321.5,0,254,0
	S131.5,55.7,131.5,124.2S186.5,248.4,254,248.4z M254,36.8c47.6,0,86.2,39.2,86.2,87.4s-38.7,87.4-86.2,87.4s-86.2-39.2-86.2-87.4
	S206.4,36.8,254,36.8z M424.4,384.5c0,12.7-10.2,23-22.7,23c-12.5,0-22.7-10.3-22.7-23s10.2-23,22.7-23
	C414.2,361.5,424.4,371.8,424.4,384.5z M278.5,303.6c0,10.1-8.2,18.4-18.2,18.4h-18.2c-71.1,0-128.9,58.6-128.9,130.6
	c0,10.1-8.2,18.4-18.2,18.4S77,462.7,77,452.6c0-92.4,74.1-167.4,165.2-167.4h18.2C270.3,285.2,278.5,293.5,278.5,303.6z"/>
</svg>
