<svg xmlns="http://www.w3.org/2000/svg" viewBox="0 0 216.61 216.34"><g id="Layer_2" data-name="Layer 2" fill="#64728c"><g id="Layer_1-2" data-name="Layer 1"><style>.cls-1{fill:#64728c;}</style><path d="M216.51,60.48c-.1-26-19-46.24-45-48.33-2-.16-2.9-.54-3.43-2.73-1.43-5.83-6-9.33-11.44-9.42s-10.18,3.4-11.83,9.45c-.5,1.84-1.05,2.6-3.09,2.59q-33.47-.1-66.94,0c-1.79,0-2.37-.52-2.84-2.34C70.34,3.56,65.89,0,60.27,0S50.16,3.43,48.54,9.56c-.52,2-1.31,2.41-3.16,2.57C18.57,14.46.09,34.52,0,61.43Q0,113.89,0,166.36c0,29.17,20.8,49.89,50,49.94q29.06,0,58.12,0c19.9,0,39.81.1,59.72,0,27.5-.16,48.5-21,48.61-48.47Q216.72,114.14,216.51,60.48Zm-24,18q0,43.46,0,86.91c0,17.08-9.76,26.84-26.82,26.85q-28.65,0-57.32,0-28.86,0-57.72,0c-16.55,0-26.51-9.91-26.53-26.37q0-52.06,0-104.13c0-13.46,8.1-23.36,20.38-25.37C46.71,36,48,36,48.69,38.84A11.55,11.55,0,0,0,60.28,48,11.8,11.8,0,0,0,71.81,38.7c.53-2.09,1.25-2.72,3.38-2.71q33.07.12,66.14,0c2.08,0,2.92.52,3.48,2.64,1.56,5.88,6,9.32,11.46,9.39s10.27-3.41,11.79-9.49c.61-2.42,1.65-2.48,3.59-2.22a24,24,0,0,1,20.74,23C192.65,65.68,192.48,72.09,192.48,78.5Z"/><path d="M137.74,168.23c-8.73-.14-7.82,1.36-9.69-9.27-5.76-32.86-24.81-54.73-56.54-65.37a60,60,0,0,0-18.07-3.2c-3.75-.07-5.73-1.48-5.34-5.57a65.54,65.54,0,0,0,0-8.41C48,73.05,49.59,72,52.81,72.15,71.64,73.29,89,78.8,104.44,89.74q36.6,26,42,70.71c.11.93.13,1.87.28,2.79.57,3.62-.83,5.34-4.59,5C140.69,168.13,139.21,168.23,137.74,168.23Z"/><path d="M101.66,168.23c-8.21,0-8.21,0-9.41-8.11-2.69-18-19.17-32.86-37.45-33.65-6.65-.28-6.65-.28-6.65-6.85,0-2.27.1-4.54,0-6.8-.18-3.25,1.26-4.53,4.49-4.57,29.48-.4,56.26,24.39,58,53.74.36,6.24.36,6.24-5.74,6.24Z"/><path d="M73.79,169.75c-4.09,0-4.09,0-4.69-4.18-1.34-9.33-9.55-17-18.65-17.39-3.32-.14-3.32-.14-3.32-3.54,0-1.17,0-2.34,0-3.51-.09-1.68.63-2.34,2.24-2.36,14.68-.2,28,12.6,28.89,27.76.18,3.22.18,3.22-2.86,3.22Z"/></g></g></svg>