<?xml version="1.0" encoding="utf-8"?>
<!-- Generator: Adobe Illustrator 24.0.1, SVG Export Plug-In . SVG Version: 6.00 Build 0)  -->
<svg version="1.1" id="Capa_1" xmlns="http://www.w3.org/2000/svg" xmlns:xlink="http://www.w3.org/1999/xlink" x="0px" y="0px"
	 viewBox="0 0 512 512" style="enable-background:new 0 0 512 512;" xml:space="preserve">
<style type="text/css">
	.st0{fill:#FFFFFF;}
</style>
<g>
	<g>
		<path class="st0" d="M418.6,118.6c-39.9-40-91.8-63.4-147.6-67V30h22c8.3,0,15-6.7,15-15s-6.7-15-15-15h-74c-8.3,0-15,6.7-15,15
			s6.7,15,15,15h22v21.6c-38.3,2.5-74.7,14.3-106.7,34.3L120,71.6c-6.9-6.9-16.2-10.8-26-10.8s-19,3.8-26,10.8L46.4,93.4
			c-14.3,14.3-14.3,37.6,0,51.8l14.3,14.4C38.1,195.8,26,237.8,26,281.6c0,61.5,23.9,119.4,67.4,162.9C136.8,488,194.6,512,256,512
			s119.2-24,162.6-67.5C462.1,401,486,343.1,486,281.6S462.1,162.1,418.6,118.6z M67.7,114.6l21.7-21.7c1.7-1.7,3.7-2,4.7-2
			c1,0,3,0.3,4.7,2l10.9,10.9c-5.6,4.7-11.1,9.6-16.3,14.9c-5.2,5.2-10.2,10.7-14.8,16.3L67.7,124C65.1,121.4,65.1,117.2,67.7,114.6
			z M256,482c-110.3,0-200-89.9-200-200.4S145.7,81.1,256,81.1S456,171,456,281.6S366.3,482,256,482z"/>
	</g>
</g>
<g>
	<g>
		<path class="st0" d="M256,109.2c-94.8,0-172,77.3-172,172.3s77.2,172.3,172,172.3s172-77.3,172-172.3S350.8,109.2,256,109.2z
			 M271,423.1v-17.5c0-8.3-6.7-15-15-15s-15,6.7-15,15v17.5c-66.4-7-119.2-60-126.2-126.5H132c8.3,0,15-6.7,15-15s-6.7-15-15-15
			h-17.2C121.8,200,174.6,147,241,140v17.5c0,8.3,6.7,15,15,15s15-6.7,15-15V140c66.4,7,119.2,60,126.2,126.5H380
			c-8.3,0-15,6.7-15,15s6.7,15,15,15h17.2C390.2,363.1,337.4,416.1,271,423.1z"/>
	</g>
</g>
<g>
	<g>
		<path class="st0" d="M293,272.9h-21.2v-60.7c0-8.3-6.7-15-15-15s-15,6.7-15,15v75.7c0,8.3,6.7,15,15,15H293c8.3,0,15-6.7,15-15
			S301.3,272.9,293,272.9z"/>
	</g>
</g>
</svg>
