<?xml version="1.0" encoding="utf-8"?>
<!-- Generator: Adobe Illustrator 24.0.1, SVG Export Plug-In . SVG Version: 6.00 Build 0)  -->
<svg version="1.1" id="Layer_1" xmlns="http://www.w3.org/2000/svg" xmlns:xlink="http://www.w3.org/1999/xlink" x="0px" y="0px"
	 viewBox="0 0 559.5 559.5" style="enable-background:new 0 0 559.5 559.5;" xml:space="preserve" fill="#64728c">

<title>copy</title>
<g id="Layer_2_1_">
	<g id="Layer_1-2">
		<path class="st0" d="M261.8,1.1h-17.4c-0.4-0.2-0.5-0.4-0.4-0.7s0.2-0.3,0.4-0.3h17.4c0.4,0.2,0.5,0.4,0.4,0.7
			S261.9,1.1,261.8,1.1z"/>
		<path class="st1" d="M261.8,1.1c0-0.3,0-0.7,0-1h17.4c0.4,0.2,0.5,0.4,0.4,0.6s-0.2,0.3-0.3,0.3L261.8,1.1z"/>
		<path class="st2" d="M279.2,1.1v-1h17.5c0.4,0.2,0.5,0.4,0.4,0.6c-0.1,0.2-0.2,0.3-0.3,0.3L279.2,1.1z"/>
		<path class="st3" d="M359.9,1h-17.4c-0.4-0.2-0.5-0.4-0.4-0.6s0.2-0.3,0.4-0.3h17.5c0.3,0.2,0.5,0.4,0.4,0.6S360,1,359.9,1z"/>
		<path class="st4" d="M296.7,1c0-0.3,0-0.6,0-0.9H313c0.4,0.2,0.5,0.4,0.4,0.6S313.1,1,313,1H296.7z"/>
		<path class="st5" d="M342.4,0.1c0,0.3,0,0.6,0,0.9h-16.3c-0.4-0.2-0.5-0.4-0.4-0.6s0.2-0.3,0.4-0.3L342.4,0.1z"/>
		<path class="st6" d="M359.9,1c0-0.3,0-0.6,0-0.9h16.4c0.3,0.2,0.5,0.4,0.4,0.6c-0.1,0.2-0.2,0.3-0.4,0.3H359.9z"/>
		<path class="st7" d="M244.3,0.1c0,0.3,0,0.7,0,1H229c-0.4-0.2-0.5-0.5-0.4-0.7S228.9,0,229,0L244.3,0.1z"/>
		<path class="st8" d="M214.9,1.2c-4.7-0.6-9.6,1.3-14.2-1.1h14.2c0.3,0.2,0.5,0.5,0.4,0.7C215.1,1,215,1.2,214.9,1.2z"/>
		<path class="st9" d="M214.9,1.2V0.1h14.2c0,0.4,0,0.7,0,1.1L214.9,1.2z"/>
		<path class="st10" d="M326.1,0.1c0,0.3,0,0.6,0,0.9H313c0-0.3,0-0.6,0-0.9L326.1,0.1z"/>
		<path class="st11" d="M376.3,1c0-0.3,0-0.6,0-0.9h13.1c0.4,0.2,0.5,0.4,0.4,0.6c-0.1,0.2-0.2,0.3-0.3,0.3H376.3z"/>
		<path class="st12" d="M389.3,1c0-0.3,0-0.6,0-0.9h13.1c0.1,0.3,0.1,0.7,0.1,1L389.3,1z"/>
		<path d="M526.2,148.8c0.1-6.4-2.3-12.5-6.7-17.1c-14.1-15.6-27.9-31.6-41.7-47.5c-23.5-26.8-46.9-53.6-70.3-80.4
			c-1.5-1.7-3.1-3.1-5.5-3.3c-4.3,0-8.6,0-12.9,0H215.1c-4.8-0.3-9.6,0.6-14.4-0.6h-15.3c-5.6,1.1-11.5,0.9-17,3.2
			c-25,11.5-40.9,30.2-46,57.5c-1.4,7.3-1.3,7.3-8.6,7.3c-10.9,0-21.8,0.7-32.2,4.4c-27.7,10-47.1,37.8-47.1,67.7
			c0.1,114.8,0,229.7-0.1,344.5c0,13.3,2.7,25.7,9.6,36.9c13.5,22,32,36.9,59,37c89.2,0.1,178.4,0.1,267.6,0
			c7.3,0,14.5-0.8,21.3-3.8c23.1-10.3,38.4-27.5,45.3-52c1.1-4-0.3-9.5,3.6-12c3.6-2.3,8.5-0.8,12.9-0.8
			c38.6-0.2,72.5-33.9,72.5-72.6C526,328,526,238.4,526.2,148.8z M402,495.7c-3,15.5-13.3,25.3-29,27.3c-2.9,0.3-5.8,0.5-8.7,0.4
			c-84.8,0-169.7,0-254.5,0C86.3,523.4,71,508,71,484.5c0-56.9,0-113.7,0-170.6c0-56.7,0-113.3,0-170c0-21.3,7.7-31.3,28.2-36.5
			c6.9-1.6,13.9-2.5,21-2.5c2.3-0.1,3.4,0.4,3.1,2.9c-0.1,1.3-0.1,2.5,0,3.8c0,101,0.5,202-0.2,303c-0.3,36.6,28.3,69,62.2,73.4
			c3.8,0.4,7.6,0.6,11.4,0.6c66.5,0,133,0,199.5-0.1C403.4,488.4,403.4,488.4,402,495.7z M419.4,352.7c-1.6,7.8-8.4,13.4-16.3,13.7
			c-9.1,0.3-18.2,0.1-27.2,0.1h-52.3v0c-26,0-52,0-77.9,0c-7.7,0-13.3-3.7-16.3-10.6c-2.9-6.6-1.6-12.8,3-18.3c3.8-4.4,8.9-6,14.6-6
			c11.6,0,23.3,0,34.9,0c38.9,0,77.7,0,116.6,0c2.5-0.1,5.1,0.1,7.6,0.6C415.4,334.3,421.4,343.4,419.4,352.7z M401.8,279.4
			c-26,0.1-52,0-77.9,0c-26,0-52,0.1-77.9,0c-13.5-0.1-21.8-12.8-16.3-24.5c3.5-7.4,9.8-10.3,17.7-10.3c15.8,0,31.6,0,47.4,0
			c34.9,0,69.8,0,104.6,0c8.3,0,15.1,2.4,18.8,10.4C423.7,266.6,415.3,279.3,401.8,279.4z M434.8,139.3
			c-17.4-0.9-31.7-15.8-32.2-33.3c-0.6-23-0.1-46-0.1-70.3l87,103.8C470.6,139.5,452.7,140.2,434.8,139.3z"/>
	</g>
</g>
</svg>
