<svg xmlns="http://www.w3.org/2000/svg" viewBox="0 0 336.68 313.51" fill="#64728c"><g id="Layer_2" data-name="Layer 2"><g id="Layer_1-2" data-name="Layer 1"><path d="M61.14,82.47c-7,7-13.25,13.45-19.71,19.76-7,6.83-15.34,9-24.72,6.08-15.88-5-21.9-24.64-11.63-37.74a39.89,39.89,0,0,1,3.14-3.49q29.46-29.49,59-58.94C76.65-1.31,89.44-2.62,99.45,4.67A22.28,22.28,0,0,1,102,6.82c20.61,20.59,41.37,41,61.76,61.84a24,24,0,0,1-10.94,40c-8.66,2.37-16.51.42-23-5.78-6.69-6.43-13.07-13.18-20.34-20.56v4.47q0,100.51,0,201c0,11.66-6,20.69-16.1,24.29-15.89,5.68-32.22-6-32.25-23.18q-.11-66.06,0-132.11V82.47Z"/><path class="cls-1" d="M230.35,98c-.43.61-1,.37-1.62.35-.11-.09-.15-.17-.1-.24s.08-.11.13-.11Z"/><path class="cls-1" d="M336.68,198.3c-.61-.44-.36-1.05-.34-1.62.13-.16.24-.15.34,0Z"/><path class="cls-2" d="M239.16,98.3c-.45,0-.92.17-1.21-.34h1.2c.12.07.17.15.13.22S239.2,98.3,239.16,98.3Z"/><path class="cls-2" d="M336.34,207.11c0-.45-.17-.92.34-1.21v1.19C336.58,207.27,336.46,207.27,336.34,207.11Z"/><path class="cls-3" d="M228.76,98a2.07,2.07,0,0,1,0,.35c-.33,0-.68.12-.77-.35Z"/><path class="cls-4" d="M239.16,98.3c0-.11,0-.23,0-.34h.8c.12.07.16.14.13.22s-.07.12-.11.12Z"/><path class="cls-3" d="M240,98.3c0-.12,0-.23,0-.34h.8C240.65,98.45,240.3,98.35,240,98.3Z"/><path class="cls-3" d="M336.68,196.7l-.34,0c0-.33-.13-.68.34-.78Z"/><path class="cls-4" d="M336.34,207.11l.34,0v.8c-.1.17-.21.19-.33,0Z"/><path class="cls-3" d="M336.35,207.92l.33,0v.8C336.2,208.6,336.3,208.25,336.35,207.92Z"/><path d="M336.68,194.3c-.34-2-.2-4.08-.45-6.11a106.18,106.18,0,0,0-14-40.49c-4.43-7.65-10.18-14.31-16.28-20.66-8.56-8.9-19-15.31-29.91-20.69a86.23,86.23,0,0,0-27.55-7.88c-2.16-.26-4.35-.12-6.5-.51h-1.2c-.26.28-.6.19-.91.21h-.73c-.39,0-.82.13-1.16-.21h-7.6c-.44.38-1,.14-1.45.21-.32,0-.68.08-.94-.21h-1.6c-2,.36-4,.2-5.91.49-11.27,1.66-22,4.67-32.14,10.25-10.65,5.87-20.38,12.68-28.65,21.71a105.65,105.65,0,0,0-19.77,30.52A95.47,95.47,0,0,0,132,195.57c-.33,11.29,0,22.44,2.92,33.47a108.3,108.3,0,0,0,11.6,27.74,98.65,98.65,0,0,0,21.38,25.43c9.87,8.36,20.78,15.13,33.08,19.34a89,89,0,0,0,26.57,5.15c5.92.15,11.88.43,17.74-.2,12.73-1.37,24.89-4.71,36.18-11.14,10.2-5.8,19.72-12.31,27.57-21.17a113,113,0,0,0,15.38-21.32,105.38,105.38,0,0,0,11.78-36.07c.27-2,.12-4.09.51-6.11v-2c-.27-.25-.18-.59-.2-.9v-.73c0-.39-.14-.83.2-1.16v-7.6c-.38-.44-.13-1-.2-1.45,0-.33-.09-.68.2-.95Zm-27.85,37.41a86,86,0,0,1-10.21,18.83c-7.17,10.34-16.64,17.9-27.55,24-14.76,8.23-30.51,10.63-47.09,8.62a68.9,68.9,0,0,1-24.1-7.25c-10.09-5.34-19.36-11.89-26.54-20.9-5-6.28-9.51-13-12.49-20.51-4.08-10.33-6.65-21-6.45-30.5a86,86,0,0,1,4.95-29.67A84.5,84.5,0,0,1,170.85,153c7.25-10,16.62-17.35,27.41-23.22,16.42-8.94,33.76-10.85,51.87-7.44a62.72,62.72,0,0,1,17.89,6c10.07,5.36,19.45,11.7,26.77,20.63,11,13.5,17.7,28.86,19.18,46.36A82.52,82.52,0,0,1,308.83,231.71Z"/><path d="M236,150.27c4.55.95,7.14,4.12,7.15,8.94q0,20.67,0,41.35a4,4,0,0,0,1.27,3.14c9.37,9.43,18.74,18.86,28,28.4,2.61,2.7,3.94,6,2.54,9.85a8.3,8.3,0,0,1-7.26,5.73,8.73,8.73,0,0,1-7.51-2.94c-5.33-5.47-10.64-11-16-16.39-4.49-4.55-9-9.09-13.57-13.55a14.78,14.78,0,0,1-4.81-11.46c.22-14.65.07-29.3.09-44,0-5,2.56-8.18,7.17-9.12A3.18,3.18,0,0,1,236,150.27Z"/></g></g></svg>