<svg xmlns="http://www.w3.org/2000/svg" viewBox="0 0 511.81 556.23" fill="#64728c"><defs><style>.cls-1{fill=#64728c;}.cls-2{stroke:#64728c;stroke-miterlimit:10;stroke-width:7px;}</style></defs><g id="Layer_2" data-name="Layer 2"><g id="Layer_1-2" data-name="Layer 1"><path class="cls-1" d="M209.42,168.81c-1.5,1.06-3,1.26-4.5,0Z"/><path class="cls-2" d="M410.65,221.13c-.1-20.29-9.11-35.91-26.56-46.56-6-3.68-12.58-5.21-19.48-5.76H209.42a5.76,5.76,0,0,1-4.5,0h-1.5a1.84,1.84,0,0,1-1,.37c-11.94,0-22.13,4.83-31.21,12-16,12.59-31.5,25.79-47,39-14.78,12.57-22.83,29-22.92,48.28-.34,77.81-.19,155.63-.08,233.45a49.54,49.54,0,0,0,10,30.09c8.81,11.8,20.15,19.52,35.24,20.78H364.61c3.88-.79,7.89-.65,11.7-2.08a53.08,53.08,0,0,0,34.4-49.87q.09-70.47,0-140.95C410.73,313.6,410.89,267.37,410.65,221.13ZM383.81,360.92q0,69.15,0,138.31c0,13.61-7,23.52-18.88,26.86a29.69,29.69,0,0,1-8.14,1q-101,0-202,0c-15.79,0-26.91-11.05-26.92-26.85q-.06-115.08,0-230.15a37.82,37.82,0,0,1,14.33-30.42c14.15-11.69,28.43-23.23,42.48-35a42.91,42.91,0,0,1,28.86-10.35c47.47.15,94.94.11,142.41.16,17.16,0,27.83,10.66,27.84,27.79Q383.85,291.58,383.81,360.92Z"/><path d="M258.09,466c-25.1,0-50.2-.2-75.29.1-8.89.11-14.33-6.4-14.28-13,0-7.39,6-12.66,14.2-12.67l151.71,0c7.54,0,13.23,5.53,13.25,12.8S342.2,465.94,334.51,466q-38.2.06-76.42,0Z"/><path d="M256.91,399c-25.1,0-50.2-.2-75.3.1-8.88.11-14.32-6.4-14.28-13,0-7.39,6-12.66,14.2-12.67q75.85,0,151.72,0c7.54,0,13.23,5.53,13.25,12.8S341,398.94,333.32,399q-38.2.06-76.41,0Z"/><path d="M255.91,332c-25.1,0-50.2-.2-75.3.1-8.88.11-14.32-6.4-14.28-13,0-7.39,6-12.66,14.2-12.67q75.85,0,151.72,0c7.54,0,13.23,5.53,13.25,12.8S340,331.94,332.32,332c-53,.08-22.47,0-76.41,0Z"/><path d="M471.76,155.74c0,.46,0,.78,0,1s.13.71.23,1.38"/><path d="M507.76,98.48c-11.76-23.21-30.52-35.72-56.58-36-34.13-.38-68.28-.09-102.41-.09-35.64,0-71.28-.06-106.92.07-4.63,0-7.35-1.18-8.79-5.95-3.57-11.83-10.05-22-18.61-30.94C199.44,9.78,181,1.23,159.5.6Q118.06-.63,76.57.58c-22.85.62-42.14,10.18-57.45,27.3C8.16,40.12,1.45,54.31,0,70.81V401.68c.76.23.89.84,1,1.52,5.5,37.22,39,67.73,82.63,67.69l31.65,0a32.16,32.16,0,0,1,6.84,1.75c-.15-8.44-.63-16.85-1.12-25.43-.35-6.21-.78-12.57-1-18.95-4.2-.07-8.41,0-12.61.06a108.13,108.13,0,0,1-24.16,2.41C56.53,430.7,40,414.15,40,387.41q0-96.2,0-192.41c0-37.81-.12-75.63,0-113.45A39.6,39.6,0,0,1,79.31,41.9q38.49-.36,77,0a39.83,39.83,0,0,1,39.63,39.37c.35,15.12,7.9,22.56,23,22.56q66.47,0,132.94,0,49.49,0,99,0c12.57,0,20.91,8.4,21,21V237.89c0,26.48-.06,53,0,79.46,0,12.46,10.09,21.64,22.11,20.25,9.55-1.1,14.86-7.26,17.85-15.89V115.79C510.73,110,510.55,104,507.76,98.48ZM112.91,470.73h.55c.29,0,.59,0,.88,0-1.42,0-5.61.08-1.62,0C100.21,470.73,94,470.73,112.91,470.73Z"/></g></g></svg>