<svg xmlns="http://www.w3.org/2000/svg" viewBox="0 0 224.53 144.67" fill="#64728c"><title>down arrow</title><g id="Layer_2" data-name="Layer 2"><g id="Layer_1-2" data-name="Layer 1"><path d="M112.54,104.2c13.58-15.86,27-31.47,40.34-47.08q21.41-25,42.82-50c3.91-4.57,8.71-7,14.79-6.22A15.22,15.22,0,0,1,223.34,11c2.34,6,1.14,11.52-3,16.38-6.85,8.08-13.77,16.11-20.66,24.16q-36.84,43-73.68,86.07c-4.56,5.35-9.91,8.2-17.07,6.67a16.24,16.24,0,0,1-9-5.63q-48-56.11-96-112.24A15.77,15.77,0,0,1,5.57,3.94c7-6,16.68-5.09,22.93,2.2q37.13,43.29,74.18,86.63C105.91,96.53,109.16,100.28,112.54,104.2Z"/></g></g></svg>