<svg xmlns="http://www.w3.org/2000/svg" viewBox="0 0 244.92 311.69"><defs><style>.cls-1{fill:#64728c;}</style></defs><g id="Layer_2" data-name="Layer 2"><g id="Layer_1-2" data-name="Layer 1"><path class="cls-1" d="M108.48,149.42v-4.55q0-33.47,0-66.92c0-8,4.79-13.4,11.84-13.48s12.1,5.44,12.1,13.61q0,35.15,0,70.32c1.36.36,1.71-.86,2.31-1.45,4.54-4.44,8.91-9.07,13.54-13.41a11.9,11.9,0,0,1,16.85,16.79q-18.06,18.42-36.47,36.48c-4.8,4.71-11.64,4.62-16.46-.12q-18.27-17.94-36.25-36.18a11.91,11.91,0,0,1,16.79-16.89C97.87,138.51,102.77,143.67,108.48,149.42Z"/><path class="cls-1" d="M120.15,243h-58c-8,0-13.4-4.83-13.46-11.87S54.08,219.09,62,219.09q58.55,0,117.09,0c7.87,0,13.33,5,13.27,12.07S186.85,243,178.88,243Z"/><path class="cls-1" d="M231.18,51.28c-13.71-13.09-27.57-26-41.32-39.08C181.44,4.2,171.44.51,160,.47L44,0A43.78,43.78,0,0,0,33.43,1.16C13.68,6,1,22.35.91,43.48q-.32,56-.47,112Q.21,211.13,0,266.74c-.08,26.63,18.71,44.31,45.26,44.42,50.28.2,102.28.33,152,.53,26.94.11,46.75-16.83,46.89-43.44q.47-92.26.77-184.54A42.84,42.84,0,0,0,231.18,51.28Zm-8,201.06c0,22.83-16.31,37.43-38.53,37.43-41,0-83.9.07-125.36.07-21.9,0-37.46-15.11-37.48-37.95q0-47.73,0-95.47,0-48.06,0-96.12c0-18.13,10.41-32.2,26.68-36.42a34.68,34.68,0,0,1,8.72-1q47.84,0,95.66,0a33.87,33.87,0,0,1,24.68,10C189,44,200.44,55,211.79,66.2A37.46,37.46,0,0,1,223.23,94Q223.2,173.17,223.21,252.34Z"/></g></g></svg>