<?xml version="1.0" encoding="utf-8"?>
<!-- Generator: Adobe Illustrator 24.0.1, SVG Export Plug-In . SVG Version: 6.00 Build 0)  -->
<svg version="1.1" id="Layer_1" xmlns="http://www.w3.org/2000/svg" xmlns:xlink="http://www.w3.org/1999/xlink" x="0px" y="0px"
	 viewBox="0 0 492 492" style="enable-background:new ;" xml:space="preserve" fill="#64728c">

<title>edit</title>
<g id="Layer_2_1_">
	<g id="Layer_1-2">
		<path d="M4.1,470.3c3.6-9.1,5.2-18.9,7.6-28.3c7.5-29.6,14.8-59.3,22.2-89c0.7-2.9,2.3-5.6,4.5-7.7
			c88.7-88.7,177.3-177.3,265.9-266c2.7-2.7,3.9-2.2,6.2,0.2c32.9,33.1,65.9,66,99,98.9c2.7,2.7,2.5,4-0.1,6.5
			c-88.4,88.2-176.7,176.5-265,264.9c-2.5,2.6-5.8,4.5-9.4,5.4c-39,9.5-78,19.2-116.9,28.9c-0.2,0.1-0.4,0.5-0.6,0.7h-5.8
			c-4-0.5-7.2-3.7-7.7-7.7V470.3z"/>
		<path class="st0" d="M4.1,491c1.7,3.3,4.4,5.9,7.7,7.7C4.1,498.6,4.1,498.6,4.1,491z"/>
		<path d="M481,91.1c-0.3,13.5-4.5,25.7-14,35.6c-12,12.4-24.4,24.4-36.4,36.8c-2.8,2.9-3.8,0.2-5.1-1.2
			c-27.8-27.7-55.6-55.5-83.4-83.3c-5.5-5.5-11-11.1-16.6-16.5c-1.8-1.7-1.9-2.7,0-4.5c11.8-11.6,23.3-23.7,35.4-35.1
			c20.3-19.3,52.5-19.7,73-0.7c11.6,10.7,22.6,22.1,33.5,33.6C476.6,65.5,480.7,77.6,481,91.1z"/>
	</g>
</g>
</svg>
