<svg xmlns="http://www.w3.org/2000/svg" viewBox="0 0 170.64 170.61"><title>expand</title><g id="Layer_2" data-name="Layer 2"><g id="Layer_1-2" data-name="Layer 1" fill="#64728c"><path d="M132.73,21.3c-4.79,0-9.59.06-14.38,0-6.82-.11-11.54-4.36-11.69-10.42C106.5,4.63,111.29.11,118.4.06q20.23-.12,40.48,0c7.74.05,11.65,4,11.69,11.76q.13,20.25,0,40.48c0,6.92-4.27,11.54-10.37,11.67s-10.74-4.71-10.85-11.75c-.07-4.92,0-9.83-1.13-15.31-4.24,4.38-8.43,8.8-12.72,13.14-6.92,7-13.84,14-20.87,20.83-4.88,4.76-11.29,4.89-15.57.56s-4.12-10.76.64-15.59q14.73-15,29.68-29.69a36.64,36.64,0,0,1,4.42-3.24Z"/><path d="M21.33,134.27c12-12,22.92-23,33.83-33.94,3.17-3.18,6.81-4.74,11.3-3.3a10.22,10.22,0,0,1,7.31,8.1c.93,4.38-1,7.69-4,10.68C58.9,126.6,48.1,137.45,36.22,149.32c6.51,0,11.85-.13,17.19,0a10.42,10.42,0,0,1,10.31,8.49,10.22,10.22,0,0,1-5.29,11.35,13.87,13.87,0,0,1-5.74,1.3q-20.74.18-41.48.06C4.16,170.51,0,166.32,0,159.31q-.06-20.49.08-41c0-6.92,4.25-11.55,10.33-11.7,6.24-.15,10.77,4.67,10.89,11.71C21.39,123.13,21.33,127.92,21.33,134.27Z"/></g></g></svg>