<svg xmlns="http://www.w3.org/2000/svg" viewBox="0 0 190.81 190.48"><defs><style>.cls-1{fill:#64728c;}</style></defs><g id="Layer_2" data-name="Layer 2"><g id="Layer_1-2" data-name="Layer 1"><path class="cls-1" d="M94,63.63V40.81c0-9.28,0-9.07-9.37-9.31-3.76-.1-4.72.94-4.65,4.66.24,13.4,0,26.8.16,40.19,0,3-.64,4.08-3.8,4-5.95-.25-11.91-.07-17.86-.07-10.31,0-10.2,0-10.11,10.41,0,2.77.7,3.61,3.54,3.58,12.74-.16,25.47-.21,38.21,0,3.54.06,4-1.33,3.94-4.31C93.88,81.16,94,72.4,94,63.63Z"/><path class="cls-1" d="M173.58,103.22c-1.88-1.75-2.6-3.16-2.25-5.87a84.49,84.49,0,0,0-1.25-30.11C159.86,23.32,120.27-4.43,74.94.58,33.27,5.19.68,42.13,0,85.5c-.79,51.59,45.39,92.31,97.37,85.68,3-.38,4.44.46,6.26,2.46,11.6,12.77,26.21,18.63,43.22,16.36,20.7-2.78,35.13-14.56,41.37-34.5C194.54,135.34,189.11,117.62,173.58,103.22Zm-80.87,51c.27.95.47,1.92.76,3.12C59,162.33,24,137.64,15.77,103A72.44,72.44,0,0,1,88.2,13.54c39.85,1.05,72.21,35.79,70.06,75.06-.21,3.84-.83,4.73-5,3.64C115.58,82.46,82.24,116.72,92.71,154.24Zm48,22.09a35.94,35.94,0,1,1,35.84-36.27A36,36,0,0,1,140.71,176.33Z"/><path class="cls-1" d="M133.69,133.21v8.94c0,10.41,0,10.32,10.62,9.91,2.58-.1,3.41-.85,3.36-3.43-.14-7.78,0-15.56,0-23.34,0-11.1,0-11-11-10.58-2.41.09-3.08.77-3,3.11C133.8,123,133.69,128.08,133.69,133.21Z"/><path class="cls-1" d="M143.6,156.48c-2.45.28-4.95,0-7.43.07-.92,0-2.3-.32-2.36,1-.16,3.13-.8,6.54.19,9.33.83,2.33,4.18.44,6,1,8.77-.2,7.37,1.43,7.71-7.32C147.82,157.35,146.91,156.12,143.6,156.48Z"/></g></g></svg>