<svg xmlns="http://www.w3.org/2000/svg" viewBox="0 0 525.92 526.36" fill="#64728c"><defs><style>.cls-1{stroke:fill="#64728c";stroke-miterlimit:10;stroke-width:16px;}</style></defs><title>filter</title><g id="Layer_2" data-name="Layer 2"><g id="Layer_1-2" data-name="Layer 1"><path class="cls-1" d="M511.26,10.91C507,8,502.21,8,497.41,8Q264,8,30.54,8a43.57,43.57,0,0,0-5,.1C15.29,9.24,8.5,16.58,8.13,27a149,149,0,0,0,.78,23.34c5.47,44.24,23.23,82.7,54.55,114.7,11.38,11.64,23.87,22.05,36,32.9,19.13,17.16,38.18,34.44,57.67,51.19,17.76,15.26,26.82,34.09,26.8,57.47q-.08,94.33,0,188.67c0,13.45,4.3,19.38,16.4,23.07h9a95,95,0,0,0,9.11-4.79c37.79-25.1,75.48-50.34,113.3-75.4,7.61-5,11.12-11.62,11.08-20.77-.17-37.15,0-74.3-.09-111.45,0-22.56,8.43-41.16,25.27-56.09Q410,212.58,452,175.21c28.57-25.36,48.47-56.2,59.24-92.95,3-10.18,4.42-20.64,6.71-30.94V20.45A16.75,16.75,0,0,0,511.26,10.91Zm-83.12,132c-28.66,25.93-57.71,51.44-86.59,77.13q-38.82,34.55-38.72,86.51.07,49.29,0,98.57c0,2.26.23,4.24-2.31,5.91-24.89,16.41-49.65,33-74.68,49.7-1.19-1.74-.64-3.57-.64-5.24,0-48.95-.25-97.9,0-146.85.21-36-12.8-65.75-39.8-89.58-29.35-25.91-58.83-51.69-87.65-78.18C70.84,116.14,55.51,85,50.22,48.53H477.77C472.3,86,456.09,117.66,428.14,142.94Z"/></g></g></svg>