<?xml version="1.0" encoding="utf-8"?>
<!-- Generator: Adobe Illustrator 24.0.1, SVG Export Plug-In . SVG Version: 6.00 Build 0)  -->
<svg version="1.1" id="Capa_1" xmlns="http://www.w3.org/2000/svg" xmlns:xlink="http://www.w3.org/1999/xlink" x="0px" y="0px"
	 viewBox="0 0 389.3 389.3" style="enable-background:new 0 0 389.3 389.3;" xml:space="preserve">
<style type="text/css">
	.st0{fill:#64728C;}
</style>
<g>
	<g>
		<path class="st0" d="M389.3,24.3c0-11.8-9.6-21.3-21.3-21.3H21.3c-4.4,0-8.7,1.4-12.3,3.9c-9.6,6.8-12,20.1-5.2,29.7l125.7,178.7
			l0.4,130c0,8.1,2.4,16,6.9,22.8c12.7,19,38.3,24.1,57.3,11.5l44.9-29.9c11.9-8,19.1-21.4,19-35.7l-0.5-97.8L385.4,36.6
			C388,33,389.3,28.7,389.3,24.3z M214.9,202.5l0.5,111.6l-42.8,28.5l-0.4-140.9L62.4,45.6h264.2L214.9,202.5z"/>
	</g>
</g>
</svg>
