<svg id="Layer_1" data-name="Layer 1" xmlns="http://www.w3.org/2000/svg" viewBox="0 0 95.19 82.7" fill="#64728c"><defs></defs><path class="cls-1" d="M92.06,38.16a3.18,3.18,0,0,1-1.85-.61L47.52,7.08,4.83,37.55A3.18,3.18,0,0,1,1.14,32.4L45.68.59a3.17,3.17,0,0,1,3.69,0L93.9,32.4a3.18,3.18,0,0,1-1.84,5.76Z" transform="translate(-0.03 0)"/><path class="cls-1" d="M76.15,82.7H60.25a3.18,3.18,0,0,1-3.18-3.19V57.25H38V79.51A3.19,3.19,0,0,1,34.8,82.7H18.89a9.55,9.55,0,0,1-9.54-9.55L9.07,32c1-3.39,2.94-5.26,4.15-5s1.7,3,1.75,3.3q.38,21.41.74,42.83a3.18,3.18,0,0,0,3.18,3.18H31.62V54.07a3.18,3.18,0,0,1,3.18-3.19H60.25a3.19,3.19,0,0,1,3.18,3.19V76.33H76.15a3.18,3.18,0,0,0,3.18-3.18V41.34a3.19,3.19,0,0,1,6.37,0V73.15A9.56,9.56,0,0,1,76.15,82.7Z" transform="translate(-0.03 0)"/></svg>