<svg id="Layer_1" data-name="Layer 1" xmlns="http://www.w3.org/2000/svg" viewBox="0 0 27.11 20" fill="#64728c"><path d="M9,13.1a1,1,0,0,1,1.34.45,8,8,0,1,0,0-7.1A1,1,0,0,1,9,6.91H9a1,1,0,0,1-.45-1.34h0a10,10,0,1,1,0,8.9A1,1,0,0,1,9,13.11ZM4.13,11H15.66l-2.73,2.29a.9.9,0,0,0-.17,1.25l.17.17a1.38,1.38,0,0,0,1.7,0l4.81-4a.81.81,0,0,0,.25-.33.85.85,0,0,0,0-.76.81.81,0,0,0-.25-.33l-4.81-4a1.38,1.38,0,0,0-1.7,0h0a.9.9,0,0,0-.17,1.25,1.37,1.37,0,0,0,.17.17h0L15.66,9H4.13a1.13,1.13,0,0,0-1.2,1A1.13,1.13,0,0,0,4.13,11Z" transform="translate(-0.38 0)"/><path d="M5.83,11H1.75C.93,11,.38,10.6.38,10S.93,9,1.75,9H5.83c.82,0,1.37.4,1.37,1S6.65,11,5.83,11Z" transform="translate(-0.38 0)"/></svg>