<svg id="Layer_1" data-name="Layer 1" xmlns="http://www.w3.org/2000/svg" viewBox="0 0 27.49 20" fill="#64728c"><path d="M18.5,13.1a1,1,0,0,0-1.34.45,8,8,0,1,1,0-7.1,1,1,0,0,0,1.34.46h0A1,1,0,0,0,19,5.56h0a10,10,0,1,0,0,8.9,1,1,0,0,0-.45-1.34ZM11.84,9H23.37L20.64,6.71a.89.89,0,0,1-.17-1.25,1.37,1.37,0,0,1,.17-.17,1.38,1.38,0,0,1,1.7,0l4.81,4a.81.81,0,0,1,.25.33.85.85,0,0,1,0,.76.9.9,0,0,1-.25.33l-4.81,4a1.38,1.38,0,0,1-1.7,0h0a.89.89,0,0,1-.17-1.25,1.37,1.37,0,0,1,.17-.17h0L23.37,11H11.84a1.12,1.12,0,0,1-1.2-1A1.12,1.12,0,0,1,11.84,9Z" transform="translate(0 0)"/><path d="M7.28,11h4.09c.81,0,1.36-.4,1.36-1s-.55-1-1.36-1H7.28c-.82,0-1.37.39-1.37,1S6.46,11,7.28,11Z" transform="translate(0 0)"/></svg>