<svg id="Layer_1" data-name="Layer 1" xmlns="http://www.w3.org/2000/svg" viewBox="0 0 57.31 39.35" fill="#64728c"><path d="M40,29.52a2,2,0,0,0-2.63.89,15.74,15.74,0,1,1,0-14,2,2,0,1,0,3.54-1.77,19.66,19.66,0,1,0,0,17.51A2,2,0,0,0,40,29.54ZM24.13,21.07H51.28l-6.51-5.4a2.09,2.09,0,0,1,0-3.34,3.27,3.27,0,0,1,4,0l11.32,9.42a2.34,2.34,0,0,1,.59.78,2,2,0,0,1,0,1.79,2.3,2.3,0,0,1-.59.77L48.79,34.51a3.26,3.26,0,0,1-4,0v0a2.09,2.09,0,0,1,0-3.33h0l6.51-5.39H24.13a2.63,2.63,0,0,1-2.83-2.36A2.62,2.62,0,0,1,24.13,21.07Z" transform="translate(-3.61 -3.75)"/></svg>