<svg id="Layer_1" data-name="Layer 1" xmlns="http://www.w3.org/2000/svg" viewBox="0 0 1031.11 666.3"><defs><style>.cls-1{fill:#64728c;}</style></defs><path class="cls-1" d="M834.5,524.31l196.61-69.91L882.55,43.7,686,113.61l19.57,54.62H644.45L530.84,135.4c-35-10.92-72.08,0-96.06,28.47l-4.37,4.37H327.68l19.67-54.61L150.73,43.7,0,454.4l196.61,69.91,21.84-63.37L450.06,692.52A61,61,0,0,0,493.7,710h0a60.93,60.93,0,0,0,43.69-17.47c4.38-4.37,8.75-8.75,10.92-15.3,24,19.66,61.18,17.47,83-4.37,6.54-6.55,10.92-13.09,13.11-21.85,21.84,6.57,43.69,0,61.15-15.28,10.93-10.92,17.49-24,17.49-39.33,13.09-2.19,28.46-6.55,39.32-17.47a61,61,0,0,0,17.48-43.69c0-6.56-2.19-13.11-4.37-19.65l43.69-21.85Zm21.85-426,118,329.87L860.71,469.7l-118-329.87ZM56.8,428.18l118-329.87,113.6,41.52L170.4,469.7Zm675,120.16c-6.57,6.55-17.49,6.55-26.23,0L572.35,415.08l-30.58,30.58L675,578.92c6.54,6.55,6.54,17.47,0,26.21s-17.47,6.56-26.23,0l-19.65-19.66h0L515.55,469.7,485,500.28,600.76,616.05h0c4.35,4.37,4.35,8.75,4.35,13.11s-2.18,8.75-4.35,13.11c-6.57,6.56-19.68,6.56-26.23,0l-117.95-118L426,554.89l80.83,80.83c4.38,4.36,4.38,8.74,4.38,13.11s-2.19,8.74-4.38,13.1c-6.54,6.56-19.57,6.56-26.2,0L235.94,417.25,310.21,211.9H391l-50.25,56.8c-13.11,15.3-17.47,32.77-15.29,52.42s10.93,35,26.21,48c13.11,8.74,26.22,15.28,41.5,15.28,4.38,0,10.92,0,15.3-2.17L554.88,349.5l177,174.76c4.35,4.35,4.35,8.73,4.35,13.11s0,8.78-4.35,11Zm19.65-67.72L624.79,353.91l48,6.56,6.58-43.62L563.61,299.37l-166,37.05c-6.55,2.19-15.3,0-21.85-4.37S367,321.12,367,314.58A35.27,35.27,0,0,1,373.55,295L465.31,188c13.11-15.28,32.77-19.65,50.24-15.28l118,34.94h85.16l87.38,242.5Z" transform="translate(0 -43.7)"/></svg>