<svg id="Layer_1" data-name="Layer 1" xmlns="http://www.w3.org/2000/svg" viewBox="0 0 471.92 471.92"><defs><style>.cls-1{fill:#64728c;}</style></defs><path class="cls-1" d="M131.48,322.57a8,8,0,0,1,11.31,0l17.55,17.55,23.1-23.1a176.66,176.66,0,0,1-46.5-119.59c0-97.82,79.62-177.4,177.5-177.4s177.5,79.58,177.5,177.4-79.63,177.4-177.5,177.4a176.84,176.84,0,0,1-119.68-46.51l-23.11,23.11,17.74,17.74a8,8,0,0,1,0,11.32h0L89.89,480c-.35.35-.7.67-1,1-.15.13-.3.26-.45.41s-.2.2-.31.29A40.95,40.95,0,0,1,32,422.07Zm183,36.26c89.05,0,161.5-72.4,161.5-161.4S403.49,36,314.44,36s-161.5,72.41-161.5,161.4S225.39,358.83,314.44,358.83ZM43.36,468.74a24.82,24.82,0,0,0,33.9,1.15c.29-.28.58-.55.88-.81.14-.13.3-.26.44-.41l93.84-93.84-35.28-35.29-93.8,93.8a25,25,0,0,0,0,35.39Z" transform="translate(-20.01 -20.03)"/><path id="path7" class="cls-1" d="M313.72,53.89c78.75,0,142.83,64.08,142.83,142.83A142.86,142.86,0,0,1,313.72,339.54c-78.75,0-142.82-64.07-142.82-142.82S235,53.89,313.72,53.89Zm0,20.36A122.22,122.22,0,0,0,224,279.68,118.83,118.83,0,0,1,276.18,244a61,61,0,1,1,99.6-46.9,60.45,60.45,0,0,1-22.48,46.82,119,119,0,0,1,51.43,34.56,121.38,121.38,0,0,0,31.46-81.73A122.62,122.62,0,0,0,313.72,74.25Zm.73,81.84a40.7,40.7,0,0,0-1.35,81.37c.59,0,1.16-.12,1.76-.12s1,.1,1.51.12a40.69,40.69,0,0,0-1.93-81.35Zm1.94,101.68c-.49,0-1,.16-1.46.16h-.48c-.44,0-.82-.14-1.27-.16A98.61,98.61,0,0,0,239,293.45a121.77,121.77,0,0,0,150.94-1A98.67,98.67,0,0,0,316.39,257.77Z" transform="translate(-20.01 -20.03)"/></svg>