<svg id="Layer_1" data-name="Layer 1" xmlns="http://www.w3.org/2000/svg" viewBox="0 0 469 491.51"><defs><style>.cls-1{fill:#64728c;}</style></defs><path class="cls-1" d="M254.12,104.89A149.14,149.14,0,0,0,104.89,254.12V424.66A149.14,149.14,0,0,0,254.12,573.89H424.66A149.14,149.14,0,0,0,573.89,424.66V254.12A149.14,149.14,0,0,0,424.66,104.89Zm0,21.32H424.66A127.39,127.39,0,0,1,552.57,254.12V424.66A127.39,127.39,0,0,1,424.66,552.57H254.12A127.39,127.39,0,0,1,126.21,424.66V254.12A127.39,127.39,0,0,1,254.12,126.21Z" transform="translate(-104.89 -82.38)"/><path class="cls-1" d="M273.47,86.21c0-2.09-4.76-3.8-10.65-3.83S252.16,84,252.15,86.12l-.23,53c0,2.09,4.76,3.81,10.65,3.83s10.66-1.65,10.67-3.74Z" transform="translate(-104.89 -82.38)"/><path class="cls-1" d="M426.54,86.21c0-2.09-4.75-3.8-10.64-3.83S405.23,84,405.22,86.12l-.22,53c0,2.09,4.75,3.81,10.64,3.83s10.67-1.65,10.68-3.74Z" transform="translate(-104.89 -82.38)"/><path class="cls-1" d="M339.39,216.89a94.22,94.22,0,0,0-66.7,160.88,125.75,125.75,0,0,0-59.08,106.4,15.72,15.72,0,0,0,15.72,15.72h0a15.72,15.72,0,0,0,15.73-15.72A93.9,93.9,0,0,1,302,397.76a93.71,93.71,0,0,0,74.86,0,93.9,93.9,0,0,1,56.9,86.41,15.73,15.73,0,0,0,31.45,0,125.75,125.75,0,0,0-59.08-106.4,94.22,94.22,0,0,0-66.7-160.88Zm0,31.44a62.89,62.89,0,1,1-62.89,62.89A62.65,62.65,0,0,1,339.39,248.33Z" transform="translate(-104.89 -82.38)"/></svg>