<svg id="Layer_1" data-name="Layer 1" xmlns="http://www.w3.org/2000/svg" viewBox="0 0 523.47 523.44"><defs><style>.cls-1{fill:#64728c;}</style></defs><path class="cls-1" d="M288.3,613a10.53,10.53,0,0,1-1.26-.07,11.46,11.46,0,0,1-8.38-5.23L223.5,521l-86.67-55.16a11.39,11.39,0,0,1-1.94-17.7l32.29-32.32a11.34,11.34,0,0,1,12.17-2.58l59.84,23L385.41,267.38,201.17,142.7a11.54,11.54,0,0,1-5-8.36,11.41,11.41,0,0,1,3.31-9.16l32.29-32.29a11.53,11.53,0,0,1,12.56-2.44l214.62,92L477.47,161a171.19,171.19,0,0,1,129.11-58.72c20.26,0,35.63,15.37,35.63,34.26,0,50.89-21.4,97.93-58.7,130.46l-21.4,18.52,92,214.62a11.47,11.47,0,0,1-2.42,12.58l-32.29,32.29a11.87,11.87,0,0,1-9.16,3.32,11.57,11.57,0,0,1-8.36-5L477.17,359.12,308.26,505.34l23,59.84a11.44,11.44,0,0,1-2.58,12.17l-32.32,32.29A11.41,11.41,0,0,1,288.3,613ZM161.11,454.27l76.8,48.87a11.46,11.46,0,0,1,3.5,3.5l48.87,76.81,17-17-23.25-60.4a11.44,11.44,0,0,1,3.2-12.75L471.94,333.41a11.23,11.23,0,0,1,9-2.7,11.59,11.59,0,0,1,8,4.93L613,519.11l17-17L537.86,286.88a11.44,11.44,0,0,1,3-13.13l27.68-24A148.37,148.37,0,0,0,619.41,138c0-7.65-5.13-12.79-11.42-12.79-44.26,0-85,18.55-113.23,50.86l-23.94,27.66a11.36,11.36,0,0,1-13.13,3L242.46,114.5l-17,17L408.89,255.69a11.55,11.55,0,0,1,4.93,8,11.39,11.39,0,0,1-2.7,9L251.23,457.31a11.45,11.45,0,0,1-12.75,3.19l-60.4-23.25Z" transform="translate(-131.53 -89.56)"/></svg>