<svg id="Layer_1" data-name="Layer 1" xmlns="http://www.w3.org/2000/svg" viewBox="0 0 737.08 631.26"><defs><style>.cls-1{fill:#64728c;}</style></defs><path id="path7" class="cls-1" d="M377.15,6.76c-107.78,0-195.48,87.7-195.48,195.48A195.53,195.53,0,0,0,377.15,397.72c107.78,0,195.48-87.7,195.48-195.48S484.93,6.76,377.15,6.76Zm0,27.87c92.39,0,167.61,75.19,167.61,167.61A166.76,166.76,0,0,1,500,315.79a162.62,162.62,0,0,0-71.47-48.88,83.59,83.59,0,0,0,30.92-64.83c0-45.93-37.37-83.29-83.94-83.29-45.91,0-83.29,37.34-83.29,83.94,0,25.89,12.14,48.8,30.76,64.07a162.88,162.88,0,0,0-70.39,47.31,166.25,166.25,0,0,1-43.06-111.87C209.54,109.82,284.76,34.63,377.15,34.63Zm-1,112c30.58,0,55.42,24.85,55.42,56.07A55.4,55.4,0,0,1,378,258c-.81,0-1.59-.16-2.4-.16s-1.37.13-2.07.16a55.56,55.56,0,0,1-53.4-55.9C320.1,171.53,345,146.66,376.17,146.66ZM373.5,285.8c.67,0,1.35.22,2,.22h.65c.61,0,1.13-.19,1.74-.22a134.93,134.93,0,0,1,101.53,48.83,166.66,166.66,0,0,1-206.59-1.31A135.11,135.11,0,0,1,373.5,285.8Z" transform="translate(-8.26 -6.76)"/><path class="cls-1" d="M238.89,498.2a11.55,11.55,0,0,0-9.92-7.73l-65.64-9.57-29.41-59.64a11.53,11.53,0,0,0-20.76,0L83.74,480.78l-65.63,9.69a11.36,11.36,0,0,0-6.46,19.38L59.29,556,47.75,621.51a11.54,11.54,0,0,0,17,12.45l58.83-30.79L182.37,634a10.7,10.7,0,0,0,5.3,1.39,11.59,11.59,0,0,0,11.42-13.73L187.56,556.1,235.2,510A11.54,11.54,0,0,0,238.89,498.2ZM168,544.34a11.54,11.54,0,0,0-3.35,10.15l8.31,48.45-43.37-23.07a12.24,12.24,0,0,0-10.85,0L75.32,602.94l8.31-48.45a11.54,11.54,0,0,0-3.35-10.15l-34.6-34.61,48.56-7a11.56,11.56,0,0,0,8.77-6.35l20.53-44,21.69,44.07a11.52,11.52,0,0,0,8.76,6.34l48.56,7Z" transform="translate(-8.26 -6.76)"/><path class="cls-1" d="M491.92,500.76A11.52,11.52,0,0,0,482,493l-65.63-9.57L387,423.82a11.55,11.55,0,0,0-20.77,0l-29.41,59.53L271.14,493a11.36,11.36,0,0,0-6.45,19.38l47.63,46.14-11.53,65.52a11.54,11.54,0,0,0,17,12.46l58.82-30.8,58.83,30.8a10.73,10.73,0,0,0,5.31,1.38,11.6,11.6,0,0,0,11.42-13.72l-11.54-65.52,47.64-46.14A11.53,11.53,0,0,0,491.92,500.76ZM421,546.9a11.52,11.52,0,0,0-3.34,10.15l8.3,48.45-43.37-23.07a12.22,12.22,0,0,0-10.84,0L328.36,605.5l8.3-48.45a11.52,11.52,0,0,0-3.34-10.15l-34.61-34.6,48.57-7a11.53,11.53,0,0,0,8.76-6.34L376.57,455,398.26,499a11.55,11.55,0,0,0,8.77,6.35l48.56,7Z" transform="translate(-8.26 -6.76)"/><path class="cls-1" d="M745,498.2a11.55,11.55,0,0,0-9.92-7.73L669.4,480.9,640,421.26a11.53,11.53,0,0,0-20.76,0l-29.42,59.52-65.63,9.69a11.36,11.36,0,0,0-6.46,19.38L565.36,556l-11.54,65.52a11.54,11.54,0,0,0,17,12.45l58.83-30.79L688.44,634a10.73,10.73,0,0,0,5.3,1.39,11.59,11.59,0,0,0,11.42-13.73L693.63,556.1,741.27,510A11.54,11.54,0,0,0,745,498.2ZM674,544.34a11.54,11.54,0,0,0-3.35,10.15L679,602.94l-43.37-23.07a12.24,12.24,0,0,0-10.85,0l-43.37,23.07,8.31-48.45a11.54,11.54,0,0,0-3.35-10.15l-34.6-34.61,48.56-7a11.56,11.56,0,0,0,8.77-6.35l20.53-44,21.69,44.07a11.52,11.52,0,0,0,8.76,6.34l48.56,7Z" transform="translate(-8.26 -6.76)"/></svg>