<svg id="Layer_1" data-name="Layer 1" xmlns="http://www.w3.org/2000/svg" viewBox="0 0 571.99 587.26"><defs><style>.cls-1{fill:#64728c;fill-rule:evenodd;}</style></defs><path class="cls-1" d="M209.9,574.12l.92,3.78a31.54,31.54,0,0,1-23.2,38.1l-46,11.19a31.54,31.54,0,0,1-38.1-23.2l-41-168.51a31.55,31.55,0,0,1,23.2-38.11l46-11.18a31.55,31.55,0,0,1,35.57,16.33c18.52-12.25,40.11-26.72,46.56-31.79,5.47-4.31,12.36-7,18.18-8.77a143.77,143.77,0,0,1,18.39-4.13c5.8-.94,11.13-1.54,15-1.9,1.94-.19,3.53-.31,4.66-.4l1.32-.08.38,0h.45l108.11-1.94.69.05h.19l.76.05,3.09.13c2.7.08,6.56.14,11.13,0,9.28-.22,20.82-1.12,31.16-3.64,9.57-2.32,20.32-1.17,28,7.23,6.56,7.21,7.72,16.6,7.56,23.33a68.5,68.5,0,0,1-6.43,26.12c6.83-4.66,14.23-10,22.18-15.79l1.69-1.23c22.4-16.26,48.95-35.54,73.92-46.17C582.78,331.44,607,337,621.5,353.72c12.88,14.92,16.29,37.78,6.43,54.45-2.48,4.19-6.64,9-10.89,13.46-4.54,4.8-10.22,10.37-16.57,16.34-12.74,12-28.68,26-44.77,39.83-31.87,27.28-65.62,54.47-76.65,61.85-12.78,8.55-27.74,12.71-42.41,15.49-8,1.51-17.39,2.83-26.73,4.14-6.75,1-13.46,1.89-19.6,2.9-30.09,5-54.52,3.25-77,1.69l-2.73-.19c-23.24-1.6-44.79-2.8-71.64,2.6C232.78,567.51,220.75,570.91,209.9,574.12Zm23.45-178.59c.88-.69,3.32-2,7.9-3.4A112.19,112.19,0,0,1,255.5,389c4.91-.8,9.51-1.32,12.88-1.64,1.68-.16,3-.27,4-.33l.59,0,.45,0h0L379.56,385l.74,0c.9.05,2.17.1,3.76.16,3.18.1,7.64.16,12.89,0a189.78,189.78,0,0,0,34.3-3.71,37.54,37.54,0,0,1-2.34,9.37,33.61,33.61,0,0,1-5.42,9.67,46.59,46.59,0,0,1-12.89,10.85,22.07,22.07,0,0,1-3.1,1.39l-.21.07-.11,0-82.42,19,4.46,31.12-.92-15.75.94,15.75.85-.05,2.44-.15c2.11-.13,5.15-.32,8.88-.57,7.46-.48,17.71-1.18,28.82-2,21.9-1.69,48.21-4.06,62.83-6.7,10.09-1.82,20.94-7.69,30.84-13.91,10.33-6.49,21.77-14.77,33.27-23.12,23.69-17.2,47.82-34.7,69.43-43.9,18.69-8,27.35-2.53,31,1.72,5.26,6.1,5.21,14.32,3.16,17.78a62.46,62.46,0,0,1-6.67,7.86c-4,4.17-9.12,9.26-15.25,15-12.24,11.5-27.77,25.23-43.68,38.84-32.13,27.51-64.46,53.44-73.67,59.6-7.46,5-17.4,8.18-30.74,10.71-7.88,1.49-15.45,2.54-23.7,3.68-6.67.92-13.78,1.9-21.87,3.23-26.41,4.34-47.65,2.87-70.4,1.3l-2.07-.14c-23.57-1.63-48.74-3.15-80,3.14-7.05,1.42-19.36,4.87-30.28,8.08L176,434.6C195.63,421.65,224.72,402.32,233.35,395.53Zm39.45-24.37L272,355.41ZM139.18,416.84,93.2,428l41,168.52,46-11.19Zm213.74-376a73.08,73.08,0,1,0,73,73.12A73.32,73.32,0,0,0,352.92,40.83Zm0,24.36A48.7,48.7,0,1,1,304.16,114,48.49,48.49,0,0,1,352.91,65.19Zm-.05,121.87c-39.68,0-75.62,13-102.1,32.91s-44.09,47.38-44.09,76.74a12.18,12.18,0,0,0,12.18,12.19h268a12.19,12.19,0,0,0,12.19-12.19c0-29.36-17.62-56.78-44.1-76.74s-62.42-32.91-102.1-32.91Zm0,24.37c34.34,0,65.4,11.41,87.42,28,17.51,13.19,26.8,29.29,30.75,45.09H234.7c4-15.8,13.24-31.9,30.74-45.09,22-16.6,53.09-28,87.42-28Z" transform="translate(-61.65 -40.83)"/></svg>