<svg id="Layer_1" data-name="Layer 1" xmlns="http://www.w3.org/2000/svg" viewBox="0 0 753 486.87"><defs><style>.cls-1{fill:#64728c;}</style></defs><path class="cls-1" d="M608.28,401.88c0,2.8-.12,5.58-.31,8.36-.1,1.38-.24,2.75-.39,4.12-.49,4.65.6-3.83-.12.76a109.05,109.05,0,0,1-4.18,17c-.41,1.26-.87,2.51-1.33,3.76-.27.74-2,4.93-.21.73-1,2.43-2.18,4.8-3.38,7.15a110.16,110.16,0,0,1-9,14.45c-2.61,3.61,2.33-2.88-.45.6-.81,1-1.66,2-2.51,3-1.7,2-3.5,3.86-5.33,5.72s-3.76,3.61-5.72,5.33c-1,.86-2,1.68-3,2.51-1.51,1.19-1.35,1.08.46-.33l-2.11,1.54a109.79,109.79,0,0,1-13.39,8.2c-2.34,1.23-4.74,2.33-7.15,3.39,4.16-1.82,0-.07-.74.21-1.66.63-3.34,1.19-5,1.74a109.72,109.72,0,0,1-15.7,3.77c-4.59.78,3.88-.43-.77.12-1.37.16-2.74.27-4.11.38-3.25.27-6.51.33-9.76.31-2.79,0-5.56-.19-8.34-.42-1.37-.11-2.73-.27-4.1-.43,4.66.55.08-.05-.74-.19A109.13,109.13,0,0,1,484,489.26c-1.26-.43-2.5-.9-3.75-1.37-4.22-1.61,3.43,1.53-.7-.27-2.42-1.06-4.77-2.24-7.1-3.47A110.44,110.44,0,0,1,458.12,475c3.59,2.66.06,0-.56-.5-1-.83-2-1.69-3-2.55-2-1.72-3.83-3.54-5.66-5.39s-3.56-3.81-5.26-5.78c-.85-1-1.66-2-2.48-3,2.91,3.64-.64-1-1.15-1.7a109.52,109.52,0,0,1-8.05-13.5c-.6-1.17-1.16-2.37-1.71-3.56-.34-.73-2.05-4.88-.33-.68-1.17-2.87-2.17-5.81-3.1-8.78a110.39,110.39,0,0,1-3.58-15.77c.73,4.64,0,0,0-.79-.15-1.37-.24-2.75-.34-4.13-.22-3.25-.24-6.52-.18-9.78.05-2.77.26-5.54.52-8.3.07-.82.72-5.45,0-.79.2-1.35.44-2.68.68-4a110,110,0,0,1,4.59-16.81c.44-1.25.93-2.49,1.41-3.72-1.66,4.21,0,.06.33-.68,1.08-2.4,2.29-4.74,3.55-7.05s2.62-4.54,4-6.75c.71-1.11,1.45-2.18,2.19-3.26.5-.72,4-5.38,1.15-1.7a111.82,111.82,0,0,1,10.52-11.56c1.88-1.81,3.85-3.52,5.84-5.19.61-.51,4.13-3.21.56-.5,1.39-1.05,2.81-2.05,4.25-3a110.86,110.86,0,0,1,13.6-7.89c1.18-.58,2.39-1.13,3.59-1.67,4.11-1.86-3.5,1.39.71-.27,2.89-1.14,5.84-2.1,8.82-3,2.58-.77,5.19-1.39,7.82-2,1.32-.3,2.66-.54,4-.78.81-.15,5.4-.8.74-.19a112.13,112.13,0,0,1,18-.78c2.76.09,5.52.33,8.27.62,4.65.49-3.83-.6.77.12,1.34.21,2.67.47,4,.73a108.89,108.89,0,0,1,16.72,4.78c.75.27,4.93,2,.74.21,1.22.51,2.41,1.07,3.61,1.63,2.38,1.11,4.7,2.35,7,3.63s4.51,2.67,6.7,4.1c1.1.72,2.16,1.47,3.23,2.23.64.45,4.17,3.16.63.4a109.7,109.7,0,0,1,11.56,10.52c1.81,1.87,3.52,3.84,5.2,5.84.5.6,3.2,4.12.49.56.79,1,1.54,2.1,2.3,3.17A111.3,111.3,0,0,1,599,361.2c.6,1.17,1.15,2.37,1.71,3.56.34.73,2,4.88.32.68,1,2.46,1.88,5,2.71,7.5a110.15,110.15,0,0,1,3.76,15.71c.78,4.58-.43-3.88.12.76.17,1.37.28,2.75.39,4.12.23,2.78.29,5.57.31,8.35a17.5,17.5,0,0,0,35,0c-.3-49.08-29.18-95.61-74.21-115.95a129.49,129.49,0,0,0-140.19,22c-36.89,33.18-50.41,88-34.53,134.74a127.17,127.17,0,0,0,40.5,58.25c20.29,16.2,43.74,25.48,69.52,28.22,35.57,3.78,71.4-9.61,97.71-33.28s41-58.79,41.2-94a17.5,17.5,0,1,0-35,0Z" transform="translate(-145.06 -274.43)"/><path class="cls-1" d="M623.19,486.06q3.13,2.56,6.15,5.33c.4.37,3.67,3.59.93.84,1,1,1.92,2,2.86,3a135.11,135.11,0,0,1,11.51,14.29c1.66,2.34,3.23,4.78,4.77,7.26-2.17-3.49.36.67.65,1.18.73,1.28,1.43,2.59,2.12,3.9a161.9,161.9,0,0,1,8.08,17.89c.55,1.43,1.07,2.89,1.59,4.35,1.73,4.87-1.12-3.63.44,1.34.94,3,1.77,6,2.56,9.1a185.39,185.39,0,0,1,3.94,20.6c.09.65.69,6.12.22,1.47.16,1.66.29,3.32.41,5,.25,3.35.37,6.72.44,10.09,0,1.74,0,3.48,0,5.21v97.42c0,1.24,0,1.85-.07,3.08-.2,5.09.62-4.07-.07.88-.21,1.46-.52,2.88-.83,4.3-.19.84-1.57,5.44-.07.91a52,52,0,0,1-3.28,7.54c-2.09,4,2-3-.42.64a43.82,43.82,0,0,1-3.16,4.05c-2.78,3.25,2.57-2.26-.5.53-.92.83-1.89,1.56-2.86,2.28a33.61,33.61,0,0,1-3,1.93c3.45-2,0-.19-.7.09a31.13,31.13,0,0,1-3.36,1.06c-3.84,1,3.27-.32-.69.09-.82.08-1.65.1-2.48.1H382.56c-1.05,0-1.34,0-2.39-.1-4-.25,3.18.8-.68-.09a29.06,29.06,0,0,1-3.36-1.06c-.73-.28-1.45-.59-2.17-.93q2.7,1.56.44.23a35.52,35.52,0,0,1-5.78-4.43c3,2.77.13,0-.41-.67-.83-1-1.58-2-2.33-3.08-2.54-3.56,1.76,3.3-.42-.64-.65-1.18-1.21-2.42-1.78-3.67s-1-2.56-1.51-3.87c1.65,4.58-.15-1.31-.37-2.33-.32-1.43-.52-2.89-.73-4.35.69,4.94.12.05.08-.93,0-.64,0-1.29,0-1.93V600.27c0-5.12,0-10.23.27-15.36.08-1.67.2-3.34.33-5,0-.65.62-6.17.11-1.53.36-3.26.85-6.51,1.38-9.73a179,179,0,0,1,4.63-20.27c.43-1.51.91-3,1.38-4.5-1.32,4.19.29-.74.5-1.32,1-2.91,2.18-5.75,3.36-8.57a156.84,156.84,0,0,1,8.67-17.41c2.44-4.28-1.88,3,.7-1.15.77-1.24,1.57-2.44,2.37-3.65,1.61-2.41,3.3-4.71,5-7s3.53-4.44,5.36-6.57c.91-1.06,1.85-2.09,2.79-3.12.48-.51,4.63-4.7,1.82-2,2.3-2.25,4.69-4.33,7.11-6.35,6.8-5.68,9.61-16.84,5.35-26.15-4-8.66-13.58-12.54-20.4-6.85C354.57,484.92,331.3,538,331.3,595.33v84.5c0,16,.3,30.68,6.09,45.55C345.77,746.9,364.57,760,383,760h265.3c21.66,0,40.54-17.53,48.26-43.14,3.89-12.88,3.18-26.82,3.18-40.35V595.08a207,207,0,0,0-17.83-84.45,158.6,158.6,0,0,0-43.65-57.56c-6.86-5.61-16.42-1.87-20.41,6.85-4.23,9.25-1.49,20.55,5.35,26.14ZM826,506.88c0,2.78-.18,5.53-.47,8.28.48-4.64,0-.13-.2.72-.24,1.33-.56,2.63-.88,3.94a70,70,0,0,1-2.37,7.62c-1.54,4.22,1.57-3.41-.27.68-.72,1.59-1.54,3.14-2.37,4.67a70.78,70.78,0,0,1-4.15,6.63c-2.52,3.64,2.36-2.85-.42.6-.81,1-1.68,2-2.54,2.94a73.31,73.31,0,0,1-5.56,5.45c-1,.87-2,1.69-3,2.5,3.63-2.92-1,.56-1.74,1.06a70.19,70.19,0,0,1-6.78,3.92c-1.17.6-2.36,1.14-3.56,1.68,4.13-1.86,0-.1-.73.18a68.79,68.79,0,0,1-7.68,2.24c-1.31.32-2.64.56-4,.8-2,.32-1.78.3.61,0-.91.1-1.82.19-2.73.26a72.51,72.51,0,0,1-8.34.16c-1.38,0-2.75-.16-4.13-.28-4.64-.4,3.82.65-.75-.1a72.4,72.4,0,0,1-7.84-1.81c-1.28-.36-2.54-.8-3.8-1.23-.83-.29-1.65-.6-2.47-.93q3.21,1.41.54.21a70.59,70.59,0,0,1-6.93-3.67c-1.13-.67-2.21-1.39-3.3-2.11-.66-.44-4.2-3.09-.65-.34A72.53,72.53,0,0,1,727.66,539c2.81,3.49.12,0-.34-.65-.74-1.07-1.42-2.18-2.1-3.29a69.71,69.71,0,0,1-3.68-6.94c-1.91-4,1.35,3.51-.27-.68-.47-1.24-.88-2.5-1.29-3.77a71.24,71.24,0,0,1-2.2-9.12c-.83-4.55.39,3.88-.1-.75-.14-1.37-.21-2.75-.27-4.13a72.33,72.33,0,0,1,.15-8.33c.06-.84.67-5.45,0-.78.19-1.34.46-2.67.73-4a71.35,71.35,0,0,1,2.53-9c.26-.76,2-4.92.18-.73.52-1.21,1.1-2.38,1.68-3.56a71.57,71.57,0,0,1,3.92-6.79c.7-1.09,1.46-2.15,2.23-3.21-2.61,3.62-.05.1.48-.53a73.4,73.4,0,0,1,6.3-6.54c.95-.88,1.95-1.71,2.95-2.54,1.5-1.21,1.35-1.09-.46.34.7-.51,1.41-1,2.12-1.5a73.14,73.14,0,0,1,7.87-4.64c1.17-.6,2.37-1.14,3.56-1.68-4.3,1.94,1.11-.31,2-.61A71.34,71.34,0,0,1,764,453c4.55-.83-3.88.39.75-.1,1.84-.19,3.68-.26,5.52-.32A74.45,74.45,0,0,1,780,453c-4.64-.48-.13.05.72.2,1.76.32,3.5.76,5.23,1.21s3.4,1,5.08,1.59c.83.29,1.66.6,2.48.93-2.15-.94-2.33-1-.55-.21A71.07,71.07,0,0,1,801,461.1c1.11.68,2.18,1.42,3.25,2.16q2.32,1.71-.42-.4,1,.81,2,1.65a73.4,73.4,0,0,1,6.54,6.3c1.18,1.27,2.27,2.61,3.36,4-2.92-3.63.56,1,1.06,1.74a70.74,70.74,0,0,1,4.5,8c.36.73,2.06,4.84.35.63.67,1.64,1.23,3.32,1.77,5a71.24,71.24,0,0,1,2.2,9.12c.31,2,.3,1.78,0-.61.1.91.19,1.82.26,2.73.16,1.84.19,3.69.21,5.54a17.5,17.5,0,0,0,35,0c-.24-25.49-11.09-50.36-30.46-67.12-20.93-18.12-47.4-24.65-74.51-20.75-24.94,3.58-47,20.05-60.38,40.93-13.85,21.64-16.88,50-9,74.3a91.32,91.32,0,0,0,38.1,48.65c18.71,12,41,15,62.59,11.87,42.45-6.1,73.3-46.12,73.7-87.88a17.5,17.5,0,1,0-35,0Z" transform="translate(-145.06 -274.43)"/><path class="cls-1" d="M819.79,595.78c1.41.78,2.79,1.58,4.17,2.4.57.33,5,3.26,1.23.72,2.61,1.78,5.07,3.72,7.46,5.71a92.61,92.61,0,0,1,6.79,6.32c.46.45,3.82,4.26,1,1,1.34,1.54,2.57,3.14,3.79,4.75a87.55,87.55,0,0,1,5,7.52c.78,1.29,1.48,2.61,2.18,3.93-2-3.77.27.64.53,1.22a81.75,81.75,0,0,1,3.08,8.42c.45,1.44.81,2.89,1.17,4.35.2.77,1.34,7.11.69,2.75,1.89,12.69.74,26,.74,38.8v31.09a25.54,25.54,0,0,1-.16,2.76q.6-3.62-.07-.67c-.23.87-2.08,4.91,0,.79a26.3,26.3,0,0,1-2.19,3.41c-2.62,3.68,2.81-2.66-.54.52-.69.64-4.51,3.32-.42.65a34.19,34.19,0,0,1-3.83,2c-4.4,2.11,4-1.15-.78.22-1,.29-6,1-.71.41a31.72,31.72,0,0,1-3.23.14h-180c-11,0-20.25,8-20.25,17.5s9.21,17.5,20.25,17.5H835.39c14.27,0,28.4-.52,40.44-8.38,13.64-8.89,22.23-22,22.23-37V658.47c0-22-6.38-43.52-20.76-61.89a121.48,121.48,0,0,0-37.07-31c-9.3-5.16-22.3-1.69-27.7,6.28-5.75,8.49-2,18.8,7.26,23.94Zm-506.47-88.9c0,2.78-.18,5.53-.47,8.28.49-4.64,0-.13-.2.72-.24,1.33-.56,2.63-.87,3.94a72.29,72.29,0,0,1-2.38,7.62c-1.54,4.22,1.57-3.41-.27.68-.71,1.59-1.53,3.14-2.36,4.67a73,73,0,0,1-4.16,6.63c-2.52,3.64,2.36-2.85-.41.6-.82,1-1.68,2-2.55,2.94a71.36,71.36,0,0,1-5.55,5.45c-1,.87-2,1.69-3,2.5,3.63-2.92-1,.56-1.74,1.06a71.57,71.57,0,0,1-6.79,3.92c-1.16.6-2.36,1.14-3.56,1.68,4.14-1.86.05-.1-.73.18a68,68,0,0,1-7.67,2.24c-1.31.32-2.64.56-4,.8-2,.32-1.78.3.62,0-.91.1-1.82.19-2.74.26a72.38,72.38,0,0,1-8.33.16c-1.38,0-2.76-.16-4.13-.28-4.64-.4,3.81.65-.75-.1a72,72,0,0,1-7.85-1.81c-1.28-.36-2.54-.8-3.79-1.23-.83-.29-1.66-.6-2.48-.93q3.23,1.41.55.21a70.75,70.75,0,0,1-6.94-3.67c-1.12-.67-2.21-1.39-3.29-2.11-.66-.44-4.21-3.09-.66-.34A72.09,72.09,0,0,1,215,539c2.8,3.49.12,0-.34-.65-.74-1.07-1.43-2.18-2.11-3.29a69.63,69.63,0,0,1-3.67-6.94c-1.92-4,1.35,3.51-.27-.68-.48-1.24-.88-2.5-1.29-3.77a71.24,71.24,0,0,1-2.2-9.12c-.83-4.55.39,3.88-.1-.75-.15-1.37-.21-2.75-.28-4.13a74.66,74.66,0,0,1,.16-8.33c.06-.84.67-5.45,0-.78.19-1.34.46-2.67.73-4a69.71,69.71,0,0,1,2.53-9c.26-.76,2-4.92.18-.73.51-1.21,1.1-2.38,1.68-3.56a71.57,71.57,0,0,1,3.92-6.79c.7-1.09,1.46-2.15,2.22-3.21-2.6,3.62,0,.1.49-.53a72,72,0,0,1,6.3-6.54c1-.88,2-1.71,2.94-2.54,1.51-1.21,1.35-1.09-.46.34q1.05-.76,2.13-1.5a72.18,72.18,0,0,1,7.87-4.64c1.16-.6,2.36-1.14,3.56-1.68-4.31,1.94,1.11-.31,2-.61A71.15,71.15,0,0,1,251.32,453c4.55-.83-3.88.39.75-.1,1.83-.19,3.68-.26,5.52-.32a74.61,74.61,0,0,1,9.68.46c-4.65-.48-.14.05.71.2,1.77.32,3.5.76,5.24,1.21s3.4,1,5.07,1.59c.84.29,1.66.6,2.48.93-2.14-.94-2.33-1-.55-.21a70.23,70.23,0,0,1,8,4.36c1.11.68,2.18,1.42,3.25,2.16q2.34,1.71-.41-.4,1,.81,2,1.65a73.29,73.29,0,0,1,6.53,6.3c1.18,1.27,2.28,2.61,3.37,4-2.93-3.63.55,1,1.06,1.74a72.33,72.33,0,0,1,4.5,8c.36.73,2.06,4.84.35.63.67,1.64,1.22,3.32,1.77,5a71.24,71.24,0,0,1,2.2,9.12c.31,2,.29,1.78,0-.61.11.91.19,1.82.26,2.73.16,1.84.19,3.69.21,5.54a17.5,17.5,0,0,0,35,0c-.24-25.49-11.09-50.36-30.46-67.12-20.93-18.12-47.4-24.65-74.51-20.75-24.94,3.58-47,20.05-60.38,40.93-13.85,21.64-16.88,50-9,74.3A91.23,91.23,0,0,0,212,582.89c18.71,12,41,15,62.58,11.87,42.46-6.1,73.3-46.12,73.7-87.88a17.5,17.5,0,0,0-35,0ZM379.59,726.3H198.74c-1.71,0-6.71-.65-1.7.09a36.13,36.13,0,0,1-4.49-1c4.74,1.33.44.07-.65-.44s-4.7-3.08-.77-.29c-.91-.64-5.1-4.88-1.88-1.22a28.44,28.44,0,0,1-2.39-3.32c-2.46-3.8,1.34,3.49-.25-.67-.34-.89-1.15-5.22-.49-.62A23.43,23.43,0,0,1,186,716V656.82a83.93,83.93,0,0,1,.56-9.24c.56-5.06-.71,3.6.25-1.37.28-1.48.66-3,1-4.42a78.52,78.52,0,0,1,2.82-8.6c.54-1.4,1.16-2.78,1.78-4.16-1.75,3.9,1-1.83,1.41-2.52a84.53,84.53,0,0,1,5-7.64c.89-1.24,1.84-2.44,2.8-3.64.38-.48,3.79-4.32.85-1.11a97.66,97.66,0,0,1,15.4-13.37c4.32-3.09-3.32,2,1.24-.79,1.37-.86,2.78-1.65,4.2-2.45,9.29-5.22,13.17-15.39,7.32-23.94-5.4-7.91-18.61-11.51-27.93-6.28-27,15.15-46.78,38.16-54.24,65.19-4.12,14.95-3.29,30.34-3.29,45.57v37.78c0,25.1,24.31,45.47,53.44,45.47h181c11.13,0,20.42-8,20.42-17.5s-9.28-17.5-20.41-17.5Z" transform="translate(-145.06 -274.43)"/></svg>