<svg xmlns="http://www.w3.org/2000/svg" viewBox="0 0 393.29 346.78"><g id="Layer_2" data-name="Layer 2" fill="#64728c"><g id="Layer_1-2" data-name="Layer 1"><path d="M393.29,269.36q-70.14,0-140.27,0c-2.48,0-3.86-.42-4.91-3.11C235.88,234.73,214.76,211,185,194.86c-1.58-.85-3-1.17-1.48-3.6,19.72-32.59,48.28-51.48,86.22-55.94,2-.53,4.2-.16,6.38-1.43.15,0-.67-.29-.35.1a2.41,2.41,0,0,1-3.08.07c-27.14-2.41-52-25.19-57.5-52.7C206.51,38.07,239.13-.91,283.25,0c32.44.67,60.61,26.27,64.5,58.61,4.54,37.77-21.3,70.86-59.27,75.62,1,1.05,2.26.9,3.36,1,53.14,5.26,94.69,46.35,100.75,99.64.07.59-.08,1.28.7,1.54Z"/><path d="M104.69,212c-36.18-5.13-62-36.14-59.59-71.94a67.39,67.39,0,0,1,134.47,0c2.44,35.76-23.32,66.64-60,71.52,3.45,1.55,6.85,1.2,10.06,1.67,47.65,7,86.58,45.92,93.61,93.46,1.87,12.68,1.14,25.38,1.41,38.08,0,1.48-.48,2-1.92,1.87a20.92,20.92,0,0,0-2.24,0q-108.12,0-216.23.08c-3.36,0-4.29-.76-4.22-4.19C.31,329-.28,315.47,2.26,302c8.13-43.18,45.36-80.28,88.5-87.79C95.39,213.39,100.05,212.74,104.69,212Z"/></g></g></svg>