<svg xmlns="http://www.w3.org/2000/svg" viewBox="0 0 306.79 383.26" fill="#64728c"><title>my report</title><g id="Layer_2" data-name="Layer 2"><g id="Layer_1-2" data-name="Layer 1"><path d="M261.92,0c2.39.6,4.79,1.16,7.16,1.82A51.18,51.18,0,0,1,306.69,50.3c.18,9,.05,18,.05,26.94q0,126.65,0,253.31c0,25.66-16,46-40.42,51.53a51.62,51.62,0,0,1-11.5,1.18q-101.4,0-202.8,0c-29.38,0-51.93-22.47-52-51.89q-.11-115,0-230.11c0-20.4,8-37.24,23.74-50.33,13.89-11.58,27.88-23,41.69-34.7C75.47,7.79,86.69,2.31,99.68.59A5.24,5.24,0,0,0,101,0Zm19.17,192q0-69.41,0-138.83c0-16.92-10.71-27.55-27.63-27.58Q182,25.5,110.49,25.45A41.3,41.3,0,0,0,83,35.24c-14.18,11.81-28.47,23.5-42.74,35.2-9.68,7.93-14.64,18.18-14.64,30.63q-.11,114.89,0,229.77c0,15.83,11.1,26.81,26.92,26.81q100.85,0,201.7,0a29.64,29.64,0,0,0,8.13-1c11.83-3.34,18.77-13.24,18.78-26.91Q281.11,260.86,281.09,192Z"/><path d="M153.27,253q38.52,0,77,0c7.88,0,13.62,5.31,13.63,12.73s-5.66,12.85-13.55,12.86q-33.09,0-66.2,0-43.75,0-87.52,0c-8.19,0-14-5.26-14-12.78S68.45,253,76.6,253q38.33.06,76.67,0Z"/><path d="M153.27,304.73q38.52,0,77,0c7.88,0,13.62,5.32,13.63,12.73s-5.66,12.86-13.55,12.87q-33.09,0-66.2,0H76.67c-8.19,0-14-5.26-14-12.78s5.78-12.81,13.93-12.8q38.33.06,76.67,0Z"/><path d="M154.48,229.94c-25.33,0-50.65,0-76,0-10.43,0-16.69-10.38-11.58-19.06,2.64-4.46,6.7-6.45,11.88-6.44q28.07.06,56.14,0l95.43,0c7.88,0,13.62,5.36,13.65,12.78s-5.55,12.75-13.57,12.75q-38,0-76,0Z"/><path d="M151.63,180.53c-2.07-.23-4.14-.44-6.2-.71a63.92,63.92,0,0,1-21.85-6.95,68.46,68.46,0,0,1-26.21-24.4,4.18,4.18,0,0,1-.25-4.53c6-12,15.44-19.72,28.47-23,1-.26,2.08-.4,3.12-.63a6.73,6.73,0,0,1,5.51,1.33,35.29,35.29,0,0,0,22.47,6.51c6.24-.27,12.24-1.78,17.26-5.47,3.76-2.75,7.38-2.64,11.42-1.51a42.84,42.84,0,0,1,26.07,20.1c2.59,4.31,2.67,4.38-.1,8.55a67.48,67.48,0,0,1-26.77,23.77,66,66,0,0,1-25.7,6.76,5.23,5.23,0,0,0-.86.17Z"/><path d="M154.94,117.71a33.94,33.94,0,1,1,33.94-34A34.15,34.15,0,0,1,154.94,117.71Z"/></g></g></svg>