<svg xmlns="http://www.w3.org/2000/svg" viewBox="0 0 280.71 286.7"><defs><style>.cls-1{fill:#64728c;}</style></defs><g id="Layer_2" data-name="Layer 2"><g id="Layer_1-2" data-name="Layer 1"><path class="cls-1" d="M139.44,0c3.37,1.28,7,1.29,10.49,2.13a83.76,83.76,0,0,1,63.84,69c7.08,44.1-23.74,87.14-67.76,94.74a105.29,105.29,0,0,1-16.41,1.5,107.11,107.11,0,0,0-102.23,78.9,137.31,137.31,0,0,0-2.89,13.94c-.4,2.3.25,2.59,2.29,2.58,18.76-.07,37.51,0,56.27,0,15.11,0,30.23,0,45.34-.05,2,0,2.78.28,2.72,2.53-.17,6.43-.11,12.87,0,19.31,0,1.68-.37,2.19-2.14,2.19-35-.06-70,0-105-.08C12.4,286.59,3,278.56.63,267.08c-.12-.59.18-1.36-.63-1.7v-5.6c.83-.32.55-1.09.63-1.68A127.06,127.06,0,0,1,5.77,235q19.34-57.54,75.1-81.67c.67-.29,1.69-.26,1.92-1.31a8.31,8.31,0,0,0-.63-.58C55,130.5,43.68,103,48.77,69.18c4.87-32.48,31.35-60,63.65-67.07,3.4-.74,6.93-.83,10.22-2.11ZM131,23.94C98.2,23.87,71.26,50.68,71.29,83.41A59.77,59.77,0,1,0,131,23.94Z"/><path class="cls-1" d="M137.22,221.36c0-6.79,0-13.59,0-20.38,0-7.77,4.86-12.15,13.38-12.15,14.65,0,29.3,0,44,0,1.92,0,2.53-.38,2.49-2.21-.13-6.28,0-12.57,0-18.85,0-5,2.27-8.73,7.38-10.7s9.69-.76,13.54,2.74q29.33,26.64,58.6,53.33c5.67,5.17,5.58,11.43-.13,16.64q-29.08,26.49-58.2,53c-3.92,3.58-8.4,4.93-13.73,3-4.9-1.76-7.44-5.63-7.45-11.18s0-11.38,0-17.06c0-3.54,0-3.53-3.73-3.53H150.42c-8.28,0-13.17-4.47-13.2-12.05,0-3.49,0-7,0-10.45Z"/></g></g></svg>