<svg xmlns="http://www.w3.org/2000/svg" viewBox="0 0 539.4 545.9" fill="#64728c"><defs><style></style></defs><title>setting</title><g id="Layer_2" data-name="Layer 2"><g id="Layer_1-2" data-name="Layer 1"><path class="cls-1" d="M529.45,334.07c-3.27-7-6.83-13.55-12.81-18.55-6.91-5.77-13.91-11.43-20.81-17.21-17.53-14.68-17.6-36.1-.16-50.72,7.16-6,14.51-11.79,21.57-17.91,10-8.72,14.86-20.24,14.9-33.18,0-7.05-3.44-13.79-7-20.05q-21-36.33-42-72.65c-11.41-19.62-32.57-27.08-54-19.31-9.23,3.35-18.33,7.07-27.76,9.92-18.69,5.65-37.17-5.47-40.52-24.68-1.52-8.68-2.8-17.4-4.33-26.08-1.95-11-6.26-20.48-15.86-27.3-6.3-4.49-13.16-7.18-20.4-9.35h-103c-.18.83-.84.86-1.53,1-17.49,4.3-28.3,15.23-32,32.84-1.87,9-3.16,18-4.77,27.05-4,22.43-23,33.32-44.49,25.5-9.08-3.31-18-7-27.23-10-19.18-6.33-39,1.1-49.54,18.27-10.35,16.83-19.15,34.58-30.4,50.9-5.07,7.38-9.11,15.47-13.57,23.26-11.59,20.24-8,40.81,9.79,55.72,7.4,6.18,15.37,11.7,22.64,18a30.43,30.43,0,0,1,2.5,44,105.85,105.85,0,0,1-19.14,15.7C5,325.61,1.88,350.05,13.56,369.49,20,380.21,26.16,391.09,33,401.62c8.34,12.88,15.48,26.54,23.21,39.82,12,20.65,32.2,27.88,54.6,19.66,8.91-3.27,17.73-6.82,26.76-9.73,19.09-6.15,37.93,5.38,41.27,25q2.18,12.78,4.23,25.57c3.42,21.51,19.29,36.39,40.51,36.67q46.24.6,92.52,0c17.12-.21,36.62-13.74,39.71-33.26,1.52-9.55,3.31-19.06,4.93-28.6,3.41-20.15,21.93-31.5,41.39-25.11,10.15,3.34,20.08,7.37,30.23,10.7,18.17,6,39.3-1.34,49-17.57q23.06-38.73,45.08-78.05C532.13,356.52,534.93,345.81,529.45,334.07ZM488,350.43c-5.52,9.57-10.49,19.52-16.71,28.62-8.95,13.09-16.17,27.15-24.27,40.72-1.38,2.31-2.5,3-5.27,1.9-8.15-3.32-16.36-6.56-24.73-9.26-25.68-8.29-49.21-4.31-71.13,11.79-18.49,13.58-25.74,32.52-28.68,54-.51,3.76-1.25,7.5-1.89,11.24-1.34,7.74-1.34,7.74-9.39,7.74-25.13,0-50.25-.1-75.37.1-3.85,0-5.42-1-5.9-4.83-.9-7.19-1.93-14.4-3.41-21.49-10.35-49.32-56.42-74.09-100.37-57.92-7,2.56-14.07,4.86-20.8,7.94-5,2.28-7.43.37-9.71-3.6C82.5,403.8,74.6,390.21,66.73,376.61c-4.92-8.52-9.72-17.12-14.84-25.53-1.73-2.84-1.87-4.41,1.07-6.62,6.51-4.87,12.67-10.2,18.91-15.42,7.79-6.51,13.6-14.51,18.8-23.25,10.88-18.27,11.37-37.43,4.58-56.62-4.59-13-13-24.11-24-32.95-6.19-5-12.19-10.26-18.52-15.07-2.7-2.05-2.55-3.56-1-6.21q19.34-33.09,38.4-66.35c2.41-4.2,4.86-5.77,10.06-3.78,12.86,4.92,25.4,10.84,39.42,12.37,33.29,3.64,64.73-16,76.84-47.17,4.64-11.92,5.7-24.27,8.06-36.49.68-3.55,1.51-5.14,5.69-5.1q39.76.36,79.53,0c3.66,0,4.63,1.27,5.14,4.49,1.72,10.91,2.95,21.92,5.91,32.6,10.79,39,57.21,63.35,99.35,46.76,7.07-2.78,14.3-5.16,21.29-8.13,3-1.27,4.22-.48,5.62,2.09,3.82,7,7.89,13.79,11.87,20.67,9.2,15.92,19.54,31.15,28.53,47.21,2.06,3.69,1.72,5.44-1.61,7.78-6.48,4.54-12.55,9.7-18.72,14.64a72.09,72.09,0,0,0,.21,112.83c6.74,5.35,13.41,10.83,20.27,16.05.75.58,1.89,1,1.82,2.33C489,348.63,488.47,349.53,488,350.43Z"/><path class="cls-2" d="M269.62,170.46c-58,.3-103.83,44.14-103.89,102.3S211.22,374.85,269.39,375.3C325.18,375.73,373.85,331.64,374,273,374,214.41,325.51,170.16,269.62,170.46ZM269,333.9c-32.1-.24-62-27.9-61.9-61.16s30.17-60.85,62.17-60.87c34.43,0,62.28,27.34,62.17,61.14S303.29,334.16,269,333.9Z"/></g></g></svg>