<?xml version="1.0" standalone="no"?>
<!DOCTYPE svg PUBLIC "-//W3C//DTD SVG 20010904//EN"
 "http://www.w3.org/TR/2001/REC-SVG-20010904/DTD/svg10.dtd">
<svg version="1.0" xmlns="http://www.w3.org/2000/svg"
 width="512.000000pt" height="512.000000pt" viewBox="0 0 512.000000 512.000000"
 preserveAspectRatio="xMidYMid meet" fill="#64728c">
<metadata>
Created by potrace 1.16, written by Peter Selinger 2001-2019
</metadata>
<g transform="translate(0.000000,512.000000) scale(0.100000,-0.100000)"
fill="#64728c" stroke="none">
<path d="M2385 5104 c-33 -8 -98 -33 -145 -56 -68 -34 -103 -60 -171 -128 -73
-73 -94 -101 -132 -180 -60 -127 -72 -181 -71 -325 1 -101 5 -133 27 -200 37
-113 90 -198 178 -285 268 -269 710 -269 978 0 88 87 141 172 178 285 22 67
26 99 27 200 1 144 -11 198 -71 325 -38 79 -59 107 -132 180 -143 143 -287
200 -496 199 -60 0 -137 -7 -170 -15z"/>
<path d="M1553 3490 c-150 -30 -283 -168 -312 -325 -14 -77 -15 -1291 -1
-1365 34 -177 171 -308 346 -331 38 -4 115 -8 172 -9 l102 0 0 -553 c0 -599 2
-620 55 -712 36 -60 116 -132 183 -163 l57 -27 405 0 405 0 57 27 c67 31 147
103 183 163 53 92 55 113 55 712 l0 553 103 0 c56 1 133 5 171 9 175 23 312
154 346 331 14 74 13 1288 -1 1365 -30 161 -162 295 -320 325 -63 12 -1945 12
-2006 0z"/>
</g>
</svg>
