<?xml version="1.0" encoding="utf-8"?>
<!-- Generator: Adobe Illustrator 24.0.1, SVG Export Plug-In . SVG Version: 6.00 Build 0)  -->
<svg version="1.1" id="Layer_1" xmlns="http://www.w3.org/2000/svg" xmlns:xlink="http://www.w3.org/1999/xlink" x="0px" y="0px"
	 viewBox="0 0 512 512" style="enable-background:new 0 0 512 512;" xml:space="preserve">
<style type="text/css">
	.st0{fill:#FFFFFF;}
</style>
<path class="st0" d="M348,512H164c-66.2,0-120-53.8-120-120V120C44,53.8,97.8,0,164,0h184c66.2,0,120,53.8,120,120v272
	C468,458.2,414.2,512,348,512z M164,40c-44.1,0-80,35.9-80,80v272c0,44.1,35.9,80,80,80h184c44.1,0,80-35.9,80-80V120
	c0-44.1-35.9-80-80-80H164z M387,184c0-11-9-20-20-20h-34c-16.5,0-30-13.5-30-30v-34c0-11-9-20-20-20s-20,9-20,20v34
	c0,38.6,31.4,70,70,70h34C378,204,387,195,387,184z M314,397V289c0-11-9-20-20-20s-20,9-20,20v108c0,11,9,20,20,20S314,408,314,397z
	 M388,397v-48c0-11-9-20-20-20s-20,9-20,20v48c0,11,9,20,20,20S388,408,388,397z M164,397v-78c0-11-9-20-20-20s-20,9-20,20v78
	c0,11,9,20,20,20S164,408,164,397z M239,397V229c0-11-9-20-20-20s-20,9-20,20v168c0,11,9,20,20,20S239,408,239,397z"/>
</svg>
