<?xml version="1.0" encoding="utf-8"?>
<!-- Generator: Adobe Illustrator 24.0.1, SVG Export Plug-In . SVG Version: 6.00 Build 0)  -->
<svg version="1.1" id="Layer_1" xmlns="http://www.w3.org/2000/svg" xmlns:xlink="http://www.w3.org/1999/xlink" x="0px" y="0px"
	 viewBox="0 0 512 512" style="enable-background:new 0 0 512 512;" xml:space="preserve">
<style type="text/css">
	.st0{fill:#FFFFFF;}
</style>
<path class="st0" d="M479.5,113l-53.7-53.7c-7.8-7.8-20.5-7.8-28.3,0s-7.8,20.5,0,28.3l12.7,12.7l-26.1,26.1
	c-34-28.3-75.3-45.5-119.4-49.4V40h18c11,0,20-9,20-20s-9-20-20-20h-76c-11,0-20,9-20,20s9,20,20,20h18v36.9
	C115,86.8,26.7,179,26.7,294c0,120.5,97.5,218,218,218c120.5,0,218-97.5,218-218c0-51.5-17.8-100.3-50.4-139.4l26.1-26.1l12.7,12.7
	c7.8,7.8,20.5,7.8,28.3,0C487.3,133.5,487.3,120.8,479.5,113z M244.7,472c-98.1,0-178-79.9-178-178s79.9-178,178-178
	s178,79.9,178,178S342.8,472,244.7,472L244.7,472z M348.6,294c0,11-9,20-20,20h-83.9c-11,0-20-9-20-20V176.3c0-11,9-20,20-20
	s20,9,20,20V274h63.9C339.7,274,348.6,283,348.6,294z"/>
</svg>
