<?xml version="1.0" encoding="utf-8"?>
<!-- Generator: Adobe Illustrator 24.0.1, SVG Export Plug-In . SVG Version: 6.00 Build 0)  -->
<svg version="1.1" id="Layer_1" xmlns="http://www.w3.org/2000/svg" xmlns:xlink="http://www.w3.org/1999/xlink" x="0px" y="0px"
	 viewBox="0 0 512 512" style="enable-background:new 0 0 512 512;" xml:space="preserve">
<style type="text/css">
	.st0{fill:#FFFFFF;}
</style>
<g>
	<g>
		<path class="st0" d="M433,512c-11,0-20-9-20-20c0-78.3-63.7-142-142-142h-30c-78.3,0-142,63.7-142,142c0,11-9,20-20,20
			s-20-9-20-20c0-100.4,81.6-182,182-182h30c100.4,0,182,81.6,182,182C453,503,444,512,433,512z"/>
	</g>
	<g>
		<path class="st0" d="M254,270c-74.4,0-135-60.6-135-135S179.6,0,254,0s135,60.6,135,135S328.4,270,254,270z M254,40
			c-52.4,0-95,42.6-95,95s42.6,95,95,95s95-42.6,95-95S306.4,40,254,40z"/>
	</g>
</g>
</svg>
