<svg width="1269" height="1445" viewBox="0 0 1269 1445" fill="none" xmlns="http://www.w3.org/2000/svg">
<g clip-path="url(#clip0_8_508)">
<path d="M1027.04 782.876L1017.46 780.113C995.677 773.83 973.034 769.844 949.518 768.164L942.553 767.666V421.184H214.021C168.275 421.184 126.057 406.201 91.7715 380.973V1081.3C91.7715 1148.78 146.739 1203.55 214.021 1203.55H221.521V1203.77H608.2L609.936 1208.84C618.12 1232.76 628.815 1255.41 642.016 1276.57L649.169 1288.04H214.021C100.283 1288.04 7.5 1195.24 7.5 1081.3V214.234C7.50022 100.5 100.288 7.72254 214.006 7.5H984.795C1007.99 7.5 1027.04 26.2694 1027.04 49.7432C1027.04 72.942 1008.27 91.9854 984.795 91.9854H214.021C146.541 91.9854 91.7717 146.953 91.7715 214.234C91.7715 281.714 146.739 336.484 214.021 336.484H984.581C1008.07 336.485 1026.78 355.526 1027.04 378.643L1027.04 378.685V782.876Z" fill="#64728C" stroke="#64728C" stroke-width="15"/>
<path d="M923.245 836.382C778.122 836.382 660.309 954.195 660.309 1099.32C660.309 1244.44 778.118 1362.25 923.238 1362.25C1068.36 1362.04 1185.97 1244.44 1186.18 1099.32L1186.18 1097.62C1185.26 953.277 1067.8 836.382 923.245 836.382ZM1261.23 1099.32C1261.23 1285.97 1109.89 1437.3 923.245 1437.3C736.596 1437.3 585.26 1285.97 585.26 1099.32C585.26 912.669 736.596 761.333 923.245 761.333H923.254L925.439 761.343C1111.07 762.734 1261.01 913.397 1261.23 1099.31V1099.32Z" fill="#64728C" stroke="#64728C" stroke-width="15"/>
<path d="M1048.15 996.41C1063.48 982.43 1086.98 983.626 1101.28 998.461L1101.36 998.536L1101.43 998.612C1115.36 1013.89 1114.3 1037.71 1099.02 1051.66L1099.02 1051.66L918.66 1217.01L918.651 1217.02L918.643 1217.03C903.69 1230.64 880.901 1230.14 866.684 1215.93L776.609 1125.85C761.885 1111.13 761.885 1087.51 776.609 1072.78C791.334 1058.06 814.955 1058.06 829.68 1072.78L894.302 1137.4L1048.14 996.422L1048.15 996.416L1048.15 996.41Z" fill="#64728C" stroke="#64728C" stroke-width="15"/>
<path d="M957.345 162.342C982.718 162.342 1003.02 182.642 1003.02 208.016V214.235C1003.02 239.395 982.504 259.909 957.345 259.909H203.941C178.782 259.909 158.268 239.395 158.268 214.235C158.268 185.407 181.594 162.342 210.161 162.342H957.345Z" fill="#64728C" stroke="#64728C" stroke-width="15"/>
</g>
<defs>
<clipPath id="clip0_8_508">
<rect width="1269" height="1445" fill="white"/>
</clipPath>
</defs>
</svg>
