<svg width="1263" height="1278" viewBox="0 0 1263 1278" fill="none" xmlns="http://www.w3.org/2000/svg">
<g clip-path="url(#clip0_8_517)">
<path d="M751.767 5.5415L752.469 5.75146C769.82 10.9507 786.623 17.4988 802.149 28.5601L803.27 29.3667C826.583 46.4211 836.987 69.8855 841.666 96.2749L841.667 96.2798C843.483 106.577 845.149 116.892 846.806 127.167C848.257 136.167 849.701 145.136 851.238 154.082L851.903 157.915V157.917C859.294 200.287 899.936 224.815 941.311 212.311C963.431 205.628 984.597 196.964 1006.67 188.956L1006.67 188.955C1059.14 169.937 1111.3 187.988 1139.67 235.641L1140.34 236.773L1140.34 236.784L1239.62 408.461L1239.63 408.476L1239.64 408.492C1248.02 423.217 1256.84 440.205 1256.84 458.343V458.359C1256.74 490.287 1244.69 518.91 1219.91 540.519L1219.89 540.529C1204.24 554.092 1187.78 567.148 1171.99 580.278L1168.84 582.905C1149.18 599.389 1139.76 619.344 1139.83 638.931C1139.89 658.523 1149.43 678.527 1169.22 695.093V695.094C1183.65 707.177 1197.78 718.639 1212.2 730.598L1218.41 735.757L1218.41 735.759C1232.5 747.54 1241.11 762.646 1248.54 778.199L1250.01 781.314V781.316C1263.92 811.109 1256.58 838.21 1242.73 863.021L1242.73 863.029C1208.01 925.011 1172.47 986.529 1136.1 1047.58L1136.1 1047.59C1111.9 1088.06 1059.47 1106.16 1014.43 1091.29C1002.34 1087.33 990.389 1082.95 978.536 1078.6C966.657 1074.25 954.871 1069.92 942.97 1066.01C899.912 1051.87 859.18 1076.79 851.624 1121.43V1121.43C847.771 1144.12 843.57 1166.4 839.979 1188.96L839.979 1188.96C832.236 1237.86 783.747 1271.25 741.241 1271.77C668.269 1272.72 595.328 1272.72 522.419 1271.77H522.418C469.592 1271.08 430.219 1233.9 421.791 1180.9V1180.9C418.564 1160.77 415.234 1140.65 411.802 1120.54V1120.53C404.474 1077.5 363.577 1052.18 321.701 1065.07L320.712 1065.38C299.49 1072.22 278.907 1080.51 257.647 1088.31V1088.31C230.255 1098.36 203.86 1099.07 180.485 1090.67C157.109 1082.27 137.221 1064.92 122.543 1039.67V1039.67C104.112 1008.01 87.4448 976.095 67.8105 945.78V945.781C51.5806 920.802 36.899 894.889 21.7666 869.707C7.38068 845.77 1.99563 818.54 7.95215 792.123C13.9155 765.675 31.1316 740.541 61.0264 720.596L61.0645 720.571L61.1045 720.545C77.2406 710.211 92.1087 698.02 105.405 684.224C111.598 677.615 116.385 669.819 119.476 661.306C122.568 652.789 123.897 643.732 123.383 634.686C122.869 625.64 120.522 616.792 116.484 608.679C112.447 600.567 106.804 593.359 99.8965 587.492L99.8779 587.475L99.8594 587.459C91.3911 580.123 82.4917 573.221 73.4453 566.272C64.4332 559.349 55.2561 552.365 46.4141 544.983L46.4072 544.978C24.6242 526.727 11.2686 504.767 7.08105 480.897C2.89428 457.031 7.95834 431.746 22.1387 406.99L24.0732 403.584C33.723 386.478 43.0552 368.235 54.4326 351.678L54.4375 351.671C67.6074 332.572 79.3697 312.597 90.9385 292.342C102.477 272.14 113.863 251.587 126.152 231.61C152.262 189.092 201.508 170.613 249.077 186.308H249.076C270.969 193.423 292.423 202.277 313.584 209.989H313.585C337.813 218.803 360.177 216.937 377.474 207.026C394.768 197.116 407.609 178.814 412.115 153.551C415.878 132.406 418.982 110.831 423.417 89.4907L423.42 89.479C427.956 67.8954 436.918 50.1285 450.335 36.4146C463.747 22.7054 481.353 13.3107 502.759 8.04932L502.858 8.0249L502.958 8.00439C502.973 8.00127 502.989 7.9987 503.005 7.99561L503.537 5.5415H751.767ZM538.084 113.419C533.626 113.377 532.381 114.245 531.885 114.754C531.129 115.53 530.415 117.124 529.593 121.413L529.592 121.419C524.144 149.622 521.476 179.786 510.29 208.514C480.866 284.223 404.454 331.99 323.458 323.136V323.135C290.544 319.544 260.86 305.934 231.843 294.686L229.036 293.605C223.462 291.473 220.419 291.661 218.426 292.513C216.278 293.432 214.091 295.633 211.38 300.356C181.338 352.765 151.076 405.039 120.593 457.18L120.592 457.182C118.778 460.282 118.604 461.471 118.66 461.979C118.683 462.185 118.821 463.083 121.164 464.96L121.663 465.349L121.664 465.35C136.673 476.752 151.158 489.425 165.548 501.045L166.791 502.052C192.813 523.283 212.835 549.926 223.859 581.138L224.618 583.319C240.283 629.122 238.792 675.214 212.615 719.16L212.616 719.161C200.185 740.049 186.111 759.486 167.088 775.379L167.089 775.38C152.43 787.639 137.713 800.366 122.187 811.979L122.188 811.98C119.024 814.357 118.783 815.498 118.747 815.811C118.686 816.353 118.864 817.526 120.563 820.422L120.924 821.025L120.925 821.026C133.066 840.963 144.48 861.404 156.06 881.451L170.021 905.548C174.678 913.579 179.337 921.608 183.996 929.635L211.937 977.791L211.941 977.799L211.946 977.807C214.54 982.322 216.664 984.594 218.741 985.537C220.52 986.344 223.305 986.618 228.488 984.255C243.623 977.331 259.565 972.014 274.943 966.46L278.012 965.346C384.419 926.214 495.922 985.968 521.572 1104.49L521.87 1105.88L521.871 1105.89C525.411 1122.84 527.865 1140.04 529.998 1157.07C530.508 1161.14 531.46 1162.36 532.099 1162.85C532.898 1163.48 534.607 1164.11 538.966 1164.11C598.362 1163.63 657.771 1163.87 717.138 1163.87C722.007 1163.87 725.264 1163.86 727.667 1163.61C730.054 1163.36 730.752 1162.93 731.004 1162.73C731.237 1162.53 731.763 1161.98 732.401 1159.77C733.05 1157.52 733.595 1154.42 734.407 1149.73C735.949 1140.72 737.657 1132.12 738.847 1123.35V1123.34C745.895 1071.86 763.42 1025.58 808.634 992.384C861.714 953.408 919 943.702 981.261 963.795H981.26C1001.22 970.232 1020.76 977.941 1040.03 985.789C1042.92 986.936 1043.69 986.61 1043.76 986.579C1044.01 986.479 1044.77 986.017 1046.35 983.381C1065.26 951.704 1082.62 917.976 1103.88 886.899C1118.43 865.62 1129.89 842.616 1143.13 819.668C1143.98 818.049 1144.71 816.762 1145.37 815.5C1145.32 815.462 1145.26 815.421 1145.19 815.377C1144.84 815.142 1144.12 814.678 1143.51 814.207C1127.24 801.833 1111.36 788.789 1095.52 776.219V776.22C1074.84 759.836 1058.12 738.999 1046.62 715.261C1035.11 691.523 1029.11 665.495 1029.06 639.117C1029.01 612.738 1034.91 586.689 1046.33 562.909C1057.75 539.128 1074.39 518.229 1095.01 501.768C1109.43 490.219 1124.02 477.834 1139.51 466.985C1143.23 464.365 1143.99 462.911 1144.16 462.082C1144.34 461.162 1144.17 459.351 1141.81 455.133V455.132C1131.25 436.272 1119.89 417.878 1108.4 399.434C1096.94 381.018 1085.34 362.536 1074.42 343.639L1070.89 337.575C1062.65 323.421 1054.23 309.223 1046.3 294.686L1046.29 294.683C1044.69 291.737 1043.83 291.159 1043.52 291.027C1043.4 290.975 1042.51 290.618 1039.35 291.957L1039.35 291.956C1022.85 298.963 1005.16 304.827 988.907 311.215C886.623 351.472 773.742 292.509 747.421 197.401V197.402C740.323 171.801 737.349 145.292 733.331 119.812C732.748 116.131 732.055 114.979 731.558 114.51C731.169 114.144 730.058 113.422 726.138 113.419C663.446 113.987 600.763 113.987 538.087 113.419H538.084Z" fill="#64728C" stroke="#64728C" stroke-width="10"/>
<path d="M631.284 391.81C765.996 391.087 883.037 497.728 883.038 639.118V639.131C882.676 780.641 765.201 886.897 630.728 885.86C490.612 884.777 380.597 778.859 380.742 638.546C380.887 498.227 491.574 392.533 631.284 391.811V391.81ZM630.484 499.664C557.411 499.711 488.757 562.864 488.53 638.52C488.303 714.159 556.551 777.481 629.882 778.029H629.883C708.235 778.623 772.186 716.159 772.437 639.126C772.688 562.12 709.198 499.664 630.484 499.664Z" fill="#64728C" stroke="#64728C" stroke-width="10"/>
</g>
<defs>
<clipPath id="clip0_8_517">
<rect width="1263" height="1278" fill="white"/>
</clipPath>
</defs>
</svg>
