<svg width="1275" height="1283" viewBox="0 0 1275 1283" fill="none" xmlns="http://www.w3.org/2000/svg">
<g clip-path="url(#clip0_8_548)">
<path d="M237.319 149.264H1038.64L637.177 685.094L237.319 149.264ZM16.9562 129.012C178.823 336.554 491.714 721.187 491.714 721.187V1201.98C491.714 1246.05 513.774 1282.11 557.846 1282.11H718.11C762.182 1282.11 783.242 1246.05 783.242 1201.98V721.187C783.242 721.187 1096.33 336.554 1258.2 129.012C1267.38 117.183 1273.06 103.012 1274.58 88.1135C1276.11 73.2152 1273.42 58.1881 1266.82 44.7433C1260.23 31.2985 1249.99 19.9763 1237.27 12.066C1224.55 4.15562 1209.87 -0.025004 1194.89 0.000112508H80.2604C13.7509 0.000112508 -23.911 76.1254 16.9562 129.012Z" fill="#64728C"/>
</g>
<defs>
<clipPath id="clip0_8_548">
<rect width="1275" height="1283" fill="white"/>
</clipPath>
</defs>
</svg>
