<svg width="1275" height="1275" viewBox="0 0 1275 1275" fill="none" xmlns="http://www.w3.org/2000/svg">
<g clip-path="url(#clip0_38_525)">
<g clip-path="url(#clip1_38_525)">
<path d="M114.49 824.017L327.283 908.108V17.0483C327.283 7.62778 334.938 0.0201172 344.343 -0.00146484H514.906C524.303 0.018457 531.941 7.62778 531.941 17.0268V908.11L744.744 824.018C751.878 821.264 760.018 823.526 764.611 829.617C769.258 835.763 769.218 844.192 764.538 850.269L443.164 1268.32C439.917 1272.54 434.919 1274.99 429.614 1275C424.356 1275 419.339 1272.54 416.106 1268.32L94.715 850.265C92.3576 847.189 91.1781 843.515 91.1955 839.881C91.1955 836.328 92.3186 832.671 94.6088 829.578C99.2257 823.52 107.359 821.214 114.492 824.012L114.49 824.017ZM1183.81 817.015H1110.57L1069.24 717.609H944.793L904.588 817.015H833.026L971.596 484.191H1044.68L1183.81 817.015ZM1051.86 668.9L1018.73 589.409C1014.01 578.129 1010.13 567.413 1006.7 557.06C1002.87 568.522 999.121 578.882 995.313 588.736L962.058 668.88L1051.86 668.9ZM1138.29 892.577H858.428V943.704H1046.59L840.045 1190.29V1225.45H1141.14V1174.34H932.863L1138.25 928.728V892.581H1138.29L1138.29 892.577Z" fill="#64728C"/>
</g>
</g>
<defs>
<clipPath id="clip0_38_525">
<rect width="1275" height="1275" fill="white"/>
</clipPath>
<clipPath id="clip1_38_525">
<rect width="1275" height="1275" fill="white"/>
</clipPath>
</defs>
</svg>
