<svg width="1275" height="1275" viewBox="0 0 1275 1275" fill="none" xmlns="http://www.w3.org/2000/svg">
<g clip-path="url(#clip0_39_609)">
<path d="M278.906 0C289.473 0 299.608 4.19781 307.08 11.67C314.552 19.1421 318.75 29.2765 318.75 39.8438V79.6875H956.25V39.8438C956.25 29.2765 960.447 19.1421 967.919 11.67C975.39 4.19781 985.524 0 996.091 0C1006.66 0 1016.8 4.19781 1024.27 11.67C1031.74 19.1421 1035.94 29.2765 1035.94 39.8438V79.6875H1115.62C1157.89 79.6875 1198.43 96.4787 1228.32 126.367C1258.21 156.256 1275 196.794 1275 239.062V1115.62C1275 1157.89 1258.21 1198.43 1228.32 1228.32C1198.43 1258.21 1157.89 1275 1115.62 1275H159.375C117.106 1275 76.5683 1258.21 46.6798 1228.32C16.7912 1198.43 0 1157.89 0 1115.62V239.062C0 196.794 16.7912 156.256 46.6798 126.367C76.5683 96.4787 117.106 79.6875 159.375 79.6875H239.062V39.8438C239.062 29.2765 243.26 19.1421 250.732 11.67C258.205 4.19781 268.339 0 278.906 0ZM159.375 159.375C138.241 159.375 117.972 167.771 103.028 182.715C88.0831 197.659 79.6875 217.928 79.6875 239.062V318.75H1195.31V239.062C1195.31 217.928 1186.92 197.659 1171.97 182.715C1157.03 167.771 1136.76 159.375 1115.62 159.375H159.375ZM1195.31 398.438H79.6875V1115.62C79.6875 1136.76 88.0831 1157.03 103.028 1171.97C117.972 1186.92 138.241 1195.31 159.375 1195.31H1115.62C1136.76 1195.31 1157.03 1186.92 1171.97 1171.97C1186.92 1157.03 1195.31 1136.76 1195.31 1115.62V398.438Z" fill="#64728C"/>
<path d="M876.594 597.657C876.594 587.085 880.791 576.951 888.263 569.479C895.734 562.008 905.868 557.811 916.44 557.811H996.122C1006.69 557.811 1016.83 562.008 1024.3 569.479C1031.77 576.951 1035.97 587.085 1035.97 597.657V677.339C1035.97 687.912 1031.77 698.045 1024.3 705.517C1016.83 712.988 1006.69 717.186 996.122 717.186H916.44C905.868 717.186 895.734 712.988 888.263 705.517C880.791 698.045 876.594 687.912 876.594 677.339V597.657Z" fill="#64728C"/>
<path d="M531.414 597.657C531.414 587.085 535.611 576.951 543.083 569.479C550.554 562.008 560.688 557.811 571.255 557.811H650.943C661.51 557.811 671.644 562.008 679.115 569.479C686.592 576.951 690.789 587.085 690.789 597.657V677.339C690.789 687.912 686.592 698.045 679.115 705.517C671.644 712.988 661.51 717.186 650.943 717.186H571.255C560.688 717.186 550.554 712.988 543.083 705.517C535.611 698.045 531.414 687.912 531.414 677.339V597.657Z" fill="#64728C"/>
<path d="M212.664 597.657C212.664 587.085 216.862 576.951 224.334 569.479C231.806 562.008 241.941 557.811 252.508 557.811H332.195C342.763 557.811 352.897 562.008 360.369 569.479C367.841 576.951 372.039 587.085 372.039 597.657V677.339C372.039 687.912 367.841 698.045 360.369 705.517C352.897 712.988 342.763 717.186 332.195 717.186H252.508C241.941 717.186 231.806 712.988 224.334 705.517C216.862 698.045 212.664 687.912 212.664 677.339V597.657Z" fill="#64728C"/>
</g>
<defs>
<clipPath id="clip0_39_609">
<rect width="1275" height="1275" fill="white"/>
</clipPath>
</defs>
</svg>
