<svg width="1275" height="1342" viewBox="0 0 1275 1342" fill="none" xmlns="http://www.w3.org/2000/svg">
<g clip-path="url(#clip0_35_474)">
<g clip-path="url(#clip1_35_474)">
<path d="M240.281 1342C243.778 1337.84 248.814 1339.59 253.15 1339.59C509.059 1339.59 764.969 1339.59 1020.88 1339.59C1025.21 1339.59 1030.11 1337.84 1033.75 1342H240.281Z" fill="#64728C"/>
<path d="M1270.73 298.447C1258.76 247.184 1231.46 200.783 1192.47 165.415C1157.5 133.661 1116.38 110.824 1068.22 104.529C1049.36 101.882 1030.34 100.457 1011.29 100.263C982.757 100.263 985.135 102.606 985.135 74.1741C985.135 57.5626 985.415 41.126 977.442 25.6685C967.301 6.04945 950.41 0.349075 929.918 0.768734C910.02 1.18839 895.158 9.02203 885.821 27.3821C877.113 44.5532 878.407 62.7384 878.372 80.9236C878.372 100.263 878.372 100.298 859.174 100.298C711.648 100.298 564.11 100.298 416.561 100.298C415.337 100.298 414.078 100.298 412.819 100.298C399.216 100.018 398.306 99.1438 398.132 85.1552C398.132 74.6637 398.866 64.3821 397.852 54.1004C396.138 36.6146 391.173 20.4927 376.135 9.82638C358.651 -2.55357 339.067 -2.23882 320.184 5.2451C300.88 12.9738 293.782 30.6694 291.578 50.0787C290.25 61.5494 291.334 73.2299 291.159 84.8405C290.949 99.1089 289.9 100.543 275.352 100.193C253.437 99.9479 231.534 101.316 209.819 104.285C179.85 108.097 152.923 120.092 126.556 135.025C86.7601 157.616 56.9659 189.301 34.1306 228.119C9.82652 269.456 0 314.149 0 362.27C0.629457 604.157 0.699397 846.056 0.209819 1087.97C0.209819 1121.43 4.7559 1153.78 17.6947 1184.94C39.8656 1237.78 74.4158 1280.1 123.618 1309.55C152.299 1327.01 184.409 1338.08 217.757 1342H240.138C244.404 1339.59 249.055 1340.78 253.531 1340.78C509.091 1340.78 764.65 1340.78 1020.21 1340.78C1024.65 1340.78 1029.3 1339.59 1033.6 1342H1051.09C1067.78 1340.52 1084.27 1337.31 1100.29 1332.42C1168.83 1311.12 1216.43 1266.32 1249.23 1204.18C1264.16 1176.04 1272.95 1145.04 1275 1113.25V335.132C1272.45 323.032 1273.71 310.477 1270.73 298.447ZM100.678 400.704C101.447 369.229 98.9646 337.755 111.169 307.575C123.082 277.559 143.608 251.739 170.163 233.365C199.748 212.382 232.13 208.885 266.19 209.164C294.936 209.164 294.936 209.164 294.936 238.016C294.936 263.266 294.516 288.55 295.145 313.834C295.74 338.315 311.826 357.794 333.612 362.27C344.217 364.591 355.288 363.387 365.147 358.843C375.005 354.299 383.112 346.661 388.235 337.091C392.544 328.102 394.608 318.201 394.25 308.239C394.25 278.443 394.495 248.787 394.25 218.782C394.25 211.263 395.998 208.99 403.832 208.99C560.03 209.223 716.287 209.223 872.602 208.99C880.226 208.99 882.429 210.878 882.324 218.607C881.869 249.662 881.659 280.751 882.324 311.806C883.128 349.645 917.783 373.671 950.9 359.577C971.882 350.66 981.323 333.663 981.533 311.456C981.813 280.786 981.883 250.116 981.533 219.481C981.533 211.612 983.142 208.71 991.64 208.99C1019.62 209.724 1048.36 206.472 1075.25 217.033C1132.88 239.625 1171.59 289.774 1175.41 355.87C1176.35 371.957 1175.41 388.184 1175.83 404.306C1176.07 411.3 1173.94 413.294 1166.87 413.189C1139.11 412.804 1111.34 413.189 1083.58 413.189H638.304C463.455 413.189 288.606 413.27 113.757 413.434C103.511 413.294 100.398 411.37 100.678 400.704ZM1065.5 1230.75C1051.1 1234.83 1036.25 1237.09 1021.29 1237.47C766.014 1237.47 510.734 1237.47 255.455 1237.47C216.373 1237.96 178.602 1223.39 149.986 1196.76C119.282 1168.79 101.657 1132.13 101.482 1090.31C100.643 902.267 101.168 714.189 100.783 526.112C100.783 514.676 107.322 517.159 113.512 517.159H638.06C812.909 517.159 987.758 517.078 1162.61 516.915C1172.89 516.915 1175.55 519.293 1175.55 529.679C1175.2 711.951 1174.67 894.223 1175.55 1076.5C1176.21 1143.57 1135.47 1212.99 1065.5 1230.75Z" fill="#64728C"/>
<path d="M341.653 958.956C356.585 958.956 371.552 958.466 386.484 958.956C394.695 959.427 402.71 961.65 409.989 965.478C417.269 969.305 423.644 974.647 428.687 981.144C433.729 987.642 437.322 995.144 439.223 1003.15C441.124 1011.15 441.289 1019.46 439.708 1027.54C436.84 1043.66 429.567 1056.42 416.838 1064.54C406.032 1071.53 394.807 1076.71 381.203 1076.15C352.983 1074.99 324.657 1077.02 296.472 1075.48C260.942 1073.59 235.274 1041.35 244.017 1001.62C249.018 978.995 275.49 959.026 294.199 958.886C310.075 958.886 325.846 958.956 341.653 958.956Z" fill="#64728C"/>
<path d="M931.038 958.956C946.005 958.956 960.973 958.466 975.905 958.956C1011.33 960.32 1036.86 993.927 1028.99 1031.17C1023.85 1055.48 998.53 1075.2 977.583 1075.62C947.264 1076.25 916.876 1076.85 886.662 1075.62C852.776 1074.15 827.213 1044.15 833.053 1006.1C836.865 981.023 863.337 959.55 883.759 959.061C899.461 958.676 915.232 958.956 931.038 958.956Z" fill="#64728C"/>
<path d="M636.768 958.956C651.316 958.956 665.863 958.641 680.376 958.956C713.527 959.795 740.314 990.71 734.369 1026.84C731.816 1042.47 725.137 1055.13 713.002 1063.42C702.022 1070.9 690.517 1076.6 676.494 1076.15C647.854 1075.13 619.143 1076.15 590.503 1075.76C568.612 1075.52 541.895 1054.5 538.048 1029.32C533.852 1002.08 545.042 977.666 567.633 965.531C577.031 960.582 587.59 958.262 598.197 958.816C610.995 959.166 623.899 958.956 636.768 958.956Z" fill="#64728C"/>
<path d="M934.745 681.282C950.552 681.282 966.428 682.121 982.199 681.282C1018.04 679.043 1047.38 729.822 1027.42 767.347C1017.9 785.252 1003.6 795.324 984.717 795.324C951.426 795.814 918.275 795.953 884.808 795.324C863.302 794.869 847.391 783.119 839.592 761.122C835.802 751.263 834.669 740.581 836.308 730.147C837.947 719.712 842.299 709.892 848.929 701.67C853.704 694.74 860.237 689.205 867.858 685.635C875.478 682.064 883.911 680.586 892.292 681.352C906.42 681.946 920.583 681.282 934.745 681.282Z" fill="#64728C"/>
<path d="M344.422 795.499C328.161 795.499 311.935 795.884 295.709 795.499C274.202 794.8 258.221 783.714 250.248 761.856C241.89 739.335 245.842 718.876 260.564 700.097C271.789 685.793 285.358 680.967 302.003 681.282C331.972 681.841 362.012 682.751 391.911 681.037C420.796 679.393 444.925 713.316 444.365 739.335C443.666 772.278 422.754 795.289 391.911 795.604C376.034 795.674 360.193 795.499 344.422 795.499Z" fill="#64728C"/>
<path d="M639.637 681.317C656.283 681.317 672.963 682.016 689.574 681.317C715.032 680.023 739.196 713.211 738.532 738.845C737.937 770.319 718.354 794.8 690.518 795.359C656.807 796.163 623.061 796.024 589.35 795.359C568.858 794.974 553.471 783.888 545.113 763.535C540.938 754.021 539.312 743.584 540.398 733.251C541.483 722.918 545.242 713.046 551.303 704.608C562.388 688.136 576.761 680.128 595.785 681.212C610.472 681.946 625.054 681.282 639.637 681.317Z" fill="#64728C"/>
</g>
</g>
<defs>
<clipPath id="clip0_35_474">
<rect width="1275" height="1342" fill="white"/>
</clipPath>
<clipPath id="clip1_35_474">
<rect width="1275" height="1342" fill="white"/>
</clipPath>
</defs>
</svg>
