<svg width="1275" height="1275" viewBox="0 0 1275 1275" fill="none" xmlns="http://www.w3.org/2000/svg">
<g clip-path="url(#clip0_25_176)">
<path d="M637.5 31.875C285.983 31.875 0 289.255 0 605.625C0 716.21 34.9775 823.331 101.32 915.96C88.7613 1054.87 55.1012 1158 6.22625 1206.85C3.07947 1210 1.00216 1214.06 0.287735 1218.46C-0.426693 1222.85 0.257866 1227.36 2.24472 1231.35C4.23158 1235.33 7.42032 1238.59 11.3605 1240.67C15.3008 1242.74 19.7934 1243.53 24.2038 1242.91C32.81 1241.7 232.73 1212.93 377.336 1129.46C459.446 1162.59 546.911 1179.38 637.5 1179.38C989.018 1179.38 1275 921.995 1275 605.625C1275 289.255 989.018 31.875 637.5 31.875ZM340 690.625C293.122 690.625 255 652.503 255 605.625C255 558.747 293.122 520.625 340 520.625C386.878 520.625 425 558.747 425 605.625C425 652.503 386.878 690.625 340 690.625ZM637.5 690.625C590.622 690.625 552.5 652.503 552.5 605.625C552.5 558.747 590.622 520.625 637.5 520.625C684.378 520.625 722.5 558.747 722.5 605.625C722.5 652.503 684.378 690.625 637.5 690.625ZM935 690.625C888.122 690.625 850 652.503 850 605.625C850 558.747 888.122 520.625 935 520.625C981.878 520.625 1020 558.747 1020 605.625C1020 652.503 981.878 690.625 935 690.625Z" fill="#64728C"/>
</g>
<defs>
<clipPath id="clip0_25_176">
<rect width="1275" height="1275" fill="white"/>
</clipPath>
</defs>
</svg>
