<svg width="1108" height="1364" viewBox="0 0 1108 1364" fill="none" xmlns="http://www.w3.org/2000/svg">
<g clip-path="url(#clip0_25_414)">
<path d="M980.154 1363.69H127.846C57.1046 1363.69 0 1306.59 0 1235.85V127.846C0 57.1046 57.1046 0 127.846 0H732.132C766.225 0 798.612 13.6369 822.477 37.5015L1070.5 285.523C1094.36 309.388 1108 341.775 1108 375.868V1235.85C1108 1306.59 1050.9 1363.69 980.154 1363.69ZM127.846 85.2308C103.982 85.2308 85.2308 103.982 85.2308 127.846V1235.85C85.2308 1259.71 103.982 1278.46 127.846 1278.46H980.154C1004.02 1278.46 1022.77 1259.71 1022.77 1235.85V375.868C1022.84 370.279 1021.74 364.737 1019.53 359.6C1017.33 354.462 1014.08 349.842 1009.98 346.037L761.963 98.0154C754.095 89.986 743.373 85.3909 732.132 85.2308H127.846Z" fill="#64728C"/>
<path d="M1055.15 426.163H807.133C738.096 426.163 681.844 369.911 681.844 300.874V52.8527C681.844 28.9881 700.595 10.2373 724.459 10.2373C748.324 10.2373 767.075 28.9881 767.075 52.8527V300.874C767.075 323.034 784.973 340.933 807.133 340.933H1055.15C1079.02 340.933 1097.77 359.683 1097.77 383.548C1097.77 407.413 1079.02 426.163 1055.15 426.163Z" fill="#64728C"/>
<path d="M767.086 944L821.227 1114.19H823.305L877.555 944H930.055L852.836 1168H791.805L714.477 944H767.086Z" fill="#64728C"/>
<path d="M593.945 1008.42C593.07 999.599 589.315 992.745 582.68 987.859C576.044 982.974 567.039 980.531 555.664 980.531C547.935 980.531 541.409 981.625 536.086 983.813C530.763 985.927 526.68 988.88 523.836 992.672C521.065 996.464 519.68 1000.77 519.68 1005.58C519.534 1009.59 520.372 1013.09 522.195 1016.08C524.091 1019.07 526.68 1021.66 529.961 1023.84C533.242 1025.96 537.034 1027.82 541.336 1029.42C545.638 1030.95 550.232 1032.27 555.117 1033.36L575.242 1038.17C585.013 1040.36 593.982 1043.28 602.148 1046.92C610.315 1050.57 617.388 1055.05 623.367 1060.38C629.346 1065.7 633.977 1071.97 637.258 1079.19C640.612 1086.41 642.326 1094.68 642.398 1104.02C642.326 1117.72 638.826 1129.61 631.898 1139.67C625.044 1149.66 615.128 1157.43 602.148 1162.97C589.242 1168.44 573.674 1171.17 555.445 1171.17C537.362 1171.17 521.612 1168.4 508.195 1162.86C494.852 1157.32 484.424 1149.11 476.914 1138.25C469.477 1127.31 465.576 1113.79 465.211 1097.67H511.039C511.549 1105.18 513.701 1111.45 517.492 1116.48C521.357 1121.44 526.497 1125.2 532.914 1127.75C539.404 1130.23 546.732 1131.47 554.898 1131.47C562.919 1131.47 569.883 1130.3 575.789 1127.97C581.768 1125.64 586.398 1122.39 589.68 1118.23C592.961 1114.08 594.602 1109.3 594.602 1103.91C594.602 1098.88 593.107 1094.65 590.117 1091.22C587.201 1087.79 582.898 1084.88 577.211 1082.47C571.596 1080.06 564.706 1077.88 556.539 1075.91L532.148 1069.78C513.263 1065.19 498.352 1058.01 487.414 1048.23C476.477 1038.46 471.044 1025.3 471.117 1008.75C471.044 995.187 474.654 983.339 481.945 973.203C489.31 963.068 499.409 955.156 512.242 949.469C525.076 943.781 539.659 940.938 555.992 940.938C572.617 940.938 587.128 943.781 599.523 949.469C611.992 955.156 621.69 963.068 628.617 973.203C635.544 983.339 639.117 995.078 639.336 1008.42H593.945Z" fill="#64728C"/>
<path d="M386.109 1022.42H338.203C337.328 1016.22 335.542 1010.72 332.844 1005.91C330.146 1001.02 326.682 996.865 322.453 993.438C318.224 990.01 313.339 987.385 307.797 985.562C302.328 983.74 296.385 982.828 289.969 982.828C278.375 982.828 268.276 985.708 259.672 991.469C251.068 997.156 244.396 1005.47 239.656 1016.41C234.917 1027.27 232.547 1040.47 232.547 1056C232.547 1071.97 234.917 1085.39 239.656 1096.25C244.469 1107.11 251.177 1115.32 259.781 1120.86C268.385 1126.4 278.339 1129.17 289.641 1129.17C295.984 1129.17 301.854 1128.33 307.25 1126.66C312.719 1124.98 317.568 1122.54 321.797 1119.33C326.026 1116.05 329.526 1112.07 332.297 1107.41C335.141 1102.74 337.109 1097.42 338.203 1091.44L386.109 1091.66C384.87 1101.94 381.771 1111.85 376.813 1121.41C371.927 1130.89 365.328 1139.38 357.016 1146.89C348.776 1154.33 338.932 1160.23 327.484 1164.61C316.109 1168.91 303.24 1171.06 288.875 1171.06C268.896 1171.06 251.031 1166.54 235.281 1157.5C219.604 1148.46 207.208 1135.37 198.094 1118.23C189.052 1101.1 184.531 1080.35 184.531 1056C184.531 1031.57 189.125 1010.79 198.313 993.656C207.5 976.521 219.969 963.469 235.719 954.5C251.469 945.458 269.188 940.938 288.875 940.938C301.854 940.938 313.885 942.76 324.969 946.406C336.125 950.052 346.005 955.375 354.609 962.375C363.214 969.302 370.214 977.797 375.609 987.859C381.078 997.922 384.578 1009.44 386.109 1022.42Z" fill="#64728C"/>
</g>
<defs>
<clipPath id="clip0_25_414">
<rect width="1108" height="1364" fill="white"/>
</clipPath>
</defs>
</svg>
