<svg width="1275" height="1187" viewBox="0 0 1275 1187" fill="none" xmlns="http://www.w3.org/2000/svg">
<g clip-path="url(#clip0_25_140)">
<g clip-path="url(#clip1_25_140)">
<path d="M1253.59 536.402L1060.35 343.209V120.039C1060 100.898 1052.14 82.6628 1038.47 69.2536C1024.81 55.8444 1006.42 48.3322 987.275 48.3322C968.128 48.3322 949.744 55.8444 936.078 69.2536C922.412 82.6628 914.555 100.898 914.196 120.039V197.234L770.327 53.3681C699.191 -17.7026 575.526 -17.574 504.543 53.3681L21.3869 536.402C7.68069 550.109 -0.018038 568.698 -0.0156244 588.081C-0.0132109 607.463 7.69015 626.05 21.3998 639.753C35.1095 653.457 53.7024 661.154 73.0883 661.152C92.4743 661.149 111.065 653.447 124.772 639.741L607.877 156.681C623.628 141.036 651.372 141.036 667.071 156.681L1150.2 639.741C1156.99 646.528 1165.05 651.911 1173.91 655.585C1182.78 659.259 1192.29 661.15 1201.89 661.152C1211.48 661.153 1220.99 659.264 1229.86 655.592C1238.73 651.921 1246.79 646.539 1253.57 639.753C1260.36 632.968 1265.75 624.912 1269.42 616.046C1273.1 607.18 1274.99 597.677 1274.99 588.081C1274.99 578.483 1273.1 568.98 1269.43 560.113C1265.76 551.246 1260.37 543.189 1253.59 536.402Z" fill="#64728C"/>
<path d="M644.86 295.373C641.528 292.04 637.572 289.396 633.218 287.592C628.864 285.788 624.197 284.859 619.484 284.859C614.771 284.859 610.103 285.788 605.749 287.592C601.395 289.396 597.439 292.04 594.107 295.373L169.116 720.125C162.39 726.877 158.615 736.019 158.615 745.548V1055.36C158.622 1090.27 172.497 1123.75 197.188 1148.43C221.879 1173.12 255.366 1186.99 290.285 1187H500.683V861.211H738.233V1187H948.657C983.574 1186.99 1017.06 1173.12 1041.74 1148.43C1066.43 1123.75 1080.3 1090.27 1080.3 1055.36V745.548C1080.31 740.828 1079.39 736.153 1077.58 731.79C1075.78 727.428 1073.14 723.463 1069.8 720.125L644.86 295.373Z" fill="#64728C"/>
</g>
</g>
<defs>
<clipPath id="clip0_25_140">
<rect width="1275" height="1187" fill="white"/>
</clipPath>
<clipPath id="clip1_25_140">
<rect width="1275" height="1187" fill="white"/>
</clipPath>
</defs>
</svg>
