<svg width="1470" height="948" viewBox="0 0 1470 948" fill="none" xmlns="http://www.w3.org/2000/svg">
<g clip-path="url(#clip0_39_627)">
<path d="M639.642 907.407L30.752 210.567C8.20053 183.505 -1.94763 153.061 0.30752 119.234C2.56267 85.4064 14.966 57.2171 37.5174 34.6656C60.0689 12.1142 89.3858 0.83844 125.468 0.83844H1343.25C1365.8 0.83844 1388.35 7.60388 1410.9 21.1348C1433.45 34.6656 1449.24 52.7068 1458.26 75.2583C1467.28 97.8098 1470.66 121.489 1468.41 146.295C1466.15 171.102 1456 192.526 1437.96 210.567L829.074 907.407C806.522 934.469 774.95 948 734.358 948C693.765 948 662.193 934.469 639.642 907.407Z" fill="#64728C"/>
</g>
<defs>
<clipPath id="clip0_39_627">
<rect width="1470" height="948" fill="white"/>
</clipPath>
</defs>
</svg>
