<svg width="1276" height="1276" viewBox="0 0 1276 1276" fill="none" xmlns="http://www.w3.org/2000/svg">
<g clip-path="url(#clip0_24_76)">
<path d="M0 1010.4V1276H265.597L1048.93 492.666L783.334 227.069L0 1010.4ZM1254.33 287.271C1260.89 280.719 1266.1 272.936 1269.65 264.368C1273.21 255.8 1275.04 246.615 1275.04 237.339C1275.04 228.063 1273.21 218.878 1269.65 210.31C1266.1 201.742 1260.89 193.959 1254.33 187.407L1088.59 21.6745C1082.04 15.1087 1074.26 9.89963 1065.69 6.34549C1057.12 2.79134 1047.94 0.961914 1038.66 0.961914C1029.39 0.961914 1020.2 2.79134 1011.63 6.34549C1003.06 9.89963 995.281 15.1087 988.729 21.6745L859.117 151.286L1124.71 416.883L1254.33 287.271Z" fill="#64728C"/>
</g>
<defs>
<clipPath id="clip0_24_76">
<rect width="1276" height="1276" fill="white"/>
</clipPath>
</defs>
</svg>
