<svg width="1446" height="1155" viewBox="0 0 1446 1155" fill="none" xmlns="http://www.w3.org/2000/svg">
<g clip-path="url(#clip0_40_1038)">
<g clip-path="url(#clip1_40_1038)">
<path d="M1444.09 124.354C1432.94 49.6774 1382.95 0.281345 1315.62 0.241153C920.739 -0.0803842 525.836 -0.0803842 130.909 0.241153C55.1933 0.281345 0.281505 63.0614 0.175361 149.314C-0.131278 434.811 -0.190247 720.323 -0.00154616 1005.85C-0.507977 1028.9 3.87269 1051.76 12.7711 1072.49C38.2811 1129.04 79.9957 1154.96 135.12 1155H990.888C1098.19 1155 1205.51 1155 1312.86 1155C1357.47 1155 1394.24 1136.19 1421.41 1095.31C1435.1 1074.9 1440.73 1050.9 1446.18 1026.71V128.615C1445.27 127.342 1444.56 125.9 1444.09 124.354ZM1297.89 96.9433C1298.74 98.0285 1299.56 99.1539 1300.4 100.279C1296.94 102.632 1293.66 105.322 1290.6 108.318C1133.42 285.726 976.264 463.254 819.147 640.903C779.237 686.039 733.1 701.674 678.825 680.693C661.007 673.566 644.921 661.765 631.874 646.249C471.985 462.209 312.239 277.647 155.676 96.9433H1297.89ZM91.9899 993.066L86.152 987.801V167.882L88.8056 164.747C91.0963 169.193 93.7245 173.402 96.6603 177.327C211.296 307.068 326.073 436.687 440.991 566.186C449.235 575.43 449.589 579.771 441.168 589.417C324.434 723.659 208.041 858.208 91.9899 993.066ZM148.6 1057.82L146.053 1054.76C149.881 1051.85 153.534 1048.66 156.985 1045.2C271.597 916.045 386.056 786.747 500.361 657.301C509.454 646.932 513.629 648.017 521.979 657.663C545.083 684.311 567.02 712.485 593.096 735.475C678.931 811.036 794.345 802.234 874.378 714.374C891.644 695.444 908.839 676.393 925.291 656.578C932.615 647.736 936.755 647.052 944.822 656.216C1033.98 757.581 1123.39 858.637 1213.05 959.385C1241.64 991.539 1269.83 1024.42 1298.95 1057.82H148.6ZM1360.87 987.118C1356.06 988.323 1354.61 983.34 1352.31 980.727C1236.09 849.755 1119.9 718.715 1003.73 587.608C998.177 581.338 994.922 577.641 1002.6 569.04C1120.54 436.325 1238.36 303.357 1356.06 170.133C1357.01 169.048 1358.15 168.164 1360.87 165.712V987.118Z" fill="#64728C"/>
</g>
</g>
<defs>
<clipPath id="clip0_40_1038">
<rect width="1446" height="1155" fill="white"/>
</clipPath>
<clipPath id="clip1_40_1038">
<rect width="1446" height="1155" fill="white"/>
</clipPath>
</defs>
</svg>
