<svg width="1320" height="1259" viewBox="0 0 1320 1259" fill="none" xmlns="http://www.w3.org/2000/svg">
<g clip-path="url(#clip0_42_1248)">
<path d="M708.984 0.875C816.406 0.875 923.828 0.875 1031.25 0.875C1103.44 0.875 1165.53 22.3594 1217.52 65.3281C1269.51 108.297 1302.38 165.016 1316.13 235.484C1316.99 243.219 1317.85 251.383 1318.71 259.977C1319.57 268.57 1320 277.164 1320 285.758C1320 286.617 1320 287.262 1320 287.691C1320 288.121 1320 288.336 1320 288.336C1320 506.617 1320 724.469 1320 941.891C1320 1014.08 1298.3 1076.17 1254.9 1128.16C1211.5 1180.15 1154.57 1213.02 1084.1 1226.77C1071.21 1229.35 1058.32 1230.64 1045.43 1230.64C1032.54 1230.64 1019.65 1230.64 1006.76 1230.64C986.992 1230.64 967.227 1230.64 947.461 1230.64C927.695 1230.64 907.93 1230.64 888.164 1230.64C875.273 1230.64 864.316 1226.56 855.293 1218.39C846.27 1210.23 840.898 1200.56 839.18 1189.39C839.18 1187.67 839.18 1186.17 839.18 1184.88C839.18 1183.59 839.18 1182.52 839.18 1181.66C839.18 1170.48 842.188 1160.82 848.203 1152.65C854.219 1144.49 862.383 1138.69 872.695 1135.25C875.273 1134.39 877.852 1133.96 880.43 1133.96C883.008 1133.96 885.586 1133.96 888.164 1133.96C889.023 1133.96 889.668 1133.96 890.098 1133.96C890.527 1133.96 891.172 1133.96 892.031 1133.96C915.234 1133.96 938.438 1133.96 961.641 1133.96C984.844 1133.96 1008.05 1133.96 1031.25 1133.96C1086.25 1133.1 1132.01 1114.62 1168.54 1078.53C1205.06 1042.44 1223.32 997.32 1223.32 943.18C1223.32 724.898 1223.32 506.617 1223.32 288.336C1222.46 234.195 1203.98 188.863 1167.89 152.34C1131.8 115.816 1086.68 97.5547 1032.54 97.5547C816.836 97.5547 601.133 97.5547 385.43 97.5547C331.289 97.5547 286.172 115.602 250.078 151.695C213.984 187.789 195.938 232.906 195.938 287.047C195.938 291.344 195.938 295.641 195.938 299.938C195.938 304.234 195.938 308.531 195.938 312.828C195.078 325.719 189.922 336.461 180.469 345.055C171.016 353.648 160.273 357.945 148.242 357.945C148.242 357.945 148.027 357.945 147.598 357.945C147.168 357.945 146.953 357.945 146.953 357.945C134.922 357.945 124.18 353.648 114.727 345.055C105.273 336.461 100.117 326.148 99.2578 314.117C94.1016 236.773 111.289 172.105 150.82 120.113C190.352 68.1211 238.047 33.1016 293.906 15.0547C306.797 10.7578 320.762 7.32031 335.801 4.74219C350.84 2.16406 366.523 0.875 382.852 0.875C382.852 0.875 383.066 0.875 383.496 0.875C383.926 0.875 384.141 0.875 384.141 0.875C492.422 0.875 600.703 0.875 708.984 0.875ZM817.266 1041.15C817.266 1036.85 817.266 1032.77 817.266 1028.9C817.266 1025.04 816.836 1020.95 815.977 1016.66C815.117 1011.5 814.043 1006.77 812.754 1002.48C811.465 998.18 809.961 993.883 808.242 989.586L809.531 990.875C807.812 985.719 805.664 981.207 803.086 977.34C800.508 973.473 797.93 969.391 795.352 965.094L796.641 966.383C793.203 961.227 789.336 956.5 785.039 952.203C780.742 947.906 776.016 944.039 770.859 940.602C764.844 937.164 758.613 934.371 752.168 932.223C745.723 930.074 739.062 928.141 732.188 926.422L711.562 918.688C707.266 917.828 703.184 916.754 699.316 915.465C695.449 914.176 691.797 912.672 688.359 910.953C682.344 909.234 676.328 907.086 670.312 904.508C664.297 901.93 658.281 899.352 652.266 896.773C647.109 894.195 641.953 891.832 636.797 889.684C631.641 887.535 626.484 885.172 621.328 882.594C611.016 877.438 600.703 871.852 590.391 865.836C585.234 863.258 580.293 860.465 575.566 857.457C570.84 854.449 565.898 851.656 560.742 849.078C559.883 848.219 559.023 847.789 558.164 847.789C557.305 847.789 556.875 848.219 556.875 849.078C555.156 852.516 553.652 855.953 552.363 859.391C551.074 862.828 550 866.266 549.141 869.703C548.281 873.141 547.207 876.363 545.918 879.371C544.629 882.379 543.555 885.602 542.695 889.039C541.836 892.477 540.762 895.914 539.473 899.352C538.184 902.789 536.68 906.227 534.961 909.664C534.102 912.242 533.242 915.035 532.383 918.043C531.523 921.051 530.664 923.844 529.805 926.422C528.945 930.719 527.656 934.801 525.938 938.668C524.219 942.535 522.93 946.617 522.07 950.914C521.211 953.492 520.352 956.285 519.492 959.293C518.633 962.301 517.773 965.094 516.914 967.672C515.195 972.828 513.477 977.555 511.758 981.852C510.039 986.148 508.75 990.445 507.891 994.742C506.172 999.898 504.453 1004.84 502.734 1009.57C501.016 1014.29 499.727 1018.8 498.867 1023.1C497.148 1028.26 495.43 1033.2 493.711 1037.93C491.992 1042.65 490.273 1047.59 488.555 1052.75C486.836 1057.05 485.332 1061.56 484.043 1066.29C482.754 1071.01 481.25 1075.52 479.531 1079.82C479.531 1080.68 479.531 1081.32 479.531 1081.75C479.531 1082.18 479.102 1082.4 478.242 1082.4C477.383 1082.4 476.953 1081.97 476.953 1081.11C476.953 1080.25 476.523 1079.82 475.664 1079.82C474.805 1078.1 473.945 1076.6 473.086 1075.31C472.227 1074.02 471.797 1072.95 471.797 1072.09V1070.8C470.078 1063.06 467.5 1055.33 464.062 1047.59C460.625 1039.86 457.617 1032.12 455.039 1024.39C453.32 1020.09 451.816 1015.58 450.527 1010.86C449.238 1006.13 447.734 1001.62 446.016 997.32C443.438 992.164 441.289 987.008 439.57 981.852C437.852 976.695 436.133 971.539 434.414 966.383C433.555 964.664 432.91 962.945 432.48 961.227C432.051 959.508 432.695 957.789 434.414 956.07C439.57 947.477 444.727 939.098 449.883 930.934C455.039 922.77 458.906 914.391 461.484 905.797C463.203 900.641 464.492 895.699 465.352 890.973C466.211 886.246 465.781 881.305 464.062 876.148C463.203 870.992 461.055 866.48 457.617 862.613C454.18 858.746 450.312 855.523 446.016 852.945C440.859 850.367 435.918 848.648 431.191 847.789C426.465 846.93 421.523 846.07 416.367 845.211C412.07 845.211 407.773 845.426 403.477 845.855C399.18 846.285 394.883 846.5 390.586 846.5C388.867 847.359 387.363 847.789 386.074 847.789C384.785 847.789 383.281 848.219 381.562 849.078C378.125 849.938 375.117 851.227 372.539 852.945C369.961 854.664 367.383 856.812 364.805 859.391C361.367 862.828 358.574 866.48 356.426 870.348C354.277 874.215 353.203 878.297 353.203 882.594C353.203 888.609 353.848 894.195 355.137 899.352C356.426 904.508 357.93 909.234 359.648 913.531C363.086 921.266 366.738 928.355 370.605 934.801C374.473 941.246 378.555 947.477 382.852 953.492C383.711 955.211 384.57 956.93 385.43 958.648C386.289 960.367 385.859 962.516 384.141 965.094C383.281 965.953 382.637 967.242 382.207 968.961C381.777 970.68 381.133 972.398 380.273 974.117V975.406C379.414 978.844 378.34 982.496 377.051 986.363C375.762 990.23 374.258 994.312 372.539 998.609C371.68 1002.05 370.391 1005.48 368.672 1008.92C366.953 1012.36 365.664 1015.8 364.805 1019.23C363.945 1022.67 362.871 1025.89 361.582 1028.9C360.293 1031.91 359.219 1035.13 358.359 1038.57C355.781 1044.59 353.633 1050.17 351.914 1055.33C350.195 1060.48 348.047 1066.07 345.469 1072.09C344.609 1073.8 343.965 1075.52 343.535 1077.24C343.105 1078.96 342.031 1080.68 340.312 1082.4C340.312 1081.54 339.883 1080.68 339.023 1079.82C338.164 1078.96 337.734 1078.1 337.734 1077.24C336.875 1073.8 335.801 1070.37 334.512 1066.93C333.223 1063.49 332.148 1060.48 331.289 1057.91C330.43 1054.47 329.355 1051.03 328.066 1047.59C326.777 1044.16 325.703 1040.72 324.844 1037.28C323.125 1033.84 321.836 1030.19 320.977 1026.32C320.117 1022.46 318.828 1018.8 317.109 1015.37C316.25 1011.93 315.176 1008.49 313.887 1005.05C312.598 1001.62 311.523 998.18 310.664 994.742C309.805 992.164 308.945 989.586 308.086 987.008C307.227 984.43 306.367 981.422 305.508 977.984C304.648 974.547 303.574 971.109 302.285 967.672C300.996 964.234 299.922 960.797 299.062 957.359C297.344 953.922 296.055 950.484 295.195 947.047C294.336 943.609 293.477 940.172 292.617 936.734C290.898 931.578 289.18 926.422 287.461 921.266C285.742 916.109 284.023 910.953 282.305 905.797C280.586 901.5 279.082 896.773 277.793 891.617C276.504 886.461 275 881.305 273.281 876.148C271.562 871.852 269.844 867.555 268.125 863.258C266.406 858.961 265.117 854.664 264.258 850.367C263.398 848.648 262.324 848.004 261.035 848.434C259.746 848.863 258.242 849.508 256.523 850.367C255.664 850.367 254.59 850.797 253.301 851.656C252.012 852.516 250.508 853.375 248.789 854.234C240.195 859.391 230.742 864.762 220.43 870.348C210.117 875.934 199.805 881.305 189.492 886.461L185.625 887.75C175.312 892.906 164.785 897.848 154.043 902.574C143.301 907.301 132.773 911.383 122.461 914.82C115.586 917.398 109.141 919.547 103.125 921.266C97.1094 922.984 90.6641 925.133 83.7891 927.711C78.6328 928.57 73.9062 929.859 69.6094 931.578C65.3125 933.297 61.0156 935.016 56.7188 936.734H58.0078C48.5547 940.172 40.6055 945.543 34.1602 952.848C27.7148 960.152 21.9141 968.102 16.7578 976.695C14.1797 981.852 11.8164 987.008 9.66797 992.164C7.51953 997.32 5.58594 1002.91 3.86719 1008.92V1010.21C3.00781 1013.65 2.14844 1017.73 1.28906 1022.46C0.429687 1027.18 0 1031.7 0 1035.99C0 1049.74 0 1063.49 0 1077.24C0 1090.99 0.429687 1104.31 1.28906 1117.2C1.28906 1123.22 1.71875 1129.23 2.57812 1135.25C3.4375 1141.27 4.29688 1146.85 5.15625 1152.01V1150.72C5.15625 1154.16 6.01562 1156.95 7.73438 1159.1C9.45312 1161.25 11.1719 1163.18 12.8906 1164.9C13.75 1165.76 14.6094 1166.4 15.4688 1166.83C16.3281 1167.26 17.6172 1167.91 19.3359 1168.77C26.2109 1172.2 34.8047 1176.5 45.1172 1181.66C55.4297 1186.81 64.4531 1190.68 72.1875 1193.26C75.625 1194.98 79.0625 1196.7 82.5 1198.41C85.9375 1200.13 89.8047 1201.42 94.1016 1202.28C97.5391 1204 101.406 1205.5 105.703 1206.79C110 1208.08 114.297 1209.59 118.594 1211.3C121.172 1212.16 124.18 1213.24 127.617 1214.53C131.055 1215.82 134.062 1216.89 136.641 1217.75C140.938 1218.61 145.02 1219.68 148.887 1220.97C152.754 1222.26 156.406 1223.34 159.844 1224.2C163.281 1225.05 166.504 1225.91 169.512 1226.77C172.52 1227.63 175.312 1228.49 177.891 1229.35C182.188 1230.21 186.055 1231.07 189.492 1231.93C192.93 1232.79 196.797 1233.65 201.094 1234.51C203.672 1235.37 206.25 1236.01 208.828 1236.44C211.406 1236.87 213.984 1237.52 216.562 1238.38C219.141 1239.23 222.148 1239.88 225.586 1240.31C229.023 1240.74 232.031 1241.38 234.609 1242.24C238.047 1243.1 241.484 1243.75 244.922 1244.18C248.359 1244.61 251.797 1245.25 255.234 1246.11C259.531 1246.97 263.613 1247.61 267.48 1248.04C271.348 1248.47 275 1249.12 278.438 1249.98C282.734 1249.98 286.816 1250.19 290.684 1250.62C294.551 1251.05 298.203 1251.7 301.641 1252.55C306.797 1253.41 311.953 1254.06 317.109 1254.49C322.266 1254.92 327.422 1255.13 332.578 1255.13C336.016 1255.99 339.668 1256.42 343.535 1256.42C347.402 1256.42 351.055 1256.42 354.492 1256.42C361.367 1257.28 368.242 1257.71 375.117 1257.71C381.992 1257.71 389.297 1258.14 397.031 1259C398.75 1259 401.113 1259 404.121 1259C407.129 1259 410.352 1259 413.789 1259C418.086 1259 422.383 1258.79 426.68 1258.36C430.977 1257.93 435.703 1257.71 440.859 1257.71H439.57C443.867 1256.85 448.379 1256.64 453.105 1257.07C457.832 1257.5 462.773 1257.28 467.93 1256.42C471.367 1255.56 475.234 1255.13 479.531 1255.13C483.828 1255.13 487.695 1255.13 491.133 1255.13C494.57 1254.27 498.438 1253.63 502.734 1253.2C507.031 1252.77 511.328 1252.55 515.625 1252.55H516.914C522.07 1251.7 527.012 1251.05 531.738 1250.62C536.465 1250.19 540.977 1249.55 545.273 1248.69C547.852 1248.69 550.43 1248.47 553.008 1248.04C555.586 1247.61 558.164 1246.97 560.742 1246.11C562.461 1246.11 564.609 1245.89 567.188 1245.46C569.766 1245.04 571.914 1244.39 573.633 1243.53C576.211 1243.53 579.004 1243.32 582.012 1242.89C585.02 1242.46 587.812 1241.81 590.391 1240.95C592.969 1240.09 595.762 1239.45 598.77 1239.02C601.777 1238.59 604.57 1238.38 607.148 1238.38C612.305 1236.66 617.676 1235.15 623.262 1233.86C628.848 1232.57 634.219 1231.5 639.375 1230.64C641.094 1229.78 643.027 1229.14 645.176 1228.71C647.324 1228.28 649.688 1227.63 652.266 1226.77C656.562 1225.05 660.859 1223.77 665.156 1222.91C669.453 1222.05 673.75 1220.76 678.047 1219.04C682.344 1217.32 686.641 1215.82 690.938 1214.53C695.234 1213.24 699.102 1212.16 702.539 1211.3C707.695 1209.59 712.422 1207.87 716.719 1206.15C721.016 1204.43 725.312 1202.71 729.609 1200.99C735.625 1199.27 741.426 1197.12 747.012 1194.55C752.598 1191.97 757.969 1189.39 763.125 1186.81C770.859 1183.38 777.949 1180.15 784.395 1177.14C790.84 1174.14 797.07 1170.91 803.086 1167.48H800.508C803.086 1166.62 805.449 1165.54 807.598 1164.25C809.746 1162.96 811.25 1161.03 812.109 1158.45C813.828 1155.02 814.902 1151.15 815.332 1146.85C815.762 1142.55 816.406 1138.69 817.266 1135.25C817.266 1131.81 817.48 1128.16 817.91 1124.29C818.34 1120.43 818.555 1116.77 818.555 1113.34C818.555 1100.45 818.77 1088.2 819.199 1076.6C819.629 1065 818.984 1053.18 817.266 1041.15ZM216.562 533.258C216.562 536.695 216.562 540.133 216.562 543.57C216.562 547.008 216.562 550.016 216.562 552.594C216.562 562.906 216.777 572.789 217.207 582.242C217.637 591.695 219.141 601.578 221.719 611.891C222.578 616.188 223.438 620.484 224.297 624.781C225.156 629.078 226.016 633.375 226.875 637.672C228.594 643.688 230.312 649.273 232.031 654.43C233.75 659.586 235.469 664.742 237.188 669.898V668.609C239.766 675.484 242.559 681.93 245.566 687.945C248.574 693.961 251.797 699.977 255.234 705.992L253.945 704.703C259.961 715.016 266.836 724.254 274.57 732.418C282.305 740.582 290.469 748.102 299.062 754.977H300.352C306.367 760.133 312.812 764.645 319.688 768.512C326.562 772.379 333.867 775.602 341.602 778.18H342.891C348.047 780.758 353.418 782.691 359.004 783.98C364.59 785.27 370.391 785.914 376.406 785.914C380.703 786.773 385.215 787.203 389.941 787.203C394.668 787.203 399.18 787.203 403.477 787.203C411.211 787.203 419.16 786.988 427.324 786.559C435.488 786.129 443.438 785.484 451.172 784.625H449.883C451.602 784.625 453.32 784.41 455.039 783.98C456.758 783.551 458.477 783.336 460.195 783.336C465.352 781.617 470.078 779.898 474.375 778.18C478.672 776.461 482.539 774.742 485.977 773.023L484.688 774.312C495 769.156 504.668 763.57 513.691 757.555C522.715 751.539 530.664 744.664 537.539 736.93C542.695 730.914 547.422 724.898 551.719 718.883C556.016 712.867 559.883 706.422 563.32 699.547L564.609 698.258C568.047 691.383 571.699 683.863 575.566 675.699C579.434 667.535 582.656 658.727 585.234 649.273V647.984C586.953 644.547 588.242 640.895 589.102 637.027C589.961 633.16 590.82 629.508 591.68 626.07C592.539 622.633 593.613 617.906 594.902 611.891C596.191 605.875 596.836 600.719 596.836 596.422C597.695 591.266 598.34 586.109 598.77 580.953C599.199 575.797 599.844 570.641 600.703 565.484C600.703 558.609 600.703 552.164 600.703 546.148C600.703 540.133 600.703 533.688 600.703 526.812C600.703 525.953 600.703 524.879 600.703 523.59C600.703 522.301 600.703 521.227 600.703 520.367C600.703 514.352 600.488 508.336 600.059 502.32C599.629 496.305 599.414 490.289 599.414 484.273V486.852C598.555 480.836 597.91 475.035 597.48 469.449C597.051 463.863 595.977 458.492 594.258 453.336C593.398 449.039 592.539 444.742 591.68 440.445C590.82 436.148 589.961 431.852 589.102 427.555C587.383 421.539 585.449 416.168 583.301 411.441C581.152 406.715 579.219 401.773 577.5 396.617V397.906C574.922 391.891 572.129 386.305 569.121 381.148C566.113 375.992 562.461 371.266 558.164 366.969C548.711 355.797 538.613 345.699 527.871 336.676C517.129 327.652 504.453 320.562 489.844 315.406C486.406 313.688 482.324 311.969 477.598 310.25C472.871 308.531 467.93 306.812 462.773 305.094H460.195C455.898 304.234 451.387 303.375 446.66 302.516C441.934 301.656 436.992 301.227 431.836 301.227C427.539 300.367 423.672 299.938 420.234 299.938C416.797 299.938 412.93 299.938 408.633 299.938C407.773 299.938 406.699 299.938 405.41 299.938C404.121 299.938 403.047 299.938 402.188 299.938C399.609 299.938 397.246 299.938 395.098 299.938C392.949 299.938 390.586 299.938 388.008 299.938H389.297C384.141 300.797 379.414 301.441 375.117 301.871C370.82 302.301 366.523 302.945 362.227 303.805H363.516C360.078 304.664 356.641 305.523 353.203 306.383C349.766 307.242 346.758 308.102 344.18 308.961C337.305 310.68 331.074 312.828 325.488 315.406C319.902 317.984 314.531 320.562 309.375 323.141L310.664 321.852C306.367 324.43 302.285 326.793 298.418 328.941C294.551 331.09 290.469 333.453 286.172 336.031H287.461C281.445 341.188 275.859 346.344 270.703 351.5C265.547 356.656 260.82 362.242 256.523 368.258C249.648 377.711 243.633 387.594 238.477 397.906C233.32 408.219 229.023 419.391 225.586 431.422L224.297 432.711C223.438 437.008 222.363 441.734 221.074 446.891C219.785 452.047 219.141 457.203 219.141 462.359V463.648C218.281 467.086 217.637 470.953 217.207 475.25C216.777 479.547 216.562 483.844 216.562 488.141C216.562 495.875 216.562 503.395 216.562 510.699C216.562 518.004 216.562 525.523 216.562 533.258ZM1081.52 775.602C1081.52 773.023 1081.52 770.66 1081.52 768.512C1081.52 766.363 1081.52 764 1081.52 761.422C1080.66 758.844 1080.02 756.48 1079.59 754.332C1079.16 752.184 1078.52 749.82 1077.66 747.242C1076.8 744.664 1075.72 742.301 1074.43 740.152C1073.14 738.004 1071.64 736.07 1069.92 734.352C1068.2 731.773 1066.27 729.41 1064.12 727.262C1061.97 725.113 1059.61 723.18 1057.03 721.461C1053.59 718.883 1050.16 716.949 1046.72 715.66C1043.28 714.371 1039.41 713.297 1035.12 712.438C1033.4 711.578 1031.68 710.934 1029.96 710.504C1028.24 710.074 1026.52 709.43 1024.8 708.57C1022.23 708.57 1019.86 708.141 1017.71 707.281C1015.57 706.422 1013.63 705.562 1011.91 704.703C1008.48 703.844 1005.25 702.555 1002.25 700.836C999.238 699.117 996.016 697.828 992.578 696.969C990 696.109 987.207 694.82 984.199 693.102C981.191 691.383 978.398 690.094 975.82 689.234C973.242 687.516 970.449 686.012 967.441 684.723C964.434 683.434 961.641 681.93 959.062 680.211C956.484 678.492 953.906 676.988 951.328 675.699C948.75 674.41 946.172 672.906 943.594 671.188C942.734 671.188 942.09 670.973 941.66 670.543C941.23 670.113 941.016 670.328 941.016 671.188C940.156 672.906 939.297 674.625 938.438 676.344C937.578 678.062 937.148 680.211 937.148 682.789C936.289 684.508 935.645 686.227 935.215 687.945C934.785 689.664 934.141 691.383 933.281 693.102C932.422 694.82 931.562 696.539 930.703 698.258C929.844 699.977 929.414 701.695 929.414 703.414C928.555 705.133 927.91 706.852 927.48 708.57C927.051 710.289 926.836 711.578 926.836 712.438C925.977 715.016 925.117 717.379 924.258 719.527C923.398 721.676 922.539 724.039 921.68 726.617C921.68 728.336 921.25 729.84 920.391 731.129C919.531 732.418 919.102 733.922 919.102 735.641C918.242 738.219 917.383 740.582 916.523 742.73C915.664 744.879 914.805 747.242 913.945 749.82C913.086 752.398 912.227 754.977 911.367 757.555C910.508 760.133 909.648 762.711 908.789 765.289C907.93 767.867 907.07 770.445 906.211 773.023C905.352 775.602 904.492 778.18 903.633 780.758C902.773 784.195 901.914 786.988 901.055 789.137C900.195 791.285 899.336 793.648 898.477 796.227C898.477 796.227 898.477 796.441 898.477 796.871C898.477 797.301 898.477 797.516 898.477 797.516C897.617 797.516 897.188 797.301 897.188 796.871C897.188 796.441 897.188 796.227 897.188 796.227C896.328 795.367 895.684 794.508 895.254 793.648C894.824 792.789 894.609 791.93 894.609 791.07C892.891 785.914 891.387 781.188 890.098 776.891C888.809 772.594 887.305 768.297 885.586 764V766.578C884.727 764 883.867 761.422 883.008 758.844C882.148 756.266 881.289 753.688 880.43 751.109C879.57 748.531 878.496 745.738 877.207 742.73C875.918 739.723 874.844 736.93 873.984 734.352C873.984 734.352 873.984 733.922 873.984 733.062C873.984 732.203 873.984 731.773 873.984 731.773C873.984 730.914 873.984 730.27 873.984 729.84C873.984 729.41 873.984 729.195 873.984 729.195C877.422 724.898 880.215 720.602 882.363 716.305C884.512 712.008 886.445 707.281 888.164 702.125L889.453 700.836C889.453 699.977 889.668 698.473 890.098 696.324C890.527 694.176 890.742 692.242 890.742 690.523C890.742 689.664 890.742 688.805 890.742 687.945C890.742 687.086 890.742 686.227 890.742 685.367C889.883 682.789 888.594 680.426 886.875 678.277C885.156 676.129 883.008 674.195 880.43 672.477C877.852 671.617 875.273 670.758 872.695 669.898C870.117 669.039 867.539 668.609 864.961 668.609C864.102 668.609 863.457 668.609 863.027 668.609C862.598 668.609 861.953 668.609 861.094 668.609C859.375 668.609 857.656 668.824 855.938 669.254C854.219 669.684 852.5 669.898 850.781 669.898C848.203 669.898 845.625 670.543 843.047 671.832C840.469 673.121 838.32 674.625 836.602 676.344C834.883 678.062 833.379 679.996 832.09 682.145C830.801 684.293 830.156 686.656 830.156 689.234C830.156 692.672 830.586 695.68 831.445 698.258C832.305 700.836 833.164 703.414 834.023 705.992C835.742 710.289 837.676 714.156 839.824 717.594C841.973 721.031 844.336 724.469 846.914 727.906C846.914 727.906 847.129 728.336 847.559 729.195C847.988 730.055 848.203 730.914 848.203 731.773C848.203 731.773 848.203 731.988 848.203 732.418C848.203 732.848 847.773 733.492 846.914 734.352C846.914 734.352 846.699 734.781 846.27 735.641C845.84 736.5 845.625 737.789 845.625 739.508C844.766 741.227 843.906 743.16 843.047 745.309C842.188 747.457 841.328 749.82 840.469 752.398C840.469 754.117 840.039 755.836 839.18 757.555C838.32 759.273 837.461 760.992 836.602 762.711C835.742 765.289 835.098 767.438 834.668 769.156C834.238 770.875 833.594 772.594 832.734 774.312C831.875 776.891 830.801 779.684 829.512 782.691C828.223 785.699 827.148 788.492 826.289 791.07C826.289 792.789 825.859 794.078 825 794.938C824.141 795.797 823.711 796.656 823.711 797.516C823.711 796.656 823.496 796.012 823.066 795.582C822.637 795.152 822.422 794.938 822.422 794.938C821.562 793.219 820.918 791.5 820.488 789.781C820.059 788.062 819.414 785.914 818.555 783.336C817.695 781.617 817.051 779.898 816.621 778.18C816.191 776.461 815.547 774.742 814.688 773.023C813.828 771.305 813.184 769.371 812.754 767.223C812.324 765.074 811.68 763.141 810.82 761.422C810.82 759.703 810.391 757.77 809.531 755.621C808.672 753.473 807.812 751.539 806.953 749.82C806.953 748.102 806.738 746.598 806.309 745.309C805.879 744.02 805.234 742.516 804.375 740.797C804.375 739.078 803.945 737.359 803.086 735.641C802.227 733.922 801.367 732.203 800.508 730.484C800.508 727.906 800.078 725.758 799.219 724.039C798.359 722.32 797.93 720.602 797.93 718.883C797.07 715.445 795.996 712.438 794.707 709.859C793.418 707.281 792.344 704.703 791.484 702.125C790.625 699.547 789.766 696.754 788.906 693.746C788.047 690.738 787.188 687.945 786.328 685.367C785.469 682.789 784.609 680.426 783.75 678.277C782.891 676.129 782.461 674.195 782.461 672.477C781.602 670.758 780.742 670.113 779.883 670.543C779.023 670.973 778.594 671.188 778.594 671.188C777.734 672.047 776.875 672.477 776.016 672.477C775.156 672.477 774.297 672.906 773.438 673.766H774.727C769.57 676.344 764.199 679.352 758.613 682.789C753.027 686.227 747.227 689.234 741.211 691.812H739.922C733.906 694.391 728.105 696.969 722.52 699.547C716.934 702.125 711.133 704.703 705.117 707.281C701.68 708.141 698.242 709 694.805 709.859C691.367 710.719 687.93 712.008 684.492 713.727C681.914 714.586 679.336 715.445 676.758 716.305C674.18 717.164 672.031 718.023 670.312 718.883V717.594C665.156 720.172 660.859 723.395 657.422 727.262C653.984 731.129 650.977 735.211 648.398 739.508C646.68 742.086 645.176 744.879 643.887 747.887C642.598 750.895 641.953 754.117 641.953 757.555H640.664C640.664 760.133 640.449 762.496 640.02 764.645C639.59 766.793 639.375 769.156 639.375 771.734C639.375 779.469 639.375 786.988 639.375 794.293C639.375 801.598 639.375 809.117 639.375 816.852C639.375 819.43 639.59 822.438 640.02 825.875C640.449 829.312 641.094 832.32 641.953 834.898C641.953 835.758 642.383 836.832 643.242 838.121C644.102 839.41 644.961 840.484 645.82 841.344C646.68 842.203 647.324 842.848 647.754 843.277C648.184 843.707 648.828 843.922 649.688 843.922C653.125 845.641 657.637 848.004 663.223 851.012C668.809 854.02 673.75 856.383 678.047 858.102C679.766 858.961 681.699 859.605 683.848 860.035C685.996 860.465 687.93 861.109 689.648 861.969C691.367 862.828 693.516 863.688 696.094 864.547C698.672 865.406 700.82 866.266 702.539 867.125L712.852 869.703C715.43 870.562 717.793 871.422 719.941 872.281C722.09 873.141 724.023 873.57 725.742 873.57C727.461 874.43 729.18 875.074 730.898 875.504C732.617 875.934 734.336 876.578 736.055 877.438C737.773 877.438 739.707 877.652 741.855 878.082C744.004 878.512 745.938 879.156 747.656 880.016C749.375 880.016 750.879 880.23 752.168 880.66C753.457 881.09 754.961 881.305 756.68 881.305C757.539 882.164 758.828 882.809 760.547 883.238C762.266 883.668 763.984 883.883 765.703 883.883C767.422 883.883 769.355 884.098 771.504 884.527C773.652 884.957 775.586 885.172 777.305 885.172C779.023 886.031 780.957 886.676 783.105 887.105C785.254 887.535 787.617 887.75 790.195 887.75C791.914 887.75 793.848 887.965 795.996 888.395C798.145 888.824 800.078 889.039 801.797 889.039C805.234 889.898 808.242 890.328 810.82 890.328C813.398 890.328 815.977 890.328 818.555 890.328C821.133 891.188 823.281 891.617 825 891.617C826.719 891.617 828.438 891.617 830.156 891.617C834.453 891.617 838.535 891.617 842.402 891.617C846.27 891.617 849.922 892.047 853.359 892.906C855.078 892.906 856.582 892.906 857.871 892.906C859.16 892.906 860.664 892.906 862.383 892.906C864.961 892.906 867.539 892.906 870.117 892.906C872.695 892.906 875.273 892.477 877.852 891.617H876.562C879.141 891.617 881.719 891.617 884.297 891.617C886.875 891.617 889.453 891.617 892.031 891.617C894.609 890.758 896.973 890.328 899.121 890.328C901.27 890.328 903.203 890.328 904.922 890.328C906.641 890.328 908.789 890.113 911.367 889.684C913.945 889.254 916.094 889.039 917.812 889.039H919.102C921.68 889.039 924.258 888.824 926.836 888.395C929.414 887.965 931.992 887.75 934.57 887.75C936.289 886.891 937.793 886.461 939.082 886.461C940.371 886.461 941.445 886.461 942.305 886.461C943.164 886.461 944.238 886.246 945.527 885.816C946.816 885.387 947.891 885.172 948.75 885.172C950.469 884.312 952.188 883.883 953.906 883.883C955.625 883.883 957.344 883.453 959.062 882.594C960.781 882.594 962.285 882.379 963.574 881.949C964.863 881.52 966.367 881.305 968.086 881.305C970.664 880.445 973.457 879.586 976.465 878.727C979.473 877.867 982.266 877.438 984.844 877.438C986.562 876.578 988.066 876.148 989.355 876.148C990.645 876.148 991.719 875.719 992.578 874.859H991.289C993.867 874.859 996.445 874.43 999.023 873.57C1001.6 872.711 1004.18 871.852 1006.76 870.992L1019.65 867.125C1022.23 866.266 1024.59 865.406 1026.74 864.547C1028.89 863.688 1031.25 862.828 1033.83 861.969C1037.27 860.25 1040.49 858.746 1043.5 857.457C1046.5 856.168 1049.3 855.094 1051.88 854.234C1056.17 851.656 1060.04 849.508 1063.48 847.789C1066.91 846.07 1070.35 844.352 1073.79 842.633L1072.5 843.922C1073.36 843.062 1074.43 842.203 1075.72 841.344C1077.01 840.484 1078.09 839.625 1078.95 838.766C1079.8 837.047 1080.45 835.113 1080.88 832.965C1081.31 830.816 1081.52 828.453 1081.52 825.875C1081.52 824.156 1081.52 822.223 1081.52 820.074C1081.52 817.926 1081.52 815.562 1081.52 812.984C1082.38 810.406 1082.81 807.613 1082.81 804.605C1082.81 801.598 1082.81 798.375 1082.81 794.938C1082.81 791.5 1082.81 788.062 1082.81 784.625C1082.81 781.188 1082.38 777.75 1081.52 774.312V775.602ZM756.68 499.742V511.344C756.68 512.203 756.68 513.062 756.68 513.922C756.68 514.781 756.68 515.641 756.68 516.5C756.68 520.797 756.895 525.309 757.324 530.035C757.754 534.762 758.398 539.273 759.258 543.57V542.281C760.117 544.859 760.762 547.223 761.191 549.371C761.621 551.52 761.836 553.883 761.836 556.461C763.555 563.336 765.703 569.781 768.281 575.797C770.859 581.812 773.867 587.828 777.305 593.844V592.555C780.742 598.57 784.395 603.727 788.262 608.023C792.129 612.32 796.641 616.617 801.797 620.914C805.234 623.492 808.887 625.641 812.754 627.359C816.621 629.078 820.703 630.797 825 632.516C827.578 634.234 830.371 635.309 833.379 635.738C836.387 636.168 839.609 636.812 843.047 637.672C845.625 637.672 848.203 637.672 850.781 637.672C853.359 637.672 855.508 637.672 857.227 637.672C862.383 637.672 867.109 637.457 871.406 637.027C875.703 636.598 880 636.383 884.297 636.383H883.008C883.867 636.383 884.727 636.168 885.586 635.738C886.445 635.309 887.305 635.094 888.164 635.094C890.742 634.234 893.32 633.375 895.898 632.516C898.477 631.656 900.625 630.797 902.344 629.938C907.5 627.359 912.441 624.566 917.168 621.559C921.895 618.551 926.406 614.898 930.703 610.602C933.281 607.164 935.859 603.727 938.438 600.289C941.016 596.852 943.164 593.414 944.883 589.977C947.461 585.68 949.609 581.383 951.328 577.086C953.047 572.789 954.766 568.062 956.484 562.906V561.617C957.344 559.898 957.988 557.965 958.418 555.816C958.848 553.668 959.492 551.734 960.352 550.016C960.352 548.297 960.781 545.934 961.641 542.926C962.5 539.918 962.93 537.125 962.93 534.547C962.93 531.969 963.145 529.176 963.574 526.168C964.004 523.16 964.219 520.367 964.219 517.789C964.219 514.352 964.219 510.914 964.219 507.477C964.219 504.039 964.219 500.602 964.219 497.164C964.219 496.305 964.219 495.445 964.219 494.586C964.219 493.727 964.219 493.297 964.219 493.297C964.219 489.859 964.219 486.422 964.219 482.984C964.219 479.547 964.219 476.539 964.219 473.961C963.359 471.383 962.93 468.59 962.93 465.582C962.93 462.574 962.5 459.352 961.641 455.914C960.781 454.195 960.137 452.047 959.707 449.469C959.277 446.891 958.633 444.742 957.773 443.023C956.914 439.586 956.055 436.578 955.195 434C954.336 431.422 953.047 428.844 951.328 426.266H952.617C950.898 423.688 949.18 420.895 947.461 417.887C945.742 414.879 944.023 412.086 942.305 409.508C937.148 403.492 931.562 398.121 925.547 393.395C919.531 388.668 912.656 385.016 904.922 382.438C903.203 380.719 900.84 379.43 897.832 378.57C894.824 377.711 892.031 377.281 889.453 377.281L888.164 375.992C886.445 375.992 884.297 375.777 881.719 375.348C879.141 374.918 876.562 374.703 873.984 374.703H872.695C870.977 373.844 869.043 373.414 866.895 373.414C864.746 373.414 862.812 373.414 861.094 373.414C860.234 373.414 859.59 373.414 859.16 373.414C858.73 373.414 858.086 373.414 857.227 373.414C855.508 373.414 854.219 373.414 853.359 373.414C852.5 373.414 851.211 373.414 849.492 373.414C846.914 373.414 844.551 373.629 842.402 374.059C840.254 374.488 837.891 375.133 835.312 375.992H836.602C834.883 375.992 832.949 376.207 830.801 376.637C828.652 377.066 826.719 377.711 825 378.57C821.562 379.43 818.34 380.504 815.332 381.793C812.324 383.082 809.531 384.586 806.953 386.305L808.242 385.016C805.664 386.734 803.301 388.238 801.152 389.527C799.004 390.816 796.641 392.32 794.062 394.039L795.352 392.75C791.914 395.328 788.906 398.121 786.328 401.129C783.75 404.137 781.172 407.359 778.594 410.797C774.297 415.953 770.859 421.324 768.281 426.91C765.703 432.496 763.555 438.297 761.836 444.312L760.547 445.602C760.547 448.18 760.117 450.758 759.258 453.336C758.398 455.914 757.969 458.492 757.969 461.07V462.359C757.969 464.078 757.754 466.012 757.324 468.16C756.895 470.309 756.68 472.672 756.68 475.25C756.68 479.547 756.68 483.629 756.68 487.496C756.68 491.363 756.68 495.445 756.68 499.742ZM947.461 308.961C931.992 308.961 916.309 308.961 900.41 308.961C884.512 308.961 868.828 308.961 853.359 308.961C848.203 308.961 843.477 307.242 839.18 303.805C834.883 300.367 831.875 296.5 830.156 292.203V290.914C830.156 290.055 829.941 288.98 829.512 287.691C829.082 286.402 828.867 285.328 828.867 284.469C828.867 280.172 829.941 276.305 832.09 272.867C834.238 269.43 837.031 266.422 840.469 263.844C842.188 262.984 844.336 262.125 846.914 261.266C849.492 260.406 852.07 259.977 854.648 259.977C854.648 259.977 854.863 259.977 855.293 259.977C855.723 259.977 855.938 259.977 855.938 259.977C916.953 259.977 977.969 259.977 1038.98 259.977C1046.72 259.977 1053.16 262.34 1058.32 267.066C1063.48 271.793 1066.05 277.594 1066.05 284.469C1066.05 291.344 1063.48 296.93 1058.32 301.227C1053.16 305.523 1046.72 308.102 1038.98 308.961C1023.52 308.961 1008.26 308.961 993.223 308.961C978.184 308.961 962.93 308.961 947.461 308.961ZM883.008 212.281C858.945 212.281 834.883 212.281 810.82 212.281C786.758 212.281 762.695 212.281 738.633 212.281C724.023 211.422 712.852 207.984 705.117 201.969C697.383 195.953 693.945 188.219 694.805 178.766C695.664 171.891 698.887 166.09 704.473 161.363C710.059 156.637 717.148 153.844 725.742 152.984C727.461 152.125 729.395 151.695 731.543 151.695C733.691 151.695 735.625 151.695 737.344 151.695C737.344 151.695 737.559 151.695 737.988 151.695C738.418 151.695 738.633 151.695 738.633 151.695H1029.96C1042.85 151.695 1053.16 154.273 1060.9 159.43C1068.63 164.586 1072.93 171.461 1073.79 180.055C1073.79 188.648 1070.78 195.738 1064.77 201.324C1058.75 206.91 1050.16 210.133 1038.98 210.992C1027.81 211.852 1016.43 212.281 1004.82 212.281C993.223 212.281 981.836 212.281 970.664 212.281C941.445 212.281 912.227 212.281 883.008 212.281Z" fill="#64728C"/>
</g>
<defs>
<clipPath id="clip0_42_1248">
<rect width="1320" height="1259" fill="white"/>
</clipPath>
</defs>
</svg>
