<svg width="1133" height="1404" viewBox="0 0 1133 1404" fill="none" xmlns="http://www.w3.org/2000/svg">
<g clip-path="url(#clip0_25_267)">
<g clip-path="url(#clip1_25_267)">
<path d="M396.372 0.219238C390.885 4.09547 385.398 4.8634 379.91 0.219238H396.372Z" fill="black"/>
<path d="M1132.53 191.544C1132.16 117.347 1099.2 60.2644 1035.36 21.2827C1013.34 7.8256 989.305 2.26723 964.099 0.219409H396.374C393.749 1.31614 390.928 1.86256 388.083 1.82482C385.239 1.78708 382.433 1.16598 379.838 0L374.278 0C373.218 0.805699 371.947 1.28823 370.62 1.38959C326.94 1.38959 289.699 19.1252 256.482 45.2714C197.95 91.4205 141.283 139.691 84.5436 187.887C30.4745 234.037 1.02553 293.899 0.769455 364.402C-0.474354 648.94 0.00121979 933.477 0.476794 1218.01C0.287377 1257.7 13.1401 1296.34 37.0594 1328.01C69.2887 1371.09 110.773 1399.39 165.977 1404H964.172C978.367 1401.07 993 1401.59 1006.94 1396.39C1044.02 1382.46 1075.95 1357.53 1098.44 1324.94C1120.93 1292.35 1132.92 1253.66 1132.78 1214.06V698.672C1132.78 529.654 1133.37 360.599 1132.53 191.544ZM1034.3 702.768V1208.47C1034.3 1257.84 1009.35 1293.45 966.404 1306.18C956.309 1309.07 945.845 1310.46 935.345 1310.31H196.377C138.686 1310.31 98.1524 1269.79 98.1524 1211.94C98.006 931.587 98.006 651.097 98.1524 370.473C98.1524 326.042 115.09 288.852 149.368 260.183C202.449 216.301 256.006 172.675 309.051 128.537C336.47 105.317 371.38 92.8193 407.312 93.3587C582.323 93.6512 757.347 93.8218 932.382 93.8706C995.085 93.8706 1034.08 132.889 1034.12 195.567C1034.34 364.658 1034.4 533.725 1034.3 702.768Z" fill="#64728C"/>
<path d="M848.718 1029.72H566.41C472.27 1029.72 378.143 1029.72 284.028 1029.72C255.384 1029.72 234.276 1049.43 234.313 1076.57C234.349 1103.7 255.274 1123.56 284.065 1123.56H848.718C877.545 1123.56 898.433 1103.74 898.433 1076.53C898.433 1049.33 877.435 1029.72 848.718 1029.72Z" fill="#64728C"/>
<path d="M291.016 889.229H570.69H850.254C878.46 889.229 898.617 869.483 898.617 842.641V841.727C898.555 835.624 897.29 829.592 894.896 823.977C892.502 818.361 889.024 813.273 884.663 809.001C880.301 804.729 875.14 801.358 869.475 799.08C863.809 796.802 857.751 795.662 851.645 795.725H291.053C284.708 795.649 278.413 796.851 272.542 799.258C266.671 801.665 261.345 805.228 256.881 809.736C252.416 814.243 248.904 819.602 246.554 825.494C244.205 831.386 243.065 837.69 243.203 844.031C243.364 850.14 244.729 856.157 247.221 861.738C249.713 867.318 253.282 872.352 257.724 876.551C262.166 880.75 267.393 884.031 273.106 886.207C278.819 888.382 284.905 889.41 291.016 889.229Z" fill="#64728C"/>
<path d="M716.727 636.616C722.522 644.3 730.57 649.987 739.75 652.884C748.93 655.781 758.785 655.744 767.943 652.779C777.201 649.986 785.315 644.29 791.086 636.533C796.856 628.775 799.978 619.368 799.989 609.702C800.245 561.797 799.989 513.856 799.989 465.915H800.428V324.835C800.428 297.336 781.186 277.297 755.029 276.748H752.578C740.278 276.941 728.558 282.005 719.991 290.829C711.424 299.654 706.711 311.516 706.887 323.811C706.667 417.865 706.887 511.918 706.887 605.972C706.662 616.997 710.125 627.781 716.727 636.616Z" fill="#64728C"/>
<path d="M566.632 655.266C593.154 654.973 612.909 633.581 612.909 604.546V427.848C612.909 400.202 592.495 379.102 566.339 378.92C540.182 378.737 519.477 399.8 519.477 427.373V516.453C519.477 545.707 519.477 574.962 519.477 604.216C519.696 634.056 540.109 655.558 566.632 655.266Z" fill="#64728C"/>
<path d="M334.844 623.525C342.16 644.04 363.232 657.679 383.938 655.01C395.424 653.739 406.037 648.274 413.74 639.663C421.443 631.052 425.694 619.901 425.678 608.349C426.337 584.214 425.678 560.006 425.678 535.834H425.971C425.971 512.211 426.227 488.296 425.971 464.672C425.642 436.917 405.558 416.585 378.78 416.658C352.001 416.732 332.137 437.21 332.137 465.075C332.283 510.663 332.356 556.276 332.356 601.913C331.955 609.206 332.797 616.514 334.844 623.525Z" fill="#64728C"/>
</g>
</g>
<defs>
<clipPath id="clip0_25_267">
<rect width="1133" height="1404" fill="white"/>
</clipPath>
<clipPath id="clip1_25_267">
<rect width="1133" height="1404" fill="white"/>
</clipPath>
</defs>
</svg>
