<svg width="1275" height="1275" viewBox="0 0 1275 1275" fill="none" xmlns="http://www.w3.org/2000/svg">
<g clip-path="url(#clip0_25_167)">
<path d="M936.328 74.707C867.142 74.707 803.711 96.6311 747.8 139.871C694.198 181.326 658.51 234.127 637.5 272.521C616.49 234.124 580.802 181.326 527.2 139.871C471.289 96.6311 407.858 74.707 338.672 74.707C145.599 74.707 0 232.63 0 442.051C0 668.299 181.645 823.095 456.632 1057.43C503.329 1097.23 556.259 1142.34 611.273 1190.45C618.524 1196.8 627.838 1200.29 637.5 1200.29C647.162 1200.29 656.476 1196.8 663.727 1190.45C718.746 1142.33 771.674 1097.23 818.398 1057.41C1093.35 823.095 1275 668.299 1275 442.051C1275 232.63 1129.4 74.707 936.328 74.707Z" fill="#64728C"/>
</g>
<defs>
<clipPath id="clip0_25_167">
<rect width="1275" height="1275" fill="white"/>
</clipPath>
</defs>
</svg>
