<svg width="1274" height="1274" viewBox="0 0 1274 1274" fill="none" xmlns="http://www.w3.org/2000/svg">
<g clip-path="url(#clip0_42_1255)">
<path d="M700.125 446.071V317.547H574.59V446.071H700.125ZM700.125 957.175V574.594H574.59V957.175H700.125ZM637.358 0.722412C725.032 0.722412 807.726 17.1615 885.437 50.0396C963.149 83.9139 1030.65 129.495 1087.94 186.782C1145.22 244.07 1190.8 311.57 1224.68 389.281C1257.56 465.997 1274 548.69 1274 637.361C1274 725.036 1257.56 807.729 1224.68 885.441C1190.8 963.153 1145.22 1030.65 1087.94 1087.94C1030.65 1145.23 963.149 1190.81 885.437 1224.68C808.722 1257.56 726.029 1274 637.358 1274C549.683 1274 466.989 1257.56 389.278 1224.68C311.566 1190.81 244.066 1145.23 186.779 1087.94C129.491 1030.65 83.9102 963.153 50.0358 885.441C17.1578 808.726 0.71875 726.032 0.71875 637.361C0.71875 549.686 17.1578 466.993 50.0358 389.281C83.9102 311.57 129.491 244.07 186.779 186.782C244.066 129.495 311.566 83.9139 389.278 50.0396C465.993 17.1615 548.686 0.722412 637.358 0.722412Z" fill="#64728C"/>
</g>
<defs>
<clipPath id="clip0_42_1255">
<rect width="1274" height="1274" fill="white"/>
</clipPath>
</defs>
</svg>
