<svg width="1275" height="1275" viewBox="0 0 1275 1275" fill="none" xmlns="http://www.w3.org/2000/svg">
<g clip-path="url(#clip0_40_849)">
<path d="M1084.31 190.687C969.635 76.0153 812.258 4.83984 637.483 4.83984C287.933 4.83984 5.60352 287.96 5.60352 637.51C5.60352 987.061 287.933 1270.18 637.483 1270.18C932.466 1270.18 1178.42 1068.52 1248.8 795.678H1084.31C1019.46 979.943 843.892 1112.01 637.483 1112.01C375.716 1112.01 162.98 899.278 162.98 637.51C162.98 375.743 375.716 163.007 637.483 163.007C768.762 163.007 885.806 217.575 971.217 303.777L716.567 558.427H1270.15V4.83984L1084.31 190.687Z" fill="#64728C"/>
</g>
<defs>
<clipPath id="clip0_40_849">
<rect width="1275" height="1275" fill="white"/>
</clipPath>
</defs>
</svg>
