<svg width="1230" height="1406" viewBox="0 0 1230 1406" fill="none" xmlns="http://www.w3.org/2000/svg">
<g clip-path="url(#clip0_39_617)">
<path fill-rule="evenodd" clip-rule="evenodd" d="M395.305 834.473C395.305 822.823 399.932 811.651 408.168 803.416C416.405 795.181 427.576 790.553 439.224 790.553H790.582C802.231 790.553 813.403 795.181 821.638 803.416C829.873 811.651 834.501 822.823 834.501 834.473C834.501 846.123 829.873 857.295 821.638 865.53C813.403 873.764 802.231 878.393 790.582 878.393H439.224C427.576 878.393 416.405 873.764 408.168 865.53C399.932 857.295 395.305 846.123 395.305 834.473Z" fill="#64728C"/>
<path fill-rule="evenodd" clip-rule="evenodd" d="M395.305 658.792C395.305 647.143 399.932 635.97 408.168 627.736C416.405 619.501 427.576 614.873 439.224 614.873H790.582C802.231 614.873 813.403 619.501 821.638 627.736C829.873 635.97 834.501 647.143 834.501 658.792C834.501 670.442 829.873 681.614 821.638 689.849C813.403 698.084 802.231 702.712 790.582 702.712H439.224C427.576 702.712 416.405 698.084 408.168 689.849C399.932 681.614 395.305 670.442 395.305 658.792Z" fill="#64728C"/>
<path fill-rule="evenodd" clip-rule="evenodd" d="M395.305 1010.15C395.305 998.504 399.932 987.332 408.168 979.097C416.405 970.862 427.576 966.234 439.224 966.234H790.582C802.231 966.234 813.403 970.862 821.638 979.097C829.873 987.332 834.501 998.504 834.501 1010.15C834.501 1021.8 829.873 1032.98 821.638 1041.21C813.403 1049.45 802.231 1054.07 790.582 1054.07H439.224C427.576 1054.07 416.405 1049.45 408.168 1041.21C399.932 1032.98 395.305 1021.8 395.305 1010.15Z" fill="#64728C"/>
<path d="M263.518 131.761H175.679C129.086 131.761 84.4009 150.27 51.4552 183.216C18.5088 216.162 0 260.847 0 307.439V1229.75C0 1276.35 18.5088 1321.03 51.4552 1353.97C84.4009 1386.92 129.086 1405.43 175.679 1405.43H1054.07C1100.66 1405.43 1145.35 1386.92 1178.29 1353.97C1211.24 1321.03 1229.75 1276.35 1229.75 1229.75V307.439C1229.75 260.847 1211.24 216.162 1178.29 183.216C1145.35 150.27 1100.66 131.761 1054.07 131.761H966.232V219.6H1054.07C1077.37 219.6 1099.71 228.854 1116.18 245.328C1132.65 261.801 1141.91 284.143 1141.91 307.439V1229.75C1141.91 1253.05 1132.65 1275.39 1116.18 1291.87C1099.71 1308.34 1077.37 1317.59 1054.07 1317.59H175.679C152.382 1317.59 130.04 1308.34 113.567 1291.87C97.0937 1275.39 87.8393 1253.05 87.8393 1229.75V307.439C87.8393 284.143 97.0937 261.801 113.567 245.328C130.04 228.854 152.382 219.6 175.679 219.6H263.518V131.761Z" fill="#64728C"/>
<path d="M746.644 87.8393C758.294 87.8393 769.466 92.4668 777.701 100.703C785.936 108.939 790.564 120.111 790.564 131.759V219.598C790.564 231.246 785.936 242.418 777.701 250.654C769.466 258.89 758.294 263.518 746.644 263.518H483.126C471.476 263.518 460.307 258.89 452.07 250.654C443.834 242.418 439.206 231.246 439.206 219.598V131.759C439.206 120.111 443.834 108.939 452.07 100.703C460.307 92.4668 471.476 87.8393 483.126 87.8393H746.644ZM483.126 0C448.181 0 414.668 13.8817 389.958 38.5913C365.249 63.3008 351.367 96.8143 351.367 131.759V219.598C351.367 254.543 365.249 288.056 389.958 312.766C414.668 337.475 448.181 351.357 483.126 351.357H746.644C781.588 351.357 815.104 337.475 839.814 312.766C864.519 288.056 878.403 254.543 878.403 219.598V131.759C878.403 96.8143 864.519 63.3008 839.814 38.5913C815.104 13.8817 781.588 0 746.644 0H483.126Z" fill="#64728C"/>
</g>
<defs>
<clipPath id="clip0_39_617">
<rect width="1230" height="1406" fill="white"/>
</clipPath>
</defs>
</svg>
