<svg width="1225" height="1468" viewBox="0 0 1225 1468" fill="none" xmlns="http://www.w3.org/2000/svg">
<g clip-path="url(#clip0_4_276)">
<path d="M722.563 131.99L685.071 169.49L598.5 256.08C353.5 197.58 136.333 417.589 136.333 663.042C136.333 822.586 269.257 1033.95 545.332 1286.22C821.406 1033.95 1001 779.58 935.3 623.624V616.806L1058 494.08C1066.86 534.989 1090.66 618.042 1090.66 663.042C1090.66 889.403 908.659 1157.36 545.332 1467.58C182.004 1157.36 0 889.403 0 663.042C0 323.499 259.033 103.956 545.332 103.956C584.868 103.956 684.39 123.809 722.563 131.99Z" fill="#64728C"/>
<path d="M463.667 700.12V761.913H525.46L984.093 303.279L952.705 272.975L952.654 272.926L952.605 272.875L922.3 241.486L463.667 700.12ZM1221 169.514C1221 182.607 1218.74 195.128 1214.21 207.05C1209.63 219.078 1202.41 229.993 1192.61 239.792L596.212 836.191C587.158 845.245 576.648 852.244 564.712 857.177C552.765 862.113 540.222 864.58 527.116 864.58H412.333C397.912 864.58 385.643 859.65 375.799 849.771C365.963 839.901 361.034 827.64 361 813.256V698.464C361 685.327 363.466 672.768 368.403 660.82C373.336 648.884 380.335 638.389 389.391 629.365L986.975 32.9658L987.034 32.9053L987.097 32.8477C996.896 23.8653 1007.75 16.9019 1019.65 11.9834C1031.6 7.04666 1044.14 4.58008 1057.25 4.58008C1070.36 4.58008 1083.09 7.04632 1095.42 11.9648C1107.81 16.9109 1118.55 24.3357 1127.59 34.2109L1192.56 100.367C1202.45 109.455 1209.69 120.225 1214.23 132.641C1218.7 144.882 1220.97 157.176 1221 169.503V169.514Z" fill="#64728C" stroke="#64728C" stroke-width="8"/>
</g>
<defs>
<clipPath id="clip0_4_276">
<rect width="1225" height="1468" fill="white"/>
</clipPath>
</defs>
</svg>
