<svg width="1328" height="1275" viewBox="0 0 1328 1275" fill="none" xmlns="http://www.w3.org/2000/svg">
<g clip-path="url(#clip0_25_243)">
<g clip-path="url(#clip1_25_243)">
<path d="M1282.02 797.252C1279 798.232 1279.53 801.246 1278.55 803.356C1274.07 813.923 1266.13 822.658 1256.04 828.133C1245.95 833.608 1234.3 835.499 1222.99 833.497C1211.27 831.356 1200.71 825.083 1193.22 815.818C1185.74 806.554 1181.83 794.912 1182.21 783.01C1182.21 678.418 1182.21 573.825 1182.21 469.158C1182.21 456.574 1179.42 453.258 1166.3 453.258C876.766 453.61 587.208 453.61 297.626 453.258C270.185 453.258 251.866 442.332 243.875 421.383C241.16 414.097 240.194 406.274 241.055 398.546C241.917 390.819 244.582 383.401 248.836 376.891C253.089 370.381 258.813 364.96 265.546 361.065C272.279 357.171 279.833 354.911 287.599 354.468C291.746 354.468 295.892 354.468 300.038 354.468C589.671 354.468 879.254 354.468 1168.79 354.468C1179.79 354.468 1183.11 351.906 1182.13 341.13C1181.15 330.355 1182.13 318.901 1182.13 307.748C1182.13 275.873 1161.17 255.377 1128.91 255H650.884C616.358 255 581.831 255 547.304 255C513.908 255 493.705 235.031 493.102 202.252C493.148 188.953 490.518 175.78 485.367 163.518C480.217 151.256 472.651 140.154 463.121 130.874C453.591 121.594 442.291 114.325 429.893 109.499C417.495 104.673 404.252 102.39 390.954 102.784C328.936 102.482 266.944 102.482 204.976 102.784C191.69 102.469 178.477 104.834 166.126 109.737C153.774 114.64 142.538 121.981 133.088 131.321C123.638 140.662 116.168 151.81 111.125 164.101C106.081 176.391 103.567 189.571 103.733 202.855C103.733 456.649 103.733 710.343 103.733 963.936C103.733 1021.36 147.532 1064.08 206.107 1064.08C374.218 1064.08 542.304 1064.08 710.364 1064.08C740.518 1064.08 762.456 1082.02 765.094 1108.77C765.765 1115.69 764.963 1122.68 762.74 1129.28C760.518 1135.88 756.925 1141.93 752.198 1147.04C747.471 1152.14 741.717 1156.2 735.312 1158.93C728.908 1161.66 721.999 1163 715.038 1162.87C663.022 1162.87 611.005 1162.87 558.989 1162.87H205.805C159.426 1163.7 114.219 1148.28 78.0108 1119.3C41.8025 1090.32 16.8735 1049.59 7.54029 1004.18C4.77876 990.867 3.43943 977.302 3.54483 963.71C3.79612 710.368 3.89663 456.95 3.84638 203.457C3.92176 91.4052 92.048 4.21988 205.429 3.91846C266.592 3.91846 327.755 3.91846 388.918 3.91846C483.377 3.91846 558.687 59.6055 585.299 149.127C588.088 158.546 593.817 157.19 600.376 157.19H1128.08C1197.96 157.19 1254.73 197.806 1275.23 261.631C1277.57 269.167 1277.12 276.702 1281.94 283.183L1282.02 797.252Z" fill="#64728C" stroke="#64728C" stroke-miterlimit="10"/>
<path d="M1328 1018.19C1321.29 1028.74 1317.22 1040.8 1306.52 1048.86C1295.51 1057.05 1282.09 1061.37 1268.37 1061.14C1223.14 1061.14 1177.3 1061.14 1131.77 1061.14C1120.09 1061.14 1115.87 1062.88 1116.17 1076.21C1117.22 1121.43 1116.62 1167.47 1116.54 1213.13C1116.54 1250.06 1093.1 1275.6 1059.7 1275.38C1026.31 1275.15 1003.92 1249.68 1003.84 1213.51C1003.84 1166.94 1003.84 1120.3 1003.84 1073.73C1003.84 1063.86 1001.73 1061.07 991.705 1061.22C945.644 1061.82 899.658 1061.22 853.597 1061.22C817.186 1061.22 791.932 1037.18 792.233 1003.42C792.535 969.663 817.864 947.132 853.597 947.057C900.035 947.057 946.548 947.057 993.061 947.057C1001.81 947.057 1003.92 944.871 1003.84 936.055C1003.39 889.034 1003.84 841.937 1003.84 794.84C1003.84 758.746 1026.99 733.125 1059.55 732.748C1092.12 732.371 1116.47 758.218 1116.54 795.067C1116.54 841.636 1116.54 888.205 1116.54 934.849C1116.54 945.022 1119.26 947.207 1128.98 947.057C1172.18 946.529 1215.37 947.961 1258.57 946.454C1293.32 945.324 1316.77 958.661 1328.23 992.42L1328 1018.19Z" fill="#64728C" stroke="#64728C" stroke-miterlimit="10"/>
</g>
</g>
<defs>
<clipPath id="clip0_25_243">
<rect width="1328" height="1275" fill="white"/>
</clipPath>
<clipPath id="clip1_25_243">
<rect width="1328" height="1275" fill="white"/>
</clipPath>
</defs>
</svg>
