<svg width="1240" height="1240" viewBox="0 0 1240 1240" fill="none" xmlns="http://www.w3.org/2000/svg">
<g clip-path="url(#clip0_40_1079)">
<g clip-path="url(#clip1_40_1079)">
<path d="M458.462 55.7812H313.348C223.046 55.7812 177.862 55.7812 143.371 73.3554C113.032 88.8132 88.3835 113.462 72.9257 143.801C55.3516 178.291 55.3516 223.476 55.3516 313.778V926.482C55.3516 1016.78 55.3516 1061.91 72.9257 1096.4C88.3835 1126.74 113.032 1151.43 143.371 1166.89C177.828 1184.45 222.957 1184.45 313.083 1184.45H926.286C1016.41 1184.45 1061.48 1184.45 1095.93 1166.89C1126.27 1151.43 1151 1126.71 1166.46 1096.38C1184.02 1061.92 1184.02 1016.84 1184.02 926.715V781.352M1167.86 475.029V71.9344M1167.86 71.9344H764.766M1167.86 71.9344L603.529 636.267" stroke="#64728C" stroke-width="110" stroke-linecap="round" stroke-linejoin="round"/>
</g>
</g>
<defs>
<clipPath id="clip0_40_1079">
<rect width="1240" height="1240" fill="white"/>
</clipPath>
<clipPath id="clip1_40_1079">
<rect width="1240" height="1240" fill="white"/>
</clipPath>
</defs>
</svg>
