<svg width="1108" height="1364" viewBox="0 0 1108 1364" fill="none" xmlns="http://www.w3.org/2000/svg">
<g clip-path="url(#clip0_25_389)">
<path d="M170.461 1108.02H243.759V1031.31H276.999C329.842 1031.31 374.162 992.959 374.162 940.968C374.162 888.977 331.547 851.476 276.999 851.476H170.461V1107.17V1108.02ZM243.759 972.503V911.137H269.329C286.375 911.137 300.864 922.217 300.864 940.968C300.864 959.719 287.227 971.651 269.329 971.651H243.759V972.503ZM442.347 1108.02H543.772C629.002 1108.02 681.846 1057.73 681.846 978.469C681.846 904.319 629.002 852.328 543.772 852.328H442.347V1108.02ZM515.646 1047.51V911.989H540.362C568.489 911.989 606.842 925.626 606.842 978.469C606.842 1033.87 568.489 1047.51 540.362 1047.51H515.646ZM767.076 1108.02H840.375V1016.82H930.719V958.014H840.375V911.989H943.504V853.18H767.929V1108.87L767.076 1108.02Z" fill="#64728C"/>
<path d="M980.154 1363.69H127.846C57.1046 1363.69 0 1306.59 0 1235.85V127.846C0 57.1046 57.1046 0 127.846 0H732.132C766.225 0 798.612 13.6369 822.477 37.5015L1070.5 285.523C1094.36 309.388 1108 341.775 1108 375.868V1235.85C1108 1306.59 1050.9 1363.69 980.154 1363.69ZM127.846 85.2308C103.982 85.2308 85.2308 103.982 85.2308 127.846V1235.85C85.2308 1259.71 103.982 1278.46 127.846 1278.46H980.154C1004.02 1278.46 1022.77 1259.71 1022.77 1235.85V375.868C1022.84 370.279 1021.74 364.737 1019.53 359.6C1017.33 354.462 1014.08 349.842 1009.98 346.037L761.963 98.0154C754.095 89.986 743.373 85.3909 732.132 85.2308H127.846Z" fill="#64728C"/>
<path d="M1055.15 426.163H807.133C738.096 426.163 681.844 369.911 681.844 300.874V52.8527C681.844 28.9881 700.595 10.2373 724.459 10.2373C748.324 10.2373 767.075 28.9881 767.075 52.8527V300.874C767.075 323.034 784.973 340.933 807.133 340.933H1055.15C1079.02 340.933 1097.77 359.683 1097.77 383.548C1097.77 407.413 1079.02 426.163 1055.15 426.163Z" fill="#64728C"/>
</g>
<defs>
<clipPath id="clip0_25_389">
<rect width="1108" height="1364" fill="white"/>
</clipPath>
</defs>
</svg>
