<svg width="1409" height="1409" viewBox="0 0 1409 1409" fill="none" xmlns="http://www.w3.org/2000/svg">
<g clip-path="url(#clip0_40_1209)">
<path d="M253.18 297.138H828.338C837.511 297.138 845.538 300.578 852.417 307.458C859.297 314.338 862.737 322.364 862.737 331.537C862.737 341.628 859.297 350.113 852.417 356.993C845.538 363.873 837.511 367.313 828.338 367.313H253.18C243.089 367.313 234.604 363.873 227.724 356.993C220.844 350.113 217.404 341.628 217.404 331.537C217.404 322.364 220.844 314.338 227.724 307.458C234.604 300.578 243.089 297.138 253.18 297.138ZM253.18 449.871H828.338C837.511 449.871 845.538 453.311 852.417 460.191C859.297 467.071 862.737 475.556 862.737 485.647C862.737 495.737 859.297 504.222 852.417 511.102C845.538 517.982 837.511 521.422 828.338 521.422H253.18C243.089 521.422 234.604 517.982 227.724 511.102C220.844 504.222 217.404 495.737 217.404 485.647C217.404 475.556 220.844 467.071 227.724 460.191C234.604 453.311 243.089 449.871 253.18 449.871ZM253.18 603.981H828.338C837.511 603.981 845.538 607.42 852.417 614.3C859.297 621.18 862.737 629.665 862.737 639.756C862.737 649.846 859.297 658.332 852.417 665.211C845.538 672.091 837.511 675.531 828.338 675.531H253.18C243.089 675.531 234.604 672.091 227.724 665.211C220.844 658.332 217.404 649.846 217.404 639.756C217.404 629.665 220.844 621.18 227.724 614.3C234.604 607.42 243.089 603.981 253.18 603.981ZM253.18 758.09H540.759H828.338C837.511 758.09 845.538 761.53 852.417 768.41C859.297 775.29 862.737 783.775 862.737 793.865C862.737 803.038 859.297 811.065 852.417 817.945C845.538 824.825 837.511 828.265 828.338 828.265H253.18C243.089 828.265 234.604 824.825 227.724 817.945C220.844 811.065 217.404 803.038 217.404 793.865C217.404 783.775 220.844 775.29 227.724 768.41C234.604 761.53 243.089 758.09 253.18 758.09ZM253.18 367.313H828.338C837.511 367.313 845.538 363.873 852.417 356.993C859.297 350.113 862.737 341.628 862.737 331.537C862.737 322.364 859.297 314.338 852.417 307.458C845.538 300.578 837.511 297.138 828.338 297.138H253.18C243.089 297.138 234.604 300.578 227.724 307.458C220.844 314.338 217.404 322.364 217.404 331.537C217.404 341.628 220.844 350.113 227.724 356.993C234.604 363.873 243.089 367.313 253.18 367.313ZM253.18 521.422H828.338C837.511 521.422 845.538 517.982 852.417 511.102C859.297 504.222 862.737 495.737 862.737 485.647C862.737 475.556 859.297 467.071 852.417 460.191C845.538 453.311 837.511 449.871 828.338 449.871H253.18C243.089 449.871 234.604 453.311 227.724 460.191C220.844 467.071 217.404 475.556 217.404 485.647C217.404 495.737 220.844 504.222 227.724 511.102C234.604 517.982 243.089 521.422 253.18 521.422ZM253.18 675.531H828.338C837.511 675.531 845.538 672.091 852.417 665.211C859.297 658.332 862.737 649.846 862.737 639.756C862.737 629.665 859.297 621.18 852.417 614.3C845.538 607.42 837.511 603.981 828.338 603.981H253.18C243.089 603.981 234.604 607.42 227.724 614.3C220.844 621.18 217.404 629.665 217.404 639.756C217.404 649.846 220.844 658.332 227.724 665.211C234.604 672.091 243.089 675.531 253.18 675.531ZM253.18 828.265H828.338C837.511 828.265 845.538 824.825 852.417 817.945C859.297 811.065 862.737 803.038 862.737 793.865C862.737 783.775 859.297 775.29 852.417 768.41C845.538 761.53 837.511 758.09 828.338 758.09H540.759H253.18C243.089 758.09 234.604 761.53 227.724 768.41C220.844 775.29 217.404 783.775 217.404 793.865C217.404 803.038 220.844 811.065 227.724 817.945C234.604 824.825 243.089 828.265 253.18 828.265ZM1409 583.341C1409 577.837 1408.08 573.021 1406.25 568.893C1404.41 564.765 1401.66 560.867 1397.99 557.197L1301.67 460.879C1298 457.21 1294.11 454.458 1289.98 452.623C1285.85 450.788 1281.49 449.871 1276.91 449.871C1272.32 449.871 1267.73 450.788 1263.15 452.623C1258.56 454.458 1254.43 457.21 1250.76 460.879L1081.52 631.5V108.629C1081.52 99.4558 1077.85 91.2 1070.51 83.8615C1063.17 76.5229 1054.92 72.8536 1045.74 72.8536H35.7754C25.6849 72.8536 17.1997 76.5229 10.3198 83.8615C3.43994 91.2 0 99.4558 0 108.629V1300.22C0 1309.4 3.43994 1317.65 10.3198 1324.99C17.1997 1332.33 25.6849 1336 35.7754 1336H1045.74C1054.92 1336 1063.17 1332.33 1070.51 1324.99C1077.85 1317.65 1081.52 1309.4 1081.52 1300.22V925.959L1397.99 608.108C1401.66 604.439 1404.41 600.541 1406.25 596.413C1408.08 592.285 1409 587.927 1409 583.341ZM71.5508 1264.45V144.404H1009.97V701.675L800.818 910.823H253.18C243.089 910.823 234.604 914.493 227.724 921.831C220.844 929.17 217.404 937.425 217.404 946.599C217.404 956.689 220.844 965.174 227.724 972.054C234.604 978.934 243.089 982.374 253.18 982.374H729.268L723.764 989.254C721.012 991.089 718.948 993.382 717.572 996.134C716.196 998.886 715.049 1002.1 714.132 1005.77L689.364 1106.21H540.759C530.668 1106.21 522.183 1109.65 515.303 1116.53C508.423 1123.41 504.983 1131.9 504.983 1141.99C504.983 1152.08 508.423 1160.56 515.303 1167.44C522.183 1174.32 530.668 1177.76 540.759 1177.76C540.759 1177.76 570.113 1177.76 628.821 1177.76C687.53 1177.76 716.884 1177.76 716.884 1177.76C718.718 1177.76 720.324 1177.53 721.7 1177.07C723.076 1176.62 724.681 1176.39 726.516 1176.39L854.481 1144.74C857.233 1143.82 859.985 1142.68 862.737 1141.3C865.489 1139.92 868.241 1137.86 870.993 1135.11L1009.97 996.134V1264.45H71.5508ZM826.962 1078.69L766.419 1093.83L780.179 1031.91L1276.91 536.558L1323.69 583.341L826.962 1078.69Z" fill="#64728C"/>
<path d="M828.338 758.09C837.511 758.09 845.538 761.53 852.417 768.41C859.297 775.29 862.737 783.775 862.737 793.865C862.737 803.038 859.297 811.065 852.417 817.945C845.538 824.825 837.511 828.265 828.338 828.265H253.18C243.089 828.265 234.604 824.825 227.724 817.945C220.844 811.065 217.404 803.038 217.404 793.865C217.404 783.775 220.844 775.29 227.724 768.41C234.604 761.53 243.089 758.09 253.18 758.09H540.759H828.338Z" fill="#B0B0B0"/>
<path d="M253.18 603.981H828.338C837.511 603.981 845.538 607.42 852.417 614.3C859.297 621.18 862.737 629.665 862.737 639.756C862.737 649.846 859.297 658.332 852.417 665.211C845.538 672.091 837.511 675.531 828.338 675.531H253.18C243.089 675.531 234.604 672.091 227.724 665.211C220.844 658.332 217.404 649.846 217.404 639.756C217.404 629.665 220.844 621.18 227.724 614.3C234.604 607.42 243.089 603.981 253.18 603.981Z" fill="#B0B0B0"/>
<path d="M253.18 297.138H828.338C837.511 297.138 845.538 300.578 852.417 307.458C859.297 314.338 862.737 322.364 862.737 331.537C862.737 341.628 859.297 350.113 852.417 356.993C845.538 363.873 837.511 367.313 828.338 367.313H253.18C243.089 367.313 234.604 363.873 227.724 356.993C220.844 350.113 217.404 341.628 217.404 331.537C217.404 322.364 220.844 314.338 227.724 307.458C234.604 300.578 243.089 297.138 253.18 297.138Z" fill="#B0B0B0"/>
<path d="M253.18 449.871H828.338C837.511 449.871 845.538 453.311 852.417 460.191C859.297 467.071 862.737 475.556 862.737 485.647C862.737 495.737 859.297 504.222 852.417 511.102C845.538 517.982 837.511 521.422 828.338 521.422H253.18C243.089 521.422 234.604 517.982 227.724 511.102C220.844 504.222 217.404 495.737 217.404 485.647C217.404 475.556 220.844 467.071 227.724 460.191C234.604 453.311 243.089 449.871 253.18 449.871Z" fill="#B0B0B0"/>
</g>
<defs>
<clipPath id="clip0_40_1209">
<rect width="1409" height="1409" fill="white"/>
</clipPath>
</defs>
</svg>
