<svg width="1346" height="1196" viewBox="0 0 1346 1196" fill="none" xmlns="http://www.w3.org/2000/svg">
<g clip-path="url(#clip0_25_224)">
<path d="M0.131708 367.03C0.559759 367.03 1.28415 367.03 1.35001 366.635C13.0062 327.123 41.3893 307.696 79.6834 297.982C106.288 291.397 132.004 281.091 158.379 273.32C166.216 270.982 169.377 266.998 171.55 259.523C192.096 194.559 212.972 129.758 233.683 64.8919C250.772 11.2867 294.17 -11.4329 347.512 5.52451C452.329 38.8466 557.147 72.2785 661.965 105.82C669.707 108.505 678.128 108.505 685.87 105.82C789.722 72.5859 893.705 39.5052 997.82 6.57817C1052.51 -10.7414 1094.99 11.4184 1112.54 66.209C1133.15 130.614 1153.86 195.019 1174.08 259.589C1174.79 262.691 1176.35 265.531 1178.59 267.789C1180.83 270.048 1183.66 271.633 1186.76 272.365C1218.86 282.243 1250.93 292.352 1282.84 302.855C1324.06 316.421 1346.98 347.669 1345.4 387.708C1344.65 397.747 1342.55 407.639 1339.14 417.112C1321.1 474.109 1303.15 531.138 1284.81 588.036C1282.52 594.604 1282.52 601.752 1284.81 608.319C1303.15 665.217 1321.03 722.247 1339.24 779.211C1356.49 833.375 1334.2 877.103 1280.27 894.455C1249.55 904.333 1218.79 914.211 1187.88 923.563C1184.35 924.315 1181.11 926.05 1178.53 928.567C1175.95 931.084 1174.13 934.281 1173.29 937.787C1153.14 1002.36 1132.49 1066.76 1111.91 1131.23C1095.02 1184.28 1051.99 1206.97 998.973 1190.14C894.484 1157.21 790.051 1124.08 685.672 1090.73C677.938 1088.07 669.534 1088.07 661.8 1090.73C557.882 1124.02 453.438 1155.76 349.981 1190.44C295.059 1208.81 247.249 1179.87 232.86 1130.25C214.157 1065.48 192.063 1001.47 171.846 936.931C171.132 933.576 169.462 930.501 167.037 928.076C164.612 925.651 161.536 923.98 158.181 923.266C127.658 914.178 97.464 903.971 67.0065 894.653C34.6392 884.775 11.6891 865.611 2.53538 832.091C2.27196 831.104 0.856102 830.412 0 829.589V795.378C0.691467 794.95 1.84391 794.653 2.04148 794.094C22.0392 730.94 42.0039 667.786 61.9357 604.632C63.3571 599.607 63.0557 594.252 61.0796 589.419C48.7978 551.257 36.9112 512.996 24.5306 474.866C16.5952 450.237 10.6354 424.982 0.131708 401.176V367.03ZM1277.37 811.545C1276.55 808.483 1275.66 804.663 1274.47 800.909C1198.85 562.891 1123.2 324.917 1047.51 86.9859C1041.58 68.3493 1036.58 65.9785 1017.41 72.0371L87.52 367.294C68.587 373.319 65.8211 378.489 71.748 397.125C147.085 634.2 222.433 871.274 297.792 1108.35C304.377 1129.32 308.691 1131.4 330.39 1124.48L1095.55 881.581C1150.43 864.129 1205.3 846.678 1260.18 829.227C1269.01 826.461 1276.91 823.168 1277.37 811.413V811.545ZM248.27 244.608L561.076 145.168C479.911 119.386 401.413 94.4275 322.816 69.6993C310.041 65.8468 304.048 69.3371 299.768 83.0676C289.385 115.007 279.133 146.979 269.014 178.984C262.165 200.024 255.645 221.131 248.27 244.608ZM1097.06 952.835L786.89 1051.42L820.014 1061.95C886.483 1083.09 952.974 1104.23 1019.49 1125.37C1034.47 1130.11 1041.61 1127.51 1045.66 1114.87C1062.72 1061.76 1079.41 1008.51 1097.06 952.835ZM101.316 715.135L98.5835 715.299C89.0676 745.131 79.6834 774.996 70.0028 804.795C67.4016 812.829 67.8955 820.764 75.6004 824.189C96.8054 833.573 119.262 839.269 143.068 846.415C128.547 801.008 114.948 758.071 101.316 715.135ZM1202.56 349.019C1217.08 394.689 1230.78 437.922 1244.51 481.089C1256.99 449.842 1267.13 418.528 1276.68 387.083C1277.25 385.383 1277.48 383.584 1277.33 381.795C1277.19 380.006 1276.68 378.266 1275.84 376.681C1274.99 375.096 1273.84 373.7 1272.44 372.579C1271.04 371.457 1269.42 370.633 1267.69 370.158C1246.95 362.914 1225.91 356.526 1202.56 349.019Z" fill="#64728C"/>
<path d="M827.386 311.218C816.487 314.28 805.621 317.507 794.657 320.306C786.158 322.601 777.106 321.599 769.315 317.502C761.523 313.404 755.568 306.514 752.642 298.212C747.439 282.045 756.099 261.992 772.991 256.395C812.679 243.026 852.608 230.36 892.779 218.397C900.743 216.302 909.205 217.318 916.447 221.239C923.688 225.159 929.165 231.69 931.765 239.503C944.936 278.357 957.404 317.43 969.17 356.723C974.241 373.615 963.243 392.746 947.339 397.981C938.907 400.522 929.828 399.803 921.9 395.968C913.973 392.132 907.775 385.459 904.534 377.27C900.254 366.108 896.994 354.55 892.582 341.05C888.861 347.899 885.996 352.739 883.527 357.711L767.064 582.142C753.169 608.944 742.27 614.081 713.327 607.989C667.558 598.408 621.691 589.353 576.087 579.211C566.999 577.203 563.213 579.211 558.669 586.817C510.244 668.806 461.556 750.651 412.604 832.354C411.485 834.231 410.431 836.141 409.312 837.985C397.458 857.181 377.274 863.338 360.152 853.032C343.688 843.154 339.111 822.246 350.274 803.642C405.591 710.502 461.04 617.439 516.621 524.454C525.939 508.846 539.209 502.063 557.483 505.883C606.248 515.991 655.112 525.639 703.811 536.176C710.396 537.624 713.689 536.867 716.982 530.545C753.794 459.159 790.749 387.817 827.847 316.519C828.354 315.321 828.74 314.074 829 312.799C829.296 311.877 829.559 310.988 829.856 310.099L827.386 311.218Z" fill="#64728C"/>
<path d="M922.509 487.576C938.775 487.774 950.892 497.454 956.522 515.07C972.503 565.383 988.374 615.728 1004.13 666.106C1014.01 697.321 1023.89 728.47 1033.44 759.784C1035.99 767.22 1035.88 775.312 1033.12 782.674C1030.36 790.036 1025.13 796.21 1018.32 800.137C1011.51 804.064 1003.54 805.5 995.788 804.199C988.034 802.898 980.974 798.942 975.817 793.007C972.024 788.735 969.273 783.64 967.783 778.124C942.122 697.036 916.56 615.904 891.096 534.727C883.325 509.736 898.735 487.313 922.509 487.576Z" fill="#64728C"/>
<path d="M704.766 872.56C704.766 890.669 692.682 905.487 676.581 908.154C668.302 909.418 659.846 907.617 652.801 903.088C645.755 898.559 640.606 891.614 638.32 883.557C623.173 836.735 608.488 789.781 593.704 742.827C590.502 733.807 587.842 724.604 585.735 715.267C584.158 707.036 585.725 698.512 590.126 691.379C594.528 684.247 601.444 679.024 609.509 676.743C625.972 671.902 644.543 679.838 650.075 696.499C668.612 752.738 686.13 809.307 703.943 865.777C704.476 867.999 704.752 870.275 704.766 872.56Z" fill="#64728C"/>
<path d="M870.033 821.061C870.223 829.38 867.359 837.481 861.983 843.832C856.607 850.184 849.091 854.346 840.855 855.534C832.619 856.721 824.233 854.852 817.282 850.278C810.33 845.704 805.294 838.743 803.126 830.709C789.757 789.221 776.784 747.568 763.91 705.981C762.183 700.786 761.816 695.236 762.842 689.858C763.868 684.481 766.253 679.455 769.771 675.26C785.181 655.208 817.284 656.723 825.747 680.265C842.21 725.211 855.381 771.44 869.638 817.143C869.937 818.427 870.07 819.744 870.033 821.061Z" fill="#64728C"/>
<path d="M539.838 924.748C539.574 942.99 527.786 957.379 512.179 960.408C504.597 961.648 496.817 960.318 490.076 956.632C483.335 952.945 478.019 947.112 474.972 940.059C469.961 927.55 465.932 914.669 462.92 901.535C460.805 892.958 462.147 883.894 466.657 876.299C471.166 868.703 478.481 863.185 487.023 860.936C495.544 858.733 504.587 859.899 512.271 864.191C519.955 868.484 525.689 875.573 528.28 883.985C532.989 897.979 538.685 911.775 539.838 924.748Z" fill="#64728C"/>
<path d="M827.395 311.219L829.864 310.165C829.568 311.054 829.304 311.943 829.008 312.865L827.395 311.219Z" fill="#64728C"/>
</g>
<defs>
<clipPath id="clip0_25_224">
<rect width="1346" height="1196" fill="white"/>
</clipPath>
</defs>
</svg>
