<svg width="1272" height="1272" viewBox="0 0 1272 1272" fill="none" xmlns="http://www.w3.org/2000/svg">
<g clip-path="url(#clip0_25_156)">
<path d="M909.091 800H851.636L831.273 780.364C902.545 697.455 945.455 589.818 945.455 472.727C945.455 211.636 733.818 0 472.727 0C211.636 0 0 211.636 0 472.727C0 733.818 211.636 945.455 472.727 945.455C589.818 945.455 697.455 902.545 780.364 831.273L800 851.636V909.091L1163.64 1272L1272 1163.64L909.091 800ZM472.727 800C291.636 800 145.455 653.818 145.455 472.727C145.455 291.636 291.636 145.455 472.727 145.455C653.818 145.455 800 291.636 800 472.727C800 653.818 653.818 800 472.727 800Z" fill="#64728C"/>
</g>
<defs>
<clipPath id="clip0_25_156">
<rect width="1272" height="1272" fill="white"/>
</clipPath>
</defs>
</svg>
