<svg width="1170" height="1329" viewBox="0 0 1170 1329" fill="none" xmlns="http://www.w3.org/2000/svg">
<g clip-path="url(#clip0_39_644)">
<path d="M1169.99 354.233C1170.23 339.008 1164.52 324.496 1154.05 313.552C1120.51 276.44 1087.68 238.376 1054.85 200.55C998.943 136.793 943.274 73.0353 887.605 9.2781C884.037 5.2338 880.231 1.9032 874.521 1.4274C864.291 1.4274 854.062 1.4274 843.832 1.4274H429.886C418.466 0.7137 407.047 2.8548 395.628 0H359.229C345.907 2.6169 331.871 2.1411 318.786 7.6128C259.311 34.9713 221.485 79.4586 209.352 144.405C206.022 161.772 206.259 161.772 188.893 161.772C162.962 161.772 137.03 163.437 112.289 172.24C46.3905 196.03 0.237897 262.166 0.237897 333.298C0.475797 606.407 0.2379 879.755 0 1152.86C0 1184.5 6.4233 1214 22.8384 1240.65C54.9549 1292.99 98.9665 1328.43 163.199 1328.67C375.406 1328.91 587.613 1328.91 799.82 1328.67C817.187 1328.67 834.316 1326.77 850.493 1319.63C905.448 1295.13 941.847 1254.21 958.262 1195.92C960.879 1186.41 957.548 1173.32 966.826 1167.38C975.391 1161.9 987.048 1165.47 997.515 1165.47C1089.34 1165 1169.99 1084.82 1169.99 992.757C1169.52 780.55 1169.52 567.392 1169.99 354.233ZM874.521 1179.51C867.384 1216.38 842.88 1239.7 805.53 1244.46C798.631 1245.17 791.732 1245.65 784.833 1245.41C583.093 1245.41 381.116 1245.41 179.377 1245.41C123.47 1245.41 87.0714 1208.77 87.0714 1152.86C87.0714 1017.5 87.0714 882.372 87.0714 747.006C87.0714 612.117 87.0714 477.466 87.0714 342.576C87.0714 291.903 105.39 268.113 154.159 255.743C170.574 251.936 187.227 249.795 204.118 249.795C209.59 249.557 212.207 250.747 211.493 256.694C211.255 259.787 211.255 262.642 211.493 265.734C211.493 506.014 212.683 746.293 211.017 986.572C210.304 1073.64 278.343 1150.72 358.991 1161.19C368.031 1162.14 377.072 1162.62 386.112 1162.62C544.315 1162.62 702.519 1162.62 860.723 1162.38C877.852 1162.14 877.852 1162.14 874.521 1179.51ZM915.916 839.312C912.109 857.868 895.932 871.19 877.138 871.904C855.489 872.618 833.84 872.142 812.429 872.142H688.007C626.153 872.142 564.299 872.142 502.683 872.142C484.365 872.142 471.042 863.34 463.905 846.924C457.006 831.223 460.099 816.473 471.042 803.389C480.082 792.921 492.215 789.115 505.776 789.115C533.372 789.115 561.206 789.115 588.803 789.115C681.346 789.115 773.651 789.115 866.194 789.115C872.142 788.877 878.327 789.353 884.275 790.542C906.4 795.538 920.674 817.187 915.916 839.312ZM874.045 664.931C812.191 665.169 750.337 664.931 688.721 664.931C626.867 664.931 565.013 665.169 503.397 664.931C471.28 664.693 451.534 634.48 464.619 606.645C472.945 589.041 487.933 582.142 506.727 582.142C544.315 582.142 581.904 582.142 619.492 582.142C702.519 582.142 785.546 582.142 868.336 582.142C888.081 582.142 904.258 587.851 913.061 606.883C926.145 634.48 906.162 664.693 874.045 664.931ZM952.552 331.633C911.158 329.492 877.138 294.045 875.948 252.412C874.521 197.695 875.71 142.978 875.71 85.1682L1082.68 332.109C1037.72 332.109 995.136 333.774 952.552 331.633Z" fill="#64728C"/>
</g>
<defs>
<clipPath id="clip0_39_644">
<rect width="1170" height="1329" fill="white"/>
</clipPath>
</defs>
</svg>
