<svg width="1275" height="1275" viewBox="0 0 1275 1275" fill="none" xmlns="http://www.w3.org/2000/svg">
<g clip-path="url(#clip0_40_721)">
<g clip-path="url(#clip1_40_721)">
<mask id="mask0_40_721" style="mask-type:luminance" maskUnits="userSpaceOnUse" x="0" y="0" width="1275" height="1275">
<path d="M1275 0H0V1275H1275V0Z" fill="white"/>
</mask>
<g mask="url(#mask0_40_721)">
<path d="M1115.62 -20C1163.2 -20 1208.83 -1.10215 1242.46 32.5381H1242.46C1276.1 66.1779 1295 111.803 1295 159.375V1115.62C1295 1163.2 1276.1 1208.82 1242.46 1242.46L1242.46 1242.46C1208.82 1276.1 1163.2 1295 1115.62 1295H159.375C111.803 1295 66.1779 1276.1 32.5381 1242.46C-1.10191 1208.82 -20 1163.2 -20 1115.62V159.375C-20 111.802 -1.10127 66.1773 32.5381 32.5381C66.1773 -1.10127 111.802 -20 159.375 -20H1115.62ZM159.375 99.6875C143.792 99.6875 128.837 105.781 117.697 116.648L117.17 117.17C105.976 128.363 99.6875 143.545 99.6875 159.375V1115.62C99.6875 1131.45 105.976 1146.64 117.172 1157.83H117.171C128.364 1169.03 143.545 1175.31 159.375 1175.31H1115.62C1131.45 1175.31 1146.64 1169.02 1157.83 1157.83C1169.03 1146.63 1175.31 1131.45 1175.31 1115.62V159.375C1175.31 143.545 1169.03 128.364 1157.83 117.171C1146.64 105.975 1131.45 99.6875 1115.62 99.6875H159.375Z" fill="#64728C" stroke="#64728C" stroke-width="40"/>
<path d="M874.17 396.054C885.324 384.999 900.379 378.777 916.082 378.735C931.785 378.691 946.875 384.83 958.085 395.823C969.3 406.816 975.736 421.781 976.002 437.481C976.272 453.182 970.351 468.357 959.518 479.726L641.406 877.366C635.939 883.257 629.339 887.979 622 891.264C614.667 894.543 606.746 896.308 598.714 896.456C590.676 896.609 582.695 895.135 575.244 892.126C567.792 889.122 561.025 884.644 555.343 878.962L344.568 668.108C338.696 662.636 333.986 656.036 330.719 648.708C327.453 641.374 325.696 633.464 325.555 625.436C325.413 617.414 326.89 609.443 329.895 601.997C332.901 594.556 337.375 587.798 343.051 582.122C348.726 576.446 355.486 571.973 362.928 568.964C370.37 565.96 378.341 564.486 386.366 564.624C394.39 564.767 402.305 566.526 409.636 569.79C416.967 573.059 423.565 577.767 429.037 583.637L595.904 750.422L872.655 397.808C873.15 397.19 873.685 396.604 874.251 396.054H874.17Z" fill="#64728C"/>
</g>
</g>
</g>
<defs>
<clipPath id="clip0_40_721">
<rect width="1275" height="1275" fill="white"/>
</clipPath>
<clipPath id="clip1_40_721">
<rect width="1275" height="1275" fill="white"/>
</clipPath>
</defs>
</svg>
