<svg width="1275" height="1275" viewBox="0 0 1275 1275" fill="none" xmlns="http://www.w3.org/2000/svg">
<g clip-path="url(#clip0_38_544)">
<g clip-path="url(#clip1_38_544)">
<path d="M898.857 -9C904.859 -9 910.936 -6.18506 917.632 -1.7832C924.546 2.76203 933.437 9.91217 945.345 20.4648C969.209 41.6138 1006.35 77.4764 1066.06 136.346L1073.58 143.66C1110.97 180.1 1145.38 214.42 1171.4 240.9C1185.27 255.019 1196.78 266.936 1205.08 275.769C1209.23 280.179 1212.62 283.862 1215.12 286.685C1217.19 289.022 1219.25 291.426 1220.36 293.188L1220.57 293.531L1220.68 293.729L1220.79 293.931C1226.14 304.275 1227.06 316.512 1224.78 327.151C1222.53 337.633 1216.77 348.221 1206.88 353.579L1206.87 353.584C1199.57 357.523 1191.93 361.02 1182.85 360.825C1173.76 360.63 1164.75 356.801 1154.23 349.737C1133.53 335.842 1102.48 306.169 1046.71 251.813L953.57 161.107L950.925 456.812V456.82C950.075 543.817 949.084 623.165 948.233 680.84C947.808 709.675 947.419 733.103 947.1 749.362C946.94 757.488 946.797 763.843 946.677 768.194C946.617 770.363 946.561 772.072 946.51 773.266C946.485 773.85 946.458 774.382 946.428 774.807C946.414 774.999 946.391 775.296 946.353 775.608C946.336 775.741 946.293 776.069 946.209 776.465C946.17 776.648 946.079 777.057 945.906 777.557C945.875 777.648 945.337 779.418 943.752 781.001C943.173 781.579 938.622 786.13 933.42 790.77C924.894 799.449 911.067 802.355 899.261 802.046C887.31 801.733 873.608 798.032 865.566 789.187L865.521 789.137L865.478 789.087C861.553 784.639 859.591 778.572 858.214 769.285C856.812 759.832 855.828 745.444 855.084 722.866C853.591 677.584 853.025 597.812 852.459 455.08L850.871 158.202L755.522 250.127C709.116 295.119 680.54 322.138 661.757 337.898C652.379 345.767 645.086 351.137 638.988 354.554C632.878 357.978 627.501 359.705 622.043 359.763C616.719 360.067 611.127 359.565 606.394 358.697C601.996 357.891 596.872 356.513 593.533 354.288V354.287C585.932 349.395 580.124 340.089 576.621 331.713C574.77 327.287 573.349 322.622 572.598 318.178C571.873 313.889 571.645 309.074 572.854 304.723L572.878 304.635L572.904 304.546C573.29 303.26 573.886 302.239 574.166 301.772C574.528 301.171 574.934 300.58 575.325 300.04C576.112 298.953 577.122 297.686 578.276 296.299C580.603 293.505 583.847 289.837 587.854 285.441C595.888 276.63 607.252 264.607 621.084 250.243C648.762 221.5 686.489 183.207 727.595 142.102L738.896 130.811C794.041 75.7675 828.991 41.7083 851.835 21.209C863.989 10.3022 873.004 2.97037 879.982 -1.66895C886.747 -6.16641 892.834 -8.99986 898.857 -9Z" fill="#64728C" stroke="#64728C" stroke-width="18"/>
<path d="M361.946 484.249C370.471 475.553 384.311 472.643 396.127 472.952C408.077 473.264 421.779 476.965 429.821 485.811L429.866 485.861L429.91 485.911C433.835 490.358 435.797 496.425 437.174 505.712C438.575 515.165 439.559 529.553 440.304 552.131C441.797 597.413 442.362 677.185 442.929 819.917L444.516 1116.8L539.883 1024.85C586.279 979.871 614.851 952.859 633.632 937.1C643.01 929.231 650.303 923.862 656.4 920.445C662.518 917.017 667.9 915.288 673.364 915.234C678.92 914.933 684.513 915.426 689.233 916.306C693.657 917.131 698.568 918.52 701.854 920.71H701.854C709.455 925.602 715.264 934.909 718.767 943.286C720.617 947.711 722.039 952.376 722.79 956.821C723.515 961.109 723.743 965.924 722.534 970.275L722.51 970.364L722.483 970.451C722.098 971.737 721.502 972.759 721.222 973.225C720.86 973.826 720.455 974.417 720.063 974.958C719.276 976.045 718.266 977.313 717.111 978.7C714.785 981.493 711.541 985.162 707.534 989.557C699.501 998.369 688.137 1010.39 674.305 1024.76C646.626 1053.5 608.9 1091.79 567.794 1132.9C506.061 1194.63 467.921 1231.92 443.554 1253.79C431.399 1264.7 422.384 1272.03 415.405 1276.67C408.64 1281.17 402.554 1284 396.53 1284C390.529 1284 384.452 1281.18 377.756 1276.78C370.842 1272.24 361.95 1265.09 350.043 1254.54C326.179 1233.39 289.042 1197.52 229.323 1138.65C189.046 1099.51 151.735 1062.34 123.98 1034.02C110.108 1019.86 98.5925 1007.88 90.2764 998.961C86.124 994.506 82.7233 990.764 80.2109 987.869C78.0511 985.38 75.8329 982.724 74.7393 980.751L74.7373 980.752C57.3241 949.554 81.2375 914.667 116.596 914.667C127.597 914.667 138.11 920.719 155.971 935.767C174.266 951.181 202.287 977.929 248.676 1023.19L341.817 1113.89L344.464 818.186V818.179C345.314 731.194 346.165 651.846 346.944 594.17C347.334 565.336 347.707 541.897 348.053 525.623C348.226 517.493 348.393 511.11 348.554 506.724C348.634 504.545 348.714 502.782 348.799 501.519C348.839 500.912 348.89 500.277 348.959 499.723C348.989 499.482 349.051 499.009 349.173 498.48C349.226 498.248 349.363 497.677 349.641 496.999C349.778 496.663 350.054 496.04 350.53 495.336C350.737 495.031 351.121 494.5 351.716 493.921C352.573 493.064 356.957 488.701 361.946 484.249Z" fill="#64728C" stroke="#64728C" stroke-width="18"/>
</g>
</g>
<defs>
<clipPath id="clip0_38_544">
<rect width="1275" height="1275" fill="white"/>
</clipPath>
<clipPath id="clip1_38_544">
<rect width="1275" height="1275" fill="white"/>
</clipPath>
</defs>
</svg>
