<svg width="1087" height="1358" viewBox="0 0 1087 1358" fill="none" xmlns="http://www.w3.org/2000/svg">
<g clip-path="url(#clip0_25_321)">
<g clip-path="url(#clip1_25_321)">
<path d="M928.018 0C936.486 2.12597 944.99 4.11021 953.387 6.44878C991.178 16.8351 1024.59 39.186 1048.61 70.1537C1072.63 101.121 1085.98 139.039 1086.64 178.227C1087.28 210.117 1086.82 242.006 1086.82 273.683C1086.82 572.855 1086.82 872.038 1086.82 1171.23C1086.82 1262.15 1030.13 1334.22 943.608 1353.82C930.225 1356.73 916.558 1358.14 902.862 1358C663.346 1358 423.829 1358 184.313 1358C80.2157 1358 0.317893 1278.38 0.0698727 1174.14C-0.189958 902.487 -0.189958 630.705 0.0698727 358.793C0.0698727 286.51 28.415 226.841 84.184 180.46C133.398 139.428 182.967 98.964 231.898 57.5075C267.4 27.6022 307.154 8.18499 353.179 2.09054C354.827 1.61317 356.401 0.909623 357.856 0L928.018 0ZM995.94 680.311C995.94 516.351 995.94 352.38 995.94 188.397C995.94 128.444 957.993 90.779 898.043 90.6727C729.248 90.4601 560.394 90.2947 391.481 90.1766C355.874 89.5017 321.244 101.835 294.08 124.865C243.838 166.712 193.206 208.133 142.646 249.589C108.348 277.687 90.7743 314.006 90.7743 358.12C90.5144 629.512 90.5144 900.892 90.7743 1172.26C90.7743 1228.35 130.103 1267.26 186.156 1267.26C424.373 1267.26 662.59 1267.26 900.807 1267.26C910.527 1267.41 920.221 1266.22 929.613 1263.71C971.528 1251.88 996.117 1216.8 996.153 1168.36C996.058 1005.66 995.988 842.971 995.94 680.311Z" fill="#64728C"/>
<path d="M543.056 896.452C634.044 896.452 724.985 896.452 815.878 896.452C843.798 896.452 864.136 915.267 864.171 941.558C864.207 967.849 844.117 987.089 816.162 987.124C738 987.124 659.815 987.124 581.606 987.124C478.264 987.124 374.899 987.124 271.51 987.124C242.492 987.124 221.906 968.487 221.906 941.841C221.906 915.196 242.527 896.452 271.404 896.452C361.943 896.593 452.494 896.593 543.056 896.452Z" fill="#64728C"/>
<path d="M543.055 1079.75C634.043 1079.75 724.984 1079.75 815.877 1079.75C843.797 1079.75 864.135 1098.6 864.17 1124.85C864.206 1151.11 844.116 1170.42 816.161 1170.45C737.999 1170.45 659.814 1170.45 581.605 1170.45H271.651C242.633 1170.45 222.047 1151.82 222.047 1125.17C222.047 1098.52 242.526 1079.78 271.403 1079.82C361.942 1079.96 452.493 1079.96 543.055 1079.82V1079.75Z" fill="#64728C"/>
<path d="M547.342 814.744C457.594 814.744 367.882 814.744 278.064 814.744C241.109 814.744 218.929 777.964 237.034 747.209C246.388 731.405 260.773 724.354 279.126 724.39C345.43 724.532 411.734 724.532 478.038 724.39H816.16C844.08 724.39 864.418 743.382 864.524 769.673C864.63 795.964 844.86 814.85 816.444 814.85C726.684 814.85 636.925 814.85 547.165 814.85L547.342 814.744Z" fill="#64728C"/>
<path d="M769.428 403.12C769.428 447.269 769.428 491.418 769.428 535.568C769.428 565.19 751.145 585.634 724.891 585.918C698.636 586.201 679.149 565.048 679.113 535.107C679.113 445.958 679.113 356.785 679.113 267.589C679.113 239.739 698.388 219.684 724.749 219.755C751.11 219.825 769.57 239.597 769.57 268.014C769.57 313.037 769.57 358.073 769.57 403.12H769.428Z" fill="#64728C"/>
<path d="M498.199 451.415C498.199 422.714 498.199 393.978 498.199 365.277C498.199 338.667 518.36 318.222 543.658 318.541C549.65 318.633 555.566 319.909 561.064 322.294C566.563 324.68 571.536 328.128 575.697 332.441C579.859 336.755 583.127 341.848 585.315 347.428C587.502 353.008 588.565 358.966 588.443 364.958C588.608 422.832 588.608 480.706 588.443 538.579C588.443 565.579 568.672 585.989 543.516 586.095C518.36 586.201 498.518 565.969 498.306 539.075C498.022 509.702 498.199 480.54 498.199 451.415Z" fill="#64728C"/>
<path d="M407.46 469.769C407.46 493.19 408.027 516.647 407.46 540.032C406.716 564.233 391.303 581.56 368.698 585.422C348.821 588.788 327.881 576.245 320.157 556.579C317.881 549.868 316.883 542.789 317.216 535.71C317.216 491.064 316.932 446.419 317.216 401.773C317.216 375.234 336.065 355.711 361.292 355.144C387.335 354.648 407.141 373.923 407.885 400.817C408.204 412.297 407.885 423.777 407.885 435.293V469.769H407.46Z" fill="#64728C"/>
</g>
</g>
<defs>
<clipPath id="clip0_25_321">
<rect width="1087" height="1358" fill="white"/>
</clipPath>
<clipPath id="clip1_25_321">
<rect width="1087" height="1358" fill="white"/>
</clipPath>
</defs>
</svg>
