<svg width="1419" height="1259" viewBox="0 0 1419 1259" fill="none" xmlns="http://www.w3.org/2000/svg">
<g clip-path="url(#clip0_8_599)">
<path d="M568.365 565.258C724.734 565.258 850.017 439.017 850.017 282.629C850.017 126.241 724.734 0 568.365 0C411.996 0 285.771 126.241 285.771 282.629C285.771 439.017 411.996 565.258 568.365 565.258ZM568.365 691.116C348.884 691.116 0 802.967 0 1022.48V1258H1175V1022.48C1175 802.967 787.846 691.116 568.365 691.116Z" fill="#64728C"/>
<path d="M1028 713.996C1005.87 713.996 980.685 715.523 953.973 717.813C1054.94 761.136 1215.29 889.043 1215.29 1002V1258.49H1418.51V1067.68C1418.51 889.856 1205.83 713.996 1028 713.996Z" fill="#64728C"/>
<path d="M920.5 601C1015.23 601 1116.5 484 1116.5 374.5C1116.5 231.5 991.192 161.5 864.5 161.5C941 345 864.5 473.5 751.5 549C793.441 597.299 878 601 920.5 601Z" fill="#64728C"/>
</g>
<defs>
<clipPath id="clip0_8_599">
<rect width="1419" height="1259" fill="white"/>
</clipPath>
</defs>
</svg>
