<svg width="1228" height="1382" viewBox="0 0 1228 1382" fill="none" xmlns="http://www.w3.org/2000/svg">
<g clip-path="url(#clip0_40_887)">
<path d="M263.145 938.857C263.145 915.596 272.386 893.284 288.836 876.832C305.285 860.385 327.595 851.142 350.859 851.142C374.122 851.142 396.432 860.385 412.882 876.832C429.332 893.284 438.573 915.596 438.573 938.857V1026.57C438.573 1049.83 429.332 1072.14 412.882 1088.6C396.432 1105.04 374.122 1114.29 350.859 1114.29C327.595 1114.29 305.285 1105.04 288.836 1088.6C272.386 1072.14 263.145 1049.83 263.145 1026.57V938.857ZM789.43 587.999C789.43 564.739 798.673 542.426 815.12 525.974C831.572 509.526 853.884 500.285 877.145 500.285C900.405 500.285 922.718 509.526 939.169 525.974C955.616 542.426 964.859 564.739 964.859 587.999V1026.57C964.859 1049.83 955.616 1072.14 939.169 1088.6C922.718 1105.04 900.405 1114.29 877.145 1114.29C853.884 1114.29 831.572 1105.04 815.12 1088.6C798.673 1072.14 789.43 1049.83 789.43 1026.57V587.999ZM526.287 763.428C526.287 740.167 535.53 717.855 551.977 701.403C568.429 684.957 590.741 675.714 614.002 675.714C637.262 675.714 659.575 684.957 676.027 701.403C692.473 717.855 701.716 740.167 701.716 763.428V1026.57C701.716 1049.83 692.473 1072.14 676.027 1088.6C659.575 1105.04 637.262 1114.29 614.002 1114.29C590.741 1114.29 568.429 1105.04 551.977 1088.6C535.53 1072.14 526.287 1049.83 526.287 1026.57V763.428Z" fill="#64728C"/>
<path d="M263.143 106H175.429C128.902 106 84.2808 124.543 51.3819 157.549C18.4825 190.555 0 235.322 0 282V1206C0 1252.68 18.4825 1297.44 51.3819 1330.45C84.2808 1363.46 128.902 1382 175.429 1382H1052.57C1099.1 1382 1143.72 1363.46 1176.62 1330.45C1209.52 1297.44 1228 1252.68 1228 1206V282C1228 235.322 1209.52 190.555 1176.62 157.549C1143.72 124.543 1099.1 106 1052.57 106H964.857V194H1052.57C1075.83 194 1098.14 203.271 1114.6 219.775C1131.04 236.278 1140.29 258.661 1140.29 282V1206C1140.29 1229.34 1131.04 1251.72 1114.6 1268.23C1098.14 1284.73 1075.83 1294 1052.57 1294H175.429C152.165 1294 129.855 1284.73 113.405 1268.23C96.9555 1251.72 87.7143 1229.34 87.7143 1206V282C87.7143 258.661 96.9555 236.278 113.405 219.775C129.855 203.271 152.165 194 175.429 194H263.143V106Z" fill="#64728C"/>
<path d="M745.57 87.7143C757.203 87.7143 768.359 92.3352 776.582 100.559C784.805 108.784 789.427 119.94 789.427 131.571V219.286C789.427 230.917 784.805 242.073 776.582 250.298C768.359 258.522 757.203 263.143 745.57 263.143H482.427C470.794 263.143 459.64 258.522 451.415 250.298C443.191 242.073 438.57 230.917 438.57 219.286V131.571C438.57 119.94 443.191 108.784 451.415 100.559C459.64 92.3352 470.794 87.7143 482.427 87.7143H745.57ZM482.427 0C447.532 0 414.066 13.8619 389.392 38.5364C364.718 63.2108 350.855 96.6765 350.855 131.571V219.286C350.855 254.181 364.718 287.646 389.392 312.321C414.066 336.995 447.532 350.857 482.427 350.857H745.57C780.464 350.857 813.932 336.995 838.607 312.321C863.277 287.646 877.141 254.181 877.141 219.286V131.571C877.141 96.6765 863.277 63.2108 838.607 38.5364C813.932 13.8619 780.464 0 745.57 0H482.427Z" fill="#64728C"/>
</g>
<defs>
<clipPath id="clip0_40_887">
<rect width="1228" height="1382" fill="white"/>
</clipPath>
</defs>
</svg>
