<svg width="1381" height="1275" viewBox="0 0 1381 1275" fill="none" xmlns="http://www.w3.org/2000/svg">
<g clip-path="url(#clip0_40_698)">
<path d="M748.281 381.816H1175.96C1220.7 381.816 1256.97 420.105 1256.97 467.336V809.415C1256.97 856.644 1220.7 894.934 1175.96 894.934H748.281V980.454H1175.96C1265.43 980.454 1337.96 903.878 1337.96 809.415V467.336C1337.96 372.874 1265.43 296.297 1175.96 296.297H748.281V381.816Z" fill="#64728C"/>
<path d="M424.279 381.816V296.297H203.959C114.488 296.297 41.9581 372.874 41.9581 467.336V809.415C41.9581 903.878 114.488 980.454 203.959 980.454H424.279V894.934H203.959C159.224 894.934 122.958 856.644 122.958 809.415V467.336C122.958 420.105 159.224 381.816 203.959 381.816H424.279Z" fill="#64728C"/>
<path fill-rule="evenodd" clip-rule="evenodd" d="M0.241272 467.334C0.241272 351.995 89.3435 254.578 203.959 254.578H465.996V423.532H203.959C184.368 423.532 164.675 440.98 164.675 467.334V809.413C164.675 835.767 184.368 853.215 203.959 853.215H465.996V1022.17H203.959C89.3435 1022.17 0.241272 924.752 0.241272 809.413V467.334ZM124.233 370.551C145.388 351.702 173.001 340.098 203.959 340.098H382.563V338.012H203.959C173.952 338.012 145.766 350.14 124.233 370.551ZM124.233 906.196C145.767 926.609 173.953 938.735 203.959 938.735H382.563V936.649H203.959C173.001 936.649 145.389 925.046 124.233 906.196ZM706.564 254.578H1175.96C1290.58 254.578 1379.68 351.995 1379.68 467.334V809.413C1379.68 924.752 1290.58 1022.17 1175.96 1022.17H706.564V853.215H1175.96C1195.55 853.215 1215.25 835.767 1215.25 809.413V467.334C1215.25 440.98 1195.55 423.532 1175.96 423.532H706.564V254.578ZM789.997 338.012V340.098H1175.96C1206.92 340.098 1234.53 351.703 1255.69 370.552C1234.15 350.14 1205.97 338.012 1175.96 338.012H789.997ZM1255.69 906.196C1234.53 925.046 1206.92 936.649 1175.96 936.649H789.997V938.735H1175.96C1205.97 938.735 1234.15 926.609 1255.69 906.196Z" fill="#64728C"/>
<path fill-rule="evenodd" clip-rule="evenodd" d="M599.819 34.4375C622.351 34.4375 640.618 53.7291 640.618 77.5255V1197.82C640.618 1221.61 622.351 1240.9 599.819 1240.9C577.28 1240.9 559.014 1221.61 559.014 1197.82V77.5255C559.014 53.7291 577.28 34.4375 599.819 34.4375Z" fill="#64728C"/>
<path fill-rule="evenodd" clip-rule="evenodd" d="M525.64 77.524C525.64 37.0325 557.162 1.0625 599.819 1.0625C642.475 1.0625 673.991 37.0325 673.991 77.524V1197.82C673.991 1238.3 642.475 1274.27 599.819 1274.27C557.162 1274.27 525.64 1238.3 525.64 1197.82V77.524ZM599.819 67.8095C597.405 67.8095 592.387 70.4221 592.387 77.524V1197.82C592.387 1204.92 597.405 1207.53 599.819 1207.53C602.233 1207.53 607.244 1204.92 607.244 1197.82V77.524C607.244 70.4221 602.233 67.8095 599.819 67.8095Z" fill="#64728C"/>
</g>
<defs>
<clipPath id="clip0_40_698">
<rect width="1381" height="1275" fill="white"/>
</clipPath>
</defs>
</svg>
