<svg width="1275" height="1275" viewBox="0 0 1275 1275" fill="none" xmlns="http://www.w3.org/2000/svg">
<g clip-path="url(#clip0_40_675)">
<g clip-path="url(#clip1_40_675)">
<path fill-rule="evenodd" clip-rule="evenodd" d="M397.8 471.75C397.8 436.542 426.626 408 462.184 408H797.518C833.075 408 861.9 436.542 861.9 471.75C861.9 506.958 833.075 535.5 797.518 535.5H462.184C426.626 535.5 397.8 506.958 397.8 471.75Z" fill="#64728C"/>
<path fill-rule="evenodd" clip-rule="evenodd" d="M629.85 408C665.06 408 693.6 436.826 693.6 472.384V807.718C693.6 843.275 665.06 872.1 629.85 872.1C594.64 872.1 566.1 843.275 566.1 807.718V472.384C566.1 436.826 594.64 408 629.85 408Z" fill="#64728C"/>
<path fill-rule="evenodd" clip-rule="evenodd" d="M173.4 135.579C146.877 135.579 125.377 157.079 125.377 183.602C125.377 210.124 146.877 231.624 173.4 231.624C199.922 231.624 221.423 210.124 221.423 183.602C221.423 157.079 199.922 135.579 173.4 135.579ZM-5.1001 183.602C-5.1001 85.0186 74.8169 5.10156 173.4 5.10156C271.983 5.10156 351.9 85.0186 351.9 183.602C351.9 282.185 271.983 362.102 173.4 362.102C74.8169 362.102 -5.1001 282.185 -5.1001 183.602Z" fill="#64728C"/>
<path fill-rule="evenodd" clip-rule="evenodd" d="M173.4 1048.48C146.877 1048.48 125.377 1069.97 125.377 1096.5C125.377 1123.03 146.877 1144.52 173.4 1144.52C199.923 1144.52 221.423 1123.03 221.423 1096.5C221.423 1069.97 199.923 1048.48 173.4 1048.48ZM-5.1001 1096.5C-5.1001 997.917 74.8179 918 173.4 918C271.982 918 351.9 997.917 351.9 1096.5C351.9 1195.08 271.982 1275 173.4 1275C74.8179 1275 -5.1001 1195.08 -5.1001 1096.5Z" fill="#64728C"/>
<path fill-rule="evenodd" clip-rule="evenodd" d="M1086.3 135.579C1059.77 135.579 1038.28 157.079 1038.28 183.602C1038.28 210.125 1059.77 231.624 1086.3 231.624C1112.83 231.624 1134.32 210.125 1134.32 183.602C1134.32 157.079 1112.83 135.579 1086.3 135.579ZM907.8 183.602C907.8 85.0196 987.717 5.10156 1086.3 5.10156C1184.88 5.10156 1264.8 85.0196 1264.8 183.602C1264.8 282.184 1184.88 362.102 1086.3 362.102C987.717 362.102 907.8 282.184 907.8 183.602Z" fill="#64728C"/>
<path fill-rule="evenodd" clip-rule="evenodd" d="M1086.3 1048.48C1059.77 1048.48 1038.28 1069.97 1038.28 1096.5C1038.28 1123.03 1059.77 1144.52 1086.3 1144.52C1112.83 1144.52 1134.32 1123.03 1134.32 1096.5C1134.32 1069.97 1112.83 1048.48 1086.3 1048.48ZM907.8 1096.5C907.8 997.917 987.717 918 1086.3 918C1184.88 918 1264.8 997.917 1264.8 1096.5C1264.8 1195.08 1184.88 1275 1086.3 1275C987.717 1275 907.8 1195.08 907.8 1096.5Z" fill="#64728C"/>
<path fill-rule="evenodd" clip-rule="evenodd" d="M219.3 188.698C219.3 152.082 248.907 122.398 285.428 122.398H974.273C1010.79 122.398 1040.4 152.082 1040.4 188.698C1040.4 225.315 1010.79 254.998 974.273 254.998H285.428C248.907 254.998 219.3 225.315 219.3 188.698Z" fill="#64728C"/>
<path fill-rule="evenodd" clip-rule="evenodd" d="M1081.2 229.5C1117.82 229.5 1147.5 259.107 1147.5 295.629V410.436C1147.5 446.958 1117.82 476.565 1081.2 476.565C1044.58 476.565 1014.9 446.958 1014.9 410.436V295.629C1014.9 259.107 1044.58 229.5 1081.2 229.5ZM1081.2 573.923C1117.82 573.923 1147.5 603.529 1147.5 640.05V984.473C1147.5 1020.99 1117.82 1050.6 1081.2 1050.6C1044.58 1050.6 1014.9 1020.99 1014.9 984.473V640.05C1014.9 603.529 1044.58 573.923 1081.2 573.923Z" fill="#64728C"/>
<path fill-rule="evenodd" clip-rule="evenodd" d="M219.3 1096.5C219.3 1059.88 248.907 1030.2 285.428 1030.2H400.236C436.758 1030.2 466.365 1059.88 466.365 1096.5C466.365 1133.12 436.758 1162.8 400.236 1162.8H285.428C248.907 1162.8 219.3 1133.12 219.3 1096.5ZM563.723 1096.5C563.723 1059.88 593.329 1030.2 629.85 1030.2H974.273C1010.79 1030.2 1040.4 1059.88 1040.4 1096.5C1040.4 1133.12 1010.79 1162.8 974.273 1162.8H629.85C593.329 1162.8 563.723 1133.12 563.723 1096.5Z" fill="#64728C"/>
<path fill-rule="evenodd" clip-rule="evenodd" d="M173.4 229.5C210.017 229.5 239.7 259.107 239.7 295.629V984.473C239.7 1020.99 210.017 1050.6 173.4 1050.6C136.784 1050.6 107.1 1020.99 107.1 984.473V295.629C107.1 259.107 136.784 229.5 173.4 229.5Z" fill="#64728C"/>
</g>
</g>
<defs>
<clipPath id="clip0_40_675">
<rect width="1275" height="1275" fill="white"/>
</clipPath>
<clipPath id="clip1_40_675">
<rect width="1275" height="1275" fill="white"/>
</clipPath>
</defs>
</svg>
