<svg width="1271" height="822" viewBox="0 0 1271 822" fill="none" xmlns="http://www.w3.org/2000/svg">
<g clip-path="url(#clip0_40_784)">
<g clip-path="url(#clip1_40_784)">
<path fill-rule="evenodd" clip-rule="evenodd" d="M132.899 118.833C216.446 42.5276 328.663 0.5 444.639 0.5H827.139C943.113 0.5 1055.33 42.5276 1138.88 118.833C1222.61 195.309 1270.84 300.283 1270.84 411.05C1270.84 521.817 1222.61 626.79 1138.88 703.265C1055.33 779.571 943.113 821.6 827.139 821.6H444.639C328.663 821.6 216.446 779.571 132.899 703.265C49.1666 626.79 0.939453 521.817 0.939453 411.05C0.939453 300.283 49.1666 195.309 132.899 118.833ZM444.639 122.9C357.725 122.9 275.362 154.485 215.443 209.211C155.71 263.768 123.339 336.508 123.339 411.05C123.339 485.592 155.71 558.333 215.443 612.888C275.362 667.616 357.725 699.2 444.639 699.2H827.139C914.054 699.2 996.419 667.616 1056.33 612.888C1116.07 558.333 1148.44 485.592 1148.44 411.05C1148.44 336.508 1116.07 263.768 1056.33 209.211C996.419 154.485 914.054 122.9 827.139 122.9H444.639Z" fill="#64728C"/>
<path d="M883.24 612.499C993.089 612.499 1082.14 523.448 1082.14 413.599C1082.14 303.75 993.089 214.699 883.24 214.699C773.391 214.699 684.34 303.75 684.34 413.599C684.34 523.448 773.391 612.499 883.24 612.499Z" fill="#64728C"/>
</g>
</g>
<defs>
<clipPath id="clip0_40_784">
<rect width="1271" height="822" fill="white"/>
</clipPath>
<clipPath id="clip1_40_784">
<rect width="1270" height="822" fill="white" transform="translate(0.839844)"/>
</clipPath>
</defs>
</svg>
