<svg width="1275" height="1387" viewBox="0 0 1275 1387" fill="none" xmlns="http://www.w3.org/2000/svg">
<g clip-path="url(#clip0_40_1144)">
<g clip-path="url(#clip1_40_1144)">
<path d="M445.288 1264.25C370.724 1264.25 296.178 1264.25 221.65 1264.25C152.17 1264.25 107.174 1219.16 107.147 1149.53V221.499C107.147 152.059 152.277 107.126 221.999 107.126H863.406C935.678 107.126 980.137 151.496 980.137 223.754C980.137 389.78 980.137 555.806 980.137 721.832C980.137 755.491 1002.66 779.434 1033.83 779.327C1064.28 779.327 1087.23 755.169 1087.26 722.771C1087.26 552.728 1088.65 382.658 1086.72 212.776C1085.7 122.614 1040.62 57.7906 959.304 18.3867C939.652 8.69677 918.174 5.66363 897.287 0H182.158C180.655 4.72417 176.171 3.11366 173.111 3.83839C65.2387 29.2845 0 111.555 0 222.492C0 532.677 0 842.862 0 1153.05C0 1276.52 94.1531 1370.95 217.462 1371.19C293.332 1371.35 369.211 1371.35 445.1 1371.19C479.625 1371.19 503.895 1348.64 503.6 1317.08C503.251 1286.13 479.169 1264.25 445.288 1264.25Z" fill="#64728C"/>
<path d="M1262.38 1077.11C1211.37 1007.67 1152.58 945.748 1079.58 898.909C969.505 828.208 854.063 813.472 734.002 871.53C636.09 918.826 562.475 994.198 499.68 1080.9C484.162 1102.37 487.142 1125.8 502.713 1146.9C549.052 1209.66 602.048 1266 665.917 1311.28C730.351 1357.05 801.093 1386.09 878.359 1386.97C923.953 1387.25 969.111 1378.11 1011.01 1360.13C1118.4 1313.99 1197.22 1234.35 1264.69 1141.96C1279.83 1121.19 1277.6 1097.83 1262.38 1077.11ZM1140.41 1117.38C1091.18 1173.74 1038.05 1224.98 967.948 1255.05C940.304 1267.05 910.509 1273.3 880.373 1273.43C826.678 1272.39 779.266 1251.58 735.398 1221.2C693.919 1192.43 658.32 1157.21 625.566 1118.99C622.264 1115.12 618.237 1112.22 623.553 1106.1C671.636 1050.73 723.773 1000.32 791.884 969.799C871.782 934.018 946.578 948.191 1017.75 994.278C1064.25 1024.39 1103.26 1062.75 1139.29 1104.33C1143.02 1108.73 1145.33 1111.74 1140.41 1117.35V1117.38Z" fill="#64728C"/>
<path d="M816.29 321.403C634.248 321.403 452.189 321.403 270.111 321.403C262.523 321.275 254.98 322.587 247.881 325.268C236.219 329.812 226.521 338.304 220.478 349.263C214.435 360.222 212.431 372.955 214.814 385.24C217.198 397.525 223.818 408.585 233.52 416.491C243.223 424.397 255.393 428.647 267.909 428.502C359.834 428.717 451.759 428.502 543.684 428.502C634.732 428.502 725.761 428.502 816.773 428.502C848.99 428.502 873.153 405.15 872.965 374.818C872.777 344.487 848.775 321.43 816.29 321.403Z" fill="#64728C"/>
<path d="M872.965 589.582C873.206 558.177 848.802 535.656 814.277 535.656C724.124 535.656 633.98 535.656 543.845 535.656C453.263 535.656 362.68 535.656 272.098 535.656C238.163 535.656 214.349 557.613 214.188 588.776C214.027 620.557 237.948 642.729 272.608 642.755H814.921C848.373 642.729 872.696 620.477 872.965 589.582Z" fill="#64728C"/>
<path d="M409.905 768.67C363.567 768.67 317.202 768.67 270.837 768.67C238.056 768.67 214.458 791.002 214.189 821.602C213.948 852.953 237.681 875.715 270.998 875.742C362.386 875.849 453.765 875.849 545.135 875.742C578.586 875.742 602.695 853.114 602.641 822.058C602.588 791.002 578.479 768.67 544.974 768.616C499.942 768.598 454.919 768.616 409.905 768.67Z" fill="#64728C"/>
<path d="M876.746 1009.68C856.573 1009.51 836.804 1015.34 819.95 1026.43C803.096 1037.51 789.917 1053.36 782.087 1071.94C774.258 1090.53 772.13 1111.03 775.975 1130.83C779.82 1150.63 789.463 1168.84 803.681 1183.15C817.899 1197.46 836.05 1207.22 855.828 1211.2C875.607 1215.17 896.121 1213.18 914.765 1205.48C933.409 1197.77 949.343 1184.7 960.542 1167.93C971.741 1151.15 977.701 1131.42 977.665 1111.25C977.553 1084.47 966.906 1058.8 948.024 1039.79C929.141 1020.79 903.538 1009.97 876.746 1009.68Z" fill="#64728C"/>
</g>
</g>
<defs>
<clipPath id="clip0_40_1144">
<rect width="1275" height="1387" fill="white"/>
</clipPath>
<clipPath id="clip1_40_1144">
<rect width="1275" height="1387" fill="white"/>
</clipPath>
</defs>
</svg>
