<svg width="973" height="1273" viewBox="0 0 973 1273" fill="none" xmlns="http://www.w3.org/2000/svg">
<g clip-path="url(#clip0_23_64)">
<path d="M486.26 0C217.571 0 0.259766 199.225 0.259766 445.55C0.259766 779.713 486.26 1273 486.26 1273C486.26 1273 972.26 779.713 972.26 445.55C972.26 199.225 754.948 0 486.26 0ZM486.26 604.675C440.226 604.675 396.077 587.91 363.526 558.068C330.975 528.227 312.688 487.753 312.688 445.55C312.688 403.347 330.975 362.873 363.526 333.032C396.077 303.19 440.226 286.425 486.26 286.425C532.294 286.425 576.442 303.19 608.993 333.032C641.544 362.873 659.831 403.347 659.831 445.55C659.831 487.753 641.544 528.227 608.993 558.068C576.442 587.91 532.294 604.675 486.26 604.675Z" fill="#64728C"/>
</g>
<defs>
<clipPath id="clip0_23_64">
<rect width="973" height="1273" fill="white"/>
</clipPath>
</defs>
</svg>
