<svg width="1136" height="1294" viewBox="0 0 1136 1294" fill="none" xmlns="http://www.w3.org/2000/svg">
<g clip-path="url(#clip0_24_94)">
<g clip-path="url(#clip1_24_94)">
<path d="M1056.44 379.446H78.7051C81.3612 412.3 83.8909 444.458 86.547 476.648C92.8711 554.181 99.3006 631.726 105.836 709.28C113.087 796.047 120.339 882.814 127.59 969.581C133.598 1041.68 139.037 1113.83 145.741 1185.83C151.021 1242.43 185.519 1279.43 241.424 1291.19C242.551 1291.62 243.615 1292.19 244.587 1292.9H891.227C915.512 1286.92 938.12 1277.94 956.492 1259.92C981.187 1235.67 989.282 1205.28 991.97 1172.08C1004.28 1020.3 1016.8 868.521 1029.54 716.743C1038.83 605.712 1047.98 494.693 1056.98 383.683C1056.94 382.257 1056.76 380.837 1056.44 379.446ZM366.009 1139.07C350.199 1133.31 341.788 1121.36 340.713 1104.76C336.349 1036.33 332.133 967.926 328.065 899.541C321.741 797.112 315.332 694.714 308.839 592.347C306.816 559.62 304.065 526.893 303.179 494.134C302.831 487.471 304.265 480.836 307.334 474.911C310.403 468.987 314.995 463.987 320.639 460.428C326.282 456.868 332.773 454.878 339.441 454.661C346.11 454.444 352.716 456.008 358.579 459.193C364.459 462.157 369.42 466.666 372.93 472.237C376.44 477.809 378.365 484.231 378.5 490.814C382.842 557.955 387.058 625.096 391.148 692.237C397.641 796.289 404.102 900.363 410.531 1004.46C412.428 1035.1 414.231 1065.74 416.634 1105.64C417.393 1128.25 393.266 1148.96 366.009 1139.07ZM605.757 1099.83C605.757 1129.49 581.409 1148.36 555.606 1139.13C540.239 1133.63 532.049 1122.21 530.31 1106.15C529.998 1101.94 529.924 1097.72 530.089 1093.5V502.766C530.089 472.442 544.033 454.861 568.033 454.83C592.033 454.798 605.978 472.474 605.978 502.735V798.102C605.872 898.677 605.799 999.251 605.757 1099.83ZM813.883 802.245C808.486 889.159 803.121 976.084 797.788 1063.02C796.934 1076.87 796.207 1090.72 795.195 1104.57C793.583 1126.45 777.203 1141.88 756.428 1141.41C751.347 1141.35 746.332 1140.26 741.691 1138.19C737.05 1136.12 732.882 1133.12 729.445 1129.38C726.008 1125.63 723.374 1121.23 721.706 1116.43C720.039 1111.63 719.372 1106.54 719.749 1101.47C721.867 1055.65 725.061 1009.77 727.907 964.142C733.409 875.942 738.963 787.762 744.571 699.604C748.903 630.324 753.013 561.043 757.409 491.763C757.852 481.545 762.328 471.921 769.856 464.998C777.383 458.075 787.348 454.418 797.567 454.83C819.701 456.063 833.899 474.055 833.045 496.221C826.5 600.79 820.144 701.47 813.883 802.245Z" fill="#64728C"/>
<path d="M1133.15 206.955C1123.67 173.153 1094.35 151.777 1056.13 151.777C986.56 151.588 917.248 151.777 847.778 151.777H833.042C833.042 139.762 833.042 128.916 833.042 118.07C832.41 49.232 783.841 0.473146 715.003 0.251803C616.958 -0.0644029 518.934 -0.0644029 420.932 0.251803C351.999 0.473146 303.556 49.2637 302.766 118.007C302.766 128.821 302.766 139.667 302.766 151.651H287.967C218.181 151.777 148.236 151.303 78.3863 151.777C22.6393 152.157 -12.9654 201.359 4.45749 252.963C15.1136 284.584 43.9516 303.145 82.4654 303.145C406.133 303.145 729.801 303.145 1053.47 303.145C1061.03 303.244 1068.59 302.577 1076.01 301.153C1086.14 299.068 1095.73 294.916 1104.18 288.956C1112.63 282.996 1119.76 275.356 1125.13 266.515C1130.49 257.674 1133.97 247.821 1135.35 237.572C1136.73 227.324 1135.98 216.901 1133.15 206.955ZM757.343 150.987H378.529C378.529 139.129 378.529 128.631 378.529 118.102C378.782 91.0976 393.77 75.8882 420.869 75.8882C505.801 75.8882 590.734 75.8882 675.667 75.8882C689.548 75.8882 703.43 75.6984 717.28 75.8882C741.28 76.3309 756.742 91.5403 757.28 115.287C757.564 127.019 757.343 138.687 757.343 150.987Z" fill="#64728C"/>
</g>
</g>
<defs>
<clipPath id="clip0_24_94">
<rect width="1136" height="1294" fill="white"/>
</clipPath>
<clipPath id="clip1_24_94">
<rect width="1136" height="1293.03" fill="white"/>
</clipPath>
</defs>
</svg>
