<svg width="1275" height="1275" viewBox="0 0 1275 1275" fill="none" xmlns="http://www.w3.org/2000/svg">
<g clip-path="url(#clip0_38_534)">
<g clip-path="url(#clip1_38_534)">
<path d="M839.599 450.968L626.836 366.903V1257.97C626.836 1267.39 619.188 1275 609.771 1275H439.227C429.806 1275 422.175 1267.39 422.175 1257.97V366.903L209.379 450.968C202.242 453.757 194.122 451.471 189.495 445.389C184.844 439.243 184.881 430.814 189.582 424.707L510.967 6.6499C514.186 2.46133 519.2 0.000976562 524.523 0.000976562C529.774 0.000976562 534.806 2.47793 538.025 6.6499L859.423 424.71C861.799 427.786 862.956 431.453 862.956 435.101C862.956 438.658 861.826 442.319 859.52 445.394C854.87 451.475 846.716 453.759 839.599 450.97V450.968ZM809.76 832.092H738.207L876.749 499.277H949.799L1088.97 832.092H1015.74L974.399 732.709H849.937L809.76 832.092ZM867.215 683.995H957.021L923.856 604.49C919.156 593.21 915.29 582.5 911.831 572.141C908.008 583.611 904.283 593.963 900.443 603.821L867.217 683.995H867.215ZM1061.25 961.828V925.664H781.408V976.799H969.57L763.022 1223.38V1258.54H1064.11V1207.43H855.836L1061.25 961.829L1061.25 961.828Z" fill="#64728C"/>
</g>
</g>
<defs>
<clipPath id="clip0_38_534">
<rect width="1275" height="1275" fill="white"/>
</clipPath>
<clipPath id="clip1_38_534">
<rect width="1275" height="1275" fill="white"/>
</clipPath>
</defs>
</svg>
