<svg width="3062" height="3062" viewBox="0 0 3062 3062" fill="none" xmlns="http://www.w3.org/2000/svg">
<path d="M1650.77 904.542L1651.47 904.751C1668.82 909.951 1685.62 916.499 1701.15 927.56L1702.27 928.367C1725.58 945.421 1735.99 968.885 1740.67 995.275L1740.67 995.28C1742.48 1005.58 1744.15 1015.89 1745.81 1026.17C1747.26 1035.17 1748.7 1044.14 1750.24 1053.08L1750.9 1056.91V1056.92C1758.29 1099.29 1798.94 1123.81 1840.31 1111.31C1862.43 1104.63 1883.6 1095.96 1905.67 1087.96L1905.67 1087.95C1958.14 1068.94 2010.3 1086.99 2038.67 1134.64L2039.34 1135.77L2039.34 1135.78L2138.62 1307.46L2138.63 1307.48L2138.64 1307.49C2147.02 1322.22 2155.84 1339.21 2155.84 1357.34V1357.36C2155.74 1389.29 2143.69 1417.91 2118.91 1439.52L2118.89 1439.53C2102.2 1454 2084.58 1467.89 2067.84 1481.91L2067.84 1481.9C2048.18 1498.39 2038.76 1518.34 2038.83 1537.93C2038.89 1557.52 2048.43 1577.53 2068.22 1594.09V1594.09C2082.65 1606.18 2096.78 1617.64 2111.2 1629.6L2117.41 1634.76L2117.41 1634.76C2131.5 1646.54 2140.11 1661.65 2147.54 1677.2L2149.01 1680.31V1680.32C2162.92 1710.11 2155.58 1737.21 2141.73 1762.02L2141.73 1762.03C2107.01 1824.01 2071.47 1885.53 2035.1 1946.58L2035.1 1946.59C2010.91 1987.06 1958.47 2005.16 1913.43 1990.29C1901.34 1986.33 1889.39 1981.95 1877.54 1977.6C1865.66 1973.25 1853.87 1968.92 1841.97 1965.01C1798.91 1950.87 1758.18 1975.79 1750.62 2020.43V2020.43C1746.77 2043.12 1742.57 2065.4 1738.98 2087.96L1738.98 2087.96C1731.24 2136.86 1682.75 2170.25 1640.24 2170.77C1567.27 2171.72 1494.33 2171.72 1421.42 2170.77H1421.42C1368.59 2170.08 1329.22 2132.9 1320.79 2079.9V2079.9C1317.56 2059.77 1314.23 2039.65 1310.8 2019.54V2019.53C1303.47 1976.51 1262.58 1951.18 1220.7 1964.07L1219.71 1964.38C1198.49 1971.22 1177.91 1979.51 1156.65 1987.31C1129.25 1997.35 1102.86 1998.07 1079.49 1989.67C1056.11 1981.27 1036.22 1963.92 1021.54 1938.67V1938.67C1003.11 1907.01 986.445 1875.09 966.811 1844.78V1844.78C950.581 1819.8 935.899 1793.89 920.767 1768.71C906.381 1744.77 900.996 1717.54 906.952 1691.12C912.916 1664.67 930.132 1639.54 960.026 1619.6L960.064 1619.57L960.104 1619.55C976.241 1609.21 991.109 1597.02 1004.41 1583.22C1010.6 1576.62 1015.39 1568.82 1018.48 1560.31C1021.57 1551.79 1022.9 1542.73 1022.38 1533.69C1021.87 1524.64 1019.52 1515.79 1015.48 1507.68C1011.45 1499.57 1005.8 1492.36 998.896 1486.49L998.878 1486.48L998.859 1486.46C990.391 1479.12 981.492 1472.22 972.445 1465.27C963.433 1458.35 954.256 1451.37 945.414 1443.98L945.407 1443.98C923.624 1425.73 910.269 1403.77 906.081 1379.9C901.894 1356.03 906.958 1330.75 921.139 1305.99L923.073 1302.58C932.723 1285.48 942.055 1267.23 953.433 1250.68L953.438 1250.67C966.607 1231.57 978.37 1211.6 989.938 1191.34C1001.48 1171.14 1012.86 1150.59 1025.15 1130.61C1051.26 1088.09 1100.51 1069.61 1148.08 1085.31H1148.08C1169.97 1092.42 1191.42 1101.28 1212.58 1108.99H1212.58C1236.81 1117.8 1259.18 1115.94 1276.47 1106.03C1293.77 1096.12 1306.61 1077.81 1311.12 1052.55C1314.88 1031.41 1317.98 1009.83 1322.42 988.491L1322.42 988.479C1326.96 966.895 1335.92 949.129 1349.33 935.415C1362.75 921.705 1380.35 912.311 1401.76 907.049L1401.86 907.025L1401.96 907.004C1401.97 907.001 1401.99 906.999 1402 906.996L1402.54 904.542H1650.77ZM1437.08 1012.42C1432.63 1012.38 1431.38 1013.25 1430.88 1013.75C1430.13 1014.53 1429.41 1016.12 1428.59 1020.41L1428.59 1020.42C1423.14 1048.62 1420.48 1078.79 1409.29 1107.51C1379.87 1183.22 1303.45 1230.99 1222.46 1222.14V1222.14C1189.54 1218.54 1159.86 1204.93 1130.84 1193.69L1128.04 1192.6C1122.46 1190.47 1119.42 1190.66 1117.43 1191.51C1115.28 1192.43 1113.09 1194.63 1110.38 1199.36C1080.34 1251.76 1050.08 1304.04 1019.59 1356.18L1019.59 1356.18C1017.78 1359.28 1017.6 1360.47 1017.66 1360.98C1017.68 1361.18 1017.82 1362.08 1020.16 1363.96L1020.66 1364.35L1020.66 1364.35C1035.67 1375.75 1050.16 1388.42 1064.55 1400.05L1065.79 1401.05C1091.81 1422.28 1111.84 1448.93 1122.86 1480.14L1123.62 1482.32C1139.28 1528.12 1137.79 1574.21 1111.62 1618.16L1111.62 1618.16C1099.18 1639.05 1085.11 1658.49 1066.09 1674.38L1066.09 1674.38C1051.43 1686.64 1036.71 1699.37 1021.19 1710.98L1021.19 1710.98C1018.02 1713.36 1017.78 1714.5 1017.75 1714.81C1017.69 1715.35 1017.86 1716.53 1019.56 1719.42L1019.92 1720.02L1019.92 1720.03C1032.07 1739.96 1043.48 1760.4 1055.06 1780.45L1069.02 1804.55C1073.68 1812.58 1078.34 1820.61 1083 1828.64L1110.94 1876.79L1110.94 1876.8L1110.95 1876.81C1113.54 1881.32 1115.66 1883.59 1117.74 1884.54C1119.52 1885.34 1122.3 1885.62 1127.49 1883.26C1142.62 1876.33 1158.57 1871.01 1173.94 1865.46L1177.01 1864.35C1283.42 1825.21 1394.92 1884.97 1420.57 2003.49L1420.87 2004.88L1420.87 2004.89C1424.41 2021.84 1426.86 2039.04 1429 2056.07C1429.51 2060.14 1430.46 2061.35 1431.1 2061.85C1431.9 2062.48 1433.61 2063.11 1437.97 2063.11C1497.36 2062.63 1556.77 2062.87 1616.14 2062.87C1621.01 2062.87 1624.26 2062.86 1626.67 2062.61C1629.05 2062.36 1629.75 2061.93 1630 2061.73C1630.24 2061.53 1630.76 2060.98 1631.4 2058.77C1632.05 2056.52 1632.6 2053.42 1633.41 2048.73C1634.95 2039.72 1636.66 2031.12 1637.85 2022.35V2022.34C1644.9 1970.86 1662.42 1924.58 1707.63 1891.38C1760.71 1852.41 1818 1842.7 1880.26 1862.8H1880.26C1900.22 1869.23 1919.76 1876.94 1939.03 1884.79C1941.92 1885.94 1942.69 1885.61 1942.76 1885.58C1943.01 1885.48 1943.77 1885.02 1945.35 1882.38C1964.26 1850.7 1981.62 1816.98 2002.88 1785.9C2017.42 1764.63 2028.89 1741.63 2042.12 1718.69C2042.97 1717.06 2043.71 1715.77 2044.37 1714.5C2044.32 1714.46 2044.26 1714.42 2044.19 1714.38C2043.84 1714.14 2043.12 1713.68 2042.51 1713.21C2026.24 1700.83 2010.36 1687.79 1994.52 1675.22V1675.22C1973.84 1658.84 1957.12 1638 1945.62 1614.26C1934.11 1590.52 1928.11 1564.5 1928.06 1538.12C1928.01 1511.74 1933.91 1485.69 1945.33 1461.91C1956.75 1438.13 1973.39 1417.23 1994.01 1400.77C2008.43 1389.22 2023.02 1376.83 2038.51 1365.98C2042.23 1363.36 2042.99 1361.91 2043.16 1361.08C2043.34 1360.16 2043.17 1358.35 2040.81 1354.13V1354.13C2030.25 1335.27 2018.89 1316.88 2007.4 1298.43C1995.94 1280.02 1984.34 1261.54 1973.42 1242.64L1969.89 1236.57C1961.65 1222.42 1953.23 1208.22 1945.3 1193.69L1945.29 1193.68C1943.69 1190.74 1942.83 1190.16 1942.52 1190.03C1942.4 1189.98 1941.51 1189.62 1938.35 1190.96L1938.35 1190.96C1921.85 1197.96 1904.16 1203.83 1887.91 1210.22C1785.62 1250.47 1672.74 1191.51 1646.42 1096.4V1096.4C1639.32 1070.8 1636.35 1044.29 1632.33 1018.81C1631.75 1015.13 1631.06 1013.98 1630.56 1013.51C1630.17 1013.14 1629.06 1012.42 1625.14 1012.42C1562.45 1012.99 1499.76 1012.99 1437.09 1012.42H1437.08Z" fill="#64728C" stroke="#64728C" stroke-width="10"/>
<path d="M1530.28 1290.81C1665 1290.09 1782.04 1396.73 1782.04 1538.12V1538.13C1781.68 1679.64 1664.2 1785.9 1529.73 1784.86C1389.61 1783.78 1279.6 1677.86 1279.74 1537.55C1279.89 1397.23 1390.57 1291.53 1530.28 1290.81V1290.81ZM1529.48 1398.66C1456.41 1398.71 1387.76 1461.86 1387.53 1537.52C1387.3 1613.16 1455.55 1676.48 1528.88 1677.03H1528.88C1607.23 1677.62 1671.19 1615.16 1671.44 1538.13C1671.69 1461.12 1608.2 1398.66 1529.48 1398.66Z" fill="#64728C" stroke="#64728C" stroke-width="10"/>
</svg>
