<svg width="3062" height="3062" viewBox="0 0 3062 3062" fill="none" xmlns="http://www.w3.org/2000/svg">
<g clip-path="url(#clip0_40_1095)">
<path d="M2191 994.113C2163.37 1027.58 2104.68 993.719 2079.92 1033.53C2048.53 1049.26 2026.89 1036.11 2007.93 1014.93C2053.37 982.899 2007.57 925.356 2052.43 893.109H2098.62C2135.64 905.936 2185.05 904.396 2191 953.662V994.113Z" fill="#64728C"/>
<path d="M874.228 2168C872.795 1883.75 871.386 1599.51 870 1315.26C920.846 1193.22 994.446 1140.23 1129.96 1138.8C1341.38 1136.54 1552.79 1137.72 1764.2 1139.55C1789.28 1139.76 1835.86 1121.27 1834.29 1165.63C1832.89 1201.75 1803.97 1223.64 1756.03 1223.32C1567.69 1222.06 1379.32 1222.92 1190.99 1222.78C1013.33 1222.64 962.34 1265.63 962.054 1417.73C961.695 1601.57 962.054 1785.45 962.054 1995.91C1054.21 1889.86 1161.89 1897.49 1269.03 1899.89C1376.17 1902.29 1484.31 1903.04 1591.88 1901.82C1793.4 1899.53 1943.72 1786.06 1968.12 1610.49C1979.87 1525.76 2011.12 1450.8 2073.97 1354.42C2074.65 1557.18 2095.86 1734.75 1924.55 1872.52C1835.4 1944.18 1733.35 1983.37 1613.09 1985.63C1551.64 1986.78 1489.65 1988.78 1428.66 1983.55C1229.4 1966.39 1046.12 1981.94 924.179 2147.4C915.543 2158.87 891.177 2161.37 874.228 2168Z" fill="#64728C"/>
<path d="M2007.89 1014.82L2079.88 1033.42C2109.66 1038.22 2137.39 1051.59 2122.13 1080C2026.88 1256.89 1988.36 1463.02 1778.78 1599.82C1767.64 1367.75 1896.02 1193.72 2007.89 1014.82Z" fill="#64728C"/>
<path d="M1524.66 1422.07C1474.71 1422.07 1424.76 1422.67 1374.84 1421.74C1354.67 1421.38 1335.97 1414.15 1336.18 1393.26C1336.36 1373.19 1353.09 1363.77 1374.27 1363.63C1474.17 1362.91 1574.06 1362.74 1673.94 1363.13C1698.7 1363.13 1720.34 1371.51 1717.55 1398.13C1715.22 1420.09 1693.4 1422.1 1674.55 1422.46C1624.6 1423.43 1574.61 1422.78 1524.66 1422.78V1422.07Z" fill="#64728C"/>
<path d="M1408.17 1566.35C1331.41 1566.35 1254.62 1566.74 1177.87 1566.14C1159.27 1566.14 1135.87 1565.17 1133.08 1544.64C1129.14 1515.69 1156.98 1514.51 1179.27 1514.43C1336.69 1513.93 1494.08 1514.11 1651.43 1514.97C1669.06 1514.97 1692.57 1516.98 1691.42 1540.62C1690.31 1562.77 1668.67 1565.71 1650 1565.96C1569.41 1566.78 1488.79 1566.28 1408.17 1566.35Z" fill="#64728C"/>
<path d="M1314.33 1738.87C1268.67 1738.87 1222.99 1739.48 1177.37 1738.65C1153.83 1738.22 1128.46 1733.89 1130.25 1707.3C1132.12 1679.96 1159.96 1681.65 1182 1681.51C1269.45 1681 1356.94 1681 1444.47 1681.51C1467.11 1681.51 1494.24 1682.15 1496.25 1708.48C1499.08 1745.35 1464.36 1738.15 1439.85 1738.87C1398.03 1740.09 1356.14 1739.19 1314.43 1739.19L1314.33 1738.87Z" fill="#64728C"/>
<path d="M1694.83 1681.26C1728.26 1691.83 1802.04 1658.61 1803.97 1707.66C1806.2 1763.49 1732.31 1730.59 1692.89 1738.84C1674.98 1742.6 1654.84 1740.95 1636.03 1739.16C1605.21 1736.18 1555.73 1751.81 1557.2 1706.48C1558.49 1668.93 1604.03 1684.66 1631.41 1681.65C1650.04 1679.47 1669.32 1681.26 1694.83 1681.26Z" fill="#64728C"/>
<path d="M1204.1 1414C1177.45 1409.2 1131.58 1423.96 1133.26 1387.45C1134.98 1353.73 1180.2 1365.74 1207.87 1364.91C1232.45 1364.16 1271.94 1357.39 1272.9 1386.09C1274.16 1424.79 1230.19 1408.95 1204.1 1414Z" fill="#64728C"/>
</g>
<defs>
<clipPath id="clip0_40_1095">
<rect width="1321" height="1276" fill="white" transform="translate(870 893)"/>
</clipPath>
</defs>
</svg>
