<svg width="3062" height="3062" viewBox="0 0 3062 3062" fill="none" xmlns="http://www.w3.org/2000/svg">
<g clip-path="url(#clip0_25_291)">
<path d="M1085.38 1959.62C1035.52 1959.62 1000.56 1924.94 1000.53 1875.09C1000.41 1633.62 1000.41 1392.15 1000.53 1150.66C1000.53 1111.41 1016.29 1079.09 1046.68 1054.09C1091.72 1017.2 1136.76 980.342 1181.61 943.107C1205.82 922.578 1236.68 911.601 1268.41 912.24C1418.59 912.556 1568.83 912.703 1719.14 912.682C1772.47 912.682 1806.16 946.291 1806.23 999.637C1806.23 1006.64 1806.23 1094.22 1806.23 1101.19H1887.23C1887.23 1091.16 1887.23 1000.52 1886.95 990.526C1886.32 955.63 1874.4 921.876 1852.98 894.329C1831.56 866.782 1801.78 846.925 1768.12 837.738C1760.65 835.657 1753.08 833.892 1745.55 832H1238.34C1237.06 832.807 1235.67 833.433 1234.21 833.86C1193.24 839.283 1157.91 856.561 1126.48 883.108C1082.92 919.87 1038.83 956.002 995.047 992.512C945.593 1033.78 920.284 1086.88 920.22 1151.2C919.947 1393.02 919.947 1634.85 920.22 1876.7C920.22 1969.46 991.391 2040.24 1084.12 2040.3H1255.74C1255.74 2013.44 1255.74 1986.56 1255.74 1959.65L1085.38 1959.62Z" fill="#64728C"/>
<path d="M2141.68 1179.19C2141.09 1144.33 2129.23 1110.59 2107.86 1083.04C2086.5 1055.48 2056.78 1035.59 2023.17 1026.34C2015.7 1024.29 2008.14 1022.53 2000.6 1020.64H1886.95C1886.95 1038.92 1886.95 1057.21 1886.95 1075.53V1101.25H1973.97C2027.17 1101.38 2060.99 1134.9 2060.99 1188.27C2061.14 1334.19 2061.14 1480.1 2060.99 1626.02C2060.99 1770.73 2060.99 1915.46 2060.99 2060.2C2060.99 2103.33 2039.09 2134.54 2001.8 2145.07C1993.45 2147.3 1984.82 2148.36 1976.18 2148.22C1764.28 2148.22 1552.37 2148.22 1340.43 2148.22C1290.57 2148.22 1255.62 2113.54 1255.58 2063.66V2040.3H1175.3V2065.34C1175.3 2158.06 1246.48 2228.87 1339.2 2228.91C1552.27 2229.03 1765.34 2229.03 1978.41 2228.91C1990.6 2229.02 2002.76 2227.76 2014.66 2225.15C2091.57 2207.78 2142.03 2143.59 2142.06 2062.72C2142.06 1796.49 2142.06 1530.26 2142.06 1264.04C2141.84 1235.82 2142.25 1207.51 2141.68 1179.19Z" fill="#64728C"/>
<path d="M1255.59 1339.26C1255.59 1300.04 1271.35 1267.73 1301.76 1242.69C1346.74 1205.8 1391.78 1168.95 1436.47 1131.71C1460.7 1111.21 1491.55 1100.23 1523.28 1100.84C1617.48 1101.08 1711.7 1101.19 1805.94 1101.19C1805.94 1074.33 1805.94 1047.48 1805.94 1020.64H1493.34C1492.04 1021.45 1490.64 1022.07 1489.17 1022.5C1448.2 1027.92 1412.9 1045.16 1381.47 1071.71C1337.95 1108.51 1293.85 1144.61 1250.07 1181.12C1200.52 1222.42 1175.31 1275.48 1175.31 1339.8C1175.05 1546.42 1175.05 1753.03 1175.31 1959.65H1255.68C1255.49 1752.85 1255.46 1546.05 1255.59 1339.26Z" fill="#64728C"/>
<path d="M1658.34 1776.85C1739.28 1776.85 1820.18 1776.85 1901.04 1776.85C1925.87 1776.85 1943.97 1793.59 1944.03 1816.98C1944.09 1840.38 1926.16 1857.5 1901.29 1857.53C1831.76 1857.53 1762.2 1857.53 1692.63 1857.53C1600.7 1857.53 1508.76 1857.53 1416.81 1857.53C1390.96 1857.53 1372.68 1840.95 1372.68 1817.24C1372.68 1793.53 1390.87 1776.82 1416.55 1776.88C1497.08 1777.01 1577.63 1777.01 1658.21 1776.88L1658.34 1776.85Z" fill="#64728C"/>
<path d="M1658.34 1940.07C1739.28 1940.07 1820.18 1940.07 1901.04 1940.07C1925.87 1940.07 1943.96 1956.81 1944.03 1980.21C1944.09 2003.6 1926.28 2020.63 1901.41 2020.63C1831.88 2020.63 1762.33 2020.63 1692.76 2020.63H1416.93C1391.09 2020.63 1372.8 2004.04 1372.8 1980.33C1372.8 1956.62 1390.99 1939.95 1416.68 1939.98C1497.2 1940.1 1577.75 1940.1 1658.34 1939.98V1940.07Z" fill="#64728C"/>
<path d="M1662.15 1704.27C1582.31 1704.27 1502.51 1704.27 1422.61 1704.27C1389.73 1704.27 1370 1671.51 1386.14 1644.18C1394.43 1630.11 1407.26 1623.84 1423.55 1623.87C1482.54 1624 1541.52 1624 1600.5 1623.87H1901.32C1926.13 1623.87 1944.25 1640.77 1944.31 1664.17C1944.38 1687.56 1926.82 1704.36 1901.54 1704.36C1821.69 1704.36 1741.84 1704.36 1662 1704.36L1662.15 1704.27Z" fill="#64728C"/>
<path d="M1859.71 1338C1859.71 1377.29 1859.71 1416.57 1859.71 1455.86C1859.71 1482.21 1843.45 1500.41 1820.13 1500.66C1796.8 1500.91 1779.43 1482.06 1779.4 1455.45C1779.28 1376.12 1779.28 1296.77 1779.4 1217.41C1779.4 1192.62 1796.55 1174.78 1820 1174.84C1843.45 1174.91 1859.87 1192.5 1859.9 1217.78V1338H1859.71Z" fill="#64728C"/>
<path d="M1618.43 1380.98C1618.43 1355.44 1618.43 1329.87 1618.43 1304.33C1618.43 1280.65 1636.37 1262.46 1658.87 1262.74C1664.19 1262.83 1669.44 1263.96 1674.32 1266.08C1679.2 1268.2 1683.61 1271.25 1687.31 1275.08C1691.01 1278.9 1693.91 1283.42 1695.86 1288.37C1697.82 1293.32 1698.77 1298.6 1698.68 1303.92C1698.85 1355.4 1698.85 1406.89 1698.68 1458.41C1698.68 1482.4 1681.06 1500.6 1658.71 1500.69C1636.37 1500.78 1618.65 1482.78 1618.46 1458.85C1618.28 1432.84 1618.43 1406.89 1618.43 1380.98Z" fill="#64728C"/>
<path d="M1537.78 1397.31C1537.78 1418.15 1538.28 1439.02 1537.78 1459.83C1537.12 1481.36 1523.41 1496.78 1503.3 1500.22C1485.61 1503.21 1466.99 1492.05 1460.11 1474.55C1458.09 1468.58 1457.2 1462.28 1457.5 1455.98C1457.5 1416.26 1457.25 1376.53 1457.5 1336.8C1457.5 1313.19 1474.27 1295.82 1496.74 1295.28C1519.88 1294.87 1537.49 1312.02 1538.16 1335.95C1538.44 1346.17 1538.16 1356.38 1538.16 1366.63V1397.31H1537.78Z" fill="#64728C"/>
</g>
<defs>
<clipPath id="clip0_25_291">
<rect width="1222" height="1397" fill="white" transform="translate(920 832)"/>
</clipPath>
</defs>
</svg>
