<svg width="3062" height="3062" viewBox="0 0 3062 3062" fill="none" xmlns="http://www.w3.org/2000/svg">
<path d="M1670.86 958.765C1736.99 891.834 1821.56 865.579 1902.78 887.651C1981.81 909.029 2046.48 974.14 2068.31 1053.81L2068.82 1055.69L2068.82 1055.7C2090.54 1137.96 2064.73 1223.56 1998.67 1290.5L1998.67 1290.5L1384.75 1912.12L1384.75 1912.12C1349.11 1948.23 1308.45 1969.93 1267.27 1974.3L1267.27 1974.29C1226.42 1978.66 1187.28 1965.43 1159.8 1937.61L1159.79 1937.6C1109.84 1886.82 1103.74 1792.73 1184.69 1710.84L1615.88 1274.25L1616.34 1273.79C1636.05 1254.36 1667.61 1254.52 1687.13 1274.25C1706.77 1294.11 1706.77 1326.35 1687.13 1346.21L1687.13 1346.21L1255.88 1782.86L1255.88 1782.86C1237.71 1801.22 1228.13 1818.84 1224.86 1833.43C1221.58 1848.02 1224.65 1859.13 1231.05 1865.64C1236.72 1871.31 1245.62 1874.27 1256.63 1873.02L1256.68 1873.02C1273.69 1871.27 1293.95 1859.84 1313.5 1840.16L1927.41 1218.61C1968.6 1176.91 1983.86 1128.5 1971.58 1082.18C1965.4 1059.34 1953.42 1038.48 1936.8 1021.64C1920.18 1004.8 1899.49 992.546 1876.74 986.059C1831.08 973.685 1783.23 989.156 1742.05 1030.85L1742.05 1030.85L1100.14 1680.79C1041.22 1740.46 1019.1 1804.29 1020.92 1862.56C1022.73 1920.93 1048.59 1974.16 1086.38 2012.43L1088.16 2014.22C1125.85 2051.52 1177.63 2076.92 1234.31 2078.74C1291.77 2080.58 1354.76 2058.21 1413.72 1998.47L1413.72 1998.47L2055.62 1348.53C2060.27 1343.81 2065.82 1340.05 2071.93 1337.49C2078.05 1334.92 2084.62 1333.6 2091.25 1333.6C2097.88 1333.6 2104.45 1334.92 2110.57 1337.49C2116.5 1339.97 2121.89 1343.58 2126.45 1348.1L2126.88 1348.54C2136.33 1358.14 2141.62 1371.07 2141.62 1384.54C2141.62 1398.01 2136.33 1410.94 2126.88 1420.54L2126.88 1420.55L1484.97 2070.49L1484.97 2070.49C1408.44 2147.89 1322.43 2180.63 1241.19 2180.63C1154.61 2180.63 1073.61 2143.48 1015.19 2084.32V2084.32C901.828 1969.55 870.405 1769.19 1028.96 1608.71L1670.86 958.766L1670.86 958.765Z" fill="#64728C" stroke="#64728C" stroke-width="10"/>
</svg>
