<svg width="3063" height="3062" viewBox="0 0 3063 3062" fill="none" xmlns="http://www.w3.org/2000/svg">
<g clip-path="url(#clip0_40_811)">
<path d="M993.912 1024.67C993.912 1007.31 1007.99 993.23 1025.35 993.23H1258.81C1284.43 993.23 1305.19 972.465 1305.19 946.849C1305.19 921.234 1284.43 900.469 1258.81 900.469H1025.35C956.757 900.469 901.15 956.075 901.15 1024.67V1258.13C901.15 1283.74 921.916 1304.51 947.531 1304.51C973.147 1304.51 993.912 1283.74 993.912 1258.13V1024.67ZM1803.55 900.469C1777.93 900.469 1757.17 921.234 1757.17 946.849C1757.17 972.465 1777.93 993.23 1803.55 993.23H2037.01C2054.37 993.23 2068.45 1007.31 2068.45 1024.67V1258.13C2068.45 1283.74 2089.21 1304.51 2114.83 1304.51C2140.45 1304.51 2161.21 1283.74 2161.21 1258.13V1024.67C2161.21 956.075 2105.6 900.469 2037.01 900.469H1803.55ZM993.912 1802.87C993.912 1777.25 973.147 1756.49 947.531 1756.49C921.916 1756.49 901.15 1777.25 901.15 1802.87V2036.32C901.15 2104.92 956.757 2160.53 1025.35 2160.53H1258.81C1284.43 2160.53 1305.19 2139.76 1305.19 2114.15C1305.19 2088.53 1284.43 2067.77 1258.81 2067.77H1025.35C1007.99 2067.77 993.912 2053.69 993.912 2036.32V1802.87ZM2161.21 1802.87C2161.21 1777.25 2140.45 1756.49 2114.83 1756.49C2089.21 1756.49 2068.45 1777.25 2068.45 1802.87V2036.32C2068.45 2053.69 2054.37 2067.77 2037.01 2067.77H1803.55C1777.93 2067.77 1757.17 2088.53 1757.17 2114.15C1757.17 2139.76 1777.93 2160.53 1803.55 2160.53H2037.01C2105.6 2160.53 2161.21 2104.92 2161.21 2036.32V1802.87Z" fill="#64728C"/>
<path d="M947.531 1750.99C976.184 1750.99 999.412 1774.21 999.412 1802.87V2036.32C999.412 2050.65 1011.03 2062.27 1025.35 2062.27H1258.81C1287.46 2062.27 1310.69 2085.49 1310.69 2114.15C1310.69 2142.8 1287.46 2166.03 1258.81 2166.03H1025.35C953.719 2166.03 895.65 2107.96 895.65 2036.32V1802.87C895.65 1774.21 918.878 1750.99 947.531 1750.99ZM2114.83 1750.99C2143.48 1750.99 2166.71 1774.21 2166.71 1802.87V2036.32C2166.71 2107.96 2108.64 2166.03 2037.01 2166.03H1803.55C1774.9 2166.03 1751.67 2142.8 1751.67 2114.15C1751.67 2085.49 1774.89 2062.27 1803.55 2062.27H2037.01C2051.34 2062.27 2062.95 2050.65 2062.95 2036.32V1802.87C2062.95 1774.21 2086.17 1750.99 2114.83 1750.99ZM1258.81 894.969C1287.46 894.969 1310.69 918.197 1310.69 946.85C1310.69 975.503 1287.46 998.73 1258.81 998.73H1025.35C1011.02 998.731 999.412 1010.34 999.412 1024.67V1258.13C999.412 1286.78 976.184 1310.01 947.531 1310.01C918.878 1310.01 895.651 1286.78 895.65 1258.13V1024.67C895.651 953.038 953.719 894.969 1025.35 894.969H1258.81ZM2037.01 894.969C2108.64 894.969 2166.71 953.037 2166.71 1024.67V1258.13C2166.71 1286.78 2143.48 1310.01 2114.83 1310.01C2086.17 1310.01 2062.95 1286.78 2062.95 1258.13V1024.67C2062.95 1010.34 2051.34 998.73 2037.01 998.73H1803.55C1774.89 998.73 1751.67 975.503 1751.67 946.85C1751.67 918.197 1774.89 894.969 1803.55 894.969H2037.01Z" fill="#64728C" stroke="#64728C" stroke-width="11"/>
<path d="M1533.61 1532.93C1622.93 1532.93 1695.33 1460.53 1695.33 1371.21C1695.33 1281.9 1622.93 1209.49 1533.61 1209.49C1444.3 1209.49 1371.89 1281.9 1371.89 1371.21C1371.89 1460.53 1444.3 1532.93 1533.61 1532.93ZM1641.42 1371.21C1641.42 1430.75 1593.16 1479.03 1533.61 1479.03C1474.07 1479.03 1425.8 1430.75 1425.8 1371.21C1425.8 1311.67 1474.07 1263.4 1533.61 1263.4C1593.16 1263.4 1641.42 1311.67 1641.42 1371.21Z" fill="#64728C"/>
<path d="M1857.05 1802.46C1857.05 1856.37 1803.14 1856.37 1803.14 1856.37H1264.08C1264.08 1856.37 1210.17 1856.37 1210.17 1802.46C1210.17 1748.56 1264.08 1586.84 1533.61 1586.84C1803.14 1586.84 1857.05 1748.56 1857.05 1802.46ZM1803.14 1802.27C1803.06 1788.97 1794.86 1749.12 1758.29 1712.56C1723.13 1677.39 1657.01 1640.74 1533.61 1640.74C1410.21 1640.74 1344.1 1677.39 1308.94 1712.56C1272.37 1749.12 1264.16 1788.97 1264.08 1802.27H1803.14Z" fill="#64728C"/>
<path fill-rule="evenodd" clip-rule="evenodd" d="M1533.61 1224.08C1452.35 1224.08 1386.48 1289.96 1386.48 1371.21C1386.48 1452.47 1452.35 1518.34 1533.61 1518.34C1614.87 1518.34 1680.74 1452.47 1680.74 1371.21C1680.74 1289.96 1614.87 1224.08 1533.61 1224.08ZM1357.3 1371.21C1357.3 1273.84 1436.24 1194.9 1533.61 1194.9C1630.98 1194.9 1709.92 1273.84 1709.92 1371.21C1709.92 1468.59 1630.98 1547.52 1533.61 1547.52C1436.24 1547.52 1357.3 1468.59 1357.3 1371.21ZM1411.21 1371.21C1411.21 1303.61 1466.01 1248.81 1533.61 1248.81C1601.22 1248.81 1656.02 1303.61 1656.02 1371.21C1656.02 1438.81 1601.22 1493.61 1533.61 1493.61C1466.01 1493.61 1411.21 1438.81 1411.21 1371.21ZM1533.61 1277.99C1482.13 1277.99 1440.39 1319.73 1440.39 1371.21C1440.39 1422.7 1482.13 1464.43 1533.61 1464.43C1585.1 1464.43 1626.83 1422.7 1626.83 1371.21C1626.83 1319.73 1585.1 1277.99 1533.61 1277.99ZM1260.5 1664.12C1310.92 1613.7 1395.77 1572.25 1533.61 1572.25C1671.45 1572.25 1756.31 1613.7 1806.72 1664.12C1856.71 1714.11 1871.64 1771.76 1871.64 1802.46C1871.64 1818.5 1867.59 1831.48 1860.77 1841.72C1854 1851.86 1845.09 1858.45 1836.62 1862.68C1828.21 1866.89 1819.98 1868.92 1813.97 1869.92C1810.93 1870.43 1808.36 1870.69 1806.5 1870.82C1805.57 1870.89 1804.8 1870.92 1804.23 1870.94C1803.95 1870.95 1803.72 1870.96 1803.53 1870.96H1803.3H1803.21H1803.17H1803.16C1803.16 1870.96 1803.14 1870.96 1803.14 1856.37V1870.96H1264.08V1856.37C1264.08 1870.96 1264.06 1870.96 1264.06 1870.96H1264.05H1264.01H1263.92H1263.69C1263.51 1870.96 1263.27 1870.95 1262.99 1870.94C1262.42 1870.92 1261.66 1870.89 1260.72 1870.82C1258.86 1870.69 1256.3 1870.43 1253.26 1869.92C1247.25 1868.92 1239.01 1866.89 1230.6 1862.68C1222.13 1858.45 1213.22 1851.86 1206.46 1841.72C1199.63 1831.48 1195.58 1818.5 1195.58 1802.46C1195.58 1771.76 1210.51 1714.11 1260.5 1664.12ZM1281.14 1684.76C1236.79 1729.1 1224.76 1779.26 1224.76 1802.46C1224.76 1813.39 1227.45 1820.61 1230.74 1825.53C1234.08 1830.55 1238.64 1834.08 1243.65 1836.58C1248.72 1839.11 1253.96 1840.45 1258.06 1841.14C1260.07 1841.47 1261.72 1841.64 1262.8 1841.71C1263.34 1841.75 1263.74 1841.76 1263.96 1841.77C1264.05 1841.78 1264.12 1841.78 1264.15 1841.78H1803.08C1803.11 1841.78 1803.17 1841.78 1803.26 1841.77C1803.49 1841.76 1803.88 1841.75 1804.42 1841.71C1805.51 1841.64 1807.15 1841.47 1809.17 1841.14C1813.27 1840.45 1818.51 1839.11 1823.57 1836.58C1828.58 1834.08 1833.14 1830.55 1836.49 1825.53C1839.77 1820.61 1842.46 1813.39 1842.46 1802.46C1842.46 1779.26 1830.43 1729.1 1786.09 1684.76C1742.17 1640.84 1665.3 1601.43 1533.61 1601.43C1401.92 1601.43 1325.05 1640.84 1281.14 1684.76ZM1533.61 1655.34C1413.3 1655.34 1351.17 1690.96 1319.25 1722.87C1295.45 1746.67 1285.07 1771.65 1280.99 1787.69H1786.23C1782.16 1771.65 1771.77 1746.67 1747.97 1722.87C1716.05 1690.96 1653.92 1655.34 1533.61 1655.34ZM1298.62 1702.24C1337.02 1663.83 1407.13 1626.16 1533.61 1626.16C1660.09 1626.16 1730.2 1663.83 1768.6 1702.24C1807.99 1741.62 1817.64 1785.2 1817.74 1802.19L1817.82 1816.87H1249.4L1249.49 1802.19C1249.59 1785.2 1259.23 1741.62 1298.62 1702.24Z" fill="#64728C"/>
</g>
<defs>
<clipPath id="clip0_40_811">
<rect width="1275" height="1275" fill="white" transform="translate(893.68 893)"/>
</clipPath>
</defs>
</svg>
