<svg width="3062" height="3062" viewBox="0 0 3062 3062" fill="none" xmlns="http://www.w3.org/2000/svg">
<g clip-path="url(#clip0_40_740)">
<path d="M1052.38 1689.88H1291.44C1312.57 1689.88 1332.84 1698.27 1347.78 1713.21C1362.73 1728.16 1371.12 1748.43 1371.12 1769.56V2008.62C1371.12 2029.76 1362.73 2050.03 1347.78 2064.97C1332.84 2079.92 1312.57 2088.31 1291.44 2088.31H1052.38C1031.24 2088.31 1010.97 2079.92 996.028 2064.97C981.083 2050.03 972.688 2029.76 972.688 2008.62V1769.56C972.688 1748.43 981.083 1728.16 996.028 1713.21C1010.97 1698.27 1031.24 1689.88 1052.38 1689.88ZM1769.56 972.688H2008.62C2029.76 972.688 2050.03 981.083 2064.97 996.028C2079.92 1010.97 2088.31 1031.24 2088.31 1052.38V1291.44C2088.31 1312.57 2079.92 1332.84 2064.97 1347.78C2050.03 1362.73 2029.76 1371.12 2008.62 1371.12H1769.56C1748.43 1371.12 1728.16 1362.73 1713.21 1347.78C1698.27 1332.84 1689.88 1312.57 1689.88 1291.44V1052.38C1689.88 1031.24 1698.27 1010.97 1713.21 996.028C1728.16 981.083 1748.43 972.688 1769.56 972.688ZM1769.56 1689.88C1748.43 1689.88 1728.16 1698.27 1713.21 1713.21C1698.27 1728.16 1689.88 1748.43 1689.88 1769.56V2008.62C1689.88 2029.76 1698.27 2050.03 1713.21 2064.97C1728.16 2079.92 1748.43 2088.31 1769.56 2088.31H2008.62C2029.76 2088.31 2050.03 2079.92 2064.97 2064.97C2079.92 2050.03 2088.31 2029.76 2088.31 2008.62V1769.56C2088.31 1748.43 2079.92 1728.16 2064.97 1713.21C2050.03 1698.27 2029.76 1689.88 2008.62 1689.88H1769.56ZM1769.56 893C1727.29 893 1686.75 909.791 1656.87 939.68C1626.98 969.568 1610.19 1010.11 1610.19 1052.38V1291.44C1610.19 1333.71 1626.98 1374.24 1656.87 1404.13C1686.75 1434.02 1727.29 1450.81 1769.56 1450.81H2008.62C2050.89 1450.81 2091.43 1434.02 2121.32 1404.13C2151.21 1374.24 2168 1333.71 2168 1291.44V1052.38C2168 1010.11 2151.21 969.568 2121.32 939.68C2091.43 909.791 2050.89 893 2008.62 893H1769.56ZM1052.38 1610.19C1010.11 1610.19 969.568 1626.98 939.68 1656.87C909.791 1686.75 893 1727.29 893 1769.56V2008.62C893 2050.89 909.791 2091.43 939.68 2121.32C969.568 2151.21 1010.11 2168 1052.38 2168H1291.44C1333.71 2168 1374.24 2151.21 1404.13 2121.32C1434.02 2091.43 1450.81 2050.89 1450.81 2008.62V1769.56C1450.81 1727.29 1434.02 1686.75 1404.13 1656.87C1374.24 1626.98 1333.71 1610.19 1291.44 1610.19H1052.38ZM1610.19 1769.56C1610.19 1727.29 1626.98 1686.75 1656.87 1656.87C1686.75 1626.98 1727.29 1610.19 1769.56 1610.19H2008.62C2050.89 1610.19 2091.43 1626.98 2121.32 1656.87C2151.21 1686.75 2168 1727.29 2168 1769.56V2008.62C2168 2050.89 2151.21 2091.43 2121.32 2121.32C2091.43 2151.21 2050.89 2168 2008.62 2168H1769.56C1727.29 2168 1686.75 2151.21 1656.87 2121.32C1626.98 2091.43 1610.19 2050.89 1610.19 2008.62V1769.56ZM893 1052.38C893 1010.11 909.791 969.568 939.68 939.68C969.568 909.791 1010.11 893 1052.38 893H1291.44C1333.71 893 1374.24 909.791 1404.13 939.68C1434.02 969.568 1450.81 1010.11 1450.81 1052.38V1291.44C1450.81 1333.71 1434.02 1374.24 1404.13 1404.13C1374.24 1434.02 1333.71 1450.81 1291.44 1450.81H1052.38C1010.11 1450.81 969.568 1434.02 939.68 1404.13C909.791 1374.24 893 1333.71 893 1291.44V1052.38ZM1319.65 1120.43C1323.35 1116.72 1326.29 1112.33 1328.29 1107.49C1330.3 1102.65 1331.33 1097.46 1331.33 1092.22C1331.33 1086.98 1330.3 1081.79 1328.29 1076.95C1326.29 1072.11 1323.35 1067.71 1319.65 1064.01C1315.94 1060.3 1311.54 1057.37 1306.7 1055.36C1301.86 1053.36 1296.68 1052.32 1291.44 1052.32C1286.2 1052.32 1281.01 1053.36 1276.17 1055.36C1271.33 1057.37 1266.93 1060.3 1263.23 1064.01L1132.06 1195.25L1080.58 1143.7C1076.88 1139.99 1072.48 1137.05 1067.64 1135.05C1062.8 1133.04 1057.61 1132.01 1052.38 1132.01C1047.14 1132.01 1041.95 1133.04 1037.11 1135.05C1032.27 1137.05 1027.87 1139.99 1024.17 1143.7C1020.46 1147.4 1017.52 1151.8 1015.52 1156.64C1013.51 1161.48 1012.48 1166.67 1012.48 1171.91C1012.48 1177.14 1013.51 1182.33 1015.52 1187.17C1017.52 1192.01 1020.46 1196.41 1024.17 1200.12L1103.85 1279.8C1107.55 1283.51 1111.95 1286.46 1116.79 1288.47C1121.63 1290.47 1126.82 1291.51 1132.06 1291.51C1137.3 1291.51 1142.49 1290.47 1147.33 1288.47C1152.17 1286.46 1156.57 1283.51 1160.27 1279.8L1319.65 1120.43Z" fill="#64728C"/>
</g>
<defs>
<clipPath id="clip0_40_740">
<rect width="1275" height="1275" fill="white" transform="translate(893 893)"/>
</clipPath>
</defs>
</svg>
