<svg width="3062" height="3062" viewBox="0 0 3062 3062" fill="none" xmlns="http://www.w3.org/2000/svg">
<path d="M1530.5 924.875C1178.98 924.875 893 1182.26 893 1498.62C893 1609.21 927.978 1716.33 994.32 1808.96C981.761 1947.87 948.101 2051 899.226 2099.85C896.079 2103 894.002 2107.06 893.288 2111.46C892.573 2115.85 893.258 2120.36 895.245 2124.35C897.232 2128.33 900.42 2131.59 904.361 2133.67C908.301 2135.74 912.793 2136.53 917.204 2135.91C925.81 2134.7 1125.73 2105.93 1270.34 2022.46C1352.45 2055.59 1439.91 2072.38 1530.5 2072.38C1882.02 2072.38 2168 1814.99 2168 1498.62C2168 1182.26 1882.02 924.875 1530.5 924.875ZM1233 1583.62C1186.12 1583.62 1148 1545.5 1148 1498.62C1148 1451.75 1186.12 1413.62 1233 1413.62C1279.88 1413.62 1318 1451.75 1318 1498.62C1318 1545.5 1279.88 1583.62 1233 1583.62ZM1530.5 1583.62C1483.62 1583.62 1445.5 1545.5 1445.5 1498.62C1445.5 1451.75 1483.62 1413.62 1530.5 1413.62C1577.38 1413.62 1615.5 1451.75 1615.5 1498.62C1615.5 1545.5 1577.38 1583.62 1530.5 1583.62ZM1828 1583.62C1781.12 1583.62 1743 1545.5 1743 1498.62C1743 1451.75 1781.12 1413.62 1828 1413.62C1874.88 1413.62 1913 1451.75 1913 1498.62C1913 1545.5 1874.88 1583.62 1828 1583.62Z" fill="#64728C"/>
</svg>
