<svg width="3062" height="3062" viewBox="0 0 3062 3062" fill="none" xmlns="http://www.w3.org/2000/svg">
<path d="M1957.15 2212.69H1104.85C1034.1 2212.69 977 2155.59 977 2084.85V976.846C977 906.105 1034.1 849 1104.85 849H1709.13C1743.22 849 1775.61 862.637 1799.48 886.502L2047.5 1134.52C2071.36 1158.39 2085 1190.78 2085 1224.87V2084.85C2085 2155.59 2027.9 2212.69 1957.15 2212.69ZM1104.85 934.231C1080.98 934.231 1062.23 952.982 1062.23 976.846V2084.85C1062.23 2108.71 1080.98 2127.46 1104.85 2127.46H1957.15C1981.02 2127.46 1999.77 2108.71 1999.77 2084.85V1224.87C1999.84 1219.28 1998.74 1213.74 1996.53 1208.6C1994.33 1203.46 1991.08 1198.84 1986.98 1195.04L1738.96 947.015C1731.09 938.986 1720.37 934.391 1709.13 934.231H1104.85Z" fill="#64728C"/>
<path d="M2032.15 1275.16H1784.13C1715.1 1275.16 1658.84 1218.91 1658.84 1149.87V901.853C1658.84 877.988 1677.59 859.237 1701.46 859.237C1725.32 859.237 1744.07 877.988 1744.07 901.853V1149.87C1744.07 1172.03 1761.97 1189.93 1784.13 1189.93H2032.15C2056.02 1189.93 2074.77 1208.68 2074.77 1232.55C2074.77 1256.41 2056.02 1275.16 2032.15 1275.16Z" fill="#64728C"/>
<path d="M1744.09 1793L1798.23 1963.19H1800.3L1854.55 1793H1907.05L1829.84 2017H1768.8L1691.48 1793H1744.09Z" fill="#64728C"/>
<path d="M1570.95 1857.42C1570.07 1848.6 1566.32 1841.74 1559.68 1836.86C1553.04 1831.97 1544.04 1829.53 1532.66 1829.53C1524.93 1829.53 1518.41 1830.63 1513.09 1832.81C1507.76 1834.93 1503.68 1837.88 1500.84 1841.67C1498.07 1845.46 1496.68 1849.77 1496.68 1854.58C1496.53 1858.59 1497.37 1862.09 1499.2 1865.08C1501.09 1868.07 1503.68 1870.66 1506.96 1872.84C1510.24 1874.96 1514.03 1876.82 1518.34 1878.42C1522.64 1879.95 1527.23 1881.27 1532.12 1882.36L1552.24 1887.17C1562.01 1889.36 1570.98 1892.28 1579.15 1895.92C1587.32 1899.57 1594.39 1904.05 1600.37 1909.38C1606.35 1914.7 1610.98 1920.97 1614.26 1928.19C1617.61 1935.41 1619.33 1943.68 1619.4 1953.02C1619.33 1966.72 1615.83 1978.61 1608.9 1988.67C1602.04 1998.66 1592.13 2006.43 1579.15 2011.97C1566.24 2017.44 1550.67 2020.17 1532.45 2020.17C1514.36 2020.17 1498.61 2017.4 1485.2 2011.86C1471.85 2006.32 1461.42 1998.11 1453.91 1987.25C1446.48 1976.31 1442.58 1962.79 1442.21 1946.67H1488.04C1488.55 1954.18 1490.7 1960.45 1494.49 1965.48C1498.36 1970.44 1503.5 1974.2 1509.91 1976.75C1516.4 1979.23 1523.73 1980.47 1531.9 1980.47C1539.92 1980.47 1546.88 1979.3 1552.79 1976.97C1558.77 1974.64 1563.4 1971.39 1566.68 1967.23C1569.96 1963.08 1571.6 1958.3 1571.6 1952.91C1571.6 1947.87 1570.11 1943.65 1567.12 1940.22C1564.2 1936.79 1559.9 1933.88 1554.21 1931.47C1548.6 1929.06 1541.71 1926.87 1533.54 1924.91L1509.15 1918.78C1490.26 1914.19 1475.35 1907.01 1464.41 1897.23C1453.48 1887.46 1448.04 1874.3 1448.12 1857.75C1448.04 1844.19 1451.65 1832.34 1458.95 1822.2C1466.31 1812.07 1476.41 1804.16 1489.24 1798.47C1502.08 1792.78 1516.66 1789.94 1532.99 1789.94C1549.62 1789.94 1564.13 1792.78 1576.52 1798.47C1588.99 1804.16 1598.69 1812.07 1605.62 1822.2C1612.54 1832.34 1616.12 1844.08 1616.34 1857.42H1570.95Z" fill="#64728C"/>
<path d="M1363.11 1871.42H1315.2C1314.33 1865.22 1312.54 1859.72 1309.84 1854.91C1307.15 1850.02 1303.68 1845.86 1299.45 1842.44C1295.22 1839.01 1290.34 1836.39 1284.8 1834.56C1279.33 1832.74 1273.39 1831.83 1266.97 1831.83C1255.38 1831.83 1245.28 1834.71 1236.67 1840.47C1228.07 1846.16 1221.4 1854.47 1216.66 1865.41C1211.92 1876.27 1209.55 1889.47 1209.55 1905C1209.55 1920.97 1211.92 1934.39 1216.66 1945.25C1221.47 1956.11 1228.18 1964.32 1236.78 1969.86C1245.39 1975.4 1255.34 1978.17 1266.64 1978.17C1272.98 1978.17 1278.85 1977.33 1284.25 1975.66C1289.72 1973.98 1294.57 1971.54 1298.8 1968.33C1303.03 1965.05 1306.53 1961.07 1309.3 1956.41C1312.14 1951.74 1314.11 1946.42 1315.2 1940.44L1363.11 1940.66C1361.87 1950.94 1358.77 1960.85 1353.81 1970.41C1348.93 1979.89 1342.33 1988.38 1334.02 1995.89C1325.78 2003.33 1315.93 2009.23 1304.48 2013.61C1293.11 2017.91 1280.24 2020.06 1265.88 2020.06C1245.9 2020.06 1228.03 2015.54 1212.28 2006.5C1196.6 1997.46 1184.21 1984.37 1175.09 1967.23C1166.05 1950.1 1161.53 1929.35 1161.53 1905C1161.53 1880.57 1166.13 1859.79 1175.31 1842.66C1184.5 1825.52 1196.97 1812.47 1212.72 1803.5C1228.47 1794.46 1246.19 1789.94 1265.88 1789.94C1278.85 1789.94 1290.89 1791.76 1301.97 1795.41C1313.12 1799.05 1323.01 1804.37 1331.61 1811.37C1340.21 1818.3 1347.21 1826.8 1352.61 1836.86C1358.08 1846.92 1361.58 1858.44 1363.11 1871.42Z" fill="#64728C"/>
</svg>
