<svg width="3062" height="3062" viewBox="0 0 3062 3062" fill="none" xmlns="http://www.w3.org/2000/svg">
<path d="M1435.64 1963.41L826.752 1266.57C804.201 1239.51 794.052 1209.06 796.308 1175.23C798.563 1141.41 810.966 1113.22 833.517 1090.67C856.069 1068.11 885.386 1056.84 921.468 1056.84H2139.25C2161.8 1056.84 2184.35 1063.6 2206.9 1077.13C2229.45 1090.67 2245.24 1108.71 2254.26 1131.26C2263.28 1153.81 2266.66 1177.49 2264.41 1202.3C2262.15 1227.1 2252 1248.53 2233.96 1266.57L1625.07 1963.41C1602.52 1990.47 1570.95 2004 1530.36 2004C1489.77 2004 1458.19 1990.47 1435.64 1963.41Z" fill="#64728C"/>
</svg>
