<svg width="3062" height="3062" viewBox="0 0 3062 3062" fill="none" xmlns="http://www.w3.org/2000/svg">
<path d="M1530.5 1987.14C1518.51 1987.21 1506.63 1984.92 1495.53 1980.39C1484.43 1975.86 1474.33 1969.18 1465.82 1960.74L1101.56 1596.45C1086.6 1579.04 1078.78 1556.62 1079.65 1533.68C1080.52 1510.74 1090.02 1488.98 1106.25 1472.75C1122.48 1456.52 1144.24 1447.01 1167.18 1446.14C1190.12 1445.26 1212.54 1453.08 1229.96 1468.03L1530.5 1767.65L1830.12 1468.03C1847.54 1453.08 1869.96 1445.26 1892.9 1446.14C1915.84 1447.01 1937.6 1456.52 1953.83 1472.75C1970.06 1488.98 1979.56 1510.74 1980.43 1533.68C1981.3 1556.62 1973.48 1579.04 1958.52 1596.45L1594.24 1960.74C1577.28 1977.55 1554.39 1987.04 1530.5 1987.14Z" fill="#64728C"/>
<path d="M1530.5 1850.54C1509.36 1850.54 1489.09 1842.14 1474.15 1827.2C1459.2 1812.25 1450.81 1791.98 1450.81 1770.85V973.983C1450.64 963.411 1452.57 952.91 1456.5 943.092C1460.43 933.275 1466.27 924.337 1473.68 916.8C1481.1 909.262 1489.94 903.276 1499.69 899.19C1509.45 895.104 1519.92 893 1530.49 893C1541.06 893 1551.53 895.104 1561.28 899.19C1571.04 903.276 1579.88 909.262 1587.3 916.8C1594.71 924.337 1600.55 933.275 1604.48 943.092C1608.41 952.91 1610.34 963.411 1610.17 973.983V1770.85C1610.17 1791.98 1601.78 1812.25 1586.84 1827.19C1571.9 1842.14 1551.63 1850.54 1530.5 1850.54ZM2088.31 2169.29H972.693C951.557 2169.29 931.287 2160.89 916.341 2145.95C901.396 2131 893 2110.73 893 2089.6C893 2068.46 901.396 2048.19 916.341 2033.25C931.287 2018.3 951.557 2009.91 972.693 2009.91H2088.31C2109.44 2009.91 2129.71 2018.3 2144.66 2033.25C2159.6 2048.19 2168 2068.46 2168 2089.6C2168 2110.73 2159.6 2131 2144.66 2145.95C2129.71 2160.89 2109.44 2169.29 2088.31 2169.29Z" fill="#64728C"/>
</svg>
