<svg width="3062" height="3062" viewBox="0 0 3062 3062" fill="none" xmlns="http://www.w3.org/2000/svg">
<path d="M893 1902.4V2168H1158.6L1941.93 1384.67L1676.33 1119.07L893 1902.4ZM2147.33 1179.27C2153.89 1172.72 2159.1 1164.94 2162.65 1156.37C2166.21 1147.8 2168.04 1138.62 2168.04 1129.34C2168.04 1120.06 2166.21 1110.88 2162.65 1102.31C2159.1 1093.74 2153.89 1085.96 2147.33 1079.41L1981.59 913.675C1975.04 907.109 1967.26 901.9 1958.69 898.345C1950.12 894.791 1940.94 892.962 1931.66 892.962C1922.39 892.962 1913.2 894.791 1904.63 898.345C1896.06 901.9 1888.28 907.109 1881.73 913.675L1752.12 1043.29L2017.71 1308.88L2147.33 1179.27Z" fill="#64728C"/>
</svg>
