<svg width="3062" height="3062" viewBox="0 0 3062 3062" fill="none" xmlns="http://www.w3.org/2000/svg">
<path d="M1034.67 2026.33H1135.6L1828 1333.94L1727.06 1233L1034.67 1925.4V2026.33ZM963.833 2168C943.764 2168 926.953 2161.2 913.4 2147.6C899.847 2134 893.047 2117.19 893 2097.17V1925.4C893 1906.51 896.542 1888.49 903.625 1871.35C910.708 1854.21 920.743 1839.17 933.729 1826.23L1828 933.729C1842.17 920.743 1857.82 910.708 1874.96 903.625C1892.1 896.542 1910.1 893 1928.94 893C1947.78 893 1966.08 896.542 1983.83 903.625C2001.59 910.708 2016.94 921.333 2029.88 935.5L2127.27 1034.67C2141.44 1047.65 2151.76 1063 2158.22 1080.71C2164.69 1098.42 2167.95 1116.13 2168 1133.83C2168 1152.72 2164.74 1170.74 2158.22 1187.88C2151.71 1205.02 2141.39 1220.65 2127.27 1234.77L1234.77 2127.27C1221.78 2140.26 1206.72 2150.29 1189.58 2157.38C1172.44 2164.46 1154.45 2168 1135.6 2168H963.833ZM1776.65 1284.35L1727.06 1233L1828 1333.94L1776.65 1284.35Z" fill="#64728C"/>
</svg>
