<svg width="3062" height="3062" viewBox="0 0 3062 3062" fill="none" xmlns="http://www.w3.org/2000/svg">
<path d="M1579.98 901.875C1687.41 901.875 1794.83 901.875 1902.25 901.875C1974.44 901.875 2036.53 923.359 2088.52 966.328C2140.51 1009.3 2173.38 1066.02 2187.13 1136.48C2187.99 1144.22 2188.85 1152.38 2189.71 1160.98C2190.57 1169.57 2191 1178.16 2191 1186.76C2191 1187.62 2191 1188.26 2191 1188.69C2191 1189.12 2191 1189.34 2191 1189.34C2191 1407.62 2191 1625.47 2191 1842.89C2191 1915.08 2169.3 1977.17 2125.9 2029.16C2082.5 2081.15 2025.57 2114.02 1955.1 2127.77C1942.21 2130.35 1929.32 2131.64 1916.43 2131.64C1903.54 2131.64 1890.65 2131.64 1877.76 2131.64C1857.99 2131.64 1838.23 2131.64 1818.46 2131.64C1798.7 2131.64 1778.93 2131.64 1759.16 2131.64C1746.27 2131.64 1735.32 2127.56 1726.29 2119.39C1717.27 2111.23 1711.9 2101.56 1710.18 2090.39C1710.18 2088.67 1710.18 2087.17 1710.18 2085.88C1710.18 2084.59 1710.18 2083.52 1710.18 2082.66C1710.18 2071.48 1713.19 2061.82 1719.2 2053.65C1725.22 2045.49 1733.38 2039.69 1743.7 2036.25C1746.27 2035.39 1748.85 2034.96 1751.43 2034.96C1754.01 2034.96 1756.59 2034.96 1759.16 2034.96C1760.02 2034.96 1760.67 2034.96 1761.1 2034.96C1761.53 2034.96 1762.17 2034.96 1763.03 2034.96C1786.23 2034.96 1809.44 2034.96 1832.64 2034.96C1855.84 2034.96 1879.05 2034.96 1902.25 2034.96C1957.25 2034.1 2003.01 2015.62 2039.54 1979.53C2076.06 1943.44 2094.32 1898.32 2094.32 1844.18C2094.32 1625.9 2094.32 1407.62 2094.32 1189.34C2093.46 1135.2 2074.98 1089.86 2038.89 1053.34C2002.8 1016.82 1957.68 998.555 1903.54 998.555C1687.84 998.555 1472.13 998.555 1256.43 998.555C1202.29 998.555 1157.17 1016.6 1121.08 1052.7C1084.98 1088.79 1066.94 1133.91 1066.94 1188.05C1066.94 1192.34 1066.94 1196.64 1066.94 1200.94C1066.94 1205.23 1066.94 1209.53 1066.94 1213.83C1066.08 1226.72 1060.92 1237.46 1051.47 1246.05C1042.02 1254.65 1031.27 1258.95 1019.24 1258.95C1019.24 1258.95 1019.03 1258.95 1018.6 1258.95C1018.17 1258.95 1017.95 1258.95 1017.95 1258.95C1005.92 1258.95 995.18 1254.65 985.727 1246.05C976.273 1237.46 971.117 1227.15 970.258 1215.12C965.102 1137.77 982.289 1073.11 1021.82 1021.11C1061.35 969.121 1109.05 934.102 1164.91 916.055C1177.8 911.758 1191.76 908.32 1206.8 905.742C1221.84 903.164 1237.52 901.875 1253.85 901.875C1253.85 901.875 1254.07 901.875 1254.5 901.875C1254.93 901.875 1255.14 901.875 1255.14 901.875C1363.42 901.875 1471.7 901.875 1579.98 901.875ZM1688.27 1942.15C1688.27 1937.85 1688.27 1933.77 1688.27 1929.9C1688.27 1926.04 1687.84 1921.95 1686.98 1917.66C1686.12 1912.5 1685.04 1907.77 1683.75 1903.48C1682.46 1899.18 1680.96 1894.88 1679.24 1890.59L1680.53 1891.88C1678.81 1886.72 1676.66 1882.21 1674.09 1878.34C1671.51 1874.47 1668.93 1870.39 1666.35 1866.09L1667.64 1867.38C1664.2 1862.23 1660.34 1857.5 1656.04 1853.2C1651.74 1848.91 1647.02 1845.04 1641.86 1841.6C1635.84 1838.16 1629.61 1835.37 1623.17 1833.22C1616.72 1831.07 1610.06 1829.14 1603.19 1827.42L1582.56 1819.69C1578.27 1818.83 1574.18 1817.75 1570.32 1816.46C1566.45 1815.18 1562.8 1813.67 1559.36 1811.95C1553.34 1810.23 1547.33 1808.09 1541.31 1805.51C1535.3 1802.93 1529.28 1800.35 1523.27 1797.77C1518.11 1795.2 1512.95 1792.83 1507.8 1790.68C1502.64 1788.54 1497.48 1786.17 1492.33 1783.59C1482.02 1778.44 1471.7 1772.85 1461.39 1766.84C1456.23 1764.26 1451.29 1761.46 1446.57 1758.46C1441.84 1755.45 1436.9 1752.66 1431.74 1750.08C1430.88 1749.22 1430.02 1748.79 1429.16 1748.79C1428.3 1748.79 1427.88 1749.22 1427.88 1750.08C1426.16 1753.52 1424.65 1756.95 1423.36 1760.39C1422.07 1763.83 1421 1767.27 1420.14 1770.7C1419.28 1774.14 1418.21 1777.36 1416.92 1780.37C1415.63 1783.38 1414.55 1786.6 1413.7 1790.04C1412.84 1793.48 1411.76 1796.91 1410.47 1800.35C1409.18 1803.79 1407.68 1807.23 1405.96 1810.66C1405.1 1813.24 1404.24 1816.04 1403.38 1819.04C1402.52 1822.05 1401.66 1824.84 1400.8 1827.42C1399.95 1831.72 1398.66 1835.8 1396.94 1839.67C1395.22 1843.54 1393.93 1847.62 1393.07 1851.91C1392.21 1854.49 1391.35 1857.29 1390.49 1860.29C1389.63 1863.3 1388.77 1866.09 1387.91 1868.67C1386.2 1873.83 1384.48 1878.55 1382.76 1882.85C1381.04 1887.15 1379.75 1891.45 1378.89 1895.74C1377.17 1900.9 1375.45 1905.84 1373.73 1910.57C1372.02 1915.29 1370.73 1919.8 1369.87 1924.1C1368.15 1929.26 1366.43 1934.2 1364.71 1938.93C1362.99 1943.65 1361.27 1948.59 1359.55 1953.75C1357.84 1958.05 1356.33 1962.56 1355.04 1967.29C1353.75 1972.01 1352.25 1976.52 1350.53 1980.82C1350.53 1981.68 1350.53 1982.32 1350.53 1982.75C1350.53 1983.18 1350.1 1983.4 1349.24 1983.4C1348.38 1983.4 1347.95 1982.97 1347.95 1982.11C1347.95 1981.25 1347.52 1980.82 1346.66 1980.82C1345.8 1979.1 1344.95 1977.6 1344.09 1976.31C1343.23 1975.02 1342.8 1973.95 1342.8 1973.09V1971.8C1341.08 1964.06 1338.5 1956.33 1335.06 1948.59C1331.62 1940.86 1328.62 1933.12 1326.04 1925.39C1324.32 1921.09 1322.82 1916.58 1321.53 1911.86C1320.24 1907.13 1318.73 1902.62 1317.02 1898.32C1314.44 1893.16 1312.29 1888.01 1310.57 1882.85C1308.85 1877.7 1307.13 1872.54 1305.41 1867.38C1304.55 1865.66 1303.91 1863.95 1303.48 1862.23C1303.05 1860.51 1303.7 1858.79 1305.41 1857.07C1310.57 1848.48 1315.73 1840.1 1320.88 1831.93C1326.04 1823.77 1329.91 1815.39 1332.48 1806.8C1334.2 1801.64 1335.49 1796.7 1336.35 1791.97C1337.21 1787.25 1336.78 1782.3 1335.06 1777.15C1334.2 1771.99 1332.05 1767.48 1328.62 1763.61C1325.18 1759.75 1321.31 1756.52 1317.02 1753.95C1311.86 1751.37 1306.92 1749.65 1302.19 1748.79C1297.46 1747.93 1292.52 1747.07 1287.37 1746.21C1283.07 1746.21 1278.77 1746.43 1274.48 1746.86C1270.18 1747.29 1265.88 1747.5 1261.59 1747.5C1259.87 1748.36 1258.36 1748.79 1257.07 1748.79C1255.79 1748.79 1254.28 1749.22 1252.56 1750.08C1249.12 1750.94 1246.12 1752.23 1243.54 1753.95C1240.96 1755.66 1238.38 1757.81 1235.8 1760.39C1232.37 1763.83 1229.57 1767.48 1227.43 1771.35C1225.28 1775.21 1224.2 1779.3 1224.2 1783.59C1224.2 1789.61 1224.85 1795.2 1226.14 1800.35C1227.43 1805.51 1228.93 1810.23 1230.65 1814.53C1234.09 1822.27 1237.74 1829.36 1241.61 1835.8C1245.47 1842.25 1249.55 1848.48 1253.85 1854.49C1254.71 1856.21 1255.57 1857.93 1256.43 1859.65C1257.29 1861.37 1256.86 1863.52 1255.14 1866.09C1254.28 1866.95 1253.64 1868.24 1253.21 1869.96C1252.78 1871.68 1252.13 1873.4 1251.27 1875.12V1876.41C1250.41 1879.84 1249.34 1883.5 1248.05 1887.36C1246.76 1891.23 1245.26 1895.31 1243.54 1899.61C1242.68 1903.05 1241.39 1906.48 1239.67 1909.92C1237.95 1913.36 1236.66 1916.8 1235.8 1920.23C1234.95 1923.67 1233.87 1926.89 1232.58 1929.9C1231.29 1932.91 1230.22 1936.13 1229.36 1939.57C1226.78 1945.59 1224.63 1951.17 1222.91 1956.33C1221.2 1961.48 1219.05 1967.07 1216.47 1973.09C1215.61 1974.8 1214.96 1976.52 1214.54 1978.24C1214.11 1979.96 1213.03 1981.68 1211.31 1983.4C1211.31 1982.54 1210.88 1981.68 1210.02 1980.82C1209.16 1979.96 1208.73 1979.1 1208.73 1978.24C1207.87 1974.8 1206.8 1971.37 1205.51 1967.93C1204.22 1964.49 1203.15 1961.48 1202.29 1958.91C1201.43 1955.47 1200.36 1952.03 1199.07 1948.59C1197.78 1945.16 1196.7 1941.72 1195.84 1938.28C1194.12 1934.84 1192.84 1931.19 1191.98 1927.32C1191.12 1923.46 1189.83 1919.8 1188.11 1916.37C1187.25 1912.93 1186.18 1909.49 1184.89 1906.05C1183.6 1902.62 1182.52 1899.18 1181.66 1895.74C1180.8 1893.16 1179.95 1890.59 1179.09 1888.01C1178.23 1885.43 1177.37 1882.42 1176.51 1878.98C1175.65 1875.55 1174.57 1872.11 1173.29 1868.67C1172 1865.23 1170.92 1861.8 1170.06 1858.36C1168.34 1854.92 1167.05 1851.48 1166.2 1848.05C1165.34 1844.61 1164.48 1841.17 1163.62 1837.73C1161.9 1832.58 1160.18 1827.42 1158.46 1822.27C1156.74 1817.11 1155.02 1811.95 1153.3 1806.8C1151.59 1802.5 1150.08 1797.77 1148.79 1792.62C1147.5 1787.46 1146 1782.3 1144.28 1777.15C1142.56 1772.85 1140.84 1768.55 1139.12 1764.26C1137.41 1759.96 1136.12 1755.66 1135.26 1751.37C1134.4 1749.65 1133.32 1749 1132.04 1749.43C1130.75 1749.86 1129.24 1750.51 1127.52 1751.37C1126.66 1751.37 1125.59 1751.8 1124.3 1752.66C1123.01 1753.52 1121.51 1754.37 1119.79 1755.23C1111.2 1760.39 1101.74 1765.76 1091.43 1771.35C1081.12 1776.93 1070.8 1782.3 1060.49 1787.46L1056.62 1788.75C1046.31 1793.91 1035.79 1798.85 1025.04 1803.57C1014.3 1808.3 1003.77 1812.38 993.461 1815.82C986.586 1818.4 980.141 1820.55 974.125 1822.27C968.109 1823.98 961.664 1826.13 954.789 1828.71C949.633 1829.57 944.906 1830.86 940.609 1832.58C936.313 1834.3 932.016 1836.02 927.719 1837.73H929.008C919.555 1841.17 911.605 1846.54 905.16 1853.85C898.715 1861.15 892.914 1869.1 887.758 1877.7C885.18 1882.85 882.816 1888.01 880.668 1893.16C878.52 1898.32 876.586 1903.91 874.867 1909.92V1911.21C874.008 1914.65 873.148 1918.73 872.289 1923.46C871.43 1928.18 871 1932.7 871 1936.99C871 1950.74 871 1964.49 871 1978.24C871 1991.99 871.43 2005.31 872.289 2018.2C872.289 2024.22 872.719 2030.23 873.578 2036.25C874.438 2042.27 875.297 2047.85 876.156 2053.01V2051.72C876.156 2055.16 877.016 2057.95 878.734 2060.1C880.453 2062.25 882.172 2064.18 883.891 2065.9C884.75 2066.76 885.609 2067.4 886.469 2067.83C887.328 2068.26 888.617 2068.91 890.336 2069.77C897.211 2073.2 905.805 2077.5 916.117 2082.66C926.43 2087.81 935.453 2091.68 943.188 2094.26C946.625 2095.98 950.062 2097.7 953.5 2099.41C956.938 2101.13 960.805 2102.42 965.102 2103.28C968.539 2105 972.406 2106.5 976.703 2107.79C981 2109.08 985.297 2110.59 989.594 2112.3C992.172 2113.16 995.18 2114.24 998.617 2115.53C1002.05 2116.82 1005.06 2117.89 1007.64 2118.75C1011.94 2119.61 1016.02 2120.68 1019.89 2121.97C1023.75 2123.26 1027.41 2124.34 1030.84 2125.2C1034.28 2126.05 1037.5 2126.91 1040.51 2127.77C1043.52 2128.63 1046.31 2129.49 1048.89 2130.35C1053.19 2131.21 1057.05 2132.07 1060.49 2132.93C1063.93 2133.79 1067.8 2134.65 1072.09 2135.51C1074.67 2136.37 1077.25 2137.01 1079.83 2137.44C1082.41 2137.87 1084.98 2138.52 1087.56 2139.38C1090.14 2140.23 1093.15 2140.88 1096.59 2141.31C1100.02 2141.74 1103.03 2142.38 1105.61 2143.24C1109.05 2144.1 1112.48 2144.75 1115.92 2145.18C1119.36 2145.61 1122.8 2146.25 1126.23 2147.11C1130.53 2147.97 1134.61 2148.61 1138.48 2149.04C1142.35 2149.47 1146 2150.12 1149.44 2150.98C1153.73 2150.98 1157.82 2151.19 1161.68 2151.62C1165.55 2152.05 1169.2 2152.7 1172.64 2153.55C1177.8 2154.41 1182.95 2155.06 1188.11 2155.49C1193.27 2155.92 1198.42 2156.13 1203.58 2156.13C1207.02 2156.99 1210.67 2157.42 1214.54 2157.42C1218.4 2157.42 1222.05 2157.42 1225.49 2157.42C1232.37 2158.28 1239.24 2158.71 1246.12 2158.71C1252.99 2158.71 1260.3 2159.14 1268.03 2160C1269.75 2160 1272.11 2160 1275.12 2160C1278.13 2160 1281.35 2160 1284.79 2160C1289.09 2160 1293.38 2159.79 1297.68 2159.36C1301.98 2158.93 1306.7 2158.71 1311.86 2158.71H1310.57C1314.87 2157.85 1319.38 2157.64 1324.11 2158.07C1328.83 2158.5 1333.77 2158.28 1338.93 2157.42C1342.37 2156.56 1346.23 2156.13 1350.53 2156.13C1354.83 2156.13 1358.7 2156.13 1362.13 2156.13C1365.57 2155.27 1369.44 2154.63 1373.73 2154.2C1378.03 2153.77 1382.33 2153.55 1386.62 2153.55H1387.91C1393.07 2152.7 1398.01 2152.05 1402.74 2151.62C1407.46 2151.19 1411.98 2150.55 1416.27 2149.69C1418.85 2149.69 1421.43 2149.47 1424.01 2149.04C1426.59 2148.61 1429.16 2147.97 1431.74 2147.11C1433.46 2147.11 1435.61 2146.89 1438.19 2146.46C1440.77 2146.04 1442.91 2145.39 1444.63 2144.53C1447.21 2144.53 1450 2144.32 1453.01 2143.89C1456.02 2143.46 1458.81 2142.81 1461.39 2141.95C1463.97 2141.09 1466.76 2140.45 1469.77 2140.02C1472.78 2139.59 1475.57 2139.38 1478.15 2139.38C1483.3 2137.66 1488.68 2136.15 1494.26 2134.86C1499.85 2133.57 1505.22 2132.5 1510.38 2131.64C1512.09 2130.78 1514.03 2130.14 1516.18 2129.71C1518.32 2129.28 1520.69 2128.63 1523.27 2127.77C1527.56 2126.05 1531.86 2124.77 1536.16 2123.91C1540.45 2123.05 1544.75 2121.76 1549.05 2120.04C1553.34 2118.32 1557.64 2116.82 1561.94 2115.53C1566.23 2114.24 1570.1 2113.16 1573.54 2112.3C1578.7 2110.59 1583.42 2108.87 1587.72 2107.15C1592.02 2105.43 1596.31 2103.71 1600.61 2101.99C1606.62 2100.27 1612.43 2098.12 1618.01 2095.55C1623.6 2092.97 1628.97 2090.39 1634.12 2087.81C1641.86 2084.37 1648.95 2081.15 1655.39 2078.14C1661.84 2075.14 1668.07 2071.91 1674.09 2068.48H1671.51C1674.09 2067.62 1676.45 2066.54 1678.6 2065.25C1680.75 2063.96 1682.25 2062.03 1683.11 2059.45C1684.83 2056.02 1685.9 2052.15 1686.33 2047.85C1686.76 2043.55 1687.41 2039.69 1688.27 2036.25C1688.27 2032.81 1688.48 2029.16 1688.91 2025.29C1689.34 2021.43 1689.55 2017.77 1689.55 2014.34C1689.55 2001.45 1689.77 1989.2 1690.2 1977.6C1690.63 1966 1689.98 1954.18 1688.27 1942.15ZM1087.56 1434.26C1087.56 1437.7 1087.56 1441.13 1087.56 1444.57C1087.56 1448.01 1087.56 1451.02 1087.56 1453.59C1087.56 1463.91 1087.78 1473.79 1088.21 1483.24C1088.64 1492.7 1090.14 1502.58 1092.72 1512.89C1093.58 1517.19 1094.44 1521.48 1095.3 1525.78C1096.16 1530.08 1097.02 1534.38 1097.88 1538.67C1099.59 1544.69 1101.31 1550.27 1103.03 1555.43C1104.75 1560.59 1106.47 1565.74 1108.19 1570.9V1569.61C1110.77 1576.48 1113.56 1582.93 1116.57 1588.95C1119.57 1594.96 1122.8 1600.98 1126.23 1606.99L1124.95 1605.7C1130.96 1616.02 1137.84 1625.25 1145.57 1633.42C1153.3 1641.58 1161.47 1649.1 1170.06 1655.98H1171.35C1177.37 1661.13 1183.81 1665.64 1190.69 1669.51C1197.56 1673.38 1204.87 1676.6 1212.6 1679.18H1213.89C1219.05 1681.76 1224.42 1683.69 1230 1684.98C1235.59 1686.27 1241.39 1686.91 1247.41 1686.91C1251.7 1687.77 1256.21 1688.2 1260.94 1688.2C1265.67 1688.2 1270.18 1688.2 1274.48 1688.2C1282.21 1688.2 1290.16 1687.99 1298.32 1687.56C1306.49 1687.13 1314.44 1686.48 1322.17 1685.62H1320.88C1322.6 1685.62 1324.32 1685.41 1326.04 1684.98C1327.76 1684.55 1329.48 1684.34 1331.2 1684.34C1336.35 1682.62 1341.08 1680.9 1345.38 1679.18C1349.67 1677.46 1353.54 1675.74 1356.98 1674.02L1355.69 1675.31C1366 1670.16 1375.67 1664.57 1384.69 1658.55C1393.71 1652.54 1401.66 1645.66 1408.54 1637.93C1413.7 1631.91 1418.42 1625.9 1422.72 1619.88C1427.02 1613.87 1430.88 1607.42 1434.32 1600.55L1435.61 1599.26C1439.05 1592.38 1442.7 1584.86 1446.57 1576.7C1450.43 1568.54 1453.66 1559.73 1456.23 1550.27V1548.98C1457.95 1545.55 1459.24 1541.89 1460.1 1538.03C1460.96 1534.16 1461.82 1530.51 1462.68 1527.07C1463.54 1523.63 1464.61 1518.91 1465.9 1512.89C1467.19 1506.88 1467.84 1501.72 1467.84 1497.42C1468.7 1492.27 1469.34 1487.11 1469.77 1481.95C1470.2 1476.8 1470.84 1471.64 1471.7 1466.48C1471.7 1459.61 1471.7 1453.16 1471.7 1447.15C1471.7 1441.13 1471.7 1434.69 1471.7 1427.81C1471.7 1426.95 1471.7 1425.88 1471.7 1424.59C1471.7 1423.3 1471.7 1422.23 1471.7 1421.37C1471.7 1415.35 1471.49 1409.34 1471.06 1403.32C1470.63 1397.3 1470.41 1391.29 1470.41 1385.27V1387.85C1469.55 1381.84 1468.91 1376.04 1468.48 1370.45C1468.05 1364.86 1466.98 1359.49 1465.26 1354.34C1464.4 1350.04 1463.54 1345.74 1462.68 1341.45C1461.82 1337.15 1460.96 1332.85 1460.1 1328.55C1458.38 1322.54 1456.45 1317.17 1454.3 1312.44C1452.15 1307.71 1450.22 1302.77 1448.5 1297.62V1298.91C1445.92 1292.89 1443.13 1287.3 1440.12 1282.15C1437.11 1276.99 1433.46 1272.27 1429.16 1267.97C1419.71 1256.8 1409.61 1246.7 1398.87 1237.68C1388.13 1228.65 1375.45 1221.56 1360.84 1216.41C1357.41 1214.69 1353.32 1212.97 1348.6 1211.25C1343.87 1209.53 1338.93 1207.81 1333.77 1206.09H1331.2C1326.9 1205.23 1322.39 1204.38 1317.66 1203.52C1312.93 1202.66 1307.99 1202.23 1302.84 1202.23C1298.54 1201.37 1294.67 1200.94 1291.23 1200.94C1287.8 1200.94 1283.93 1200.94 1279.63 1200.94C1278.77 1200.94 1277.7 1200.94 1276.41 1200.94C1275.12 1200.94 1274.05 1200.94 1273.19 1200.94C1270.61 1200.94 1268.25 1200.94 1266.1 1200.94C1263.95 1200.94 1261.59 1200.94 1259.01 1200.94H1260.3C1255.14 1201.8 1250.41 1202.44 1246.12 1202.87C1241.82 1203.3 1237.52 1203.95 1233.23 1204.8H1234.52C1231.08 1205.66 1227.64 1206.52 1224.2 1207.38C1220.77 1208.24 1217.76 1209.1 1215.18 1209.96C1208.3 1211.68 1202.07 1213.83 1196.49 1216.41C1190.9 1218.98 1185.53 1221.56 1180.38 1224.14L1181.66 1222.85C1177.37 1225.43 1173.29 1227.79 1169.42 1229.94C1165.55 1232.09 1161.47 1234.45 1157.17 1237.03H1158.46C1152.45 1242.19 1146.86 1247.34 1141.7 1252.5C1136.55 1257.66 1131.82 1263.24 1127.52 1269.26C1120.65 1278.71 1114.63 1288.59 1109.48 1298.91C1104.32 1309.22 1100.02 1320.39 1096.59 1332.42L1095.3 1333.71C1094.44 1338.01 1093.36 1342.73 1092.07 1347.89C1090.79 1353.05 1090.14 1358.2 1090.14 1363.36V1364.65C1089.28 1368.09 1088.64 1371.95 1088.21 1376.25C1087.78 1380.55 1087.56 1384.84 1087.56 1389.14C1087.56 1396.88 1087.56 1404.39 1087.56 1411.7C1087.56 1419 1087.56 1426.52 1087.56 1434.26ZM1952.52 1676.6C1952.52 1674.02 1952.52 1671.66 1952.52 1669.51C1952.52 1667.36 1952.52 1665 1952.52 1662.42C1951.66 1659.84 1951.02 1657.48 1950.59 1655.33C1950.16 1653.18 1949.52 1650.82 1948.66 1648.24C1947.8 1645.66 1946.72 1643.3 1945.43 1641.15C1944.14 1639 1942.64 1637.07 1940.92 1635.35C1939.2 1632.77 1937.27 1630.41 1935.12 1628.26C1932.97 1626.11 1930.61 1624.18 1928.03 1622.46C1924.59 1619.88 1921.16 1617.95 1917.72 1616.66C1914.28 1615.37 1910.41 1614.3 1906.12 1613.44C1904.4 1612.58 1902.68 1611.93 1900.96 1611.5C1899.24 1611.07 1897.52 1610.43 1895.8 1609.57C1893.23 1609.57 1890.86 1609.14 1888.71 1608.28C1886.57 1607.42 1884.63 1606.56 1882.91 1605.7C1879.48 1604.84 1876.25 1603.55 1873.25 1601.84C1870.24 1600.12 1867.02 1598.83 1863.58 1597.97C1861 1597.11 1858.21 1595.82 1855.2 1594.1C1852.19 1592.38 1849.4 1591.09 1846.82 1590.23C1844.24 1588.52 1841.45 1587.01 1838.44 1585.72C1835.43 1584.43 1832.64 1582.93 1830.06 1581.21C1827.48 1579.49 1824.91 1577.99 1822.33 1576.7C1819.75 1575.41 1817.17 1573.91 1814.59 1572.19C1813.73 1572.19 1813.09 1571.97 1812.66 1571.54C1812.23 1571.11 1812.02 1571.33 1812.02 1572.19C1811.16 1573.91 1810.3 1575.62 1809.44 1577.34C1808.58 1579.06 1808.15 1581.21 1808.15 1583.79C1807.29 1585.51 1806.64 1587.23 1806.21 1588.95C1805.79 1590.66 1805.14 1592.38 1804.28 1594.1C1803.42 1595.82 1802.56 1597.54 1801.7 1599.26C1800.84 1600.98 1800.41 1602.7 1800.41 1604.41C1799.55 1606.13 1798.91 1607.85 1798.48 1609.57C1798.05 1611.29 1797.84 1612.58 1797.84 1613.44C1796.98 1616.02 1796.12 1618.38 1795.26 1620.53C1794.4 1622.68 1793.54 1625.04 1792.68 1627.62C1792.68 1629.34 1792.25 1630.84 1791.39 1632.13C1790.53 1633.42 1790.1 1634.92 1790.1 1636.64C1789.24 1639.22 1788.38 1641.58 1787.52 1643.73C1786.66 1645.88 1785.8 1648.24 1784.95 1650.82C1784.09 1653.4 1783.23 1655.98 1782.37 1658.55C1781.51 1661.13 1780.65 1663.71 1779.79 1666.29C1778.93 1668.87 1778.07 1671.45 1777.21 1674.02C1776.35 1676.6 1775.49 1679.18 1774.63 1681.76C1773.77 1685.2 1772.91 1687.99 1772.05 1690.14C1771.2 1692.29 1770.34 1694.65 1769.48 1697.23C1769.48 1697.23 1769.48 1697.44 1769.48 1697.87C1769.48 1698.3 1769.48 1698.52 1769.48 1698.52C1768.62 1698.52 1768.19 1698.3 1768.19 1697.87C1768.19 1697.44 1768.19 1697.23 1768.19 1697.23C1767.33 1696.37 1766.68 1695.51 1766.25 1694.65C1765.82 1693.79 1765.61 1692.93 1765.61 1692.07C1763.89 1686.91 1762.39 1682.19 1761.1 1677.89C1759.81 1673.59 1758.3 1669.3 1756.59 1665V1667.58C1755.73 1665 1754.87 1662.42 1754.01 1659.84C1753.15 1657.27 1752.29 1654.69 1751.43 1652.11C1750.57 1649.53 1749.5 1646.74 1748.21 1643.73C1746.92 1640.72 1745.84 1637.93 1744.98 1635.35C1744.98 1635.35 1744.98 1634.92 1744.98 1634.06C1744.98 1633.2 1744.98 1632.77 1744.98 1632.77C1744.98 1631.91 1744.98 1631.27 1744.98 1630.84C1744.98 1630.41 1744.98 1630.2 1744.98 1630.2C1748.42 1625.9 1751.21 1621.6 1753.36 1617.3C1755.51 1613.01 1757.45 1608.28 1759.16 1603.12L1760.45 1601.84C1760.45 1600.98 1760.67 1599.47 1761.1 1597.32C1761.53 1595.18 1761.74 1593.24 1761.74 1591.52C1761.74 1590.66 1761.74 1589.8 1761.74 1588.95C1761.74 1588.09 1761.74 1587.23 1761.74 1586.37C1760.88 1583.79 1759.59 1581.43 1757.88 1579.28C1756.16 1577.13 1754.01 1575.2 1751.43 1573.48C1748.85 1572.62 1746.27 1571.76 1743.7 1570.9C1741.12 1570.04 1738.54 1569.61 1735.96 1569.61C1735.1 1569.61 1734.46 1569.61 1734.03 1569.61C1733.6 1569.61 1732.95 1569.61 1732.09 1569.61C1730.37 1569.61 1728.66 1569.82 1726.94 1570.25C1725.22 1570.68 1723.5 1570.9 1721.78 1570.9C1719.2 1570.9 1716.62 1571.54 1714.05 1572.83C1711.47 1574.12 1709.32 1575.62 1707.6 1577.34C1705.88 1579.06 1704.38 1581 1703.09 1583.14C1701.8 1585.29 1701.16 1587.66 1701.16 1590.23C1701.16 1593.67 1701.59 1596.68 1702.45 1599.26C1703.3 1601.84 1704.16 1604.41 1705.02 1606.99C1706.74 1611.29 1708.68 1615.16 1710.82 1618.59C1712.97 1622.03 1715.34 1625.47 1717.91 1628.91C1717.91 1628.91 1718.13 1629.34 1718.56 1630.2C1718.99 1631.05 1719.2 1631.91 1719.2 1632.77C1719.2 1632.77 1719.2 1632.99 1719.2 1633.42C1719.2 1633.85 1718.77 1634.49 1717.91 1635.35C1717.91 1635.35 1717.7 1635.78 1717.27 1636.64C1716.84 1637.5 1716.62 1638.79 1716.62 1640.51C1715.77 1642.23 1714.91 1644.16 1714.05 1646.31C1713.19 1648.46 1712.33 1650.82 1711.47 1653.4C1711.47 1655.12 1711.04 1656.84 1710.18 1658.55C1709.32 1660.27 1708.46 1661.99 1707.6 1663.71C1706.74 1666.29 1706.1 1668.44 1705.67 1670.16C1705.24 1671.88 1704.59 1673.59 1703.73 1675.31C1702.87 1677.89 1701.8 1680.68 1700.51 1683.69C1699.22 1686.7 1698.15 1689.49 1697.29 1692.07C1697.29 1693.79 1696.86 1695.08 1696 1695.94C1695.14 1696.8 1694.71 1697.66 1694.71 1698.52C1694.71 1697.66 1694.5 1697.01 1694.07 1696.58C1693.64 1696.15 1693.42 1695.94 1693.42 1695.94C1692.56 1694.22 1691.92 1692.5 1691.49 1690.78C1691.06 1689.06 1690.41 1686.91 1689.55 1684.34C1688.7 1682.62 1688.05 1680.9 1687.62 1679.18C1687.19 1677.46 1686.55 1675.74 1685.69 1674.02C1684.83 1672.3 1684.18 1670.37 1683.75 1668.22C1683.32 1666.07 1682.68 1664.14 1681.82 1662.42C1681.82 1660.7 1681.39 1658.77 1680.53 1656.62C1679.67 1654.47 1678.81 1652.54 1677.95 1650.82C1677.95 1649.1 1677.74 1647.6 1677.31 1646.31C1676.88 1645.02 1676.23 1643.52 1675.38 1641.8C1675.38 1640.08 1674.95 1638.36 1674.09 1636.64C1673.23 1634.92 1672.37 1633.2 1671.51 1631.48C1671.51 1628.91 1671.08 1626.76 1670.22 1625.04C1669.36 1623.32 1668.93 1621.6 1668.93 1619.88C1668.07 1616.45 1667 1613.44 1665.71 1610.86C1664.42 1608.28 1663.34 1605.7 1662.48 1603.12C1661.62 1600.55 1660.77 1597.75 1659.91 1594.75C1659.05 1591.74 1658.19 1588.95 1657.33 1586.37C1656.47 1583.79 1655.61 1581.43 1654.75 1579.28C1653.89 1577.13 1653.46 1575.2 1653.46 1573.48C1652.6 1571.76 1651.74 1571.11 1650.88 1571.54C1650.02 1571.97 1649.59 1572.19 1649.59 1572.19C1648.73 1573.05 1647.88 1573.48 1647.02 1573.48C1646.16 1573.48 1645.3 1573.91 1644.44 1574.77H1645.73C1640.57 1577.34 1635.2 1580.35 1629.61 1583.79C1624.03 1587.23 1618.23 1590.23 1612.21 1592.81H1610.92C1604.91 1595.39 1599.11 1597.97 1593.52 1600.55C1587.93 1603.12 1582.13 1605.7 1576.12 1608.28C1572.68 1609.14 1569.24 1610 1565.8 1610.86C1562.37 1611.72 1558.93 1613.01 1555.49 1614.73C1552.91 1615.59 1550.34 1616.45 1547.76 1617.3C1545.18 1618.16 1543.03 1619.02 1541.31 1619.88V1618.59C1536.16 1621.17 1531.86 1624.39 1528.42 1628.26C1524.98 1632.13 1521.98 1636.21 1519.4 1640.51C1517.68 1643.09 1516.18 1645.88 1514.89 1648.89C1513.6 1651.89 1512.95 1655.12 1512.95 1658.55H1511.66C1511.66 1661.13 1511.45 1663.5 1511.02 1665.64C1510.59 1667.79 1510.38 1670.16 1510.38 1672.73C1510.38 1680.47 1510.38 1687.99 1510.38 1695.29C1510.38 1702.6 1510.38 1710.12 1510.38 1717.85C1510.38 1720.43 1510.59 1723.44 1511.02 1726.88C1511.45 1730.31 1512.09 1733.32 1512.95 1735.9C1512.95 1736.76 1513.38 1737.83 1514.24 1739.12C1515.1 1740.41 1515.96 1741.48 1516.82 1742.34C1517.68 1743.2 1518.32 1743.85 1518.75 1744.28C1519.18 1744.71 1519.83 1744.92 1520.69 1744.92C1524.13 1746.64 1528.64 1749 1534.22 1752.01C1539.81 1755.02 1544.75 1757.38 1549.05 1759.1C1550.77 1759.96 1552.7 1760.61 1554.85 1761.04C1557 1761.46 1558.93 1762.11 1560.65 1762.97C1562.37 1763.83 1564.52 1764.69 1567.09 1765.55C1569.67 1766.41 1571.82 1767.27 1573.54 1768.12L1583.85 1770.7C1586.43 1771.56 1588.79 1772.42 1590.94 1773.28C1593.09 1774.14 1595.02 1774.57 1596.74 1774.57C1598.46 1775.43 1600.18 1776.07 1601.9 1776.5C1603.62 1776.93 1605.34 1777.58 1607.05 1778.44C1608.77 1778.44 1610.71 1778.65 1612.86 1779.08C1615 1779.51 1616.94 1780.16 1618.66 1781.02C1620.38 1781.02 1621.88 1781.23 1623.17 1781.66C1624.46 1782.09 1625.96 1782.3 1627.68 1782.3C1628.54 1783.16 1629.83 1783.81 1631.55 1784.24C1633.27 1784.67 1634.98 1784.88 1636.7 1784.88C1638.42 1784.88 1640.36 1785.1 1642.5 1785.53C1644.65 1785.96 1646.59 1786.17 1648.3 1786.17C1650.02 1787.03 1651.96 1787.68 1654.11 1788.11C1656.25 1788.54 1658.62 1788.75 1661.2 1788.75C1662.91 1788.75 1664.85 1788.96 1667 1789.39C1669.14 1789.82 1671.08 1790.04 1672.8 1790.04C1676.23 1790.9 1679.24 1791.33 1681.82 1791.33C1684.4 1791.33 1686.98 1791.33 1689.55 1791.33C1692.13 1792.19 1694.28 1792.62 1696 1792.62C1697.72 1792.62 1699.44 1792.62 1701.16 1792.62C1705.45 1792.62 1709.54 1792.62 1713.4 1792.62C1717.27 1792.62 1720.92 1793.05 1724.36 1793.91C1726.08 1793.91 1727.58 1793.91 1728.87 1793.91C1730.16 1793.91 1731.66 1793.91 1733.38 1793.91C1735.96 1793.91 1738.54 1793.91 1741.12 1793.91C1743.7 1793.91 1746.27 1793.48 1748.85 1792.62H1747.56C1750.14 1792.62 1752.72 1792.62 1755.3 1792.62C1757.88 1792.62 1760.45 1792.62 1763.03 1792.62C1765.61 1791.76 1767.97 1791.33 1770.12 1791.33C1772.27 1791.33 1774.2 1791.33 1775.92 1791.33C1777.64 1791.33 1779.79 1791.11 1782.37 1790.68C1784.95 1790.25 1787.09 1790.04 1788.81 1790.04H1790.1C1792.68 1790.04 1795.26 1789.82 1797.84 1789.39C1800.41 1788.96 1802.99 1788.75 1805.57 1788.75C1807.29 1787.89 1808.79 1787.46 1810.08 1787.46C1811.37 1787.46 1812.45 1787.46 1813.3 1787.46C1814.16 1787.46 1815.24 1787.25 1816.53 1786.82C1817.82 1786.39 1818.89 1786.17 1819.75 1786.17C1821.47 1785.31 1823.19 1784.88 1824.91 1784.88C1826.63 1784.88 1828.34 1784.45 1830.06 1783.59C1831.78 1783.59 1833.29 1783.38 1834.57 1782.95C1835.86 1782.52 1837.37 1782.3 1839.09 1782.3C1841.66 1781.45 1844.46 1780.59 1847.46 1779.73C1850.47 1778.87 1853.27 1778.44 1855.84 1778.44C1857.56 1777.58 1859.07 1777.15 1860.36 1777.15C1861.64 1777.15 1862.72 1776.72 1863.58 1775.86H1862.29C1864.87 1775.86 1867.45 1775.43 1870.02 1774.57C1872.6 1773.71 1875.18 1772.85 1877.76 1771.99L1890.65 1768.12C1893.23 1767.27 1895.59 1766.41 1897.74 1765.55C1899.89 1764.69 1902.25 1763.83 1904.83 1762.97C1908.27 1761.25 1911.49 1759.75 1914.5 1758.46C1917.5 1757.17 1920.3 1756.09 1922.88 1755.23C1927.17 1752.66 1931.04 1750.51 1934.48 1748.79C1937.91 1747.07 1941.35 1745.35 1944.79 1743.63L1943.5 1744.92C1944.36 1744.06 1945.43 1743.2 1946.72 1742.34C1948.01 1741.48 1949.09 1740.63 1949.95 1739.77C1950.8 1738.05 1951.45 1736.11 1951.88 1733.96C1952.31 1731.82 1952.52 1729.45 1952.52 1726.88C1952.52 1725.16 1952.52 1723.22 1952.52 1721.07C1952.52 1718.93 1952.52 1716.56 1952.52 1713.98C1953.38 1711.41 1953.81 1708.61 1953.81 1705.61C1953.81 1702.6 1953.81 1699.38 1953.81 1695.94C1953.81 1692.5 1953.81 1689.06 1953.81 1685.62C1953.81 1682.19 1953.38 1678.75 1952.52 1675.31V1676.6ZM1627.68 1400.74V1412.34C1627.68 1413.2 1627.68 1414.06 1627.68 1414.92C1627.68 1415.78 1627.68 1416.64 1627.68 1417.5C1627.68 1421.8 1627.89 1426.31 1628.32 1431.04C1628.75 1435.76 1629.4 1440.27 1630.26 1444.57V1443.28C1631.12 1445.86 1631.76 1448.22 1632.19 1450.37C1632.62 1452.52 1632.84 1454.88 1632.84 1457.46C1634.55 1464.34 1636.7 1470.78 1639.28 1476.8C1641.86 1482.81 1644.87 1488.83 1648.3 1494.84V1493.55C1651.74 1499.57 1655.39 1504.73 1659.26 1509.02C1663.13 1513.32 1667.64 1517.62 1672.8 1521.91C1676.23 1524.49 1679.89 1526.64 1683.75 1528.36C1687.62 1530.08 1691.7 1531.8 1696 1533.52C1698.58 1535.23 1701.37 1536.31 1704.38 1536.74C1707.39 1537.17 1710.61 1537.81 1714.05 1538.67C1716.62 1538.67 1719.2 1538.67 1721.78 1538.67C1724.36 1538.67 1726.51 1538.67 1728.23 1538.67C1733.38 1538.67 1738.11 1538.46 1742.41 1538.03C1746.7 1537.6 1751 1537.38 1755.3 1537.38H1754.01C1754.87 1537.38 1755.73 1537.17 1756.59 1536.74C1757.45 1536.31 1758.3 1536.09 1759.16 1536.09C1761.74 1535.23 1764.32 1534.38 1766.9 1533.52C1769.48 1532.66 1771.62 1531.8 1773.34 1530.94C1778.5 1528.36 1783.44 1525.57 1788.17 1522.56C1792.89 1519.55 1797.41 1515.9 1801.7 1511.6C1804.28 1508.16 1806.86 1504.73 1809.44 1501.29C1812.02 1497.85 1814.16 1494.41 1815.88 1490.98C1818.46 1486.68 1820.61 1482.38 1822.33 1478.09C1824.05 1473.79 1825.77 1469.06 1827.48 1463.91V1462.62C1828.34 1460.9 1828.99 1458.96 1829.42 1456.82C1829.85 1454.67 1830.49 1452.73 1831.35 1451.02C1831.35 1449.3 1831.78 1446.93 1832.64 1443.93C1833.5 1440.92 1833.93 1438.12 1833.93 1435.55C1833.93 1432.97 1834.14 1430.18 1834.57 1427.17C1835 1424.16 1835.22 1421.37 1835.22 1418.79C1835.22 1415.35 1835.22 1411.91 1835.22 1408.48C1835.22 1405.04 1835.22 1401.6 1835.22 1398.16C1835.22 1397.3 1835.22 1396.45 1835.22 1395.59C1835.22 1394.73 1835.22 1394.3 1835.22 1394.3C1835.22 1390.86 1835.22 1387.42 1835.22 1383.98C1835.22 1380.55 1835.22 1377.54 1835.22 1374.96C1834.36 1372.38 1833.93 1369.59 1833.93 1366.58C1833.93 1363.57 1833.5 1360.35 1832.64 1356.91C1831.78 1355.2 1831.14 1353.05 1830.71 1350.47C1830.28 1347.89 1829.63 1345.74 1828.77 1344.02C1827.91 1340.59 1827.05 1337.58 1826.2 1335C1825.34 1332.42 1824.05 1329.84 1822.33 1327.27H1823.62C1821.9 1324.69 1820.18 1321.89 1818.46 1318.89C1816.74 1315.88 1815.02 1313.09 1813.3 1310.51C1808.15 1304.49 1802.56 1299.12 1796.55 1294.39C1790.53 1289.67 1783.66 1286.02 1775.92 1283.44C1774.2 1281.72 1771.84 1280.43 1768.83 1279.57C1765.82 1278.71 1763.03 1278.28 1760.45 1278.28L1759.16 1276.99C1757.45 1276.99 1755.3 1276.78 1752.72 1276.35C1750.14 1275.92 1747.56 1275.7 1744.98 1275.7H1743.7C1741.98 1274.84 1740.04 1274.41 1737.89 1274.41C1735.75 1274.41 1733.81 1274.41 1732.09 1274.41C1731.23 1274.41 1730.59 1274.41 1730.16 1274.41C1729.73 1274.41 1729.09 1274.41 1728.23 1274.41C1726.51 1274.41 1725.22 1274.41 1724.36 1274.41C1723.5 1274.41 1722.21 1274.41 1720.49 1274.41C1717.91 1274.41 1715.55 1274.63 1713.4 1275.06C1711.25 1275.49 1708.89 1276.13 1706.31 1276.99H1707.6C1705.88 1276.99 1703.95 1277.21 1701.8 1277.64C1699.65 1278.07 1697.72 1278.71 1696 1279.57C1692.56 1280.43 1689.34 1281.5 1686.33 1282.79C1683.32 1284.08 1680.53 1285.59 1677.95 1287.3L1679.24 1286.02C1676.66 1287.73 1674.3 1289.24 1672.15 1290.53C1670 1291.82 1667.64 1293.32 1665.06 1295.04L1666.35 1293.75C1662.91 1296.33 1659.91 1299.12 1657.33 1302.13C1654.75 1305.14 1652.17 1308.36 1649.59 1311.8C1645.3 1316.95 1641.86 1322.32 1639.28 1327.91C1636.7 1333.5 1634.55 1339.3 1632.84 1345.31L1631.55 1346.6C1631.55 1349.18 1631.12 1351.76 1630.26 1354.34C1629.4 1356.91 1628.97 1359.49 1628.97 1362.07V1363.36C1628.97 1365.08 1628.75 1367.01 1628.32 1369.16C1627.89 1371.31 1627.68 1373.67 1627.68 1376.25C1627.68 1380.55 1627.68 1384.63 1627.68 1388.5C1627.68 1392.36 1627.68 1396.45 1627.68 1400.74ZM1818.46 1209.96C1802.99 1209.96 1787.31 1209.96 1771.41 1209.96C1755.51 1209.96 1739.83 1209.96 1724.36 1209.96C1719.2 1209.96 1714.48 1208.24 1710.18 1204.8C1705.88 1201.37 1702.88 1197.5 1701.16 1193.2V1191.91C1701.16 1191.05 1700.94 1189.98 1700.51 1188.69C1700.08 1187.4 1699.87 1186.33 1699.87 1185.47C1699.87 1181.17 1700.94 1177.3 1703.09 1173.87C1705.24 1170.43 1708.03 1167.42 1711.47 1164.84C1713.19 1163.98 1715.34 1163.13 1717.91 1162.27C1720.49 1161.41 1723.07 1160.98 1725.65 1160.98C1725.65 1160.98 1725.86 1160.98 1726.29 1160.98C1726.72 1160.98 1726.94 1160.98 1726.94 1160.98C1787.95 1160.98 1848.97 1160.98 1909.98 1160.98C1917.72 1160.98 1924.16 1163.34 1929.32 1168.07C1934.48 1172.79 1937.05 1178.59 1937.05 1185.47C1937.05 1192.34 1934.48 1197.93 1929.32 1202.23C1924.16 1206.52 1917.72 1209.1 1909.98 1209.96C1894.52 1209.96 1879.26 1209.96 1864.22 1209.96C1849.18 1209.96 1833.93 1209.96 1818.46 1209.96ZM1754.01 1113.28C1729.95 1113.28 1705.88 1113.28 1681.82 1113.28C1657.76 1113.28 1633.7 1113.28 1609.63 1113.28C1595.02 1112.42 1583.85 1108.98 1576.12 1102.97C1568.38 1096.95 1564.95 1089.22 1565.8 1079.77C1566.66 1072.89 1569.89 1067.09 1575.47 1062.36C1581.06 1057.64 1588.15 1054.84 1596.74 1053.98C1598.46 1053.12 1600.39 1052.7 1602.54 1052.7C1604.69 1052.7 1606.62 1052.7 1608.34 1052.7C1608.34 1052.7 1608.56 1052.7 1608.99 1052.7C1609.42 1052.7 1609.63 1052.7 1609.63 1052.7H1900.96C1913.85 1052.7 1924.16 1055.27 1931.9 1060.43C1939.63 1065.59 1943.93 1072.46 1944.79 1081.05C1944.79 1089.65 1941.78 1096.74 1935.77 1102.32C1929.75 1107.91 1921.16 1111.13 1909.98 1111.99C1898.81 1112.85 1887.43 1113.28 1875.82 1113.28C1864.22 1113.28 1852.84 1113.28 1841.66 1113.28C1812.45 1113.28 1783.23 1113.28 1754.01 1113.28Z" fill="#64728C"/>
</svg>
