<svg width="3062" height="3062" viewBox="0 0 3062 3062" fill="none" xmlns="http://www.w3.org/2000/svg">
<path d="M1829.33 967.707C1760.14 967.707 1696.71 989.631 1640.8 1032.87C1587.2 1074.33 1551.51 1127.13 1530.5 1165.52C1509.49 1127.12 1473.8 1074.33 1420.2 1032.87C1364.29 989.631 1300.86 967.707 1231.67 967.707C1038.6 967.707 893 1125.63 893 1335.05C893 1561.3 1074.65 1716.09 1349.63 1950.43C1396.33 1990.23 1449.26 2035.34 1504.27 2083.45C1511.52 2089.8 1520.84 2093.29 1530.5 2093.29C1540.16 2093.29 1549.48 2089.8 1556.73 2083.45C1611.75 2035.33 1664.67 1990.23 1711.4 1950.41C1986.35 1716.09 2168 1561.3 2168 1335.05C2168 1125.63 2022.4 967.707 1829.33 967.707Z" fill="#64728C"/>
</svg>
