<svg width="3062" height="3062" viewBox="0 0 3062 3062" fill="none" xmlns="http://www.w3.org/2000/svg">
<path d="M1594.12 1340.07V1211.55H1468.59V1340.07H1594.12ZM1594.12 1851.18V1468.59H1468.59V1851.18H1594.12ZM1531.36 894.722C1619.03 894.722 1701.73 911.161 1779.44 944.04C1857.15 977.914 1924.65 1023.49 1981.94 1080.78C2039.22 1138.07 2084.8 1205.57 2118.68 1283.28C2151.56 1360 2168 1442.69 2168 1531.36C2168 1619.04 2151.56 1701.73 2118.68 1779.44C2084.8 1857.15 2039.22 1924.65 1981.94 1981.94C1924.65 2039.23 1857.15 2084.81 1779.44 2118.68C1702.72 2151.56 1620.03 2168 1531.36 2168C1443.68 2168 1360.99 2151.56 1283.28 2118.68C1205.57 2084.81 1138.07 2039.23 1080.78 1981.94C1023.49 1924.65 977.91 1857.15 944.036 1779.44C911.158 1702.73 894.719 1620.03 894.719 1531.36C894.719 1443.69 911.158 1360.99 944.036 1283.28C977.91 1205.57 1023.49 1138.07 1080.78 1080.78C1138.07 1023.49 1205.57 977.914 1283.28 944.04C1359.99 911.161 1442.69 894.722 1531.36 894.722Z" fill="#64728C"/>
</svg>
