<svg width="3062" height="3062" viewBox="0 0 3062 3062" fill="none" xmlns="http://www.w3.org/2000/svg">
<path fill-rule="evenodd" clip-rule="evenodd" d="M1848.07 1062.88C1882.86 1062.88 1911.06 1089.15 1911.06 1121.56C1911.06 1153.98 1882.86 1180.25 1848.07 1180.25H1470.16V1943.2C1470.16 1975.62 1441.97 2001.89 1407.18 2001.89C1372.39 2001.89 1344.19 1975.62 1344.19 1943.2V1180.25H966.284C931.498 1180.25 903.299 1153.98 903.299 1121.56C903.299 1089.15 931.498 1062.88 966.284 1062.88H1848.07ZM1596.13 1532.38C1561.35 1532.38 1533.15 1506.11 1533.15 1473.7C1533.15 1441.28 1561.35 1415.01 1596.13 1415.01H2100.01C2134.8 1415.01 2163 1441.28 2163 1473.7C2163 1506.11 2134.8 1532.38 2100.01 1532.38H1911.06V1943.2C1911.06 1975.62 1882.86 2001.89 1848.07 2001.89C1813.29 2001.89 1785.09 1975.62 1785.09 1943.2V1532.38H1596.13Z" fill="#64728C"/>
</svg>
