<svg width="3062" height="3062" viewBox="0 0 3062 3062" fill="none" xmlns="http://www.w3.org/2000/svg">
<path d="M1027.07 1451.36C990.589 1451.36 959.291 1464.42 933.174 1490.56C907.058 1516.69 894 1548.01 894 1584.51V2008.85C894 2045.35 907.058 2076.67 933.174 2102.8C959.291 2128.93 990.589 2142 1027.07 2142H1186.25C1201.18 2142 1215.27 2139.51 1228.54 2134.53C1241.8 2129.56 1254.24 2122.92 1265.85 2114.62V1451.36H1027.07ZM2167.48 1650.46C2167.48 1634.7 2164.37 1619.56 2158.15 1605.04C2151.93 1590.52 2143.43 1577.87 2132.65 1567.09C2145.09 1552.98 2154.42 1537.22 2160.64 1519.8C2166.85 1502.38 2169.13 1484.13 2167.48 1465.05C2164.16 1431.86 2149.03 1403.66 2122.08 1380.43C2095.14 1357.2 2063.84 1345.58 2028.19 1345.58H1701.12C1708.58 1320.7 1717.49 1288.13 1727.85 1247.9C1738.22 1207.66 1743.4 1169.29 1743.4 1132.79C1743.4 1075.55 1724.54 1025.77 1686.81 983.464C1649.09 941.155 1614.89 920 1584.21 920C1556.03 920 1533.02 925.392 1515.19 936.177C1497.37 946.962 1488.04 952.354 1487.21 952.354C1484.72 954.843 1482.44 957.954 1480.37 961.687C1478.3 965.421 1477.26 969.361 1477.26 973.509V1153.95L1324.3 1484.96L1318.08 1487.45V2057.38C1339.63 2067.34 1362.85 2075.01 1387.72 2080.4C1412.59 2085.79 1433.74 2088.49 1451.15 2088.49H1938.65C1966.84 2088.49 1992.33 2079.78 2015.13 2062.36C2037.93 2044.94 2052.23 2022.54 2058.04 1995.16C2061.35 1981.89 2062.18 1968.41 2060.52 1954.72C2058.87 1941.03 2055.14 1927.96 2049.33 1915.52C2068.4 1905.56 2083.95 1891.25 2095.97 1872.59C2107.99 1853.92 2114 1832.97 2114 1809.75C2114 1800.62 2112.96 1791.49 2110.89 1782.37C2108.82 1773.24 2105.71 1764.53 2101.56 1756.24C2121.46 1746.28 2137.42 1731.97 2149.44 1713.3C2161.47 1694.64 2167.48 1673.69 2167.48 1650.46Z" fill="#64728C"/>
</svg>
