<svg width="3062" height="3062" viewBox="0 0 3062 3062" fill="none" xmlns="http://www.w3.org/2000/svg">
<path d="M1673.56 910.99L1636.07 948.49L1549.5 1035.08C1304.5 976.58 1087.33 1196.59 1087.33 1442.04C1087.33 1601.59 1220.26 1812.95 1496.33 2065.22C1772.41 1812.95 1952 1558.58 1886.3 1402.62V1395.81L2009 1273.08C2017.86 1313.99 2041.66 1397.04 2041.66 1442.04C2041.66 1668.4 1859.66 1936.36 1496.33 2246.58C1133 1936.36 951 1668.4 951 1442.04C951 1102.5 1210.03 882.956 1496.33 882.956C1535.87 882.956 1635.39 902.809 1673.56 910.99Z" fill="#64728C"/>
<path d="M1414.67 1479.12V1540.91H1476.46L1935.09 1082.28L1903.71 1051.97L1903.65 1051.93L1903.61 1051.88L1873.3 1020.49L1414.67 1479.12ZM2172 948.514C2172 961.607 2169.74 974.128 2165.21 986.05C2160.63 998.078 2153.41 1008.99 2143.61 1018.79L1547.21 1615.19V1615.19C1538.16 1624.25 1527.65 1631.24 1515.71 1636.18C1503.77 1641.11 1491.22 1643.58 1478.12 1643.58H1363.33C1348.91 1643.58 1336.64 1638.65 1326.8 1628.77C1316.96 1618.9 1312.03 1606.64 1312 1592.26V1477.46C1312 1464.33 1314.47 1451.77 1319.4 1439.82C1324.34 1427.88 1331.33 1417.39 1340.39 1408.37L1937.97 811.966L1938.03 811.905L1938.1 811.848C1947.9 802.865 1958.75 795.902 1970.65 790.983C1982.6 786.047 1995.14 783.58 2008.25 783.58C2021.36 783.58 2034.09 786.046 2046.42 790.965C2058.81 795.911 2069.55 803.336 2078.59 813.211L2143.56 879.367C2153.45 888.455 2160.69 899.225 2165.23 911.641C2169.7 923.882 2171.97 936.176 2172 948.503V948.514Z" fill="#64728C" stroke="#64728C" stroke-width="8"/>
</svg>
