<svg width="3062" height="3062" viewBox="0 0 3062 3062" fill="none" xmlns="http://www.w3.org/2000/svg">
<g clip-path="url(#clip0_25_243)">
<path d="M2149.02 1690.25C2146 1691.23 2146.53 1694.25 2145.55 1696.36C2141.07 1706.92 2133.13 1715.66 2123.04 1721.13C2112.95 1726.61 2101.3 1728.5 2089.99 1726.5C2078.27 1724.36 2067.71 1718.08 2060.22 1708.82C2052.74 1699.55 2048.83 1687.91 2049.21 1676.01C2049.21 1571.42 2049.21 1466.83 2049.21 1362.16C2049.21 1349.57 2046.42 1346.26 2033.3 1346.26C1743.77 1346.61 1454.21 1346.61 1164.63 1346.26C1137.19 1346.26 1118.87 1335.33 1110.88 1314.38C1108.16 1307.1 1107.19 1299.27 1108.06 1291.55C1108.92 1283.82 1111.58 1276.4 1115.84 1269.89C1120.09 1263.38 1125.81 1257.96 1132.55 1254.07C1139.28 1250.17 1146.83 1247.91 1154.6 1247.47C1158.75 1247.47 1162.89 1247.47 1167.04 1247.47C1456.67 1247.47 1746.25 1247.47 2035.79 1247.47C2046.79 1247.47 2050.11 1244.91 2049.13 1234.13C2048.15 1223.35 2049.13 1211.9 2049.13 1200.75C2049.13 1168.87 2028.17 1148.38 1995.91 1148H1517.88C1483.36 1148 1448.83 1148 1414.3 1148C1380.91 1148 1360.7 1128.03 1360.1 1095.25C1360.15 1081.95 1357.52 1068.78 1352.37 1056.52C1347.22 1044.26 1339.65 1033.15 1330.12 1023.87C1320.59 1014.59 1309.29 1007.32 1296.89 1002.5C1284.49 997.673 1271.25 995.39 1257.95 995.784C1195.94 995.482 1133.94 995.482 1071.98 995.784C1058.69 995.469 1045.48 997.834 1033.13 1002.74C1020.77 1007.64 1009.54 1014.98 1000.09 1024.32C990.638 1033.66 983.168 1044.81 978.125 1057.1C973.081 1069.39 970.567 1082.57 970.733 1095.85C970.733 1349.65 970.733 1603.34 970.733 1856.94C970.733 1914.36 1014.53 1957.08 1073.11 1957.08C1241.22 1957.08 1409.3 1957.08 1577.36 1957.08C1607.52 1957.08 1629.46 1975.02 1632.09 2001.77C1632.77 2008.69 1631.96 2015.68 1629.74 2022.28C1627.52 2028.88 1623.93 2034.93 1619.2 2040.04C1614.47 2045.14 1608.72 2049.2 1602.31 2051.93C1595.91 2054.66 1589 2056 1582.04 2055.87C1530.02 2055.87 1478.01 2055.87 1425.99 2055.87H1072.81C1026.43 2056.7 981.219 2041.28 945.011 2012.3C908.803 1983.32 883.874 1942.59 874.54 1897.18C871.779 1883.87 870.439 1870.3 870.545 1856.71C870.796 1603.37 870.897 1349.95 870.846 1096.46C870.922 984.405 959.048 897.22 1072.43 896.918C1133.59 896.918 1194.75 896.918 1255.92 896.918C1350.38 896.918 1425.69 952.606 1452.3 1042.13C1455.09 1051.55 1460.82 1050.19 1467.38 1050.19H1995.08C2064.96 1050.19 2121.73 1090.81 2142.23 1154.63C2144.57 1162.17 2144.12 1169.7 2148.94 1176.18L2149.02 1690.25Z" fill="#64728C" stroke="#64728C" stroke-miterlimit="10"/>
<path d="M2195 1911.19C2188.29 1921.74 2184.22 1933.8 2173.52 1941.86C2162.51 1950.05 2149.09 1954.37 2135.37 1954.14C2090.14 1954.14 2044.3 1954.14 1998.77 1954.14C1987.09 1954.14 1982.87 1955.88 1983.17 1969.21C1984.22 2014.43 1983.62 2060.47 1983.54 2106.13C1983.54 2143.06 1960.1 2168.6 1926.7 2168.38C1893.31 2168.15 1870.92 2142.68 1870.84 2106.51C1870.84 2059.94 1870.84 2013.3 1870.84 1966.73C1870.84 1956.86 1868.73 1954.07 1858.7 1954.22C1812.64 1954.82 1766.66 1954.22 1720.6 1954.22C1684.19 1954.22 1658.93 1930.18 1659.23 1896.42C1659.53 1862.66 1684.86 1840.13 1720.6 1840.06C1767.04 1840.06 1813.55 1840.06 1860.06 1840.06C1868.81 1840.06 1870.92 1837.87 1870.84 1829.05C1870.39 1782.03 1870.84 1734.94 1870.84 1687.84C1870.84 1651.75 1893.99 1626.12 1926.55 1625.75C1959.12 1625.37 1983.47 1651.22 1983.54 1688.07C1983.54 1734.64 1983.54 1781.2 1983.54 1827.85C1983.54 1838.02 1986.26 1840.21 1995.98 1840.06C2039.18 1839.53 2082.37 1840.96 2125.57 1839.45C2160.32 1838.32 2183.77 1851.66 2195.23 1885.42L2195 1911.19Z" fill="#64728C" stroke="#64728C" stroke-miterlimit="10"/>
</g>
<defs>
<clipPath id="clip0_25_243">
<rect width="1328" height="1275" fill="white" transform="translate(867 893)"/>
</clipPath>
</defs>
</svg>
