<svg width="3062" height="3062" viewBox="0 0 3062 3062" fill="none" xmlns="http://www.w3.org/2000/svg">
<g clip-path="url(#clip0_40_1117)">
<path d="M1234.4 893C1234.72 897.534 1235.35 902.016 1235.35 906.55C1235.53 996.987 1235.61 1087.37 1235.61 1177.7C1235.61 1210.34 1249.11 1223.94 1281.42 1223.94C1373.08 1223.94 1464.8 1223.94 1556.46 1223.94C1566.21 1223.94 1568.53 1226.37 1568.48 1236.02C1568.16 1406.52 1568.16 1576.99 1568.48 1747.43C1568.48 1776.43 1553.82 1791.24 1525.15 1791.24H937.276C907.653 1791.24 893.369 1776.74 893.369 1746.74C893.369 1478.81 893.246 1210.83 893 942.823C893 919.731 899.431 902.912 920.725 893H1234.4Z" fill="#64728C"/>
<path d="M2168 2140.27C2158.09 2161.62 2141.22 2168.11 2118.14 2168C1925.27 2167.42 1732.35 2167.68 1539.49 2167.68C1506.86 2167.68 1493.31 2154.24 1493.31 2121.87C1493.31 2040.57 1493.31 1959.27 1493.31 1877.97C1493.31 1868.43 1495.32 1865.27 1505.33 1865.74C1525.57 1866.69 1545.92 1866.79 1565.63 1860.47C1613.07 1844.65 1642.85 1802.47 1642.85 1750.44C1642.85 1595.27 1643.11 1440.16 1642.53 1285C1642.53 1271.5 1646.49 1269.18 1658.87 1269.18C1712.37 1269.87 1765.93 1269.18 1819.43 1269.55C1837.98 1269.55 1835.51 1266.75 1835.51 1286.26C1835.51 1375.43 1835.51 1464.62 1835.51 1553.83C1835.51 1587.42 1848.58 1600.6 1881.94 1600.6H2155.72C2159.88 1600.6 2163.99 1600.28 2168.16 1600.17L2168 2140.27Z" fill="#64728C"/>
<path d="M1630.25 893C1639.11 898.641 1648.86 903.017 1653.71 913.562C1660.03 927.217 1658.56 939.923 1649.38 954.422C1663.99 954.422 1676.95 954.159 1689.87 954.422C1709.74 954.844 1729.66 952.735 1749.38 957.48C1773.13 963.197 1794.33 976.584 1809.71 995.569C1825.09 1014.55 1833.78 1038.08 1834.45 1062.5C1835.03 1087.81 1834.87 1113.12 1834.45 1138.43C1834.66 1143.4 1833.85 1148.36 1832.09 1153.02C1830.33 1157.67 1827.65 1161.93 1824.2 1165.52C1820.75 1169.11 1816.61 1171.96 1812.03 1173.91C1807.46 1175.86 1802.53 1176.86 1797.55 1176.86C1792.57 1176.85 1787.63 1175.84 1783.04 1173.9C1778.44 1171.96 1774.28 1169.12 1770.8 1165.55C1767.32 1161.98 1764.58 1157.75 1762.75 1153.11C1760.91 1148.48 1760.02 1143.52 1760.13 1138.53C1759.71 1115.7 1760.13 1092.87 1760.13 1069.99C1760.13 1043.63 1745.53 1029.24 1719.44 1029.03C1697.03 1029.03 1674.63 1029.03 1652.39 1029.03C1650.44 1032.82 1653.5 1034.67 1654.45 1037.04C1658.01 1044.87 1658.78 1053.68 1656.63 1062.01C1654.48 1070.34 1649.54 1077.68 1642.64 1082.8C1635.75 1087.95 1627.29 1090.52 1618.7 1090.09C1610.12 1089.66 1601.95 1086.24 1595.62 1080.43C1574.01 1059.87 1552.93 1038.78 1532.37 1017.16C1529.02 1013.85 1526.37 1009.91 1524.55 1005.57C1522.74 1001.22 1521.8 996.563 1521.8 991.856C1521.8 987.148 1522.74 982.487 1524.55 978.143C1526.37 973.799 1529.02 969.858 1532.37 966.549C1552.87 944.827 1574.27 924.001 1595.62 903.281C1600.18 899.383 1605.1 895.939 1610.33 893H1630.25Z" fill="#64728C"/>
<path d="M1289.75 2106.26C1266.35 2106.26 1244.47 2106.26 1222.6 2106.26C1152.44 2105.94 1105.16 2058.49 1105.05 1988.27C1105.05 1967.18 1105.05 1946.09 1105.05 1925C1105.05 1900.8 1120.34 1884.09 1141.95 1883.93C1163.56 1883.77 1179.43 1900.38 1179.53 1924.42C1179.53 1946.77 1179.53 1969.18 1179.53 1991.59C1179.53 2016 1194.56 2031.34 1218.75 2031.66C1241.89 2031.97 1265.03 2031.66 1289.22 2031.66C1284.27 2020.8 1280.05 2011.09 1282.95 2000.02C1290.01 1972.34 1322.64 1961.01 1343.62 1980.3C1365.92 2000.81 1387 2022.48 1407.87 2044.42C1411.17 2047.76 1413.78 2051.73 1415.55 2056.09C1417.31 2060.45 1418.2 2065.11 1418.16 2069.81C1418.12 2074.51 1417.16 2079.16 1415.32 2083.49C1413.48 2087.81 1410.81 2091.74 1407.45 2095.03C1387.11 2116.12 1366.23 2137.21 1345.04 2157.45C1338.82 2163.68 1330.54 2167.43 1321.76 2168.02C1312.98 2168.6 1304.28 2165.97 1297.29 2160.62C1290.2 2155.45 1285.18 2147.93 1283.13 2139.4C1281.08 2130.87 1282.14 2121.88 1286.11 2114.06C1287.11 2111.9 1288.01 2110.11 1289.75 2106.26Z" fill="#64728C"/>
<path d="M1559.88 1149.5H1321.48C1315.41 1149.5 1309.72 1151.24 1309.77 1140.69C1310.3 1062.29 1310.04 983.949 1310.09 905.55C1310.26 903.567 1310.55 901.596 1310.93 899.645L1557.14 1150.71L1559.88 1149.5Z" fill="#64728C"/>
<path d="M2154.82 1525.67C2078.92 1525.67 1998.54 1525.67 1918.15 1525.67C1912.88 1525.67 1909.88 1524.78 1909.93 1518.35C1909.93 1438.37 1909.93 1358.38 1909.93 1278.4C1909.93 1278.4 1910.46 1277.88 1910.77 1277.61L2154.82 1525.67Z" fill="#64728C"/>
</g>
<defs>
<clipPath id="clip0_40_1117">
<rect width="1275" height="1275" fill="white" transform="translate(893 893)"/>
</clipPath>
</defs>
</svg>
