<svg width="3062" height="3062" viewBox="0 0 3062 3062" fill="none" xmlns="http://www.w3.org/2000/svg">
<path d="M2115.99 1220.23C2116.23 1205.01 2110.52 1190.5 2100.05 1179.55C2066.51 1142.44 2033.68 1104.38 2000.85 1066.55C1944.94 1002.79 1889.27 939.035 1833.61 875.278C1830.04 871.234 1826.23 867.903 1820.52 867.427C1810.29 867.427 1800.06 867.427 1789.83 867.427H1375.89C1364.47 866.714 1353.05 868.855 1341.63 866H1305.23C1291.91 868.617 1277.87 868.141 1264.79 873.613C1205.31 900.971 1167.49 945.459 1155.35 1010.41C1152.02 1027.77 1152.26 1027.77 1134.89 1027.77C1108.96 1027.77 1083.03 1029.44 1058.29 1038.24C992.391 1062.03 946.238 1128.17 946.238 1199.3C946.476 1472.41 946.238 1745.75 946 2018.86C946 2050.5 952.423 2080 968.838 2106.65C1000.95 2158.99 1044.97 2194.43 1109.2 2194.67C1321.41 2194.91 1533.61 2194.91 1745.82 2194.67C1763.19 2194.67 1780.32 2192.77 1796.49 2185.63C1851.45 2161.13 1887.85 2120.21 1904.26 2061.92C1906.88 2052.41 1903.55 2039.32 1912.83 2033.38C1921.39 2027.9 1933.05 2031.47 1943.52 2031.47C2035.34 2031 2115.99 1950.82 2115.99 1858.76C2115.52 1646.55 2115.52 1433.39 2115.99 1220.23ZM1820.52 2045.51C1813.38 2082.38 1788.88 2105.7 1751.53 2110.46C1744.63 2111.17 1737.73 2111.64 1730.83 2111.41C1529.09 2111.41 1327.12 2111.41 1125.38 2111.41C1069.47 2111.41 1033.07 2074.77 1033.07 2018.86C1033.07 1883.5 1033.07 1748.37 1033.07 1613.01C1033.07 1478.12 1033.07 1343.47 1033.07 1208.58C1033.07 1157.9 1051.39 1134.11 1100.16 1121.74C1116.57 1117.94 1133.23 1115.8 1150.12 1115.8C1155.59 1115.56 1158.21 1116.75 1157.49 1122.69C1157.26 1125.79 1157.26 1128.64 1157.49 1131.73C1157.49 1372.01 1158.68 1612.29 1157.02 1852.57C1156.3 1939.64 1224.34 2016.72 1304.99 2027.19C1314.03 2028.14 1323.07 2028.62 1332.11 2028.62C1490.32 2028.62 1648.52 2028.62 1806.72 2028.38C1823.85 2028.14 1823.85 2028.14 1820.52 2045.51ZM1861.92 1705.31C1858.11 1723.87 1841.93 1737.19 1823.14 1737.9C1801.49 1738.62 1779.84 1738.14 1758.43 1738.14H1634.01C1572.15 1738.14 1510.3 1738.14 1448.68 1738.14C1430.36 1738.14 1417.04 1729.34 1409.91 1712.92C1403.01 1697.22 1406.1 1682.47 1417.04 1669.39C1426.08 1658.92 1438.22 1655.11 1451.78 1655.11C1479.37 1655.11 1507.21 1655.11 1534.8 1655.11C1627.35 1655.11 1719.65 1655.11 1812.19 1655.11C1818.14 1654.88 1824.33 1655.35 1830.27 1656.54C1852.4 1661.54 1866.67 1683.19 1861.92 1705.31ZM1820.05 1530.93C1758.19 1531.17 1696.34 1530.93 1634.72 1530.93C1572.87 1530.93 1511.01 1531.17 1449.4 1530.93C1417.28 1530.69 1397.53 1500.48 1410.62 1472.65C1418.95 1455.04 1433.93 1448.14 1452.73 1448.14C1490.32 1448.14 1527.9 1448.14 1565.49 1448.14C1648.52 1448.14 1731.55 1448.14 1814.34 1448.14C1834.08 1448.14 1850.26 1453.85 1859.06 1472.88C1872.15 1500.48 1852.16 1530.69 1820.05 1530.93ZM1898.55 1197.63C1857.16 1195.49 1823.14 1160.04 1821.95 1118.41C1820.52 1063.69 1821.71 1008.98 1821.71 951.168L2028.68 1198.11C1983.72 1198.11 1941.14 1199.77 1898.55 1197.63Z" fill="#64728C"/>
</svg>
