<svg width="3062" height="3062" viewBox="0 0 3062 3062" fill="none" xmlns="http://www.w3.org/2000/svg">
<path d="M1804.81 1695.63H1747.31L1726.93 1675.98C1798.26 1593 1841.2 1485.28 1841.2 1368.1C1841.2 1106.8 1629.4 895 1368.1 895C1106.8 895 895 1106.8 895 1368.1C895 1629.4 1106.8 1841.2 1368.1 1841.2C1485.28 1841.2 1593 1798.26 1675.98 1726.93L1695.63 1747.31V1804.81L2059.55 2168L2168 2059.55L1804.81 1695.63ZM1368.1 1695.63C1186.87 1695.63 1040.57 1549.33 1040.57 1368.1C1040.57 1186.87 1186.87 1040.57 1368.1 1040.57C1549.33 1040.57 1695.63 1186.87 1695.63 1368.1C1695.63 1549.33 1549.33 1695.63 1368.1 1695.63Z" fill="#64728C"/>
</svg>
