<svg width="3062" height="3062" viewBox="0 0 3062 3062" fill="none" xmlns="http://www.w3.org/2000/svg">
<path d="M2096.58 1088.91C2096.58 1188.04 2016.22 1268.4 1917.09 1268.4C1817.96 1268.4 1737.61 1188.04 1737.61 1088.91C1737.61 989.784 1817.96 909.42 1917.09 909.42C2016.22 909.42 2096.58 989.784 2096.58 1088.91Z" fill="#64728C"/>
<path d="M1917.09 1309.82C1795.26 1309.82 1696.19 1210.74 1696.19 1088.91C1696.19 967.081 1795.26 868 1917.09 868C2038.93 868 2138 967.081 2138 1088.91C2138 1210.74 2038.93 1309.82 1917.09 1309.82ZM1917.09 950.841C1840.94 950.841 1779.03 1012.81 1779.03 1088.91C1779.03 1165.01 1840.94 1226.98 1917.09 1226.98C1993.25 1226.98 2055.16 1165.01 2055.16 1088.91C2055.16 1012.81 1993.25 950.841 1917.09 950.841ZM2096.58 1972.55C2096.58 2071.67 2016.23 2152.04 1917.09 2152.04C1817.96 2152.04 1737.61 2071.67 1737.61 1972.55C1737.61 1873.42 1817.96 1793.06 1917.09 1793.06C2016.23 1793.06 2096.58 1873.42 2096.58 1972.55Z" fill="#64728C"/>
<path d="M1917.1 2193.46C1795.26 2193.46 1696.19 2094.38 1696.19 1972.55C1696.19 1850.72 1795.26 1751.64 1917.1 1751.64C2038.93 1751.64 2138 1850.72 2138 1972.55C2138 2094.38 2038.93 2193.46 1917.1 2193.46ZM1917.1 1834.48C1840.94 1834.48 1779.03 1896.45 1779.03 1972.55C1779.03 2048.65 1840.94 2110.62 1917.1 2110.62C1993.25 2110.62 2055.16 2048.65 2055.16 1972.55C2055.16 1896.45 1993.25 1834.48 1917.1 1834.48ZM1323.4 1530.73C1323.4 1629.86 1243.04 1710.22 1143.91 1710.22C1044.79 1710.22 964.422 1629.86 964.422 1530.73C964.422 1431.6 1044.79 1351.24 1143.91 1351.24C1243.04 1351.24 1323.4 1431.6 1323.4 1530.73Z" fill="#64728C"/>
<path d="M1143.91 1751.64C1022.08 1751.64 923 1652.56 923 1530.73C923 1408.9 1022.08 1309.82 1143.91 1309.82C1265.74 1309.82 1364.82 1408.9 1364.82 1530.73C1364.82 1652.56 1265.74 1751.64 1143.91 1751.64ZM1143.91 1392.67C1067.75 1392.67 1005.84 1454.63 1005.84 1530.73C1005.84 1606.84 1067.75 1668.8 1143.91 1668.8C1220.07 1668.8 1281.98 1606.84 1281.98 1530.73C1281.98 1454.63 1220.07 1392.67 1143.91 1392.67Z" fill="#64728C"/>
<path d="M1274.3 1504.23C1255.08 1504.23 1236.41 1494.22 1226.25 1476.33C1211.17 1449.88 1220.45 1416.13 1246.91 1401L1759.36 1108.85C1785.81 1093.66 1819.55 1102.94 1834.69 1129.5C1849.77 1155.95 1840.49 1189.7 1814.03 1204.84L1301.57 1496.98C1293.27 1501.73 1283.87 1504.23 1274.3 1504.23ZM1786.7 1959.85C1777.42 1959.85 1768.03 1957.52 1759.41 1952.61L1246.96 1660.46C1220.5 1645.38 1211.23 1611.64 1226.31 1585.13C1241.33 1558.62 1275.13 1549.29 1301.64 1564.47L1814.1 1856.62C1840.55 1871.7 1849.82 1905.45 1834.75 1931.96C1824.53 1949.85 1805.87 1959.85 1786.7 1959.85H1786.7Z" fill="#64728C"/>
</svg>
