<svg width="3062" height="3062" viewBox="0 0 3062 3062" fill="none" xmlns="http://www.w3.org/2000/svg">
<g clip-path="url(#clip0_38_544)">
<path d="M1791.86 884C1797.86 884 1803.94 886.815 1810.63 891.217C1817.55 895.762 1826.44 902.912 1838.34 913.465C1862.21 934.614 1899.35 970.476 1959.06 1029.35L1966.58 1036.66C2003.97 1073.1 2038.38 1107.42 2064.4 1133.9C2078.27 1148.02 2089.78 1159.94 2098.08 1168.77C2102.23 1173.18 2105.62 1176.86 2108.12 1179.68C2110.19 1182.02 2112.25 1184.43 2113.36 1186.19L2113.57 1186.53L2113.68 1186.73L2113.79 1186.93C2119.14 1197.27 2120.06 1209.51 2117.78 1220.15C2115.53 1230.63 2109.77 1241.22 2099.88 1246.58L2099.87 1246.58C2092.57 1250.52 2084.93 1254.02 2075.85 1253.83C2066.76 1253.63 2057.75 1249.8 2047.23 1242.74C2026.53 1228.84 1995.48 1199.17 1939.71 1144.81L1846.57 1054.11L1843.92 1349.81V1349.82C1843.08 1436.82 1842.08 1516.17 1841.23 1573.84C1840.81 1602.68 1840.42 1626.1 1840.1 1642.36C1839.94 1650.49 1839.8 1656.84 1839.68 1661.19C1839.62 1663.36 1839.56 1665.07 1839.51 1666.27C1839.48 1666.85 1839.46 1667.38 1839.43 1667.81C1839.41 1668 1839.39 1668.3 1839.35 1668.61C1839.34 1668.74 1839.29 1669.07 1839.21 1669.46C1839.17 1669.65 1839.08 1670.06 1838.91 1670.56C1838.87 1670.65 1838.34 1672.42 1836.75 1674C1836.17 1674.58 1831.62 1679.13 1826.42 1683.77C1817.89 1692.45 1804.07 1695.35 1792.26 1695.05C1780.31 1694.73 1766.61 1691.03 1758.57 1682.19L1758.52 1682.14L1758.48 1682.09C1754.55 1677.64 1752.59 1671.57 1751.21 1662.29C1749.81 1652.83 1748.83 1638.44 1748.08 1615.87C1746.59 1570.58 1746.03 1490.81 1745.46 1348.08L1743.87 1051.2L1648.52 1143.13C1602.12 1188.12 1573.54 1215.14 1554.76 1230.9C1545.38 1238.77 1538.09 1244.14 1531.99 1247.55C1525.88 1250.98 1520.5 1252.7 1515.04 1252.76C1509.72 1253.07 1504.13 1252.57 1499.39 1251.7C1495 1250.89 1489.87 1249.51 1486.53 1247.29V1247.29C1478.93 1242.4 1473.12 1233.09 1469.62 1224.71C1467.77 1220.29 1466.35 1215.62 1465.6 1211.18C1464.87 1206.89 1464.64 1202.07 1465.85 1197.72L1465.88 1197.63L1465.9 1197.55C1466.29 1196.26 1466.89 1195.24 1467.17 1194.77C1467.53 1194.17 1467.93 1193.58 1468.33 1193.04C1469.11 1191.95 1470.12 1190.69 1471.28 1189.3C1473.6 1186.51 1476.85 1182.84 1480.85 1178.44C1488.89 1169.63 1500.25 1157.61 1514.08 1143.24C1541.76 1114.5 1579.49 1076.21 1620.59 1035.1L1631.9 1023.81C1687.04 968.767 1721.99 934.708 1744.83 914.209C1756.99 903.302 1766 895.97 1772.98 891.331C1779.75 886.834 1785.83 884 1791.86 884Z" fill="#64728C" stroke="#64728C" stroke-width="18"/>
<path d="M1254.95 1377.25C1263.47 1368.55 1277.31 1365.64 1289.13 1365.95C1301.08 1366.26 1314.78 1369.97 1322.82 1378.81L1322.87 1378.86L1322.91 1378.91C1326.83 1383.36 1328.8 1389.43 1330.17 1398.71C1331.58 1408.17 1332.56 1422.55 1333.3 1445.13C1334.8 1490.41 1335.36 1570.19 1335.93 1712.92L1337.52 2009.8L1432.88 1917.85C1479.28 1872.87 1507.85 1845.86 1526.63 1830.1C1536.01 1822.23 1543.3 1816.86 1549.4 1813.44C1555.52 1810.02 1560.9 1808.29 1566.37 1808.23C1571.92 1807.93 1577.51 1808.43 1582.23 1809.31C1586.66 1810.13 1591.57 1811.52 1594.85 1813.71H1594.85C1602.45 1818.6 1608.26 1827.91 1611.77 1836.29C1613.62 1840.71 1615.04 1845.38 1615.79 1849.82C1616.52 1854.11 1616.74 1858.92 1615.53 1863.27L1615.51 1863.36L1615.48 1863.45C1615.1 1864.74 1614.5 1865.76 1614.22 1866.23C1613.86 1866.83 1613.45 1867.42 1613.06 1867.96C1612.28 1869.04 1611.27 1870.31 1610.11 1871.7C1607.79 1874.49 1604.54 1878.16 1600.53 1882.56C1592.5 1891.37 1581.14 1903.39 1567.3 1917.76C1539.63 1946.5 1501.9 1984.79 1460.79 2025.9C1399.06 2087.63 1360.92 2124.92 1336.55 2146.79C1324.4 2157.7 1315.38 2165.03 1308.41 2169.67C1301.64 2174.17 1295.55 2177 1289.53 2177C1283.53 2177 1277.45 2174.18 1270.76 2169.78C1263.84 2165.24 1254.95 2158.09 1243.04 2147.54C1219.18 2126.39 1182.04 2090.52 1122.32 2031.65C1082.05 1992.51 1044.73 1955.34 1016.98 1927.02C1003.11 1912.86 991.593 1900.88 983.276 1891.96C979.124 1887.51 975.723 1883.76 973.211 1880.87C971.051 1878.38 968.833 1875.72 967.739 1873.75L967.737 1873.75C950.324 1842.55 974.238 1807.67 1009.6 1807.67C1020.6 1807.67 1031.11 1813.72 1048.97 1828.77C1067.27 1844.18 1095.29 1870.93 1141.68 1916.19L1234.82 2006.89L1237.46 1711.19V1711.18C1238.31 1624.19 1239.16 1544.85 1239.94 1487.17C1240.33 1458.34 1240.71 1434.9 1241.05 1418.62C1241.23 1410.49 1241.39 1404.11 1241.55 1399.72C1241.63 1397.55 1241.71 1395.78 1241.8 1394.52C1241.84 1393.91 1241.89 1393.28 1241.96 1392.72C1241.99 1392.48 1242.05 1392.01 1242.17 1391.48C1242.23 1391.25 1242.36 1390.68 1242.64 1390C1242.78 1389.66 1243.05 1389.04 1243.53 1388.34C1243.74 1388.03 1244.12 1387.5 1244.72 1386.92C1245.57 1386.06 1249.96 1381.7 1254.95 1377.25Z" fill="#64728C" stroke="#64728C" stroke-width="18"/>
</g>
<defs>
<clipPath id="clip0_38_544">
<rect width="1275" height="1275" fill="white" transform="translate(893 893)"/>
</clipPath>
</defs>
</svg>
