<svg width="3062" height="3062" viewBox="0 0 3062 3062" fill="none" xmlns="http://www.w3.org/2000/svg">
<path d="M1389.36 1466.26C1545.73 1466.26 1671.02 1340.02 1671.02 1183.63C1671.02 1027.24 1545.73 901 1389.36 901C1233 901 1106.77 1027.24 1106.77 1183.63C1106.77 1340.02 1233 1466.26 1389.36 1466.26ZM1389.36 1592.12C1169.88 1592.12 821 1703.97 821 1923.48V2159H1996V1923.48C1996 1703.97 1608.85 1592.12 1389.36 1592.12Z" fill="#64728C"/>
<path d="M1849 1615C1826.87 1615 1801.69 1616.52 1774.97 1618.81C1875.94 1662.14 2036.29 1790.04 2036.29 1903V2159.49H2239.51V1968.68C2239.51 1790.86 2026.83 1615 1849 1615Z" fill="#64728C"/>
<path d="M1741.5 1502C1836.23 1502 1937.5 1385 1937.5 1275.5C1937.5 1132.5 1812.19 1062.5 1685.5 1062.5C1762 1246 1685.5 1374.5 1572.5 1450C1614.44 1498.3 1699 1502 1741.5 1502Z" fill="#64728C"/>
</svg>
