<svg width="3062" height="3062" viewBox="0 0 3062 3062" fill="none" xmlns="http://www.w3.org/2000/svg">
<path d="M1799.87 1799.87L1850.75 1716.06L1563.42 1542.47V1210.25H1467.65V1593.35L1799.87 1799.87ZM1530.5 893C1618.29 893 1700.6 909.96 1777.42 943.88C1855.24 976.803 1923.08 1022.2 1980.94 1080.06C2038.8 1137.92 2084.2 1205.76 2117.12 1283.58C2151.04 1360.4 2168 1442.71 2168 1530.5C2168 1618.29 2151.04 1700.6 2117.12 1777.42C2084.2 1855.24 2038.8 1923.08 1980.94 1980.94C1923.08 2038.8 1855.24 2084.2 1777.42 2117.12C1700.6 2151.04 1618.29 2168 1530.5 2168C1442.71 2168 1360.4 2151.04 1283.58 2117.12C1205.76 2084.2 1137.92 2038.8 1080.06 1980.94C1022.2 1923.08 976.803 1855.24 943.88 1777.42C909.96 1700.6 893 1618.29 893 1530.5C893 1442.71 909.96 1360.4 943.88 1283.58C976.803 1205.76 1022.2 1137.92 1080.06 1080.06C1137.92 1022.2 1205.76 976.803 1283.58 943.88C1360.4 909.96 1442.71 893 1530.5 893Z" fill="#64728C"/>
</svg>
