<svg width="3062" height="3062" viewBox="0 0 3062 3062" fill="none" xmlns="http://www.w3.org/2000/svg">
<g clip-path="url(#clip0_40_1012)">
<path d="M2254 1883.35C2082.08 1883.35 1910.17 1883.35 1738.28 1883.35C1729.16 1883.35 1724.08 1881.81 1720.22 1871.92C1675.26 1756.03 1597.61 1668.78 1488.19 1609.44C1482.38 1606.31 1477.16 1605.14 1482.75 1596.2C1555.25 1476.38 1660.26 1406.93 1799.75 1390.53C1807.1 1388.58 1815.19 1389.94 1823.21 1385.27C1823.76 1385.27 1820.74 1384.2 1821.92 1385.64C1820.36 1387 1818.37 1387.76 1816.3 1387.81C1814.24 1387.86 1812.22 1387.18 1810.6 1385.89C1710.81 1377.03 1619.41 1293.28 1599.19 1192.13C1567.27 1032.97 1687.21 889.653 1849.42 892.999C1968.69 895.462 2072.26 989.585 2086.57 1108.49C2103.26 1247.36 2008.25 1369.02 1868.65 1386.52C1872.33 1390.38 1876.96 1389.83 1881 1390.2C2076.38 1409.54 2229.15 1560.61 2251.43 1756.54C2251.69 1758.71 2251.14 1761.25 2254 1762.2V1883.35Z" fill="#64728C"/>
<path d="M1192.91 1672.46C1059.89 1653.6 964.956 1539.58 973.817 1407.96C978.074 1345.3 1005.97 1286.59 1051.86 1243.71C1097.75 1200.83 1158.21 1176.98 1221.02 1176.98C1283.82 1176.98 1344.29 1200.83 1390.18 1243.71C1436.07 1286.59 1463.96 1345.3 1468.22 1407.96C1477.19 1539.44 1382.48 1652.97 1247.62 1670.91C1260.3 1676.61 1272.8 1675.33 1284.61 1677.05C1459.8 1702.79 1602.93 1845.89 1628.78 2020.68C1635.66 2067.3 1632.97 2113.99 1633.96 2160.68C1633.96 2166.13 1632.2 2168.04 1626.91 2167.56C1624.16 2167.41 1621.41 2167.41 1618.67 2167.56C1353.65 2167.56 1088.65 2167.66 823.662 2167.85C811.308 2167.85 807.889 2165.06 808.146 2152.45C809.139 2102.63 806.97 2052.88 816.308 2003.36C846.2 1844.6 983.082 1708.19 1141.69 1680.58C1158.72 1677.57 1175.85 1675.18 1192.91 1672.46Z" fill="#64728C"/>
</g>
<defs>
<clipPath id="clip0_40_1012">
<rect width="1446" height="1275" fill="white" transform="translate(808 893)"/>
</clipPath>
</defs>
</svg>
