<svg width="3062" height="3062" viewBox="0 0 3062 3062" fill="none" xmlns="http://www.w3.org/2000/svg">
<g clip-path="url(#clip0_40_1144)">
<path d="M1338.29 2101.25C1263.72 2101.25 1189.18 2101.25 1114.65 2101.25C1045.17 2101.25 1000.17 2056.16 1000.15 1986.53V1058.5C1000.15 989.059 1045.28 944.126 1115 944.126H1756.41C1828.68 944.126 1873.14 988.496 1873.14 1060.75C1873.14 1226.78 1873.14 1392.81 1873.14 1558.83C1873.14 1592.49 1895.66 1616.43 1926.83 1616.33C1957.28 1616.33 1980.23 1592.17 1980.26 1559.77C1980.26 1389.73 1981.65 1219.66 1979.72 1049.78C1978.7 959.614 1933.62 894.791 1852.3 855.387C1832.65 845.697 1811.17 842.664 1790.29 837H1075.16C1073.65 841.724 1069.17 840.114 1066.11 840.838C958.239 866.284 893 948.555 893 1059.49C893 1369.68 893 1679.86 893 1990.05C893 2113.52 987.153 2207.95 1110.46 2208.19C1186.33 2208.35 1262.21 2208.35 1338.1 2208.19C1372.63 2208.19 1396.89 2185.64 1396.6 2154.08C1396.25 2123.13 1372.17 2101.25 1338.29 2101.25Z" fill="#64728C"/>
<path d="M2155.38 1914.11C2104.37 1844.67 2045.58 1782.75 1972.58 1735.91C1862.51 1665.21 1747.06 1650.47 1627 1708.53C1529.09 1755.83 1455.48 1831.2 1392.68 1917.9C1377.16 1939.37 1380.14 1962.8 1395.71 1983.9C1442.05 2046.66 1495.05 2103 1558.92 2148.28C1623.35 2194.05 1694.09 2223.09 1771.36 2223.97C1816.95 2224.25 1862.11 2215.11 1904.01 2197.13C2011.4 2150.99 2090.22 2071.35 2157.69 1978.96C2172.83 1958.19 2170.6 1934.83 2155.38 1914.11ZM2033.41 1954.38C1984.18 2010.74 1931.05 2061.98 1860.95 2092.05C1833.3 2104.05 1803.51 2110.3 1773.37 2110.43C1719.68 2109.39 1672.27 2088.58 1628.4 2058.2C1586.92 2029.43 1551.32 1994.21 1518.57 1955.99C1515.26 1952.12 1511.24 1949.22 1516.55 1943.1C1564.64 1887.73 1616.77 1837.32 1684.88 1806.8C1764.78 1771.02 1839.58 1785.19 1910.75 1831.28C1957.25 1861.39 1996.26 1899.75 2032.29 1941.33C2036.02 1945.73 2038.33 1948.74 2033.41 1954.35V1954.38Z" fill="#64728C"/>
<path d="M1709.29 1158.4C1527.25 1158.4 1345.19 1158.4 1163.11 1158.4C1155.52 1158.28 1147.98 1159.59 1140.88 1162.27C1129.22 1166.81 1119.52 1175.3 1113.48 1186.26C1107.43 1197.22 1105.43 1209.95 1107.81 1222.24C1110.2 1234.53 1116.82 1245.58 1126.52 1253.49C1136.22 1261.4 1148.39 1265.65 1160.91 1265.5C1252.83 1265.72 1344.76 1265.5 1436.68 1265.5C1527.73 1265.5 1618.76 1265.5 1709.77 1265.5C1741.99 1265.5 1766.15 1242.15 1765.96 1211.82C1765.78 1181.49 1741.78 1158.43 1709.29 1158.4Z" fill="#64728C"/>
<path d="M1765.96 1426.58C1766.21 1395.18 1741.8 1372.66 1707.28 1372.66C1617.12 1372.66 1526.98 1372.66 1436.84 1372.66C1346.26 1372.66 1255.68 1372.66 1165.1 1372.66C1131.16 1372.66 1107.35 1394.61 1107.19 1425.78C1107.03 1457.56 1130.95 1479.73 1165.61 1479.76H1707.92C1741.37 1479.73 1765.7 1457.48 1765.96 1426.58Z" fill="#64728C"/>
<path d="M1302.91 1605.67C1256.57 1605.67 1210.2 1605.67 1163.84 1605.67C1131.06 1605.67 1107.46 1628 1107.19 1658.6C1106.95 1689.95 1130.68 1712.72 1164 1712.74C1255.39 1712.85 1346.76 1712.85 1438.13 1712.74C1471.59 1712.74 1495.7 1690.11 1495.64 1659.06C1495.59 1628 1471.48 1605.67 1437.97 1605.62C1392.94 1605.6 1347.92 1605.62 1302.91 1605.67Z" fill="#64728C"/>
<path d="M1769.75 1846.68C1749.57 1846.51 1729.8 1852.34 1712.95 1863.43C1696.1 1874.51 1682.92 1890.36 1675.09 1908.94C1667.26 1927.53 1665.13 1948.03 1668.97 1967.83C1672.82 1987.63 1682.46 2005.84 1696.68 2020.15C1710.9 2034.46 1729.05 2044.22 1748.83 2048.2C1768.61 2052.17 1789.12 2050.18 1807.77 2042.48C1826.41 2034.77 1842.34 2021.7 1853.54 2004.93C1864.74 1988.15 1870.7 1968.42 1870.66 1948.25C1870.55 1921.47 1859.91 1895.8 1841.02 1876.79C1822.14 1857.79 1796.54 1846.97 1769.75 1846.68Z" fill="#64728C"/>
</g>
<defs>
<clipPath id="clip0_40_1144">
<rect width="1275" height="1387" fill="white" transform="translate(893 837)"/>
</clipPath>
</defs>
</svg>
