<svg width="3062" height="3062" viewBox="0 0 3062 3062" fill="none" xmlns="http://www.w3.org/2000/svg">
<path d="M1531.26 894C1262.57 894 1045.26 1093.22 1045.26 1339.55C1045.26 1673.71 1531.26 2167 1531.26 2167C1531.26 2167 2017.26 1673.71 2017.26 1339.55C2017.26 1093.22 1799.95 894 1531.26 894ZM1531.26 1498.68C1485.23 1498.68 1441.08 1481.91 1408.53 1452.07C1375.98 1422.23 1357.69 1381.75 1357.69 1339.55C1357.69 1297.35 1375.98 1256.87 1408.53 1227.03C1441.08 1197.19 1485.23 1180.43 1531.26 1180.43C1577.29 1180.43 1621.44 1197.19 1653.99 1227.03C1686.54 1256.87 1704.83 1297.35 1704.83 1339.55C1704.83 1381.75 1686.54 1422.23 1653.99 1452.07C1621.44 1481.91 1577.29 1498.68 1531.26 1498.68Z" fill="#64728C"/>
</svg>
