<svg width="3062" height="3062" viewBox="0 0 3062 3062" fill="none" xmlns="http://www.w3.org/2000/svg">
<path d="M1130.32 1042.26H1931.64L1530.18 1578.09L1130.32 1042.26ZM909.956 1022.01C1071.82 1229.55 1384.71 1614.19 1384.71 1614.19V2094.98C1384.71 2139.05 1406.77 2175.11 1450.85 2175.11H1611.11C1655.18 2175.11 1676.24 2139.05 1676.24 2094.98V1614.19C1676.24 1614.19 1989.33 1229.55 2151.2 1022.01C2160.38 1010.18 2166.06 996.012 2167.58 981.113C2169.11 966.215 2166.42 951.188 2159.82 937.743C2153.23 924.299 2142.99 912.976 2130.27 905.066C2117.55 897.156 2102.87 892.975 2087.89 893H973.26C906.751 893 869.089 969.125 909.956 1022.01Z" fill="#64728C"/>
</svg>
