<svg width="3062" height="3062" viewBox="0 0 3062 3062" fill="none" xmlns="http://www.w3.org/2000/svg">
<path d="M1923.04 1590.88L1913.46 1588.11C1891.68 1581.83 1869.03 1577.84 1845.52 1576.16L1838.55 1575.67V1229.18H1110.02C1064.28 1229.18 1022.06 1214.2 987.771 1188.97V1889.3C987.771 1956.78 1042.74 2011.55 1110.02 2011.55H1117.52V2011.77H1504.2L1505.94 2016.84C1514.12 2040.76 1524.82 2063.41 1538.02 2084.57L1545.17 2096.04H1110.02C996.283 2096.04 903.5 2003.24 903.5 1889.3V1022.23L903.504 1020.9C904.225 907.777 996.732 815.722 1110.01 815.5H1880.79C1903.99 815.5 1923.04 834.269 1923.04 857.743C1923.04 880.942 1904.27 899.985 1880.79 899.985H1110.02C1042.54 899.985 987.772 954.953 987.771 1022.23C987.771 1089.71 1042.74 1144.48 1110.02 1144.48H1880.58C1904.07 1144.48 1922.78 1163.53 1923.04 1186.64L1923.04 1186.68V1590.88Z" fill="#64728C" stroke="#64728C" stroke-width="15"/>
<path d="M1819.25 1644.38C1674.12 1644.38 1556.31 1762.2 1556.31 1907.32C1556.31 2052.44 1674.12 2170.25 1819.24 2170.25C1964.36 2170.04 2081.97 2052.44 2082.18 1907.32L2082.18 1905.62C2081.26 1761.28 1963.8 1644.38 1819.25 1644.38ZM2157.23 1907.32C2157.23 2093.97 2005.89 2245.3 1819.25 2245.3C1632.6 2245.3 1481.26 2093.97 1481.26 1907.32C1481.26 1720.67 1632.6 1569.33 1819.25 1569.33H1819.25L1821.44 1569.34C2007.07 1570.73 2157.01 1721.4 2157.23 1907.31V1907.32Z" fill="#64728C" stroke="#64728C" stroke-width="15"/>
<path d="M1944.15 1804.41C1959.48 1790.43 1982.98 1791.63 1997.28 1806.46L1997.36 1806.54L1997.43 1806.61C2011.36 1821.89 2010.3 1845.71 1995.02 1859.66L1995.02 1859.66L1814.66 2025.01L1814.65 2025.02L1814.64 2025.03C1799.69 2038.64 1776.9 2038.14 1762.68 2023.93L1672.61 1933.85C1657.89 1919.13 1657.89 1895.51 1672.61 1880.78C1687.33 1866.06 1710.96 1866.06 1725.68 1880.78L1790.3 1945.4L1944.14 1804.42L1944.15 1804.42L1944.15 1804.41Z" fill="#64728C" stroke="#64728C" stroke-width="15"/>
<path d="M1853.34 970.342C1878.72 970.342 1899.02 990.642 1899.02 1016.02V1022.24C1899.02 1047.39 1878.5 1067.91 1853.34 1067.91H1099.94C1074.78 1067.91 1054.27 1047.39 1054.27 1022.24C1054.27 993.407 1077.59 970.342 1106.16 970.342H1853.34Z" fill="#64728C" stroke="#64728C" stroke-width="15"/>
</svg>
