<svg width="3062" height="3062" viewBox="0 0 3062 3062" fill="none" xmlns="http://www.w3.org/2000/svg">
<g clip-path="url(#clip0_40_1020)">
<path d="M2116 1360C2116 1333.51 2108.22 1312.52 2089.93 1293.48C1939.1 1136.26 1788.67 978.587 1638.66 820.467C1620.95 801.801 1601.38 794 1576.76 794C1464.61 794.488 1352.45 794.302 1240.21 794.116C1220.72 793.936 1201.26 795.858 1182.18 799.851C1041.25 830.543 945.417 953.591 945.138 1104.5C944.875 1246.34 944.829 1388.16 944.999 1529.97C945.169 1671.77 945.169 1813.62 944.999 1955.5C945.3 2131.07 1074 2266.42 1241.11 2266.61C1433.74 2266.93 1626.39 2266.93 1819.05 2266.61C1986.44 2266.37 2115.4 2131.37 2115.67 1955.97C2116.05 1757.49 2115.63 1558.71 2116 1360ZM1647.69 1007.59L1912.52 1285.31C1871.62 1283.17 1831.44 1288.82 1791.57 1281.57C1711.45 1267.01 1649.98 1193.21 1647.83 1108.07C1646.97 1074.64 1647.69 1041.09 1647.69 1007.59ZM1998.39 1962.49C1997.86 2063.14 1920.73 2142.98 1824.32 2143.88C1726.18 2144.79 1628.03 2144.09 1529.87 2144.09C1435.38 2144.09 1340.89 2144.09 1246.41 2144.09C1136.92 2144.09 1062.09 2065.15 1062.07 1950.02C1062.07 1670.12 1062.07 1390.23 1062.07 1110.35C1062.21 995.59 1137.39 917.048 1247.1 917.048C1336.11 917.048 1425.1 917.419 1514.02 916.63C1527.95 916.514 1530.89 920.484 1530.68 934.484C1529.85 988.787 1530.2 1043.11 1530.36 1097.42C1530.89 1272.7 1659.76 1407.43 1827.31 1407.87C1879.72 1408.03 1932.15 1408.22 1984.58 1407.64C1995.31 1407.64 1998.97 1409.54 1998.95 1421.99C1998.56 1602.1 1999.34 1782.31 1998.39 1962.49Z" fill="#64728C"/>
<path d="M1757.36 1591.91C1681.83 1591.91 1606.31 1591.91 1530.8 1591.91C1455.29 1591.91 1379.78 1591.91 1304.27 1591.91C1264.1 1591.91 1237.54 1616.72 1237.8 1653.73C1238.05 1689.79 1264.63 1714.56 1303.48 1714.58C1454.52 1714.58 1605.55 1714.58 1756.57 1714.58C1796.58 1714.58 1823.35 1689.56 1823.07 1652.71C1822.79 1616.66 1796.21 1591.95 1757.36 1591.91Z" fill="#64728C"/>
<path d="M1757.98 1837.35C1682.46 1837.26 1606.94 1837.26 1531.43 1837.35C1455.33 1837.35 1379.21 1837.35 1303.06 1837.35C1264.23 1837.35 1237.89 1862.24 1237.8 1898.53C1237.7 1934.82 1264.28 1960.01 1302.79 1960.01C1454.43 1960.1 1606.07 1960.1 1757.71 1960.01C1796.4 1960.01 1822.95 1934.93 1823.02 1898.81C1823.09 1862.68 1796.54 1837.4 1757.98 1837.35Z" fill="#64728C"/>
<path d="M1306.24 1449.59C1328.25 1450.06 1350.34 1449.59 1372.28 1449.59C1395.7 1449.59 1419.14 1449.99 1442.56 1449.59C1481.85 1448.78 1511.56 1421.5 1511.03 1387.37C1510.52 1354.17 1480.85 1327.59 1442.53 1327.01C1397.1 1326.48 1351.67 1326.48 1306.22 1327.01C1267.62 1327.47 1238.33 1353.8 1237.82 1387.21C1237.26 1421.48 1266.97 1448.71 1306.24 1449.59Z" fill="#64728C"/>
</g>
<defs>
<clipPath id="clip0_40_1020">
<rect width="1171" height="1473" fill="white" transform="translate(945 794)"/>
</clipPath>
</defs>
</svg>
