<svg width="3062" height="3062" viewBox="0 0 3062 3062" fill="none" xmlns="http://www.w3.org/2000/svg">
<g clip-path="url(#clip0_38_525)">
<path d="M1007.49 1717.02L1220.28 1801.11V910.048C1220.28 900.628 1227.94 893.02 1237.34 892.999H1407.91C1417.3 893.018 1424.94 900.628 1424.94 910.027V1801.11L1637.74 1717.02C1644.88 1714.26 1653.02 1716.53 1657.61 1722.62C1662.26 1728.76 1662.22 1737.19 1657.54 1743.27L1336.16 2161.32C1332.92 2165.54 1327.92 2167.99 1322.61 2168C1317.36 2168 1312.34 2165.54 1309.11 2161.32L987.715 1743.26C985.358 1740.19 984.178 1736.51 984.196 1732.88C984.196 1729.33 985.319 1725.67 987.609 1722.58C992.226 1716.52 1000.36 1714.21 1007.49 1717.01L1007.49 1717.02ZM2076.81 1710.01H2003.57L1962.24 1610.61H1837.79L1797.59 1710.01H1726.03L1864.6 1377.19H1937.68L2076.81 1710.01ZM1944.86 1561.9L1911.73 1482.41C1907.01 1471.13 1903.13 1460.41 1899.7 1450.06C1895.87 1461.52 1892.12 1471.88 1888.31 1481.74L1855.06 1561.88L1944.86 1561.9ZM2031.29 1785.58H1751.43V1836.7H1939.59L1733.04 2083.29V2118.45H2034.14V2067.34H1825.86L2031.25 1821.73V1785.58H2031.29L2031.29 1785.58Z" fill="#64728C"/>
</g>
<defs>
<clipPath id="clip0_38_525">
<rect width="1275" height="1275" fill="white" transform="translate(893 893)"/>
</clipPath>
</defs>
</svg>
