<svg width="3062" height="3062" viewBox="0 0 3062 3062" fill="none" xmlns="http://www.w3.org/2000/svg">
<path d="M1171.91 893C1182.47 893 1192.61 897.198 1200.08 904.67C1207.55 912.142 1211.75 922.277 1211.75 932.844V972.687H1849.25V932.844C1849.25 922.277 1853.45 912.142 1860.92 904.67C1868.39 897.198 1878.52 893 1889.09 893C1899.66 893 1909.8 897.198 1917.27 904.67C1924.74 912.142 1928.94 922.277 1928.94 932.844V972.687H2008.62C2050.89 972.687 2091.43 989.479 2121.32 1019.37C2151.21 1049.26 2168 1089.79 2168 1132.06V2008.62C2168 2050.89 2151.21 2091.43 2121.32 2121.32C2091.43 2151.21 2050.89 2168 2008.62 2168H1052.37C1010.11 2168 969.568 2151.21 939.68 2121.32C909.791 2091.43 893 2050.89 893 2008.62V1132.06C893 1089.79 909.791 1049.26 939.68 1019.37C969.568 989.479 1010.11 972.687 1052.37 972.687H1132.06V932.844C1132.06 922.277 1136.26 912.142 1143.73 904.67C1151.2 897.198 1161.34 893 1171.91 893ZM1052.37 1052.37C1031.24 1052.37 1010.97 1060.77 996.028 1075.72C981.083 1090.66 972.687 1110.93 972.687 1132.06V1211.75H2088.31V1132.06C2088.31 1110.93 2079.92 1090.66 2064.97 1075.72C2050.03 1060.77 2029.76 1052.37 2008.62 1052.37H1052.37ZM2088.31 1291.44H972.687V2008.62C972.687 2029.76 981.083 2050.03 996.028 2064.97C1010.97 2079.92 1031.24 2088.31 1052.37 2088.31H2008.62C2029.76 2088.31 2050.03 2079.92 2064.97 2064.97C2079.92 2050.03 2088.31 2029.76 2088.31 2008.62V1291.44Z" fill="#64728C"/>
<path d="M1769.59 1490.66C1769.59 1480.08 1773.79 1469.95 1781.26 1462.48C1788.73 1455.01 1798.87 1450.81 1809.44 1450.81H1889.12C1899.69 1450.81 1909.83 1455.01 1917.3 1462.48C1924.77 1469.95 1928.97 1480.08 1928.97 1490.66V1570.34C1928.97 1580.91 1924.77 1591.05 1917.3 1598.52C1909.83 1605.99 1899.69 1610.19 1889.12 1610.19H1809.44C1798.87 1610.19 1788.73 1605.99 1781.26 1598.52C1773.79 1591.05 1769.59 1580.91 1769.59 1570.34V1490.66Z" fill="#64728C"/>
<path d="M1424.41 1490.66C1424.41 1480.08 1428.61 1469.95 1436.08 1462.48C1443.55 1455.01 1453.69 1450.81 1464.26 1450.81H1543.94C1554.51 1450.81 1564.64 1455.01 1572.12 1462.48C1579.59 1469.95 1583.79 1480.08 1583.79 1490.66V1570.34C1583.79 1580.91 1579.59 1591.05 1572.12 1598.52C1564.64 1605.99 1554.51 1610.19 1543.94 1610.19H1464.26C1453.69 1610.19 1443.55 1605.99 1436.08 1598.52C1428.61 1591.05 1424.41 1580.91 1424.41 1570.34V1490.66Z" fill="#64728C"/>
<path d="M1105.66 1490.66C1105.66 1480.08 1109.86 1469.95 1117.33 1462.48C1124.81 1455.01 1134.94 1450.81 1145.51 1450.81H1225.2C1235.76 1450.81 1245.9 1455.01 1253.37 1462.48C1260.84 1469.95 1265.04 1480.08 1265.04 1490.66V1570.34C1265.04 1580.91 1260.84 1591.05 1253.37 1598.52C1245.9 1605.99 1235.76 1610.19 1225.2 1610.19H1145.51C1134.94 1610.19 1124.81 1605.99 1117.33 1598.52C1109.86 1591.05 1105.66 1580.91 1105.66 1570.34V1490.66Z" fill="#64728C"/>
</svg>
