<svg width="3062" height="3062" viewBox="0 0 3062 3062" fill="none" xmlns="http://www.w3.org/2000/svg">
<g clip-path="url(#clip0_25_140)">
<path d="M2146.59 1473.4L1953.35 1280.21V1057.04C1953 1037.9 1945.14 1019.66 1931.47 1006.25C1917.81 992.844 1899.42 985.332 1880.28 985.332C1861.13 985.332 1842.74 992.844 1829.08 1006.25C1815.41 1019.66 1807.56 1037.9 1807.2 1057.04V1134.23L1663.33 990.368C1592.19 919.297 1468.53 919.426 1397.54 990.368L914.387 1473.4C900.681 1487.11 892.982 1505.7 892.984 1525.08C892.987 1544.46 900.69 1563.05 914.4 1576.75C928.109 1590.46 946.702 1598.15 966.088 1598.15C985.474 1598.15 1004.07 1590.45 1017.77 1576.74L1500.88 1093.68C1516.63 1078.04 1544.37 1078.04 1560.07 1093.68L2043.2 1576.74C2049.99 1583.53 2058.05 1588.91 2066.91 1592.59C2075.78 1596.26 2085.29 1598.15 2094.89 1598.15C2104.48 1598.15 2113.99 1596.26 2122.86 1592.59C2131.73 1588.92 2139.79 1583.54 2146.57 1576.75C2153.36 1569.97 2158.75 1561.91 2162.42 1553.05C2166.1 1544.18 2167.99 1534.68 2167.99 1525.08C2167.99 1515.48 2166.1 1505.98 2162.43 1497.11C2158.76 1488.25 2153.37 1480.19 2146.59 1473.4Z" fill="#64728C"/>
<path d="M1537.86 1232.37C1534.53 1229.04 1530.57 1226.4 1526.22 1224.59C1521.86 1222.79 1517.2 1221.86 1512.48 1221.86C1507.77 1221.86 1503.1 1222.79 1498.75 1224.59C1494.4 1226.4 1490.44 1229.04 1487.11 1232.37L1062.12 1657.12C1055.39 1663.88 1051.61 1673.02 1051.62 1682.55V1992.36C1051.62 2027.27 1065.5 2060.75 1090.19 2085.43C1114.88 2110.12 1148.37 2123.99 1183.28 2124H1393.68V1798.21H1631.23V2124H1841.66C1876.57 2123.99 1910.06 2110.12 1934.74 2085.43C1959.43 2060.75 1973.3 2027.27 1973.3 1992.36V1682.55C1973.31 1677.83 1972.39 1673.15 1970.58 1668.79C1968.78 1664.43 1966.14 1660.46 1962.8 1657.12L1537.86 1232.37Z" fill="#64728C"/>
</g>
<defs>
<clipPath id="clip0_25_140">
<rect width="1275" height="1187" fill="white" transform="translate(893 937)"/>
</clipPath>
</defs>
</svg>
