<svg width="3062" height="3062" viewBox="0 0 3062 3062" fill="none" xmlns="http://www.w3.org/2000/svg">
<path d="M2026.33 1014.9H1955.5V886H1813.83V1014.9H1247.17V886H1105.5V1014.9H1034.67C956.042 1014.9 893.708 1072.9 893.708 1143.8L893 2046.1C893 2080.29 907.926 2113.07 934.493 2137.25C961.061 2161.42 997.094 2175 1034.67 2175H2026.33C2104.25 2175 2168 2116.99 2168 2046.1V1143.8C2168 1072.9 2104.25 1014.9 2026.33 1014.9ZM2026.33 2046.1H1034.67V1354.61H2026.33V2046.1ZM1318 1659.4H1176.33V1530.5H1318V1659.4ZM1601.33 1659.4H1459.67V1530.5H1601.33V1659.4ZM1884.67 1659.4H1743V1530.5H1884.67V1659.4Z" fill="#64728C"/>
</svg>
