<svg width="3062" height="3062" viewBox="0 0 3062 3062" fill="none" xmlns="http://www.w3.org/2000/svg">
<g clip-path="url(#clip0_40_797)">
<path d="M1172.17 893C1182.73 893 1192.87 897.198 1200.34 904.67C1207.81 912.142 1212.01 922.277 1212.01 932.844V972.687H1849.51V932.844C1849.51 922.277 1853.71 912.142 1861.18 904.67C1868.65 897.198 1878.78 893 1889.35 893C1899.92 893 1910.06 897.198 1917.53 904.67C1925 912.142 1929.2 922.277 1929.2 932.844V972.687H2008.88C2051.15 972.687 2091.69 989.479 2121.58 1019.37C2151.47 1049.26 2168.26 1089.79 2168.26 1132.06V2008.62C2168.26 2050.89 2151.47 2091.43 2121.58 2121.32C2091.69 2151.21 2051.15 2168 2008.88 2168H1052.63C1010.37 2168 969.828 2151.21 939.94 2121.32C910.051 2091.43 893.26 2050.89 893.26 2008.62V1132.06C893.26 1089.79 910.051 1049.26 939.94 1019.37C969.828 989.479 1010.37 972.687 1052.63 972.687H1132.32V932.844C1132.32 922.277 1136.52 912.142 1143.99 904.67C1151.46 897.198 1161.6 893 1172.17 893ZM1052.63 1052.37C1031.5 1052.37 1011.23 1060.77 996.287 1075.72C981.343 1090.66 972.947 1110.93 972.947 1132.06V1211.75H2088.57V1132.06C2088.57 1110.93 2080.18 1090.66 2065.23 1075.72C2050.29 1060.77 2030.02 1052.37 2008.88 1052.37H1052.63ZM2088.57 1291.44H972.947V2008.62C972.947 2029.76 981.343 2050.03 996.287 2064.97C1011.23 2079.92 1031.5 2088.31 1052.63 2088.31H2008.88C2030.02 2088.31 2050.29 2079.92 2065.23 2064.97C2080.18 2050.03 2088.57 2029.76 2088.57 2008.62V1291.44Z" fill="#64728C"/>
<path d="M1769.82 1490.66C1769.82 1480.09 1774.02 1469.95 1781.49 1462.48C1788.96 1455.01 1799.1 1450.81 1809.67 1450.81H1889.35C1899.92 1450.81 1910.06 1455.01 1917.53 1462.48C1925 1469.95 1929.2 1480.09 1929.2 1490.66V1570.34C1929.2 1580.91 1925 1591.05 1917.53 1598.52C1910.06 1605.99 1899.92 1610.19 1889.35 1610.19H1809.67C1799.1 1610.19 1788.96 1605.99 1781.49 1598.52C1774.02 1591.05 1769.82 1580.91 1769.82 1570.34V1490.66Z" fill="#64728C"/>
<path d="M1424.52 1490.66C1424.52 1480.09 1428.71 1469.95 1436.18 1462.48C1443.66 1455.01 1453.79 1450.81 1464.36 1450.81H1544.04C1554.61 1450.81 1564.75 1455.01 1572.22 1462.48C1579.69 1469.95 1583.89 1480.09 1583.89 1490.66V1570.34C1583.89 1580.91 1579.69 1591.05 1572.22 1598.52C1564.75 1605.99 1554.61 1610.19 1544.04 1610.19H1464.36C1453.79 1610.19 1443.66 1605.99 1436.18 1598.52C1428.71 1591.05 1424.52 1580.91 1424.52 1570.34V1490.66Z" fill="#64728C"/>
<path d="M1105.76 1490.66C1105.76 1480.09 1109.95 1469.95 1117.43 1462.48C1124.9 1455.01 1135.03 1450.81 1145.6 1450.81H1225.29C1235.85 1450.81 1245.99 1455.01 1253.46 1462.48C1260.93 1469.95 1265.13 1480.09 1265.13 1490.66V1570.34C1265.13 1580.91 1260.93 1591.05 1253.46 1598.52C1245.99 1605.99 1235.85 1610.19 1225.29 1610.19H1145.6C1135.03 1610.19 1124.9 1605.99 1117.43 1598.52C1109.95 1591.05 1105.76 1580.91 1105.76 1570.34V1490.66Z" fill="#64728C"/>
</g>
<defs>
<clipPath id="clip0_40_797">
<rect width="1275" height="1275" fill="white" transform="translate(893.26 893)"/>
</clipPath>
</defs>
</svg>
