<svg width="3062" height="3062" viewBox="0 0 3062 3062" fill="none" xmlns="http://www.w3.org/2000/svg">
<path fill-rule="evenodd" clip-rule="evenodd" d="M1311.5 1662.25C1311.5 1650.65 1316.11 1639.52 1324.32 1631.31C1332.52 1623.11 1343.65 1618.5 1355.25 1618.5H1705.25C1716.86 1618.5 1727.99 1623.11 1736.19 1631.31C1744.39 1639.52 1749 1650.65 1749 1662.25C1749 1673.85 1744.39 1684.98 1736.19 1693.19C1727.99 1701.39 1716.86 1706 1705.25 1706H1355.25C1343.65 1706 1332.52 1701.39 1324.32 1693.19C1316.11 1684.98 1311.5 1673.85 1311.5 1662.25Z" fill="#64728C"/>
<path fill-rule="evenodd" clip-rule="evenodd" d="M1311.5 1487.25C1311.5 1475.65 1316.11 1464.52 1324.32 1456.31C1332.52 1448.11 1343.65 1443.5 1355.25 1443.5H1705.25C1716.86 1443.5 1727.99 1448.11 1736.19 1456.31C1744.39 1464.52 1749 1475.65 1749 1487.25C1749 1498.85 1744.39 1509.98 1736.19 1518.19C1727.99 1526.39 1716.86 1531 1705.25 1531H1355.25C1343.65 1531 1332.52 1526.39 1324.32 1518.19C1316.11 1509.98 1311.5 1498.85 1311.5 1487.25Z" fill="#64728C"/>
<path fill-rule="evenodd" clip-rule="evenodd" d="M1311.5 1837.25C1311.5 1825.65 1316.11 1814.52 1324.32 1806.31C1332.52 1798.11 1343.65 1793.5 1355.25 1793.5H1705.25C1716.86 1793.5 1727.99 1798.11 1736.19 1806.31C1744.39 1814.52 1749 1825.65 1749 1837.25C1749 1848.85 1744.39 1859.98 1736.19 1868.19C1727.99 1876.39 1716.86 1881 1705.25 1881H1355.25C1343.65 1881 1332.52 1876.39 1324.32 1868.19C1316.11 1859.98 1311.5 1848.85 1311.5 1837.25Z" fill="#64728C"/>
<path d="M1180.25 962.25H1092.75C1046.34 962.25 1001.83 980.687 969.01 1013.51C936.191 1046.32 917.754 1090.84 917.754 1137.25V2056C917.754 2102.41 936.191 2146.92 969.01 2179.74C1001.83 2212.56 1046.34 2231 1092.75 2231H1967.75C2014.17 2231 2058.68 2212.56 2091.5 2179.74C2124.32 2146.92 2142.75 2102.41 2142.75 2056V1137.25C2142.75 1090.84 2124.32 1046.32 2091.5 1013.51C2058.68 980.687 2014.17 962.25 1967.75 962.25H1880.25V1049.75H1967.75C1990.96 1049.75 2013.22 1058.97 2029.63 1075.38C2046.03 1091.79 2055.25 1114.04 2055.25 1137.25V2056C2055.25 2079.2 2046.03 2101.46 2029.63 2117.87C2013.22 2134.28 1990.96 2143.5 1967.75 2143.5H1092.75C1069.55 2143.5 1047.29 2134.28 1030.88 2117.87C1014.47 2101.46 1005.25 2079.2 1005.25 2056V1137.25C1005.25 1114.04 1014.47 1091.79 1030.88 1075.38C1047.29 1058.97 1069.55 1049.75 1092.75 1049.75H1180.25V962.25Z" fill="#64728C"/>
<path d="M1661.5 937.918C1673.11 937.918 1684.24 942.528 1692.44 950.732C1700.64 958.937 1705.25 970.065 1705.25 981.668V1069.17C1705.25 1080.77 1700.64 1091.9 1692.44 1100.1C1684.24 1108.31 1673.11 1112.92 1661.5 1112.92H1399C1387.4 1112.92 1376.27 1108.31 1368.07 1100.1C1359.86 1091.9 1355.25 1080.77 1355.25 1069.17V981.668C1355.25 970.065 1359.86 958.937 1368.07 950.732C1376.27 942.528 1387.4 937.918 1399 937.918H1661.5ZM1399 850.418C1364.19 850.418 1330.81 864.246 1306.2 888.86C1281.58 913.474 1267.75 946.858 1267.75 981.668V1069.17C1267.75 1103.98 1281.58 1137.36 1306.2 1161.98C1330.81 1186.59 1364.19 1200.42 1399 1200.42H1661.5C1696.31 1200.42 1729.7 1186.59 1754.31 1161.98C1778.92 1137.36 1792.75 1103.98 1792.75 1069.17V981.668C1792.75 946.858 1778.92 913.474 1754.31 888.86C1729.7 864.246 1696.31 850.418 1661.5 850.418H1399Z" fill="#64728C"/>
</svg>
