<svg width="3062" height="3062" viewBox="0 0 3062 3062" fill="none" xmlns="http://www.w3.org/2000/svg">
<path d="M1624.86 1558.52L1603.84 1580.26V1392.5C1603.84 1373.27 1596.2 1354.83 1582.6 1341.23C1569.01 1327.64 1550.57 1320 1531.34 1320C1512.11 1320 1493.67 1327.64 1480.07 1341.23C1466.48 1354.83 1458.84 1373.27 1458.84 1392.5V1580.26L1437.82 1558.5C1424.12 1545.05 1405.67 1537.55 1386.47 1537.63C1367.28 1537.72 1348.9 1545.38 1335.32 1558.96C1321.75 1572.53 1314.09 1590.91 1314 1610.11C1313.91 1629.3 1321.41 1647.75 1334.86 1661.45L1479.86 1806.45C1486.75 1813.06 1494.89 1818.23 1503.79 1821.66C1512.47 1825.5 1521.85 1827.48 1531.34 1827.48C1540.83 1827.48 1550.21 1825.5 1558.89 1821.66C1567.79 1818.23 1575.93 1813.06 1582.82 1806.45L1727.82 1661.45C1741.27 1647.75 1748.76 1629.3 1748.68 1610.11C1748.59 1590.91 1740.93 1572.53 1727.36 1558.96C1713.78 1545.38 1695.4 1537.72 1676.2 1537.63C1657.01 1537.55 1638.56 1545.05 1624.86 1558.5V1558.52Z" fill="#64728C"/>
<path d="M1957.15 2212.69H1104.85C1034.1 2212.69 977 2155.59 977 2084.85V976.846C977 906.105 1034.1 849 1104.85 849H1709.13C1743.22 849 1775.61 862.637 1799.48 886.502L2047.5 1134.52C2071.36 1158.39 2085 1190.78 2085 1224.87V2084.85C2085 2155.59 2027.9 2212.69 1957.15 2212.69ZM1104.85 934.231C1080.98 934.231 1062.23 952.982 1062.23 976.846V2084.85C1062.23 2108.71 1080.98 2127.46 1104.85 2127.46H1957.15C1981.02 2127.46 1999.77 2108.71 1999.77 2084.85V1224.87C1999.84 1219.28 1998.74 1213.74 1996.53 1208.6C1994.33 1203.46 1991.08 1198.84 1986.98 1195.04L1738.96 947.015C1731.09 938.986 1720.37 934.391 1709.13 934.231H1104.85Z" fill="#64728C"/>
<path d="M2032.16 1275.16H1784.14C1715.1 1275.16 1658.85 1218.91 1658.85 1149.88V901.854C1658.85 877.989 1677.6 859.238 1701.46 859.238C1725.33 859.238 1744.08 877.989 1744.08 901.854V1149.88C1744.08 1172.04 1761.98 1189.93 1784.14 1189.93H2032.16C2056.02 1189.93 2074.77 1208.68 2074.77 1232.55C2074.77 1256.41 2056.02 1275.16 2032.16 1275.16Z" fill="#64728C"/>
</svg>
