<svg width="3062" height="3062" viewBox="0 0 3062 3062" fill="none" xmlns="http://www.w3.org/2000/svg">
<path d="M1957.15 2212.69H1104.85C1034.1 2212.69 977 2155.59 977 2084.85V976.846C977 906.105 1034.1 849 1104.85 849H1709.13C1743.22 849 1775.61 862.637 1799.48 886.502L2047.5 1134.52C2071.36 1158.39 2085 1190.78 2085 1224.87V2084.85C2085 2155.59 2027.9 2212.69 1957.15 2212.69ZM1104.85 934.231C1080.98 934.231 1062.23 952.982 1062.23 976.846V2084.85C1062.23 2108.71 1080.98 2127.46 1104.85 2127.46H1957.15C1981.02 2127.46 1999.77 2108.71 1999.77 2084.85V1224.87C1999.84 1219.28 1998.74 1213.74 1996.53 1208.6C1994.33 1203.46 1991.08 1198.84 1986.98 1195.04L1738.96 947.015C1731.09 938.986 1720.37 934.391 1709.13 934.231H1104.85Z" fill="#64728C"/>
<path d="M2032.15 1275.16H1784.13C1715.1 1275.16 1658.84 1218.91 1658.84 1149.88V901.854C1658.84 877.989 1677.59 859.238 1701.46 859.238C1725.32 859.238 1744.07 877.989 1744.07 901.854V1149.88C1744.07 1172.04 1761.97 1189.93 1784.13 1189.93H2032.15C2056.02 1189.93 2074.77 1208.68 2074.77 1232.55C2074.77 1256.41 2056.02 1275.16 2032.15 1275.16Z" fill="#64728C"/>
<path d="M1531 1788.17C1525.38 1788.21 1519.81 1787.13 1514.6 1785C1509.39 1782.88 1504.66 1779.75 1500.67 1775.79L1329.82 1604.93C1322.81 1596.76 1319.14 1586.25 1319.55 1575.49C1319.95 1564.73 1324.41 1554.52 1332.02 1546.91C1339.64 1539.3 1349.84 1534.84 1360.6 1534.43C1371.36 1534.02 1381.87 1537.69 1390.04 1544.7L1531 1685.23L1671.53 1544.7C1679.7 1537.69 1690.22 1534.02 1700.98 1534.43C1711.73 1534.84 1721.94 1539.3 1729.55 1546.91C1737.16 1554.52 1741.62 1564.73 1742.03 1575.49C1742.44 1586.25 1738.77 1596.76 1731.76 1604.93L1560.9 1775.79C1552.94 1783.67 1542.21 1788.12 1531 1788.17Z" fill="#64728C"/>
<path d="M1531 1724.11C1521.09 1724.11 1511.58 1720.17 1504.57 1713.16C1497.56 1706.15 1493.62 1696.64 1493.62 1686.73V1312.98C1493.54 1308.02 1494.45 1303.1 1496.29 1298.49C1498.13 1293.89 1500.87 1289.7 1504.35 1286.16C1507.83 1282.63 1511.98 1279.82 1516.55 1277.9C1521.13 1275.99 1526.04 1275 1531 1275C1535.95 1275 1540.86 1275.99 1545.44 1277.9C1550.01 1279.82 1554.16 1282.63 1557.64 1286.16C1561.12 1289.7 1563.86 1293.89 1565.7 1298.49C1567.54 1303.1 1568.45 1308.02 1568.37 1312.98V1686.73C1568.37 1696.64 1564.43 1706.14 1557.42 1713.15C1550.42 1720.16 1540.91 1724.1 1531 1724.11ZM1792.62 1873.61H1269.38C1259.46 1873.61 1249.96 1869.67 1242.95 1862.66C1235.94 1855.65 1232 1846.14 1232 1836.23C1232 1826.31 1235.94 1816.81 1242.95 1809.8C1249.96 1802.79 1259.46 1798.85 1269.38 1798.85H1792.62C1802.54 1798.85 1812.04 1802.79 1819.05 1809.8C1826.06 1816.81 1830 1826.31 1830 1836.23C1830 1846.14 1826.06 1855.65 1819.05 1862.66C1812.04 1869.67 1802.54 1873.61 1792.62 1873.61Z" fill="#64728C"/>
</svg>
