<svg width="3062" height="3062" viewBox="0 0 3062 3062" fill="none" xmlns="http://www.w3.org/2000/svg">
<path d="M1723.25 1321.27C1722.76 1321.76 1722.31 1322.27 1721.88 1322.82L1482.76 1628.32L1338.59 1483.77C1318.42 1463.55 1285.72 1463.55 1265.55 1483.77C1245.38 1504 1245.38 1536.78 1265.55 1557.01L1447.79 1739.73C1467.97 1759.96 1500.67 1759.96 1520.84 1739.73C1521.29 1739.29 1521.71 1738.81 1522.11 1738.31L1797.03 1393.75C1816.46 1373.48 1816.21 1341.24 1796.29 1321.27C1776.12 1301.05 1743.42 1301.05 1723.25 1321.27Z" fill="#64728C"/>
<path fill-rule="evenodd" clip-rule="evenodd" d="M1716.03 1314.06C1740.18 1289.84 1779.36 1289.84 1803.51 1314.06C1827.25 1337.86 1827.65 1376.17 1804.72 1400.46L1530.08 1744.67C1529.45 1745.46 1528.77 1746.22 1528.06 1746.93C1503.9 1771.15 1464.73 1771.15 1440.57 1746.93L1258.33 1564.21C1234.18 1540 1234.18 1500.77 1258.33 1476.57C1282.48 1452.35 1321.66 1452.35 1345.81 1476.57L1481.83 1612.95L1713.85 1316.53L1721.88 1322.81L1482.76 1628.32L1338.59 1483.77C1318.42 1463.55 1285.72 1463.55 1265.55 1483.77C1245.38 1503.99 1245.38 1536.78 1265.55 1557L1447.79 1739.73C1467.97 1759.95 1500.67 1759.95 1520.84 1739.73C1521.29 1739.28 1521.71 1738.81 1522.11 1738.31L1797.03 1393.75C1816.46 1373.47 1816.21 1341.24 1796.29 1321.27C1776.12 1301.04 1743.42 1301.04 1723.25 1321.27C1722.76 1321.75 1722.31 1322.27 1721.88 1322.81L1713.85 1316.53C1714.52 1315.66 1715.25 1314.84 1716.03 1314.06Z" fill="#64728C"/>
<path fill-rule="evenodd" clip-rule="evenodd" d="M1530.92 2025.2C1804.14 2025.2 2025.62 1803.72 2025.62 1530.5C2025.62 1257.28 1804.14 1035.8 1530.92 1035.8C1257.7 1035.8 1036.22 1257.28 1036.22 1530.5C1036.22 1803.72 1257.7 2025.2 1530.92 2025.2ZM1530.92 2168C1883 2168 2168.42 1882.58 2168.42 1530.5C2168.42 1178.42 1883 893 1530.92 893C1178.84 893 893.42 1178.42 893.42 1530.5C893.42 1882.58 1178.84 2168 1530.92 2168Z" fill="#64728C"/>
</svg>
