<svg width="3062" height="3062" viewBox="0 0 3062 3062" fill="none" xmlns="http://www.w3.org/2000/svg">
<g clip-path="url(#clip0_24_88)">
<path d="M903.624 2111.77C912.954 2088.18 917.1 2062.79 923.32 2038.43C942.755 1961.72 961.673 1884.75 980.85 1807.79C982.664 1800.27 986.81 1793.27 992.512 1787.83C1222.37 1557.97 1451.98 1328.37 1681.58 1098.5C1688.58 1091.51 1691.69 1092.8 1697.65 1099.02C1782.91 1184.8 1868.43 1270.06 1954.2 1355.32C1961.2 1362.31 1960.68 1365.68 1953.94 1372.16C1724.86 1600.73 1496.03 1829.56 1267.21 2058.64C1260.73 2065.38 1252.18 2070.3 1242.85 2072.63C1141.78 2097.25 1040.71 2122.39 939.905 2147.53C939.387 2147.79 938.868 2148.82 938.35 2149.34H923.32C912.954 2148.05 904.661 2139.75 903.365 2129.39V2111.77H903.624Z" fill="#64728C"/>
<path d="M903.623 2165.41C908.029 2173.96 915.025 2180.7 923.577 2185.36C903.623 2185.1 903.623 2185.1 903.623 2165.41Z" fill="#64728C"/>
<path d="M2139.49 1129.08C2138.71 1164.07 2127.83 1195.68 2103.21 1221.34C2072.11 1253.47 2039.98 1284.57 2008.88 1316.7C2001.62 1324.22 1999.03 1317.22 1995.66 1313.59C1923.62 1241.81 1851.58 1169.77 1779.54 1097.73C1765.28 1083.47 1751.03 1068.96 1736.52 1054.97C1731.85 1050.56 1731.59 1047.97 1736.52 1043.3C1767.1 1013.24 1796.9 981.887 1828.26 952.345C1880.86 902.329 1964.31 901.293 2017.43 950.531C2047.49 978.259 2076 1007.8 2104.25 1037.6C2128.09 1062.74 2138.71 1094.1 2139.49 1129.08Z" fill="#64728C"/>
</g>
<defs>
<clipPath id="clip0_24_88">
<rect width="1275" height="1275" fill="white" transform="translate(893 893)"/>
</clipPath>
</defs>
</svg>
