<svg width="3062" height="3062" viewBox="0 0 3062 3062" fill="none" xmlns="http://www.w3.org/2000/svg">
<g clip-path="url(#clip0_25_267)">
<path d="M1360.37 829.219C1354.88 833.095 1349.4 833.863 1343.91 829.219H1360.37Z" fill="black"/>
<path d="M2096.53 1020.54C2096.16 946.347 2063.2 889.264 1999.36 850.283C1977.34 836.826 1953.3 831.267 1928.1 829.219H1360.37C1357.75 830.316 1354.93 830.863 1352.08 830.825C1349.24 830.787 1346.43 830.166 1343.84 829H1338.28C1337.22 829.806 1335.95 830.288 1334.62 830.39C1290.94 830.39 1253.7 848.125 1220.48 874.271C1161.95 920.421 1105.28 968.691 1048.54 1016.89C994.475 1063.04 965.026 1122.9 964.769 1193.4C963.526 1477.94 964.001 1762.48 964.477 2047.01C964.287 2086.7 977.14 2125.34 1001.06 2157.01C1033.29 2200.09 1074.77 2228.39 1129.98 2233H1928.17C1942.37 2230.07 1957 2230.59 1970.94 2225.39C2008.02 2211.46 2039.95 2186.53 2062.44 2153.94C2084.93 2121.35 2096.92 2082.66 2096.78 2043.06V1527.67C2096.78 1358.65 2097.37 1189.6 2096.53 1020.54ZM1998.3 1531.77V2037.47C1998.3 2086.84 1973.35 2122.45 1930.4 2135.18C1920.31 2138.07 1909.84 2139.46 1899.35 2139.31H1160.38C1102.69 2139.31 1062.15 2098.79 1062.15 2040.94C1062.01 1760.59 1062.01 1480.1 1062.15 1199.47C1062.15 1155.04 1079.09 1117.85 1113.37 1089.18C1166.45 1045.3 1220.01 1001.68 1273.05 957.537C1300.47 934.317 1335.38 921.819 1371.31 922.359C1546.32 922.651 1721.35 922.822 1896.38 922.871C1959.08 922.871 1998.08 961.889 1998.12 1024.57C1998.34 1193.66 1998.4 1362.73 1998.3 1531.77Z" fill="#64728C"/>
<path d="M1812.72 1858.72H1530.41C1436.27 1858.72 1342.14 1858.72 1248.03 1858.72C1219.38 1858.72 1198.28 1878.43 1198.31 1905.57C1198.35 1932.7 1219.27 1952.56 1248.06 1952.56H1812.72C1841.54 1952.56 1862.43 1932.74 1862.43 1905.53C1862.43 1878.33 1841.43 1858.72 1812.72 1858.72Z" fill="#64728C"/>
<path d="M1255.02 1718.23H1534.69H1814.25C1842.46 1718.23 1862.62 1698.48 1862.62 1671.64V1670.73C1862.55 1664.62 1861.29 1658.59 1858.9 1652.98C1856.5 1647.36 1853.02 1642.27 1848.66 1638C1844.3 1633.73 1839.14 1630.36 1833.47 1628.08C1827.81 1625.8 1821.75 1624.66 1815.64 1624.72H1255.05C1248.71 1624.65 1242.41 1625.85 1236.54 1628.26C1230.67 1630.67 1225.35 1634.23 1220.88 1638.74C1216.42 1643.24 1212.9 1648.6 1210.55 1654.49C1208.2 1660.39 1207.06 1666.69 1207.2 1673.03C1207.36 1679.14 1208.73 1685.16 1211.22 1690.74C1213.71 1696.32 1217.28 1701.35 1221.72 1705.55C1226.17 1709.75 1231.39 1713.03 1237.11 1715.21C1242.82 1717.38 1248.91 1718.41 1255.02 1718.23Z" fill="#64728C"/>
<path d="M1680.73 1465.62C1686.52 1473.3 1694.57 1478.99 1703.75 1481.88C1712.93 1484.78 1722.78 1484.74 1731.94 1481.78C1741.2 1478.99 1749.31 1473.29 1755.09 1465.53C1760.86 1457.78 1763.98 1448.37 1763.99 1438.7C1764.25 1390.8 1763.99 1342.86 1763.99 1294.92H1764.43V1153.84C1764.43 1126.34 1745.19 1106.3 1719.03 1105.75H1716.58C1704.28 1105.94 1692.56 1111.01 1683.99 1119.83C1675.42 1128.65 1670.71 1140.52 1670.89 1152.81C1670.67 1246.86 1670.89 1340.92 1670.89 1434.97C1670.66 1446 1674.12 1456.78 1680.73 1465.62Z" fill="#64728C"/>
<path d="M1530.63 1484.27C1557.15 1483.97 1576.91 1462.58 1576.91 1433.55V1256.85C1576.91 1229.2 1556.5 1208.1 1530.34 1207.92C1504.18 1207.74 1483.48 1228.8 1483.48 1256.37V1345.45C1483.48 1374.71 1483.48 1403.96 1483.48 1433.22C1483.7 1463.06 1504.11 1484.56 1530.63 1484.27Z" fill="#64728C"/>
<path d="M1298.84 1452.52C1306.16 1473.04 1327.23 1486.68 1347.94 1484.01C1359.42 1482.74 1370.04 1477.27 1377.74 1468.66C1385.44 1460.05 1389.69 1448.9 1389.68 1437.35C1390.34 1413.21 1389.68 1389.01 1389.68 1364.83H1389.97C1389.97 1341.21 1390.23 1317.3 1389.97 1293.67C1389.64 1265.92 1369.56 1245.59 1342.78 1245.66C1316 1245.73 1296.14 1266.21 1296.14 1294.07C1296.28 1339.66 1296.36 1385.28 1296.36 1430.91C1295.96 1438.21 1296.8 1445.51 1298.84 1452.52Z" fill="#64728C"/>
</g>
<defs>
<clipPath id="clip0_25_267">
<rect width="1133" height="1404" fill="white" transform="translate(964 829)"/>
</clipPath>
</defs>
</svg>
