<svg width="3062" height="3062" viewBox="0 0 3062 3062" fill="none" xmlns="http://www.w3.org/2000/svg">
<path d="M2118.2 892.639H942.805C928.693 892.639 916.865 897.412 907.319 906.958C897.773 916.504 893 928.333 893 942.444C893 977.307 896.735 1011.34 904.206 1044.54C911.677 1078.58 922.26 1110.95 935.957 1141.66C949.653 1172.38 966.462 1201.84 986.384 1230.07C1007.14 1257.46 1030.38 1282.78 1056.11 1306.02L1274.01 1499.01C1293.1 1516.44 1307.83 1536.57 1318.21 1559.4C1328.58 1582.23 1333.77 1606.51 1333.77 1632.24V2117.83C1333.77 2137.76 1342.49 2152.49 1359.92 2162.04C1377.35 2171.58 1394.37 2170.54 1410.97 2158.92L1704.82 1963.44C1712.29 1958.46 1717.89 1952.44 1721.63 1945.39C1725.36 1938.33 1727.23 1930.65 1727.23 1922.35V1632.24C1727.23 1606.51 1732.42 1582.23 1742.79 1559.4C1753.17 1536.57 1767.9 1516.44 1786.99 1499.01L2004.89 1306.02C2030.62 1282.78 2053.86 1257.46 2074.62 1230.07C2094.54 1201.84 2111.35 1172.38 2125.04 1141.66C2138.74 1110.95 2149.32 1078.58 2156.79 1044.54C2164.26 1011.34 2168 977.307 2168 942.444C2168 928.333 2163.23 916.504 2153.68 906.958C2144.14 897.412 2132.31 892.639 2118.2 892.639ZM1938.9 1231.31L1721 1425.55C1691.12 1451.28 1668.09 1482.2 1651.9 1518.31C1635.71 1554.42 1627.62 1592.4 1627.62 1632.24V1894.96L1433.38 2024.45V1632.24C1433.38 1592.4 1425.29 1554.42 1409.1 1518.31C1392.91 1482.2 1369.88 1451.28 1340 1425.55L1122.1 1231.31C1087.24 1200.6 1059.02 1164.49 1037.43 1122.99C1015.85 1081.48 1002.16 1037.9 996.345 992.249H2064.66C2058.84 1037.9 2045.15 1081.48 2023.57 1122.99C2001.98 1164.49 1973.76 1200.6 1938.9 1231.31Z" fill="#64728C"/>
</svg>
