<svg width="3062" height="3062" viewBox="0 0 3062 3062" fill="none" xmlns="http://www.w3.org/2000/svg">
<path d="M1829.26 1832.29C1811 1850.56 1792.53 1868.82 1773.85 1887.08C1755.18 1905.34 1736.71 1924.02 1718.45 1943.11C1713.46 1947.26 1708.48 1950.79 1703.5 1953.69C1698.52 1956.6 1692.71 1958.88 1686.07 1960.54C1653.7 1968.84 1621.12 1977.14 1588.33 1985.44C1555.54 1993.74 1522.96 2002.04 1490.59 2010.35C1485.61 2011.18 1480.84 2012.01 1476.27 2012.84C1471.7 2013.67 1466.93 2013.67 1461.95 2012.84C1451.16 2012.01 1442.86 2006.61 1437.05 1996.65C1431.24 1986.69 1429.58 1976.31 1432.07 1965.52C1440.37 1933.15 1448.67 1900.98 1456.97 1869.02C1465.27 1837.07 1473.16 1804.9 1480.63 1772.53C1483.12 1762.57 1486.23 1753.64 1489.97 1745.76C1493.7 1737.87 1498.89 1730.19 1505.53 1722.72C1532.92 1696.16 1559.9 1669.6 1586.46 1643.04C1613.86 1615.64 1641.04 1588.67 1668.02 1562.1C1695 1535.54 1721.77 1508.56 1748.33 1481.17C1774.89 1454.61 1801.87 1427.63 1829.26 1400.24C1830.09 1399.41 1831.13 1397.75 1832.37 1395.26C1833.62 1392.77 1834.24 1390.28 1834.24 1387.79C1834.24 1370.36 1834.45 1352.92 1834.86 1335.49C1835.28 1318.06 1835.49 1300.63 1835.49 1283.2C1835.49 1241.69 1835.49 1199.98 1835.49 1158.06C1835.49 1116.14 1835.49 1074.02 1835.49 1031.68C1835.49 1018.4 1833.83 1005.74 1830.51 993.708C1827.19 981.671 1821.37 970.673 1813.07 960.712C1802.28 945.771 1789.42 935.187 1774.48 928.962C1759.53 922.736 1743.35 919.623 1725.92 919.623C1666.15 919.623 1606.38 919.623 1546.62 919.623C1486.85 919.623 1427.09 919.623 1367.32 919.623H1359.85V930.829C1359.85 965.692 1359.64 1000.76 1359.23 1036.04C1358.81 1071.32 1359.02 1106.39 1359.85 1141.25C1359.85 1165.33 1356.12 1187.74 1348.65 1208.49C1341.17 1229.24 1329.14 1248.33 1312.54 1265.77C1295.94 1282.37 1277.67 1295.65 1257.75 1305.61C1237.83 1315.57 1215.83 1320.55 1191.76 1320.55C1146.94 1320.55 1101.9 1320.55 1056.67 1320.55C1011.43 1320.55 965.979 1320.55 920.325 1320.55C917.005 1320.55 914.722 1321.17 913.477 1322.42C912.232 1323.66 911.609 1325.95 911.609 1329.27C911.609 1372.43 911.817 1415.18 912.232 1457.51C912.647 1499.85 912.854 1542.18 912.854 1584.52C912.854 1625.19 912.854 1666.07 912.854 1707.16C912.854 1748.25 912.854 1789.13 912.854 1829.8C912.854 1863.84 912.854 1898.08 912.854 1932.53C912.854 1966.97 912.854 2001.21 912.854 2035.25C912.854 2039.4 912.854 2043.34 912.854 2047.08C912.854 2050.81 913.27 2054.75 914.1 2058.91C919.08 2083.81 931.116 2103.94 950.208 2119.29C969.3 2134.65 991.712 2142.33 1017.44 2142.33C1076.38 2142.33 1135.73 2142.33 1195.5 2142.33C1254.43 2142.33 1313.57 2142.33 1372.93 2142.33C1432.28 2142.33 1491.83 2142.33 1551.6 2142.33C1610.54 2142.33 1669.89 2142.33 1729.65 2142.33C1732.97 2142.33 1736.5 2142.12 1740.23 2141.71C1743.97 2141.29 1747.5 2140.67 1750.82 2139.84C1776.55 2134.86 1797.1 2122.82 1812.45 2103.73C1827.81 2084.64 1835.49 2061.81 1835.49 2035.25C1835.49 2000.38 1835.49 1965.73 1835.49 1931.28C1835.49 1896.83 1835.49 1862.18 1835.49 1827.31C1833.83 1828.14 1832.58 1828.97 1831.75 1829.8C1830.92 1830.63 1830.09 1831.46 1829.26 1832.29ZM1981.17 1433.86C1974.52 1427.22 1967.88 1420.37 1961.24 1413.31C1954.6 1406.26 1947.96 1399.41 1941.32 1392.77C1934.68 1400.24 1928.04 1407.09 1921.4 1413.31C1914.76 1419.54 1908.53 1425.97 1902.72 1432.61C1874.5 1460.83 1846.28 1489.06 1818.05 1517.28C1789.83 1545.5 1761.61 1573.72 1733.39 1601.95C1705.16 1630.17 1676.94 1658.39 1648.72 1686.62C1620.5 1715.67 1592.27 1744.31 1564.05 1772.53C1561.56 1775.02 1559.49 1777.72 1557.83 1780.62C1556.17 1783.53 1554.92 1786.64 1554.09 1789.96C1550.77 1801.58 1547.66 1813.41 1544.75 1825.45C1541.85 1837.48 1538.73 1849.31 1535.41 1860.93C1532.92 1871.72 1530.43 1882.31 1527.94 1892.68C1525.45 1903.06 1522.55 1914.06 1519.23 1925.68C1520.06 1925.68 1520.68 1925.68 1521.09 1925.68C1521.51 1925.68 1522.13 1925.68 1522.96 1925.68C1544.54 1919.87 1566.54 1914.06 1588.95 1908.25C1611.37 1902.44 1633.36 1896.63 1654.94 1890.81C1658.26 1889.98 1661.58 1888.74 1664.91 1887.08C1668.23 1885.42 1671.13 1883.34 1673.62 1880.85C1709.31 1845.16 1744.8 1809.67 1780.08 1774.4C1815.36 1739.12 1850.84 1703.63 1886.54 1667.94C1913.1 1641.38 1939.66 1614.81 1966.22 1588.25C1992.79 1561.69 2019.35 1535.13 2045.91 1508.56C2047.57 1506.9 2048.61 1505.45 2049.02 1504.21C2049.44 1502.96 2048.4 1501.09 2045.91 1498.6C2035.12 1487.81 2024.33 1477.02 2013.54 1466.23C2002.75 1455.44 1991.96 1444.65 1981.17 1433.86ZM985.071 1247.09C1017.44 1247.09 1049.61 1247.3 1081.57 1247.71C1113.53 1248.13 1145.69 1247.92 1178.06 1247.09C1198.82 1247.09 1217.29 1242.94 1233.47 1234.64C1249.66 1226.34 1262.73 1212.64 1272.69 1193.55C1277.67 1185.25 1281.2 1176.74 1283.28 1168.02C1285.35 1159.31 1286.39 1149.97 1286.39 1140.01C1286.39 1112.62 1286.39 1085.02 1286.39 1057.21C1286.39 1029.4 1286.39 1001.39 1286.39 973.163C1286.39 972.333 1286.18 971.503 1285.77 970.673C1285.35 969.843 1285.14 968.183 1285.14 965.692C1259.41 988.935 1233.26 1012.59 1206.7 1036.66C1180.97 1059.91 1155.03 1083.15 1128.88 1106.39C1102.73 1129.63 1076.79 1152.88 1051.06 1176.12C1025.33 1199.36 999.598 1222.19 973.865 1244.6C973.865 1245.43 974.073 1246.05 974.488 1246.47C974.903 1246.88 975.11 1247.09 975.11 1247.09C976.771 1247.09 978.431 1247.09 980.091 1247.09C981.751 1247.09 983.411 1247.09 985.071 1247.09ZM2138.05 1357.9C2129.75 1348.77 2121.45 1340.06 2113.15 1331.76C2104.85 1323.46 2096.13 1315.16 2087 1306.85C2079.53 1299.38 2070.4 1295.65 2059.61 1295.65C2048.82 1295.65 2039.27 1298.97 2030.97 1305.61C2024.33 1310.59 2018.1 1315.99 2012.29 1321.8C2006.48 1327.61 2000.67 1333.42 1994.86 1339.23C2013.12 1357.49 2031.38 1375.75 2049.65 1394.01C2067.91 1412.27 2086.17 1430.12 2104.43 1447.55C2109.41 1442.57 2114.81 1437.59 2120.62 1432.61C2126.43 1427.63 2131.82 1422.24 2136.8 1416.42C2145.11 1407.29 2149.26 1397.54 2149.26 1387.16C2149.26 1376.79 2145.52 1367.04 2138.05 1357.9Z" fill="#64728C"/>
</svg>
