<svg width="3062" height="3062" viewBox="0 0 3062 3062" fill="none" xmlns="http://www.w3.org/2000/svg">
<path fill-rule="evenodd" clip-rule="evenodd" d="M1311.3 1662.47C1311.3 1650.82 1315.93 1639.65 1324.17 1631.42C1332.4 1623.18 1343.58 1618.55 1355.22 1618.55H1706.58C1718.23 1618.55 1729.4 1623.18 1737.64 1631.42C1745.87 1639.65 1750.5 1650.82 1750.5 1662.47C1750.5 1674.12 1745.87 1685.29 1737.64 1693.53C1729.4 1701.76 1718.23 1706.39 1706.58 1706.39H1355.22C1343.58 1706.39 1332.4 1701.76 1324.17 1693.53C1315.93 1685.29 1311.3 1674.12 1311.3 1662.47Z" fill="#64728C"/>
<path fill-rule="evenodd" clip-rule="evenodd" d="M1311.3 1486.79C1311.3 1475.14 1315.93 1463.97 1324.17 1455.74C1332.4 1447.5 1343.58 1442.87 1355.22 1442.87H1706.58C1718.23 1442.87 1729.4 1447.5 1737.64 1455.74C1745.87 1463.97 1750.5 1475.14 1750.5 1486.79C1750.5 1498.44 1745.87 1509.61 1737.64 1517.85C1729.4 1526.08 1718.23 1530.71 1706.58 1530.71H1355.22C1343.58 1530.71 1332.4 1526.08 1324.17 1517.85C1315.93 1509.61 1311.3 1498.44 1311.3 1486.79Z" fill="#64728C"/>
<path fill-rule="evenodd" clip-rule="evenodd" d="M1311.3 1838.15C1311.3 1826.5 1315.93 1815.33 1324.17 1807.1C1332.4 1798.86 1343.58 1794.23 1355.22 1794.23H1706.58C1718.23 1794.23 1729.4 1798.86 1737.64 1807.1C1745.87 1815.33 1750.5 1826.5 1750.5 1838.15C1750.5 1849.8 1745.87 1860.98 1737.64 1869.21C1729.4 1877.45 1718.23 1882.07 1706.58 1882.07H1355.22C1343.58 1882.07 1332.4 1877.45 1324.17 1869.21C1315.93 1860.98 1311.3 1849.8 1311.3 1838.15Z" fill="#64728C"/>
<path d="M1179.52 959.761H1091.68C1045.09 959.761 1000.4 978.27 967.455 1011.22C934.509 1044.16 916 1088.85 916 1135.44V2057.75C916 2104.35 934.509 2149.03 967.455 2181.97C1000.4 2214.92 1045.09 2233.43 1091.68 2233.43H1970.07C2016.66 2233.43 2061.35 2214.92 2094.29 2181.97C2127.24 2149.03 2145.75 2104.35 2145.75 2057.75V1135.44C2145.75 1088.85 2127.24 1044.16 2094.29 1011.22C2061.35 978.27 2016.66 959.761 1970.07 959.761H1882.23V1047.6H1970.07C1993.37 1047.6 2015.71 1056.85 2032.18 1073.33C2048.65 1089.8 2057.91 1112.14 2057.91 1135.44V2057.75C2057.91 2081.05 2048.65 2103.39 2032.18 2119.87C2015.71 2136.34 1993.37 2145.59 1970.07 2145.59H1091.68C1068.38 2145.59 1046.04 2136.34 1029.57 2119.87C1013.09 2103.39 1003.84 2081.05 1003.84 2057.75V1135.44C1003.84 1112.14 1013.09 1089.8 1029.57 1073.33C1046.04 1056.85 1068.38 1047.6 1091.68 1047.6H1179.52V959.761Z" fill="#64728C"/>
<path d="M1662.64 915.839C1674.29 915.839 1685.47 920.467 1693.7 928.703C1701.94 936.939 1706.56 948.111 1706.56 959.759V1047.6C1706.56 1059.25 1701.94 1070.42 1693.7 1078.65C1685.47 1086.89 1674.29 1091.52 1662.64 1091.52H1399.13C1387.48 1091.52 1376.31 1086.89 1368.07 1078.65C1359.83 1070.42 1355.21 1059.25 1355.21 1047.6V959.759C1355.21 948.111 1359.83 936.939 1368.07 928.703C1376.31 920.467 1387.48 915.839 1399.13 915.839H1662.64ZM1399.13 828C1364.18 828 1330.67 841.882 1305.96 866.591C1281.25 891.301 1267.37 924.814 1267.37 959.759V1047.6C1267.37 1082.54 1281.25 1116.06 1305.96 1140.77C1330.67 1165.48 1364.18 1179.36 1399.13 1179.36H1662.64C1697.59 1179.36 1731.1 1165.48 1755.81 1140.77C1780.52 1116.06 1794.4 1082.54 1794.4 1047.6V959.759C1794.4 924.814 1780.52 891.301 1755.81 866.591C1731.1 841.882 1697.59 828 1662.64 828H1399.13Z" fill="#64728C"/>
</svg>
