<svg width="3062" height="3062" viewBox="0 0 3062 3062" fill="none" xmlns="http://www.w3.org/2000/svg">
<g clip-path="url(#clip0_40_1079)">
<path d="M1369.46 966.781H1224.35C1134.05 966.781 1088.86 966.781 1054.37 984.355C1024.03 999.813 999.384 1024.46 983.926 1054.8C966.352 1089.29 966.352 1134.48 966.352 1224.78V1837.48C966.352 1927.78 966.352 1972.91 983.926 2007.4C999.384 2037.74 1024.03 2062.43 1054.37 2077.89C1088.83 2095.45 1133.96 2095.45 1224.08 2095.45H1837.29C1927.41 2095.45 1972.48 2095.45 2006.93 2077.89C2037.27 2062.43 2062 2037.71 2077.46 2007.38C2095.02 1972.92 2095.02 1927.84 2095.02 1837.72V1692.35M2078.86 1386.03V982.934M2078.86 982.934H1675.77M2078.86 982.934L1514.53 1547.27" stroke="#64728C" stroke-width="110" stroke-linecap="round" stroke-linejoin="round"/>
</g>
<defs>
<clipPath id="clip0_40_1079">
<rect width="1240" height="1240" fill="white" transform="translate(911 911)"/>
</clipPath>
</defs>
</svg>
