<svg width="3062" height="3062" viewBox="0 0 3062 3062" fill="none" xmlns="http://www.w3.org/2000/svg">
<path d="M1147.46 1957.02H1220.76V1880.31H1254C1306.84 1880.31 1351.16 1841.96 1351.16 1789.97C1351.16 1737.98 1308.55 1700.48 1254 1700.48H1147.46V1956.17V1957.02ZM1220.76 1821.5V1760.14H1246.33C1263.37 1760.14 1277.86 1771.22 1277.86 1789.97C1277.86 1808.72 1264.23 1820.65 1246.33 1820.65H1220.76V1821.5ZM1419.35 1957.02H1520.77C1606 1957.02 1658.85 1906.73 1658.85 1827.47C1658.85 1753.32 1606 1701.33 1520.77 1701.33H1419.35V1957.02ZM1492.65 1896.51V1760.99H1517.36C1545.49 1760.99 1583.84 1774.63 1583.84 1827.47C1583.84 1882.87 1545.49 1896.51 1517.36 1896.51H1492.65ZM1744.08 1957.02H1817.37V1865.82H1907.72V1807.01H1817.37V1760.99H1920.5V1702.18H1744.93V1957.87L1744.08 1957.02Z" fill="#64728C"/>
<path d="M1957.15 2212.69H1104.85C1034.1 2212.69 977 2155.59 977 2084.85V976.846C977 906.105 1034.1 849 1104.85 849H1709.13C1743.22 849 1775.61 862.637 1799.48 886.502L2047.5 1134.52C2071.36 1158.39 2085 1190.78 2085 1224.87V2084.85C2085 2155.59 2027.9 2212.69 1957.15 2212.69ZM1104.85 934.231C1080.98 934.231 1062.23 952.982 1062.23 976.846V2084.85C1062.23 2108.71 1080.98 2127.46 1104.85 2127.46H1957.15C1981.02 2127.46 1999.77 2108.71 1999.77 2084.85V1224.87C1999.84 1219.28 1998.74 1213.74 1996.53 1208.6C1994.33 1203.46 1991.08 1198.84 1986.98 1195.04L1738.96 947.015C1731.09 938.986 1720.37 934.391 1709.13 934.231H1104.85Z" fill="#64728C"/>
<path d="M2032.15 1275.16H1784.13C1715.1 1275.16 1658.84 1218.91 1658.84 1149.87V901.853C1658.84 877.988 1677.59 859.237 1701.46 859.237C1725.32 859.237 1744.07 877.988 1744.07 901.853V1149.87C1744.07 1172.03 1761.97 1189.93 1784.13 1189.93H2032.15C2056.02 1189.93 2074.77 1208.68 2074.77 1232.55C2074.77 1256.41 2056.02 1275.16 2032.15 1275.16Z" fill="#64728C"/>
</svg>
