<svg width="3062" height="3062" viewBox="0 0 3062 3062" fill="none" xmlns="http://www.w3.org/2000/svg">
<path d="M1146.18 1113.14H1721.34C1730.51 1113.14 1738.54 1116.58 1745.42 1123.46C1752.3 1130.34 1755.74 1138.36 1755.74 1147.54C1755.74 1157.63 1752.3 1166.11 1745.42 1172.99C1738.54 1179.87 1730.51 1183.31 1721.34 1183.31H1146.18C1136.09 1183.31 1127.6 1179.87 1120.72 1172.99C1113.84 1166.11 1110.4 1157.63 1110.4 1147.54C1110.4 1138.36 1113.84 1130.34 1120.72 1123.46C1127.6 1116.58 1136.09 1113.14 1146.18 1113.14ZM1146.18 1265.87H1721.34C1730.51 1265.87 1738.54 1269.31 1745.42 1276.19C1752.3 1283.07 1755.74 1291.56 1755.74 1301.65C1755.74 1311.74 1752.3 1320.22 1745.42 1327.1C1738.54 1333.98 1730.51 1337.42 1721.34 1337.42H1146.18C1136.09 1337.42 1127.6 1333.98 1120.72 1327.1C1113.84 1320.22 1110.4 1311.74 1110.4 1301.65C1110.4 1291.56 1113.84 1283.07 1120.72 1276.19C1127.6 1269.31 1136.09 1265.87 1146.18 1265.87ZM1146.18 1419.98H1721.34C1730.51 1419.98 1738.54 1423.42 1745.42 1430.3C1752.3 1437.18 1755.74 1445.67 1755.74 1455.76C1755.74 1465.85 1752.3 1474.33 1745.42 1481.21C1738.54 1488.09 1730.51 1491.53 1721.34 1491.53H1146.18C1136.09 1491.53 1127.6 1488.09 1120.72 1481.21C1113.84 1474.33 1110.4 1465.85 1110.4 1455.76C1110.4 1445.67 1113.84 1437.18 1120.72 1430.3C1127.6 1423.42 1136.09 1419.98 1146.18 1419.98ZM1146.18 1574.09H1433.76H1721.34C1730.51 1574.09 1738.54 1577.53 1745.42 1584.41C1752.3 1591.29 1755.74 1599.77 1755.74 1609.87C1755.74 1619.04 1752.3 1627.07 1745.42 1633.94C1738.54 1640.82 1730.51 1644.26 1721.34 1644.26H1146.18C1136.09 1644.26 1127.6 1640.82 1120.72 1633.94C1113.84 1627.07 1110.4 1619.04 1110.4 1609.87C1110.4 1599.77 1113.84 1591.29 1120.72 1584.41C1127.6 1577.53 1136.09 1574.09 1146.18 1574.09ZM1146.18 1183.31H1721.34C1730.51 1183.31 1738.54 1179.87 1745.42 1172.99C1752.3 1166.11 1755.74 1157.63 1755.74 1147.54C1755.74 1138.36 1752.3 1130.34 1745.42 1123.46C1738.54 1116.58 1730.51 1113.14 1721.34 1113.14H1146.18C1136.09 1113.14 1127.6 1116.58 1120.72 1123.46C1113.84 1130.34 1110.4 1138.36 1110.4 1147.54C1110.4 1157.63 1113.84 1166.11 1120.72 1172.99C1127.6 1179.87 1136.09 1183.31 1146.18 1183.31ZM1146.18 1337.42H1721.34C1730.51 1337.42 1738.54 1333.98 1745.42 1327.1C1752.3 1320.22 1755.74 1311.74 1755.74 1301.65C1755.74 1291.56 1752.3 1283.07 1745.42 1276.19C1738.54 1269.31 1730.51 1265.87 1721.34 1265.87H1146.18C1136.09 1265.87 1127.6 1269.31 1120.72 1276.19C1113.84 1283.07 1110.4 1291.56 1110.4 1301.65C1110.4 1311.74 1113.84 1320.22 1120.72 1327.1C1127.6 1333.98 1136.09 1337.42 1146.18 1337.42ZM1146.18 1491.53H1721.34C1730.51 1491.53 1738.54 1488.09 1745.42 1481.21C1752.3 1474.33 1755.74 1465.85 1755.74 1455.76C1755.74 1445.67 1752.3 1437.18 1745.42 1430.3C1738.54 1423.42 1730.51 1419.98 1721.34 1419.98H1146.18C1136.09 1419.98 1127.6 1423.42 1120.72 1430.3C1113.84 1437.18 1110.4 1445.67 1110.4 1455.76C1110.4 1465.85 1113.84 1474.33 1120.72 1481.21C1127.6 1488.09 1136.09 1491.53 1146.18 1491.53ZM1146.18 1644.26H1721.34C1730.51 1644.26 1738.54 1640.82 1745.42 1633.94C1752.3 1627.07 1755.74 1619.04 1755.74 1609.87C1755.74 1599.77 1752.3 1591.29 1745.42 1584.41C1738.54 1577.53 1730.51 1574.09 1721.34 1574.09H1433.76H1146.18C1136.09 1574.09 1127.6 1577.53 1120.72 1584.41C1113.84 1591.29 1110.4 1599.77 1110.4 1609.87C1110.4 1619.04 1113.84 1627.07 1120.72 1633.94C1127.6 1640.82 1136.09 1644.26 1146.18 1644.26ZM2302 1399.34C2302 1393.84 2301.08 1389.02 2299.25 1384.89C2297.41 1380.77 2294.66 1376.87 2290.99 1373.2L2194.67 1276.88C2191 1273.21 2187.11 1270.46 2182.98 1268.62C2178.85 1266.79 2174.49 1265.87 2169.91 1265.87C2165.32 1265.87 2160.73 1266.79 2156.15 1268.62C2151.56 1270.46 2147.43 1273.21 2143.76 1276.88L1974.52 1447.5V924.629C1974.52 915.456 1970.85 907.2 1963.51 899.861C1956.17 892.523 1947.92 888.854 1938.74 888.854H928.775C918.685 888.854 910.2 892.523 903.32 899.861C896.44 907.2 893 915.456 893 924.629V2116.22C893 2125.4 896.44 2133.65 903.32 2140.99C910.2 2148.33 918.685 2152 928.775 2152H1938.74C1947.92 2152 1956.17 2148.33 1963.51 2140.99C1970.85 2133.65 1974.52 2125.4 1974.52 2116.22V1741.96L2290.99 1424.11C2294.66 1420.44 2297.41 1416.54 2299.25 1412.41C2301.08 1408.28 2302 1403.93 2302 1399.34ZM964.551 2080.45V960.404H1902.97V1517.67L1693.82 1726.82H1146.18C1136.09 1726.82 1127.6 1730.49 1120.72 1737.83C1113.84 1745.17 1110.4 1753.43 1110.4 1762.6C1110.4 1772.69 1113.84 1781.17 1120.72 1788.05C1127.6 1794.93 1136.09 1798.37 1146.18 1798.37H1622.27L1616.76 1805.25C1614.01 1807.09 1611.95 1809.38 1610.57 1812.13C1609.2 1814.89 1608.05 1818.1 1607.13 1821.77L1582.36 1922.21H1433.76C1423.67 1922.21 1415.18 1925.65 1408.3 1932.53C1401.42 1939.41 1397.98 1947.9 1397.98 1957.99C1397.98 1968.08 1401.42 1976.56 1408.3 1983.44C1415.18 1990.32 1423.67 1993.76 1433.76 1993.76C1433.76 1993.76 1463.11 1993.76 1521.82 1993.76C1580.53 1993.76 1609.88 1993.76 1609.88 1993.76C1611.72 1993.76 1613.32 1993.53 1614.7 1993.07C1616.08 1992.62 1617.68 1992.39 1619.52 1992.39L1747.48 1960.74C1750.23 1959.82 1752.99 1958.68 1755.74 1957.3C1758.49 1955.92 1761.24 1953.86 1763.99 1951.11L1902.97 1812.13V2080.45H964.551ZM1719.96 1894.69L1659.42 1909.83L1673.18 1847.91L2169.91 1352.56L2216.69 1399.34L1719.96 1894.69Z" fill="#64728C"/>
<path d="M1721.34 1574.09C1730.51 1574.09 1738.54 1577.53 1745.42 1584.41C1752.3 1591.29 1755.74 1599.77 1755.74 1609.87C1755.74 1619.04 1752.3 1627.07 1745.42 1633.94C1738.54 1640.82 1730.51 1644.26 1721.34 1644.26H1146.18C1136.09 1644.26 1127.6 1640.82 1120.72 1633.94C1113.84 1627.07 1110.4 1619.04 1110.4 1609.87C1110.4 1599.77 1113.84 1591.29 1120.72 1584.41C1127.6 1577.53 1136.09 1574.09 1146.18 1574.09H1433.76H1721.34Z" fill="#B0B0B0"/>
<path d="M1146.18 1419.98H1721.34C1730.51 1419.98 1738.54 1423.42 1745.42 1430.3C1752.3 1437.18 1755.74 1445.67 1755.74 1455.76C1755.74 1465.85 1752.3 1474.33 1745.42 1481.21C1738.54 1488.09 1730.51 1491.53 1721.34 1491.53H1146.18C1136.09 1491.53 1127.6 1488.09 1120.72 1481.21C1113.84 1474.33 1110.4 1465.85 1110.4 1455.76C1110.4 1445.67 1113.84 1437.18 1120.72 1430.3C1127.6 1423.42 1136.09 1419.98 1146.18 1419.98Z" fill="#B0B0B0"/>
<path d="M1146.18 1113.14H1721.34C1730.51 1113.14 1738.54 1116.58 1745.42 1123.46C1752.3 1130.34 1755.74 1138.36 1755.74 1147.54C1755.74 1157.63 1752.3 1166.11 1745.42 1172.99C1738.54 1179.87 1730.51 1183.31 1721.34 1183.31H1146.18C1136.09 1183.31 1127.6 1179.87 1120.72 1172.99C1113.84 1166.11 1110.4 1157.63 1110.4 1147.54C1110.4 1138.36 1113.84 1130.34 1120.72 1123.46C1127.6 1116.58 1136.09 1113.14 1146.18 1113.14Z" fill="#B0B0B0"/>
<path d="M1146.18 1265.87H1721.34C1730.51 1265.87 1738.54 1269.31 1745.42 1276.19C1752.3 1283.07 1755.74 1291.56 1755.74 1301.65C1755.74 1311.74 1752.3 1320.22 1745.42 1327.1C1738.54 1333.98 1730.51 1337.42 1721.34 1337.42H1146.18C1136.09 1337.42 1127.6 1333.98 1120.72 1327.1C1113.84 1320.22 1110.4 1311.74 1110.4 1301.65C1110.4 1291.56 1113.84 1283.07 1120.72 1276.19C1127.6 1269.31 1136.09 1265.87 1146.18 1265.87Z" fill="#B0B0B0"/>
</svg>
