<svg width="3062" height="3062" viewBox="0 0 3062 3062" fill="none" xmlns="http://www.w3.org/2000/svg">
<path d="M1530.59 863C1339.87 863 1183.97 1018.9 1183.97 1209.62C1183.97 1400.34 1339.87 1556.24 1530.59 1556.24C1721.31 1556.24 1877.21 1400.34 1877.21 1209.62C1877.21 1018.9 1721.31 863 1530.59 863ZM2125.45 1833.23C2116.36 1810.53 2104.26 1789.34 2090.63 1769.66C2021.01 1666.73 1913.54 1598.62 1792.45 1581.97C1777.32 1580.46 1760.67 1583.48 1748.56 1592.56C1684.98 1639.49 1609.3 1663.7 1530.59 1663.7C1451.88 1663.7 1376.2 1639.49 1312.63 1592.56C1300.52 1583.48 1283.87 1578.94 1268.74 1581.97C1147.65 1598.62 1038.67 1666.73 970.554 1769.66C956.931 1789.34 944.821 1812.04 935.742 1833.23C931.202 1842.31 932.714 1852.91 937.254 1861.99C949.364 1883.18 964.499 1904.38 978.121 1922.54C999.311 1951.3 1022.02 1977.03 1047.75 2001.24C1068.94 2022.43 1093.16 2042.11 1117.38 2061.79C1236.95 2151.1 1380.75 2198.01 1529.08 2198.01C1677.42 2198.01 1821.21 2151.09 1940.79 2061.79C1965 2043.63 1989.22 2022.43 2010.41 2001.24C2034.63 1977.03 2058.85 1951.29 2080.04 1922.54C2095.18 1902.86 2108.8 1883.18 2120.91 1861.99C2128.47 1852.91 2129.99 1842.31 2125.45 1833.23Z" fill="#64728C"/>
</svg>
