<svg width="3062" height="3062" viewBox="0 0 3062 3062" fill="none" xmlns="http://www.w3.org/2000/svg">
<path fill-rule="evenodd" clip-rule="evenodd" d="M1272.85 1873.77C1272.85 1850.05 1292.07 1830.82 1315.79 1830.82H2088.75C2112.47 1830.82 2131.69 1850.05 2131.69 1873.77C2131.69 1897.48 2112.47 1916.7 2088.75 1916.7H1315.79C1292.07 1916.7 1272.85 1897.48 1272.85 1873.77Z" fill="#64728C"/>
<path fill-rule="evenodd" clip-rule="evenodd" d="M1272.85 1530.23C1272.85 1506.51 1292.07 1487.28 1315.79 1487.28H2088.75C2112.47 1487.28 2131.69 1506.51 2131.69 1530.23C2131.69 1553.94 2112.47 1573.17 2088.75 1573.17H1315.79C1292.07 1573.17 1272.85 1553.94 1272.85 1530.23Z" fill="#64728C"/>
<path fill-rule="evenodd" clip-rule="evenodd" d="M1272.85 1186.69C1272.85 1162.97 1292.07 1143.75 1315.79 1143.75H2088.75C2112.47 1143.75 2131.69 1162.97 2131.69 1186.69C2131.69 1210.4 2112.47 1229.63 2088.75 1229.63H1315.79C1292.07 1229.63 1272.85 1210.4 1272.85 1186.69Z" fill="#64728C"/>
<path fill-rule="evenodd" clip-rule="evenodd" d="M893.58 1186.69C893.58 1119.52 948.028 1065.07 1015.19 1065.07C1082.36 1065.07 1136.81 1119.52 1136.81 1186.69C1136.81 1253.85 1082.36 1308.3 1015.19 1308.3C948.028 1308.3 893.58 1253.85 893.58 1186.69ZM1015.19 1136.53C987.492 1136.53 965.036 1158.99 965.036 1186.69C965.036 1214.39 987.492 1236.84 1015.19 1236.84C1042.89 1236.84 1065.35 1214.39 1065.35 1186.69C1065.35 1158.99 1042.89 1136.53 1015.19 1136.53ZM1237.12 1186.69C1237.12 1143.24 1272.34 1108.02 1315.79 1108.02H2088.75C2132.2 1108.02 2167.42 1143.24 2167.42 1186.69C2167.42 1230.14 2132.2 1265.36 2088.75 1265.36H1315.79C1272.34 1265.36 1237.12 1230.14 1237.12 1186.69ZM1315.79 1179.47C1311.8 1179.47 1308.57 1182.7 1308.57 1186.69C1308.57 1190.67 1311.8 1193.9 1315.79 1193.9H2088.75C2092.73 1193.9 2095.97 1190.67 2095.97 1186.69C2095.97 1182.7 2092.73 1179.47 2088.75 1179.47H1315.79ZM893.58 1530.23C893.58 1463.06 948.028 1408.61 1015.19 1408.61C1082.36 1408.61 1136.81 1463.06 1136.81 1530.23C1136.81 1597.39 1082.36 1651.84 1015.19 1651.84C948.028 1651.84 893.58 1597.39 893.58 1530.23ZM1015.19 1480.07C987.492 1480.07 965.036 1502.53 965.036 1530.23C965.036 1557.93 987.492 1580.38 1015.19 1580.38C1042.89 1580.38 1065.35 1557.93 1065.35 1530.23C1065.35 1502.53 1042.89 1480.07 1015.19 1480.07ZM1237.12 1530.23C1237.12 1486.78 1272.34 1451.56 1315.79 1451.56H2088.75C2132.2 1451.56 2167.42 1486.78 2167.42 1530.23C2167.42 1573.67 2132.2 1608.9 2088.75 1608.9H1315.79C1272.34 1608.9 1237.12 1573.67 1237.12 1530.23ZM1315.79 1523.01C1311.8 1523.01 1308.57 1526.24 1308.57 1530.23C1308.57 1534.21 1311.8 1537.44 1315.79 1537.44H2088.75C2092.73 1537.44 2095.97 1534.21 2095.97 1530.23C2095.97 1526.24 2092.73 1523.01 2088.75 1523.01H1315.79ZM893.58 1873.77C893.58 1806.6 948.028 1752.15 1015.19 1752.15C1082.36 1752.15 1136.81 1806.6 1136.81 1873.77C1136.81 1940.93 1082.36 1995.37 1015.19 1995.37C948.028 1995.37 893.58 1940.93 893.58 1873.77ZM1015.19 1823.6C987.492 1823.6 965.036 1846.06 965.036 1873.77C965.036 1901.46 987.492 1923.92 1015.19 1923.92C1042.89 1923.92 1065.35 1901.46 1065.35 1873.77C1065.35 1846.06 1042.89 1823.6 1015.19 1823.6ZM1237.12 1873.77C1237.12 1830.32 1272.34 1795.09 1315.79 1795.09H2088.75C2132.2 1795.09 2167.42 1830.32 2167.42 1873.77C2167.42 1917.21 2132.2 1952.43 2088.75 1952.43H1315.79C1272.34 1952.43 1237.12 1917.21 1237.12 1873.77ZM1315.79 1866.55C1311.8 1866.55 1308.57 1869.78 1308.57 1873.77C1308.57 1877.75 1311.8 1880.98 1315.79 1880.98H2088.75C2092.73 1880.98 2095.97 1877.75 2095.97 1873.77C2095.97 1869.78 2092.73 1866.55 2088.75 1866.55H1315.79Z" fill="#64728C"/>
</svg>
