<svg width="3062" height="3062" viewBox="0 0 3062 3062" fill="none" xmlns="http://www.w3.org/2000/svg">
<path d="M858.132 1300.03C858.56 1300.03 859.284 1300.03 859.35 1299.64C871.006 1260.12 899.389 1240.7 937.683 1230.98C964.288 1224.4 990.004 1214.09 1016.38 1206.32C1024.22 1203.98 1027.38 1200 1029.55 1192.52C1050.1 1127.56 1070.97 1062.76 1091.68 997.892C1108.77 944.287 1152.17 921.567 1205.51 938.525C1310.33 971.847 1415.15 1005.28 1519.96 1038.82C1527.71 1041.5 1536.13 1041.5 1543.87 1038.82C1647.72 1005.59 1751.71 972.505 1855.82 939.578C1910.51 922.259 1952.99 944.418 1970.54 999.209C1991.15 1063.61 2011.86 1128.02 2032.08 1192.59C2032.79 1195.69 2034.35 1198.53 2036.59 1200.79C2038.83 1203.05 2041.66 1204.63 2044.76 1205.37C2076.86 1215.24 2108.93 1225.35 2140.84 1235.86C2182.06 1249.42 2204.98 1280.67 2203.4 1320.71C2202.65 1330.75 2200.55 1340.64 2197.14 1350.11C2179.1 1407.11 2161.15 1464.14 2142.81 1521.04C2140.52 1527.6 2140.52 1534.75 2142.81 1541.32C2161.15 1598.22 2179.03 1655.25 2197.24 1712.21C2214.49 1766.38 2192.2 1810.1 2138.27 1827.46C2107.55 1837.33 2076.79 1847.21 2045.88 1856.56C2042.35 1857.31 2039.11 1859.05 2036.53 1861.57C2033.95 1864.08 2032.13 1867.28 2031.29 1870.79C2011.14 1935.36 1990.49 1999.76 1969.91 2064.23C1953.02 2117.28 1909.99 2139.97 1856.97 2123.14C1752.48 2090.21 1648.05 2057.08 1543.67 2023.73C1535.94 2021.07 1527.53 2021.07 1519.8 2023.73C1415.88 2057.02 1311.44 2088.76 1207.98 2123.44C1153.06 2141.81 1105.25 2112.87 1090.86 2063.25C1072.16 1998.48 1050.06 1934.47 1029.85 1869.93C1029.13 1866.58 1027.46 1863.5 1025.04 1861.08C1022.61 1858.65 1019.54 1856.98 1016.18 1856.27C985.658 1847.18 955.464 1836.97 925.006 1827.65C892.639 1817.77 869.689 1798.61 860.535 1765.09C860.272 1764.1 858.856 1763.41 858 1762.59V1728.38C858.691 1727.95 859.844 1727.65 860.041 1727.09C880.039 1663.94 900.004 1600.79 919.936 1537.63C921.357 1532.61 921.056 1527.25 919.08 1522.42C906.798 1484.26 894.911 1446 882.531 1407.87C874.595 1383.24 868.635 1357.98 858.132 1334.18V1300.03ZM2135.37 1744.54C2134.55 1741.48 2133.66 1737.66 2132.47 1733.91C2056.85 1495.89 1981.2 1257.92 1905.51 1019.99C1899.58 1001.35 1894.58 998.979 1875.41 1005.04L945.52 1300.29C926.587 1306.32 923.821 1311.49 929.748 1330.13C1005.08 1567.2 1080.43 1804.27 1155.79 2041.35C1162.38 2062.32 1166.69 2064.4 1188.39 2057.48L1953.55 1814.58C2008.43 1797.13 2063.3 1779.68 2118.18 1762.23C2127.01 1759.46 2134.91 1756.17 2135.37 1744.41V1744.54ZM1106.27 1177.61L1419.08 1078.17C1337.91 1052.39 1259.41 1027.43 1180.82 1002.7C1168.04 998.847 1162.05 1002.34 1157.77 1016.07C1147.38 1048.01 1137.13 1079.98 1127.01 1111.98C1120.16 1133.02 1113.65 1154.13 1106.27 1177.61ZM1955.06 1885.83L1644.89 1984.42L1678.01 1994.95C1744.48 2016.09 1810.97 2037.23 1877.49 2058.37C1892.47 2063.11 1899.61 2060.51 1903.66 2047.87C1920.72 1994.76 1937.41 1941.51 1955.06 1885.83ZM959.316 1648.13L956.583 1648.3C947.068 1678.13 937.683 1708 928.003 1737.79C925.402 1745.83 925.896 1753.76 933.6 1757.19C954.805 1766.57 977.262 1772.27 1001.07 1779.41C986.547 1734.01 972.948 1691.07 959.316 1648.13ZM2060.56 1282.02C2075.08 1327.69 2088.78 1370.92 2102.51 1414.09C2114.99 1382.84 2125.13 1351.53 2134.68 1320.08C2135.25 1318.38 2135.48 1316.58 2135.33 1314.79C2135.19 1313.01 2134.68 1311.27 2133.84 1309.68C2132.99 1308.1 2131.84 1306.7 2130.44 1305.58C2129.04 1304.46 2127.42 1303.63 2125.69 1303.16C2104.95 1295.91 2083.91 1289.53 2060.56 1282.02Z" fill="#64728C"/>
<path d="M1685.39 1244.22C1674.49 1247.28 1663.62 1250.51 1652.66 1253.31C1644.16 1255.6 1635.11 1254.6 1627.31 1250.5C1619.52 1246.4 1613.57 1239.51 1610.64 1231.21C1605.44 1215.04 1614.1 1194.99 1630.99 1189.39C1670.68 1176.03 1710.61 1163.36 1750.78 1151.4C1758.74 1149.3 1767.21 1150.32 1774.45 1154.24C1781.69 1158.16 1787.17 1164.69 1789.76 1172.5C1802.94 1211.36 1815.4 1250.43 1827.17 1289.72C1832.24 1306.61 1821.24 1325.75 1805.34 1330.98C1796.91 1333.52 1787.83 1332.8 1779.9 1328.97C1771.97 1325.13 1765.77 1318.46 1762.53 1310.27C1758.25 1299.11 1754.99 1287.55 1750.58 1274.05C1746.86 1280.9 1744 1285.74 1741.53 1290.71L1625.06 1515.14C1611.17 1541.94 1600.27 1547.08 1571.33 1540.99C1525.56 1531.41 1479.69 1522.35 1434.09 1512.21C1425 1510.2 1421.21 1512.21 1416.67 1519.82C1368.24 1601.81 1319.56 1683.65 1270.6 1765.35C1269.48 1767.23 1268.43 1769.14 1267.31 1770.98C1255.46 1790.18 1235.27 1796.34 1218.15 1786.03C1201.69 1776.15 1197.11 1755.25 1208.27 1736.64C1263.59 1643.5 1319.04 1550.44 1374.62 1457.45C1383.94 1441.85 1397.21 1435.06 1415.48 1438.88C1464.25 1448.99 1513.11 1458.64 1561.81 1469.18C1568.4 1470.62 1571.69 1469.87 1574.98 1463.55C1611.79 1392.16 1648.75 1320.82 1685.85 1249.52C1686.35 1248.32 1686.74 1247.07 1687 1245.8C1687.3 1244.88 1687.56 1243.99 1687.86 1243.1L1685.39 1244.22Z" fill="#64728C"/>
<path d="M1780.51 1420.58C1796.77 1420.77 1808.89 1430.45 1814.52 1448.07C1830.5 1498.38 1846.37 1548.73 1862.13 1599.11C1872.01 1630.32 1881.89 1661.47 1891.44 1692.78C1893.99 1700.22 1893.88 1708.31 1891.12 1715.67C1888.36 1723.04 1883.13 1729.21 1876.32 1733.14C1869.51 1737.06 1861.54 1738.5 1853.79 1737.2C1846.03 1735.9 1838.97 1731.94 1833.82 1726.01C1830.02 1721.73 1827.27 1716.64 1825.78 1711.12C1800.12 1630.04 1774.56 1548.9 1749.1 1467.73C1741.33 1442.74 1756.74 1420.31 1780.51 1420.58Z" fill="#64728C"/>
<path d="M1562.77 1805.56C1562.77 1823.67 1550.68 1838.49 1534.58 1841.15C1526.3 1842.42 1517.85 1840.62 1510.8 1836.09C1503.76 1831.56 1498.61 1824.61 1496.32 1816.56C1481.17 1769.73 1466.49 1722.78 1451.7 1675.83C1448.5 1666.81 1445.84 1657.6 1443.74 1648.27C1442.16 1640.04 1443.72 1631.51 1448.13 1624.38C1452.53 1617.25 1459.44 1612.02 1467.51 1609.74C1483.97 1604.9 1502.54 1612.84 1508.07 1629.5C1526.61 1685.74 1544.13 1742.31 1561.94 1798.78C1562.48 1801 1562.75 1803.27 1562.77 1805.56Z" fill="#64728C"/>
<path d="M1728.03 1754.06C1728.22 1762.38 1725.36 1770.48 1719.98 1776.83C1714.61 1783.18 1707.09 1787.35 1698.85 1788.53C1690.62 1789.72 1682.23 1787.85 1675.28 1783.28C1668.33 1778.7 1663.29 1771.74 1661.13 1763.71C1647.76 1722.22 1634.78 1680.57 1621.91 1638.98C1620.18 1633.79 1619.82 1628.24 1620.84 1622.86C1621.87 1617.48 1624.25 1612.46 1627.77 1608.26C1643.18 1588.21 1675.28 1589.72 1683.75 1613.27C1700.21 1658.21 1713.38 1704.44 1727.64 1750.14C1727.94 1751.43 1728.07 1752.74 1728.03 1754.06Z" fill="#64728C"/>
<path d="M1397.84 1857.75C1397.57 1875.99 1385.79 1890.38 1370.18 1893.41C1362.6 1894.65 1354.82 1893.32 1348.08 1889.63C1341.34 1885.95 1336.02 1880.11 1332.97 1873.06C1327.96 1860.55 1323.93 1847.67 1320.92 1834.53C1318.81 1825.96 1320.15 1816.89 1324.66 1809.3C1329.17 1801.7 1336.48 1796.19 1345.02 1793.94C1353.54 1791.73 1362.59 1792.9 1370.27 1797.19C1377.96 1801.48 1383.69 1808.57 1386.28 1816.98C1390.99 1830.98 1396.69 1844.78 1397.84 1857.75Z" fill="#64728C"/>
<path d="M1685.39 1244.22L1687.86 1243.17C1687.57 1244.05 1687.3 1244.94 1687.01 1245.87L1685.39 1244.22Z" fill="#64728C"/>
</svg>
