<svg width="3062" height="3062" viewBox="0 0 3062 3062" fill="none" xmlns="http://www.w3.org/2000/svg">
<g clip-path="url(#clip0_40_721)">
<mask id="mask0_40_721" style="mask-type:luminance" maskUnits="userSpaceOnUse" x="893" y="893" width="1275" height="1275">
<path d="M2168 893H893V2168H2168V893Z" fill="white"/>
</mask>
<g mask="url(#mask0_40_721)">
<path d="M2008.62 873C2056.2 873 2101.83 891.898 2135.46 925.538H2135.46C2169.1 959.178 2188 1004.8 2188 1052.38V2008.62C2188 2056.2 2169.1 2101.82 2135.46 2135.46L2135.46 2135.46C2101.82 2169.1 2056.2 2188 2008.62 2188H1052.38C1004.8 2188 959.178 2169.1 925.538 2135.46C891.898 2101.82 873 2056.2 873 2008.62V1052.38C873 1004.8 891.899 959.177 925.538 925.538C959.177 891.899 1004.8 873 1052.38 873H2008.62ZM1052.38 992.688C1036.79 992.688 1021.84 998.781 1010.7 1009.65L1010.17 1010.17C998.976 1021.36 992.688 1036.54 992.688 1052.38V2008.62C992.688 2024.45 998.976 2039.64 1010.17 2050.83H1010.17C1021.36 2062.03 1036.54 2068.31 1052.38 2068.31H2008.62C2024.45 2068.31 2039.64 2062.02 2050.83 2050.83C2062.03 2039.63 2068.31 2024.45 2068.31 2008.62V1052.38C2068.31 1036.54 2062.03 1021.36 2050.83 1010.17C2039.64 998.975 2024.45 992.688 2008.62 992.688H1052.38Z" fill="#64728C" stroke="#64728C" stroke-width="40"/>
<path d="M1767.17 1289.05C1778.32 1278 1793.38 1271.78 1809.08 1271.73C1824.78 1271.69 1839.88 1277.83 1851.09 1288.82C1862.3 1299.82 1868.74 1314.78 1869 1330.48C1869.27 1346.18 1863.35 1361.36 1852.52 1372.73L1534.41 1770.37C1528.94 1776.26 1522.34 1780.98 1515 1784.26C1507.67 1787.54 1499.75 1789.31 1491.71 1789.46C1483.68 1789.61 1475.69 1788.13 1468.24 1785.13C1460.79 1782.12 1454.02 1777.64 1448.34 1771.96L1237.57 1561.11C1231.7 1555.64 1226.99 1549.04 1223.72 1541.71C1220.45 1534.37 1218.7 1526.46 1218.56 1518.44C1218.41 1510.41 1219.89 1502.44 1222.9 1495C1225.9 1487.56 1230.38 1480.8 1236.05 1475.12C1241.73 1469.45 1248.49 1464.97 1255.93 1461.96C1263.37 1458.96 1271.34 1457.49 1279.37 1457.62C1287.39 1457.77 1295.3 1459.53 1302.64 1462.79C1309.97 1466.06 1316.56 1470.77 1322.04 1476.64L1488.9 1643.42L1765.66 1290.81C1766.15 1290.19 1766.69 1289.6 1767.25 1289.05H1767.17Z" fill="#64728C"/>
</g>
</g>
<defs>
<clipPath id="clip0_40_721">
<rect width="1275" height="1275" fill="white" transform="translate(893 893)"/>
</clipPath>
</defs>
</svg>
