<svg width="3062" height="3062" viewBox="0 0 3062 3062" fill="none" xmlns="http://www.w3.org/2000/svg">
<g clip-path="url(#clip0_25_321)">
<path d="M1915.02 852C1923.49 854.126 1931.99 856.11 1940.39 858.449C1978.18 868.835 2011.59 891.186 2035.61 922.154C2059.63 953.121 2072.98 991.039 2073.64 1030.23C2074.28 1062.12 2073.82 1094.01 2073.82 1125.68C2073.82 1424.85 2073.82 1724.04 2073.82 2023.23C2073.82 2114.15 2017.13 2186.22 1930.61 2205.82C1917.23 2208.73 1903.56 2210.14 1889.86 2210C1650.35 2210 1410.83 2210 1171.31 2210C1067.22 2210 987.318 2130.38 987.07 2026.14C986.81 1754.49 986.81 1482.7 987.07 1210.79C987.07 1138.51 1015.41 1078.84 1071.18 1032.46C1120.4 991.428 1169.97 950.964 1218.9 909.508C1254.4 879.602 1294.15 860.185 1340.18 854.091C1341.83 853.613 1343.4 852.91 1344.86 852H1915.02ZM1982.94 1532.31C1982.94 1368.35 1982.94 1204.38 1982.94 1040.4C1982.94 980.444 1944.99 942.779 1885.04 942.673C1716.25 942.46 1547.39 942.295 1378.48 942.177C1342.87 941.502 1308.24 953.835 1281.08 976.865C1230.84 1018.71 1180.21 1060.13 1129.65 1101.59C1095.35 1129.69 1077.77 1166.01 1077.77 1210.12C1077.51 1481.51 1077.51 1752.89 1077.77 2024.26C1077.77 2080.35 1117.1 2119.26 1173.16 2119.26C1411.37 2119.26 1649.59 2119.26 1887.81 2119.26C1897.53 2119.41 1907.22 2118.22 1916.61 2115.71C1958.53 2103.88 1983.12 2068.8 1983.15 2020.36C1983.06 1857.66 1982.99 1694.97 1982.94 1532.31Z" fill="#64728C"/>
<path d="M1530.06 1748.45C1621.04 1748.45 1711.98 1748.45 1802.88 1748.45C1830.8 1748.45 1851.14 1767.27 1851.17 1793.56C1851.21 1819.85 1831.12 1839.09 1803.16 1839.12C1725 1839.12 1646.81 1839.12 1568.61 1839.12C1465.26 1839.12 1361.9 1839.12 1258.51 1839.12C1229.49 1839.12 1208.91 1820.49 1208.91 1793.84C1208.91 1767.2 1229.53 1748.45 1258.4 1748.45C1348.94 1748.59 1439.49 1748.59 1530.06 1748.45Z" fill="#64728C"/>
<path d="M1530.06 1931.75C1621.04 1931.75 1711.98 1931.75 1802.88 1931.75C1830.8 1931.75 1851.13 1950.6 1851.17 1976.85C1851.21 2003.11 1831.12 2022.42 1803.16 2022.45C1725 2022.45 1646.81 2022.45 1568.6 2022.45H1258.65C1229.63 2022.45 1209.05 2003.82 1209.05 1977.17C1209.05 1950.52 1229.53 1931.78 1258.4 1931.82C1348.94 1931.96 1439.49 1931.96 1530.06 1931.82V1931.75Z" fill="#64728C"/>
<path d="M1534.34 1666.74C1444.59 1666.74 1354.88 1666.74 1265.06 1666.74C1228.11 1666.74 1205.93 1629.96 1224.03 1599.21C1233.39 1583.41 1247.77 1576.35 1266.13 1576.39C1332.43 1576.53 1398.73 1576.53 1465.04 1576.39H1803.16C1831.08 1576.39 1851.42 1595.38 1851.52 1621.67C1851.63 1647.96 1831.86 1666.85 1803.44 1666.85C1713.68 1666.85 1623.92 1666.85 1534.16 1666.85L1534.34 1666.74Z" fill="#64728C"/>
<path d="M1756.43 1255.12C1756.43 1299.27 1756.43 1343.42 1756.43 1387.57C1756.43 1417.19 1738.15 1437.63 1711.89 1437.92C1685.64 1438.2 1666.15 1417.05 1666.11 1387.11C1666.11 1297.96 1666.11 1208.79 1666.11 1119.59C1666.11 1091.74 1685.39 1071.68 1711.75 1071.75C1738.11 1071.83 1756.57 1091.6 1756.57 1120.01C1756.57 1165.04 1756.57 1210.07 1756.57 1255.12H1756.43Z" fill="#64728C"/>
<path d="M1485.2 1303.41C1485.2 1274.71 1485.2 1245.98 1485.2 1217.28C1485.2 1190.67 1505.36 1170.22 1530.66 1170.54C1536.65 1170.63 1542.57 1171.91 1548.06 1174.29C1553.56 1176.68 1558.54 1180.13 1562.7 1184.44C1566.86 1188.75 1570.13 1193.85 1572.31 1199.43C1574.5 1205.01 1575.57 1210.97 1575.44 1216.96C1575.61 1274.83 1575.61 1332.71 1575.44 1390.58C1575.44 1417.58 1555.67 1437.99 1530.52 1438.09C1505.36 1438.2 1485.52 1417.97 1485.31 1391.08C1485.02 1361.7 1485.2 1332.54 1485.2 1303.41Z" fill="#64728C"/>
<path d="M1394.46 1321.77C1394.46 1345.19 1395.03 1368.65 1394.46 1392.03C1393.72 1416.23 1378.3 1433.56 1355.7 1437.42C1335.82 1440.79 1314.88 1428.24 1307.16 1408.58C1304.88 1401.87 1303.88 1394.79 1304.22 1387.71C1304.22 1343.06 1303.93 1298.42 1304.22 1253.77C1304.22 1227.23 1323.07 1207.71 1348.29 1207.14C1374.33 1206.65 1394.14 1225.92 1394.88 1252.82C1395.2 1264.3 1394.88 1275.78 1394.88 1287.29V1321.77H1394.46Z" fill="#64728C"/>
</g>
<defs>
<clipPath id="clip0_25_321">
<rect width="1087" height="1358" fill="white" transform="translate(987 852)"/>
</clipPath>
</defs>
</svg>
