<svg width="3062" height="3062" viewBox="0 0 3062 3062" fill="none" xmlns="http://www.w3.org/2000/svg">
<path d="M1180.14 1778.86C1180.14 1755.6 1189.39 1733.28 1205.84 1716.83C1222.29 1700.39 1244.6 1691.14 1267.86 1691.14C1291.12 1691.14 1313.43 1700.39 1329.88 1716.83C1346.33 1733.28 1355.57 1755.6 1355.57 1778.86V1866.57C1355.57 1889.83 1346.33 1912.14 1329.88 1928.6C1313.43 1945.04 1291.12 1954.29 1267.86 1954.29C1244.6 1954.29 1222.29 1945.04 1205.84 1928.6C1189.39 1912.14 1180.14 1889.83 1180.14 1866.57V1778.86ZM1706.43 1428C1706.43 1404.74 1715.67 1382.43 1732.12 1365.97C1748.57 1349.53 1770.88 1340.29 1794.14 1340.29C1817.41 1340.29 1839.72 1349.53 1856.17 1365.97C1872.62 1382.43 1881.86 1404.74 1881.86 1428V1866.57C1881.86 1889.83 1872.62 1912.14 1856.17 1928.6C1839.72 1945.04 1817.41 1954.29 1794.14 1954.29C1770.88 1954.29 1748.57 1945.04 1732.12 1928.6C1715.67 1912.14 1706.43 1889.83 1706.43 1866.57V1428ZM1443.29 1603.43C1443.29 1580.17 1452.53 1557.85 1468.98 1541.4C1485.43 1524.96 1507.74 1515.71 1531 1515.71C1554.26 1515.71 1576.57 1524.96 1593.03 1541.4C1609.47 1557.85 1618.72 1580.17 1618.72 1603.43V1866.57C1618.72 1889.83 1609.47 1912.14 1593.03 1928.6C1576.57 1945.04 1554.26 1954.29 1531 1954.29C1507.74 1954.29 1485.43 1945.04 1468.98 1928.6C1452.53 1912.14 1443.29 1889.83 1443.29 1866.57V1603.43Z" fill="#64728C"/>
<path d="M1180.14 946H1092.43C1045.9 946 1001.28 964.543 968.382 997.549C935.482 1030.56 917 1075.32 917 1122V2046C917 2092.68 935.482 2137.44 968.382 2170.45C1001.28 2203.46 1045.9 2222 1092.43 2222H1969.57C2016.1 2222 2060.72 2203.46 2093.62 2170.45C2126.52 2137.44 2145 2092.68 2145 2046V1122C2145 1075.32 2126.52 1030.56 2093.62 997.549C2060.72 964.543 2016.1 946 1969.57 946H1881.86V1034H1969.57C1992.83 1034 2015.14 1043.27 2031.6 1059.77C2048.04 1076.28 2057.29 1098.66 2057.29 1122V2046C2057.29 2069.34 2048.04 2091.72 2031.6 2108.23C2015.14 2124.73 1992.83 2134 1969.57 2134H1092.43C1069.17 2134 1046.85 2124.73 1030.41 2108.23C1013.96 2091.72 1004.71 2069.34 1004.71 2046V1122C1004.71 1098.66 1013.96 1076.28 1030.41 1059.77C1046.85 1043.27 1069.17 1034 1092.43 1034H1180.14V946Z" fill="#64728C"/>
<path d="M1662.57 927.714C1674.2 927.714 1685.36 932.335 1693.58 940.559C1701.81 948.784 1706.43 959.94 1706.43 971.571V1059.29C1706.43 1070.92 1701.81 1082.07 1693.58 1090.3C1685.36 1098.52 1674.2 1103.14 1662.57 1103.14H1399.43C1387.79 1103.14 1376.64 1098.52 1368.41 1090.3C1360.19 1082.07 1355.57 1070.92 1355.57 1059.29V971.571C1355.57 959.94 1360.19 948.784 1368.41 940.559C1376.64 932.335 1387.79 927.714 1399.43 927.714H1662.57ZM1399.43 840C1364.53 840 1331.07 853.862 1306.39 878.536C1281.72 903.211 1267.86 936.676 1267.86 971.571V1059.29C1267.86 1094.18 1281.72 1127.65 1306.39 1152.32C1331.07 1177 1364.53 1190.86 1399.43 1190.86H1662.57C1697.46 1190.86 1730.93 1177 1755.61 1152.32C1780.28 1127.65 1794.14 1094.18 1794.14 1059.29V971.571C1794.14 936.676 1780.28 903.211 1755.61 878.536C1730.93 853.862 1697.46 840 1662.57 840H1399.43Z" fill="#64728C"/>
</svg>
