<svg width="3062" height="3062" viewBox="0 0 3062 3062" fill="none" xmlns="http://www.w3.org/2000/svg">
<g clip-path="url(#clip0_40_675)">
<path fill-rule="evenodd" clip-rule="evenodd" d="M1290.8 1364.75C1290.8 1329.54 1319.63 1301 1355.18 1301H1690.52C1726.07 1301 1754.9 1329.54 1754.9 1364.75C1754.9 1399.96 1726.07 1428.5 1690.52 1428.5H1355.18C1319.63 1428.5 1290.8 1399.96 1290.8 1364.75Z" fill="#64728C"/>
<path fill-rule="evenodd" clip-rule="evenodd" d="M1522.85 1301C1558.06 1301 1586.6 1329.83 1586.6 1365.38V1700.72C1586.6 1736.27 1558.06 1765.1 1522.85 1765.1C1487.64 1765.1 1459.1 1736.27 1459.1 1700.72V1365.38C1459.1 1329.83 1487.64 1301 1522.85 1301Z" fill="#64728C"/>
<path fill-rule="evenodd" clip-rule="evenodd" d="M1066.4 1028.58C1039.88 1028.58 1018.38 1050.08 1018.38 1076.6C1018.38 1103.12 1039.88 1124.62 1066.4 1124.62C1092.92 1124.62 1114.42 1103.12 1114.42 1076.6C1114.42 1050.08 1092.92 1028.58 1066.4 1028.58ZM887.9 1076.6C887.9 978.019 967.817 898.102 1066.4 898.102C1164.98 898.102 1244.9 978.019 1244.9 1076.6C1244.9 1175.18 1164.98 1255.1 1066.4 1255.1C967.817 1255.1 887.9 1175.18 887.9 1076.6Z" fill="#64728C"/>
<path fill-rule="evenodd" clip-rule="evenodd" d="M1066.4 1941.48C1039.88 1941.48 1018.38 1962.97 1018.38 1989.5C1018.38 2016.03 1039.88 2037.52 1066.4 2037.52C1092.92 2037.52 1114.42 2016.03 1114.42 1989.5C1114.42 1962.97 1092.92 1941.48 1066.4 1941.48ZM887.9 1989.5C887.9 1890.92 967.818 1811 1066.4 1811C1164.98 1811 1244.9 1890.92 1244.9 1989.5C1244.9 2088.08 1164.98 2168 1066.4 2168C967.818 2168 887.9 2088.08 887.9 1989.5Z" fill="#64728C"/>
<path fill-rule="evenodd" clip-rule="evenodd" d="M1979.3 1028.58C1952.77 1028.58 1931.28 1050.08 1931.28 1076.6C1931.28 1103.12 1952.77 1124.62 1979.3 1124.62C2005.83 1124.62 2027.32 1103.12 2027.32 1076.6C2027.32 1050.08 2005.83 1028.58 1979.3 1028.58ZM1800.8 1076.6C1800.8 978.02 1880.72 898.102 1979.3 898.102C2077.88 898.102 2157.8 978.02 2157.8 1076.6C2157.8 1175.18 2077.88 1255.1 1979.3 1255.1C1880.72 1255.1 1800.8 1175.18 1800.8 1076.6Z" fill="#64728C"/>
<path fill-rule="evenodd" clip-rule="evenodd" d="M1979.3 1941.48C1952.77 1941.48 1931.28 1962.97 1931.28 1989.5C1931.28 2016.03 1952.77 2037.52 1979.3 2037.52C2005.83 2037.52 2027.32 2016.03 2027.32 1989.5C2027.32 1962.97 2005.83 1941.48 1979.3 1941.48ZM1800.8 1989.5C1800.8 1890.92 1880.72 1811 1979.3 1811C2077.88 1811 2157.8 1890.92 2157.8 1989.5C2157.8 2088.08 2077.88 2168 1979.3 2168C1880.72 2168 1800.8 2088.08 1800.8 1989.5Z" fill="#64728C"/>
<path fill-rule="evenodd" clip-rule="evenodd" d="M1112.3 1081.7C1112.3 1045.08 1141.91 1015.4 1178.43 1015.4H1867.27C1903.79 1015.4 1933.4 1045.08 1933.4 1081.7C1933.4 1118.31 1903.79 1148 1867.27 1148H1178.43C1141.91 1148 1112.3 1118.31 1112.3 1081.7Z" fill="#64728C"/>
<path fill-rule="evenodd" clip-rule="evenodd" d="M1974.2 1122.5C2010.82 1122.5 2040.5 1152.11 2040.5 1188.63V1303.44C2040.5 1339.96 2010.82 1369.56 1974.2 1369.56C1937.58 1369.56 1907.9 1339.96 1907.9 1303.44V1188.63C1907.9 1152.11 1937.58 1122.5 1974.2 1122.5ZM1974.2 1466.92C2010.82 1466.92 2040.5 1496.53 2040.5 1533.05V1877.47C2040.5 1913.99 2010.82 1943.6 1974.2 1943.6C1937.58 1943.6 1907.9 1913.99 1907.9 1877.47V1533.05C1907.9 1496.53 1937.58 1466.92 1974.2 1466.92Z" fill="#64728C"/>
<path fill-rule="evenodd" clip-rule="evenodd" d="M1112.3 1989.5C1112.3 1952.88 1141.91 1923.2 1178.43 1923.2H1293.24C1329.76 1923.2 1359.36 1952.88 1359.36 1989.5C1359.36 2026.12 1329.76 2055.8 1293.24 2055.8H1178.43C1141.91 2055.8 1112.3 2026.12 1112.3 1989.5ZM1456.72 1989.5C1456.72 1952.88 1486.33 1923.2 1522.85 1923.2H1867.27C1903.79 1923.2 1933.4 1952.88 1933.4 1989.5C1933.4 2026.12 1903.79 2055.8 1867.27 2055.8H1522.85C1486.33 2055.8 1456.72 2026.12 1456.72 1989.5Z" fill="#64728C"/>
<path fill-rule="evenodd" clip-rule="evenodd" d="M1066.4 1122.5C1103.02 1122.5 1132.7 1152.11 1132.7 1188.63V1877.47C1132.7 1913.99 1103.02 1943.6 1066.4 1943.6C1029.78 1943.6 1000.1 1913.99 1000.1 1877.47V1188.63C1000.1 1152.11 1029.78 1122.5 1066.4 1122.5Z" fill="#64728C"/>
</g>
<defs>
<clipPath id="clip0_40_675">
<rect width="1275" height="1275" fill="white" transform="translate(893 893)"/>
</clipPath>
</defs>
</svg>
