<svg width="3062" height="3062" viewBox="0 0 3062 3062" fill="none" xmlns="http://www.w3.org/2000/svg">
<path d="M1589.28 1274.82H2016.96C2061.7 1274.82 2097.97 1313.1 2097.97 1360.34V1702.41C2097.97 1749.64 2061.7 1787.93 2016.96 1787.93H1589.28V1873.45H2016.96C2106.43 1873.45 2178.96 1796.88 2178.96 1702.41V1360.34C2178.96 1265.87 2106.43 1189.3 2016.96 1189.3H1589.28V1274.82Z" fill="#64728C"/>
<path d="M1265.28 1274.82V1189.3H1044.96C955.488 1189.3 882.958 1265.87 882.958 1360.34V1702.41C882.958 1796.88 955.488 1873.45 1044.96 1873.45H1265.28V1787.93H1044.96C1000.22 1787.93 963.958 1749.64 963.958 1702.41V1360.34C963.958 1313.1 1000.22 1274.82 1044.96 1274.82H1265.28Z" fill="#64728C"/>
<path fill-rule="evenodd" clip-rule="evenodd" d="M841.241 1360.33C841.241 1245 930.344 1147.58 1044.96 1147.58H1307V1316.53H1044.96C1025.37 1316.53 1005.68 1333.98 1005.68 1360.33V1702.41C1005.68 1728.77 1025.37 1746.22 1044.96 1746.22H1307V1915.17H1044.96C930.344 1915.17 841.241 1817.75 841.241 1702.41V1360.33ZM965.233 1263.55C986.388 1244.7 1014 1233.1 1044.96 1233.1H1223.56V1231.01H1044.96C1014.95 1231.01 986.766 1243.14 965.233 1263.55ZM965.233 1799.2C986.767 1819.61 1014.95 1831.74 1044.96 1831.74H1223.56V1829.65H1044.96C1014 1829.65 986.389 1818.05 965.233 1799.2ZM1547.56 1147.58H2016.96C2131.58 1147.58 2220.68 1245 2220.68 1360.33V1702.41C2220.68 1817.75 2131.58 1915.17 2016.96 1915.17H1547.56V1746.22H2016.96C2036.55 1746.22 2056.25 1728.77 2056.25 1702.41V1360.33C2056.25 1333.98 2036.55 1316.53 2016.96 1316.53H1547.56V1147.58ZM1631 1231.01V1233.1H2016.96C2047.92 1233.1 2075.53 1244.7 2096.69 1263.55C2075.15 1243.14 2046.97 1231.01 2016.96 1231.01H1631ZM2096.69 1799.2C2075.53 1818.05 2047.92 1829.65 2016.96 1829.65H1631V1831.74H2016.96C2046.97 1831.74 2075.15 1819.61 2096.69 1799.2Z" fill="#64728C"/>
<path fill-rule="evenodd" clip-rule="evenodd" d="M1440.82 927.438C1463.35 927.438 1481.62 946.729 1481.62 970.525V2090.82C1481.62 2114.61 1463.35 2133.9 1440.82 2133.9C1418.28 2133.9 1400.01 2114.61 1400.01 2090.82V970.525C1400.01 946.729 1418.28 927.438 1440.82 927.438Z" fill="#64728C"/>
<path fill-rule="evenodd" clip-rule="evenodd" d="M1366.64 970.524C1366.64 930.032 1398.16 894.062 1440.82 894.062C1483.48 894.062 1514.99 930.032 1514.99 970.524V2090.82C1514.99 2131.3 1483.48 2167.27 1440.82 2167.27C1398.16 2167.27 1366.64 2131.3 1366.64 2090.82V970.524ZM1440.82 960.81C1438.4 960.81 1433.39 963.422 1433.39 970.524V2090.82C1433.39 2097.92 1438.4 2100.53 1440.82 2100.53C1443.23 2100.53 1448.24 2097.92 1448.24 2090.82V970.524C1448.24 963.422 1443.23 960.81 1440.82 960.81Z" fill="#64728C"/>
</svg>
