<svg width="3063" height="3062" viewBox="0 0 3063 3062" fill="none" xmlns="http://www.w3.org/2000/svg">
<g clip-path="url(#clip0_40_784)">
<path fill-rule="evenodd" clip-rule="evenodd" d="M1028.9 1238.83C1112.45 1162.53 1224.66 1120.5 1340.64 1120.5H1723.14C1839.11 1120.5 1951.33 1162.53 2034.88 1238.83C2118.61 1315.31 2166.84 1420.28 2166.84 1531.05C2166.84 1641.82 2118.61 1746.79 2034.88 1823.26C1951.33 1899.57 1839.11 1941.6 1723.14 1941.6H1340.64C1224.66 1941.6 1112.45 1899.57 1028.9 1823.26C945.167 1746.79 896.939 1641.82 896.939 1531.05C896.939 1420.28 945.167 1315.31 1028.9 1238.83ZM1340.64 1242.9C1253.73 1242.9 1171.36 1274.49 1111.44 1329.21C1051.71 1383.77 1019.34 1456.51 1019.34 1531.05C1019.34 1605.59 1051.71 1678.33 1111.44 1732.89C1171.36 1787.62 1253.73 1819.2 1340.64 1819.2H1723.14C1810.05 1819.2 1892.42 1787.62 1952.33 1732.89C2012.07 1678.33 2044.44 1605.59 2044.44 1531.05C2044.44 1456.51 2012.07 1383.77 1952.33 1329.21C1892.42 1274.49 1810.05 1242.9 1723.14 1242.9H1340.64Z" fill="#64728C"/>
<path d="M1779.24 1732.5C1889.09 1732.5 1978.14 1643.45 1978.14 1533.6C1978.14 1423.75 1889.09 1334.7 1779.24 1334.7C1669.39 1334.7 1580.34 1423.75 1580.34 1533.6C1580.34 1643.45 1669.39 1732.5 1779.24 1732.5Z" fill="#64728C"/>
</g>
<defs>
<clipPath id="clip0_40_784">
<rect width="1270" height="822" fill="white" transform="translate(896.84 1120)"/>
</clipPath>
</defs>
</svg>
