<svg width="3062" height="3062" viewBox="0 0 3062 3062" fill="none" xmlns="http://www.w3.org/2000/svg">
<path d="M1530.5 1035C1200.27 1035 918.259 1240.47 804 1530.5C918.259 1820.53 1200.27 2026 1530.5 2026C1860.73 2026 2142.74 1820.53 2257 1530.5C2142.74 1240.47 1860.73 1035 1530.5 1035ZM1530.5 1860.83C1348.21 1860.83 1200.27 1712.84 1200.27 1530.5C1200.27 1348.16 1348.21 1200.17 1530.5 1200.17C1712.79 1200.17 1860.73 1348.16 1860.73 1530.5C1860.73 1712.84 1712.79 1860.83 1530.5 1860.83ZM1530.5 1332.3C1420.86 1332.3 1332.36 1420.83 1332.36 1530.5C1332.36 1640.17 1420.86 1728.7 1530.5 1728.7C1640.14 1728.7 1728.64 1640.17 1728.64 1530.5C1728.64 1420.83 1640.14 1332.3 1530.5 1332.3Z" fill="#64728C"/>
</svg>
