<svg width="3063" height="3062" viewBox="0 0 3063 3062" fill="none" xmlns="http://www.w3.org/2000/svg">
<path d="M1593.22 1037.79C1818.92 1066.18 1995.65 1242.91 2024.04 1468.62C2028.3 1504.82 2058.82 1531.08 2094.31 1531.08C2097.15 1531.08 2099.99 1531.08 2102.83 1530.37C2141.86 1525.4 2169.54 1489.91 2164.57 1450.88C2147.14 1309.93 2083.14 1178.84 1982.71 1078.41C1882.29 977.987 1751.2 913.979 1610.25 896.549C1571.21 892.29 1535.73 919.971 1531.47 959.008C1526.5 998.046 1554.18 1033.53 1593.22 1037.79ZM1620.19 1187.55C1582.57 1177.62 1543.53 1200.33 1533.6 1238.66C1523.66 1276.98 1546.37 1315.31 1584.7 1325.25C1621.42 1334.78 1654.93 1353.95 1681.76 1380.78C1708.59 1407.61 1727.76 1441.12 1737.3 1477.85C1742.03 1496.09 1753.8 1511.72 1770.03 1521.3C1786.26 1530.88 1805.63 1533.63 1823.89 1528.95C1861.51 1519.01 1884.22 1479.98 1874.99 1442.36C1859 1381.07 1826.96 1325.16 1782.18 1280.37C1737.39 1235.58 1681.47 1203.54 1620.19 1187.55ZM2043.91 1762.46L1863.64 1741.88C1842.44 1739.39 1820.95 1741.74 1800.79 1748.74C1780.63 1755.75 1762.32 1767.24 1747.23 1782.34L1616.64 1912.93C1415.16 1810.44 1251.4 1646.67 1148.91 1445.2L1280.21 1313.89C1310.73 1283.37 1325.64 1240.79 1320.67 1197.49L1300.08 1018.63C1296.08 983.998 1279.46 952.054 1253.41 928.885C1227.37 905.717 1193.7 892.943 1158.84 893H1036.05C955.85 893 889.132 959.718 894.101 1039.92C931.718 1646.06 1416.49 2130.12 2021.91 2167.74C2102.12 2172.71 2168.83 2105.99 2168.83 2025.79V1903C2169.54 1831.31 2115.6 1770.98 2043.91 1762.46Z" fill="#64728C"/>
</svg>
