<svg width="3062" height="3062" viewBox="0 0 3062 3062" fill="none" xmlns="http://www.w3.org/2000/svg">
<g clip-path="url(#clip0_24_94)">
<path d="M2019.44 1263.45H1041.71C1044.36 1296.3 1046.89 1328.46 1049.55 1360.65C1055.87 1438.18 1062.3 1515.73 1068.84 1593.28C1076.09 1680.05 1083.34 1766.81 1090.59 1853.58C1096.6 1925.68 1102.04 1997.83 1108.74 2069.83C1114.02 2126.43 1148.52 2163.43 1204.42 2175.19C1205.55 2175.62 1206.62 2176.19 1207.59 2176.9H1854.23C1878.51 2170.92 1901.12 2161.94 1919.49 2143.92C1944.19 2119.67 1952.28 2089.28 1954.97 2056.08C1967.28 1904.3 1979.8 1752.52 1992.54 1600.74C2001.83 1489.71 2010.98 1378.69 2019.98 1267.68C2019.94 1266.26 2019.76 1264.84 2019.44 1263.45ZM1329.01 2023.07C1313.2 2017.31 1304.79 2005.36 1303.71 1988.76C1299.35 1920.33 1295.13 1851.93 1291.06 1783.54C1284.74 1681.11 1278.33 1578.71 1271.84 1476.35C1269.82 1443.62 1267.06 1410.89 1266.18 1378.13C1265.83 1371.47 1267.27 1364.84 1270.33 1358.91C1273.4 1352.99 1278 1347.99 1283.64 1344.43C1289.28 1340.87 1295.77 1338.88 1302.44 1338.66C1309.11 1338.44 1315.72 1340.01 1321.58 1343.19C1327.46 1346.16 1332.42 1350.67 1335.93 1356.24C1339.44 1361.81 1341.37 1368.23 1341.5 1374.81C1345.84 1441.95 1350.06 1509.1 1354.15 1576.24C1360.64 1680.29 1367.1 1784.36 1373.53 1888.46C1375.43 1919.1 1377.23 1949.74 1379.63 1989.64C1380.39 2012.25 1356.27 2032.96 1329.01 2023.07ZM1568.76 1983.83C1568.76 2013.49 1544.41 2032.36 1518.61 2023.13C1503.24 2017.63 1495.05 2006.21 1493.31 1990.15C1493 1985.94 1492.92 1981.72 1493.09 1977.5V1386.77C1493.09 1356.44 1507.03 1338.86 1531.03 1338.83C1555.03 1338.8 1568.98 1356.47 1568.98 1386.73V1682.1C1568.87 1782.68 1568.8 1883.25 1568.76 1983.83ZM1776.88 1686.24C1771.49 1773.16 1766.12 1860.08 1760.79 1947.02C1759.93 1960.87 1759.21 1974.72 1758.2 1988.57C1756.58 2010.45 1740.2 2025.88 1719.43 2025.41C1714.35 2025.35 1709.33 2024.26 1704.69 2022.19C1700.05 2020.12 1695.88 2017.12 1692.44 2013.38C1689.01 2009.63 1686.37 2005.23 1684.71 2000.43C1683.04 1995.63 1682.37 1990.54 1682.75 1985.47C1684.87 1939.65 1688.06 1893.77 1690.91 1848.14C1696.41 1759.94 1701.96 1671.76 1707.57 1583.6C1711.9 1514.32 1716.01 1445.04 1720.41 1375.76C1720.85 1365.55 1725.33 1355.92 1732.86 1349C1740.38 1342.07 1750.35 1338.42 1760.57 1338.83C1782.7 1340.06 1796.9 1358.05 1796.05 1380.22C1789.5 1484.79 1783.14 1585.47 1776.88 1686.24Z" fill="#64728C"/>
<path d="M2096.15 1090.96C2086.67 1057.15 2057.35 1035.78 2019.13 1035.78C1949.56 1035.59 1880.25 1035.78 1810.78 1035.78H1796.04C1796.04 1023.76 1796.04 1012.92 1796.04 1002.07C1795.41 933.232 1746.84 884.473 1678 884.252C1579.96 883.936 1481.93 883.936 1383.93 884.252C1315 884.473 1266.56 933.264 1265.77 1002.01C1265.77 1012.82 1265.77 1023.67 1265.77 1035.65H1250.97C1181.18 1035.78 1111.24 1035.3 1041.39 1035.78C985.639 1036.16 950.035 1085.36 967.457 1136.96C978.114 1168.58 1006.95 1187.15 1045.47 1187.15C1369.13 1187.15 1692.8 1187.15 2016.47 1187.15C2024.03 1187.24 2031.59 1186.58 2039.01 1185.15C2049.14 1183.07 2058.73 1178.92 2067.18 1172.96C2075.63 1167 2082.76 1159.36 2088.13 1150.51C2093.49 1141.67 2096.97 1131.82 2098.35 1121.57C2099.73 1111.32 2098.98 1100.9 2096.15 1090.96ZM1720.34 1034.99H1341.53C1341.53 1023.13 1341.53 1012.63 1341.53 1002.1C1341.78 975.098 1356.77 959.888 1383.87 959.888C1468.8 959.888 1553.73 959.888 1638.67 959.888C1652.55 959.888 1666.43 959.698 1680.28 959.888C1704.28 960.331 1719.74 975.54 1720.28 999.287C1720.56 1011.02 1720.34 1022.69 1720.34 1034.99Z" fill="#64728C"/>
</g>
<defs>
<clipPath id="clip0_24_94">
<rect width="1136" height="1293.03" fill="white" transform="translate(963 884)"/>
</clipPath>
</defs>
</svg>
