<svg width="3062" height="3062" viewBox="0 0 3062 3062" fill="none" xmlns="http://www.w3.org/2000/svg">
<g clip-path="url(#clip0_38_534)">
<path d="M1732.6 1343.97L1519.84 1259.9V2150.97C1519.84 2160.39 1512.19 2168 1502.77 2168H1332.23C1322.81 2168 1315.17 2160.39 1315.17 2150.97V1259.9L1102.38 1343.97C1095.24 1346.76 1087.12 1344.47 1082.49 1338.39C1077.84 1332.24 1077.88 1323.81 1082.58 1317.71L1403.97 899.65C1407.19 895.461 1412.2 893.001 1417.52 893.001C1422.77 893.001 1427.81 895.478 1431.02 899.65L1752.42 1317.71C1754.8 1320.79 1755.96 1324.45 1755.96 1328.1C1755.96 1331.66 1754.83 1335.32 1752.52 1338.39C1747.87 1344.48 1739.72 1346.76 1732.6 1343.97V1343.97ZM1702.76 1725.09H1631.21L1769.75 1392.28H1842.8L1981.97 1725.09H1908.74L1867.4 1625.71H1742.94L1702.76 1725.09ZM1760.22 1577H1850.02L1816.86 1497.49C1812.16 1486.21 1808.29 1475.5 1804.83 1465.14C1801.01 1476.61 1797.28 1486.96 1793.44 1496.82L1760.22 1577H1760.22ZM1954.25 1854.83V1818.66H1674.41V1869.8H1862.57L1656.02 2116.38V2151.54H1957.11V2100.43H1748.84L1954.25 1854.83L1954.25 1854.83Z" fill="#64728C"/>
</g>
<defs>
<clipPath id="clip0_38_534">
<rect width="1275" height="1275" fill="white" transform="translate(893 893)"/>
</clipPath>
</defs>
</svg>
