<svg width="3063" height="3062" viewBox="0 0 3063 3062" fill="none" xmlns="http://www.w3.org/2000/svg">
<path d="M2029.12 1564.44H1891.23C1872.46 1564.44 1854.3 1567 1837 1571.71C1802.89 1504.66 1733.26 1458.59 1653.01 1458.59H1409.28C1329.04 1458.59 1259.4 1504.66 1225.29 1571.71C1208 1567 1189.83 1564.44 1171.06 1564.44H1033.18C919.404 1564.44 826.84 1657 826.84 1770.78V1991.2C826.84 2059.46 882.378 2115 950.644 2115H2111.65C2179.92 2115 2235.46 2059.46 2235.46 1991.2V1770.78C2235.46 1657 2142.89 1564.44 2029.12 1564.44ZM1202.94 1664.94V2032.47H950.644C927.889 2032.47 909.376 2013.95 909.376 1991.2V1770.78C909.376 1702.51 964.914 1646.97 1033.18 1646.97H1171.06C1182.27 1646.97 1193.12 1648.5 1203.44 1651.3C1203.15 1655.81 1202.94 1660.35 1202.94 1664.94ZM1776.82 2032.47H1285.48V1664.93C1285.48 1596.67 1341.02 1541.13 1409.28 1541.13H1653.01C1721.28 1541.13 1776.82 1596.67 1776.82 1664.93V2032.47ZM2152.92 1991.2C2152.92 2013.95 2134.41 2032.47 2111.65 2032.47H1859.35V1664.93C1859.35 1660.35 1859.15 1655.81 1858.85 1651.3C1869.18 1648.5 1880.03 1646.97 1891.23 1646.97H2029.12C2097.38 1646.97 2152.92 1702.51 2152.92 1770.78V1991.2Z" fill="#64728C"/>
<path d="M1102.13 1174.73C1001.02 1174.73 918.771 1256.99 918.771 1358.09C918.768 1459.19 1001.02 1541.45 1102.13 1541.45C1203.23 1541.45 1285.48 1459.19 1285.48 1358.09C1285.48 1256.99 1203.23 1174.73 1102.13 1174.73ZM1102.12 1458.91C1046.53 1458.91 1001.3 1413.68 1001.3 1358.09C1001.3 1302.5 1046.53 1257.27 1102.12 1257.27C1157.72 1257.27 1202.94 1302.5 1202.94 1358.09C1202.94 1413.68 1157.72 1458.91 1102.12 1458.91Z" fill="#64728C"/>
<path d="M1531.15 947C1396.08 947 1286.19 1056.89 1286.19 1191.96C1286.19 1327.03 1396.08 1436.92 1531.15 1436.92C1666.23 1436.92 1776.11 1327.03 1776.11 1191.96C1776.11 1056.89 1666.23 947 1531.15 947ZM1531.15 1354.39C1441.59 1354.39 1368.73 1281.52 1368.73 1191.96C1368.73 1102.4 1441.59 1029.54 1531.15 1029.54C1620.71 1029.54 1693.58 1102.4 1693.58 1191.96C1693.58 1281.52 1620.71 1354.39 1531.15 1354.39Z" fill="#64728C"/>
<path d="M1960.17 1174.73C1859.07 1174.73 1776.81 1256.99 1776.81 1358.09C1776.81 1459.19 1859.07 1541.45 1960.17 1541.45C2061.27 1541.45 2143.52 1459.19 2143.52 1358.09C2143.52 1256.99 2061.27 1174.73 1960.17 1174.73ZM1960.17 1458.91C1904.58 1458.91 1859.35 1413.68 1859.35 1358.09C1859.35 1302.5 1904.58 1257.27 1960.17 1257.27C2015.76 1257.27 2060.99 1302.5 2060.99 1358.09C2060.99 1413.68 2015.76 1458.91 1960.17 1458.91Z" fill="#64728C"/>
</svg>
