<svg width="3063" height="3062" viewBox="0 0 3063 3062" fill="none" xmlns="http://www.w3.org/2000/svg">
<path d="M2129.04 1128.69C2124.44 1117.49 2116.63 1107.9 2106.59 1101.14C2096.54 1094.37 2084.72 1090.72 2072.62 1090.66H1949.95V967.997C1949.89 955.889 1946.25 944.069 1939.48 934.027C1932.71 923.986 1923.12 916.172 1911.92 911.571C1900.75 906.874 1888.44 905.591 1876.54 907.883C1864.65 910.175 1853.69 915.94 1845.07 924.451L1661.07 1108.45C1655.38 1114.18 1650.89 1120.98 1647.84 1128.45C1644.78 1135.92 1643.24 1143.93 1643.28 1152V1310.85L1507.74 1445.78C1501.99 1451.49 1497.42 1458.27 1494.31 1465.74C1491.2 1473.22 1489.59 1481.23 1489.59 1489.33C1489.59 1497.43 1491.2 1505.44 1494.31 1512.92C1497.42 1520.39 1501.99 1527.18 1507.74 1532.88C1513.44 1538.63 1520.22 1543.19 1527.7 1546.3C1535.17 1549.42 1543.19 1551.02 1551.28 1551.02C1559.38 1551.02 1567.4 1549.42 1574.87 1546.3C1582.34 1543.19 1589.13 1538.63 1594.83 1532.88L1729.76 1397.33H1888.62C1896.69 1397.38 1904.69 1395.83 1912.16 1392.78C1919.64 1389.73 1926.43 1385.23 1932.16 1379.54L2116.16 1195.54C2124.67 1186.92 2130.44 1175.97 2132.73 1164.07C2135.02 1152.17 2133.74 1139.86 2129.04 1128.69Z" fill="#64728C"/>
<path d="M1520.62 2133.33C1357.95 2133.33 1201.95 2068.71 1086.93 1953.69C971.904 1838.67 907.285 1682.66 907.285 1520C907.285 1357.33 971.904 1201.33 1086.93 1086.31C1201.95 971.284 1357.95 906.665 1520.62 906.665H1546.38C1554.43 907.39 1562.27 909.694 1569.43 913.446C1576.59 917.198 1582.95 922.324 1588.13 928.532C1593.31 934.74 1597.22 941.908 1599.64 949.627C1602.05 957.346 1602.92 965.464 1602.19 973.518C1601.47 981.573 1599.16 989.406 1595.41 996.569C1591.66 1003.73 1586.53 1010.09 1580.32 1015.27C1574.12 1020.45 1566.95 1024.36 1559.23 1026.78C1551.51 1029.19 1543.39 1030.06 1535.34 1029.33H1520.62C1423.57 1029.33 1328.71 1058.11 1248.02 1112.02C1167.33 1165.94 1104.44 1242.57 1067.3 1332.23C1030.16 1421.89 1020.45 1520.54 1039.38 1615.72C1058.31 1710.9 1105.04 1798.33 1173.66 1866.95C1242.29 1935.57 1329.71 1982.3 1424.89 2001.24C1520.07 2020.17 1618.73 2010.45 1708.39 1973.32C1798.05 1936.18 1874.68 1873.29 1928.59 1792.6C1982.51 1711.91 2011.29 1617.04 2011.29 1520C2011.59 1515.1 2011.59 1510.18 2011.29 1505.28C2010.53 1497.22 2011.37 1489.09 2013.77 1481.35C2016.17 1473.62 2020.08 1466.44 2025.27 1460.23C2030.46 1454.01 2036.82 1448.88 2044 1445.14C2051.18 1441.4 2059.03 1439.12 2067.1 1438.43C2075.16 1437.67 2083.29 1438.51 2091.02 1440.91C2098.76 1443.31 2105.94 1447.22 2112.15 1452.41C2118.37 1457.6 2123.49 1463.96 2127.23 1471.14C2130.98 1478.32 2133.26 1486.17 2133.95 1494.24C2133.95 1502.83 2133.95 1511.41 2133.95 1520C2133.95 1682.66 2069.33 1838.67 1954.31 1953.69C1839.29 2068.71 1683.28 2133.33 1520.62 2133.33ZM1881.26 1593.6C1884.51 1577.33 1881.17 1560.44 1871.97 1546.64C1862.77 1532.83 1848.46 1523.25 1832.19 1520C1815.93 1516.75 1799.03 1520.09 1785.23 1529.29C1771.43 1538.49 1761.85 1552.8 1758.59 1569.07C1749.78 1612.63 1729.3 1652.99 1699.34 1685.82C1669.37 1718.65 1631.05 1742.73 1588.47 1755.48C1545.89 1768.22 1500.64 1769.16 1457.57 1758.19C1414.49 1747.21 1375.21 1724.75 1343.91 1693.18C1312.61 1661.62 1290.48 1622.14 1279.88 1578.98C1269.27 1535.81 1270.59 1490.57 1283.7 1448.1C1296.81 1405.63 1321.21 1367.51 1354.29 1337.83C1387.38 1308.15 1427.91 1288.01 1471.55 1279.57C1487.82 1276.32 1502.13 1266.74 1511.33 1252.93C1520.53 1239.13 1523.87 1222.24 1520.62 1205.97C1517.37 1189.71 1507.78 1175.4 1493.98 1166.2C1480.18 1156.99 1463.29 1153.65 1447.02 1156.91C1381.89 1170.22 1321.58 1200.92 1272.5 1245.76C1223.42 1290.6 1187.41 1347.89 1168.28 1411.55C1149.15 1475.22 1147.62 1542.88 1163.86 1607.34C1180.1 1671.8 1213.49 1730.66 1260.5 1777.67C1307.5 1824.67 1366.36 1858.07 1430.83 1874.3C1495.29 1890.54 1562.95 1889.01 1626.61 1869.88C1690.27 1850.76 1747.57 1814.74 1792.4 1765.66C1837.24 1716.58 1867.95 1656.27 1881.26 1591.15V1593.6Z" fill="#64728C"/>
</svg>
