<svg width="3062" height="3062" viewBox="0 0 3062 3062" fill="none" xmlns="http://www.w3.org/2000/svg">
<path d="M1887.56 1827.61C2044.46 1827.61 2172.03 1955.78 2172.03 2113.26C2172.03 2145.51 2145.9 2171.65 2113.64 2171.66V2171.66H2113.62V2171.66C2081.38 2171.65 2055.24 2145.52 2055.24 2113.26C2055.24 2020.11 1979.96 1944.42 1887.57 1944.42H1845.71C1753.32 1944.42 1678.04 2020.11 1678.04 2113.26C1678.04 2145.51 1651.9 2171.66 1619.64 2171.66C1587.39 2171.66 1561.23 2145.52 1561.23 2113.26C1561.23 1955.78 1688.8 1827.61 1845.7 1827.61H1887.56Z" fill="#64728C" stroke="#64728C" stroke-width="18"/>
<path d="M1864.18 1333.62C1984.91 1333.62 2083.12 1431.83 2083.12 1552.56C2083.12 1673.3 1984.91 1771.52 1864.18 1771.52C1743.44 1771.52 1645.22 1673.3 1645.22 1552.56C1645.22 1431.83 1743.44 1333.62 1864.18 1333.62ZM1864.18 1450.42C1807.86 1450.42 1762.03 1496.25 1762.03 1552.56C1762.03 1608.88 1807.85 1654.71 1864.18 1654.71C1920.49 1654.71 1966.32 1608.88 1966.32 1552.56C1966.32 1496.25 1920.49 1450.42 1864.18 1450.42Z" fill="#64728C" stroke="#64728C" stroke-width="18"/>
<path d="M1649.35 889C1817.77 889 1954.74 1025.97 1954.74 1194.35C1954.74 1226.6 1928.59 1252.75 1896.34 1252.75C1864.08 1252.75 1837.94 1226.61 1837.94 1194.35C1837.94 1090.39 1753.35 1005.8 1649.4 1005.8H1194.76C1090.81 1005.8 1006.22 1090.39 1006.22 1194.35V1866.3C1006.22 1970.26 1090.81 2054.85 1194.76 2054.85H1422.05C1454.29 2054.85 1480.44 2080.99 1480.44 2113.25C1480.44 2145.51 1454.3 2171.65 1422.05 2171.65H1194.76C1026.38 2171.65 889.414 2034.67 889.414 1866.29V1194.35C889.414 1025.97 1026.38 889 1194.76 889H1649.35Z" fill="#64728C" stroke="#64728C" stroke-width="18"/>
<path d="M1501.33 1785.14C1501.33 1801.26 1495.5 1815 1483.85 1826.37C1472.19 1837.73 1458.3 1843.42 1442.19 1843.42C1426.08 1843.42 1412.19 1837.73 1400.53 1826.37C1388.87 1815 1383.04 1801.26 1383.04 1785.14C1383.04 1769.02 1388.87 1755.14 1400.53 1743.48C1412.19 1731.82 1426.07 1726 1442.19 1726C1458.31 1726 1472.19 1731.83 1483.85 1743.48C1495.51 1755.14 1501.33 1769.02 1501.33 1785.14ZM1497.46 1264.49C1497.46 1278.88 1492.71 1327.24 1483.21 1409.54C1473.71 1491.86 1465.36 1571.43 1458.17 1648.28H1424.5C1418.17 1571.43 1410.32 1491.86 1400.98 1409.54C1391.62 1327.23 1386.95 1278.88 1386.95 1264.49C1386.95 1248.08 1392.12 1234.27 1402.48 1223.04C1412.84 1211.82 1426.08 1206.2 1442.2 1206.2C1458.32 1206.2 1471.56 1211.75 1481.92 1222.83C1492.28 1233.91 1497.47 1247.8 1497.47 1264.49H1497.46Z" fill="#64728C"/>
</svg>
