<svg width="3062" height="3062" viewBox="0 0 3062 3062" fill="none" xmlns="http://www.w3.org/2000/svg">
<path d="M2118.12 2170C2090.57 2170 2068.23 2147.67 2068.23 2120.12C2068.23 2021.1 1988.21 1940.54 1889.84 1940.54H1847.57C1749.2 1940.54 1669.17 2021.1 1669.17 2120.12C1669.17 2147.67 1646.84 2170 1619.29 2170C1591.74 2170 1569.41 2147.67 1569.41 2120.12C1569.41 1966.09 1694.19 1840.77 1847.57 1840.77H1889.84C2043.22 1840.77 2168 1966.09 2168 2120.12C2168 2147.67 2145.67 2170 2118.12 2170ZM2078.21 1553.95C2078.21 1437.05 1983.11 1341.95 1866.21 1341.95C1749.31 1341.95 1654.21 1437.05 1654.21 1553.95C1654.21 1670.85 1749.31 1765.95 1866.21 1765.95C1983.11 1765.95 2078.21 1670.85 2078.21 1553.95ZM1978.45 1553.95C1978.45 1615.83 1928.1 1666.18 1866.21 1666.18C1804.32 1666.18 1753.97 1615.83 1753.97 1553.95C1753.97 1492.06 1804.32 1441.71 1866.21 1441.71C1928.1 1441.71 1978.45 1492.06 1978.45 1553.95ZM1469.64 2120.12C1469.64 2092.57 1447.31 2070.23 1419.76 2070.23H1190.24C1080.25 2070.23 990.766 1980.75 990.766 1870.76V1192.24C990.766 1082.25 1080.25 992.766 1190.24 992.766H1649.32C1759.32 992.766 1848.8 1082.25 1848.8 1192.24C1848.8 1219.79 1871.13 1242.13 1898.68 1242.13C1926.23 1242.13 1948.57 1219.79 1948.57 1192.24C1948.57 1027.24 1814.33 893 1649.27 893H1190.24C1025.24 893 891 1027.24 891 1192.24V1870.75C891 2035.76 1025.24 2170 1190.24 2170H1419.76C1447.31 2170 1469.64 2147.67 1469.64 2120.12ZM1202.77 1144.91C1168.33 1144.91 1140.41 1172.83 1140.41 1207.26C1140.41 1241.7 1168.33 1269.62 1202.77 1269.62C1237.2 1269.62 1265.12 1241.7 1265.12 1207.26C1265.12 1172.83 1237.2 1144.91 1202.77 1144.91ZM1417.26 1144.91C1382.83 1144.91 1354.91 1172.83 1354.91 1207.26C1354.91 1241.7 1382.83 1269.62 1417.26 1269.62C1451.7 1269.62 1479.62 1241.7 1479.62 1207.26C1479.62 1172.83 1451.7 1144.91 1417.26 1144.91ZM1631.76 1144.91C1597.32 1144.91 1569.41 1172.83 1569.41 1207.26C1569.41 1241.7 1597.32 1269.62 1631.76 1269.62C1666.2 1269.62 1694.11 1241.7 1694.11 1207.26C1694.11 1172.83 1666.2 1144.91 1631.76 1144.91ZM1202.77 1359.4C1168.33 1359.4 1140.41 1387.32 1140.41 1421.76C1140.41 1456.19 1168.33 1484.11 1202.77 1484.11C1237.2 1484.11 1265.12 1456.19 1265.12 1421.76C1265.12 1387.32 1237.2 1359.4 1202.77 1359.4ZM1202.77 1573.9C1168.33 1573.9 1140.41 1601.82 1140.41 1636.25C1140.41 1670.69 1168.33 1698.61 1202.77 1698.61C1237.2 1698.61 1265.12 1670.69 1265.12 1636.25C1265.12 1601.82 1237.2 1573.9 1202.77 1573.9ZM1202.77 1788.4C1168.33 1788.4 1140.41 1816.31 1140.41 1850.75C1140.41 1885.19 1168.33 1913.1 1202.77 1913.1C1237.2 1913.1 1265.12 1885.19 1265.12 1850.75C1265.12 1816.31 1237.2 1788.4 1202.77 1788.4ZM1417.26 1359.4C1382.83 1359.4 1354.91 1387.32 1354.91 1421.76C1354.91 1456.19 1382.83 1484.11 1417.26 1484.11C1451.7 1484.11 1479.62 1456.19 1479.62 1421.76C1479.62 1387.32 1451.7 1359.4 1417.26 1359.4ZM1417.26 1573.9C1382.83 1573.9 1354.91 1601.82 1354.91 1636.25C1354.91 1670.69 1382.83 1698.61 1417.26 1698.61C1451.7 1698.61 1479.62 1670.69 1479.62 1636.25C1479.62 1601.82 1451.7 1573.9 1417.26 1573.9ZM1417.26 1788.4C1382.83 1788.4 1354.91 1816.31 1354.91 1850.75C1354.91 1885.19 1382.83 1913.1 1417.26 1913.1C1451.7 1913.1 1479.62 1885.19 1479.62 1850.75C1479.62 1816.31 1451.7 1788.4 1417.26 1788.4Z" fill="#64728C"/>
</svg>
