<svg width="3063" height="3062" viewBox="0 0 3063 3062" fill="none" xmlns="http://www.w3.org/2000/svg">
<path d="M1495.05 1191.96C1540.3 1177.42 1588.65 1182.4 1650.2 1209.92L1650.21 1209.92C1754.58 1256.64 1859.19 1293.2 1860.23 1293.56H1860.22C1876.45 1299.21 1884.94 1316.92 1879.36 1333.11L1879.36 1333.12L1879.36 1333.13C1873.71 1349.33 1856.11 1357.91 1839.79 1352.26L1839.78 1352.26C1838.67 1351.87 1731.65 1314.47 1624.8 1266.69V1266.69C1578.28 1245.9 1544.88 1241.24 1512.71 1251.7C1480.17 1262.28 1448.13 1288.53 1404.95 1331.75L1404.94 1331.75C1387.15 1349.54 1371.35 1371.8 1360.71 1392.44C1355.4 1402.75 1351.42 1412.56 1349.12 1421.1C1346.79 1429.76 1346.3 1436.66 1347.44 1441.42L1347.44 1441.43L1347.44 1441.44C1347.77 1442.83 1348.11 1443.7 1348.87 1444.54C1349.63 1445.38 1351.15 1446.53 1354.38 1447.69L1355.05 1447.92L1355.06 1447.92C1367.67 1452.15 1382.9 1455.24 1399.34 1450.83C1415.7 1446.45 1433.98 1434.44 1452.32 1407.02L1452.32 1407.02C1457.48 1399.31 1465.81 1394.35 1475.05 1393.42L1476.67 1393.25C1484.55 1392.41 1489.45 1391.52 1493.79 1390.24C1498.46 1388.87 1502.6 1387.02 1509.31 1384.01L1509.32 1384.01C1518.05 1380.12 1529.22 1375.07 1547.28 1368.53L1547.29 1368.53C1558.52 1364.5 1571.25 1367.21 1579.78 1375.8C1608.63 1404.65 1653.99 1441.34 1702.3 1480.4L1702.3 1480.4C1745.52 1515.36 1789.64 1551.05 1826.08 1584.54C1862.39 1617.89 1891.63 1649.55 1904.55 1676.49C1923.06 1714.91 1914.24 1757.71 1882.17 1785.14L1882.17 1785.14C1864.24 1800.53 1842.61 1808.46 1821.25 1808.15C1812.8 1827.19 1797.07 1843.27 1775.98 1853.9L1775.97 1853.9C1754.51 1864.69 1730.9 1868.22 1709.74 1864.55C1697.78 1886.97 1677.78 1905.39 1653.6 1914.74L1653.6 1914.74C1633.03 1922.75 1611.58 1923.07 1592.41 1916.29C1577.49 1927.82 1556.89 1933.43 1531.28 1933.43C1514.24 1933.43 1495 1928.73 1477.71 1922.52C1460.39 1916.31 1444.63 1908.43 1434.51 1901.77V1901.77C1410.59 1886.06 1291.55 1796.52 1192.59 1713.66L1192.58 1713.66C1175.88 1699.65 1151.18 1673.81 1127.57 1649.15V1649.15C1109.85 1630.68 1094.16 1614.11 1086.16 1607.35V1607.34C1073.04 1596.28 1071.44 1576.65 1082.49 1563.55C1093.34 1550.58 1112.48 1548.78 1125.67 1559.37L1126.29 1559.88L1126.29 1559.89C1135.55 1567.73 1153.34 1586.18 1172.48 1606.16C1194.25 1628.88 1218.57 1654.25 1232.52 1666.01H1232.52C1331.88 1749.22 1446.59 1834.93 1467.74 1849.16L1468.67 1849.78L1468.68 1849.79C1476.06 1854.68 1487.54 1860.09 1499.44 1864.29C1511.41 1868.52 1523.21 1871.3 1531.28 1871.3C1543.45 1871.3 1549.4 1869.72 1552.27 1868.27C1553.63 1867.58 1554.24 1866.95 1554.53 1866.57C1554.84 1866.16 1554.98 1865.82 1555.23 1865.17C1558.78 1855.45 1566.91 1848.14 1577.01 1845.67L1577.02 1845.66C1586.86 1843.28 1597.35 1845.83 1605.01 1852.54L1605.37 1852.86L1605.4 1852.88C1614.14 1860.88 1623.82 1859.53 1631.24 1856.73C1646.55 1850.78 1658.28 1835.47 1659.71 1819.83V1819.82L1659.72 1819.81C1660.83 1808.03 1668.52 1797.83 1679.61 1793.66L1679.62 1793.66L1679.63 1793.65C1690.65 1789.57 1703.12 1791.91 1711.83 1799.99C1713.98 1801.99 1718.76 1803.79 1725.62 1803.85C1732.28 1803.91 1740.26 1802.3 1748.12 1798.32L1748.13 1798.31L1748.14 1798.31C1751.25 1796.76 1756.23 1793.8 1760.18 1789.44C1764.06 1785.15 1766.76 1779.72 1766.03 1772.9V1772.9C1764.72 1760.85 1770.56 1749.11 1781 1742.9C1791.4 1736.68 1804.5 1737.13 1814.53 1744.01L1814.55 1744.02L1814.57 1744.04C1817.13 1745.82 1821.28 1746.55 1826.47 1745.53C1831.56 1744.53 1837.09 1741.91 1841.78 1737.88L1841.8 1737.87C1845.03 1735.11 1848.84 1730.88 1850.8 1725.25C1852.7 1719.77 1853 1712.56 1848.58 1703.35L1848.12 1702.43C1843.32 1692.84 1834.59 1681.31 1822.73 1668.29C1810.55 1654.92 1795.29 1640.22 1778.15 1624.78C1743.86 1593.9 1702.3 1560.28 1663.23 1528.68V1528.68C1621.06 1494.61 1580.81 1462.02 1550.5 1433.8C1544.11 1436.43 1539.1 1438.66 1534.71 1440.62C1521.24 1446.68 1511.81 1450.63 1495.46 1453.32C1474.82 1480.25 1450.55 1498.71 1423.65 1507.95C1396.25 1517.36 1366.46 1517.08 1335.54 1506.88V1506.87C1310.16 1498.51 1292.8 1480.37 1286.94 1455.78L1286.93 1455.77C1280.18 1427.23 1289.93 1394.16 1305.38 1364.19C1320.9 1334.07 1342.61 1306.23 1361.07 1287.77C1408.86 1239.96 1450.08 1206.42 1495.05 1191.96Z" fill="#64728C" stroke="#64728C" stroke-width="9"/>
<path d="M1425.03 1233.8C1442.18 1233.8 1456.09 1247.72 1456.09 1264.87C1456.09 1282.02 1442.18 1295.93 1425.03 1295.93H1185.97C1168.82 1295.93 1154.9 1282.02 1154.9 1264.87C1154.9 1247.72 1168.82 1233.8 1185.97 1233.8H1425.03Z" fill="#64728C" stroke="#64728C" stroke-width="9"/>
<path d="M1978.32 1621.92C1970.09 1609.75 1953.62 1606.41 1941.46 1614.69L1863.79 1666.86C1851.62 1675.04 1848.38 1691.57 1856.56 1703.73C1861.72 1711.33 1870.11 1715.47 1878.67 1715.47C1883.71 1715.47 1888.87 1714.04 1893.44 1710.96L1971.1 1658.79C1983.27 1650.61 1986.51 1634.09 1978.32 1621.92Z" fill="#64728C"/>
<path d="M1813.42 1748.68C1794.41 1733.69 1709.35 1646.62 1656.76 1591.8C1646.61 1581.17 1629.77 1580.8 1619.2 1591C1608.57 1601.15 1608.25 1617.99 1618.4 1628.56C1632.06 1642.8 1752.49 1768.33 1780.49 1790.43C1785.32 1794.26 1791.16 1796.12 1796.9 1796.12C1804.71 1796.12 1812.52 1792.61 1817.83 1785.97C1826.92 1774.49 1824.95 1757.76 1813.42 1748.68Z" fill="#64728C"/>
<path d="M1707.29 1801.96C1675.46 1776.51 1595.51 1691.56 1577.45 1671.91C1567.46 1661.07 1550.73 1660.43 1539.89 1670.32C1529.1 1680.25 1528.36 1697.09 1538.29 1707.88C1539.25 1708.88 1634.66 1811.9 1674.08 1843.45C1678.97 1847.33 1684.87 1849.24 1690.66 1849.24C1698.41 1849.24 1706.17 1845.79 1711.43 1839.31C1720.57 1827.83 1718.71 1811.1 1707.29 1801.96Z" fill="#64728C"/>
<path d="M1601.56 1855.46C1563.69 1823.53 1486.18 1741.03 1471.04 1724.82C1461 1714.09 1444.15 1713.51 1433.48 1723.55C1422.75 1733.59 1422.21 1750.37 1432.2 1761.11C1453.98 1784.43 1528.15 1863.06 1567.3 1896.1C1572.29 1900.29 1578.35 1902.37 1584.4 1902.37C1591.95 1902.37 1599.49 1899.13 1604.75 1892.91C1614.21 1881.65 1612.77 1864.91 1601.56 1855.46Z" fill="#64728C"/>
<path d="M899.042 1136C905.285 1130.07 913.455 1127.18 922.159 1127.61L922.204 1127.61C949.621 1129.24 1008.99 1133.55 1067.25 1142.88C1096.37 1147.54 1125.33 1153.47 1149.93 1160.98C1174.35 1168.43 1195.13 1177.63 1207.32 1189.17L1207.96 1189.79C1214.46 1196.25 1217.69 1205.29 1216.91 1214.41L1216.91 1214.42C1210.84 1283.95 1184.82 1389.09 1159.96 1478.04C1135.06 1567.1 1111.19 1640.37 1109.23 1646.36L1109.23 1646.37C1105.07 1659.17 1093.14 1667.8 1079.72 1667.8H920.345C903.197 1667.8 889.281 1653.89 889.281 1636.74V1158.61C889.281 1150.05 892.818 1141.85 899.042 1136ZM951.405 1605.68H1057.03C1077.68 1540.31 1138.45 1341.97 1152.99 1227.46C1136.25 1220.11 1106.82 1212.96 1071.08 1206.79C1034.79 1200.52 992.471 1195.35 951.405 1191.97V1605.68Z" fill="#64728C" stroke="#64728C" stroke-width="9"/>
<path d="M2142.21 1180.68C2159.36 1180.68 2173.28 1194.53 2173.28 1211.74V1689.86C2173.28 1707.01 2159.36 1720.93 2142.21 1720.93H1982.84C1968.86 1720.93 1956.62 1711.61 1952.89 1698.13L1952.89 1698.13C1943.06 1662.51 1912.48 1571.36 1880.21 1482.41C1864.08 1437.97 1847.56 1394.13 1833.02 1358.12C1818.43 1321.98 1805.99 1294.09 1798.02 1281.26L1798.01 1281.26L1798.01 1281.25C1793.36 1273.69 1792.12 1264.57 1794.6 1256.06C1797.09 1247.53 1803.13 1240.51 1811.19 1236.73L1811.22 1236.71C1816.51 1234.27 1932.86 1180.68 2142.21 1180.68ZM2111.15 1243.24C1992.5 1246.53 1909.34 1268.05 1867.86 1281.67C1909.31 1371.78 1980.38 1575.94 2006.03 1658.8H2111.15V1243.24Z" fill="#64728C" stroke="#64728C" stroke-width="9"/>
</svg>
