<svg width="3063" height="3062" viewBox="0 0 3063 3062" fill="none" xmlns="http://www.w3.org/2000/svg">
<mask id="mask0_2_67" style="mask-type:luminance" maskUnits="userSpaceOnUse" x="893" y="893" width="1276" height="1275">
<path d="M2168.94 893H893.939V2168H2168.94V893Z" fill="white"/>
</mask>
<g mask="url(#mask0_2_67)">
<path d="M2009.56 893H1053.31C1011.05 893 970.508 909.791 940.619 939.68C910.731 969.568 893.939 1010.11 893.939 1052.38V2008.62C893.939 2050.89 910.731 2091.43 940.619 2121.32C970.508 2151.21 1011.05 2168 1053.31 2168H2009.56C2051.83 2168 2092.37 2151.21 2122.26 2121.32C2152.15 2091.43 2168.94 2050.89 2168.94 2008.62V1052.38C2168.94 1010.11 2152.15 969.568 2122.26 939.68C2092.37 909.791 2051.83 893 2009.56 893ZM973.627 1200.35C973.627 1162.66 1009.33 1132.06 1053.31 1132.06H2009.56C2053.55 1132.06 2089.26 1162.66 2089.26 1200.35V2020.02C2089.26 2057.71 2053.55 2088.32 2009.56 2088.32H1053.31C1009.33 2088.32 973.627 2057.71 973.627 2020.02V1200.35Z" fill="#64728C"/>
<path d="M1451.75 1689.88C1472.89 1689.88 1493.16 1681.48 1508.1 1666.54C1523.04 1651.59 1531.44 1631.32 1531.44 1610.19C1531.44 1589.05 1523.04 1568.78 1508.1 1553.84C1493.16 1538.9 1472.89 1530.5 1451.75 1530.5H973.627V1689.88H1451.75ZM1611.13 1450.81H2089.26V1291.44H1611.13C1589.99 1291.44 1569.72 1299.83 1554.78 1314.78C1539.84 1329.72 1531.44 1349.99 1531.44 1371.13C1531.44 1392.26 1539.84 1412.53 1554.78 1427.47C1569.72 1442.42 1589.99 1450.81 1611.13 1450.81Z" fill="#64728C"/>
</g>
</svg>
