<svg width="3062" height="3062" viewBox="0 0 3062 3062" fill="none" xmlns="http://www.w3.org/2000/svg">
<path d="M2050.83 972.688H1490.69C1425.97 972.688 1373.32 1025.34 1373.32 1090.06V1449.38L1269.31 1397.66C1265.8 1395.91 1262.23 1394.26 1258.63 1392.69C1289.17 1360.81 1307.99 1317.62 1307.99 1270.11C1307.99 1172.3 1228.42 1092.71 1130.61 1092.71C1032.79 1092.71 953.218 1172.3 953.218 1270.11C953.218 1323.26 976.749 1371 1013.91 1403.54C945.475 1442.04 893.199 1517.14 893.199 1610.19V1730.21C893.199 1781.89 926.749 1825.87 973.217 1841.5V2050.3C973.217 2070.92 989.939 2087.65 1010.57 2087.65H1250.63C1271.26 2087.65 1287.98 2070.92 1287.98 2050.3V1630.61L1407.57 1690.39C1453.34 1713.27 1515.42 1699.63 1543.49 1647.54H1677.42L1535.6 2037.53C1528.55 2056.91 1538.56 2078.35 1557.95 2085.39C1580.11 2093.46 1599.81 2079.56 1605.81 2063.06L1756.91 1647.54H1783.1L1935.74 2063.18C1941.54 2078.94 1961.1 2093.65 1983.69 2085.36C2003.05 2078.24 2012.99 2056.79 2005.87 2037.42L1862.68 1647.54H2050.83C2114.29 1647.54 2168.2 1596.35 2168.2 1530.17V1090.06C2168.2 1023.87 2114.29 972.688 2050.83 972.688ZM1027.92 1270.11C1027.92 1213.48 1073.98 1167.42 1130.6 1167.42C1187.22 1167.42 1233.28 1213.48 1233.28 1270.11C1233.28 1326.72 1187.22 1372.78 1130.6 1372.78C1073.98 1372.78 1027.92 1326.72 1027.92 1270.11ZM1479.65 1607.6C1479.55 1607.87 1479.45 1608.15 1479.37 1608.44C1476.82 1615.55 1471.06 1621.54 1464.01 1624.44C1456.55 1627.47 1448.15 1627.15 1440.98 1623.57C1369.95 1588.04 1267.32 1536.76 1267.32 1536.76C1242.53 1524.37 1213.27 1542.43 1213.27 1570.18V2012.94H1047.92V1810.23C1047.92 1789.61 1031.19 1772.88 1010.57 1772.88C987.04 1772.88 967.906 1753.75 967.906 1730.21V1610.19C967.906 1518.91 1042.22 1447.5 1130.6 1447.5H1163.6C1188.64 1447.5 1213.65 1453.37 1236 1464.53C1236 1464.53 1421.27 1556.67 1468.46 1580.17C1478.57 1585.19 1483.38 1596.98 1479.65 1607.6ZM2093.49 1530.17C2093.49 1541.58 2089.07 1552.29 2081.01 1560.34C2073.08 1568.28 2062.08 1572.83 2050.83 1572.83H1551.61C1551.55 1572.63 1551.5 1572.43 1551.43 1572.23L1644.13 1386.83C1653.35 1368.38 1645.88 1345.95 1627.43 1336.72C1608.99 1327.5 1586.54 1334.97 1577.31 1353.42L1498.25 1511.54C1483.51 1504.2 1466.38 1495.67 1448.03 1486.54V1090.06C1448.03 1066.54 1467.16 1047.39 1490.69 1047.39H2050.83C2062.08 1047.39 2073.08 1051.95 2081.02 1059.9C2089.07 1067.94 2093.49 1078.65 2093.49 1090.06V1530.17Z" fill="#64728C"/>
<path d="M1970.81 1132.72H1570.71C1550.07 1132.72 1533.35 1149.45 1533.35 1170.08C1533.35 1190.71 1550.07 1207.43 1570.71 1207.43H1970.81C1991.43 1207.43 2008.16 1190.71 2008.16 1170.08C2008.16 1149.45 1991.44 1132.72 1970.81 1132.72Z" fill="#64728C"/>
<path d="M1970.81 1272.76H1770.75C1750.13 1272.76 1733.4 1289.48 1733.4 1310.11C1733.4 1330.75 1750.13 1347.47 1770.75 1347.47H1970.81C1991.43 1347.47 2008.16 1330.75 2008.16 1310.11C2008.16 1289.48 1991.44 1272.76 1970.81 1272.76Z" fill="#64728C"/>
<path d="M1970.81 1412.8H1770.75C1750.13 1412.8 1733.4 1429.52 1733.4 1450.15C1733.4 1470.77 1750.13 1487.5 1770.75 1487.5H1970.81C1991.43 1487.5 2008.16 1470.77 2008.16 1450.15C2008.16 1429.52 1991.44 1412.8 1970.81 1412.8Z" fill="#64728C"/>
</svg>
