<svg width="3062" height="3062" viewBox="0 0 3062 3062" fill="none" xmlns="http://www.w3.org/2000/svg">
<path d="M2143.17 919.378C2112.88 889.089 2060.53 886.111 1991.74 910.762C1944.44 927.72 1894.83 956.139 1871.09 979.876L1680.46 1170.5L1052.97 1071.94L893.305 1231.61L1415.01 1435.95L1247.5 1603.46L1009.76 1617.39L895.755 1731.39L1153.77 1855.88L1081.48 1928.16L1134.38 1981.06L1206.56 1908.87L1331.18 2166.76L1445.15 2052.79L1459.08 1815.04L1629.4 1644.72L1833.7 2166.32L1993.37 2006.66L1894.83 1379.28L2082.67 1191.44C2106.4 1167.71 2134.82 1118.09 2151.78 1070.79C2176.43 1002.02 2173.45 949.662 2143.17 919.378ZM1027.05 1203.66L1078.96 1151.75L1615.02 1235.94L1472.74 1378.23L1027.05 1203.66ZM1913.57 1980.67L1861.66 2032.59L1687.12 1586.99L1829.39 1444.73L1913.57 1980.67ZM2081.37 1045.56C2067.07 1085.43 2043.45 1124.88 2029.77 1138.56L1386.07 1782.26L1372.15 2020.01L1352.73 2039.43L1262.58 1852.86L1327.61 1787.84L1274.71 1734.94L1209.79 1799.86L1023.14 1709.8L1042.53 1690.4L1280.28 1676.48L1923.98 1032.77C1937.67 1019.09 1977.11 995.475 2016.99 981.178C2062.25 964.952 2086.27 968.264 2090.27 972.271C2094.28 976.275 2097.59 1000.29 2081.37 1045.56Z" fill="#64728C"/>
</svg>
