<?xml version="1.0" encoding="utf-8"?>
<!-- Generator: Adobe Illustrator 25.0.0, SVG Export Plug-In . SVG Version: 6.00 Build 0)  -->
<svg version="1.1" id="Capa_1" xmlns="http://www.w3.org/2000/svg" xmlns:xlink="http://www.w3.org/1999/xlink" x="0px" y="0px"
	 viewBox="0 0 512 512" style="enable-background:new 0 0 512 512;" xml:space="preserve">
<style type="text/css">
	.st0{fill:#64728C;}
</style>
<g id="XMLID_1625_">
	<g id="XMLID_989_">
		<path id="XMLID_996_" class="st0" d="M424.3,0H70C42.4,0,20,22.4,20,50v161c0,5.5,4.5,10,10,10s10-4.5,10-10V50
			c0-16.5,13.5-30,30-30h222v103.5c0,4,2.4,7.7,6.2,9.2s8,0.7,10.9-2.2l24.9-24.9l24.9,24.9c1.9,1.9,4.5,2.9,7.1,2.9
			c1.3,0,2.6-0.2,3.8-0.8c3.7-1.5,6.2-5.2,6.2-9.2V20h6c16.5,0,30,13.5,30,30v412c0,16.5-13.5,30-30,30H70c-16.5,0-30-13.5-30-30
			V301c0-5.5-4.5-10-10-10s-10,4.5-10,10v161c0,27.6,22.4,50,50,50h354.3c37.3,0,67.7-30.4,67.7-67.7V67.7C492,30.4,461.6,0,424.3,0
			L424.3,0z M356,99.4l-14.9-14.9c-2-2-4.5-2.9-7.1-2.9s-5.1,1-7.1,2.9L312,99.4V20h44V99.4z M472,444.3c0,26.3-21.4,47.7-47.7,47.7
			H422c6.3-8.4,10-18.8,10-30V50c0-11.2-3.7-21.6-10-30h2.3c26.3,0,47.7,21.4,47.7,47.7V444.3z"/>
	</g>
</g>
<g>
	<g>
		<path class="st0" d="M282.9,196.6c-16.4-15.9-38.3-24.6-61.5-24.6s-45.1,8.7-61.5,24.6c-16.4,15.9-25.5,37-25.5,59.4
			s9,43.5,25.5,59.4c16.4,15.9,38.3,24.6,61.5,24.6c14.4,0,28.7-3.5,41.3-10.1c2.5-1.3,3.5-4.4,2.1-6.8c-1.4-2.5-4.5-3.4-7.1-2
			c-11.1,5.8-23.6,8.8-36.3,8.8c-42.2,0-76.5-33.1-76.5-73.9s34.3-73.9,76.5-73.9c42.2,0,76.5,33.1,76.5,73.9
			c0,9.6-2.4,21.1-4.6,25.4c-1.9,3.8-7.4,9.1-13.5,9.1c-7.9,0-14.4-6.2-14.4-13.9v-53.3c0-2.8-2.3-5.1-5.2-5.1s-5.2,2.3-5.2,5.1v5.2
			c-8.1-9.2-20.1-15-33.6-15c-24.3,0-44,19.1-44,42.5c0,23.5,19.8,42.5,44,42.5c13.9,0,26.3-6.2,34.4-15.9c2.7,10.3,12.5,18,24.1,18
			c10.1,0,19.2-7.4,22.9-14.8c3.2-6.2,5.7-19.4,5.7-29.9C308.4,233.6,299.4,212.5,282.9,196.6z M221.4,288.4
			c-18.5,0-33.6-14.5-33.6-32.4s15.1-32.4,33.6-32.4S255,238.1,255,256S239.9,288.4,221.4,288.4z"/>
	</g>
</g>
</svg>
