<?xml version="1.0" encoding="utf-8"?>
<!-- Generator: Adobe Illustrator 25.0.0, SVG Export Plug-In . SVG Version: 6.00 Build 0)  -->
<svg version="1.1" id="Layer_1" xmlns="http://www.w3.org/2000/svg" xmlns:xlink="http://www.w3.org/1999/xlink" x="0px" y="0px"
	 viewBox="0 0 480 480" style="enable-background:new 0 0 480 480;" xml:space="preserve">
<style type="text/css">
	.st0{fill:#64728C;}
</style>
<path class="st0" d="M56,408V40c0-13.3,10.7-24,24-24h16v8c0,13.3,10.7,24,24,24h112c13.3,0,24-10.7,24-24v-8h16
	c13.3,0,24,10.7,24,24v184h16V40c0-22.1-17.9-40-40-40H80C57.9,0,40,17.9,40,40v368c0,22.1,17.9,40,40,40h128v-16H80
	C66.7,432,56,421.3,56,408z M240,24c0,4.4-3.6,8-8,8H120c-4.4,0-8-3.6-8-8v-8h128V24z"/>
<path class="st0" d="M168,176h16v16h-16V176z"/>
<path class="st0" d="M200,176h16v16h-16V176z"/>
<path class="st0" d="M136,176h16v16h-16V176z"/>
<g>
	<path class="st0" d="M329.7,271.7c-15.5-14.5-34.9-21.8-58-21.8c-24.3,0-45,8.3-62,24.8c-17.1,16.6-25.6,37.1-25.6,61.8
		c0,23.6,8.1,43.9,24.4,60.9c16.3,17,38.2,25.5,65.8,25.5c16.6,0,32.9-3.5,48.9-10.4c5.2-2.3,7.8-8.3,5.6-13.7l0,0
		c-2.2-5.5-8.4-8-13.8-5.7c-13.9,6.1-27.5,9.1-40.8,9.1c-21.1,0-37.5-6.5-49.1-19.6c-11.6-13.1-17.4-28.4-17.4-46
		c0-19.1,6.2-35.1,18.6-47.9c12.4-12.8,27.7-19.2,45.7-19.2c16.7,0,30.7,5.3,42.2,15.8c11.5,10.5,17.2,23.8,17.2,39.7
		c0,10.9-2.6,20-7.9,27.2c-5.3,7.3-10.7,10.9-16.4,10.9c-3.1,0-4.6-1.7-4.6-5c0-2.7,0.2-5.9,0.6-9.6l6.5-53.7h-22.3l-1.4,5.3
		c-5.7-4.7-11.9-7.1-18.6-7.1c-10.7,0-19.9,4.3-27.5,13c-7.7,8.6-11.4,19.8-11.4,33.4c0,13.3,3.4,24.1,10.2,32.2
		c6.8,8.2,14.9,12.2,24.5,12.2c8.5,0,15.8-3.6,21.8-10.9c4.6,7,11.3,10.4,20.1,10.4c13,0,24.3-5.8,33.8-17.3
		c9.5-11.5,14.3-25.4,14.3-41.7C353,303.8,345.2,286.2,329.7,271.7z M278.4,352.9c-3.9,5.4-8.6,8.1-14.1,8.1c-3.7,0-6.7-2-9-5.9
		c-2.3-4-3.4-8.9-3.4-14.8c0-7.3,1.6-13.1,4.8-17.6c3.2-4.4,7.2-6.7,11.9-6.7c4.1,0,7.8,1.7,11,5s4.8,7.8,4.8,13.4
		C284.3,341.3,282.3,347.5,278.4,352.9z"/>
</g>
</svg>
