<?xml version="1.0" encoding="utf-8"?>
<!-- Generator: Adobe Illustrator 25.0.0, SVG Export Plug-In . SVG Version: 6.00 Build 0)  -->
<svg version="1.1" id="Icons" xmlns="http://www.w3.org/2000/svg" xmlns:xlink="http://www.w3.org/1999/xlink" x="0px" y="0px"
	 viewBox="0 0 512 512" style="enable-background:new 0 0 512 512;" xml:space="preserve">
<style type="text/css">
	.st0{fill:#64728C;}
</style>
<path class="st0" d="M379.8,307.8c-3.8,0-6.9-3.1-6.9-6.9c0-1,0.2-2,0.7-3c2.8-5.8,5-11.8,6.7-17.9c1-3.7,4.8-5.9,8.5-4.9
	s5.9,4.8,4.9,8.5l0,0c-1.9,7-4.4,13.7-7.6,20.3C384.9,306.3,382.4,307.8,379.8,307.8L379.8,307.8z"/>
<path class="st0" d="M262,383.2c-75.5,0.1-136.9-61-137-136.6c-0.1-75.5,61-136.9,136.6-137c36.6-0.1,71.6,14.5,97.3,40.5
	c2.7,2.7,2.8,7,0.1,9.8c-2.7,2.7-7,2.8-9.8,0.1c-0.1-0.1-0.1-0.1-0.2-0.2c-47.8-48.2-125.6-48.4-173.8-0.6s-48.4,125.6-0.6,173.8
	c45.9,46.2,119.8,48.6,168.5,5.5c2.8-2.6,7.2-2.4,9.8,0.4c2.6,2.8,2.4,7.2-0.4,9.8c-0.1,0.1-0.1,0.1-0.2,0.2
	C327.5,371,295.3,383.2,262,383.2L262,383.2z"/>
<path class="st0" d="M391.1,240.1c-3.6,0-6.5-2.7-6.9-6.2c-0.7-7-2-13.9-3.9-20.7c-1.1-3.6,0.9-7.5,4.5-8.7c3.6-1.1,7.5,0.9,8.7,4.5
	c0,0.1,0.1,0.2,0.1,0.4c2.1,7.5,3.6,15.3,4.4,23.1c0.4,3.8-2.4,7.2-6.2,7.6l0,0C391.6,240.1,391.3,240.2,391.1,240.1L391.1,240.1z"
	/>
<path class="st0" d="M283.6,212.3c0-11.4-10.1-20.7-22.5-20.7c-12.4,0-22.5,9.3-22.5,20.7s10.1,20.7,22.5,20.7
	C273.6,232.9,283.6,223.6,283.6,212.3z M248.1,212.3c0-6.6,5.9-12.1,13.1-12.1c7.2,0,13.1,5.4,13.1,12.1s-5.9,12.1-13.1,12.1
	S248.1,218.9,248.1,212.3z"/>
<path class="st0" d="M332.9,208.2c0-10.1-9-18.4-20-18.4s-20,8.2-20,18.4c0,10.1,9,18.4,20,18.4S332.9,218.4,332.9,208.2z
	 M302.4,208.2c0-5.4,4.8-9.8,10.6-9.8s10.6,4.4,10.6,9.8c0,5.4-4.8,9.8-10.6,9.8S302.4,213.6,302.4,208.2z"/>
<path class="st0" d="M208.8,226.6c11,0,20-8.2,20-18.4c0-10.1-9-18.4-20-18.4c-11,0-20,8.2-20,18.4
	C188.9,218.4,197.8,226.6,208.8,226.6z M208.8,198.5c5.8,0,10.6,4.4,10.6,9.8c0,5.4-4.8,9.8-10.6,9.8s-10.6-4.4-10.6-9.8
	C198.2,202.9,203,198.5,208.8,198.5z"/>
<path class="st0" d="M185.3,257.3c0.8-2.3-0.6-4.7-3.1-5.4c-2.5-0.7-5.1,0.6-5.9,2.8c-2.1,5.3-1.5,13.1-1.6,18.6
	c0,7.8,7,14.1,15.7,14.1h31.7c0.2,8.6,7.8,15.5,17.2,15.5h44.2c9.4,0,17-6.9,17.2-15.5h31.1c8.7,0,15.7-6.3,15.7-14.1v-9.2
	c0-17.6-15.5-31.8-34.4-31.8h-0.3c-11.1,0-21.5,5.1-27.9,13.4c-6.5-4.5-14.6-7.1-23.3-7.1h-0.3c-8.9,0-17.1,2.8-23.7,7.4
	c-6.3-8.5-16.8-13.7-28.1-13.7h-0.3c-6,0-11.9,1.5-17.1,4.3c-2.2,1.2-3,3.8-1.7,5.9c1.3,2.1,4.2,2.7,6.4,1.6c3.8-2,8.1-3.1,12.4-3.1
	h0.3c8.8,0,16.8,4.3,21.2,11.2c-5.4,6.2-8.6,14-8.6,22.5v4.2h-31.7c-3.5,0-6.3-2.4-6.3-5.5C184.3,268.9,183.7,261.5,185.3,257.3
	L185.3,257.3z M312.8,240.9h0.3c13.8,0,25.1,10.4,25.1,23.2v9.2c0,3-2.8,5.5-6.3,5.5h-31.1v-4.2c0-8.7-3.4-16.7-9-22.9
	C296.4,245.1,304.3,240.9,312.8,240.9z M261.7,247.3c16.4,0,29.8,12.3,29.8,27.4v12.4c0,4-3.5,7.2-7.9,7.2h-44.2
	c-4.3,0-7.9-3.2-7.9-7.2v-12.4c0-15.1,13.4-27.4,29.8-27.4H261.7z"/>
</svg>
