<?xml version="1.0" encoding="utf-8"?>
<!-- Generator: Adobe Illustrator 25.0.0, SVG Export Plug-In . SVG Version: 6.00 Build 0)  -->
<svg version="1.1" id="group" xmlns="http://www.w3.org/2000/svg" xmlns:xlink="http://www.w3.org/1999/xlink" x="0px" y="0px"
	 viewBox="0 0 512 512" style="enable-background:new 0 0 512 512;" xml:space="preserve">
<style type="text/css">
	.st0{fill:#64728C;}
</style>
<path class="st0" d="M181.3,448h-128C23.9,448,0,424.1,0,394.7V117.3C0,87.9,23.9,64,53.3,64h405.3c29.4,0,53.3,23.9,53.3,53.3V224
	c0,5.9-4.8,10.7-10.7,10.7s-10.7-4.8-10.7-10.7V117.3c0-17.6-14.4-32-32-32H53.3c-17.6,0-32,14.4-32,32v277.3c0,17.6,14.4,32,32,32
	h128c5.9,0,10.7,4.8,10.7,10.7S187.2,448,181.3,448z"/>
<path class="st0" d="M160,341.3H10.7c-5.9,0-10.7-4.8-10.7-10.7V181.3c0-5.9,4.8-10.7,10.7-10.7H160c29.4,0,53.3,23.9,53.3,53.3
	v14.3c0,5.9-4.8,10.7-10.7,10.7s-10.7-4.8-10.7-10.7V224c0-17.6-14.4-32-32-32H21.3v128H160c5.8-1.4,11.5,2.2,12.9,7.9
	s-2.1,11.5-7.8,12.9C163,341.3,161.2,341.3,160,341.3L160,341.3z"/>
<path class="st0" d="M106.7,298.7C83.1,298.7,64,279.5,64,256s19.1-42.7,42.7-42.7s42.7,19.1,42.7,42.7S130.2,298.7,106.7,298.7z
	 M106.7,234.7c-11.8,0-21.3,9.6-21.3,21.3c0,11.8,9.6,21.3,21.3,21.3S128,267.8,128,256C128,244.2,118.4,234.7,106.7,234.7z"/>
<path class="st0" d="M373.3,512c-76.5,0-138.7-62.2-138.7-138.7s62.2-138.7,138.7-138.7S512,296.9,512,373.3S449.8,512,373.3,512z
	 M373.3,256C308.6,256,256,308.6,256,373.3s52.6,117.3,117.3,117.3S490.7,438,490.7,373.3S438,256,373.3,256z"/>
<path class="st0" d="M374.1,417.4c-0.9-0.2-1.8-0.2-2.7-0.1c-9.1-1.1-16-8.8-16.1-18c0-4.4-3.6-8-8-8s-8,3.6-8,8
	c0,15.4,10.3,28.8,25.1,32.9v8c0,4.4,3.6,8,8,8s8-3.6,8-8v-7.5c17.1-3.6,28.7-19.5,26.9-36.9c-1.8-17.4-16.4-30.6-33.9-30.6
	c-10,0-18.1-8.1-18.1-18.1s8.1-18.1,18.1-18.1s18.1,8.1,18.1,18.1c0,4.4,3.6,8,8,8s8-3.6,8-8c0-16.1-11.3-30.1-27.1-33.4v-7.3
	c0-4.4-3.6-8-8-8s-8,3.6-8,8v7.8c-16.5,4.5-27.1,20.5-24.8,37.4c2.3,16.9,16.7,29.6,33.8,29.6c9.9,0,17.9,7.9,18.1,17.8
	C391.8,408.8,384,417.1,374.1,417.4z"/>
</svg>
