<?xml version="1.0" encoding="utf-8"?>
<!-- Generator: Adobe Illustrator 25.0.0, SVG Export Plug-In . SVG Version: 6.00 Build 0)  -->
<svg version="1.1" id="Capa_1" xmlns="http://www.w3.org/2000/svg" xmlns:xlink="http://www.w3.org/1999/xlink" x="0px" y="0px"
	 viewBox="0 0 512 512" style="enable-background:new 0 0 512 512;" xml:space="preserve">
<style type="text/css">
	.st0{fill:#64728C;}
</style>
<path class="st0" d="M461,170.8l-38.7-38.7c-0.8-0.8-1.3-1.9-1.3-3.1V11.9h-0.2c-1.1-6.7-6.9-11.9-14-11.9H105.7
	c-7,0-12.9,5.2-14,11.9h-0.2v116.2c0,1.2-0.5,2.3-1.3,3.1l-40.4,40.4c-15,12.5-19.1,29.8-19,44.8l0,0V243H31v250.9v3.9
	c0,7.8,6.3,14.2,14.2,14.2h420.7c7.8,0,14.2-6.3,14.2-14.2v-3.9V224.8C481.5,208.2,479.3,185.8,461,170.8z M421,166.9
	c0-3.9,4.7-5.9,7.5-3.1l21.7,21.7c1.8,1.8,1.8,4.5,0,6.3l-21.7,21.7c-2.8,2.8-7.5,0.8-7.5-3.1V166.9z M109.5,240.3V22
	c0-2.4,2-4.4,4.4-4.4h284.7c2.4,0,4.4,2,4.4,4.4v215.2c0,1.2-0.5,2.3-1.3,3.1l-91.4,91.4c-0.8,0.8-1.9,1.3-3.1,1.3H203.7
	c-1.2,0-2.3-0.5-3.1-1.3l-91.4-91.4L109.5,240.3L109.5,240.3z M61,185.9l23-23c2.8-2.8,7.5-0.8,7.5,3.1v46c0,3.9-4.7,5.9-7.5,3.1
	l-23-23C59.3,190.4,59.3,187.6,61,185.9z M49,464.9V216.1c0-3.9,4.7-5.8,7.5-3.1l124.4,124.4c1.7,1.7,1.7,4.5,0,6.2L56.5,468
	C53.7,470.8,49,468.8,49,464.9z M444.4,493.9H66.6c-3.9,0-5.9-4.7-3.1-7.5l134.1-134.1c0.9-0.8,2-1.3,3.2-1.3h109.5
	c1.2,0,2.3,0.5,3.1,1.3l134.1,134.1C450.3,489.2,448.3,493.9,444.4,493.9z M462,464.9c0,3.9-4.7,5.9-7.5,3.1L330.1,343.6
	c-1.7-1.7-1.7-4.5,0-6.2L454.5,213c2.8-2.8,7.5-0.8,7.5,3.1V464.9z"/>
<g>
	<g>
		<path class="st0" d="M320.5,94.6C304.1,78.7,282.2,70,259,70s-45.1,8.7-61.5,24.6C181,110.5,172,131.6,172,154s9,43.5,25.5,59.4
			c16.4,15.9,38.3,24.6,61.5,24.6c14.4,0,28.7-3.5,41.3-10.1c2.5-1.3,3.5-4.4,2.1-6.8c-1.4-2.5-4.5-3.4-7.1-2
			c-11.1,5.8-23.6,8.8-36.3,8.8c-42.2,0-76.5-33.1-76.5-73.9s34.3-73.9,76.5-73.9c42.2,0,76.5,33.1,76.5,73.9
			c0,9.6-2.4,21.1-4.6,25.4c-1.9,3.8-7.4,9.1-13.5,9.1c-7.9,0-14.4-6.2-14.4-13.9v-53.3c0-2.8-2.3-5.1-5.2-5.1s-5.2,2.3-5.2,5.1v5.2
			c-8.1-9.2-20.1-15-33.6-15c-24.3,0-44,19.1-44,42.5c0,23.5,19.8,42.5,44,42.5c13.9,0,26.3-6.2,34.4-15.9c2.7,10.3,12.5,18,24.1,18
			c10.1,0,19.2-7.4,22.9-14.8c3.2-6.2,5.7-19.4,5.7-29.9C346,131.6,337,110.5,320.5,94.6z M259,186.4c-18.5,0-33.6-14.5-33.6-32.4
			s15.1-32.4,33.6-32.4s33.6,14.5,33.6,32.4S277.5,186.4,259,186.4z"/>
	</g>
</g>
</svg>
