<?xml version="1.0" encoding="utf-8"?>
<!-- Generator: Adobe Illustrator 25.0.0, SVG Export Plug-In . SVG Version: 6.00 Build 0)  -->
<svg version="1.1" id="Icons" xmlns="http://www.w3.org/2000/svg" xmlns:xlink="http://www.w3.org/1999/xlink" x="0px" y="0px"
	 viewBox="0 0 512 512" style="enable-background:new 0 0 512 512;" xml:space="preserve">
<style type="text/css">
	.st0{fill:#64728C;}
</style>
<path class="st0" d="M379.8,307.8c-3.8,0-6.9-3.1-6.9-6.9c0-1,0.2-2,0.7-3c2.8-5.8,5-11.8,6.7-17.9c1-3.7,4.8-5.9,8.5-4.9
	s5.9,4.8,4.9,8.5l0,0c-1.9,7-4.4,13.7-7.6,20.3C384.9,306.3,382.4,307.8,379.8,307.8L379.8,307.8z"/>
<path class="st0" d="M262,383.2c-75.5,0.1-136.9-61-137-136.6c-0.1-75.5,61-136.9,136.6-137c36.6-0.1,71.6,14.5,97.3,40.5
	c2.7,2.7,2.8,7,0.1,9.8c-2.7,2.7-7,2.8-9.8,0.1c-0.1-0.1-0.1-0.1-0.2-0.2c-47.8-48.2-125.6-48.4-173.8-0.6s-48.4,125.6-0.6,173.8
	c45.9,46.2,119.8,48.6,168.5,5.5c2.8-2.6,7.2-2.4,9.8,0.4c2.6,2.8,2.4,7.2-0.4,9.8c-0.1,0.1-0.1,0.1-0.2,0.2
	C327.5,371,295.3,383.2,262,383.2L262,383.2z"/>
<path class="st0" d="M391.1,240.1c-3.6,0-6.5-2.7-6.9-6.2c-0.7-7-2-13.9-3.9-20.7c-1.1-3.6,0.9-7.5,4.5-8.7c3.6-1.1,7.5,0.9,8.7,4.5
	c0,0.1,0.1,0.2,0.1,0.4c2.1,7.5,3.6,15.3,4.4,23.1c0.4,3.8-2.4,7.2-6.2,7.6l0,0C391.6,240.1,391.3,240.2,391.1,240.1L391.1,240.1z"
	/>
<path class="st0" d="M328.3,193.3c0-6.7-5.5-12.1-12.3-12.1h0c-6.5,0-12.6,2.5-17.1,7l-21.9,21.6l-54.6-12.6
	c-10.4-2.4-21.4,1.9-27.3,10.6c-0.4,0.6-0.7,1.4-0.7,2.1c0,1.4,0.8,2.7,2.1,3.4l50,26.5l-24.6,24.2h-15.2c-6.8,0-12.3,5.4-12.3,12.1
	c0,1.4,0.7,2.6,1.9,3.3l20.2,11.9l12.1,19.9c0.7,1.2,2,1.9,3.4,1.9c3.3,0,6.4-1.3,8.7-3.6c2.3-2.3,3.6-5.3,3.6-8.6v-14.9l24.6-24.2
	l26.9,49.2c0.7,1.3,2,2,3.5,2c0.8,0,1.5-0.2,2.2-0.6c8.9-5.8,13.2-16.6,10.8-26.9l-12.8-53.7l21.9-21.6
	C325.7,205.7,328.3,199.7,328.3,193.3z M204.3,208.7c4.3-3.8,10.3-5.4,16.1-4.1l49.9,11.5l-18.2,17.9L204.3,208.7z M304.4,287.2
	c1.4,5.7-0.3,11.6-4.2,15.9l-25.7-47l18.2-17.9L304.4,287.2z M315.6,204.7l-78.2,76.9c-0.7,0.7-1.2,1.7-1.2,2.7v16.5
	c0,1.2-0.5,2.3-1.3,3.1c-0.4,0.4-0.8,0.6-1.2,0.9l-11.2-18.4c-0.3-0.5-0.8-1-1.3-1.3l-18.7-11c0.7-1.5,2.3-2.5,4-2.5h16.8
	c1,0,2-0.4,2.8-1.1l78.2-76.9c3.1-3,7.2-4.7,11.6-4.7h0c2.5,0,4.5,2,4.5,4.4C320.4,197.6,318.7,201.7,315.6,204.7z"/>
</svg>
