<?xml version="1.0" encoding="utf-8"?>
<!-- Generator: Adobe Illustrator 25.0.0, SVG Export Plug-In . SVG Version: 6.00 Build 0)  -->
<svg version="1.1" id="Capa_1" xmlns="http://www.w3.org/2000/svg" xmlns:xlink="http://www.w3.org/1999/xlink" x="0px" y="0px"
	 viewBox="0 0 512 512" style="enable-background:new 0 0 512 512;" xml:space="preserve">
<style type="text/css">
	.st0{fill:#64728C;}
</style>
<g>
	<path class="st0" d="M422.2,261.3c-4.1,0-7.5,3.4-7.5,7.5v185.7c0,23.5-19.1,42.5-42.5,42.5H139.9c-23.5,0-42.5-19.1-42.5-42.5
		V161.7c0-4.1-3.4-7.5-7.5-7.5c-4.1,0-7.5,3.4-7.5,7.5v292.8c0,31.7,25.8,57.6,57.6,57.6h232.2c31.7,0,57.6-25.8,57.6-57.6V268.8
		C429.7,264.6,426.3,261.3,422.2,261.3z"/>
	<path class="st0" d="M372.1,48.5H297v-21C297,12.3,284.7,0,269.5,0h-27C227.3,0,215,12.3,215,27.5v21h-75.1
		c-31.7,0-57.6,25.8-57.6,57.6v20.5c0,4.1,3.4,7.5,7.5,7.5c4.1,0,7.5-3.4,7.5-7.5v-20.5c0-23.5,19.1-42.5,42.5-42.5H215v18h-14.5
		c-15.5,0-28,12.6-28,28s12.6,28,28,28h111.1c15.5,0,28-12.6,28-28s-12.6-28-28-28H297v-18h75.1c23.5,0,42.5,19.1,42.5,42.5v127.6
		c0,4.1,3.4,7.5,7.5,7.5c4.1,0,7.5-3.4,7.5-7.5V106.1C429.7,74.4,403.9,48.5,372.1,48.5z M230,27.5c0-6.9,5.6-12.5,12.5-12.5h27
		c6.9,0,12.5,5.6,12.5,12.5v95.1H230V27.5z M187.4,109.6c0-7.2,5.8-13,13-13H215v26h-14.5C193.3,122.6,187.4,116.8,187.4,109.6z
		 M311.6,96.6c7.2,0,13,5.8,13,13c0,7.2-5.8,13-13,13H297v-26H311.6z"/>
	<path class="st0" d="M289.7,225.9c0-18.6-15.1-33.7-33.7-33.7s-33.7,15.1-33.7,33.7s15.1,33.7,33.7,33.7S289.7,244.5,289.7,225.9
		L289.7,225.9z M237.3,225.9c0-10.3,8.4-18.7,18.7-18.7s18.7,8.4,18.7,18.7s-8.4,18.7-18.7,18.7
		C245.7,244.6,237.3,236.2,237.3,225.9L237.3,225.9z"/>
	<path class="st0" d="M212.8,326.6c0.5-4.1-2.4-7.9-6.5-8.4c-4.1-0.5-7.9,2.4-8.4,6.5c-0.7,4.8-0.4,14.7-0.5,19.7
		c0,15.2,12.3,27.5,27.5,27.5H287c15.2,0,27.5-12.3,27.5-27.5v-12.1c0-32.3-26.3-58.6-58.6-58.6c-14.3,0-28,5.2-38.7,14.6
		c-3.1,2.7-3.4,7.5-0.7,10.6c2.7,3.1,7.5,3.4,10.6,0.7c7.9-7,18.2-10.9,28.8-10.9c24,0,43.5,19.5,43.5,43.5v12.2
		c0,6.9-5.6,12.5-12.5,12.5H225c-6.9,0-12.5-5.6-12.5-12.5C212.5,340.3,212.2,330.4,212.8,326.6z"/>
</g>
</svg>
