<?xml version="1.0" encoding="utf-8"?>
<!-- Generator: Adobe Illustrator 25.0.0, SVG Export Plug-In . SVG Version: 6.00 Build 0)  -->
<svg version="1.1" id="Layer_1" xmlns="http://www.w3.org/2000/svg" xmlns:xlink="http://www.w3.org/1999/xlink" x="0px" y="0px"
	 viewBox="0 0 560 560" style="enable-background:new 0 0 560 560;" xml:space="preserve">
<style type="text/css">
	.st0{fill:#64728C;}
</style>
<path class="st0" d="M446.7,17H151.3c-34.5,0-62.5,28-62.5,62.5v27H59.4c-6.9,0-12.5,5.6-12.5,12.5s5.6,12.5,12.5,12.5h29.2v82H59.4
	c-6.9,0-12.5,5.6-12.5,12.5c0,6.9,5.6,12.5,12.5,12.5h29.2v82H59.4c-6.9,0-12.5,5.6-12.5,12.5c0,6.9,5.6,12.5,12.5,12.5h29.2v82
	H59.4c-6.9,0-12.5,5.6-12.5,12.5s5.6,12.5,12.5,12.5h29.2v27c0,34.5,28,62.5,62.5,62.5h295.4c34.5,0,62.5-28,62.5-62.5v-400
	C509.1,45,481.2,17,446.7,17z M484.2,479.5c-0.1,20.7-16.8,37.4-37.5,37.5H151.3c-20.7-0.1-37.4-16.8-37.5-37.5v-27H143
	c6.9,0,12.5-5.6,12.5-12.5s-5.6-12.5-12.5-12.5h-29.2v-82H143c6.9,0,12.5-5.6,12.5-12.5c0-6.9-5.6-12.5-12.5-12.5h-29.2v-82H143
	c6.9,0,12.5-5.6,12.5-12.5c0-6.9-5.6-12.5-12.5-12.5h-29.2v-82H143c6.9,0,12.5-5.6,12.5-12.5s-5.6-12.5-12.5-12.5h-29.2v-27
	c0.1-20.7,16.8-37.4,37.5-37.5h295.4c20.7,0.1,37.4,16.8,37.5,37.5V479.5z"/>
<path class="st0" d="M343.5,211.3c0-22.6-19.9-40.9-44.4-40.9s-44.4,18.3-44.4,40.9s19.9,40.9,44.4,40.9
	C323.6,252.2,343.5,233.9,343.5,211.3L343.5,211.3z M274.4,211.3c0-12.5,11.1-22.7,24.7-22.7c13.6,0,24.7,10.2,24.7,22.7
	S312.6,234,299,234C285.5,234,274.4,223.8,274.4,211.3L274.4,211.3z"/>
<path class="st0" d="M242.1,333.6c0.7-5-3.2-9.6-8.6-10.2c-5.4-0.6-10.4,2.9-11.1,7.9c-0.9,5.8-0.5,17.9-0.7,23.9
	c0,18.5,16.2,33.4,36.3,33.4h81.9c20,0,36.3-14.9,36.3-33.4v-14.7c0-39.2-34.7-71.2-77.3-71.2c-18.9,0-36.9,6.3-51,17.7
	c-4.1,3.3-4.5,9.1-0.9,12.9c3.6,3.8,9.9,4.1,14,0.9c10.4-8.5,24-13.2,38-13.2c31.7,0,57.4,23.7,57.4,52.9v14.8
	c0,8.4-7.4,15.2-16.5,15.2h-81.6c-9.1,0-16.5-6.8-16.5-15.2C241.7,350.3,241.3,338.2,242.1,333.6z"/>
</svg>
