<?xml version="1.0" encoding="utf-8"?>
<!-- Generator: Adobe Illustrator 25.0.0, SVG Export Plug-In . SVG Version: 6.00 Build 0)  -->
<svg version="1.1" id="Capa_1" xmlns="http://www.w3.org/2000/svg" xmlns:xlink="http://www.w3.org/1999/xlink" x="0px" y="0px"
	 viewBox="0 0 349.2 349.2" style="enable-background:new 0 0 349.2 349.2;" xml:space="preserve">
<style type="text/css">
	.st0{fill:#64728C;}
</style>
<g>
	<g>
		<path class="st0" d="M337.6,114.2l-139.2-68c-12-6-32.4-6-44.4,0l-142.4,68C1.6,119.1,0,125.8,0,129.4c0,3.6,1.6,10,11.6,15.2
			l11.6,5.6v64c-7.2,2.8-12.4,10-12.4,18s5.2,15.2,12,18l-18,57.2h50.4l-18-57.2c7.2-2.8,12-10,12-18c0-8.4-5.2-15.2-12.4-18v-57.2
			L58,167.5v83.2c0,1.2,0.4,2.4,1.2,3.6c2,2.4,39.2,53.2,115.2,53.2s113.2-51.2,114.8-53.2c0.8-1.2,1.2-2.4,1.2-3.6v-82.8l47.2-23.2
			c10-4.8,11.6-11.6,11.6-15.2C348.8,125.8,347.6,119.1,337.6,114.2z M277.6,248.6c-6.4,8-40.8,46.4-103.2,46.4
			s-96.8-38.4-103.2-46.4V173l82.8,39.6c6,2.8,14,4.4,22,4.4c8.4,0,16.4-1.6,22.4-4.8l79.2-38.8V248.6z M332,133.4l-48,23.6
			c-2,0-3.6,0.8-4.4,2.4l-86.8,42c-8.4,4.4-24.8,4.4-33.6,0L52.4,150.2l122.8-14.4c3.6-0.4,6-3.6,5.6-6.8c-0.4-3.6-3.6-6-6.8-5.6
			L31.6,140.2l-14.4-6.8c-3.6-1.6-4.4-3.6-4.4-3.6c0-0.4,0.8-2,4.4-3.6l142.4-68.4c4.4-2,10.4-3.2,16.4-3.2c6.4,0,12.8,1.2,16.8,3.2
			l139.2,68c3.6,1.6,4.4,3.2,4.4,4C336.4,129.9,335.2,131.9,332,133.4z"/>
	</g>
</g>
</svg>
