<?xml version="1.0" encoding="utf-8"?>
<!-- Generator: Adobe Illustrator 25.0.0, SVG Export Plug-In . SVG Version: 6.00 Build 0)  -->
<svg version="1.1" id="_x31_" xmlns="http://www.w3.org/2000/svg" xmlns:xlink="http://www.w3.org/1999/xlink" x="0px" y="0px"
	 viewBox="0 0 512 512" style="enable-background:new 0 0 512 512;" xml:space="preserve">
<style type="text/css">
	.st0{fill:#64728C;}
</style>
<path class="st0" d="M256,213.3c-0.1,0-0.3,0-0.4,0c-3.2-0.1-6.2-1.7-8.1-4.3l-28.8-38.4H160c-17.6,0-32-14.4-32-32V32
	c0-17.6,14.4-32,32-32h192c17.6,0,32,14.4,32,32v106.7c0,17.6-14.4,32-32,32h-53.8l-34.2,39C262,212,259.1,213.3,256,213.3z
	 M160,21.3c-5.9,0-10.7,4.8-10.7,10.7v106.7c0,5.9,4.8,10.7,10.7,10.7h64c3.3,0,6.5,1.6,8.5,4.3l24.1,32.1l28.7-32.8
	c2-2.3,4.9-3.6,8-3.6H352c5.9,0,10.7-4.8,10.7-10.7V32c0-5.9-4.8-10.7-10.7-10.7H160z"/>
<path class="st0" d="M426.7,234.7c-0.1,0-0.3,0-0.4,0c-3.2-0.1-6.2-1.7-8.1-4.3l-16.9-22.6c-3.5-4.7-2.5-11.4,2.2-14.9
	s11.4-2.6,14.9,2.2l9,12l28.6-32.7c2-2.3,5-3.6,8-3.6h16c5.9,0,10.7-4.8,10.7-10.7V53.3c0-5.9-4.8-10.7-10.7-10.7h-42.7
	c-5.9,0-10.7-4.8-10.7-10.7s4.8-10.7,10.7-10.7H480c17.6,0,32,14.4,32,32V160c0,17.6-14.4,32-32,32h-11.2l-34.2,39
	C432.7,233.3,429.7,234.7,426.7,234.7L426.7,234.7z"/>
<path class="st0" d="M85.3,234.7c-3.1,0-6-1.3-8-3.6l-34.2-39H32c-17.6,0-32-14.4-32-32V53.3c0-17.6,14.4-32,32-32h42.7
	c5.9,0,10.7,4.8,10.7,10.7s-4.8,10.7-10.7,10.7H32c-5.9,0-10.7,4.8-10.7,10.7V160c0,5.9,4.8,10.7,10.7,10.7h16c3.1,0,6,1.3,8,3.6
	L84.7,207l9-12c3.5-4.7,10.2-5.7,14.9-2.2c4.7,3.5,5.7,10.2,2.2,14.9l-16.9,22.6c-1.9,2.6-4.9,4.2-8.1,4.3
	C85.6,234.7,85.5,234.7,85.3,234.7L85.3,234.7z"/>
<path class="st0" d="M307.3,270.8c0-24.9-21.7-45.2-48.4-45.2c-26.7,0-48.4,20.3-48.4,45.2s21.7,45.2,48.4,45.2
	C285.8,315.8,307.3,295.5,307.3,270.8z M230.9,270.8c0-14.4,12.7-26.4,28.2-26.4s28.2,11.8,28.2,26.4c0,14.6-12.7,26.4-28.2,26.4
	S230.9,285.2,230.9,270.8z"/>
<path class="st0" d="M413.4,261.9c0-22.1-19.4-40.2-43.1-40.2s-43.1,17.9-43.1,40.2c0,22.1,19.4,40.2,43.1,40.2
	S413.4,284.1,413.4,261.9z M347.8,261.9c0-11.8,10.3-21.4,22.8-21.4s22.8,9.6,22.8,21.4s-10.3,21.4-22.8,21.4
	S347.8,273.7,347.8,261.9z"/>
<path class="st0" d="M146.3,302.1c23.7,0,43.1-17.9,43.1-40.2c0-22.1-19.4-40.2-43.1-40.2s-43.1,17.9-43.1,40.2
	C103.5,284.1,122.6,302.1,146.3,302.1z M146.3,240.7c12.5,0,22.8,9.6,22.8,21.4c0,11.8-10.3,21.4-22.8,21.4s-22.8-9.6-22.8-21.4
	C123.5,250.3,133.8,240.7,146.3,240.7z"/>
<path class="st0" d="M95.7,369.1c1.7-5-1.3-10.3-6.7-11.8c-5.4-1.5-11,1.3-12.7,6.1c-4.5,11.6-3.2,28.6-3.4,40.6
	c0,17,15.1,30.8,33.8,30.8h68.2c0.4,18.8,16.8,33.9,37,33.9h95.1c20.2,0,36.6-15.1,37-33.9h66.9c18.7,0,33.8-13.8,33.8-30.8V384
	c0-38.4-33.4-69.5-74.1-69.5h-0.6c-23.9,0-46.3,11.1-60.1,29.3c-14-9.8-31.4-15.5-50.2-15.5h-0.6c-19.2,0-36.8,6.1-51,16.2
	c-13.6-18.6-36.2-29.9-60.5-29.9h-0.6c-12.9,0-25.6,3.3-36.8,9.4c-4.7,2.6-6.5,8.3-3.7,12.9c2.8,4.6,9,5.9,13.8,3.5
	c8.2-4.4,17.4-6.8,26.7-6.8h0.6c18.9,0,36.2,9.4,45.6,24.5c-11.6,13.5-18.5,30.6-18.5,49.1v9.2h-68.2c-7.5,0-13.6-5.2-13.6-12
	C93.6,394.4,92.3,378.3,95.7,369.1L95.7,369.1z M370.2,333.3h0.6c29.7,0,54,22.7,54,50.7v20.1c0,6.6-6,12-13.6,12h-66.9v-9.2
	c0-19-7.3-36.5-19.4-50C334.9,342.5,351.9,333.3,370.2,333.3z M260.2,347.3c35.3,0,64.1,26.9,64.1,59.9v27.1c0,8.7-7.5,15.7-17,15.7
	h-95.1c-9.3,0-17-7-17-15.7v-27.1c0-33,28.8-59.9,64.1-59.9L260.2,347.3L260.2,347.3z"/>
</svg>
