<?xml version="1.0" encoding="utf-8"?>
<!-- Generator: Adobe Illustrator 25.0.0, SVG Export Plug-In . SVG Version: 6.00 Build 0)  -->
<svg version="1.1" id="Icons" xmlns="http://www.w3.org/2000/svg" xmlns:xlink="http://www.w3.org/1999/xlink" x="0px" y="0px"
	 viewBox="0 0 512 512" style="enable-background:new 0 0 512 512;" xml:space="preserve">
<style type="text/css">
	.st0{fill:#64728C;}
</style>
<path class="st0" d="M379.8,307.8c-3.8,0-6.9-3.1-6.9-6.9c0-1,0.2-2,0.7-3c2.8-5.8,5-11.8,6.7-17.9c1-3.7,4.8-5.9,8.5-4.9
	s5.9,4.8,4.9,8.5l0,0c-1.9,7-4.4,13.7-7.6,20.3C384.9,306.3,382.4,307.8,379.8,307.8L379.8,307.8z"/>
<path class="st0" d="M262,383.2c-75.5,0.1-136.9-61-137-136.6c-0.1-75.5,61-136.9,136.6-137c36.6-0.1,71.6,14.5,97.3,40.5
	c2.7,2.7,2.8,7,0.1,9.8c-2.7,2.7-7,2.8-9.8,0.1c-0.1-0.1-0.1-0.1-0.2-0.2c-47.8-48.2-125.6-48.4-173.8-0.6s-48.4,125.6-0.6,173.8
	c45.9,46.2,119.8,48.6,168.5,5.5c2.8-2.6,7.2-2.4,9.8,0.4c2.6,2.8,2.4,7.2-0.4,9.8c-0.1,0.1-0.1,0.1-0.2,0.2
	C327.5,371,295.3,383.2,262,383.2L262,383.2z"/>
<path class="st0" d="M391.1,240.1c-3.6,0-6.5-2.7-6.9-6.2c-0.7-7-2-13.9-3.9-20.7c-1.1-3.6,0.9-7.5,4.5-8.7c3.6-1.1,7.5,0.9,8.7,4.5
	c0,0.1,0.1,0.2,0.1,0.4c2.1,7.5,3.6,15.3,4.4,23.1c0.4,3.8-2.4,7.2-6.2,7.6l0,0C391.6,240.1,391.3,240.2,391.1,240.1L391.1,240.1z"
	/>
<path class="st0" d="M264.8,290.5c-0.9-0.2-1.8-0.2-2.7-0.1c-9.1-1.1-16-8.8-16.1-18c0-4.4-3.6-8-8-8s-8,3.6-8,8
	c0,15.4,10.3,28.8,25.1,32.9v8c0,4.4,3.6,8,8,8c4.4,0,8-3.6,8-8v-7.5c17.1-3.6,28.7-19.5,26.9-36.9c-1.8-17.4-16.4-30.6-33.9-30.6
	c-10,0-18.1-8.1-18.1-18.1s8.1-18.1,18.1-18.1c10,0,18.1,8.1,18.1,18.1c0,4.4,3.6,8,8,8c4.4,0,8-3.6,8-8c0-16.1-11.3-30.1-27.1-33.4
	v-7.3c0-4.4-3.6-8-8-8c-4.4,0-8,3.6-8,8v7.8c-16.5,4.5-27.1,20.5-24.8,37.4c2.3,16.9,16.7,29.6,33.8,29.6c9.9,0,17.9,7.9,18.1,17.8
	C282.5,281.9,274.7,290.2,264.8,290.5z"/>
</svg>
