<?xml version="1.0" encoding="utf-8"?>
<!-- Generator: Adobe Illustrator 25.0.0, SVG Export Plug-In . SVG Version: 6.00 Build 0)  -->
<svg version="1.1" id="Capa_1" xmlns="http://www.w3.org/2000/svg" xmlns:xlink="http://www.w3.org/1999/xlink" x="0px" y="0px"
	 viewBox="0 0 512 512" style="enable-background:new 0 0 512 512;" xml:space="preserve">
<style type="text/css">
	.st0{fill:#64728C;}
	.st1{display:none;fill:#64728C;}
</style>
<g>
	<g>
		<path class="st0" d="M503.9,153.5H51.1c-4.5,0-8.1,3.6-8.1,8.1s3.6,8.1,8.1,8.1h444.7v263.1c0,15.4-12.5,27.9-27.9,27.9H44.2
			c-15.4,0-27.9-12.5-27.9-27.9V161.6V75.9c0-13.6,11.1-24.6,24.6-24.6h124.6c13.6,0,24.6,11.1,24.6,24.6v7.2
			c0,16.1,13.1,29.1,29.1,29.1h248.7c12.4,0,23.4,8.3,26.8,20.2c1.2,4.3,5.7,6.8,10,5.6s6.8-5.7,5.6-10c-5.4-18.8-22.8-32-42.4-32
			H219.2c-7.1,0-12.9-5.8-12.9-12.9v-7.2c0-22.5-18.3-40.9-40.9-40.9H40.9C18.3,35,0,53.4,0,75.9v85.7v271.2
			C0,457.1,19.8,477,44.2,477h423.6c24.4,0,44.2-19.8,44.2-44.2V161.6C512,157.1,508.4,153.5,503.9,153.5z"/>
	</g>
</g>
<g>
	<path class="st1" d="M410,377.8c4.4,0,8-3.6,8-8.1V174.9c0-9.7-3.7-19.6-10.5-27.9l-59.2-72.9c-3.1-3.8-6.7-7-10.5-9.6
		c0.2-2.5,0.4-5,0.4-7.5v-90.9c0-4.5-3.6-8.1-8-8.1s-8,3.6-8,8.1c0,0,0,91.7,0,92.1c-2.3-0.4-4.6-0.6-6.9-0.6H212
		c-7.3,0-14.4,2.1-20.8,5.9c-0.3,0.1-0.5,0.2-0.8,0.3l-77.8,38.5c-8.6,4.4-15.5,11.8-19.4,20.8c0,0.1-0.1,0.2-0.1,0.3l-32.2,83
		c-1.6,4.2,0.4,8.9,4.5,10.5c1,0.4,2,0.6,2.9,0.6c3.2,0,6.2-1.9,7.4-5.1l32.1-82.8c2.4-5.5,6.6-10,11.8-12.6l41.1-20.4l-41,50.5
		c-6.1,7.6-9.4,17.2-9.4,27.9v280.2c0,3.3,0.3,6.5,0.8,9.6l-82.3-37.1c-18.6-8.4-27-30.6-18.8-49.6c0-0.1,0.1-0.2,0.1-0.2l52-131.4
		c1.6-4.2-0.3-8.9-4.4-10.6c-4.1-1.7-8.7,0.3-10.4,4.5l-52,131.3c-11.7,27.1,0.4,58.9,27,70.8l96.5,43.5c0.1,0.1,0.2,0.1,0.4,0.1
		c9.8,15.6,26.8,25.9,46,25.9h196.9c30.3,0,55.9-26,55.9-56.8v-47.6c0-4.5-3.6-8.1-8-8.1s-8,3.6-8,8.1v47.6
		c0,22-18.3,40.6-39.9,40.6H165.2c-21.4,0-38.9-18.2-38.9-40.6V174.9c0-7,1.9-12.9,5.7-17.6l59.2-72.9c5.5-6.8,13.1-10.7,20.7-10.7
		h103.3c1.5,0,3,0.2,4.5,0.4c-5,17.3-17.4,31.8-34.1,39c-4.4-7.4-12.4-12.4-21.5-12.4c-13.8,0-25,11.4-25,25.4s11.2,25.4,25,25.4
		c12.8,0,23.3-9.8,24.8-22.3c21.5-8.3,37.8-25.8,45-47.2c0.7,0.7,1.4,1.5,2,2.3l59.2,72.9c4.4,5.4,6.8,11.6,6.8,17.6v194.8
		C402,374.2,405.6,377.8,410,377.8L410,377.8z M264.2,135.5c-5,0-9-4.1-9-9.2s4.1-9.2,9-9.2s9,4.1,9,9.2
		C273.2,131.4,269.2,135.5,264.2,135.5z"/>
	<path class="st0" d="M195,389.7c2,0,4.1-0.8,5.6-2.4l136.3-138.5c3.1-3.2,3.1-8.3,0-11.5s-8.2-3.2-11.3,0L189.3,375.9
		C184.3,380.7,188.2,390,195,389.7L195,389.7z"/>
	<path class="st0" d="M212,304.2c19.1,0,34.6-15.8,34.6-35.2s-15.5-35.2-34.6-35.2h-1c-19.1,0-34.6,15.8-34.6,35.2
		s15.5,35.2,34.6,35.2H212z M192.3,269.1c0-10.4,8.4-18.9,18.6-18.9h1.1c10.3,0,18.6,8.5,18.6,18.9S222.3,288,212,288h-1
		C200.7,288,192.3,279.5,192.3,269.1z"/>
	<path class="st0" d="M315.3,389.7h1.1c19.1,0,34.6-15.8,34.6-35.2c0-19.4-15.5-35.2-34.6-35.2h-1.1c-19.1,0-34.6,15.8-34.6,35.2
		C280.7,374,296.2,389.7,315.3,389.7z M315.3,335.6h1.1c10.3,0,18.6,8.5,18.6,18.9s-8.4,18.9-18.6,18.9h-1.1
		c-10.3,0-18.6-8.5-18.6-18.9C296.6,344.1,305,335.6,315.3,335.6z"/>
</g>
</svg>
