<?xml version="1.0" encoding="utf-8"?>
<!-- Generator: Adobe Illustrator 25.0.0, SVG Export Plug-In . SVG Version: 6.00 Build 0)  -->
<svg version="1.1" id="Capa_1" xmlns="http://www.w3.org/2000/svg" xmlns:xlink="http://www.w3.org/1999/xlink" x="0px" y="0px"
	 viewBox="0 0 512 512" style="enable-background:new 0 0 512 512;" xml:space="preserve">
<style type="text/css">
	.st0{fill:#64728C;}
</style>
<g>
	<path class="st0" d="M472.4,52.1h-8.5V35.6c0-13-10.6-23.5-23.5-23.5h-8c-13,0-23.5,10.6-23.5,23.5v16.5h-282
		c-4.1,0-7.5,3.4-7.5,7.5s3.4,7.5,7.5,7.5h282v0.5c0,13,10.6,23.5,23.5,23.5h8c13,0,23.5-10.6,23.5-23.5v-0.5h8.5
		c13.5,0,24.6,11,24.6,24.6v24.6H15V91.7c0-13.5,11-24.6,24.6-24.6h8.5v0.5c0,13,10.6,23.5,23.5,23.5h8c13,0,23.5-10.6,23.5-23.5
		V35.6c0-13-10.6-23.5-23.5-23.5h-8c-13,0-23.5,10.6-23.5,23.5v16.5h-8.5C17.7,52.1,0,69.9,0,91.7v368.7C0,482.2,17.7,500,39.6,500
		h432.9c21.8,0,39.6-17.7,39.6-39.6V91.7C512,69.9,494.3,52.1,472.4,52.1z M448.9,67.6c0,4.7-3.8,8.5-8.5,8.5h-8
		c-4.7,0-8.5-3.8-8.5-8.5V35.6c0-4.7,3.8-8.5,8.5-8.5h8c4.7,0,8.5,3.8,8.5,8.5V67.6z M63.1,35.6c0-4.7,3.8-8.5,8.5-8.5h8
		c4.7,0,8.5,3.8,8.5,8.5v32.1c0,4.7-3.8,8.5-8.5,8.5h-8c-4.7,0-8.5-3.8-8.5-8.5V35.6z M472.4,485H39.6C26,485,15,474,15,460.4V131.2
		h482v329.2C497,474,486,485,472.4,485z"/>
	<path class="st0" d="M361,199.8h-56.6v-16.5c0-13-10.6-23.5-23.5-23.5h-48.1c-13,0-23.5,10.6-23.5,23.5v16.5h-56.6
		c-17.4,0-31.5,14.2-31.5,31.5v160.3c0,17.4,14.2,31.5,31.5,31.5H361c17.4,0,31.5-14.2,31.5-31.5v-72.1c0-4.1-3.4-7.5-7.5-7.5
		s-7.5,3.4-7.5,7.5v72.1c0,9.1-7.4,16.5-16.5,16.5H152.5c-9.1,0-16.5-7.4-16.5-16.5v-98.3c10.2,10.9,24.6,17.6,40.6,17.6h0.5v16.5
		c0,8.6,7,15.5,15.5,15.5h16c8.6,0,15.5-7,15.5-15.5V311h65.2v16.5c0,8.6,7,15.5,15.5,15.5h16c8.6,0,15.5-7,15.5-15.5V311h0.5
		c30.7,0,55.6-24.9,55.6-55.6v-24C392.5,213.9,378.3,199.8,361,199.8L361,199.8z M224.2,183.2c0-4.7,3.8-8.5,8.5-8.5h48.1
		c4.7,0,8.5,3.8,8.5,8.5v16.5h-65.2L224.2,183.2z M209.2,327.5c0,0.3-0.2,0.5-0.5,0.5h-16c-0.3,0-0.5-0.2-0.5-0.5V311h17.1V327.5z
		 M321.4,327.5c0,0.3-0.2,0.5-0.5,0.5h-16c-0.3,0-0.5-0.2-0.5-0.5V311h17.1V327.5z M377.5,255.4c0,22.4-18.2,40.6-40.6,40.6H176.6
		c-22.4,0-40.6-18.2-40.6-40.6c0,0,0-0.1,0-0.1v-24c0-9.1,7.4-16.5,16.5-16.5H361c9.1,0,16.5,7.4,16.5,16.5L377.5,255.4L377.5,255.4
		z"/>
</g>
</svg>
