<svg xmlns="http://www.w3.org/2000/svg" viewBox="0 0 383.85 408.73"><defs><style>.cls-1{fill:#64728c;}</style></defs><g id="Layer_2" data-name="Layer 2"><g id="Layer_1-2" data-name="Layer 1"><path class="cls-1" d="M90.52,408.73c-4-2.16-8.6-2-12.88-3A101.55,101.55,0,0,1,1.06,320.85c-4.55-33.84,5.55-63.06,29.5-87.22Q134.78,128.5,239.35,23.7c30.51-30.59,76-31.61,107.69-2.82,29.55,26.88,32.36,75.1,6.09,105.21-1.83,2.1-3.71,4.18-5.68,6.15q-85.9,85.94-171.83,171.85c-16.81,16.8-39.61,21-60,11.1-30.14-14.6-38.34-55.11-15.53-79.64,15.29-16.46,31.6-32,47.47-47.89q18.73-18.79,37.51-37.55c4.71-4.73,10.14-7.13,16.92-5.66a16.94,16.94,0,0,1,9.63,27,48.8,48.8,0,0,1-3.8,4.08q-40.05,40.08-80.14,80.13c-4.7,4.68-7.45,9.93-6.21,16.76A16.91,16.91,0,0,0,148.12,283a33.65,33.65,0,0,0,3.57-3.18Q237.63,193.95,323.53,108c19.86-19.89,17.65-50.65-4.59-66.26a42.82,42.82,0,0,0-52.71,3.33c-1.18,1.08-2.32,2.19-3.44,3.32Q159.06,152.65,55.36,256.89c-22.22,22.34-27.52,52-14.37,79.82,12.27,25.91,42.42,41.65,70.55,37.25,16-2.5,29.22-9.73,40.53-21.11q100.26-100.92,200.6-201.76c5.08-5.12,10.63-8.34,18.11-6.6a16.91,16.91,0,0,1,9.52,26.81,43.56,43.56,0,0,1-3.47,3.84Q276.66,275.88,176.5,376.61c-15.18,15.29-33,25.63-54.18,30.08-3.41.71-7.06.27-10.25,2Z"/></g></g></svg>