<svg xmlns="http://www.w3.org/2000/svg" viewBox="0 0 416.16 323.3"><g id="Layer_2" data-name="Layer 2"><g id="Layer_1-2" data-name="Layer 1"><path d="M0,168.87c4.14-15.54,16.5-24.75,27.65-34.46,12.45-10.84,30.25-8.89,42.56,3.36q35.55,35.4,70.9,71c2.57,2.6,3.82,2.58,6.39,0q98.42-98.64,197-197.12c15.57-15.58,33.9-15.54,49.55.1,3.74,3.73,7.48,7.45,11.2,11.2,14.55,14.66,14.57,33.52-.05,48.15Q333.41,143,261.58,214.75L161.33,315c-11.05,11-23,11.05-34,0Q70.16,257.87,12.93,200.76A49.59,49.59,0,0,1,0,180.24Z"/></g></g></svg>