<svg xmlns="http://www.w3.org/2000/svg" viewBox="0 0 339.93 417.22" fill="#64728c"><defs><style>.cls-1{fill:#64728c;}.cls-2{fill:#64728c;}</style></defs><g id="Layer_2" data-name="Layer 2"><g id="Layer_1-2" data-name="Layer 1"><g id="Layer_2-2" data-name="Layer 2"><g id="Layer_1-2-2" data-name="Layer 1-2"><path d="M52.57,357.65c-15.82,0-26.92-11-26.92-26.81q-.11-114.88,0-229.77c0-12.45,5-22.7,14.64-30.63C54.56,58.74,68.85,47.05,83,35.24a41.31,41.31,0,0,1,27.49-9.79q71.5,0,143,.14c16.92,0,27.63,10.66,27.63,27.58V192q0,11.34,0,22.68c8.63,3,17.23,6.15,25.64,9.69V77.24c0-8.94.13-17.94,0-26.94A51.18,51.18,0,0,0,269.11,1.82C266.74,1.16,264.34.6,262,0H101a5.79,5.79,0,0,1-1.32.59c-13,1.72-24.21,7.2-34.23,15.64-13.81,11.7-27.8,23.12-41.69,34.7C8.05,64,.05,80.86.05,101.26q-.11,115.11,0,230.11c.07,29.42,22.62,51.89,52,51.89h97.82c0-.1,0-.21,0-.31-4.28-8.18-7.81-16.75-11.3-25.3Z"/><path d="M152.12,159h77c7.88,0,13.62,5.31,13.63,12.73s-5.66,12.85-13.55,12.86H75.48c-8.19,0-14-5.26-14-12.78S67.3,159,75.45,159q38.34.06,76.67,0Z"/><path d="M152.06,120.94h-76c-10.43,0-16.69-10.38-11.58-19.06,2.64-4.46,6.7-6.45,11.88-6.44q28.06.06,56.14,0h95.43c7.88,0,13.62,5.36,13.65,12.78S236,121,228,121H152Z"/></g></g><path class="cls-1" d="M243.9,227.93a5.63,5.63,0,0,1-4.43,0Z"/><path class="cls-1" d="M251.29,227.93a5.66,5.66,0,0,1-4.44,0Z"/><path class="cls-2" d="M339.93,321a5.63,5.63,0,0,1,0-4.43Z"/><path class="cls-2" d="M339.93,328.4a5.63,5.63,0,0,1,0-4.43Z"/><path d="M339.93,315.47c-.35-2-.22-4-.47-6a89.4,89.4,0,0,0-6.92-24.8,93.24,93.24,0,0,0-17-26.19,95.65,95.65,0,0,0-53.29-29.53c-3.38-.63-6.81-.64-10.21-1h-.74a10.39,10.39,0,0,1-4.44,0H243.9a10.34,10.34,0,0,1-4.43,0H238a.78.78,0,0,1-.5.19c-7.41,0-14.53,1.72-21.49,4a94.43,94.43,0,0,0-42.48,28.3,95.62,95.62,0,0,0-18,31.12c-5.18,14.58-6,29.6-4.06,44.77a89.5,89.5,0,0,0,15.8,40.16A95.34,95.34,0,0,0,228.62,416c7.72,1.41,15.52,1.27,23.33,1,11.51-.36,22.35-3.39,32.75-8.1a95.34,95.34,0,0,0,54.7-73.08c.28-2,.14-4,.53-6V328.4a10.67,10.67,0,0,1,0-4.43v-3a10.67,10.67,0,0,1,0-4.43Zm-94.76,80.89c-40.54-.07-73.7-33.37-73.67-74a74.09,74.09,0,0,1,74.08-73.76c40.54.07,73.71,33.37,73.67,74A74.09,74.09,0,0,1,245.17,396.36Z"/><path d="M253.54,302c0,6.27,0,12.55,0,18.82a3.87,3.87,0,0,0,1.23,3.06q13,12.86,25.86,25.82c3.72,3.74,3.72,8.82.09,12a7.93,7.93,0,0,1-10,.47,19.19,19.19,0,0,1-1.78-1.6c-9.36-9.35-18.68-18.73-28.08-28a10.15,10.15,0,0,1-3.25-7.69c0-13.84,0-27.69,0-41.53,0-4.82,3.47-8.38,8-8.38s7.94,3.57,8,8.38C253.57,289.53,253.54,295.75,253.54,302Z"/></g></g></svg>