<svg xmlns="http://www.w3.org/2000/svg" viewBox="0 0 618.72 610.26"><g id="Layer_2" data-name="Layer 2"><g id="Layer_1-2" data-name="Layer 1"><path d="M596.07,516.82c-43.31-42.9-86.26-86.16-129.48-129.14-3.52-3.5-4.16-5.78-1.53-10.45,43.52-77.39,47.57-156.66,9-237C446.89,83.56,403.2,43.08,345.16,19.47,276.46-8.48,207.86-6.4,140.89,26.13,83.5,54,42.46,98,18.85,157-8.62,225.63-6.09,294,26.59,360.62c27.6,56.25,70.77,97.08,128.66,120.32,80.13,32.15,157.67,24.4,230.93-21.59,5.73-3.59,8.34-2.79,12.69,1.6q65.89,66.39,132.22,132.37c21.27,21.2,49.38,22.6,71.36,3.64,9.39-8.11,13.7-19,16.27-30.81V554.08C615.9,538.78,606.84,527.48,596.07,516.82ZM249.49,419c-93.5-.89-169.08-77.15-168-169.55C82.51,156.08,158.2,80.92,250.54,81.5c93.49.58,168.42,75.07,168.55,169C419.22,344,342.29,419.84,249.49,419Z"/></g></g></svg>