<svg xmlns="http://www.w3.org/2000/svg" viewBox="0 0 157.43 155.06"><defs><style>.cls-1{fill:#64728c;}</style></defs><g id="Layer_2" data-name="Layer 2"><g id="Layer_1-2" data-name="Layer 1"><path class="cls-1" d="M32.61,73.53c-9.15,0-18.31-.08-27.46,0-3.62,0-5.24-1.09-5.15-4.15.12-3.78-.15-7.56.75-11.3,2.1-8.68,10.81-15.89,21.19-17.42a81.08,81.08,0,0,1,18.42-.36C55,41.53,65,50.48,65.38,62.94s1.08,10.48-11.8,10.58C46.59,73.58,39.6,73.53,32.61,73.53Z"/><path class="cls-1" d="M124.5,155c-9.15,0-18.31-.08-27.46,0-3.62.06-5.24-1.08-5.15-4.15.12-3.77-.15-7.55.75-11.3,2.09-8.67,10.81-15.89,21.19-17.42a81.66,81.66,0,0,1,18.42-.35c14.61,1.17,24.65,10.13,25,22.58s1.07,10.49-11.8,10.59C138.48,155.06,131.49,155,124.5,155Z"/><path class="cls-1" d="M124.56,116.49A18.49,18.49,0,1,1,143.33,98,18.57,18.57,0,0,1,124.56,116.49Z"/><path class="cls-1" d="M32.73,37A18.57,18.57,0,0,1,14.07,18.38a18.68,18.68,0,0,1,37.35,0A18.57,18.57,0,0,1,32.73,37Z"/><path class="cls-1" d="M130.94,43.24c2.39-3.39,5.27-5.38,8.83-2.73,3.73,2.76,1.95,6.08.13,9.22-2,3.43-3.92,6.9-5.76,10.41-2.15,4.1-5.21,4.68-9.09,2.59s-7.86-4.26-11.82-6.35c-3.33-1.76-5.47-4.26-3.41-8s5.31-3.31,8.58-1.4c.53.31,1.14.49,2.83,1.19C116,36.5,108,29.72,96.65,26.93c-4-1-8.4-1.23-7.74-6.88.45-3.86,4-4.91,10.24-3.43C114.08,20.17,124.3,29.36,130.94,43.24Z"/><path class="cls-1" d="M26.61,116c-1.86,1.64-3.06,3.72-5.73,3.69A5.15,5.15,0,0,1,16.11,112c2.35-4.9,5.09-9.62,7.86-14.31,1.88-3.18,4.83-3.21,7.8-1.69,4.27,2.19,8.46,4.52,12.65,6.86,3,1.68,4.44,4.18,2.66,7.41-1.57,2.85-4.11,3.63-7.22,2.16-.8-.38-1.58-1.29-3.16-.39,4.81,10.65,12.84,17.21,24,20.12,1.12.3,2.29.41,3.41.68,3.24.78,5,2.88,4.34,6.12s-3,4.63-6.3,4.23a42.68,42.68,0,0,1-12.35-3.57C39.09,134.75,31.57,126.7,26.61,116Z"/></g></g></svg>