<svg xmlns="http://www.w3.org/2000/svg" viewBox="0 0 474.91 516.73"><g id="Layer_2" data-name="Layer 2"><g id="Layer_1-2" data-name="Layer 1"><path d="M165.86,471q-41.66,0-83.3,0c-25.88,0-42.64-16.8-42.65-42.74V82.52c0-25.87,16.81-42.61,42.78-42.61H321.6c26.92,0,43.48,16.53,43.48,43.45q0,92.78,0,185.56c0,12.54,8.39,21.46,20,21.42,11.34,0,19.89-9,19.9-21.07,0-63.35.52-126.71-.2-190-.38-33.59-17.17-57.74-47.46-72.42C350,3.24,342,2.11,334.22,0H67.85c-.56,1.76-2.23,1.16-3.37,1.43C24.3,10.91,0,41.56,0,82.89Q0,256.23,0,429.57c0,46,35.07,81.18,81,81.27q42.39.09,84.79,0c12.86,0,21.9-8.4,21.79-20.16C187.45,479.15,178.48,471,165.86,471Z"/><path d="M470.21,401.28c-19-25.87-40.9-48.94-68.09-66.39-41-26.34-84-31.83-128.72-10.2-36.47,17.62-63.89,45.7-87.28,78-5.78,8-4.67,16.73,1.13,24.59,17.26,23.38,37,44.37,60.79,61.24,24,17.05,50.35,27.87,79.13,28.2a123.44,123.44,0,0,0,49.41-10c40-17.19,69.36-46.86,94.49-81.28C476.71,417.7,475.88,409,470.21,401.28Zm-45.43,15c-18.34,21-38.13,40.09-64.24,51.29a82.84,82.84,0,0,1-32.62,6.85c-20-.39-37.66-8.14-54-19.46-15.45-10.72-28.71-23.84-40.91-38.08-1.23-1.44-2.73-2.52-.75-4.8,17.91-20.63,37.33-39.41,62.7-50.78,29.76-13.33,57.62-8.05,84.13,9.12,17.32,11.22,31.85,25.51,45.27,41C425.75,413.06,426.61,414.18,424.78,416.27Z"/><path d="M304.05,119.74q-101.71,0-203.44,0a22.36,22.36,0,0,0-8.28,1.44,19.91,19.91,0,0,0,7.46,38.46c34.24.08,68.48,0,102.72,0q50.87,0,101.72,0c12,0,21-8.7,20.93-20S316.15,119.75,304.05,119.74Z"/><path d="M325.16,219.65c.09-11.7-9-20.09-21.86-20.09q-50.37,0-100.73,0-50.61,0-101.22,0c-12.64,0-21.51,8.18-21.57,19.79-.06,11.84,8.85,20.1,21.76,20.11h202C316,239.45,325.06,231.16,325.16,219.65Z"/><path d="M152.68,286.37c-17.26,0-34.53,0-51.8,0-12.21,0-21,8.32-21.1,19.72-.09,11.68,8.75,20.16,21.16,20.17q51.06.06,102.11,0c12.46,0,21.44-8.43,21.42-20s-9-19.89-21.48-19.91Q177.83,286.34,152.68,286.37Z"/><path d="M326.57,376.16A37.91,37.91,0,1,0,364.16,414,38,38,0,0,0,326.57,376.16Z"/></g></g></svg>