<svg width="1321" height="1276" viewBox="0 0 1321 1276" fill="none" xmlns="http://www.w3.org/2000/svg">
<g clip-path="url(#clip0_40_1095)">
<g clip-path="url(#clip1_40_1095)">
<path d="M1321 101.113C1293.37 134.578 1234.68 100.719 1209.92 140.526C1178.53 156.255 1156.89 143.106 1137.93 121.93C1183.37 89.8986 1137.57 32.3561 1182.43 0.109375H1228.62C1265.64 12.9364 1315.05 11.3957 1321 60.6616V101.113Z" fill="#64728C"/>
<path d="M4.22823 1275C2.79493 990.754 1.38552 706.505 0 422.256C50.8463 300.22 124.446 247.228 259.965 245.795C471.376 243.538 682.788 244.72 894.199 246.548C919.282 246.762 965.864 228.274 964.288 272.632C962.89 308.748 933.973 330.64 886.03 330.317C697.694 329.063 509.323 329.923 320.987 329.78C143.33 329.637 92.3403 372.632 92.0536 524.729C91.6953 708.572 92.0536 892.45 92.0536 1102.91C184.215 996.857 291.891 1004.49 399.03 1006.89C506.169 1009.29 614.312 1010.04 721.881 1008.82C923.403 1006.53 1073.72 893.059 1098.12 717.493C1109.88 632.756 1141.12 557.8 1203.97 461.418C1204.65 664.179 1225.86 841.751 1054.55 979.516C965.398 1051.18 863.348 1090.37 743.094 1092.63C681.641 1093.78 619.651 1095.78 558.664 1090.55C359.4 1073.39 176.117 1088.94 54.1787 1254.4C45.5431 1265.87 21.177 1268.37 4.22823 1275Z" fill="#64728C"/>
<path d="M1137.89 121.824L1209.88 140.42C1239.66 145.221 1267.39 158.585 1252.13 186.998C1156.88 363.89 1118.36 570.018 908.779 706.816C897.635 474.747 1026.02 300.722 1137.89 121.824Z" fill="#64728C"/>
<path d="M654.66 529.065C604.71 529.065 554.759 529.674 504.845 528.743C484.671 528.384 465.967 521.147 466.182 500.258C466.361 480.193 483.094 470.77 504.271 470.627C604.172 469.91 704.061 469.743 803.938 470.125C828.699 470.125 850.341 478.509 847.547 505.131C845.217 527.094 823.395 529.101 804.548 529.459C754.597 530.427 704.611 529.782 654.66 529.782V529.065Z" fill="#64728C"/>
<path d="M538.165 673.351C461.412 673.351 384.623 673.745 307.87 673.136C289.273 673.136 265.874 672.168 263.079 651.638C259.138 622.687 286.979 621.505 309.267 621.433C466.691 620.932 624.079 621.111 781.432 621.971C799.061 621.971 822.567 623.977 821.421 647.625C820.31 669.768 798.667 672.706 779.998 672.957C699.411 673.781 618.788 673.279 538.165 673.351Z" fill="#64728C"/>
<path d="M444.325 845.868C398.675 845.868 352.988 846.478 307.373 845.653C283.832 845.224 258.462 840.888 260.254 814.302C262.117 786.964 289.959 788.648 311.996 788.505C399.451 788.004 486.942 788.004 574.469 788.505C597.115 788.505 624.24 789.15 626.247 815.485C629.077 852.354 594.356 845.152 569.846 845.868C528.03 847.087 486.142 846.191 444.433 846.191L444.325 845.868Z" fill="#64728C"/>
<path d="M824.829 788.257C858.26 798.827 932.039 765.612 933.974 814.663C936.196 870.486 862.309 837.594 822.894 845.835C804.977 849.597 784.84 847.949 766.027 846.158C735.212 843.184 685.727 858.805 687.196 813.481C688.486 775.931 734.029 791.661 761.405 788.651C780.038 786.465 799.316 788.257 824.829 788.257Z" fill="#64728C"/>
<path d="M334.105 521C307.445 516.199 261.58 530.961 263.264 494.451C264.984 460.735 310.204 472.738 337.867 471.914C362.448 471.161 401.936 464.389 402.903 493.089C404.157 531.785 360.191 515.948 334.105 521Z" fill="#64728C"/>
</g>
</g>
<defs>
<clipPath id="clip0_40_1095">
<rect width="1321" height="1276" fill="white"/>
</clipPath>
<clipPath id="clip1_40_1095">
<rect width="1321" height="1276" fill="white"/>
</clipPath>
</defs>
</svg>
