<svg width="1222" height="1397" viewBox="0 0 1222 1397" fill="none" xmlns="http://www.w3.org/2000/svg">
<g clip-path="url(#clip0_25_291)">
<g clip-path="url(#clip1_25_291)">
<path d="M165.381 1127.62C115.518 1127.62 80.563 1092.94 80.5315 1043.09C80.4054 801.625 80.4054 560.147 80.5315 318.659C80.5315 279.406 96.2911 247.09 126.676 222.087C171.717 185.199 216.758 148.342 261.609 111.107C285.815 90.5778 316.685 79.601 348.413 80.2402C498.592 80.5555 648.833 80.7027 799.138 80.6816C852.469 80.6816 886.163 114.291 886.226 167.637C886.226 174.637 886.226 262.223 886.226 269.191H967.23C967.23 259.165 967.23 168.52 966.946 158.526C966.322 123.63 954.404 89.8763 932.98 62.3289C911.556 34.7816 881.78 14.9252 848.119 5.7382C840.649 3.65732 833.084 1.89172 825.551 0H318.344C317.06 0.806758 315.67 1.4327 314.215 1.86019C273.24 7.2831 237.907 24.5608 206.482 51.1078C162.923 87.8702 118.827 124.002 75.0471 160.512C25.5935 201.783 0.283538 254.877 0.2205 319.195C-0.0526666 561.02 -0.0526666 802.854 0.2205 1044.7C0.2205 1137.46 71.3909 1208.24 164.12 1208.3H335.743C335.743 1181.44 335.743 1154.56 335.743 1127.65L165.381 1127.62Z" fill="#64728C"/>
<path d="M1221.68 347.193C1221.09 312.327 1209.23 278.59 1187.86 251.035C1166.5 223.481 1136.78 203.59 1103.17 194.342C1095.7 192.293 1088.14 190.527 1080.6 188.636H966.945C966.945 206.922 966.945 225.209 966.945 243.527V269.254H1053.97C1107.17 269.38 1140.99 302.895 1140.99 356.273C1141.14 502.188 1141.14 648.102 1140.99 794.016C1140.99 938.732 1140.99 1083.46 1140.99 1228.2C1140.99 1271.33 1119.09 1302.54 1081.8 1313.07C1073.45 1315.3 1064.82 1316.36 1056.18 1316.22C844.283 1316.22 632.369 1316.22 420.434 1316.22C370.57 1316.22 335.616 1281.54 335.584 1231.66V1208.3H255.305V1233.34C255.305 1326.06 326.475 1396.87 419.205 1396.91C632.275 1397.03 845.344 1397.03 1058.41 1396.91C1070.6 1397.02 1082.76 1395.76 1094.66 1393.15C1171.57 1375.78 1222.03 1311.59 1222.06 1230.72C1222.06 964.491 1222.06 698.264 1222.06 432.036C1221.84 403.818 1222.25 375.506 1221.68 347.193Z" fill="#64728C"/>
<path d="M335.586 507.264C335.586 468.042 351.345 435.725 381.761 410.692C426.739 373.803 471.78 336.946 516.475 299.711C540.695 279.208 571.554 268.234 603.278 268.844C697.479 269.076 791.7 269.191 885.943 269.191C885.943 242.329 885.943 215.477 885.943 188.636H573.335C572.043 189.448 570.642 190.075 569.175 190.496C528.2 195.919 492.898 213.165 461.473 239.712C417.945 276.506 373.85 312.606 330.07 349.116C280.522 390.419 255.306 443.481 255.306 507.8C255.054 714.417 255.054 921.034 255.306 1127.65H335.68C335.491 920.845 335.46 714.049 335.586 507.264Z" fill="#64728C"/>
<path d="M738.338 944.849C819.28 944.849 900.179 944.849 981.036 944.849C1005.87 944.849 1023.97 961.59 1024.03 984.985C1024.09 1008.38 1006.16 1025.5 981.288 1025.53C911.757 1025.53 842.205 1025.53 772.631 1025.53C680.7 1025.53 588.759 1025.53 496.807 1025.53C470.961 1025.53 452.68 1008.95 452.68 985.237C452.68 961.527 470.866 944.817 496.554 944.88C577.076 945.006 657.628 945.006 738.212 944.88L738.338 944.849Z" fill="#64728C"/>
<path d="M738.337 1108.07C819.279 1108.07 900.178 1108.07 981.035 1108.07C1005.87 1108.07 1023.96 1124.81 1024.03 1148.21C1024.09 1171.6 1006.28 1188.63 981.413 1188.63C911.882 1188.63 842.33 1188.63 772.756 1188.63H496.932C471.086 1188.63 452.805 1172.04 452.805 1148.33C452.805 1124.62 470.991 1107.95 496.679 1107.98C577.201 1108.1 657.753 1108.1 738.337 1107.98V1108.07Z" fill="#64728C"/>
<path d="M742.153 872.27C662.315 872.27 582.508 872.27 502.607 872.27C469.732 872.27 450.001 839.512 466.139 812.177C474.428 798.115 487.257 791.841 503.552 791.872C562.535 791.998 621.518 791.998 680.501 791.872H981.32C1006.13 791.872 1024.25 808.772 1024.31 832.166C1024.38 855.56 1006.82 872.365 981.541 872.365C901.692 872.365 821.844 872.365 741.995 872.365L742.153 872.27Z" fill="#64728C"/>
<path d="M939.714 506.002C939.714 545.287 939.714 584.572 939.714 623.856C939.714 650.214 923.45 668.406 900.126 668.658C876.802 668.911 859.435 650.056 859.403 623.446C859.277 544.12 859.277 464.774 859.403 385.406C859.403 360.624 876.55 342.779 900 342.842C923.45 342.905 939.872 360.498 939.903 385.784V506.002H939.714Z" fill="#64728C"/>
<path d="M698.433 548.976C698.433 523.438 698.433 497.868 698.433 472.33C698.433 448.652 716.367 430.46 738.872 430.744C744.189 430.83 749.438 431.963 754.317 434.08C759.196 436.197 763.611 439.254 767.308 443.078C771.005 446.903 773.912 451.418 775.864 456.367C777.815 461.316 778.772 466.601 778.681 471.92C778.849 523.395 778.849 574.892 778.681 626.41C778.681 650.403 761.061 668.595 738.714 668.69C716.367 668.784 698.653 650.782 698.464 626.851C698.275 600.84 698.433 574.892 698.433 548.976Z" fill="#64728C"/>
<path d="M617.778 565.308C617.778 586.148 618.283 607.02 617.778 627.829C617.116 649.363 603.405 664.78 583.296 668.217C565.614 671.212 546.986 660.051 540.115 642.553C538.09 636.581 537.203 630.282 537.499 623.982C537.499 584.256 537.247 544.53 537.499 504.804C537.499 481.189 554.267 463.817 576.74 463.281C599.875 462.871 617.495 480.023 618.156 503.953C618.44 514.168 618.156 524.384 618.156 534.63V565.308H617.778Z" fill="#64728C"/>
</g>
</g>
<defs>
<clipPath id="clip0_25_291">
<rect width="1222" height="1397" fill="white"/>
</clipPath>
<clipPath id="clip1_25_291">
<rect width="1222" height="1397" fill="white"/>
</clipPath>
</defs>
</svg>
