<svg width="1171" height="1473" viewBox="0 0 1171 1473" fill="none" xmlns="http://www.w3.org/2000/svg">
<g clip-path="url(#clip0_40_1020)">
<g clip-path="url(#clip1_40_1020)">
<path d="M1171 565.997C1171 539.507 1163.22 518.519 1144.93 499.482C994.099 342.259 843.673 184.587 693.658 26.4669C675.949 7.80077 656.383 0 631.757 0C519.605 0.487548 407.453 0.301816 295.209 0.116083C275.717 -0.0644715 256.263 1.85814 237.184 5.85058C96.2514 36.5429 0.416522 159.591 0.138 310.499C-0.125049 452.337 -0.171469 594.159 -0.00126135 735.966C0.168947 877.773 0.168947 1019.62 -0.00126135 1161.5C0.300471 1337.07 129.001 1472.42 296.114 1472.61C488.743 1472.93 681.388 1472.93 874.048 1472.61C1041.44 1472.37 1170.4 1337.37 1170.67 1161.97C1171.05 963.489 1170.63 764.708 1171 565.997ZM702.687 213.593L967.515 491.31C926.619 489.174 886.442 494.815 846.567 487.572C766.445 473.015 704.985 399.209 702.826 314.074C701.967 280.642 702.687 247.094 702.687 213.593ZM1053.39 1168.49C1052.86 1269.14 975.732 1348.98 879.317 1349.88C781.184 1350.79 683.028 1350.09 584.872 1350.09C490.376 1350.09 395.887 1350.09 301.406 1350.09C191.924 1350.09 117.094 1271.15 117.071 1156.02C117.071 876.125 117.071 596.233 117.071 316.349C117.21 201.59 192.388 123.048 302.102 123.048C391.114 123.048 480.101 123.419 569.02 122.63C582.946 122.514 585.893 126.484 585.684 140.484C584.849 194.787 585.197 249.114 585.359 303.418C585.893 478.703 714.756 613.429 882.311 613.87C934.719 614.032 987.151 614.218 1039.58 613.638C1050.31 613.638 1053.97 615.542 1053.95 627.986C1053.56 808.1 1054.34 988.307 1053.39 1168.49Z" fill="#64728C"/>
<path d="M812.359 797.906C736.833 797.906 661.314 797.906 585.804 797.906C510.294 797.906 434.783 797.906 359.273 797.906C319.096 797.906 292.543 822.725 292.799 859.732C293.054 895.787 319.63 920.56 358.484 920.583C509.52 920.583 660.549 920.583 811.569 920.583C851.584 920.583 878.345 895.555 878.067 858.711C877.788 822.655 851.212 797.953 812.359 797.906Z" fill="#64728C"/>
<path d="M812.984 1043.35C737.458 1043.26 661.94 1043.26 586.429 1043.35C510.331 1043.35 434.209 1043.35 358.064 1043.35C319.234 1043.35 292.89 1068.24 292.797 1104.53C292.704 1140.82 319.28 1166.01 357.786 1166.01C509.425 1166.1 661.065 1166.1 812.705 1166.01C851.396 1166.01 877.949 1140.93 878.019 1104.81C878.088 1068.68 851.536 1043.4 812.984 1043.35Z" fill="#64728C"/>
<path d="M361.244 655.592C383.247 656.056 405.343 655.592 427.277 655.592C450.696 655.592 474.138 655.986 497.557 655.592C536.852 654.779 566.561 627.499 566.027 593.371C565.517 560.171 535.854 533.588 497.534 533.008C452.104 532.482 406.666 532.482 361.221 533.008C322.622 533.472 293.331 559.8 292.82 593.209C292.263 627.476 321.972 654.709 361.244 655.592Z" fill="#64728C"/>
</g>
</g>
<defs>
<clipPath id="clip0_40_1020">
<rect width="1171" height="1473" fill="white"/>
</clipPath>
<clipPath id="clip1_40_1020">
<rect width="1171" height="1473" fill="white"/>
</clipPath>
</defs>
</svg>
