<svg width="1233" height="1312" viewBox="0 0 1233 1312" fill="none" xmlns="http://www.w3.org/2000/svg">
<g clip-path="url(#clip0_7_454)">
<path d="M756.863 84.7646C822.991 17.8337 907.564 -8.42076 988.775 13.6514C1068.43 35.1972 1133.5 101.168 1154.82 181.691L1154.82 181.695C1176.54 263.962 1150.73 349.561 1084.67 416.498L1084.67 416.499L470.747 1038.12L470.748 1038.12C435.108 1074.23 394.45 1095.93 353.27 1100.3L353.269 1100.29C312.42 1104.66 273.283 1091.43 245.801 1063.61L245.794 1063.6C195.839 1012.82 189.74 918.73 270.693 836.837L701.878 400.253L702.343 399.788C722.048 380.362 753.611 380.516 773.128 400.251C792.767 420.109 792.767 452.348 773.13 472.207L773.131 472.208L341.879 908.859L341.875 908.863C323.71 927.221 314.133 944.843 310.859 959.426C307.582 974.024 310.652 985.133 317.046 991.645C322.724 997.313 331.623 1000.27 342.63 999.021L342.685 999.016C359.692 997.273 379.947 985.845 399.505 966.157L1013.41 344.609C1054.6 302.913 1069.86 254.498 1057.58 208.181C1051.4 185.339 1039.42 164.484 1022.8 147.641C1006.18 130.802 985.493 118.546 962.744 112.059C917.084 99.6854 869.23 115.157 828.049 156.853L186.144 806.792C127.223 866.458 105.103 930.29 106.917 988.557C108.734 1046.93 134.589 1100.16 172.38 1138.43L174.164 1140.22C211.85 1177.52 263.629 1202.92 320.307 1204.74C377.769 1206.58 440.763 1184.21 499.717 1124.47L499.718 1124.47L1141.62 474.532C1146.27 469.806 1151.82 466.051 1157.93 463.488C1164.05 460.924 1170.62 459.604 1177.25 459.604C1183.88 459.604 1190.45 460.924 1196.57 463.488C1202.5 465.972 1207.89 469.576 1212.45 474.099L1212.88 474.54C1222.33 484.145 1227.62 497.074 1227.62 510.542C1227.62 524.01 1222.33 536.939 1212.88 546.544L1212.88 546.553L570.971 1196.49L570.969 1196.49C494.437 1273.89 408.433 1306.63 327.192 1306.63C240.61 1306.63 159.612 1269.48 101.193 1210.32V1210.32C-12.1717 1095.55 -43.5952 895.193 114.957 734.705L756.862 84.7656L756.863 84.7646Z" fill="#64728C" stroke="#64728C" stroke-width="10"/>
</g>
<defs>
<clipPath id="clip0_7_454">
<rect width="1233" height="1312" fill="white"/>
</clipPath>
</defs>
</svg>
