<svg width="1276" height="1275" viewBox="0 0 1276 1275" fill="none" xmlns="http://www.w3.org/2000/svg">
<g clip-path="url(#clip0_40_811)">
<g clip-path="url(#clip1_40_811)">
<path d="M100.912 131.669C100.912 114.306 114.987 100.23 132.351 100.23H365.81C391.426 100.23 412.191 79.4649 412.191 53.8494C412.191 28.2341 391.426 7.46875 365.81 7.46875H132.351C63.7568 7.46875 8.15039 63.0752 8.15039 131.669V365.129C8.15039 390.744 28.9157 411.509 54.531 411.509C80.1466 411.509 100.912 390.744 100.912 365.129V131.669ZM910.552 7.46875C884.932 7.46875 864.168 28.2341 864.168 53.8494C864.168 79.4649 884.932 100.23 910.552 100.23H1144.01C1161.37 100.23 1175.45 114.306 1175.45 131.669V365.129C1175.45 390.744 1196.21 411.509 1221.83 411.509C1247.45 411.509 1268.21 390.744 1268.21 365.129V131.669C1268.21 63.0752 1212.6 7.46875 1144.01 7.46875H910.552ZM100.912 909.87C100.912 884.25 80.1466 863.487 54.531 863.487C28.9157 863.487 8.15039 884.25 8.15039 909.87V1143.32C8.15039 1211.92 63.7568 1267.53 132.351 1267.53H365.81C391.426 1267.53 412.191 1246.76 412.191 1221.15C412.191 1195.53 391.426 1174.77 365.81 1174.77H132.351C114.987 1174.77 100.912 1160.69 100.912 1143.32V909.87ZM1268.21 909.87C1268.21 884.25 1247.45 863.487 1221.83 863.487C1196.21 863.487 1175.45 884.25 1175.45 909.87V1143.32C1175.45 1160.69 1161.37 1174.77 1144.01 1174.77H910.552C884.932 1174.77 864.168 1195.53 864.168 1221.15C864.168 1246.76 884.932 1267.53 910.552 1267.53H1144.01C1212.6 1267.53 1268.21 1211.92 1268.21 1143.32V909.87Z" fill="#64728C"/>
<path d="M54.5312 857.987C83.1843 857.987 106.412 881.213 106.412 909.87V1143.32C106.412 1157.65 118.025 1169.27 132.351 1169.27H365.811C394.464 1169.27 417.691 1192.49 417.691 1221.15C417.691 1249.8 394.463 1273.03 365.811 1273.03H132.351C60.719 1273.03 2.65039 1214.96 2.65039 1143.32V909.87C2.65039 881.213 25.8783 857.987 54.5312 857.987ZM1221.83 857.987C1250.48 857.987 1273.71 881.213 1273.71 909.87V1143.32C1273.71 1214.96 1215.64 1273.03 1144.01 1273.03H910.552C881.895 1273.03 858.669 1249.8 858.669 1221.15C858.669 1192.49 881.895 1169.27 910.552 1169.27H1144.01C1158.34 1169.27 1169.95 1157.65 1169.95 1143.32V909.87C1169.95 881.213 1193.17 857.987 1221.83 857.987ZM365.811 1.96875C394.464 1.96888 417.691 25.1968 417.691 53.8496C417.691 82.5025 394.463 105.73 365.811 105.73H132.351C118.025 105.731 106.412 117.343 106.412 131.669V365.129C106.412 393.782 83.1842 417.01 54.5312 417.01C25.8785 417.01 2.65052 393.782 2.65039 365.129V131.669C2.65052 60.0376 60.7192 1.96888 132.351 1.96875H365.811ZM1144.01 1.96875C1215.64 1.96875 1273.71 60.0374 1273.71 131.669V365.129C1273.71 393.782 1250.48 417.01 1221.83 417.01C1193.17 417.01 1169.95 393.782 1169.95 365.129V131.669C1169.95 117.343 1158.34 105.73 1144.01 105.73H910.552C881.895 105.73 858.669 82.5027 858.669 53.8496C858.669 25.1967 881.895 1.96875 910.552 1.96875H1144.01Z" fill="#64728C" stroke="#64728C" stroke-width="11"/>
<path d="M640.61 639.929C729.925 639.929 802.331 567.528 802.331 478.211C802.331 388.896 729.925 316.492 640.61 316.492C551.296 316.492 478.893 388.896 478.893 478.211C478.893 567.528 551.296 639.929 640.61 639.929ZM748.423 478.211C748.423 537.755 700.157 586.026 640.61 586.026C581.069 586.026 532.798 537.755 532.798 478.211C532.798 418.668 581.069 370.398 640.61 370.398C700.157 370.398 748.423 418.668 748.423 478.211Z" fill="#64728C"/>
<path d="M964.052 909.464C964.052 963.373 910.144 963.373 910.144 963.373H371.08C371.08 963.373 317.174 963.373 317.174 909.464C317.174 855.561 371.08 693.84 640.611 693.84C910.144 693.84 964.052 855.561 964.052 909.464ZM910.144 909.275C910.064 895.972 901.856 856.123 865.29 819.557C830.128 784.395 764.007 747.743 640.611 747.743C517.215 747.743 451.096 784.395 415.936 819.557C379.368 856.123 371.157 895.972 371.08 909.275H910.144Z" fill="#64728C"/>
<path fill-rule="evenodd" clip-rule="evenodd" d="M640.61 331.085C559.354 331.085 493.484 396.956 493.484 478.213C493.484 559.471 559.354 625.343 640.61 625.343C721.867 625.343 787.738 559.471 787.738 478.213C787.738 396.956 721.867 331.085 640.61 331.085ZM464.301 478.213C464.301 380.839 543.237 301.902 640.61 301.902C737.984 301.902 816.924 380.839 816.924 478.213C816.924 575.588 737.984 654.523 640.61 654.523C543.237 654.523 464.301 575.588 464.301 478.213ZM518.205 478.213C518.205 410.611 573.011 355.809 640.61 355.809C708.215 355.809 763.015 410.611 763.015 478.213C763.015 545.815 708.215 600.615 640.61 600.615C573.011 600.615 518.205 545.815 518.205 478.213ZM640.61 384.991C589.127 384.991 547.391 426.728 547.391 478.213C547.391 529.698 589.127 571.434 640.61 571.434C692.099 571.434 733.835 529.698 733.835 478.213C733.835 426.728 692.099 384.991 640.61 384.991ZM367.5 771.121C417.919 720.699 502.771 679.247 640.61 679.247C778.455 679.247 863.307 720.699 913.724 771.121C963.713 821.11 978.64 878.764 978.64 909.464C978.64 925.496 974.591 938.485 967.767 948.725C961.004 958.865 952.094 965.449 943.622 969.683C935.21 973.891 926.977 975.918 920.966 976.919C917.928 977.427 915.363 977.686 913.5 977.821C912.569 977.885 911.802 977.92 911.234 977.94C910.95 977.95 910.716 977.955 910.532 977.96H910.298H910.213H910.173H910.158C910.158 977.96 910.143 977.96 910.143 963.372V977.96H371.079V963.372C371.079 977.96 371.065 977.96 371.065 977.96H371.049H371.012H370.925H370.689C370.507 977.955 370.272 977.95 369.988 977.94C369.421 977.92 368.657 977.885 367.724 977.821C365.862 977.686 363.297 977.427 360.258 976.919C354.248 975.918 346.013 973.891 337.601 969.683C329.132 965.449 320.219 958.865 313.455 948.725C306.631 938.485 302.582 925.496 302.582 909.464C302.582 878.764 317.51 821.11 367.5 771.121ZM388.136 791.755C343.79 836.101 331.765 886.26 331.765 909.464C331.765 920.386 334.454 927.613 337.737 932.533C341.081 937.554 345.645 941.08 350.652 943.58C355.716 946.115 360.958 947.455 365.056 948.137C367.07 948.471 368.717 948.635 369.803 948.71C370.343 948.75 370.738 948.765 370.96 948.775C371.054 948.78 371.116 948.78 371.147 948.78H910.079C910.109 948.78 910.168 948.78 910.263 948.775C910.487 948.765 910.881 948.75 911.418 948.71C912.509 948.635 914.153 948.471 916.17 948.137C920.269 947.455 925.508 946.115 930.573 943.58C935.579 941.08 940.141 937.554 943.488 932.533C946.77 927.613 949.459 920.386 949.459 909.464C949.459 886.26 937.431 836.101 893.09 791.755C849.173 747.838 772.299 708.432 640.61 708.432C508.922 708.432 432.053 747.838 388.136 791.755ZM640.61 762.336C520.297 762.336 458.168 797.956 426.253 829.871C402.454 853.673 392.067 878.655 387.992 894.687H893.23C889.156 878.655 878.766 853.673 854.97 829.871C823.055 797.956 760.924 762.336 640.61 762.336ZM405.617 809.237C444.023 770.832 514.126 733.155 640.61 733.155C767.094 733.155 837.2 770.832 875.604 809.237C914.989 848.622 924.637 892.196 924.736 909.195L924.821 923.867H356.404L356.489 909.195C356.587 892.196 366.233 848.622 405.617 809.237Z" fill="#64728C"/>
</g>
</g>
<defs>
<clipPath id="clip0_40_811">
<rect width="1276" height="1275" fill="white"/>
</clipPath>
<clipPath id="clip1_40_811">
<rect width="1275" height="1275" fill="white" transform="translate(0.679688)"/>
</clipPath>
</defs>
</svg>
