<svg width="1275" height="1289" viewBox="0 0 1275 1289" fill="none" xmlns="http://www.w3.org/2000/svg">
<g clip-path="url(#clip0_7_431)">
<path d="M1133.33 128.9H1062.5V0H920.833V128.9H354.167V0H212.5V128.9H141.667C63.0417 128.9 0.708333 186.905 0.708333 257.8L0 1160.1C0 1194.29 14.9255 1227.07 41.4932 1251.25C68.0609 1275.42 104.094 1289 141.667 1289H1133.33C1211.25 1289 1275 1230.99 1275 1160.1V257.8C1275 186.905 1211.25 128.9 1133.33 128.9ZM1133.33 1160.1H141.667V468.606H1133.33V1160.1ZM425 773.4H283.333V644.5H425V773.4ZM708.333 773.4H566.667V644.5H708.333V773.4ZM991.667 773.4H850V644.5H991.667V773.4Z" fill="#64728C"/>
</g>
<defs>
<clipPath id="clip0_7_431">
<rect width="1275" height="1289" fill="white"/>
</clipPath>
</defs>
</svg>
