<svg width="1275" height="1275" viewBox="0 0 1275 1275" fill="none" xmlns="http://www.w3.org/2000/svg">
<g clip-path="url(#clip0_40_740)">
<g clip-path="url(#clip1_40_740)">
<path d="M159.375 796.875H398.438C419.572 796.875 439.841 805.27 454.785 820.213C469.729 835.161 478.125 855.428 478.125 876.562V1115.62C478.125 1136.76 469.729 1157.03 454.785 1171.97C439.841 1186.92 419.572 1195.31 398.438 1195.31H159.375C138.241 1195.31 117.972 1186.92 103.028 1171.97C88.0831 1157.03 79.6875 1136.76 79.6875 1115.62V876.562C79.6875 855.428 88.0831 835.161 103.028 820.213C117.972 805.27 138.241 796.875 159.375 796.875ZM876.562 79.6875H1115.62C1136.76 79.6875 1157.03 88.0831 1171.97 103.028C1186.92 117.972 1195.31 138.241 1195.31 159.375V398.438C1195.31 419.572 1186.92 439.841 1171.97 454.785C1157.03 469.729 1136.76 478.125 1115.62 478.125H876.562C855.428 478.125 835.161 469.729 820.213 454.785C805.27 439.841 796.875 419.572 796.875 398.438V159.375C796.875 138.241 805.27 117.972 820.213 103.028C835.161 88.0831 855.428 79.6875 876.562 79.6875ZM876.562 796.875C855.428 796.875 835.161 805.27 820.213 820.213C805.27 835.161 796.875 855.428 796.875 876.562V1115.62C796.875 1136.76 805.27 1157.03 820.213 1171.97C835.161 1186.92 855.428 1195.31 876.562 1195.31H1115.62C1136.76 1195.31 1157.03 1186.92 1171.97 1171.97C1186.92 1157.03 1195.31 1136.76 1195.31 1115.62V876.562C1195.31 855.428 1186.92 835.161 1171.97 820.213C1157.03 805.27 1136.76 796.875 1115.62 796.875H876.562ZM876.562 0C834.294 0 793.754 16.7912 763.868 46.6798C733.977 76.5683 717.188 117.106 717.188 159.375V398.438C717.188 440.706 733.977 481.244 763.868 511.132C793.754 541.023 834.294 557.812 876.562 557.812H1115.62C1157.89 557.812 1198.43 541.023 1228.32 511.132C1258.21 481.244 1275 440.706 1275 398.438V159.375C1275 117.106 1258.21 76.5683 1228.32 46.6798C1198.43 16.7912 1157.89 0 1115.62 0H876.562ZM159.375 717.188C117.106 717.188 76.5683 733.977 46.6798 763.868C16.7912 793.754 0 834.294 0 876.562V1115.62C0 1157.89 16.7912 1198.43 46.6798 1228.32C76.5683 1258.21 117.106 1275 159.375 1275H398.438C440.706 1275 481.244 1258.21 511.132 1228.32C541.023 1198.43 557.812 1157.89 557.812 1115.62V876.562C557.812 834.294 541.023 793.754 511.132 763.868C481.244 733.977 440.706 717.188 398.438 717.188H159.375ZM717.188 876.562C717.188 834.294 733.977 793.754 763.868 763.868C793.754 733.977 834.294 717.188 876.562 717.188H1115.62C1157.89 717.188 1198.43 733.977 1228.32 763.868C1258.21 793.754 1275 834.294 1275 876.562V1115.62C1275 1157.89 1258.21 1198.43 1228.32 1228.32C1198.43 1258.21 1157.89 1275 1115.62 1275H876.562C834.294 1275 793.754 1258.21 763.868 1228.32C733.977 1198.43 717.188 1157.89 717.188 1115.62V876.562ZM0 159.375C0 117.106 16.7912 76.5683 46.6798 46.6798C76.5683 16.7912 117.106 0 159.375 0H398.438C440.706 0 481.244 16.7912 511.132 46.6798C541.023 76.5683 557.812 117.106 557.812 159.375V398.438C557.812 440.706 541.023 481.244 511.132 511.132C481.244 541.023 440.706 557.812 398.438 557.812H159.375C117.106 557.812 76.5683 541.023 46.6798 511.132C16.7912 481.244 0 440.706 0 398.438V159.375ZM426.647 227.428C430.351 223.724 433.29 219.326 435.295 214.486C437.299 209.645 438.332 204.457 438.332 199.219C438.332 193.98 437.299 188.792 435.295 183.952C433.29 179.112 430.351 174.714 426.647 171.009C422.942 167.305 418.544 164.366 413.704 162.362C408.864 160.357 403.676 159.325 398.438 159.325C393.199 159.325 388.011 160.357 383.171 162.362C378.331 164.366 373.932 167.305 370.228 171.009L239.062 302.255L187.585 250.697C183.88 246.992 179.482 244.054 174.642 242.049C169.801 240.044 164.614 239.012 159.375 239.012C154.136 239.012 148.949 240.044 144.108 242.049C139.268 244.054 134.87 246.992 131.166 250.697C127.461 254.401 124.523 258.799 122.518 263.639C120.513 268.48 119.481 273.668 119.481 278.906C119.481 284.145 120.513 289.333 122.518 294.173C124.523 299.013 127.461 303.411 131.166 307.116L210.853 386.803C214.554 390.514 218.951 393.457 223.792 395.466C228.632 397.475 233.822 398.509 239.062 398.509C244.303 398.509 249.493 397.475 254.333 395.466C259.174 393.457 263.571 390.514 267.272 386.803L426.647 227.428Z" fill="#64728C"/>
</g>
</g>
<defs>
<clipPath id="clip0_40_740">
<rect width="1275" height="1275" fill="white"/>
</clipPath>
<clipPath id="clip1_40_740">
<rect width="1275" height="1275" fill="white"/>
</clipPath>
</defs>
</svg>
