<svg width="1276" height="1275" viewBox="0 0 1276 1275" fill="none" xmlns="http://www.w3.org/2000/svg">
<g clip-path="url(#clip0_40_797)">
<g clip-path="url(#clip1_40_797)">
<path d="M279.166 0C289.733 0 299.867 4.19781 307.34 11.67C314.812 19.1421 319.01 29.2765 319.01 39.8438V79.6875H956.51V39.8438C956.51 29.2765 960.707 19.1421 968.179 11.67C975.65 4.19781 985.784 0 996.351 0C1006.92 0 1017.06 4.19781 1024.53 11.67C1032 19.1421 1036.2 29.2765 1036.2 39.8438V79.6875H1115.88C1158.15 79.6875 1198.69 96.4787 1228.58 126.367C1258.47 156.256 1275.26 196.794 1275.26 239.062V1115.62C1275.26 1157.89 1258.47 1198.43 1228.58 1228.32C1198.69 1258.21 1158.15 1275 1115.88 1275H159.635C117.366 1275 76.8281 1258.21 46.9396 1228.32C17.051 1198.43 0.259766 1157.89 0.259766 1115.62V239.062C0.259766 196.794 17.051 156.256 46.9396 126.367C76.8281 96.4787 117.366 79.6875 159.635 79.6875H239.322V39.8438C239.322 29.2765 243.52 19.1421 250.992 11.67C258.465 4.19781 268.599 0 279.166 0ZM159.635 159.375C138.5 159.375 118.231 167.771 103.287 182.715C88.3429 197.659 79.9473 217.928 79.9473 239.062V318.75H1195.57V239.062C1195.57 217.928 1187.18 197.659 1172.23 182.715C1157.29 167.771 1137.02 159.375 1115.88 159.375H159.635ZM1195.57 398.438H79.9473V1115.62C79.9473 1136.76 88.3429 1157.03 103.287 1171.97C118.231 1186.92 138.5 1195.31 159.635 1195.31H1115.88C1137.02 1195.31 1157.29 1186.92 1172.23 1171.97C1187.18 1157.03 1195.57 1136.76 1195.57 1115.62V398.438Z" fill="#64728C"/>
<path d="M876.822 597.659C876.822 587.087 881.02 576.953 888.491 569.481C895.963 562.01 906.096 557.812 916.669 557.812H996.351C1006.92 557.812 1017.06 562.01 1024.53 569.481C1032 576.953 1036.2 587.087 1036.2 597.659V677.341C1036.2 687.913 1032 698.047 1024.53 705.519C1017.06 712.99 1006.92 717.188 996.351 717.188H916.669C906.096 717.188 895.963 712.99 888.491 705.519C881.02 698.047 876.822 687.913 876.822 677.341V597.659Z" fill="#64728C"/>
<path d="M531.516 597.659C531.516 587.087 535.713 576.953 543.184 569.481C550.656 562.01 560.79 557.812 571.357 557.812H651.044C661.612 557.812 671.745 562.01 679.217 569.481C686.693 576.953 690.891 587.087 690.891 597.659V677.341C690.891 687.913 686.693 698.047 679.217 705.519C671.745 712.99 661.612 717.188 651.044 717.188H571.357C560.79 717.188 550.656 712.99 543.184 705.519C535.713 698.047 531.516 687.913 531.516 677.341V597.659Z" fill="#64728C"/>
<path d="M212.756 597.659C212.756 587.087 216.954 576.953 224.426 569.481C231.898 562.01 242.032 557.812 252.6 557.812H332.287C342.854 557.812 352.989 562.01 360.461 569.481C367.933 576.953 372.131 587.087 372.131 597.659V677.341C372.131 687.913 367.933 698.047 360.461 705.519C352.989 712.99 342.854 717.188 332.287 717.188H252.6C242.032 717.188 231.898 712.99 224.426 705.519C216.954 698.047 212.756 687.913 212.756 677.341V597.659Z" fill="#64728C"/>
</g>
</g>
<defs>
<clipPath id="clip0_40_797">
<rect width="1276" height="1275" fill="white"/>
</clipPath>
<clipPath id="clip1_40_797">
<rect width="1275" height="1275" fill="white" transform="translate(0.259766)"/>
</clipPath>
</defs>
</svg>
