<svg width="1227" height="1400" viewBox="0 0 1227 1400" fill="none" xmlns="http://www.w3.org/2000/svg">
<g clip-path="url(#clip0_40_904)">
<path fill-rule="evenodd" clip-rule="evenodd" d="M394.504 831.25C394.504 819.645 399.114 808.516 407.318 800.313C415.523 792.11 426.651 787.5 438.254 787.5H788.254C799.859 787.5 810.987 792.11 819.191 800.313C827.394 808.516 832.004 819.645 832.004 831.25C832.004 842.855 827.394 853.984 819.191 862.187C810.987 870.39 799.859 875 788.254 875H438.254C426.651 875 415.523 870.39 407.318 862.187C399.114 853.984 394.504 842.855 394.504 831.25Z" fill="#64728C"/>
<path fill-rule="evenodd" clip-rule="evenodd" d="M394.504 656.25C394.504 644.645 399.114 633.516 407.318 625.313C415.523 617.11 426.651 612.5 438.254 612.5H788.254C799.859 612.5 810.987 617.11 819.191 625.313C827.394 633.516 832.004 644.645 832.004 656.25C832.004 667.855 827.394 678.984 819.191 687.187C810.987 695.39 799.859 700 788.254 700H438.254C426.651 700 415.523 695.39 407.318 687.187C399.114 678.984 394.504 667.855 394.504 656.25Z" fill="#64728C"/>
<path fill-rule="evenodd" clip-rule="evenodd" d="M394.504 1006.25C394.504 994.645 399.114 983.516 407.318 975.313C415.523 967.11 426.651 962.5 438.254 962.5H788.254C799.859 962.5 810.987 967.11 819.191 975.313C827.394 983.516 832.004 994.645 832.004 1006.25C832.004 1017.85 827.394 1028.98 819.191 1037.19C810.987 1045.39 799.859 1050 788.254 1050H438.254C426.651 1050 415.523 1045.39 407.318 1037.19C399.114 1028.98 394.504 1017.85 394.504 1006.25Z" fill="#64728C"/>
<path d="M263.254 131.25H175.754C129.341 131.25 84.8288 149.687 52.0103 182.506C19.1913 215.325 0.753906 259.837 0.753906 306.25V1225C0.753906 1271.41 19.1913 1315.92 52.0103 1348.74C84.8288 1381.56 129.341 1400 175.754 1400H1050.75C1097.17 1400 1141.68 1381.56 1174.5 1348.74C1207.32 1315.92 1225.75 1271.41 1225.75 1225V306.25C1225.75 259.837 1207.32 215.325 1174.5 182.506C1141.68 149.687 1097.17 131.25 1050.75 131.25H963.254V218.75H1050.75C1073.96 218.75 1096.22 227.969 1112.63 244.378C1129.03 260.788 1138.25 283.043 1138.25 306.25V1225C1138.25 1248.2 1129.03 1270.46 1112.63 1286.87C1096.22 1303.28 1073.96 1312.5 1050.75 1312.5H175.754C152.547 1312.5 130.292 1303.28 113.882 1286.87C97.4726 1270.46 88.2539 1248.2 88.2539 1225V306.25C88.2539 283.043 97.4726 260.788 113.882 244.378C130.292 227.969 152.547 218.75 175.754 218.75H263.254V131.25Z" fill="#64728C"/>
<path d="M744.504 106.918C756.109 106.918 767.237 111.528 775.441 119.732C783.644 127.937 788.254 139.065 788.254 150.668V238.168C788.254 249.771 783.644 260.899 775.441 269.104C767.237 277.308 756.109 281.918 744.504 281.918H482.004C470.399 281.918 459.273 277.308 451.068 269.104C442.864 260.899 438.254 249.771 438.254 238.168V150.668C438.254 139.065 442.864 127.937 451.068 119.732C459.273 111.528 470.399 106.918 482.004 106.918H744.504ZM482.004 19.418C447.194 19.418 413.81 33.246 389.196 57.8602C364.582 82.4743 350.754 115.858 350.754 150.668V238.168C350.754 272.978 364.582 306.362 389.196 330.976C413.81 355.59 447.194 369.418 482.004 369.418H744.504C779.312 369.418 812.699 355.59 837.314 330.976C861.923 306.362 875.754 272.978 875.754 238.168V150.668C875.754 115.858 861.923 82.4743 837.314 57.8602C812.699 33.246 779.312 19.418 744.504 19.418H482.004Z" fill="#64728C"/>
</g>
<defs>
<clipPath id="clip0_40_904">
<rect width="1227" height="1400" fill="white"/>
</clipPath>
</defs>
</svg>
