<svg width="1108" height="1364" viewBox="0 0 1108 1364" fill="none" xmlns="http://www.w3.org/2000/svg">
<g clip-path="url(#clip0_40_971)">
<path d="M647.863 709.524L626.84 731.26V543.5C626.84 524.272 619.201 505.831 605.605 492.235C592.008 478.638 573.568 471 554.34 471C535.111 471 516.671 478.638 503.074 492.235C489.478 505.831 481.84 524.272 481.84 543.5V731.26L460.816 709.496C447.122 696.046 428.67 688.548 409.475 688.634C390.28 688.72 371.896 696.383 358.323 709.956C344.75 723.529 337.087 741.913 337.001 761.108C336.915 780.303 344.413 798.755 357.863 812.449L502.863 957.449C509.753 964.055 517.887 969.226 526.792 972.662C535.469 976.499 544.852 978.481 554.34 978.481C563.827 978.481 573.21 976.499 581.887 972.662C590.792 969.226 598.926 964.055 605.816 957.449L750.816 812.449C764.266 798.755 771.765 780.303 771.678 761.108C771.592 741.913 763.929 723.529 750.356 709.956C736.783 696.383 718.399 688.72 699.204 688.634C680.009 688.548 661.557 696.046 647.863 709.496V709.524Z" fill="#64728C"/>
<path d="M980.154 1363.69H127.846C57.1046 1363.69 0 1306.59 0 1235.85V127.846C0 57.1046 57.1046 0 127.846 0H732.132C766.225 0 798.612 13.6369 822.477 37.5015L1070.5 285.523C1094.36 309.388 1108 341.775 1108 375.868V1235.85C1108 1306.59 1050.9 1363.69 980.154 1363.69ZM127.846 85.2308C103.982 85.2308 85.2308 103.982 85.2308 127.846V1235.85C85.2308 1259.71 103.982 1278.46 127.846 1278.46H980.154C1004.02 1278.46 1022.77 1259.71 1022.77 1235.85V375.868C1022.84 370.279 1021.74 364.737 1019.53 359.6C1017.33 354.462 1014.08 349.842 1009.98 346.037L761.963 98.0154C754.095 89.986 743.373 85.3909 732.132 85.2308H127.846Z" fill="#64728C"/>
<path d="M1055.16 426.164H807.137C738.1 426.164 681.848 369.912 681.848 300.875V52.8537C681.848 28.989 700.598 10.2383 724.463 10.2383C748.328 10.2383 767.078 28.989 767.078 52.8537V300.875C767.078 323.035 784.977 340.934 807.137 340.934H1055.16C1079.02 340.934 1097.77 359.684 1097.77 383.549C1097.77 407.414 1079.02 426.164 1055.16 426.164Z" fill="#64728C"/>
</g>
<defs>
<clipPath id="clip0_40_971">
<rect width="1108" height="1364" fill="white"/>
</clipPath>
</defs>
</svg>
