<svg width="1108" height="1364" viewBox="0 0 1108 1364" fill="none" xmlns="http://www.w3.org/2000/svg">
<g clip-path="url(#clip0_40_1055)">
<path d="M980.154 1363.69H127.846C57.1046 1363.69 0 1306.59 0 1235.85V127.846C0 57.1046 57.1046 0 127.846 0H732.132C766.225 0 798.612 13.6369 822.477 37.5015L1070.5 285.523C1094.36 309.388 1108 341.775 1108 375.868V1235.85C1108 1306.59 1050.9 1363.69 980.154 1363.69ZM127.846 85.2308C103.982 85.2308 85.2308 103.982 85.2308 127.846V1235.85C85.2308 1259.71 103.982 1278.46 127.846 1278.46H980.154C1004.02 1278.46 1022.77 1259.71 1022.77 1235.85V375.868C1022.84 370.279 1021.74 364.737 1019.53 359.6C1017.33 354.462 1014.08 349.842 1009.98 346.037L761.963 98.0154C754.095 89.986 743.373 85.3909 732.132 85.2308H127.846Z" fill="#64728C"/>
<path d="M1055.15 426.164H807.133C738.096 426.164 681.844 369.912 681.844 300.875V52.8537C681.844 28.989 700.595 10.2383 724.459 10.2383C748.324 10.2383 767.075 28.989 767.075 52.8537V300.875C767.075 323.035 784.973 340.934 807.133 340.934H1055.15C1079.02 340.934 1097.77 359.684 1097.77 383.549C1097.77 407.414 1079.02 426.164 1055.15 426.164Z" fill="#64728C"/>
<path d="M554.003 939.171C548.38 939.206 542.806 938.13 537.6 936.004C532.394 933.879 527.659 930.747 523.666 926.787L352.82 755.932C345.807 747.763 342.138 737.247 342.546 726.489C342.955 715.731 347.411 705.524 355.023 697.911C362.635 690.298 372.841 685.84 383.6 685.429C394.358 685.019 404.874 688.687 413.044 695.698L554.003 836.227L694.531 695.698C702.701 688.687 713.217 685.019 723.976 685.429C734.734 685.84 744.94 690.298 752.552 697.911C760.164 705.524 764.62 715.731 765.029 726.489C765.437 737.247 761.768 747.763 754.755 755.932L583.899 926.787C575.943 934.675 565.207 939.122 554.003 939.171Z" fill="#64728C"/>
<path d="M554 875.105C544.087 875.105 534.58 871.167 527.57 864.158C520.56 857.148 516.623 847.641 516.623 837.728V463.983C516.542 459.024 517.45 454.099 519.292 449.494C521.134 444.89 523.874 440.698 527.352 437.163C530.83 433.627 534.977 430.82 539.552 428.903C544.126 426.987 549.036 426 553.995 426C558.954 426 563.864 426.987 568.439 428.903C573.013 430.82 577.16 433.627 580.638 437.163C584.116 440.698 586.856 444.89 588.699 449.494C590.541 454.099 591.448 459.024 591.368 463.983V837.728C591.368 847.639 587.431 857.145 580.424 864.154C573.416 871.164 563.911 875.103 554 875.105ZM815.623 1024.61H292.377C282.464 1024.61 272.957 1020.67 265.948 1013.66C258.938 1006.65 255 997.141 255 987.228C255 977.315 258.938 967.808 265.948 960.798C272.957 953.788 282.464 949.85 292.377 949.85H815.623C825.536 949.85 835.043 953.788 842.052 960.798C849.062 967.808 853 977.315 853 987.228C853 997.141 849.062 1006.65 842.052 1013.66C835.043 1020.67 825.536 1024.61 815.623 1024.61Z" fill="#64728C"/>
</g>
<defs>
<clipPath id="clip0_40_1055">
<rect width="1108" height="1364" fill="white"/>
</clipPath>
</defs>
</svg>
