<svg width="1275" height="1277" viewBox="0 0 1275 1277" fill="none" xmlns="http://www.w3.org/2000/svg">
<g clip-path="url(#clip0_40_991)">
<path d="M637.5 1094.14C625.511 1094.21 613.626 1091.92 602.526 1087.39C591.426 1082.86 581.33 1076.18 572.818 1067.74L208.556 703.455C193.604 686.038 185.781 663.618 186.652 640.68C187.523 617.743 197.024 595.98 213.253 579.748C229.483 563.516 251.244 554.011 274.181 553.137C297.119 552.262 319.54 560.082 336.959 575.031L637.5 874.652L937.121 575.031C954.54 560.082 976.962 552.262 999.899 553.137C1022.84 554.011 1044.6 563.516 1060.83 579.748C1077.06 595.98 1086.56 617.743 1087.43 640.68C1088.3 663.618 1080.48 686.038 1065.52 703.455L701.242 1067.74C684.278 1084.55 661.387 1094.04 637.5 1094.14Z" fill="#64728C"/>
<path d="M637.5 957.541C616.364 957.541 596.094 949.145 581.149 934.199C566.203 919.254 557.807 898.984 557.807 877.848V80.9834C557.636 70.4108 559.571 59.9098 563.498 50.0923C567.426 40.2747 573.268 31.3369 580.684 23.7997C588.1 16.2624 596.942 10.2764 606.695 6.19034C616.447 2.10432 626.916 0 637.49 0C648.064 0 658.532 2.10432 668.284 6.19034C678.037 10.2764 686.879 16.2624 694.295 23.7997C701.712 31.3369 707.554 40.2747 711.481 50.0923C715.409 59.9098 717.343 70.4108 717.172 80.9834V877.848C717.172 898.98 708.779 919.247 693.838 934.192C678.897 949.137 658.632 957.535 637.5 957.541ZM1195.31 1276.29H79.6927C58.5569 1276.29 38.2867 1267.89 23.3415 1252.95C8.39617 1238 0 1217.73 0 1196.6C0 1175.46 8.39617 1155.19 23.3415 1140.25C38.2867 1125.3 58.5569 1116.91 79.6927 1116.91H1195.31C1216.44 1116.91 1236.71 1125.3 1251.66 1140.25C1266.6 1155.19 1275 1175.46 1275 1196.6C1275 1217.73 1266.6 1238 1251.66 1252.95C1236.71 1267.89 1216.44 1276.29 1195.31 1276.29Z" fill="#64728C"/>
</g>
<defs>
<clipPath id="clip0_40_991">
<rect width="1275" height="1277" fill="white"/>
</clipPath>
</defs>
</svg>
