<svg width="1276" height="1275" viewBox="0 0 1276 1275" fill="none" xmlns="http://www.w3.org/2000/svg">
<g clip-path="url(#clip0_40_768)">
<path d="M830.251 428.269C829.761 428.757 829.307 429.275 828.879 429.818L589.755 735.325L445.589 590.77C425.419 570.549 392.717 570.549 372.547 590.77C352.377 610.997 352.377 643.785 372.547 664.006L554.795 846.734C574.965 866.956 607.667 866.956 627.837 846.734C628.286 846.285 628.709 845.811 629.107 845.311L904.028 500.754C923.458 480.478 923.214 448.244 903.293 428.269C883.123 408.046 850.421 408.046 830.251 428.269Z" fill="#64728C"/>
<path fill-rule="evenodd" clip-rule="evenodd" d="M823.029 421.063C847.183 396.844 886.361 396.844 910.515 421.063C934.245 444.857 934.648 483.169 911.724 507.458L637.078 851.668C636.446 852.463 635.773 853.218 635.059 853.932C610.9 878.152 571.727 878.152 547.573 853.932L365.325 671.209C341.185 647.005 341.185 607.771 365.325 583.566C389.48 559.346 428.656 559.346 452.811 583.566L588.832 719.95L820.847 423.528L828.879 429.815L589.755 735.316L445.589 590.767C425.419 570.546 392.717 570.546 372.547 590.767C352.377 610.994 352.377 643.782 372.547 664.003L554.795 846.731C574.965 866.953 607.667 866.953 627.837 846.731C628.286 846.282 628.709 845.808 629.107 845.308L904.028 500.751C923.459 480.475 923.214 448.241 903.293 428.266C883.123 408.043 850.422 408.043 830.251 428.266C829.761 428.754 829.307 429.272 828.879 429.815L820.847 423.528C821.525 422.663 822.254 421.839 823.029 421.063Z" fill="#64728C"/>
<path fill-rule="evenodd" clip-rule="evenodd" d="M637.92 1132.2C911.137 1132.2 1132.62 910.717 1132.62 637.5C1132.62 364.285 911.137 142.8 637.92 142.8C364.705 142.8 143.22 364.285 143.22 637.5C143.22 910.717 364.705 1132.2 637.92 1132.2ZM637.92 1275C990.004 1275 1275.42 989.584 1275.42 637.5C1275.42 285.418 990.004 0 637.92 0C285.838 0 0.419922 285.418 0.419922 637.5C0.419922 989.584 285.838 1275 637.92 1275Z" fill="#64728C"/>
</g>
<defs>
<clipPath id="clip0_40_768">
<rect width="1276" height="1275" fill="white"/>
</clipPath>
</defs>
</svg>
