<svg width="1275" height="1275" viewBox="0 0 1275 1275" fill="none" xmlns="http://www.w3.org/2000/svg">
<g clip-path="url(#clip0_4_266)">
<path d="M141.667 1133.33H242.604L935 440.938L834.062 340L141.667 1032.4V1133.33ZM70.8333 1275C50.7639 1275 33.9528 1268.2 20.4 1254.6C6.84723 1241 0.0472222 1224.19 0 1204.17V1032.4C0 1013.51 3.54167 995.492 10.625 978.35C17.7083 961.208 27.7431 946.168 40.7292 933.229L935 40.7292C949.167 27.7431 964.821 17.7083 981.963 10.625C999.104 3.54167 1017.1 0 1035.94 0C1054.78 0 1073.08 3.54167 1090.83 10.625C1108.59 17.7083 1123.94 28.3333 1136.88 42.5L1234.27 141.667C1248.44 154.653 1258.76 170 1265.22 187.708C1271.69 205.417 1274.95 223.125 1275 240.833C1275 259.722 1271.74 277.738 1265.22 294.879C1258.71 312.021 1248.39 327.651 1234.27 341.771L341.771 1234.27C328.785 1247.26 313.721 1257.29 296.579 1264.38C279.437 1271.46 261.446 1275 242.604 1275H70.8333ZM883.646 391.354L834.062 340L935 440.938L883.646 391.354Z" fill="#64728C"/>
</g>
<defs>
<clipPath id="clip0_4_266">
<rect width="1275" height="1275" fill="white"/>
</clipPath>
</defs>
</svg>
