<svg width="1275" height="1275" viewBox="0 0 1275 1275" fill="none" xmlns="http://www.w3.org/2000/svg">
<g clip-path="url(#clip0_24_88)">
<g clip-path="url(#clip1_24_88)">
<path d="M10.6244 1218.77C19.9536 1195.18 24.1 1169.79 30.3195 1145.43C49.7555 1068.72 68.6732 991.753 87.85 914.787C89.664 907.272 93.8104 900.275 99.5116 894.833C329.374 664.97 558.978 435.366 788.582 205.503C795.579 198.506 798.688 199.802 804.649 206.022C889.908 291.799 975.426 377.058 1061.2 462.317C1068.2 469.314 1067.68 472.683 1060.94 479.162C831.859 707.729 603.033 936.555 374.207 1165.64C367.728 1172.38 359.176 1177.3 349.847 1179.63C248.78 1204.25 147.713 1229.39 46.9049 1254.53C46.3866 1254.79 45.8683 1255.82 45.35 1256.34H30.3195C19.9536 1255.05 11.661 1246.75 10.3652 1236.39V1218.77H10.6244Z" fill="#64728C"/>
<path d="M10.623 1272.41C15.0285 1280.96 22.0255 1287.7 30.5773 1292.36C10.623 1292.1 10.623 1292.1 10.623 1272.41Z" fill="#64728C"/>
<path d="M1246.49 236.082C1245.71 271.067 1234.83 302.683 1210.21 328.338C1179.11 360.473 1146.98 391.57 1115.88 423.704C1108.62 431.22 1106.03 424.223 1102.66 420.595C1030.62 348.811 958.579 276.768 886.536 204.726C872.283 190.473 858.03 175.96 843.518 161.966C838.854 157.561 838.594 154.97 843.518 150.305C874.097 120.244 903.899 88.8872 935.256 59.3445C987.863 9.3293 1071.31 8.29271 1124.43 57.5305C1154.49 85.2592 1183 114.802 1211.25 144.604C1235.09 169.741 1245.71 201.098 1246.49 236.082Z" fill="#64728C"/>
</g>
</g>
<defs>
<clipPath id="clip0_24_88">
<rect width="1275" height="1275" fill="white"/>
</clipPath>
<clipPath id="clip1_24_88">
<rect width="1275" height="1275" fill="white"/>
</clipPath>
</defs>
</svg>
