<svg width="1275" height="1277" viewBox="0 0 1275 1277" fill="none" xmlns="http://www.w3.org/2000/svg">
<g clip-path="url(#clip0_38_517)">
<path d="M1225.2 0.63916H49.8047C35.6934 0.63916 23.8647 5.41211 14.3188 14.958C4.77295 24.5039 0 36.3325 0 50.4438C0 85.3071 3.73535 119.34 11.2061 152.543C18.6768 186.577 29.2603 218.95 42.9565 249.663C56.6528 280.375 73.4619 309.843 93.3838 338.066C114.136 365.458 137.378 390.776 163.11 414.018L381.006 607.011C400.098 624.443 414.832 644.572 425.208 667.399C435.583 690.227 440.771 714.506 440.771 740.239V1225.83C440.771 1245.76 449.487 1260.49 466.919 1270.04C484.351 1279.58 501.367 1278.54 517.969 1266.92L811.816 1071.44C819.287 1066.46 824.89 1060.44 828.625 1053.39C832.361 1046.33 834.229 1038.65 834.229 1030.35V740.239C834.229 714.506 839.417 690.227 849.792 667.399C860.168 644.572 874.902 624.443 893.994 607.011L1111.89 414.018C1137.62 390.776 1160.86 365.458 1181.62 338.066C1201.54 309.843 1218.35 280.375 1232.04 249.663C1245.74 218.95 1256.32 186.577 1263.79 152.543C1271.26 119.34 1275 85.3071 1275 50.4438C1275 36.3325 1270.23 24.5039 1260.68 14.958C1251.14 5.41211 1239.31 0.63916 1225.2 0.63916ZM1045.9 339.311L828.003 533.549C798.12 559.282 775.085 590.202 758.899 626.311C742.712 662.419 734.619 700.395 734.619 740.239V1002.96L540.381 1132.45V740.239C540.381 700.395 532.288 662.419 516.101 626.311C499.915 590.202 476.88 559.282 446.997 533.549L229.102 339.311C194.238 308.598 166.016 272.49 144.434 230.986C122.852 189.482 109.155 145.903 103.345 100.249H1171.66C1165.84 145.903 1152.15 189.482 1130.57 230.986C1108.98 272.49 1080.76 308.598 1045.9 339.311Z" fill="#64728C"/>
</g>
<defs>
<clipPath id="clip0_38_517">
<rect width="1275" height="1277" fill="white"/>
</clipPath>
</defs>
</svg>
