<svg width="1275" height="1329" viewBox="0 0 1275 1329" fill="none" xmlns="http://www.w3.org/2000/svg">
<g clip-path="url(#clip0_42_1230)">
<path d="M936.261 966.294C917.999 984.556 899.53 1002.82 880.853 1021.08C862.176 1039.34 843.707 1058.02 825.445 1077.11C820.465 1081.26 815.484 1084.79 810.504 1087.69C805.523 1090.6 799.713 1092.88 793.072 1094.54C760.699 1102.84 728.119 1111.14 695.331 1119.44C662.542 1127.74 629.962 1136.04 597.589 1144.35C592.608 1145.18 587.835 1146.01 583.27 1146.84C578.705 1147.67 573.932 1147.67 568.951 1146.84C558.16 1146.01 549.859 1140.61 544.049 1130.65C538.238 1120.69 536.578 1110.31 539.068 1099.52C547.369 1067.15 555.67 1034.98 563.971 1003.02C572.271 971.067 580.157 938.901 587.628 906.528C590.118 896.567 593.231 887.644 596.966 879.758C600.702 871.873 605.89 864.194 612.53 856.724C639.923 830.161 666.9 803.599 693.463 777.036C720.855 749.644 748.041 722.666 775.018 696.104C801.996 669.541 828.766 642.564 855.328 615.171C881.891 588.608 908.868 561.631 936.261 534.238C937.091 533.408 938.128 531.748 939.374 529.258C940.619 526.768 941.241 524.277 941.241 521.787C941.241 504.356 941.449 486.924 941.864 469.492C942.279 452.061 942.486 434.629 942.486 417.197C942.486 375.693 942.486 333.982 942.486 292.063C942.486 250.144 942.486 208.018 942.486 165.684C942.486 152.402 940.826 139.744 937.506 127.708C934.186 115.672 928.375 104.673 920.074 94.712C909.283 79.7706 896.417 69.1871 881.476 62.9615C866.534 56.736 850.348 53.6232 832.916 53.6232C773.15 53.6232 713.385 53.6232 653.619 53.6232C593.854 53.6232 534.088 53.6232 474.322 53.6232H466.852V64.8292C466.852 99.6925 466.644 134.763 466.229 170.042C465.814 205.32 466.021 240.391 466.852 275.254C466.852 299.326 463.116 321.738 455.646 342.49C448.175 363.242 436.139 382.334 419.537 399.766C402.936 416.367 384.674 429.648 364.752 439.609C344.83 449.57 322.833 454.551 298.761 454.551C253.937 454.551 208.905 454.551 163.666 454.551C118.426 454.551 72.9795 454.551 27.3252 454.551C24.0049 454.551 21.7222 455.173 20.4771 456.419C19.2319 457.664 18.6094 459.946 18.6094 463.267C18.6094 506.431 18.8169 549.18 19.2319 591.514C19.647 633.848 19.8545 676.182 19.8545 718.516C19.8545 759.19 19.8545 800.071 19.8545 841.16C19.8545 882.249 19.8545 923.13 19.8545 963.804C19.8545 997.837 19.8545 1032.08 19.8545 1066.53C19.8545 1100.97 19.8545 1135.21 19.8545 1169.25C19.8545 1173.4 19.8545 1177.34 19.8545 1181.08C19.8545 1184.81 20.2695 1188.75 21.0996 1192.91C26.0801 1217.81 38.1162 1237.94 57.208 1253.29C76.2998 1268.65 98.7119 1276.33 124.444 1276.33C183.38 1276.33 242.73 1276.33 302.496 1276.33C361.432 1276.33 420.575 1276.33 479.925 1276.33C539.276 1276.33 598.834 1276.33 658.6 1276.33C717.535 1276.33 776.886 1276.33 836.651 1276.33C839.972 1276.33 843.5 1276.12 847.235 1275.71C850.97 1275.29 854.498 1274.67 857.818 1273.84C883.551 1268.86 904.095 1256.82 919.452 1237.73C934.808 1218.64 942.486 1195.81 942.486 1169.25C942.486 1134.38 942.486 1099.73 942.486 1065.28C942.486 1030.83 942.486 996.177 942.486 961.314C940.826 962.144 939.581 962.974 938.751 963.804C937.921 964.634 937.091 965.464 936.261 966.294ZM1088.17 567.857C1081.52 561.216 1074.88 554.368 1068.24 547.312C1061.6 540.256 1054.96 533.408 1048.32 526.768C1041.68 534.238 1035.04 541.086 1028.4 547.312C1021.76 553.538 1015.53 559.971 1009.72 566.611C981.5 594.834 953.277 623.057 925.055 651.279C896.832 679.502 868.609 707.725 840.387 735.947C812.164 764.17 783.941 792.393 755.719 820.615C727.496 849.668 699.273 878.306 671.051 906.528C668.561 909.019 666.485 911.716 664.825 914.622C663.165 917.527 661.92 920.64 661.09 923.96C657.77 935.581 654.657 947.41 651.751 959.446C648.846 971.482 645.733 983.311 642.413 994.932C639.923 1005.72 637.433 1016.31 634.942 1026.68C632.452 1037.06 629.547 1048.06 626.227 1059.68C627.057 1059.68 627.679 1059.68 628.094 1059.68C628.509 1059.68 629.132 1059.68 629.962 1059.68C651.544 1053.87 673.541 1048.06 695.953 1042.25C718.365 1036.44 740.362 1030.63 761.944 1024.81C765.265 1023.98 768.585 1022.74 771.905 1021.08C775.226 1019.42 778.131 1017.34 780.621 1014.85C816.314 979.16 851.8 943.674 887.079 908.396C922.357 873.118 957.843 837.632 993.536 801.939C1020.1 775.376 1046.66 748.814 1073.22 722.251C1099.79 695.689 1126.35 669.126 1152.91 642.564C1154.57 640.903 1155.61 639.451 1156.02 638.206C1156.44 636.961 1155.4 635.093 1152.91 632.603C1142.12 621.812 1131.33 611.021 1120.54 600.23C1109.75 589.439 1098.96 578.648 1088.17 567.857ZM92.0713 381.089C124.444 381.089 156.61 381.296 188.568 381.711C220.526 382.127 252.691 381.919 285.064 381.089C305.816 381.089 324.286 376.939 340.472 368.638C356.659 360.337 369.732 346.641 379.693 327.549C384.674 319.248 388.202 310.74 390.277 302.024C392.352 293.308 393.39 283.97 393.39 274.009C393.39 246.616 393.39 219.016 393.39 191.209C393.39 163.401 393.39 135.386 393.39 107.163C393.39 106.333 393.182 105.503 392.767 104.673C392.352 103.843 392.145 102.183 392.145 99.6925C366.412 122.935 340.265 146.592 313.702 170.664C287.97 193.906 262.03 217.149 235.882 240.391C209.735 263.633 183.795 286.875 158.062 310.117C132.33 333.359 106.598 356.187 80.8652 378.599C80.8652 379.429 81.0728 380.051 81.4878 380.466C81.9028 380.881 82.1104 381.089 82.1104 381.089C83.7705 381.089 85.4307 381.089 87.0908 381.089C88.751 381.089 90.4111 381.089 92.0713 381.089ZM1245.05 491.904C1236.75 482.773 1228.45 474.058 1220.15 465.757C1211.85 457.456 1203.13 449.155 1194 440.855C1186.53 433.384 1177.4 429.648 1166.61 429.648C1155.82 429.648 1146.27 432.969 1137.97 439.609C1131.33 444.59 1125.1 449.985 1119.29 455.796C1113.48 461.607 1107.67 467.417 1101.86 473.228C1120.12 491.489 1138.38 509.751 1156.65 528.013C1174.91 546.274 1193.17 564.121 1211.43 581.553C1216.41 576.572 1221.81 571.592 1227.62 566.611C1233.43 561.631 1238.82 556.235 1243.8 550.425C1252.11 541.294 1256.26 531.541 1256.26 521.165C1256.26 510.789 1252.52 501.035 1245.05 491.904Z" fill="#64728C"/>
</g>
<defs>
<clipPath id="clip0_42_1230">
<rect width="1275" height="1329" fill="white"/>
</clipPath>
</defs>
</svg>
