<svg width="1276" height="1275" viewBox="0 0 1276 1275" fill="none" xmlns="http://www.w3.org/2000/svg">
<g clip-path="url(#clip0_40_834)">
<path fill-rule="evenodd" clip-rule="evenodd" d="M955.074 169.875C989.861 169.875 1018.06 196.151 1018.06 228.564C1018.06 260.977 989.861 287.253 955.074 287.253H577.164V1050.2C577.164 1082.62 548.966 1108.89 514.179 1108.89C479.393 1108.89 451.194 1082.62 451.194 1050.2V287.253H73.2838C38.4982 287.253 10.2988 260.977 10.2988 228.564C10.2988 196.151 38.4982 169.875 73.2838 169.875H955.074ZM703.134 639.383C668.347 639.383 640.149 613.108 640.149 580.697C640.149 548.282 668.347 522.007 703.134 522.007H1207.01C1241.8 522.007 1270 548.282 1270 580.697C1270 613.108 1241.8 639.383 1207.01 639.383H1018.06V1050.2C1018.06 1082.62 989.861 1108.89 955.074 1108.89C920.287 1108.89 892.089 1082.62 892.089 1050.2V639.383H703.134Z" fill="#64728C"/>
</g>
<defs>
<clipPath id="clip0_40_834">
<rect width="1276" height="1275" fill="white"/>
</clipPath>
</defs>
</svg>
