<svg width="1274" height="1222" viewBox="0 0 1274 1222" fill="none" xmlns="http://www.w3.org/2000/svg">
<g clip-path="url(#clip0_35_490)">
<path d="M133.068 531.358C96.5885 531.358 65.2905 544.425 39.1743 570.557C13.0581 596.689 0 628.007 0 664.509V1088.85C0 1125.35 13.0581 1156.67 39.1743 1182.8C65.2905 1208.93 96.5885 1222 133.068 1222H292.253C307.176 1222 321.271 1219.51 334.536 1214.53C347.802 1209.56 360.238 1202.92 371.845 1194.62V531.358H133.068ZM1273.48 730.462C1273.48 714.7 1270.37 699.56 1264.15 685.042C1257.93 670.524 1249.43 657.872 1238.65 647.088C1251.09 632.984 1260.42 617.222 1266.64 599.8C1272.85 582.379 1275.13 564.128 1273.48 545.047C1270.16 511.863 1255.03 483.656 1228.08 460.428C1201.14 437.199 1169.84 425.585 1134.19 425.585H807.115C814.577 400.697 823.49 368.135 833.853 327.899C844.217 287.664 849.399 249.295 849.399 212.792C849.399 155.55 830.537 105.774 792.814 63.4644C755.09 21.1548 720.89 0 690.214 0C662.025 0 639.018 5.39233 621.193 16.1771C603.367 26.962 594.04 32.3544 593.211 32.3544C590.724 34.8431 588.444 37.9542 586.371 41.6874C584.299 45.4205 583.262 49.3612 583.262 53.5092V233.947L430.296 564.957L424.078 567.446V1137.38C445.634 1147.34 468.848 1155.01 493.721 1160.4C518.593 1165.79 539.735 1168.49 557.146 1168.49H1044.65C1072.84 1168.49 1098.33 1159.78 1121.13 1142.36C1143.93 1124.94 1158.23 1102.54 1164.04 1075.16C1167.35 1061.89 1168.18 1048.41 1166.52 1034.72C1164.87 1021.03 1161.14 1007.96 1155.33 995.519C1174.4 985.564 1189.95 971.254 1201.97 952.588C1213.99 933.922 1220 912.974 1220 889.745C1220 880.62 1218.96 871.494 1216.89 862.369C1214.82 853.243 1211.71 844.532 1207.56 836.236C1227.46 826.281 1243.42 811.97 1255.44 793.304C1267.47 774.638 1273.48 753.691 1273.48 730.462Z" fill="#64728C"/>
</g>
<defs>
<clipPath id="clip0_35_490">
<rect width="1274" height="1222" fill="white"/>
</clipPath>
</defs>
</svg>
