<svg width="1195" height="1336" viewBox="0 0 1195 1336" fill="none" xmlns="http://www.w3.org/2000/svg">
<g clip-path="url(#clip0_25_128)">
<path d="M597.591 0C406.873 0 250.971 155.902 250.971 346.62C250.971 537.338 406.873 693.24 597.591 693.24C788.308 693.24 944.211 537.338 944.211 346.62C944.211 155.902 788.308 0 597.591 0ZM1192.45 970.232C1183.36 947.527 1171.26 926.337 1157.63 906.66C1088.01 803.732 980.541 735.62 859.451 718.97C844.316 717.457 827.666 720.482 815.556 729.565C751.984 776.487 676.304 800.705 597.594 800.705C518.883 800.705 443.204 776.487 379.631 729.565C367.521 720.482 350.871 715.942 335.736 718.97C214.646 735.62 105.666 803.732 37.5539 906.66C23.9314 926.337 11.8212 949.042 2.74152 970.232C-1.79834 979.315 -0.286024 989.91 4.25384 998.992C16.364 1020.18 31.4988 1041.38 45.1213 1059.54C66.3112 1088.3 89.0163 1114.03 114.749 1138.24C135.939 1159.43 160.156 1179.11 184.377 1198.79C303.951 1288.09 447.746 1335.01 596.081 1335.01C744.416 1335.01 888.211 1288.09 1007.79 1198.79C1032 1180.63 1056.22 1159.43 1077.41 1138.24C1101.63 1114.03 1125.85 1088.29 1147.04 1059.54C1162.18 1039.86 1175.8 1020.18 1187.91 998.992C1195.47 989.91 1196.99 979.312 1192.45 970.232Z" fill="#64728C"/>
</g>
<defs>
<clipPath id="clip0_25_128">
<rect width="1195" height="1336" fill="white"/>
</clipPath>
</defs>
</svg>
