<svg width="1275" height="932" viewBox="0 0 1275 932" fill="none" xmlns="http://www.w3.org/2000/svg">
<g clip-path="url(#clip0_40_755)">
<path fill-rule="evenodd" clip-rule="evenodd" d="M379.846 808.765C379.846 785.048 399.072 765.82 422.788 765.82H1195.75C1219.47 765.82 1238.69 785.048 1238.69 808.765C1238.69 832.478 1219.47 851.705 1195.75 851.705H422.788C399.072 851.705 379.846 832.478 379.846 808.765Z" fill="#64728C"/>
<path fill-rule="evenodd" clip-rule="evenodd" d="M379.846 465.226C379.846 441.508 399.072 422.281 422.788 422.281H1195.75C1219.47 422.281 1238.69 441.508 1238.69 465.226C1238.69 488.939 1219.47 508.166 1195.75 508.166H422.788C399.072 508.166 379.846 488.939 379.846 465.226Z" fill="#64728C"/>
<path fill-rule="evenodd" clip-rule="evenodd" d="M379.846 121.688C379.846 97.9722 399.072 78.7461 422.788 78.7461H1195.75C1219.47 78.7461 1238.69 97.9722 1238.69 121.688C1238.69 145.405 1219.47 164.631 1195.75 164.631H422.788C399.072 164.631 379.846 145.405 379.846 121.688Z" fill="#64728C"/>
<path fill-rule="evenodd" clip-rule="evenodd" d="M0.580078 121.687C0.580078 54.5221 55.0279 0.0742188 122.193 0.0742188C189.358 0.0742188 243.805 54.5221 243.805 121.687C243.805 188.852 189.358 243.3 122.193 243.3C55.0279 243.3 0.580078 188.852 0.580078 121.687ZM122.193 71.5303C94.492 71.5303 72.0361 93.9861 72.0361 121.687C72.0361 149.388 94.492 171.844 122.193 171.844C149.894 171.844 172.349 149.388 172.349 121.687C172.349 93.9861 149.894 71.5303 122.193 71.5303ZM344.119 121.687C344.119 78.2383 379.341 43.0166 422.789 43.0166H1195.75C1239.2 43.0166 1274.42 78.2383 1274.42 121.687C1274.42 165.135 1239.2 200.357 1195.75 200.357H422.789C379.341 200.357 344.119 165.135 344.119 121.687ZM422.789 114.473C418.805 114.473 415.575 117.702 415.575 121.687C415.575 125.671 418.805 128.901 422.789 128.901H1195.75C1199.73 128.901 1202.97 125.671 1202.97 121.687C1202.97 117.702 1199.73 114.473 1195.75 114.473H422.789ZM0.580078 465.228C0.580078 398.06 55.0279 343.613 122.193 343.613C189.358 343.613 243.805 398.06 243.805 465.228C243.805 532.392 189.358 586.836 122.193 586.836C55.0279 586.836 0.580078 532.392 0.580078 465.228ZM122.193 415.066C94.492 415.066 72.0361 437.525 72.0361 465.228C72.0361 492.926 94.492 515.379 122.193 515.379C149.894 515.379 172.349 492.926 172.349 465.228C172.349 437.525 149.894 415.066 122.193 415.066ZM344.119 465.228C344.119 421.778 379.341 386.555 422.789 386.555H1195.75C1239.2 386.555 1274.42 421.778 1274.42 465.228C1274.42 508.674 1239.2 543.896 1195.75 543.896H422.789C379.341 543.896 344.119 508.674 344.119 465.228ZM422.789 458.011C418.805 458.011 415.575 461.243 415.575 465.228C415.575 469.208 418.805 472.44 422.789 472.44H1195.75C1199.73 472.44 1202.97 469.208 1202.97 465.228C1202.97 461.243 1199.73 458.011 1195.75 458.011H422.789ZM0.580078 808.767C0.580078 741.598 55.0279 687.149 122.193 687.149C189.358 687.149 243.805 741.598 243.805 808.767C243.805 875.93 189.358 930.374 122.193 930.374C55.0279 930.374 0.580078 875.93 0.580078 808.767ZM122.193 758.605C94.492 758.605 72.0361 781.064 72.0361 808.767C72.0361 836.464 94.492 858.918 122.193 858.918C149.894 858.918 172.349 836.464 172.349 808.767C172.349 781.064 149.894 758.605 122.193 758.605ZM344.119 808.767C344.119 765.316 379.341 730.094 422.789 730.094H1195.75C1239.2 730.094 1274.42 765.316 1274.42 808.767C1274.42 852.212 1239.2 887.435 1195.75 887.435H422.789C379.341 887.435 344.119 852.212 344.119 808.767ZM422.789 801.55C418.805 801.55 415.575 804.782 415.575 808.767C415.575 812.747 418.805 815.979 422.789 815.979H1195.75C1199.73 815.979 1202.97 812.747 1202.97 808.767C1202.97 804.782 1199.73 801.55 1195.75 801.55H422.789Z" fill="#64728C"/>
</g>
<defs>
<clipPath id="clip0_40_755">
<rect width="1275" height="932" fill="white"/>
</clipPath>
</defs>
</svg>
