<svg width="1149" height="1409" viewBox="0 0 1149 1409" fill="none" xmlns="http://www.w3.org/2000/svg">
<g clip-path="url(#clip0_25_349)">
<g clip-path="url(#clip1_25_349)">
<path d="M177.694 1207.83C124.22 1207.83 86.701 1170.68 86.701 1117.28C86.4532 858.643 86.4532 599.99 86.701 341.325C86.701 299.28 103.602 264.665 136.186 237.884C184.42 198.372 232.722 158.893 280.55 119.01C306.466 97.062 339.502 85.3074 373.469 85.9476C534.588 85.9476 695.706 86.1052 856.825 86.4204C914.016 86.4204 950.217 122.42 950.217 179.561V648.406C950.217 673.937 950.217 699.468 950.217 724.999C979.388 735.13 1008.46 745.768 1036.88 757.723V260.848C1036.88 230.657 1037.32 200.263 1036.88 169.869C1036.24 132.501 1023.49 96.3482 1000.55 66.8306C977.601 37.313 945.699 16.0209 909.622 6.14635C901.611 3.91745 893.499 2.02627 885.59 0H341.392C339.994 0.847816 338.495 1.5172 336.93 1.9925C292.989 7.80114 255.098 26.3077 221.229 54.8106C174.55 94.3228 127.262 132.889 80.3126 171.996C27.2111 216.135 0.170281 273.074 0.170281 341.967C-0.0775936 601.127 -0.0775936 860.162 0.170281 1119.07C0.406888 1218.43 76.6283 1294.31 175.936 1294.31H506.578C506.578 1293.98 506.578 1293.6 506.578 1293.27C492.111 1265.64 480.179 1236.7 468.383 1207.83H177.694Z" fill="#64728C"/>
<path d="M514.182 536.961H774.45C801.085 536.961 820.487 554.894 820.521 579.952C820.555 605.01 801.389 623.348 774.72 623.382H255.13C227.447 623.382 207.809 605.618 207.809 580.222C207.809 554.826 227.481 536.961 255.029 536.961C341.424 537.097 427.809 537.097 514.182 536.961Z" fill="#64728C"/>
<path d="M513.979 408.428H257.091C221.836 408.428 200.677 373.374 217.949 344.06C226.873 328.998 240.596 322.278 258.105 322.312C321.335 322.447 384.588 322.447 447.864 322.312H770.428C797.063 322.312 816.465 340.413 816.566 365.471C816.668 390.529 797.705 408.631 770.664 408.631H513.776L513.979 408.428Z" fill="#64728C"/>
<path d="M824.411 769.746C822.045 770.757 819.498 771.279 816.924 771.279C814.351 771.279 811.804 770.757 809.438 769.746H824.411Z" fill="#3C3C3C"/>
<path d="M849.39 769.746C847.018 770.756 844.466 771.277 841.887 771.277C839.308 771.277 836.755 770.756 834.383 769.746H849.39Z" fill="#3C3C3C"/>
<path d="M1149 1084.05C1147.99 1081.69 1147.47 1079.15 1147.47 1076.57C1147.47 1074 1147.99 1071.46 1149 1069.09V1084.05Z" fill="#383838"/>
<path d="M1149 1109.04C1147.99 1106.68 1147.47 1104.14 1147.47 1101.56C1147.47 1098.99 1147.99 1096.45 1149 1094.08V1109.04Z" fill="#383838"/>
<path d="M1149 1065.38C1147.82 1058.62 1148.26 1051.87 1147.41 1045.12C1143.7 1016.22 1135.82 988.007 1124.02 961.364C1109.98 928.864 1090.55 898.962 1066.56 872.917C1019 820.948 955.751 785.928 886.435 773.191C875.01 771.063 863.416 771.029 851.924 769.813H849.423C844.478 770.894 839.359 770.894 834.415 769.813H824.41C819.477 770.894 814.369 770.894 809.436 769.813H804.467C803.997 770.22 803.399 770.447 802.777 770.455C777.73 770.455 753.664 776.264 730.139 783.964C674.403 802.048 624.725 835.113 586.552 879.536C559.803 910.409 539.157 946.072 525.71 984.632C508.201 1033.87 505.429 1084.59 511.986 1135.83C518.449 1184.71 536.784 1231.27 565.392 1271.45C589.495 1306.21 620.214 1335.88 655.794 1358.77C691.375 1381.67 731.121 1397.33 772.762 1404.88C798.856 1409.64 825.221 1409.17 851.62 1408.26C890.525 1407.04 927.165 1396.81 962.318 1380.9C1011.34 1358.5 1053.95 1324.16 1086.25 1281.05C1118.55 1237.93 1139.51 1187.41 1147.21 1134.1C1148.16 1127.35 1147.68 1120.59 1149 1113.84V1109.04C1147.95 1104.11 1147.95 1099.02 1149 1094.08V1083.95C1147.95 1079.02 1147.95 1073.92 1149 1068.99V1065.38ZM828.703 1338.55C691.673 1338.32 579.589 1225.86 579.69 1088.65C579.985 1022.49 606.495 959.135 653.421 912.453C700.347 865.772 763.868 839.559 830.088 839.551C967.118 839.787 1079.24 952.245 1079.1 1089.46C1078.81 1155.62 1052.3 1218.97 1005.37 1265.65C958.444 1312.33 894.923 1338.55 828.703 1338.55Z" fill="#64728C"/>
<path d="M856.996 1019.89C856.996 1041.06 856.996 1062.27 856.996 1083.45C856.884 1085.37 857.199 1087.29 857.917 1089.08C858.636 1090.86 859.741 1092.47 861.153 1093.78C890.447 1122.73 919.584 1151.8 948.563 1180.98C961.137 1193.61 961.137 1210.76 948.867 1221.5C944.274 1225.61 938.405 1228.01 932.249 1228.3C926.092 1228.59 920.024 1226.75 915.066 1223.09C912.95 1221.42 910.94 1219.61 909.049 1217.69C877.411 1186.11 845.909 1154.43 814.136 1123.13C810.566 1119.82 807.741 1115.8 805.847 1111.32C803.953 1106.85 803.034 1102.02 803.15 1097.16C803.15 1050.42 803.15 1003.64 803.15 956.906C803.15 940.628 814.879 928.605 830.191 928.605C845.503 928.605 857.029 940.662 857.232 956.906C857.097 977.776 856.996 998.782 856.996 1019.89Z" fill="#64728C"/>
</g>
</g>
<defs>
<clipPath id="clip0_25_349">
<rect width="1149" height="1409" fill="white"/>
</clipPath>
<clipPath id="clip1_25_349">
<rect width="1149" height="1409" fill="white"/>
</clipPath>
</defs>
</svg>
