<svg width="1275" height="1275" viewBox="0 0 1275 1275" fill="none" xmlns="http://www.w3.org/2000/svg">
<g clip-path="url(#clip0_40_1117)">
<g clip-path="url(#clip1_40_1117)">
<path d="M341.402 0C341.718 4.53418 342.351 9.01563 342.351 13.5498C342.527 103.987 342.614 194.372 342.614 284.704C342.614 317.34 356.108 330.942 388.419 330.942C480.082 330.942 571.797 330.942 663.46 330.942C673.211 330.942 675.53 333.367 675.477 343.016C675.161 513.522 675.161 683.993 675.477 854.429C675.477 883.426 660.824 898.242 632.15 898.242H44.2763C14.6534 898.242 0.368969 883.743 0.368969 853.743C0.368969 585.805 0.24598 317.832 0 49.8232C0 26.7306 6.43061 9.91192 27.7254 0H341.402Z" fill="#64728C"/>
<path d="M1275 1247.27C1265.09 1268.62 1248.22 1275.11 1225.14 1275C1032.27 1274.42 839.352 1274.68 646.486 1274.68C613.859 1274.68 600.312 1261.24 600.312 1228.87C600.312 1147.57 600.312 1066.27 600.312 984.972C600.312 975.429 602.315 972.266 612.33 972.74C632.571 973.689 652.917 973.795 672.631 967.468C720.069 951.651 749.85 909.473 749.85 857.435C749.85 702.271 750.114 547.16 749.534 391.997C749.534 378.499 753.488 376.18 765.874 376.18C819.375 376.865 872.928 376.18 926.429 376.549C944.983 376.549 942.505 373.754 942.505 393.262C942.505 482.434 942.505 571.624 942.505 660.831C942.505 694.416 955.577 707.596 988.943 707.596H1262.72C1266.88 707.596 1270.99 707.28 1275.16 707.175L1275 1247.27Z" fill="#64728C"/>
<path d="M737.251 0C746.106 5.64136 755.858 10.0174 760.707 20.562C767.032 34.2172 765.556 46.9235 756.385 61.4223C770.986 61.4223 783.952 61.1587 796.866 61.4223C816.738 61.8441 836.662 59.7351 856.376 64.4802C880.126 70.1973 901.331 83.5838 916.71 102.569C932.088 121.554 940.783 145.079 941.449 169.504C942.029 194.811 941.871 220.118 941.449 245.426C941.656 250.399 940.854 255.363 939.092 260.019C937.33 264.674 934.645 268.926 931.198 272.516C927.751 276.107 923.614 278.963 919.035 280.912C914.455 282.862 909.529 283.865 904.552 283.861C899.566 283.848 894.631 282.841 890.038 280.899C885.445 278.957 881.284 276.119 877.8 272.55C874.316 268.981 871.578 264.754 869.745 260.115C867.913 255.476 867.023 250.518 867.128 245.531C866.707 222.702 867.128 199.873 867.128 176.991C867.128 150.63 852.528 136.236 826.436 136.025C804.035 136.025 781.633 136.025 759.389 136.025C757.439 139.821 760.496 141.667 761.445 144.039C765.008 151.867 765.78 160.681 763.631 169.009C761.482 177.337 756.543 184.677 749.638 189.803C742.752 194.947 734.286 197.524 725.702 197.091C717.118 196.658 708.955 193.241 702.621 187.43C681.01 166.868 659.926 145.779 639.369 124.163C636.022 120.853 633.365 116.912 631.552 112.568C629.738 108.224 628.805 103.563 628.805 98.8556C628.805 94.1481 629.738 89.4874 631.552 85.1433C633.365 80.7993 636.022 76.8583 639.369 73.5486C659.873 51.8267 681.273 31.0011 702.621 10.281C707.176 6.38254 712.101 2.93915 717.327 0L737.251 0Z" fill="#64728C"/>
<path d="M396.75 1213.26C373.347 1213.26 351.472 1213.26 329.598 1213.26C259.441 1212.94 212.16 1165.49 212.055 1095.27C212.055 1074.18 212.055 1053.09 212.055 1032C212.055 1007.8 227.341 991.085 248.952 990.927C270.563 990.769 286.428 1007.38 286.534 1031.42C286.534 1053.77 286.534 1076.18 286.534 1098.59C286.534 1123 301.556 1138.34 325.75 1138.66C348.89 1138.97 372.029 1138.66 396.223 1138.66C391.268 1127.8 387.052 1118.09 389.951 1107.02C397.014 1079.34 429.641 1068.01 450.62 1087.3C472.916 1107.81 494 1129.48 514.873 1151.42C518.173 1154.76 520.781 1158.73 522.546 1163.09C524.311 1167.45 525.2 1172.11 525.161 1176.81C525.122 1181.51 524.155 1186.16 522.318 1190.49C520.48 1194.81 517.807 1198.74 514.451 1202.03C494.105 1223.12 473.232 1244.21 452.043 1264.45C445.818 1270.68 437.544 1274.43 428.76 1275.02C419.976 1275.6 411.279 1272.97 404.288 1267.62C397.197 1262.45 392.177 1254.93 390.129 1246.4C388.081 1237.87 389.139 1228.88 393.113 1221.06C394.115 1218.9 395.011 1217.11 396.75 1213.26Z" fill="#64728C"/>
<path d="M666.882 256.499H428.475C422.414 256.499 416.721 258.239 416.774 247.694C417.301 169.295 417.037 90.9486 417.09 12.5495C417.264 10.5673 417.545 8.59607 417.933 6.64453L664.141 257.711L666.882 256.499Z" fill="#64728C"/>
<path d="M1261.82 632.675C1185.92 632.675 1105.54 632.675 1025.15 632.675C1019.88 632.675 1016.88 631.779 1016.93 625.346C1016.93 545.366 1016.93 465.385 1016.93 385.404C1016.93 385.404 1017.46 384.877 1017.77 384.613L1261.82 632.675Z" fill="#64728C"/>
</g>
</g>
<defs>
<clipPath id="clip0_40_1117">
<rect width="1275" height="1275" fill="white"/>
</clipPath>
<clipPath id="clip1_40_1117">
<rect width="1275" height="1275" fill="white"/>
</clipPath>
</defs>
</svg>
