<svg width="1273" height="1273" viewBox="0 0 1273 1273" fill="none" xmlns="http://www.w3.org/2000/svg">
<g clip-path="url(#clip0_39_638)">
<path d="M909.806 800.629H852.306L831.926 780.977C903.255 698.003 946.198 590.282 946.198 473.099C946.198 211.803 734.395 0 473.099 0C211.803 0 0 211.803 0 473.099C0 734.395 211.803 946.198 473.099 946.198C590.282 946.198 698.003 903.255 780.977 831.926L800.629 852.306V909.806L1164.55 1273L1273 1164.55L909.806 800.629ZM473.099 800.629C291.866 800.629 145.569 654.332 145.569 473.099C145.569 291.866 291.866 145.569 473.099 145.569C654.332 145.569 800.629 291.866 800.629 473.099C800.629 654.332 654.332 800.629 473.099 800.629Z" fill="#64728C"/>
</g>
<defs>
<clipPath id="clip0_39_638">
<rect width="1273" height="1273" fill="white"/>
</clipPath>
</defs>
</svg>
