<svg width="1215" height="1326" viewBox="0 0 1215 1326" fill="none" xmlns="http://www.w3.org/2000/svg">
<g clip-path="url(#clip0_25_204)">
<path d="M1173.58 220.906C1173.58 320.038 1093.22 400.402 994.091 400.402C894.959 400.402 814.605 320.038 814.605 220.906C814.605 121.784 894.959 41.4199 994.091 41.4199C1093.22 41.4199 1173.58 121.784 1173.58 220.906Z" fill="#64728C"/>
<path d="M994.094 441.823C872.258 441.823 773.188 342.742 773.188 220.906C773.188 99.0806 872.26 0 994.094 0C1115.93 0 1215 99.0806 1215 220.906C1215 342.742 1115.93 441.823 994.094 441.823ZM994.094 82.8411C917.937 82.8411 856.029 144.811 856.029 220.906C856.029 297.011 917.937 358.982 994.094 358.982C1070.25 358.982 1132.16 297.011 1132.16 220.906C1132.16 144.811 1070.25 82.8411 994.094 82.8411ZM1173.58 1104.55C1173.58 1203.67 1093.23 1284.04 994.094 1284.04C894.961 1284.04 814.608 1203.67 814.608 1104.55C814.608 1005.42 894.961 925.056 994.094 925.056C1093.23 925.056 1173.58 1005.42 1173.58 1104.55Z" fill="#64728C"/>
<path d="M994.095 1325.46C872.259 1325.46 773.189 1226.38 773.189 1104.55C773.189 982.717 872.262 883.636 994.095 883.636C1115.93 883.636 1215 982.717 1215 1104.55C1215 1226.38 1115.93 1325.46 994.095 1325.46ZM994.095 966.477C917.938 966.477 856.03 1028.45 856.03 1104.55C856.03 1180.65 917.938 1242.62 994.095 1242.62C1070.25 1242.62 1132.16 1180.65 1132.16 1104.55C1132.16 1028.45 1070.25 966.477 994.095 966.477ZM400.404 662.73C400.404 761.862 320.04 842.216 220.908 842.216C121.786 842.216 41.4219 761.862 41.4219 662.73C41.4219 563.597 121.786 483.244 220.908 483.244C320.04 483.244 400.404 563.597 400.404 662.73Z" fill="#64728C"/>
<path d="M220.906 883.637C99.0806 883.637 0 784.564 0 662.73C0 540.897 99.0806 441.824 220.906 441.824C342.742 441.824 441.823 540.897 441.823 662.73C441.823 784.564 342.742 883.637 220.906 883.637ZM220.906 524.665C144.749 524.665 82.8411 586.625 82.8411 662.73C82.8411 738.836 144.749 800.796 220.906 800.796C297.074 800.796 358.982 738.836 358.982 662.73C358.982 586.625 297.074 524.665 220.906 524.665Z" fill="#64728C"/>
<path d="M351.302 636.226C332.078 636.226 313.41 626.223 303.249 608.334C288.169 581.882 297.453 548.135 323.908 532.998L836.358 240.848C862.81 225.66 896.555 234.943 911.691 261.499C926.771 287.951 917.49 321.699 891.033 336.835L378.575 628.985C370.271 633.735 360.869 636.231 351.302 636.226ZM863.7 1091.85C854.417 1091.85 845.033 1089.52 836.415 1084.61L323.962 792.462C297.505 777.385 288.234 743.637 303.311 717.125C318.326 690.619 352.125 681.286 378.64 696.475L891.098 988.624C917.552 1003.7 926.823 1037.45 911.746 1063.96C901.533 1081.85 882.865 1091.85 863.703 1091.85H863.7Z" fill="#64728C"/>
</g>
<defs>
<clipPath id="clip0_25_204">
<rect width="1215" height="1326" fill="white"/>
</clipPath>
</defs>
</svg>
