<svg width="1275" height="1275" viewBox="0 0 1275 1275" fill="none" xmlns="http://www.w3.org/2000/svg">
<g clip-path="url(#clip0_38_509)">
<path d="M906.866 906.866L957.747 823.063L670.423 649.472V317.253H574.648V700.352L906.866 906.866ZM637.5 0C725.293 0 807.6 16.9601 884.419 50.8802C962.236 83.8027 1030.08 129.196 1087.94 187.06C1145.8 244.924 1191.2 312.764 1224.12 390.581C1258.04 467.4 1275 549.707 1275 637.5C1275 725.293 1258.04 807.6 1224.12 884.419C1191.2 962.236 1145.8 1030.08 1087.94 1087.94C1030.08 1145.8 962.236 1191.2 884.419 1224.12C807.6 1258.04 725.293 1275 637.5 1275C549.707 1275 467.4 1258.04 390.581 1224.12C312.764 1191.2 244.924 1145.8 187.06 1087.94C129.196 1030.08 83.8028 962.236 50.8803 884.419C16.9601 807.6 0 725.293 0 637.5C0 549.707 16.9601 467.4 50.8803 390.581C83.8028 312.764 129.196 244.924 187.06 187.06C244.924 129.196 312.764 83.8027 390.581 50.8802C467.4 16.9601 549.707 0 637.5 0Z" fill="#64728C"/>
</g>
<defs>
<clipPath id="clip0_38_509">
<rect width="1275" height="1275" fill="white"/>
</clipPath>
</defs>
</svg>
