<svg width="1446" height="1275" viewBox="0 0 1446 1275" fill="none" xmlns="http://www.w3.org/2000/svg">
<g clip-path="url(#clip0_40_1012)">
<g clip-path="url(#clip1_40_1012)">
<path d="M1446 990.35C1274.08 990.35 1102.17 990.35 930.276 990.35C921.157 990.35 916.084 988.806 912.223 978.916C867.257 863.027 789.606 775.779 680.188 716.437C674.379 713.312 669.158 712.135 674.747 703.201C747.251 583.378 852.256 513.926 991.75 497.528C999.103 495.579 1007.19 496.939 1015.21 492.27C1015.76 492.27 1012.74 491.204 1013.92 492.638C1012.36 493.996 1010.37 494.765 1008.3 494.812C1006.24 494.859 1004.22 494.181 1002.6 492.895C902.811 484.034 811.409 400.279 791.187 299.134C759.273 139.97 879.207 -3.34693 1041.42 -0.0011533C1160.69 2.46222 1264.26 96.5853 1278.57 215.489C1295.26 354.358 1200.25 476.019 1060.65 493.52C1064.33 497.38 1068.96 496.829 1073 497.197C1268.38 516.536 1421.15 667.611 1443.43 863.541C1443.69 865.711 1443.14 868.247 1446 869.203V990.35Z" fill="#64728C"/>
<path d="M384.91 779.457C251.888 760.596 156.956 646.582 165.817 514.957C170.074 452.296 197.969 393.589 243.86 350.71C289.751 307.832 350.213 283.98 413.018 283.98C475.824 283.98 536.286 307.832 582.177 350.71C628.068 393.589 655.963 452.296 660.22 514.957C669.191 646.435 574.48 759.971 439.619 777.913C452.304 783.612 464.805 782.325 476.607 784.053C651.8 809.79 794.933 952.887 820.78 1127.68C827.656 1174.3 824.972 1220.99 825.964 1267.68C825.964 1273.13 824.2 1275.04 818.905 1274.56C816.162 1274.41 813.413 1274.41 810.669 1274.56C545.655 1274.56 280.652 1274.66 15.6617 1274.85C3.30805 1274.85 -0.11126 1272.06 0.146107 1259.45C1.13881 1209.63 -1.03043 1159.88 8.30833 1110.36C38.1997 951.6 175.082 815.195 333.694 787.583C350.717 784.568 367.85 782.178 384.91 779.457Z" fill="#64728C"/>
</g>
</g>
<defs>
<clipPath id="clip0_40_1012">
<rect width="1446" height="1275" fill="white"/>
</clipPath>
<clipPath id="clip1_40_1012">
<rect width="1446" height="1275" fill="white"/>
</clipPath>
</defs>
</svg>
