<svg width="1453" height="991" viewBox="0 0 1453 991" fill="none" xmlns="http://www.w3.org/2000/svg">
<g clip-path="url(#clip0_24_82)">
<path d="M726.5 0C396.273 0 114.259 205.467 0 495.5C114.259 785.533 396.273 991 726.5 991C1056.73 991 1338.74 785.533 1453 495.5C1338.74 205.467 1056.73 0 726.5 0ZM726.5 825.833C544.215 825.833 396.273 677.844 396.273 495.5C396.273 313.156 544.215 165.167 726.5 165.167C908.785 165.167 1056.73 313.156 1056.73 495.5C1056.73 677.844 908.785 825.833 726.5 825.833ZM726.5 297.3C616.865 297.3 528.364 385.829 528.364 495.5C528.364 605.171 616.865 693.7 726.5 693.7C836.135 693.7 924.636 605.171 924.636 495.5C924.636 385.829 836.135 297.3 726.5 297.3Z" fill="#64728C"/>
</g>
<defs>
<clipPath id="clip0_24_82">
<rect width="1453" height="991" fill="white"/>
</clipPath>
</defs>
</svg>
