<svg width="1276" height="1275" viewBox="0 0 1276 1275" fill="none" xmlns="http://www.w3.org/2000/svg">
<g clip-path="url(#clip0_23_58)">
<path d="M700.216 144.792C925.92 173.183 1102.65 349.915 1131.04 575.62C1135.3 611.818 1165.82 638.08 1201.31 638.08C1204.15 638.08 1206.99 638.08 1209.83 637.37C1248.86 632.401 1276.54 596.913 1271.57 557.876C1254.14 416.927 1190.14 285.837 1089.71 185.412C989.288 84.9865 858.199 20.9794 717.25 3.54902C678.214 -0.709579 642.725 26.9713 638.467 66.0084C633.499 105.046 661.179 140.534 700.216 144.792ZM727.187 294.553C689.57 284.616 650.533 307.329 640.596 345.656C630.659 383.983 653.372 422.311 691.699 432.248C728.424 441.781 761.934 460.954 788.763 487.783C815.592 514.612 834.765 548.122 844.298 584.847C849.026 603.093 860.796 618.72 877.029 628.299C893.261 637.879 912.631 640.631 930.889 635.95C968.506 626.014 991.219 586.976 981.992 549.359C966.001 488.072 933.962 432.156 889.176 387.369C844.389 342.582 788.473 310.544 727.187 294.553ZM1150.91 869.463L970.635 848.88C949.438 846.39 927.951 848.737 907.79 855.744C887.629 862.751 869.319 874.236 854.234 889.337L723.638 1019.93C522.165 917.439 358.399 753.672 255.905 552.198L387.211 420.891C417.731 390.371 432.636 347.785 427.668 304.49L407.084 125.629C403.075 90.9985 386.463 59.0543 360.415 35.8855C334.366 12.7166 300.703 -0.0567863 265.842 0.000189788H143.053C62.8499 0.000189788 -3.86776 66.7182 1.10057 146.922C38.718 753.062 523.485 1237.12 1128.91 1274.74C1209.12 1279.71 1275.83 1212.99 1275.83 1132.79V1010C1276.54 938.31 1222.6 877.98 1150.91 869.463Z" fill="#64728C"/>
</g>
<defs>
<clipPath id="clip0_23_58">
<rect width="1276" height="1275" fill="white"/>
</clipPath>
</defs>
</svg>
