<svg width="3062" height="3062" viewBox="0 0 3062 3062" fill="none" xmlns="http://www.w3.org/2000/svg">
<path d="M1971 1111H1091C1012.03 1111 948 1168.12 948 1238.58V2000.43C948 2070.88 1012.03 2128 1091 2128H1971C2049.97 2128 2114 2070.88 2114 2000.43V1238.58C2114 1168.12 2049.97 1111 1971 1111Z" stroke="#64728C" stroke-width="100" stroke-miterlimit="10"/>
<path d="M1288 954V1250.5" stroke="#64728C" stroke-width="100" stroke-miterlimit="10" stroke-linecap="round"/>
<path d="M1774.2 954V1250.5" stroke="#64728C" stroke-width="100" stroke-miterlimit="10" stroke-linecap="round"/>
<path d="M1530.8 1569.2C1594.2 1569.2 1645.6 1517.8 1645.6 1454.4C1645.6 1391 1594.2 1339.6 1530.8 1339.6C1467.4 1339.6 1416 1391 1416 1454.4C1416 1517.8 1467.4 1569.2 1530.8 1569.2Z" stroke="#64728C" stroke-width="100" stroke-miterlimit="10"/>
<path d="M1530.9 1661.8C1712.29 1661.8 1859.3 1808.82 1859.3 1990.2V1990.4C1859.3 1998.79 1852.48 2005.6 1844.1 2005.6H1785.7C1777.34 2005.6 1770.4 1998.81 1770.4 1990.3C1770.4 1857.99 1663.21 1750.8 1530.9 1750.8C1398.59 1750.8 1291.4 1858.08 1291.4 1990.3V1994.8H1290.62C1288.7 2000.99 1282.92 2005.5 1276.1 2005.5H1217.7C1209.29 2005.5 1202.5 1998.66 1202.5 1990.2C1202.5 1808.82 1349.52 1661.8 1530.9 1661.8Z" fill="#64728C" stroke="#64728C" stroke-width="9"/>
</svg>
