<svg width="3062" height="3062" viewBox="0 0 3062 3062" fill="none" xmlns="http://www.w3.org/2000/svg">
<path d="M1943.71 1020.5H1825.79V956.75C1825.79 921.548 1799.39 893 1766.83 893C1734.28 893 1707.88 921.548 1707.88 956.75V1020.5H1354.16V956.75C1354.16 921.548 1327.76 893 1295.21 893C1262.65 893 1236.24 921.548 1236.24 956.75V1020.5H1118.33C1020.66 1020.5 941.471 1106.13 941.471 1211.75V1976.75C941.471 2082.37 1020.66 2168 1118.33 2168H1943.71C2041.37 2168 2120.54 2082.37 2120.54 1976.75V1211.75C2120.54 1106.13 2041.37 1020.5 1943.71 1020.5ZM2002.66 1960.81C2002.66 2004.82 1976.26 2040.5 1943.71 2040.5H1118.33C1085.84 2040.5 1059.38 2004.82 1059.38 1960.81V1403H2002.66V1960.81ZM2002.66 1403H1059.38V1211.75C1059.38 1176.55 1085.77 1148 1118.33 1148H1236.24V1211.75C1236.24 1246.95 1262.63 1275.5 1295.21 1275.5C1327.78 1275.5 1354.16 1246.95 1354.16 1211.75V1148H1707.88V1211.75C1707.88 1246.95 1734.28 1275.5 1766.83 1275.5C1799.39 1275.5 1825.79 1246.95 1825.79 1211.75V1148H1943.71C1976.2 1148 2002.66 1176.55 2002.66 1211.75V1403Z" fill="#64728C"/>
<path d="M1531 1576.42C1622.3 1576.42 1696.23 1501.58 1696.23 1409.31C1696.23 1317.05 1622.3 1242.05 1531 1242.05C1439.71 1242.05 1365.8 1316.97 1365.8 1409.24C1365.8 1501.5 1439.71 1576.42 1531 1576.42ZM1531 1325.65C1576.64 1325.65 1613.62 1363.08 1613.62 1409.2C1613.62 1455.33 1576.64 1492.76 1531 1492.76C1485.37 1492.76 1448.39 1455.33 1448.39 1409.2C1448.39 1363.08 1485.39 1325.65 1531 1325.65ZM1531 1660.03C1371.31 1660.03 1241.86 1791.01 1241.86 1952.6C1241.75 1958.09 1242.74 1963.55 1244.77 1968.65C1246.8 1973.75 1249.82 1978.4 1253.67 1982.32C1257.51 1986.25 1262.1 1989.36 1267.17 1991.49C1272.23 1993.61 1277.67 1994.71 1283.16 1994.71C1288.65 1994.71 1294.09 1993.61 1299.16 1991.49C1304.22 1989.36 1308.81 1986.25 1312.66 1982.32C1316.5 1978.4 1319.53 1973.75 1321.56 1968.65C1323.58 1963.55 1324.57 1958.09 1324.47 1952.6C1324.47 1837.18 1416.94 1743.61 1531 1743.61C1645.07 1743.61 1737.56 1837.18 1737.56 1952.6C1737.45 1958.09 1738.44 1963.55 1740.47 1968.65C1742.5 1973.75 1745.52 1978.4 1749.37 1982.32C1753.22 1986.25 1757.81 1989.36 1762.87 1991.49C1767.93 1993.61 1773.37 1994.71 1778.86 1994.71C1784.36 1994.71 1789.79 1993.61 1794.86 1991.49C1799.92 1989.36 1804.51 1986.25 1808.36 1982.32C1812.2 1978.4 1815.23 1973.75 1817.26 1968.65C1819.29 1963.55 1820.28 1958.09 1820.17 1952.6C1820.17 1791.01 1690.7 1660.03 1531 1660.03Z" fill="#64728C"/>
</svg>
