<svg width="3062" height="3062" viewBox="0 0 3062 3062" fill="none" xmlns="http://www.w3.org/2000/svg">
<path d="M1923.8 1111.7H1138.6C1068.13 1111.7 1011 1168.83 1011 1239.3V2001.3C1011 2071.77 1068.13 2128.9 1138.6 2128.9H1923.8C1994.27 2128.9 2051.4 2071.77 2051.4 2001.3V1239.3C2051.4 1168.83 1994.27 1111.7 1923.8 1111.7Z" stroke="#64728C" stroke-width="110.5" stroke-miterlimit="10"/>
<path d="M1290.6 934V1265.1" stroke="#64728C" stroke-width="110.5" stroke-miterlimit="10" stroke-linecap="round"/>
<path d="M1776.8 934V1265.1" stroke="#64728C" stroke-width="110.5" stroke-miterlimit="10" stroke-linecap="round"/>
<path d="M1531.2 1569.8C1594.6 1569.8 1646 1518.4 1646 1455C1646 1391.6 1594.6 1340.2 1531.2 1340.2C1467.8 1340.2 1416.4 1391.6 1416.4 1455C1416.4 1518.4 1467.8 1569.8 1531.2 1569.8Z" stroke="#64728C" stroke-width="100" stroke-miterlimit="10"/>
<path d="M1531.2 1672.4C1712.59 1672.4 1859.6 1819.42 1859.6 2000.8V2001C1859.6 2009.39 1852.79 2016.2 1844.4 2016.2H1786C1777.64 2016.2 1770.7 2009.41 1770.7 2000.9C1770.7 1868.59 1663.52 1761.4 1531.2 1761.4C1398.89 1761.4 1291.7 1868.68 1291.7 2000.9V2005.4H1290.92C1289 2011.59 1283.22 2016.1 1276.4 2016.1H1218C1209.59 2016.1 1202.8 2009.26 1202.8 2000.8C1202.8 1819.42 1349.82 1672.4 1531.2 1672.4Z" fill="#64728C" stroke="#64728C" stroke-width="9"/>
</svg>
