<svg width="3063" height="3063" viewBox="0 0 3063 3063" fill="none" xmlns="http://www.w3.org/2000/svg">
<path d="M2129.13 1523C2086.53 1487.9 2019.13 1484.9 1974.93 1532.3L1865.13 1650.1C1850.93 1604.5 1808.33 1571.3 1758.03 1571.3H1562.13C1547.33 1571.3 1542.33 1565.6 1516.53 1545.7C1418.03 1459.9 1270.13 1460.1 1172.03 1546.5L1099.93 1609.9C1067.63 1592.8 1029.83 1592.4 997.233 1608.6L914.632 1649.9C896.232 1659.1 888.732 1681.6 897.932 1700L1122.03 2148.2C1131.33 2166.7 1153.73 2174.1 1172.23 2164.9L1254.83 2123.6C1295.53 2103.3 1318.13 2061.7 1316.73 2019.5H1758.03C1839.93 2019.5 1918.13 1980.4 1967.23 1914.9L2146.53 1675.8C2181.33 1629.4 2175.83 1561.5 2129.13 1522.9V1523ZM1221.33 2056.8L1172.23 2081.4L981.432 1700L1030.63 1675.4C1049.13 1666.2 1071.53 1673.6 1080.73 1692.1L1238.03 2006.7C1247.33 2025.1 1239.83 2047.6 1221.33 2056.8ZM2086.83 1631L1907.53 1870.1C1872.43 1916.9 1816.53 1944.8 1758.03 1944.8H1290.63L1150.63 1664.8L1221.33 1602.6C1291.73 1540.7 1397.73 1540.7 1468.13 1602.6C1509.53 1639.1 1535.33 1646 1562.13 1646H1758.03C1778.63 1646 1795.43 1662.8 1795.43 1683.4C1795.43 1704 1778.63 1720.8 1758.03 1720.8H1567.33C1546.73 1720.8 1529.93 1737.5 1529.93 1758.2C1529.93 1778.9 1546.73 1795.6 1567.33 1795.6H1783.13C1814.13 1795.6 1844.03 1782.6 1865.13 1759.9L2029.53 1583.4C2044.63 1567.3 2067.63 1568.6 2081.83 1581C2096.53 1593.9 2098.13 1616.1 2086.83 1631.2V1631Z" fill="#64728C" stroke="#64728C" stroke-width="22"/>
<path d="M1679.43 1148.9C1704.93 1122.1 1720.73 1085.8 1720.73 1045.9C1720.73 963.7 1654.33 894 1571.33 894C1488.33 894 1419.43 963.5 1419.43 1045.9C1419.43 1128.3 1467.06 1146.44 1462.13 1149.2C1393.83 1187.5 1344.73 1261 1344.73 1347.2V1384.6C1344.73 1405.2 1361.43 1422 1382.03 1422H1758.03C1778.73 1422 1795.43 1405.3 1795.43 1384.6V1347.2C1795.43 1262.7 1748.93 1188 1679.43 1148.9ZM1571.33 968.7C1611.83 968.7 1646.03 1004.1 1646.03 1045.9C1646.03 1087.7 1612.53 1120.6 1571.33 1120.6C1530.13 1120.6 1494.13 1086.4 1494.13 1045.9C1494.13 1005.4 1530.23 968.7 1571.33 968.7ZM1419.43 1347.2C1419.43 1264.9 1488.93 1195.3 1571.33 1195.3C1653.73 1195.3 1720.73 1263.4 1720.73 1347.2H1419.43Z" fill="#64728C" stroke="#64728C" stroke-width="22"/>
</svg>
