<svg width="3062" height="3062" viewBox="0 0 3062 3062" fill="none" xmlns="http://www.w3.org/2000/svg">
<path d="M2128.58 1522.01C2085.95 1486.87 2018.57 1483.86 1974.34 1531.32L1864.56 1649.17C1850.36 1603.56 1807.76 1570.34 1757.53 1570.34H1561.61C1546.75 1570.34 1541.77 1564.66 1515.94 1544.77C1417.49 1458.93 1269.6 1459.21 1171.44 1545.59L1099.43 1608.99C1067.06 1591.85 1029.26 1591.43 996.711 1607.69L914.115 1648.98C895.662 1658.21 888.194 1680.65 897.405 1699.1L1121.51 2147.32C1130.75 2165.77 1153.19 2173.24 1171.64 2164.03L1254.24 2122.72C1294.95 2102.37 1317.61 2060.84 1316.14 2018.56H1757.53C1839.38 2018.56 1917.59 1979.46 1966.7 1913.97L2146.01 1674.88C2180.8 1628.53 2175.29 1560.58 2128.58 1522.01ZM1220.82 2055.9L1171.64 2080.51L980.923 1699.1L1030.13 1674.5C1048.58 1665.29 1070.99 1672.73 1080.23 1691.21L1237.53 2005.81C1246.74 2024.26 1239.27 2046.67 1220.82 2055.9ZM2086.25 1630.05L1906.94 1869.15C1871.85 1915.94 1816 1943.85 1757.53 1943.85H1290.07L1150.1 1663.89L1220.79 1601.67C1291.14 1539.79 1397.22 1539.79 1467.56 1601.67C1508.99 1638.15 1534.77 1645.04 1561.61 1645.04H1757.53C1778.12 1645.04 1794.88 1661.8 1794.88 1682.39C1794.88 1702.99 1778.12 1719.75 1757.53 1719.75H1566.77C1546.15 1719.75 1529.41 1736.48 1529.41 1757.1C1529.41 1777.71 1546.15 1794.45 1566.77 1794.45H1782.56C1813.56 1794.45 1843.44 1781.45 1864.56 1758.77L2029 1582.24C2044.04 1566.11 2067.1 1567.45 2081.24 1579.83C2096.03 1592.77 2097.63 1614.91 2086.25 1630.05Z" fill="#64728C"/>
<path d="M1678.84 1147.92C1704.42 1121.1 1720.18 1084.85 1720.18 1044.93C1720.18 962.707 1653.75 893.035 1570.78 893.035C1488.43 893.035 1418.88 962.582 1418.88 1044.93C1418.88 1083.63 1434.05 1120.15 1461.59 1148.22C1393.28 1186.52 1344.18 1260.02 1344.18 1346.23V1383.58C1344.18 1404.2 1360.91 1420.93 1381.53 1420.93H1757.53C1778.15 1420.93 1794.88 1404.2 1794.88 1383.58V1346.23C1794.88 1261.72 1748.4 1187.06 1678.84 1147.92ZM1570.78 967.74C1611.26 967.74 1645.48 1003.1 1645.48 1044.93C1645.48 1086.12 1611.96 1119.63 1570.78 1119.63C1528.94 1119.63 1493.58 1085.42 1493.58 1044.93C1493.58 1003.82 1529.66 967.74 1570.78 967.74ZM1418.88 1346.23C1418.88 1263.88 1488.43 1194.34 1570.78 1194.34C1653.15 1194.34 1720.18 1262.46 1720.18 1346.23H1418.88Z" fill="#64728C"/>
</svg>
