<svg width="3062" height="3062" viewBox="0 0 3062 3062" fill="none" xmlns="http://www.w3.org/2000/svg">
<path d="M1870.1 901H1192.8C1028 901 894 1041 894 1213.1V1639.9C894 1812 1028 1952 1192.8 1952H1870.2C2035 1952 2169 1811.9 2169 1639.8V1213.1C2169 1041 2034.9 901 1870.2 901H1870.1ZM2069.3 1639.8C2069.3 1754.6 1979.9 1847.9 1870.1 1847.9H1192.7C1082.9 1847.9 993.5 1754.6 993.5 1639.9V1213.1C993.5 1098.4 1082.9 1005 1192.7 1005H1870C1979.9 1005 2069.2 1098.4 2069.2 1213.1V1639.8H2069.3ZM1820.3 2108.1C1820.3 2136.8 1798 2160.1 1770.5 2160.1H1292.4C1264.9 2160.1 1242.6 2136.8 1242.6 2108.1C1242.6 2079.4 1264.9 2056.1 1292.4 2056.1H1770.5C1798 2056.1 1820.3 2079.3 1820.3 2108.1ZM1771.2 1522.3L1738 1501.5C1744.5 1480.3 1748 1457.7 1748 1434.3C1748 1410.9 1744.5 1388.2 1738 1367L1771.2 1346.2C1794.8 1331.4 1802.4 1299.5 1788.3 1274.8C1774.2 1250.2 1743.5 1242.2 1720 1257L1686.2 1278.2C1659.1 1249.8 1624.7 1229.1 1586.2 1219.4V1174.1C1586.2 1145.4 1563.9 1122.1 1536.4 1122.1C1508.9 1122.1 1486.6 1145.4 1486.6 1174.1V1219.4C1447.3 1229.3 1412.2 1250.8 1384.8 1280.2L1347.8 1257C1324.2 1242.2 1293.6 1250.2 1279.5 1274.8C1265.4 1299.5 1273 1331.4 1296.6 1346.2L1334 1369.6C1328 1390.1 1324.8 1411.8 1324.8 1434.3C1324.8 1456.8 1328 1478.5 1334 1498.9L1296.6 1522.3C1273 1537.1 1265.4 1569.1 1279.5 1593.7C1288.8 1610 1305.3 1619 1322.3 1619C1339.3 1619 1339.8 1616.6 1347.9 1611.6L1384.9 1588.4C1412.3 1617.8 1447.3 1639.2 1486.7 1649.2V1694.4C1486.7 1723.2 1509 1746.5 1536.5 1746.5C1564 1746.5 1586.3 1723.2 1586.3 1694.4V1649.2C1624.8 1639.4 1659.2 1618.8 1686.3 1590.4L1720.1 1611.6C1728.1 1616.6 1737 1619 1745.7 1619C1762.6 1619 1779.1 1610 1788.5 1593.7C1802.6 1569.1 1795 1537.1 1771.4 1522.3H1771.2ZM1536.4 1551.4C1474.6 1551.4 1424.3 1498.8 1424.3 1434.3C1424.3 1369.8 1474.6 1317.2 1536.4 1317.2C1598.2 1317.2 1648.5 1369.7 1648.5 1434.3C1648.5 1498.9 1598.2 1551.4 1536.4 1551.4Z" fill="#64728C" stroke="#64728C" stroke-width="22"/>
</svg>
