<svg width="3062" height="3062" viewBox="0 0 3062 3062" fill="none" xmlns="http://www.w3.org/2000/svg">
<path d="M1869.32 901H1191.98C1027.2 901 893.148 1041.05 893.148 1213.19V1639.9C893.148 1812.01 1027.18 1952.03 1191.92 1952.03H1869.32C2034.09 1952.03 2168.15 1811.98 2168.15 1639.84V1213.19C2168.15 1041.05 2034.09 901 1869.32 901ZM2068.54 1639.84C2068.54 1754.6 1979.17 1847.97 1869.32 1847.97H1191.92C1082.1 1847.97 992.758 1754.63 992.758 1639.9V1213.19C992.758 1098.43 1082.13 1005.06 1191.98 1005.06H1869.32C1979.17 1005.06 2068.54 1098.43 2068.54 1213.19V1639.84ZM1819.52 2108.12C1819.52 2136.86 1797.22 2160.16 1769.71 2160.16H1291.59C1264.08 2160.16 1241.78 2136.86 1241.78 2108.12C1241.78 2079.39 1264.08 2056.09 1291.59 2056.09H1769.71C1797.22 2056.09 1819.52 2079.39 1819.52 2108.12ZM1770.43 1522.38L1737.25 1501.59C1743.76 1480.36 1747.3 1457.77 1747.3 1434.32C1747.3 1410.87 1743.76 1388.28 1737.25 1367.05L1770.43 1346.26C1794.02 1331.47 1801.67 1299.51 1787.51 1274.87C1773.36 1250.23 1742.76 1242.24 1719.18 1257.02L1685.39 1278.21C1658.31 1249.85 1623.9 1229.16 1585.43 1219.43V1174.16C1585.43 1145.43 1563.14 1122.13 1535.63 1122.13C1508.12 1122.13 1485.82 1145.43 1485.82 1174.16V1219.43C1446.48 1229.38 1411.41 1250.83 1384.05 1280.19L1347.09 1257.02C1323.51 1242.24 1292.92 1250.23 1278.76 1274.87C1264.61 1299.51 1272.26 1331.47 1295.84 1346.26L1333.21 1369.68C1327.21 1390.14 1323.96 1411.84 1323.96 1434.32C1323.96 1456.8 1327.21 1478.51 1333.21 1498.96L1295.84 1522.38C1272.26 1537.17 1264.61 1569.13 1278.76 1593.77C1288.1 1610.03 1304.6 1619.04 1321.52 1619.04C1330.24 1619.04 1339.07 1616.64 1347.09 1611.61L1384.05 1588.45C1411.41 1617.81 1446.48 1639.26 1485.82 1649.21V1694.48C1485.82 1723.21 1508.12 1746.51 1535.63 1746.51C1563.14 1746.51 1585.43 1723.21 1585.43 1694.48V1649.21C1623.9 1639.48 1658.31 1618.79 1685.39 1590.43L1719.18 1611.62C1727.21 1616.65 1736.04 1619.04 1744.76 1619.04C1761.68 1619.04 1778.18 1610.03 1787.52 1593.77C1801.67 1569.13 1794.02 1537.17 1770.43 1522.38ZM1535.63 1551.39C1473.84 1551.39 1423.57 1498.87 1423.57 1434.32C1423.57 1369.77 1473.84 1317.25 1535.63 1317.25C1597.42 1317.25 1647.69 1369.77 1647.69 1434.32C1647.69 1498.87 1597.42 1551.39 1535.63 1551.39Z" fill="#64728C"/>
</svg>
