<svg width="3063" height="3062" viewBox="0 0 3063 3062" fill="none" xmlns="http://www.w3.org/2000/svg">
<path d="M2029.2 1564.4H1891.3C1872.5 1564.4 1854.4 1567 1837.1 1571.7C1803 1504.7 1733.3 1458.6 1653.1 1458.6H1409.4C1329.2 1458.6 1259.5 1504.7 1225.4 1571.7C1208.1 1567 1189.9 1564.4 1171.2 1564.4H1033.3C919.5 1564.4 827 1657 827 1770.7V1991.1C827 2059.4 882.5 2114.9 950.8 2114.9H2111.8C2180.1 2114.9 2235.6 2059.4 2235.6 1991.1V1770.7C2235.6 1656.9 2143 1564.4 2029.3 1564.4H2029.2ZM1203 1664.9V2032.4H950.7C927.9 2032.4 909.4 2013.9 909.4 1991.1V1770.7C909.4 1702.4 964.9 1646.9 1033.2 1646.9H1171.1C1182.3 1646.9 1193.1 1648.4 1203.5 1651.2C1203.2 1655.7 1203 1660.2 1203 1664.8V1664.9ZM1776.9 2032.5H1285.6V1665C1285.6 1596.7 1341.1 1541.2 1409.4 1541.2H1653.1C1721.4 1541.2 1776.9 1596.7 1776.9 1665V2032.5ZM2153 1991.2C2153 2014 2134.5 2032.5 2111.7 2032.5H1859.4V1665C1859.4 1660.4 1859.2 1655.9 1858.9 1651.4C1869.2 1648.6 1880.1 1647.1 1891.3 1647.1H2029.2C2097.5 1647.1 2153 1702.6 2153 1770.9V1991.3V1991.2Z" fill="#64728C" stroke="#64728C" stroke-width="10"/>
<path d="M1102.2 1174.7C1001.1 1174.7 918.801 1257 918.801 1358.1C918.801 1459.2 1001 1541.5 1102.2 1541.5C1203.4 1541.5 1285.6 1459.2 1285.6 1358.1C1285.6 1257 1203.4 1174.7 1102.2 1174.7ZM1102.2 1458.9C1046.6 1458.9 1001.4 1413.7 1001.4 1358.1C1001.4 1302.5 1046.6 1257.3 1102.2 1257.3C1157.8 1257.3 1203 1302.5 1203 1358.1C1203 1413.7 1157.8 1458.9 1102.2 1458.9Z" fill="#64728C" stroke="#64728C" stroke-width="10"/>
<path d="M1531.2 947C1396.1 947 1286.2 1056.9 1286.2 1192C1286.2 1327.1 1396.1 1437 1531.2 1437C1666.3 1437 1776.2 1327.1 1776.2 1192C1776.2 1056.9 1666.3 947 1531.2 947ZM1531.2 1354.4C1441.6 1354.4 1368.8 1281.5 1368.8 1192C1368.8 1102.5 1441.7 1029.6 1531.2 1029.6C1620.7 1029.6 1693.6 1102.5 1693.6 1192C1693.6 1281.5 1620.7 1354.4 1531.2 1354.4Z" fill="#64728C" stroke="#64728C" stroke-width="10"/>
<path d="M1960.3 1174.7C1859.2 1174.7 1776.9 1257 1776.9 1358.1C1776.9 1459.2 1859.1 1541.5 1960.3 1541.5C2061.5 1541.5 2143.6 1459.2 2143.6 1358.1C2143.6 1257 2061.4 1174.7 1960.3 1174.7ZM1960.3 1458.9C1904.7 1458.9 1859.5 1413.7 1859.5 1358.1C1859.5 1302.5 1904.7 1257.3 1960.3 1257.3C2015.9 1257.3 2061.1 1302.5 2061.1 1358.1C2061.1 1413.7 2015.9 1458.9 1960.3 1458.9Z" fill="#64728C" stroke="#64728C" stroke-width="10"/>
</svg>
