<svg width="3063" height="3063" viewBox="0 0 3063 3063" fill="none" xmlns="http://www.w3.org/2000/svg">
<path d="M2139.8 1140.11C2135.2 1128.91 2127.4 1119.31 2117.3 1112.51C2107.3 1105.71 2095.4 1102.11 2083.3 1102.01H1960.6V979.309C1960.6 967.209 1956.9 955.409 1950.1 945.309C1943.3 935.309 1933.7 927.409 1922.5 922.809C1911.3 918.109 1899 916.809 1887.1 919.109C1875.2 921.409 1864.2 927.209 1855.6 935.709L1671.6 1119.71C1665.9 1125.41 1661.4 1132.21 1658.4 1139.71C1655.3 1147.21 1653.8 1155.21 1653.8 1163.21V1322.11L1518.3 1457.01C1512.5 1462.71 1508 1469.51 1504.9 1477.01C1501.8 1484.51 1500.2 1492.51 1500.2 1500.61C1500.2 1508.71 1501.8 1516.71 1504.9 1524.21C1508 1531.71 1512.6 1538.51 1518.3 1544.21C1524 1550.01 1530.8 1554.51 1538.3 1557.61C1545.8 1560.71 1553.8 1562.31 1561.9 1562.31C1570 1562.31 1578 1560.71 1585.5 1557.61C1593 1554.51 1599.8 1549.91 1605.5 1544.21L1740.4 1408.61H1899.2C1907.3 1408.61 1915.3 1407.11 1922.8 1404.11C1930.3 1401.01 1937.1 1396.51 1942.8 1390.91L2126.8 1206.91C2135.3 1198.31 2141.1 1187.31 2143.4 1175.41C2145.7 1163.51 2144.4 1151.21 2139.7 1140.01L2139.8 1140.11Z" fill="#64728C"/>
<path d="M1531.3 2144.81C1368.6 2144.81 1212.6 2080.21 1097.6 1965.21C982.6 1850.21 918 1694.21 918 1531.51C918 1368.81 982.6 1212.81 1097.6 1097.81C1212.6 982.809 1368.6 918.209 1531.3 918.209H1557.1C1565.2 918.909 1573 921.209 1580.1 925.009C1587.3 928.809 1593.6 933.909 1598.8 940.109C1604 946.309 1607.9 953.509 1610.3 961.209C1612.7 968.909 1613.6 977.009 1612.9 985.109C1612.2 993.209 1609.9 1001.01 1606.1 1008.21C1602.3 1015.41 1597.2 1021.71 1591 1026.91C1584.8 1032.11 1577.6 1036.01 1569.9 1038.41C1562.2 1040.81 1554.1 1041.71 1546 1040.91H1531.3C1434.3 1040.91 1339.4 1069.71 1258.7 1123.61C1178 1177.51 1115.1 1254.21 1078 1343.81C1040.9 1433.51 1031.1 1532.11 1050.1 1627.31C1069 1722.51 1115.8 1809.91 1184.4 1878.51C1253 1947.11 1340.4 1993.91 1435.6 2012.81C1530.8 2031.71 1629.4 2022.01 1719.1 1984.91C1808.8 1947.81 1885.4 1884.91 1939.3 1804.21C1993.2 1723.51 2022 1628.61 2022 1531.61C2022.3 1526.71 2022.3 1521.81 2022 1516.91C2021.2 1508.81 2022 1500.71 2024.5 1493.01C2026.9 1485.31 2030.8 1478.11 2036 1471.91C2041.2 1465.71 2047.6 1460.61 2054.7 1456.81C2061.9 1453.11 2069.7 1450.81 2077.8 1450.11C2085.9 1449.31 2094 1450.11 2101.7 1452.61C2109.4 1455.01 2116.6 1458.91 2122.8 1464.11C2129 1469.31 2134.1 1475.61 2137.9 1482.81C2141.6 1490.01 2143.9 1497.81 2144.6 1505.91V1531.71C2144.6 1694.41 2080 1850.41 1965 1965.41C1850 2080.41 1694 2145.01 1531.3 2145.01V2144.81ZM1892 1605.01C1895.2 1588.71 1892 1571.81 1882.7 1558.01C1873.5 1544.21 1859.2 1534.61 1842.9 1531.41C1826.6 1528.21 1809.7 1531.41 1795.9 1540.71C1782.1 1549.91 1772.5 1564.21 1769.3 1580.51C1760.5 1624.11 1740 1664.41 1710.1 1697.31C1680.1 1730.11 1641.8 1754.21 1599.2 1767.01C1556.6 1779.71 1511.4 1780.71 1468.3 1769.71C1425.2 1758.71 1385.9 1736.31 1354.6 1704.71C1323.3 1673.11 1301.2 1633.71 1290.6 1590.51C1280 1547.31 1281.3 1502.11 1294.4 1459.61C1307.5 1417.11 1331.9 1379.01 1365 1349.31C1398.1 1319.61 1438.6 1299.51 1482.2 1291.01C1498.5 1287.81 1512.8 1278.21 1522 1264.41C1531.2 1250.61 1534.5 1233.71 1531.3 1217.41C1528.1 1201.11 1518.5 1186.81 1504.7 1177.61C1490.9 1168.41 1474 1165.11 1457.7 1168.31C1392.6 1181.61 1332.3 1212.31 1283.2 1257.21C1234.1 1302.01 1198.1 1359.31 1179 1423.01C1159.9 1486.71 1158.3 1554.31 1174.6 1618.81C1190.8 1683.31 1224.2 1742.11 1271.2 1789.11C1318.2 1836.11 1377.1 1869.51 1441.5 1885.71C1506 1901.91 1573.6 1900.41 1637.3 1881.31C1701 1862.21 1758.3 1826.21 1803.1 1777.11C1847.9 1728.01 1878.6 1667.71 1892 1602.61V1605.01Z" fill="#64728C"/>
</svg>
