<svg width="3062" height="3062" viewBox="0 0 3062 3062" fill="none" xmlns="http://www.w3.org/2000/svg">
<path d="M1613.44 928.737C1613.44 928.737 848.828 840.769 945.441 1662.27C945.441 1662.27 998.158 2176.31 1613.44 2132.33C1613.44 2132.33 2202.48 2075.23 2116.41 1454.39" stroke="#64728C" stroke-width="100" stroke-miterlimit="10" stroke-linecap="round"/>
<path d="M1581.65 1543.8L1731.55 1393.9C1740.25 1385.2 1752.15 1380.2 1764.55 1380.2H1899.55C1911.95 1380.2 1923.75 1375.3 1932.55 1366.5L2111.25 1187.8C2140.65 1158.4 2119.85 1108.2 2078.25 1108.2H1959.25L1959.65 1108.7V989.702C1959.65 948.202 1909.45 927.402 1880.05 956.702L1701.35 1135.4C1692.65 1144.1 1687.65 1156 1687.65 1168.4V1303.4C1687.65 1315.8 1682.75 1327.6 1673.95 1336.4L1525.55 1484.8C1515.45 1494.9 1510.35 1509.1 1512.25 1523.3C1514.15 1537.5 1522.25 1555.9 1546.95 1557.2C1571.65 1558.5 1572.45 1552.7 1581.55 1543.6L1581.65 1543.8Z" fill="#64728C"/>
<path d="M1584.05 1144.3C1584.05 1144.3 1093.35 1087.8 1155.45 1615.2C1155.45 1615.2 1189.25 1945.2 1584.05 1917C1584.05 1917 1962.05 1880.3 1906.75 1481.8" stroke="#64728C" stroke-width="100" stroke-miterlimit="10" stroke-linecap="round"/>
</svg>
