<svg width="3062" height="3062" viewBox="0 0 3062 3062" fill="none" xmlns="http://www.w3.org/2000/svg">
<path d="M1939.2 1531.9C1939.2 1750.2 1762.2 1927.1 1544 1927.1C1325.8 1927.1 1148.8 1750.1 1148.8 1531.9C1148.8 1313.7 1325.8 1136.7 1544 1136.7" stroke="#64728C" stroke-width="100" stroke-miterlimit="10" stroke-linecap="round"/>
<path d="M2132.8 1448.9C2136.6 1476 2138.5 1503.7 2138.5 1531.9C2138.5 1860.3 1872.3 2126.5 1543.9 2126.5C1215.5 2126.5 949.301 1860.3 949.301 1531.9C949.301 1203.5 1215.5 937.301 1543.9 937.301" stroke="#64728C" stroke-width="100" stroke-miterlimit="10" stroke-linecap="round"/>
<path d="M1581.7 1543.8L1731.6 1393.9C1740.3 1385.2 1752.2 1380.2 1764.6 1380.2H1899.6C1912 1380.2 1923.8 1375.3 1932.6 1366.5L2111.3 1187.8C2140.7 1158.4 2119.9 1108.2 2078.3 1108.2H1959.3L1959.7 1108.7V989.7C1959.7 948.2 1909.5 927.4 1880.1 956.7L1701.4 1135.4C1692.7 1144.1 1687.7 1156 1687.7 1168.4V1303.4C1687.7 1315.8 1682.8 1327.6 1674 1336.4L1525.6 1484.8C1515.5 1494.9 1510.4 1509.1 1512.3 1523.3C1514.2 1537.5 1522.3 1555.9 1547 1557.2C1571.7 1558.5 1572.5 1552.7 1581.6 1543.6V1543.8H1581.7Z" fill="#64728C"/>
</svg>
