<svg width="3062" height="3062" viewBox="0 0 3062 3062" fill="none" xmlns="http://www.w3.org/2000/svg">
<path d="M2119.12 2169C2091.57 2169 2069.23 2146.67 2069.23 2119.12C2069.23 2020.1 1989.21 1939.54 1890.84 1939.54H1848.57C1750.2 1939.54 1670.17 2020.1 1670.17 2119.12C1670.17 2146.67 1647.84 2169 1620.29 2169C1592.74 2169 1570.41 2146.67 1570.41 2119.12C1570.41 1965.09 1695.19 1839.77 1848.57 1839.77H1890.84C2044.22 1839.77 2169 1965.09 2169 2119.12C2169 2146.67 2146.67 2169 2119.12 2169ZM2079.21 1552.95C2079.21 1436.05 1984.11 1340.95 1867.21 1340.95C1750.31 1340.95 1655.21 1436.05 1655.21 1552.95C1655.21 1669.85 1750.31 1764.95 1867.21 1764.95C1984.11 1764.95 2079.21 1669.85 2079.21 1552.95ZM1979.45 1552.95C1979.45 1614.83 1929.1 1665.18 1867.21 1665.18C1805.32 1665.18 1754.97 1614.83 1754.97 1552.95C1754.97 1491.06 1805.32 1440.71 1867.21 1440.71C1929.1 1440.71 1979.45 1491.06 1979.45 1552.95ZM1470.64 2119.12C1470.64 2091.57 1448.31 2069.23 1420.76 2069.23H1191.24C1081.25 2069.23 991.766 1979.75 991.766 1869.76V1191.24C991.766 1081.25 1081.25 991.766 1191.24 991.766H1650.32C1760.32 991.766 1849.8 1081.25 1849.8 1191.24C1849.8 1218.79 1872.13 1241.13 1899.68 1241.13C1927.23 1241.13 1949.57 1218.79 1949.57 1191.24C1949.57 1026.24 1815.33 892 1650.27 892H1191.24C1026.24 892 892 1026.24 892 1191.24V1869.75C892 2034.76 1026.24 2169 1191.24 2169H1420.76C1448.31 2169 1470.64 2146.67 1470.64 2119.12Z" fill="#64728C"/>
<path d="M1479.29 1732.94C1479.29 1749.06 1473.46 1762.8 1461.81 1774.16C1450.15 1785.52 1436.26 1791.22 1420.15 1791.22C1404.04 1791.22 1390.15 1785.52 1378.49 1774.16C1366.83 1762.8 1361 1749.06 1361 1732.94C1361 1716.81 1366.83 1702.93 1378.49 1691.27C1390.15 1679.61 1404.03 1673.79 1420.15 1673.79C1436.27 1673.79 1450.15 1679.62 1461.81 1691.27C1473.47 1702.93 1479.29 1716.81 1479.29 1732.94ZM1475.42 1212.28C1475.42 1226.68 1470.67 1275.04 1461.17 1357.34C1451.67 1439.65 1443.32 1519.23 1436.14 1596.08H1402.46C1396.13 1519.23 1388.29 1439.65 1378.94 1357.34C1369.58 1275.03 1364.91 1226.68 1364.91 1212.28C1364.91 1195.87 1370.08 1182.06 1380.44 1170.84C1390.8 1159.61 1404.04 1154 1420.16 1154C1436.28 1154 1449.52 1159.54 1459.88 1170.62C1470.24 1181.71 1475.43 1195.6 1475.43 1212.28H1475.42Z" fill="#64728C"/>
</svg>
