<svg width="3062" height="3063" viewBox="0 0 3062 3063" fill="none" xmlns="http://www.w3.org/2000/svg">
<path d="M1887.2 1813.6C2044.1 1813.6 2171.7 1941.8 2171.7 2099.2C2171.7 2256.6 2145.6 2157.6 2113.3 2157.6C2081.1 2157.6 2054.9 2131.5 2054.9 2099.2C2054.9 2006.1 1979.6 1930.4 1887.2 1930.4H1845.3C1752.9 1930.4 1677.6 2006.1 1677.6 2099.2C1677.6 2192.3 1651.5 2157.6 1619.2 2157.6C1586.9 2157.6 1560.8 2131.5 1560.8 2099.2C1560.8 1941.8 1688.4 1813.6 1845.3 1813.6H1887.2Z" fill="#64728C" stroke="#64728C" stroke-width="18"/>
<path d="M1863.8 1319.6C1984.5 1319.6 2082.7 1417.8 2082.7 1538.5C2082.7 1659.2 1984.5 1757.5 1863.8 1757.5C1743.1 1757.5 1644.8 1659.3 1644.8 1538.5C1644.8 1417.7 1743 1319.6 1863.8 1319.6ZM1863.8 1436.4C1807.5 1436.4 1761.7 1482.2 1761.7 1538.5C1761.7 1594.8 1807.5 1640.7 1863.8 1640.7C1920.1 1640.7 1966 1594.9 1966 1538.5C1966 1482.1 1920.2 1436.4 1863.8 1436.4Z" fill="#64728C" stroke="#64728C" stroke-width="18"/>
<path d="M1648.9 875C1817.3 875 1954.3 1011.9 1954.3 1180.3C1954.3 1348.7 1928.2 1238.7 1895.9 1238.7C1863.6 1238.7 1837.5 1212.6 1837.5 1180.3C1837.5 1076.4 1752.9 991.8 1648.9 991.8H1194.3C1090.3 991.8 1005.8 1076.4 1005.8 1180.3V1852.3C1005.8 1956.2 1090.4 2040.8 1194.3 2040.8H1421.6C1453.8 2040.8 1480 2067 1480 2099.2C1480 2131.5 1453.9 2157.6 1421.6 2157.6H1194.3C1025.9 2157.6 889 2020.7 889 1852.3V1180.3C889 1011.9 1026 875 1194.3 875H1648.9Z" fill="#64728C" stroke="#64728C" stroke-width="18"/>
<path d="M1500.9 1771.1C1500.9 1787.2 1495.1 1801 1483.4 1812.3C1471.7 1823.7 1457.9 1829.4 1441.7 1829.4C1425.5 1829.4 1411.7 1823.7 1400 1812.3C1388.3 1801 1382.5 1787.2 1382.5 1771.1C1382.5 1755 1388.3 1741.1 1400 1729.5C1411.7 1717.8 1425.5 1712 1441.7 1712C1457.9 1712 1471.7 1717.8 1483.4 1729.5C1495.1 1741.1 1500.9 1755 1500.9 1771.1ZM1497.1 1250.5C1497.1 1264.9 1492.3 1313.2 1482.9 1395.5C1473.5 1477.8 1465 1557.4 1457.9 1634.3H1424.2C1417.9 1557.4 1410 1477.8 1400.7 1395.5C1391.3 1313.2 1386.7 1264.9 1386.7 1250.5C1386.7 1236.1 1391.9 1220.2 1402.2 1209C1412.6 1197.8 1425.8 1192.2 1441.9 1192.2C1458 1192.2 1471.3 1197.7 1481.6 1208.8C1491.9 1219.9 1497.1 1233.8 1497.1 1250.5Z" fill="#64728C"/>
</svg>
