<svg width="3062" height="3062" viewBox="0 0 3062 3062" fill="none" xmlns="http://www.w3.org/2000/svg">
<path d="M2119 2152C2091.4 2152 2069.1 2129.7 2069.1 2102.1C2069.1 2003.1 1989.1 1922.5 1890.7 1922.5H1848.4C1750 1922.5 1670 2003.1 1670 2102.1C1670 2201.1 1647.7 2152 1620.1 2152C1592.5 2152 1570.2 2129.7 1570.2 2102.1C1570.2 1948.1 1695 1822.7 1848.4 1822.7H1890.7C2044.1 1822.7 2168.9 1948 2168.9 2102.1C2168.9 2256.2 2146.6 2152 2119 2152ZM2079.1 1535.9C2079.1 1419 1984 1323.9 1867.1 1323.9C1750.2 1323.9 1655.1 1419 1655.1 1535.9C1655.1 1652.8 1750.2 1747.9 1867.1 1747.9C1984 1747.9 2079.1 1652.8 2079.1 1535.9ZM1979.3 1535.9C1979.3 1597.8 1929 1648.1 1867.1 1648.1C1805.2 1648.1 1754.9 1597.7 1754.9 1535.9C1754.9 1474.1 1805.2 1423.7 1867.1 1423.7C1929 1423.7 1979.3 1474.1 1979.3 1535.9ZM1470.5 2102.1C1470.5 2074.5 1448.2 2052.2 1420.6 2052.2H1191.1C1081.1 2052.2 991.6 1962.7 991.6 1852.7V1174.2C991.6 1064.2 1081.1 974.7 1191.1 974.7H1650.2C1760.2 974.7 1849.7 1064.2 1849.7 1174.2C1849.7 1284.2 1872 1224.1 1899.6 1224.1C1927.2 1224.1 1949.5 1201.8 1949.5 1174.2C1949.5 1009.2 1815.3 875 1650.2 875H1191.2C1026.2 875 892 1009.2 892 1174.2V1852.7C892 2017.7 1026.2 2151.9 1191.2 2151.9H1420.7C1448.3 2151.9 1470.6 2129.6 1470.6 2102L1470.5 2102.1ZM1203.7 1126.9C1169.3 1126.9 1141.3 1154.8 1141.3 1189.2C1141.3 1223.6 1169.2 1251.6 1203.7 1251.6C1238.2 1251.6 1266 1223.7 1266 1189.2C1266 1154.7 1238.1 1126.9 1203.7 1126.9ZM1418.2 1126.9C1383.8 1126.9 1355.9 1154.8 1355.9 1189.2C1355.9 1223.6 1383.8 1251.6 1418.2 1251.6C1452.6 1251.6 1480.6 1223.7 1480.6 1189.2C1480.6 1154.7 1452.7 1126.9 1418.2 1126.9ZM1632.7 1126.9C1598.3 1126.9 1570.4 1154.8 1570.4 1189.2C1570.4 1223.6 1598.3 1251.6 1632.7 1251.6C1667.1 1251.6 1695 1223.7 1695 1189.2C1695 1154.7 1667.1 1126.9 1632.7 1126.9ZM1203.7 1341.4C1169.3 1341.4 1141.3 1369.3 1141.3 1403.8C1141.3 1438.3 1169.2 1466.1 1203.7 1466.1C1238.2 1466.1 1266 1438.2 1266 1403.8C1266 1369.4 1238.1 1341.4 1203.7 1341.4ZM1203.7 1555.9C1169.3 1555.9 1141.3 1583.8 1141.3 1618.2C1141.3 1652.6 1169.2 1680.6 1203.7 1680.6C1238.2 1680.6 1266 1652.7 1266 1618.2C1266 1583.7 1238.1 1555.9 1203.7 1555.9ZM1203.7 1770.4C1169.3 1770.4 1141.3 1798.3 1141.3 1832.7C1141.3 1867.1 1169.2 1895 1203.7 1895C1238.2 1895 1266 1867.1 1266 1832.7C1266 1798.3 1238.1 1770.4 1203.7 1770.4ZM1418.2 1341.4C1383.8 1341.4 1355.9 1369.3 1355.9 1403.8C1355.9 1438.3 1383.8 1466.1 1418.2 1466.1C1452.6 1466.1 1480.6 1438.2 1480.6 1403.8C1480.6 1369.4 1452.7 1341.4 1418.2 1341.4ZM1418.2 1555.9C1383.8 1555.9 1355.9 1583.8 1355.9 1618.2C1355.9 1652.6 1383.8 1680.6 1418.2 1680.6C1452.6 1680.6 1480.6 1652.7 1480.6 1618.2C1480.6 1583.7 1452.7 1555.9 1418.2 1555.9ZM1418.2 1770.4C1383.8 1770.4 1355.9 1798.3 1355.9 1832.7C1355.9 1867.1 1383.8 1895 1418.2 1895C1452.6 1895 1480.6 1867.1 1480.6 1832.7C1480.6 1798.3 1452.7 1770.4 1418.2 1770.4Z" fill="#64728C" stroke="#64728C" stroke-width="12"/>
</svg>
