<svg width="3062" height="3061" viewBox="0 0 3062 3061" fill="none" xmlns="http://www.w3.org/2000/svg">
<path d="M1560.8 1141.6C1477.5 1141.6 1397.3 1167.8 1334 1212.5L1389.5 1269.3C1445.3 1222.1 1482 1210.5 1560.8 1210.5C1737.5 1210.5 1880.8 1353.8 1880.8 1530.5C1880.8 1707.2 1737.5 1850.5 1560.8 1850.5C1422.5 1848.8 1386.4 1798.8 1386.4 1798.8L1337.4 1848.8C1400.6 1893.2 1477.6 1919.3 1560.8 1919.3C1775.6 1919.3 1949.6 1745.2 1949.6 1530.5C1949.6 1315.8 1775.5 1141.7 1560.8 1141.7V1141.6Z" fill="#64728C" stroke="#64728C" stroke-width="8"/>
<path d="M2198.3 1661.9V1401.4L2083 1378.3C2072.1 1340.9 2057.1 1304.9 2038.5 1270.8L2103.7 1172.9L1919.5 988.7L1821.6 1053.9C1787.4 1035.2 1751.4 1020.3 1714.1 1009.3L1691 894H1430.5L1407.4 1009.3C1370 1020.2 1308.9 1033.9 1214 1092.6L1276 1154.6C1349.6 1099.1 1402.3 1087 1448.4 1075.7L1471.5 1070L1491.7 968.7H1629.7L1649.9 1070L1673 1075.7C1719.1 1087 1763 1105.2 1803.6 1129.8L1823.9 1142.1L1909.8 1084.8L2007.4 1182.4L1950.1 1268.3L1962.4 1288.6C1987 1329.2 2005.2 1373.1 2016.5 1419.2L2022.2 1442.3L2123.5 1462.5V1600.5L2022.2 1620.7L2016.5 1643.8C2005.2 1689.9 1987 1733.8 1962.4 1774.4L1950.1 1794.7L2007.4 1880.6L1909.8 1978.2L1823.9 1920.9L1803.6 1933.2C1763 1957.8 1719.1 1976 1673 1987.3L1649.9 1993L1629.7 2094.3H1491.7L1471.5 1993L1448.4 1987.3C1402.3 1976 1351.1 1947.7 1284.7 1900.1L1222.1 1962.7C1277.5 2004.3 1370 2042.7 1407.4 2053.6L1430.5 2168.9H1691L1714.1 2053.6C1751.5 2042.7 1787.5 2027.7 1821.6 2009.1L1919.5 2074.3L2103.7 1890.1L2038.5 1792.2C2057.2 1758.1 2072.1 1722 2083 1684.7L2198.3 1661.6V1661.9Z" fill="#64728C" stroke="#64728C" stroke-width="8"/>
<path d="M867.3 1622.2H1190C1199.6 1622.2 1204.8 1633.6 1198.3 1640.8L1100.4 1750.8C1096.5 1755.2 1096.7 1761.9 1100.8 1766.1L1184.7 1850C1189.1 1854.4 1196.1 1854.4 1200.5 1850L1507.3 1543.2C1511.7 1538.8 1511.7 1531.8 1507.3 1527.4L1200.5 1220.6C1196.1 1216.2 1189.1 1216.2 1184.7 1220.6L1100.9 1304.4C1096.7 1308.6 1096.5 1315.5 1100.6 1319.9L1197.4 1424.7C1204 1431.9 1198.9 1443.4 1189.2 1443.4H867.2C865.5 1443.4 864 1444.8 864 1446.6V1618.9C864 1620.6 865.4 1622.1 867.2 1622.1L867.3 1622.2Z" stroke="#64728C" stroke-width="68"/>
</svg>
