<svg width="3063" height="3062" viewBox="0 0 3063 3062" fill="none" xmlns="http://www.w3.org/2000/svg">
<path d="M1498.68 1999.04C1498.68 1977.54 1497.88 1956.04 1498.68 1934.64C1499.28 1921.74 1494.78 1916.84 1482.28 1913.64C1442.88 1904.24 1405.38 1888.14 1371.38 1866.04C1361.58 1859.64 1357.18 1856.04 1367.78 1845.34C1398.78 1814.44 1428.98 1782.34 1457.78 1750.04C1465.28 1741.84 1470.38 1743.24 1479.78 1746.54C1568.88 1777.54 1656.58 1773.84 1734.78 1718.04C1813.08 1662.24 1835.78 1580.54 1823.38 1490.44C1800.88 1326.54 1647.28 1240.14 1492.68 1301.34C1480.38 1306.54 1473.48 1305.64 1464.58 1295.44C1436.78 1263.84 1408.38 1232.54 1378.68 1202.54C1366.78 1190.54 1370.68 1185.84 1382.18 1178.54C1411.18 1159.74 1442.98 1145.74 1476.48 1137.24C1492.18 1133.34 1497.68 1126.34 1497.08 1109.94C1495.78 1072.94 1497.08 1035.84 1496.28 998.939C1495.68 995.839 1495.68 992.64 1496.48 989.54C1497.18 986.54 1498.68 983.64 1500.58 981.24C1502.58 978.74 1505.08 976.739 1507.98 975.439C1510.78 974.039 1513.88 973.339 1517.08 973.339C1558.68 966.339 1601.18 966.239 1642.78 972.939C1657.88 975.339 1663.38 982.74 1662.88 998.54C1661.78 1036.24 1662.88 1074.04 1662.18 1111.74C1662.18 1125.14 1665.78 1131.74 1679.08 1134.94C1717.18 1144.04 1753.38 1159.84 1785.98 1181.64C1796.88 1188.84 1803.78 1187.74 1812.08 1178.34C1839.38 1149.14 1867.98 1121.24 1895.18 1091.94C1906.28 1080.04 1914.78 1078.14 1928.58 1088.34C1962.78 1114.24 1992.88 1145.14 2017.68 1180.14C2026.58 1192.74 2025.68 1201.74 2014.88 1212.44C1985.88 1241.04 1958.18 1270.94 1929.08 1299.44C1918.58 1309.74 1916.18 1317.84 1924.08 1331.44C1942.58 1363.34 1955.48 1398.24 1962.18 1434.54C1965.28 1451.54 1972.88 1453.64 1987.28 1453.44C2024.98 1452.64 2062.68 1453.84 2100.48 1453.44C2118.28 1453.44 2127.18 1457.24 2129.58 1477.14C2135.28 1520.34 2134.88 1564.24 2128.58 1607.44C2128.58 1610.24 2127.98 1612.94 2126.78 1615.44C2125.58 1617.84 2123.98 1620.14 2121.78 1621.84C2119.68 1623.64 2117.28 1624.84 2114.58 1625.54C2111.88 1626.24 2109.18 1626.34 2106.48 1625.84C2063.48 1625.34 2020.68 1625.84 1977.68 1625.34C1975.08 1624.84 1972.38 1624.84 1969.78 1625.34C1967.08 1625.84 1964.68 1626.94 1962.48 1628.54C1960.28 1630.14 1958.48 1632.14 1957.18 1634.44C1955.78 1636.74 1954.88 1639.34 1954.58 1642.04C1946.38 1673.44 1933.38 1703.54 1916.18 1731.14C1914.48 1733.04 1913.18 1735.24 1912.48 1737.64C1911.68 1740.14 1911.48 1742.64 1911.78 1745.24C1912.08 1747.74 1912.98 1750.24 1914.28 1752.34C1915.58 1754.54 1917.38 1756.44 1919.48 1757.84C1950.98 1789.14 1981.08 1821.84 2012.48 1853.14C2014.78 1854.84 2016.78 1857.04 2018.28 1859.64C2019.68 1862.14 2020.58 1864.94 2020.78 1867.84C2021.08 1870.74 2020.78 1873.74 2019.68 1876.44C2018.68 1879.24 2017.18 1881.74 2015.08 1883.84C1990.48 1919.04 1960.68 1950.24 1926.68 1976.44C1913.68 1986.44 1904.58 1986.64 1892.98 1974.04C1863.28 1942.04 1831.98 1911.74 1802.48 1879.34C1792.38 1868.44 1784.58 1867.74 1772.28 1875.44C1744.08 1892.94 1713.38 1905.84 1681.08 1913.74C1678.78 1913.94 1676.48 1914.64 1674.48 1915.74C1672.38 1916.84 1670.58 1918.34 1669.18 1920.14C1667.78 1921.94 1666.78 1924.14 1666.18 1926.34C1665.58 1928.64 1665.58 1930.94 1665.98 1933.24C1666.58 1976.24 1665.98 2019.14 1665.98 2062.14C1665.98 2105.14 1661.58 2085.74 1644.28 2088.84C1601.98 2095.84 1558.78 2095.84 1516.48 2088.84C1513.68 2088.84 1510.98 2088.14 1508.48 2087.04C1505.98 2085.84 1503.78 2084.14 1501.98 2082.04C1500.18 2079.84 1498.88 2077.44 1498.18 2074.74C1497.48 2072.04 1497.38 2069.24 1497.78 2066.54C1498.88 2043.34 1498.68 2021.14 1498.68 1998.94V1999.04Z" fill="#64728C"/>
<path d="M1234.28 1590.44C1141.38 1590.44 1048.38 1589.84 955.48 1590.44C935.38 1590.44 928.78 1585.74 930.18 1565.14C932.08 1532.74 931.58 1500.04 930.18 1467.54C929.48 1450.74 933.581 1445.24 951.581 1445.64C1040.68 1447.34 1128.98 1447.54 1217.58 1448.14H1235.38C1226.48 1430.34 1211.68 1419.94 1199.78 1407.44C1181.08 1387.44 1161.98 1367.74 1142.18 1348.94C1133.28 1340.64 1134.28 1335.94 1142.18 1328.04C1167.28 1303.84 1191.58 1279.14 1215.68 1254.04C1222.58 1246.74 1226.28 1245.04 1234.18 1254.04C1322.48 1344.24 1410.48 1434.14 1498.28 1523.74C1505.88 1531.44 1505.48 1535.84 1498.28 1543.34C1413.88 1630.44 1329.88 1717.84 1245.98 1805.54C1237.68 1814.44 1233.28 1813.14 1225.68 1805.54C1198.08 1776.64 1170.18 1748.04 1141.38 1720.34C1130.78 1710.04 1129.08 1703.44 1140.98 1692.74C1174.48 1662.64 1207.18 1631.64 1240.28 1601.04L1234.28 1590.44Z" fill="#64728C"/>
</svg>
