<svg width="3063" height="3062" viewBox="0 0 3063 3062" fill="none" xmlns="http://www.w3.org/2000/svg">
<path d="M1498.08 1998.93C1498.08 1977.46 1497.28 1955.99 1498.08 1934.51C1498.61 1921.68 1494.16 1916.69 1481.68 1913.58C1442.25 1904.17 1404.72 1888.05 1370.76 1865.91C1360.96 1859.58 1356.59 1855.93 1367.1 1845.24C1398.11 1814.32 1428.31 1782.25 1457.18 1749.9C1464.67 1741.71 1469.74 1743.13 1479.19 1746.43C1568.29 1777.43 1655.96 1773.69 1734.19 1717.92C1812.42 1662.14 1835.14 1580.44 1822.75 1490.36C1800.21 1326.42 1646.69 1240.08 1492.02 1301.2C1479.72 1306.46 1472.86 1305.57 1463.95 1295.32C1436.15 1263.69 1407.73 1232.42 1378.06 1202.48C1366.12 1190.45 1370.04 1185.73 1381.54 1178.42C1410.52 1159.6 1442.39 1145.66 1475.89 1137.17C1491.57 1133.25 1497.01 1126.21 1496.47 1109.82C1495.14 1072.84 1496.47 1035.78 1495.67 998.802C1495.04 995.715 1495.1 992.527 1495.85 989.466C1496.6 986.405 1498.01 983.549 1500 981.103C1501.99 978.657 1504.49 976.682 1507.33 975.321C1510.17 973.959 1513.28 973.245 1516.43 973.23C1558.04 966.261 1600.5 966.141 1642.15 972.874C1657.21 975.28 1662.73 982.675 1662.29 998.445C1661.13 1036.13 1662.29 1073.91 1661.57 1111.69C1661.57 1125.05 1665.14 1131.65 1678.41 1134.86C1716.55 1143.92 1752.76 1159.74 1785.33 1181.54C1796.2 1188.76 1803.15 1187.6 1811.44 1178.25C1838.7 1149.02 1867.39 1121.13 1894.57 1091.82C1905.61 1079.97 1914.17 1078.01 1927.98 1088.26C1962.19 1114.12 1992.24 1145.07 2017.08 1180.03C2025.99 1192.68 2025.1 1201.68 2014.23 1212.37C1985.27 1240.97 1957.56 1270.82 1928.42 1299.33C1917.91 1309.67 1915.5 1317.77 1923.43 1331.32C1942 1363.22 1954.9 1398.1 1961.57 1434.4C1964.69 1451.42 1972.26 1453.56 1986.61 1453.29C2024.38 1452.58 2062.07 1453.74 2099.85 1453.29C2117.67 1453.29 2126.58 1457.12 2128.98 1476.99C2134.64 1520.29 2134.28 1564.15 2127.92 1607.34C2127.92 1610.09 2127.32 1612.81 2126.16 1615.3C2125 1617.79 2123.3 1619.99 2121.19 1621.75C2119.09 1623.51 2116.61 1624.79 2113.96 1625.48C2111.3 1626.18 2108.52 1626.29 2105.82 1625.79C2062.87 1625.25 2020.02 1625.79 1977.07 1625.25C1974.44 1624.72 1971.73 1624.73 1969.11 1625.3C1966.49 1625.87 1964.02 1626.98 1961.85 1628.55C1959.68 1630.13 1957.86 1632.14 1956.51 1634.45C1955.15 1636.77 1954.3 1639.34 1954 1642C1945.73 1673.46 1932.78 1703.49 1915.59 1731.1C1913.88 1733 1912.6 1735.24 1911.83 1737.68C1911.06 1740.11 1910.83 1742.69 1911.14 1745.22C1911.45 1747.76 1912.31 1750.19 1913.64 1752.37C1914.98 1754.55 1916.77 1756.41 1918.89 1757.83C1950.34 1789.11 1980.46 1821.8 2011.82 1853.17C2014.19 1854.88 2016.16 1857.07 2017.6 1859.61C2019.05 1862.15 2019.92 1864.97 2020.18 1867.88C2020.43 1870.79 2020.05 1873.72 2019.07 1876.47C2018.09 1879.22 2016.53 1881.73 2014.49 1883.82C1989.89 1919 1960.05 1950.22 1926.02 1976.39C1913.01 1986.46 1903.92 1986.64 1892.34 1974.07C1862.67 1942 1831.4 1911.71 1801.81 1879.36C1791.75 1868.4 1784 1867.78 1771.7 1875.44C1743.5 1892.94 1712.7 1905.87 1680.46 1913.75C1678.14 1913.93 1675.88 1914.59 1673.83 1915.69C1671.78 1916.79 1669.99 1918.31 1668.56 1920.15C1667.13 1921.99 1666.11 1924.11 1665.55 1926.37C1664.99 1928.62 1664.91 1930.98 1665.32 1933.27C1665.94 1976.21 1665.32 2019.16 1665.32 2062.1C1665.32 2078.05 1660.95 2085.71 1643.66 2088.83C1601.33 2095.83 1558.14 2095.83 1515.81 2088.83C1513.05 2088.81 1510.33 2088.18 1507.83 2087C1505.33 2085.82 1503.12 2084.11 1501.35 2082C1499.58 2079.88 1498.29 2077.4 1497.57 2074.74C1496.85 2072.07 1496.72 2069.28 1497.19 2066.56C1498.26 2043.3 1498.08 2021.12 1498.08 1998.93Z" fill="#64728C"/>
<path d="M1233.64 1590.33C1140.71 1590.33 1047.78 1589.71 954.848 1590.33C934.801 1590.33 928.118 1585.61 929.544 1565.03C931.415 1532.68 930.97 1499.98 929.544 1467.46C928.831 1450.62 932.93 1445.19 950.928 1445.55C1040.03 1447.24 1128.32 1447.42 1216.98 1448.04C1222.14 1448.04 1227.22 1448.04 1234.8 1448.04C1225.89 1430.22 1211.01 1419.8 1199.16 1407.32C1180.45 1387.36 1161.38 1367.67 1141.6 1348.87C1132.69 1340.59 1133.67 1335.86 1141.6 1327.94C1166.64 1303.79 1190.96 1279.02 1215.02 1253.89C1221.97 1246.68 1225.62 1244.98 1233.55 1253.89C1321.82 1344.12 1409.84 1434.05 1497.64 1523.68C1505.21 1531.35 1504.85 1535.71 1497.64 1543.2C1413.29 1630.34 1329.21 1717.74 1245.4 1805.41C1237.02 1814.32 1232.66 1813.08 1225.08 1805.41C1197.46 1776.55 1169.58 1747.95 1140.8 1720.24C1130.1 1709.9 1128.5 1703.31 1140.35 1692.62C1173.85 1662.59 1206.55 1631.58 1239.61 1600.93L1233.64 1590.33Z" fill="#64728C"/>
</svg>
