<svg width="3063" height="3062" viewBox="0 0 3063 3062" fill="none" xmlns="http://www.w3.org/2000/svg">
<path d="M2169 1510.6V1543C2169 1570.5 2146.7 1592.8 2119.2 1592.8C2091.7 1592.8 2069.4 1570.5 2069.4 1543V1510.6C2069.4 1400.8 1980 1311.4 1870.1 1311.4H1192.8C1083 1311.4 993.6 1400.8 993.6 1510.6V1869.2C993.6 1979 1083 2068.4 1192.8 2068.4H1524C1551.5 2068.4 1573.8 2090.7 1573.8 2118.2C1573.8 2145.7 1551.5 2168 1524 2168H1192.8C1028 2168 894 2033.9 894 1869.2V1510.6C894 1345.8 1028 1211.8 1192.8 1211.8H1870.1C2034.9 1211.8 2169 1345.9 2169 1510.6ZM1409.5 1732.2C1314.7 1732.2 1237.6 1655.1 1237.6 1560.4C1237.6 1465.7 1215.3 1510.6 1187.8 1510.6C1160.3 1510.6 1138 1532.9 1138 1560.4C1138 1710.1 1259.8 1831.8 1409.5 1831.8H1504.1C1531.6 1831.8 1553.9 1809.5 1553.9 1782C1553.9 1754.5 1531.6 1732.2 1504.1 1732.2H1409.5ZM1344.7 1114.6C1372.2 1114.6 1394.5 1092.3 1394.5 1064.8C1394.5 1025 1426.9 992.6 1466.7 992.6H1596.2C1636 992.6 1668.4 1025 1668.4 1064.8C1668.4 1104.6 1690.7 1114.6 1718.2 1114.6C1745.7 1114.6 1768 1092.3 1768 1064.8C1768 970.1 1691 893 1596.2 893H1466.7C1372 893 1294.9 970.1 1294.9 1064.8C1294.9 1159.5 1317.2 1114.6 1344.7 1114.6ZM1531.5 1475.7C1497.1 1475.7 1469.2 1503.6 1469.2 1538C1469.2 1572.4 1497.1 1600.2 1531.5 1600.2C1565.9 1600.2 1593.7 1572.3 1593.7 1538C1593.7 1503.7 1565.9 1475.7 1531.5 1475.7ZM2161.9 2021.8C2152.5 2037.4 2136 2046 2119.1 2046C2102.2 2046 2101.6 2043.7 2093.5 2038.9L2059.7 2018.6C2032.7 2045.7 1998.3 2065.5 1959.8 2074.9V2118.2C1959.8 2145.7 1937.5 2168 1910 2168C1882.5 2168 1860.2 2145.7 1860.2 2118.2V2074.9C1820.8 2065.4 1785.8 2044.8 1758.4 2016.7L1721.4 2038.9C1713.4 2043.7 1704.6 2046 1695.9 2046C1679 2046 1662.5 2037.4 1653.1 2021.8C1639 1998.2 1646.6 1967.6 1670.2 1953.5L1707.6 1931.1C1701.6 1911.5 1698.3 1890.7 1698.3 1869.2C1698.3 1847.7 1701.6 1826.9 1707.6 1807.3L1670.2 1784.9C1646.6 1770.7 1639 1740.2 1653.1 1716.6C1667.3 1693 1697.9 1685.4 1721.4 1699.5L1758.4 1721.7C1785.8 1693.6 1820.8 1673.1 1860.2 1663.5V1620.2C1860.2 1592.7 1882.5 1570.4 1910 1570.4C1937.5 1570.4 1959.8 1592.7 1959.8 1620.2V1663.5C1998.3 1672.8 2032.7 1692.6 2059.7 1719.8L2093.5 1699.5C2117.1 1685.4 2147.7 1693 2161.9 1716.6C2176 1740.2 2168.4 1770.8 2144.8 1784.9L2111.6 1804.8C2118.1 1825.1 2121.7 1846.7 2121.7 1869.2C2121.7 1891.7 2118.1 1913.3 2111.6 1933.6L2144.8 1953.5C2168.4 1967.7 2176 1998.2 2161.9 2021.8ZM2022 1869.2C2022 1807.4 1971.8 1757.1 1910 1757.1C1848.2 1757.1 1797.9 1807.4 1797.9 1869.2C1797.9 1931 1848.2 1981.3 1910 1981.3C1971.8 1981.3 2022 1931 2022 1869.2Z" fill="#64728C" stroke="#64728C" stroke-width="12"/>
</svg>
