<svg width="3063" height="3062" viewBox="0 0 3063 3062" fill="none" xmlns="http://www.w3.org/2000/svg">
<path d="M2168.67 1510.58V1542.95C2168.67 1570.46 2146.37 1592.75 2118.87 1592.75C2091.36 1592.75 2069.06 1570.46 2069.06 1542.95V1510.58C2069.06 1400.73 1979.69 1311.36 1869.85 1311.36H1192.51C1082.66 1311.36 993.288 1400.73 993.288 1510.58V1869.17C993.288 1979.02 1082.66 2068.38 1192.51 2068.38H1523.71C1551.21 2068.38 1573.51 2090.68 1573.51 2118.19C1573.51 2145.7 1551.21 2167.99 1523.71 2167.99H1192.51C1027.73 2167.99 893.68 2033.94 893.68 1869.17V1510.58C893.68 1345.8 1027.73 1211.75 1192.51 1211.75H1869.85C2034.62 1211.75 2168.67 1345.8 2168.67 1510.58ZM1409.16 1732.2C1314.41 1732.2 1237.33 1655.13 1237.33 1560.38C1237.33 1532.87 1215.03 1510.58 1187.53 1510.58C1160.02 1510.58 1137.72 1532.87 1137.72 1560.38C1137.72 1710.05 1259.49 1831.81 1409.16 1831.81H1503.78C1531.29 1831.81 1553.59 1809.52 1553.59 1782.01C1553.59 1754.5 1531.29 1732.2 1503.78 1732.2H1409.16ZM1344.41 1114.63C1371.92 1114.63 1394.21 1092.33 1394.21 1064.83C1394.21 1025.01 1426.61 992.61 1466.43 992.61H1595.92C1635.74 992.61 1668.14 1025.01 1668.14 1064.83C1668.14 1092.33 1690.44 1114.63 1717.94 1114.63C1745.45 1114.63 1767.75 1092.33 1767.75 1064.83C1767.75 970.081 1690.67 893.001 1595.92 893.001H1466.43C1371.68 893.001 1294.61 970.081 1294.61 1064.83C1294.61 1092.33 1316.9 1114.63 1344.41 1114.63ZM1531.18 1475.71C1496.79 1475.71 1468.92 1503.59 1468.92 1537.97C1468.92 1572.35 1496.79 1600.22 1531.18 1600.22C1565.56 1600.22 1593.43 1572.35 1593.43 1537.97C1593.43 1503.59 1565.56 1475.71 1531.18 1475.71ZM2161.57 2021.79C2152.24 2037.35 2135.74 2045.98 2118.82 2045.98C2110.1 2045.98 2101.26 2043.69 2093.24 2038.87L2059.45 2018.6C2032.36 2045.74 1997.96 2065.54 1959.49 2074.86V2118.19C1959.49 2145.69 1937.2 2167.99 1909.69 2167.99C1882.18 2167.99 1859.88 2145.69 1859.88 2118.19V2074.86C1820.54 2065.33 1785.47 2044.8 1758.11 2016.7L1721.15 2038.87C1713.13 2043.69 1704.3 2045.98 1695.58 2045.98C1678.66 2045.98 1662.16 2037.35 1652.82 2021.79C1638.67 1998.21 1646.32 1967.61 1669.91 1953.46L1707.27 1931.04C1701.27 1911.46 1698.02 1890.69 1698.02 1869.17C1698.02 1847.65 1701.27 1826.87 1707.27 1807.29L1669.91 1784.87C1646.32 1770.72 1638.67 1740.13 1652.83 1716.54C1666.98 1692.95 1697.58 1685.31 1721.15 1699.46L1758.11 1721.63C1785.48 1693.53 1820.54 1673 1859.88 1663.47V1620.15C1859.88 1592.64 1882.18 1570.34 1909.69 1570.34C1937.2 1570.34 1959.49 1592.64 1959.49 1620.15V1663.47C1997.96 1672.79 2032.37 1692.59 2059.45 1719.73L2093.24 1699.46C2116.82 1685.31 2147.42 1692.95 2161.57 1716.54C2175.73 1740.13 2168.08 1770.72 2144.49 1784.87L2111.31 1804.78C2117.81 1825.1 2121.36 1846.72 2121.36 1869.17C2121.36 1891.61 2117.82 1913.24 2111.31 1933.55L2144.49 1953.46C2168.08 1967.61 2175.73 1998.21 2161.57 2021.79ZM2021.75 1869.17C2021.75 1807.38 1971.48 1757.11 1909.69 1757.11C1847.9 1757.11 1797.63 1807.38 1797.63 1869.17C1797.63 1930.96 1847.9 1981.23 1909.69 1981.23C1971.48 1981.23 2021.75 1930.96 2021.75 1869.17Z" fill="#64728C"/>
</svg>
