<svg width="3063" height="3062" viewBox="0 0 3063 3062" fill="none" xmlns="http://www.w3.org/2000/svg">
<path d="M1532.3 1304.24C1449.88 1304.24 1382.71 1371.33 1382.71 1453.84C1382.71 1536.35 1449.79 1603.43 1532.3 1603.43C1614.81 1603.43 1681.89 1536.35 1681.89 1453.84C1681.89 1371.33 1614.81 1304.24 1532.3 1304.24ZM1532.3 1534.41C1487.85 1534.41 1451.73 1498.28 1451.73 1453.84C1451.73 1409.39 1487.85 1373.27 1532.3 1373.27C1576.74 1373.27 1612.87 1409.39 1612.87 1453.84C1612.87 1498.28 1576.74 1534.41 1532.3 1534.41Z" fill="#64728C"/>
<path d="M1532.3 1166.2C1331.24 1166.2 1167.6 1329.84 1167.6 1530.9C1167.6 1731.96 1331.24 1895.6 1532.3 1895.6C1733.36 1895.6 1897 1731.96 1897 1530.9C1897 1329.84 1733.36 1166.2 1532.3 1166.2ZM1341.13 1756.17C1357.02 1746.65 1375.41 1741.38 1394.35 1741.38H1670.44C1689.38 1741.38 1707.77 1746.56 1723.66 1756.17C1672.01 1800.06 1605.3 1826.58 1532.39 1826.58C1459.49 1826.58 1392.78 1800.06 1341.13 1756.17ZM1771.15 1704.98C1742.05 1684 1706.94 1672.36 1670.35 1672.36H1394.26C1357.76 1672.36 1322.56 1684 1293.45 1704.98C1257.69 1656.1 1236.63 1595.95 1236.63 1530.9C1236.63 1367.91 1369.31 1235.22 1532.3 1235.22C1695.29 1235.22 1827.98 1367.82 1827.98 1530.9C1827.98 1693.98 1806.82 1656.1 1771.15 1704.98Z" fill="#64728C"/>
<path d="M1448.67 1070.5L1447.93 1074.24L1444.22 1075.15L1421.11 1080.85L1421.1 1080.86C1376.27 1091.84 1333.55 1109.44 1293.97 1133.16L1292.09 1134.3L1271.77 1146.61L1268.51 1148.58L1265.33 1146.47L1183.47 1091.86L1092.76 1182.57L1147.37 1264.43L1149.48 1267.61L1147.51 1270.87L1135.2 1291.19V1291.19C1110.9 1331.3 1092.92 1374.66 1081.76 1420.2L1081.75 1420.21L1076.05 1443.32L1075.14 1447.03L1071.4 1447.77L974.853 1467.02V1595.28L1071.4 1614.53L1075.14 1615.27L1076.05 1618.98L1081.75 1642.09L1081.76 1642.1C1092.92 1687.64 1110.9 1731 1135.2 1771.11L1147.51 1791.43L1149.48 1794.69L1147.37 1797.87L1092.76 1879.73L1183.47 1970.44L1265.33 1915.83L1268.51 1913.72L1271.77 1915.69L1292.09 1928C1331.57 1951.92 1374.21 1969.72 1418.97 1980.92L1421.1 1981.44L1421.11 1981.45L1444.22 1987.15L1447.93 1988.06L1448.67 1991.8L1467.92 2088.35H1596.18L1615.53 1991.8L1616.28 1988.06L1619.98 1987.15L1643.09 1981.45L1643.1 1981.44C1688.64 1970.28 1732 1952.3 1772.11 1928L1792.43 1915.69L1795.69 1913.72L1798.87 1915.83L1880.73 1970.44L1971.44 1879.73L1916.83 1797.87L1914.72 1794.69L1916.69 1791.43L1929 1771.11C1953.3 1731 1971.28 1687.64 1982.44 1642.1L1982.45 1642.09L1988.15 1618.98L1989.06 1615.27L1992.8 1614.53L2089.35 1595.28V1467.02L1992.8 1447.77L1989.06 1447.03L1988.15 1443.32L1982.45 1420.21L1982.44 1420.2C1971.28 1374.66 1953.3 1331.3 1929 1291.19L1916.69 1270.87L1914.72 1267.61L1916.83 1264.43L1971.44 1182.57L1880.73 1091.86L1798.87 1146.47L1795.69 1148.58L1792.43 1146.61L1772.11 1134.3C1732 1110 1688.64 1092.02 1643.1 1080.86L1643.09 1080.85L1619.98 1075.15L1616.28 1074.24L1615.53 1070.5L1596.18 973.953H1467.92L1448.67 1070.5ZM2176 1666.26L2171.18 1667.23L2059.34 1689.63C2048.76 1724.97 2034.62 1759.22 2017.09 1791.72L2080.33 1886.68L2083.05 1890.77L1895.25 2078.58L1891.77 2082.05L1887.68 2079.33L1792.71 2016.08C1760.23 2033.53 1726.07 2047.76 1690.63 2058.35L1668.22 2170.18L1667.26 2175H1396.74L1395.78 2170.18L1373.37 2058.34C1338.03 2047.76 1303.86 2033.62 1271.28 2016.08L1176.32 2079.33L1172.23 2082.05L1168.75 2078.58L980.947 1890.77L983.673 1886.68L1046.92 1791.71C1029.47 1759.24 1015.24 1725.07 1004.65 1689.63L892.821 1667.23L888 1666.26V1395.74L892.821 1394.78L1004.65 1372.37C1015.24 1337.03 1029.38 1302.86 1046.91 1270.28L983.673 1175.32L980.947 1171.23L1172.23 979.947L1176.32 982.673L1271.29 1045.92C1303.76 1028.47 1337.93 1014.24 1373.37 1003.65L1395.78 891.821L1396.74 887H1667.26L1668.22 891.821L1690.63 1003.65C1725.97 1014.24 1760.14 1028.38 1792.72 1045.91L1887.68 982.673L1891.77 979.947L2083.05 1171.23L2080.33 1175.32L2017.08 1270.29C2034.53 1302.76 2048.76 1336.93 2059.35 1372.37L2171.18 1394.78L2176 1395.74V1666.26Z" fill="#64728C" stroke="#64728C" stroke-width="12"/>
</svg>
