<svg width="3062" height="3062" viewBox="0 0 3062 3062" fill="none" xmlns="http://www.w3.org/2000/svg">
<path d="M1531.07 1285.21C1441.82 1285.21 1369.2 1357.82 1369.2 1447.08C1369.2 1536.33 1441.82 1608.94 1531.07 1608.94C1620.32 1608.94 1692.93 1536.33 1692.93 1447.08C1692.93 1357.82 1620.32 1285.21 1531.07 1285.21ZM1531.07 1534.24C1483.01 1534.24 1443.91 1495.14 1443.91 1447.08C1443.91 1399.02 1483.01 1359.92 1531.07 1359.92C1579.13 1359.92 1618.23 1399.02 1618.23 1447.08C1618.23 1495.14 1579.13 1534.24 1531.07 1534.24Z" fill="#64728C"/>
<path d="M1531.07 1135.8C1313.43 1135.8 1136.37 1312.86 1136.37 1530.5C1136.37 1748.14 1313.43 1925.2 1531.07 1925.2C1748.71 1925.2 1925.77 1748.14 1925.77 1530.5C1925.77 1312.86 1748.71 1135.8 1531.07 1135.8ZM1324.08 1774.32C1341.3 1763.99 1361.15 1758.36 1381.65 1758.36H1680.48C1700.99 1758.36 1720.84 1763.99 1738.06 1774.32C1682.21 1821.8 1609.94 1850.5 1531.07 1850.5C1452.2 1850.5 1379.92 1821.8 1324.08 1774.32ZM1789.54 1718.91C1758.04 1696.22 1720.01 1683.65 1680.48 1683.65H1381.65C1342.12 1683.65 1304.09 1696.22 1272.6 1718.91C1233.93 1666.02 1211.07 1600.88 1211.07 1530.5C1211.07 1354.05 1354.62 1210.5 1531.07 1210.5C1707.51 1210.5 1851.06 1354.05 1851.06 1530.5C1851.06 1600.89 1828.2 1666.02 1789.54 1718.91Z" fill="#64728C"/>
<path d="M2168.57 1660.73V1400.27L2053.25 1377.2C2042.3 1339.84 2027.38 1303.83 2008.7 1269.67L2073.94 1171.81L1889.76 987.629L1791.9 1052.87C1757.74 1034.19 1721.74 1019.27 1684.37 1008.32L1661.3 893H1400.84L1377.77 1008.33C1340.41 1019.27 1304.4 1034.19 1270.24 1052.88L1172.38 987.629L988.199 1171.81L1053.44 1269.67C1034.76 1303.83 1019.84 1339.84 1008.89 1377.2L893.57 1400.27V1660.73L1008.9 1683.8C1019.84 1721.16 1034.76 1757.17 1053.44 1791.33L988.199 1889.19L1172.38 2073.37L1270.24 2008.13C1304.39 2026.81 1340.41 2041.73 1377.77 2052.67L1400.84 2168H1661.3L1684.37 2052.67C1721.73 2041.73 1757.74 2026.81 1791.9 2008.13L1889.76 2073.37L2073.94 1889.19L2008.7 1791.33C2027.38 1757.18 2042.3 1721.16 2053.25 1683.8L2168.57 1660.73ZM1992.59 1619.74L1986.93 1642.8C1975.62 1688.89 1957.41 1732.83 1932.82 1773.41L1920.51 1793.73L1977.81 1879.67L1880.24 1977.24L1794.3 1919.94L1773.98 1932.25C1733.4 1956.84 1689.46 1975.05 1643.37 1986.36L1620.31 1992.02L1600.06 2093.29H1462.08L1441.83 1992.02L1418.77 1986.36C1372.68 1975.05 1328.74 1956.84 1288.16 1932.25L1267.84 1919.94L1181.9 1977.24L1084.33 1879.67L1141.63 1793.73L1129.32 1773.41C1104.73 1732.83 1086.52 1688.89 1075.21 1642.8L1069.55 1619.74L968.277 1599.49V1461.51L1069.55 1441.26L1075.21 1418.2C1086.52 1372.11 1104.73 1328.17 1129.32 1287.59L1141.63 1267.27L1084.33 1181.33L1181.9 1083.77L1267.84 1141.06L1288.16 1128.75C1328.73 1104.16 1372.68 1085.96 1418.76 1074.64L1441.83 1068.98L1462.08 967.707H1600.06L1620.31 1068.98L1643.37 1074.64C1689.46 1085.95 1733.4 1104.16 1773.98 1128.75L1794.3 1141.06L1880.24 1083.76L1977.8 1181.33L1920.51 1267.27L1932.82 1287.59C1957.41 1328.17 1975.61 1372.11 1986.93 1418.2L1992.59 1441.26L2093.86 1461.51V1599.49L1992.59 1619.74Z" fill="#64728C"/>
</svg>
