<svg width="3062" height="3063" viewBox="0 0 3062 3063" fill="none" xmlns="http://www.w3.org/2000/svg">
<path d="M1489.16 1136.3C1541.91 1119.37 1598.4 1125.09 1670.17 1157.32C1792.01 1211.87 1914.09 1254.62 1915.25 1254.97C1934.16 1261.62 1944.08 1282.3 1937.54 1301.22C1930.89 1320.14 1910.47 1330.18 1891.33 1323.53C1890.05 1323.06 1765.17 1279.38 1640.41 1223.55C1586.14 1199.26 1547.16 1193.88 1509.58 1206.03C1471.66 1218.41 1434.19 1249.01 1383.78 1299.47C1363 1320.26 1344.56 1346.3 1332.19 1370.36C1326.01 1382.39 1321.34 1393.84 1318.65 1403.88C1315.97 1414.04 1315.39 1422.1 1316.67 1427.59C1317.02 1429.23 1317.49 1430.28 1318.3 1431.21C1319.24 1432.15 1320.99 1433.55 1324.72 1434.83L1325.54 1435.07C1340.24 1439.97 1357.98 1443.59 1377.24 1438.46C1396.38 1433.32 1417.62 1419.3 1439.09 1387.3C1445.16 1378.3 1454.85 1372.46 1465.59 1371.41L1467.45 1371.18C1476.67 1370.25 1482.39 1369.19 1487.41 1367.68C1492.9 1366.04 1497.68 1363.94 1505.5 1360.44C1515.65 1355.88 1528.72 1350.04 1549.85 1342.33C1562.92 1337.66 1577.74 1340.81 1587.78 1350.86C1621.51 1384.61 1674.37 1427.36 1730.74 1473.03C1781.16 1513.91 1832.63 1555.49 1875.22 1594.61C1917.59 1633.62 1951.67 1670.53 1966.84 1702.07C1988.43 1746.92 1978.16 1796.9 1940.7 1828.91C1919.81 1846.89 1894.48 1856.12 1869.62 1855.77C1859.7 1877.96 1841.38 1896.77 1816.75 1909.26C1791.66 1921.88 1764.12 1925.97 1739.5 1921.64C1725.49 1947.81 1702.15 1969.3 1674.02 1980.28C1649.98 1989.62 1625.01 1989.97 1602.6 1982.03C1585.21 1995.46 1561.17 2002 1531.29 2002C1501.41 2002 1488.93 1996.51 1468.74 1989.27C1448.55 1982.03 1430.11 1972.8 1418.32 1964.98C1390.43 1946.64 1251.43 1842.11 1136.01 1745.28C1116.52 1728.93 1087.69 1698.68 1060.15 1669.95C1039.49 1648.34 1021.17 1629.07 1011.83 1621.13C996.545 1608.16 994.678 1585.27 1007.52 1569.97C1020.24 1554.78 1042.53 1552.68 1057.93 1565.06L1058.63 1565.65C1069.49 1574.76 1090.14 1596.36 1112.55 1619.72C1137.99 1646.24 1166.35 1675.9 1182.57 1689.69C1298.58 1786.86 1432.44 1886.96 1457.07 1903.54L1458.12 1904.24C1466.75 1909.96 1480.17 1916.27 1494.06 1921.18C1508.07 1926.08 1521.84 1929.35 1531.18 1929.35C1545.41 1929.35 1552.3 1927.48 1555.68 1925.85C1557.32 1925.03 1558.02 1924.33 1558.37 1923.86C1558.72 1923.4 1558.95 1923.05 1559.18 1922.23C1563.27 1910.9 1572.84 1902.37 1584.63 1899.45C1596.3 1896.65 1608.78 1899.69 1617.65 1907.86C1627.92 1917.21 1639.24 1915.69 1647.88 1912.42C1665.74 1905.41 1679.39 1887.54 1681.14 1869.32C1682.43 1855.54 1691.41 1843.62 1704.37 1838.72C1717.2 1833.93 1731.79 1836.73 1741.95 1846.08C1744.4 1848.41 1750 1850.51 1758.05 1850.63C1765.87 1850.63 1775.09 1848.88 1784.31 1844.21C1787.93 1842.46 1793.76 1838.95 1798.31 1833.81C1802.87 1828.79 1806.02 1822.48 1805.2 1814.54C1803.68 1800.41 1810.45 1786.74 1822.71 1779.5C1834.84 1772.26 1850.13 1772.73 1861.8 1780.79C1864.72 1782.89 1869.62 1783.71 1875.69 1782.54C1881.64 1781.37 1888.06 1778.33 1893.55 1773.66C1897.28 1770.39 1901.72 1765.49 1904.05 1758.95C1906.27 1752.52 1906.62 1744.11 1901.48 1733.37L1900.9 1732.32C1895.3 1721.1 1885.14 1707.67 1871.26 1692.49C1857.02 1676.84 1839.28 1659.67 1819.21 1641.68C1779.17 1605.59 1730.63 1566.35 1685.11 1529.44L1666.32 1514.26C1624.07 1480.03 1584.39 1447.33 1553.47 1418.6C1546 1421.64 1540.16 1424.32 1535.03 1426.54C1519.27 1433.67 1508.3 1438.22 1489.28 1441.38C1465.24 1472.79 1436.88 1494.4 1405.48 1505.15C1373.51 1516.13 1338.73 1515.77 1302.66 1503.86C1273.02 1494.05 1252.83 1472.91 1245.95 1444.18C1238.01 1410.77 1249.45 1372.23 1267.42 1337.19C1285.51 1302.04 1310.83 1269.45 1332.42 1247.96C1388.21 1192.13 1436.29 1152.89 1488.81 1136.07L1489.16 1136.3Z" fill="#64728C" stroke="#64728C" stroke-width="24"/>
<path d="M1407.67 1186C1427.64 1186 1444 1202.09 1444 1222C1444 1241.91 1427.76 1258 1407.67 1258H1128.33C1108.36 1258 1092 1241.91 1092 1222C1092 1202.09 1108.24 1186 1128.33 1186H1407.67Z" fill="#64728C" stroke="#64728C" stroke-width="9"/>
<path d="M2053.69 1638.76C2044.1 1624.52 2024.82 1620.67 2010.56 1630.35L1919.73 1691.28C1905.46 1700.85 1901.72 1720.11 1911.31 1734.34C1917.27 1743.22 1927.09 1748 1937.14 1748C1947.2 1748 1949.07 1746.37 1954.44 1742.75L2045.27 1681.82C2059.54 1672.25 2063.28 1652.99 2053.69 1638.76Z" fill="#64728C"/>
<path d="M1861.27 1786.59C1839 1769.1 1739.28 1667.5 1677.63 1603.57C1665.8 1591.21 1645.99 1590.74 1633.57 1602.64C1621.15 1614.54 1620.8 1634.13 1632.63 1646.5C1648.57 1663.06 1789.78 1809.57 1822.6 1835.35C1828.22 1839.78 1835.14 1842 1841.82 1842C1848.5 1842 1860.1 1837.92 1866.31 1830.22C1876.97 1816.8 1874.63 1797.32 1861.15 1786.71L1861.27 1786.59Z" fill="#64728C"/>
<path d="M1737.28 1848.7C1700.01 1819.06 1606.24 1719.89 1585.14 1697.02C1573.42 1684.42 1553.84 1683.6 1541.06 1695.15C1528.41 1706.7 1527.58 1726.42 1539.19 1739.02C1540.36 1740.19 1652.18 1860.36 1698.37 1897.23C1704.11 1901.78 1711.03 1904 1717.82 1904C1724.62 1904 1735.99 1899.92 1742.21 1892.45C1752.87 1879.03 1750.76 1859.55 1737.4 1848.81L1737.28 1848.7Z" fill="#64728C"/>
<path d="M1613.91 1911.18C1569.49 1873.96 1478.65 1777.73 1460.95 1758.83C1449.11 1746.35 1429.42 1745.65 1416.88 1757.32C1404.34 1768.98 1403.63 1788.58 1415.36 1801.18C1440.91 1828.35 1527.76 1920.04 1573.71 1958.65C1579.57 1963.55 1586.72 1966 1593.75 1966C1600.78 1966 1611.45 1962.27 1617.66 1954.92C1628.79 1941.74 1627.04 1922.26 1613.91 1911.18Z" fill="#64728C"/>
<path d="M793.566 1070.86C800.81 1063.96 810.39 1060.58 820.555 1061.04C852.567 1062.91 921.965 1067.94 990.078 1078.92C1024.08 1084.41 1057.96 1091.3 1086.7 1100.06C1115.21 1108.82 1139.51 1119.57 1153.76 1133.01L1154.46 1133.71C1162.06 1141.3 1165.79 1151.81 1164.86 1162.44C1157.73 1243.64 1127.36 1366.53 1098.26 1470.39C1069.17 1574.36 1041.25 1659.99 1039.03 1667C1034.12 1681.95 1020.22 1692 1004.57 1692H818.335C798.356 1692 782 1675.76 782 1655.67V1097.14C782 1087.09 786.089 1077.51 793.45 1070.74L793.566 1070.86ZM854.67 1619.57H978.044C1002.11 1543.17 1073.15 1311.51 1090.2 1177.75C1070.69 1169.22 1036.23 1160.81 994.518 1153.57C952.108 1146.21 902.688 1140.25 854.67 1136.28V1619.57Z" fill="#64728C" stroke="#64728C" stroke-width="24"/>
<path d="M2244.67 1124C2264.64 1124 2281 1140.21 2281 1160.26V1717.74C2281 1737.68 2264.76 1754 2244.67 1754H2058.45C2042.09 1754 2027.84 1743.16 2023.4 1727.41C2011.95 1685.9 1976.2 1579.56 1938.47 1475.9C1919.66 1424.13 1900.26 1372.95 1883.32 1330.97C1866.27 1288.88 1851.78 1256.34 1842.43 1241.3C1837.06 1232.44 1835.54 1221.83 1838.46 1211.92C1841.38 1202.01 1848.39 1193.84 1857.86 1189.41C1864.05 1186.5 1999.92 1124.12 2244.55 1124.12L2244.67 1124ZM2208.33 1196.99C2069.78 1200.84 1972.58 1225.91 1924.1 1241.77C1972.58 1346.83 2055.53 1584.93 2085.55 1681.47H2208.33V1196.88V1196.99Z" fill="#64728C" stroke="#64728C" stroke-width="24"/>
</svg>
