<svg width="3062" height="3062" viewBox="0 0 3062 3062" fill="none" xmlns="http://www.w3.org/2000/svg">
<path d="M1493.97 1191.01C1538.81 1176.6 1586.61 1181.27 1646.95 1207.73L1649.83 1209L1649.83 1209.01C1754.16 1255.71 1858.74 1292.25 1859.77 1292.61H1859.77C1876.52 1298.45 1885.29 1316.73 1879.52 1333.44L1879.52 1333.46C1873.69 1350.18 1855.53 1359.03 1838.69 1353.21L1838.68 1353.2L1838.67 1353.2C1837.56 1352.81 1730.5 1315.4 1623.62 1267.6V1267.6C1577.2 1246.86 1544.07 1242.3 1512.23 1252.65C1479.95 1263.15 1448.06 1289.23 1404.87 1332.45L1404.87 1332.45C1387.15 1350.17 1371.41 1372.35 1360.82 1392.9C1355.53 1403.17 1351.59 1412.9 1349.31 1421.36C1347.06 1429.68 1346.58 1436.25 1347.53 1440.75L1347.63 1441.19L1347.63 1441.21C1347.94 1442.53 1348.24 1443.22 1348.83 1443.87C1349.45 1444.55 1350.8 1445.62 1353.94 1446.74L1354.59 1446.97L1354.6 1446.97C1367.13 1451.17 1382.13 1454.2 1398.3 1449.87C1414.37 1445.56 1432.47 1433.73 1450.7 1406.47L1450.71 1406.47C1456.04 1398.51 1464.63 1393.38 1474.17 1392.42L1475.78 1392.25C1483.63 1391.42 1488.47 1390.53 1492.73 1389.28C1497.31 1387.93 1501.4 1386.11 1508.12 1383.1L1508.13 1383.09C1516.86 1379.21 1528.06 1374.15 1546.16 1367.59L1546.17 1367.59C1557.76 1363.43 1570.89 1366.23 1579.7 1375.09C1604.91 1400.3 1642.75 1431.51 1684.19 1465.1L1702.15 1479.62L1702.15 1479.63C1745.36 1514.58 1789.51 1550.29 1825.98 1583.8C1862.28 1617.15 1891.65 1648.92 1904.67 1676.06L1905.11 1676.97C1923.23 1715.56 1914.21 1758.39 1882.04 1785.9C1864.12 1801.28 1842.51 1809.3 1821.12 1809.16C1812.5 1828.16 1796.71 1844.18 1775.65 1854.79L1775.64 1854.79C1754.23 1865.55 1730.7 1869.17 1709.5 1865.66C1697.39 1887.99 1677.37 1906.31 1653.19 1915.67C1632.59 1923.7 1611.08 1924.09 1591.8 1917.41C1576.69 1928.9 1556 1934.43 1530.5 1934.43C1513.3 1934.43 1493.94 1929.69 1476.59 1923.47C1459.21 1917.23 1443.38 1909.31 1433.18 1902.6C1409.22 1886.87 1290.14 1797.3 1191.16 1714.43L1191.16 1714.43C1174.4 1700.37 1149.65 1674.48 1126.07 1649.84V1649.84C1108.32 1631.34 1092.68 1614.83 1084.73 1608.11V1608.11C1071.19 1596.68 1069.54 1576.42 1080.95 1562.91C1092.15 1549.52 1111.91 1547.67 1125.51 1558.59L1126.15 1559.12L1126.16 1559.12C1135.47 1567.01 1153.31 1585.51 1172.42 1605.47C1194.21 1628.21 1218.48 1653.53 1232.38 1665.25L1237.13 1669.21C1335.35 1751.15 1446.74 1834.35 1467.51 1848.33L1468.44 1848.95L1468.45 1848.95L1468.46 1848.96C1475.74 1853.78 1487.14 1859.17 1498.99 1863.35C1510.92 1867.57 1522.6 1870.3 1530.5 1870.3C1542.61 1870.3 1548.38 1868.72 1551.04 1867.38C1552.28 1866.75 1552.77 1866.21 1552.96 1865.96C1553.17 1865.68 1553.27 1865.46 1553.51 1864.82C1557.18 1854.79 1565.57 1847.25 1575.99 1844.7L1576 1844.69C1586.16 1842.23 1596.98 1844.86 1604.89 1851.79L1605.26 1852.12L1605.29 1852.14C1613.62 1859.76 1622.83 1858.54 1630.08 1855.8C1645.06 1849.99 1656.54 1834.99 1657.94 1819.73L1657.94 1819.73V1819.72C1659.09 1807.56 1667.03 1797.03 1678.48 1792.72L1678.5 1792.71C1689.87 1788.5 1702.74 1790.91 1711.73 1799.26L1711.91 1799.42C1713.9 1801.12 1718.31 1802.79 1724.84 1802.85C1731.35 1802.91 1739.17 1801.33 1746.89 1797.43L1746.9 1797.42L1746.91 1797.41C1749.96 1795.89 1754.83 1793 1758.65 1788.77C1762.41 1784.62 1764.94 1779.47 1764.25 1773.01V1773.01C1762.91 1760.57 1768.93 1748.45 1779.71 1742.04C1790.44 1735.62 1803.96 1736.09 1814.32 1743.18L1814.34 1743.2L1814.37 1743.22C1816.62 1744.79 1820.47 1745.54 1825.49 1744.55C1830.41 1743.58 1835.78 1741.05 1840.35 1737.12L1840.36 1737.11L1840.37 1737.11C1843.53 1734.42 1847.2 1730.32 1849.07 1724.92C1850.88 1719.71 1851.21 1712.76 1846.89 1703.78L1846.45 1702.87C1841.71 1693.41 1833.05 1681.96 1821.21 1668.97C1809.06 1655.63 1793.82 1640.95 1776.7 1625.52C1742.43 1594.66 1700.89 1561.06 1661.82 1529.46V1529.46C1619.88 1495.57 1579.79 1463.12 1549.51 1434.97C1543.42 1437.48 1538.6 1439.63 1534.35 1441.53L1534.35 1441.53C1520.95 1447.56 1511.48 1451.53 1495.24 1454.24C1474.54 1481.12 1450.21 1499.61 1423.2 1508.89C1395.57 1518.38 1365.55 1518.09 1334.44 1507.82C1308.76 1499.36 1291.13 1480.96 1285.18 1456.01L1285.18 1456C1278.35 1427.1 1288.23 1393.77 1303.71 1363.73C1319.28 1333.51 1341.06 1305.59 1359.58 1287.06C1407.38 1239.24 1448.75 1205.54 1493.97 1191.01Z" fill="#64728C" stroke="#64728C" stroke-width="11"/>
<path d="M1424.25 1232.8C1441.95 1232.8 1456.31 1247.17 1456.31 1264.87C1456.31 1282.57 1441.95 1296.93 1424.25 1296.93H1185.18C1167.48 1296.93 1153.12 1282.57 1153.12 1264.87C1153.12 1247.17 1167.48 1232.8 1185.18 1232.8H1424.25Z" fill="#64728C" stroke="#64728C" stroke-width="11"/>
<path d="M1977.54 1621.92C1969.31 1609.75 1952.84 1606.41 1940.68 1614.69L1863.01 1666.86C1850.84 1675.04 1847.6 1691.57 1855.78 1703.73C1860.94 1711.33 1869.33 1715.47 1877.88 1715.47C1882.93 1715.47 1888.08 1714.04 1892.65 1710.96L1970.32 1658.79C1982.48 1650.61 1985.72 1634.09 1977.54 1621.92Z" fill="#64728C"/>
<path d="M1812.64 1748.68C1793.62 1733.69 1708.57 1646.62 1655.98 1591.8C1645.83 1581.17 1628.99 1580.8 1618.42 1591C1607.79 1601.15 1607.47 1617.99 1617.62 1628.56C1631.27 1642.8 1751.71 1768.33 1779.7 1790.43C1784.54 1794.26 1790.38 1796.12 1796.12 1796.12C1803.93 1796.12 1811.74 1792.61 1817.05 1785.97C1826.14 1774.49 1824.17 1757.76 1812.64 1748.68Z" fill="#64728C"/>
<path d="M1706.51 1801.96C1674.68 1776.51 1594.73 1691.56 1576.67 1671.91C1566.68 1661.07 1549.94 1660.43 1539.11 1670.32C1528.32 1680.25 1527.58 1697.09 1537.51 1707.88C1538.47 1708.88 1633.88 1811.9 1673.3 1843.45C1678.19 1847.33 1684.09 1849.24 1689.88 1849.24C1697.63 1849.24 1705.39 1845.79 1710.65 1839.31C1719.79 1827.83 1717.93 1811.1 1706.51 1801.96Z" fill="#64728C"/>
<path d="M1600.78 1855.46C1562.9 1823.53 1485.4 1741.03 1470.26 1724.82C1460.21 1714.09 1443.37 1713.51 1432.7 1723.55C1421.96 1733.59 1421.43 1750.37 1431.42 1761.11C1453.2 1784.43 1527.36 1863.06 1566.52 1896.1C1571.51 1900.29 1577.57 1902.37 1583.62 1902.37C1591.17 1902.37 1598.71 1899.13 1603.97 1892.91C1613.43 1881.65 1611.99 1864.91 1600.78 1855.46Z" fill="#64728C"/>
<path d="M920.588 1126.58L921.428 1126.61L921.455 1126.61L921.482 1126.62C948.912 1128.24 1008.32 1132.55 1066.62 1141.89C1095.77 1146.55 1124.78 1152.49 1149.45 1160.02C1173.88 1167.48 1194.85 1176.74 1207.22 1188.44H1207.22C1214.38 1195.15 1217.96 1204.78 1217.12 1214.49L1217.12 1214.5C1211.04 1284.14 1185 1389.36 1160.14 1478.31C1135.24 1567.39 1111.36 1640.67 1109.4 1646.67L1109.4 1646.67C1105.11 1659.89 1092.79 1668.8 1078.94 1668.8H919.563C901.864 1668.8 887.5 1654.44 887.5 1636.74V1158.61C887.5 1149.77 891.15 1141.31 897.576 1135.27C903.824 1129.34 911.939 1126.36 920.588 1126.58ZM951.624 1604.68H1055.52C1076.34 1538.73 1136.48 1342.19 1151.12 1228.08C1134.41 1220.89 1105.4 1213.86 1070.13 1207.78C1034.19 1201.57 992.326 1196.43 951.624 1193.05V1604.68Z" fill="#64728C" stroke="#64728C" stroke-width="11"/>
<path d="M2141.43 1179.68C2159.12 1179.68 2173.5 1193.98 2173.5 1211.74V1689.86C2173.5 1707.56 2159.13 1721.93 2141.43 1721.93H1982.06C1967.63 1721.93 1955 1712.31 1951.15 1698.4L1951.15 1698.39C1941.33 1662.82 1910.76 1571.7 1878.49 1482.75C1862.36 1438.31 1845.84 1394.49 1831.31 1358.5C1816.71 1322.34 1804.3 1294.53 1796.39 1281.79L1796.38 1281.78L1796.38 1281.77C1791.58 1273.98 1790.3 1264.56 1792.86 1255.78C1795.43 1246.98 1801.66 1239.73 1809.99 1235.82L1810 1235.81L1810.02 1235.81C1815.41 1233.32 1931.9 1179.68 2141.43 1179.68ZM2109.37 1244.27C1992.38 1247.62 1910.09 1268.7 1868.46 1282.27C1909.89 1372.7 1980.25 1574.8 2005.99 1657.8H2109.37V1244.27Z" fill="#64728C" stroke="#64728C" stroke-width="11"/>
</svg>
