<svg width="3062" height="3062" viewBox="0 0 3062 3062" fill="none" xmlns="http://www.w3.org/2000/svg">
<path d="M2165.56 1897.84C2161.15 1884.31 2149.47 1874.45 2135.4 1872.41L2026.23 1856.55L1977.42 1757.64C1971.12 1744.89 1958.15 1736.79 1943.93 1736.79C1929.71 1736.79 1916.71 1744.89 1910.41 1757.64L1861.6 1856.55L1752.43 1872.41C1747.4 1873.13 1742.67 1874.88 1738.49 1877.44C1734.28 1874.88 1729.55 1873.13 1724.51 1872.41L1615.34 1856.55L1566.53 1757.64C1560.23 1744.89 1547.24 1736.79 1533.04 1736.79C1518.82 1736.79 1505.82 1744.89 1499.52 1757.64L1450.71 1856.55L1341.54 1872.41C1336.01 1873.21 1330.83 1875.25 1326.35 1878.21C1321.84 1875.25 1316.66 1873.21 1311.14 1872.41L1201.96 1856.55L1153.16 1757.64C1146.86 1744.89 1133.86 1736.79 1119.66 1736.79C1105.44 1736.79 1092.44 1744.89 1086.14 1757.64L1037.36 1856.5L925.772 1872.39C911.603 1874.4 899.824 1884.36 895.466 1898.01C891.108 1911.66 894.943 1926.6 905.327 1936.46L986.459 2013.48L967.782 2124.45C965.442 2138.44 971.219 2152.59 982.724 2160.9C994.229 2169.22 1009.44 2170.32 1022.02 2163.72L1119.66 2112.37L1217.28 2163.72C1229.82 2170.28 1245.02 2169.27 1256.57 2160.9C1268.08 2152.59 1273.86 2138.44 1271.52 2124.45L1252.79 2013.18L1326.35 1941.47L1399.89 2013.18L1381.16 2124.45C1378.82 2138.44 1384.6 2152.59 1396.1 2160.9C1407.61 2169.22 1422.82 2170.32 1435.4 2163.72L1533.04 2112.37L1630.66 2163.72C1643.2 2170.28 1658.4 2169.27 1669.95 2160.9C1681.46 2152.59 1687.24 2138.44 1684.9 2124.45L1666.17 2013.18L1738.49 1942.69L1810.78 2013.18L1792.05 2124.45C1789.71 2138.44 1795.49 2152.59 1806.99 2160.9C1818.5 2169.22 1833.71 2170.32 1846.29 2163.72L1943.93 2112.37L2041.55 2163.72C2054.09 2170.28 2069.29 2169.27 2080.84 2160.9C2092.35 2152.59 2098.12 2138.44 2095.78 2124.45L2077.06 2013.18L2156.1 1936.11C2166.28 1926.2 2169.94 1911.36 2165.56 1897.84ZM1186.62 1973.34C1177.86 1981.88 1173.82 1994.18 1175.87 2006.29L1185.33 2062.52L1137.04 2037.12C1131.59 2034.25 1125.61 2032.83 1119.66 2032.83C1113.69 2032.83 1107.71 2034.25 1102.28 2037.12L1053.97 2062.52L1063.43 2006.29C1065.5 1994.03 1061.32 1981.53 1052.33 1972.99L1012.78 1935.46L1067.42 1927.67C1079.62 1925.93 1090.18 1918.28 1095.63 1907.22L1119.66 1858.57L1143.67 1907.22C1149.1 1918.23 1159.63 1925.88 1171.78 1927.64L1225.5 1935.46L1186.62 1973.34ZM1600 1973.34C1591.24 1981.88 1587.23 1994.18 1589.25 2006.29L1598.71 2062.52L1550.42 2037.12C1544.97 2034.25 1538.99 2032.83 1533.04 2032.83C1527.06 2032.83 1521.09 2034.25 1515.66 2037.12L1467.35 2062.52L1476.81 2006.29C1478.85 1994.18 1474.82 1981.88 1466.05 1973.34L1427.18 1935.46L1480.9 1927.64C1493.05 1925.88 1503.58 1918.23 1509.01 1907.22L1533.04 1858.57L1557.05 1907.22C1562.48 1918.23 1573.01 1925.88 1585.16 1927.64L1638.88 1935.46L1600 1973.34ZM2010.89 1973.34C2002.13 1981.88 1998.12 1994.18 2000.13 2006.29L2009.6 2062.52L1961.31 2037.12C1955.86 2034.25 1949.88 2032.83 1943.93 2032.83C1937.95 2032.83 1931.98 2034.25 1926.52 2037.12L1878.24 2062.52L1887.7 2006.29C1889.74 1994.18 1885.71 1981.88 1876.94 1973.34L1838.07 1935.46L1891.78 1927.64C1903.94 1925.88 1914.47 1918.23 1919.9 1907.22L1943.93 1858.57L1967.94 1907.22C1973.36 1918.23 1983.9 1925.88 1996.05 1927.64L2049.76 1935.46L2010.89 1973.34Z" fill="#64728C"/>
<path d="M1531.2 893C1304.64 893 1120.31 1077.33 1120.31 1303.89C1120.31 1436.57 1182.79 1554.83 1279.68 1630.53C1282.7 1633.79 1286.28 1636.51 1290.29 1638.53C1358.03 1688.03 1441.27 1717.27 1531.2 1717.27C1621.12 1717.27 1704.37 1688.03 1772.1 1638.53C1776.11 1636.51 1779.7 1633.79 1782.71 1630.53C1879.61 1554.83 1942.09 1436.57 1942.09 1303.89C1942.09 1077.33 1757.76 893 1531.2 893ZM1531.2 1642.56C1462.54 1642.56 1398.64 1621.72 1345.38 1585.98C1354.91 1490.63 1434.63 1415.95 1531.2 1415.95C1627.77 1415.95 1707.48 1490.63 1717.02 1585.98C1663.75 1621.72 1599.86 1642.56 1531.2 1642.56ZM1419.14 1229.18C1419.14 1167.4 1469.41 1117.12 1531.2 1117.12C1592.98 1117.12 1643.26 1167.4 1643.26 1229.18C1643.26 1290.96 1592.98 1341.24 1531.2 1341.24C1469.41 1341.24 1419.14 1290.96 1419.14 1229.18ZM1781.69 1529.5C1761.32 1460.92 1714.01 1403.97 1652.23 1371.27C1692.42 1336.98 1717.97 1286.03 1717.97 1229.18C1717.97 1126.21 1634.2 1042.41 1531.2 1042.41C1428.23 1042.41 1344.43 1126.21 1344.43 1229.18C1344.43 1286.03 1369.98 1336.98 1410.2 1371.27C1348.39 1403.97 1301.08 1460.92 1280.71 1529.5C1227.44 1469.56 1195.02 1390.47 1195.02 1303.89C1195.02 1118.52 1345.83 967.707 1531.2 967.707C1716.57 967.707 1867.38 1118.52 1867.38 1303.89C1867.38 1390.47 1834.96 1469.56 1781.69 1529.5Z" fill="#64728C"/>
</svg>
