<svg width="3062" height="3062" viewBox="0 0 3062 3062" fill="none" xmlns="http://www.w3.org/2000/svg">
<path d="M2053.5 1946.86C2049.88 1935.78 2040.25 1927.65 2028.65 1926.01L1938.8 1912.95L1898.65 1831.76C1893.46 1821.25 1882.85 1814.6 1871.08 1814.6C1859.32 1814.6 1848.7 1821.25 1843.52 1831.76L1803.37 1912.95L1713.52 1926.01C1709.41 1926.58 1705.54 1928.06 1702.08 1930.11C1698.63 1927.98 1694.76 1926.58 1690.56 1926.01L1600.8 1912.95L1560.65 1831.76C1555.46 1821.25 1544.77 1814.6 1533.08 1814.6C1521.4 1814.6 1510.62 1821.25 1505.44 1831.76L1465.28 1912.95L1375.52 1926.01C1370.91 1926.67 1366.71 1928.31 1363.01 1930.77C1359.31 1928.31 1355.03 1926.67 1350.5 1926.01L1260.66 1912.95L1220.5 1831.76C1215.32 1821.25 1204.62 1814.6 1192.94 1814.6C1181.26 1814.6 1170.56 1821.25 1165.38 1831.76L1125.22 1912.95L1033.4 1926.01C1021.72 1927.65 1012.01 1935.86 1008.47 1947.03C1004.85 1958.19 1008.06 1970.51 1016.53 1978.55L1083.34 2041.77L1067.96 2132.9C1066.07 2144.39 1070.76 2155.97 1080.22 2162.78C1089.68 2169.6 1102.27 2170.5 1112.55 2165.08L1192.94 2122.88L1273.24 2165.08C1283.53 2170.5 1296.04 2169.6 1305.58 2162.78C1315.04 2155.97 1319.81 2144.31 1317.84 2132.9L1302.45 2041.52L1363.01 1982.66L1423.49 2041.52L1408.1 2132.9C1406.13 2144.39 1410.9 2155.97 1420.36 2162.78C1429.82 2169.6 1442.33 2170.5 1452.69 2165.08L1533.08 2122.88L1613.39 2165.08C1623.67 2170.5 1636.18 2169.6 1645.72 2162.78C1655.18 2155.97 1659.96 2144.31 1657.98 2132.9L1642.6 2041.52L1702.08 1983.64L1761.57 2041.52L1746.18 2132.9C1744.21 2144.39 1748.98 2155.97 1758.44 2162.78C1767.91 2169.6 1780.41 2170.5 1790.78 2165.08L1871.08 2122.88L1951.47 2165.08C1961.76 2170.5 1974.26 2169.6 1983.81 2162.78C1993.27 2155.97 1997.96 2144.31 1996.07 2132.9L1980.68 2041.52L2045.68 1978.22C2054.07 1970.1 2057.12 1957.86 2053.5 1946.78V1946.86ZM1247.98 2008.85C1240.83 2015.83 1237.45 2025.92 1239.18 2035.94L1246.91 2082.08L1207.26 2061.23C1202.73 2058.85 1197.79 2057.7 1192.94 2057.7C1188.09 2057.7 1183.07 2058.85 1178.62 2061.23L1138.88 2082.08L1146.62 2035.94C1148.34 2025.84 1144.89 2015.58 1137.48 2008.6L1104.98 1977.81L1149.91 1971.41C1159.95 1970.01 1168.67 1963.69 1173.11 1954.66L1192.94 1914.76L1212.69 1954.66C1217.13 1963.69 1225.77 1970.01 1235.81 1971.41L1279.99 1977.81L1247.98 2008.93V2008.85ZM1588.13 2008.85C1580.97 2015.83 1577.59 2025.92 1579.32 2035.94L1587.06 2082.08L1547.32 2061.23C1542.87 2058.85 1537.94 2057.7 1533.08 2057.7C1528.23 2057.7 1523.21 2058.85 1518.77 2061.23L1479.02 2082.08L1486.76 2035.94C1488.49 2026.01 1485.11 2015.91 1477.95 2008.85L1445.95 1977.73L1490.13 1971.33C1500.17 1969.85 1508.81 1963.61 1513.25 1954.58L1533.08 1914.68L1552.83 1954.58C1557.27 1963.61 1565.91 1969.93 1575.95 1971.33L1620.13 1977.73L1588.13 2008.85ZM1926.21 2008.85C1918.97 2015.83 1915.68 2025.92 1917.41 2035.94L1925.14 2082.08L1885.4 2061.23C1880.96 2058.85 1876.02 2057.7 1871.08 2057.7C1866.15 2057.7 1861.29 2058.85 1856.77 2061.23L1817.11 2082.08L1824.84 2035.94C1826.57 2026.01 1823.2 2015.91 1816.04 2008.85L1784.03 1977.73L1828.22 1971.33C1838.26 1969.85 1846.89 1963.61 1851.34 1954.58L1871.08 1914.68L1890.91 1954.58C1895.36 1963.61 1904 1969.93 1914.03 1971.33L1958.22 1977.73L1926.21 2008.85Z" fill="#64728C"/>
<path d="M1531.4 888C1761.31 888 1948.3 1074.99 1948.3 1304.9C1948.3 1439.25 1885.05 1559.13 1786.97 1635.93C1783.66 1639.48 1779.75 1642.41 1775.46 1644.62C1706.84 1694.68 1622.45 1724.2 1531.4 1724.2C1440.35 1724.2 1355.96 1694.68 1287.34 1644.62C1283.05 1642.41 1279.15 1639.49 1275.84 1635.94C1228.18 1598.74 1187.18 1572.89 1158.79 1527.99C1130.15 1482.71 1114.5 1418.62 1114.5 1304.9C1114.5 1074.99 1301.59 888 1531.4 888ZM1531.4 1423C1439.19 1423 1362.77 1493.32 1351.96 1584.02C1403.69 1617.95 1465.32 1637.6 1531.4 1637.6C1597.57 1637.6 1659.2 1617.86 1710.83 1584.02C1700.02 1493.41 1623.61 1423 1531.4 1423ZM1531.4 974.7C1349.31 974.7 1201.2 1122.81 1201.2 1304.9C1201.2 1386.14 1230.31 1460.66 1278.45 1518.45C1299.86 1455.79 1343.48 1403.54 1399.8 1371.29C1397.25 1369.21 1394.75 1367.21 1392.3 1365.27C1387.78 1361.67 1383.39 1358.2 1379.26 1354.67C1370.97 1347.58 1363.5 1340.09 1357.33 1330.18C1345 1310.36 1338.6 1282.01 1338.6 1230.2C1338.6 1123.89 1425.09 1037.4 1531.4 1037.4C1637.71 1037.4 1724.2 1123.89 1724.2 1230.2C1724.2 1285.85 1700.47 1335.93 1662.72 1371.13C1719.3 1403.44 1763.1 1455.92 1784.49 1518.87C1795.32 1507.62 1805.22 1499.28 1813.76 1491.59C1824.18 1482.23 1832.64 1473.8 1839.53 1461.78C1853.42 1437.56 1861.6 1397.62 1861.6 1304.9C1861.6 1122.81 1713.49 974.7 1531.4 974.7ZM1531.4 1124.1C1472.92 1124.1 1425.4 1171.71 1425.4 1230.2C1425.4 1288.69 1472.92 1336.3 1531.4 1336.3C1589.89 1336.3 1637.5 1288.69 1637.5 1230.2C1637.5 1171.71 1589.89 1124.1 1531.4 1124.1Z" fill="#64728C" stroke="#64728C" stroke-width="12"/>
</svg>
