<svg width="3062" height="3062" viewBox="0 0 3062 3062" fill="none" xmlns="http://www.w3.org/2000/svg">
<path d="M1624.24 1515.56C1713.5 1515.56 1786.11 1442.95 1786.11 1353.69C1786.11 1264.44 1713.5 1191.83 1624.24 1191.83C1534.99 1191.83 1462.38 1264.44 1462.38 1353.69C1462.38 1442.95 1534.99 1515.56 1624.24 1515.56ZM1624.24 1266.54C1672.3 1266.54 1711.4 1305.63 1711.4 1353.69C1711.4 1401.75 1672.3 1440.85 1624.24 1440.85C1576.19 1440.85 1537.09 1401.75 1537.09 1353.69C1537.09 1305.63 1576.19 1266.54 1624.24 1266.54Z" fill="#64728C"/>
<path d="M1624.24 1042.41C1406.6 1042.41 1229.54 1219.48 1229.54 1437.12C1229.54 1654.76 1406.6 1831.82 1624.24 1831.82C1841.88 1831.82 2018.94 1654.76 2018.94 1437.12C2018.94 1219.48 1841.88 1042.41 1624.24 1042.41ZM1624.24 1117.12C1800.69 1117.12 1944.24 1260.67 1944.24 1437.12C1944.24 1507.5 1921.38 1572.64 1882.71 1625.53C1851.21 1602.83 1813.18 1590.27 1773.65 1590.27H1474.82C1435.29 1590.27 1397.26 1602.83 1365.76 1625.53C1327.11 1572.63 1304.25 1507.5 1304.25 1437.12C1304.25 1260.67 1447.8 1117.12 1624.24 1117.12ZM1417.25 1680.94C1434.47 1670.6 1454.32 1664.97 1474.82 1664.97H1773.65C1794.15 1664.97 1814 1670.6 1831.22 1680.94C1775.39 1728.42 1703.11 1757.11 1624.24 1757.11C1545.37 1757.11 1473.09 1728.42 1417.25 1680.94Z" fill="#64728C"/>
<path d="M2008.99 1052.37C1906.22 949.598 1769.58 893 1624.24 893C1478.91 893 1342.27 949.598 1239.49 1052.37C1136.72 1155.14 1080.13 1291.78 1080.13 1437.12C1080.13 1544.35 1110.97 1646.83 1168.4 1734.48L926.183 1976.7C905.019 1997.87 893.359 2026.01 893.359 2055.94C893.359 2085.87 905.019 2114.01 926.183 2135.18C947.348 2156.34 975.487 2168 1005.42 2168C1035.36 2168 1063.49 2156.34 1084.66 2135.18L1326.88 1892.95C1414.53 1950.39 1517.01 1981.23 1624.24 1981.23C1769.58 1981.23 1906.22 1924.63 2008.99 1821.86C2111.76 1719.1 2168.36 1582.46 2168.36 1437.12C2168.36 1291.78 2111.76 1155.14 2008.99 1052.37ZM1031.83 2082.35C1024.78 2089.41 1015.4 2093.29 1005.42 2093.29C995.444 2093.29 986.063 2089.41 979.008 2082.35C971.954 2075.3 968.066 2065.92 968.066 2055.94C968.066 2045.96 971.954 2036.58 979.008 2029.53L1107.43 1901.1L1160.26 1953.93L1031.83 2082.35ZM1213.08 1901.1L1160.26 1848.28L1213.99 1794.54C1222.15 1803.89 1230.64 1813.01 1239.49 1821.86C1248.35 1830.72 1257.47 1839.21 1266.81 1847.37L1213.08 1901.1ZM1624.24 1906.53C1365.41 1906.53 1154.83 1695.95 1154.83 1437.12C1154.83 1178.28 1365.41 967.707 1624.24 967.707C1883.08 967.707 2093.65 1178.28 2093.65 1437.12C2093.65 1695.95 1883.08 1906.53 1624.24 1906.53Z" fill="#64728C"/>
</svg>
