<svg width="3062" height="3063" viewBox="0 0 3062 3063" fill="none" xmlns="http://www.w3.org/2000/svg">
<path d="M1623.9 1516.6C1713.2 1516.6 1785.8 1444 1785.8 1354.7C1785.8 1265.4 1713.2 1192.8 1623.9 1192.8C1534.6 1192.8 1462 1265.4 1462 1354.7C1462 1444 1534.6 1516.6 1623.9 1516.6ZM1623.9 1267.6C1672 1267.6 1711.1 1306.7 1711.1 1354.7C1711.1 1402.7 1672 1441.9 1623.9 1441.9C1575.8 1441.9 1536.7 1402.8 1536.7 1354.7C1536.7 1306.6 1575.8 1267.6 1623.9 1267.6Z" fill="#64728C"/>
<path d="M1623.9 1043.4C1406.3 1043.4 1229.2 1220.5 1229.2 1438.1C1229.2 1655.7 1406.3 1832.8 1623.9 1832.8C1841.5 1832.8 2018.6 1655.7 2018.6 1438.1C2018.6 1220.5 1841.5 1043.4 1623.9 1043.4ZM1623.9 1118.2C1800.3 1118.2 1943.9 1261.7 1943.9 1438.2C1943.9 1614.7 1921 1573.7 1882.4 1626.6C1850.9 1603.9 1812.9 1591.3 1773.3 1591.3H1474.5C1435 1591.3 1396.9 1603.9 1365.5 1626.6C1326.8 1573.7 1304 1508.6 1304 1438.2C1304 1261.7 1447.5 1118.2 1624 1118.2H1623.9ZM1416.9 1682C1434.1 1671.7 1454 1666 1474.5 1666H1773.3C1793.8 1666 1813.7 1671.6 1830.9 1682C1775.1 1729.5 1702.8 1758.2 1623.9 1758.2C1545 1758.2 1472.7 1729.5 1416.9 1682Z" fill="#64728C"/>
<path d="M2008.6 1053.4C1905.8 950.6 1769.2 894 1623.8 894C1478.4 894 1341.8 950.6 1239.1 1053.4C1136.3 1156.2 1079.7 1292.8 1079.7 1438.2C1079.7 1583.6 1110.5 1647.9 1168 1735.6L925.8 1977.8C904.6 1999 893 2027.1 893 2057C893 2086.9 904.7 2115.1 925.8 2136.2C947 2157.4 975.1 2169 1005 2169C1034.9 2169 1063.1 2157.3 1084.2 2136.2L1326.4 1894C1414.1 1951.4 1516.5 1982.3 1623.8 1982.3C1731.1 1982.3 1905.8 1925.7 2008.6 1822.9C2111.4 1720.1 2168 1583.5 2168 1438.2C2168 1292.9 2111.4 1156.2 2008.6 1053.4ZM1031.5 2083.4C1024.5 2090.5 1015.1 2094.3 1005.1 2094.3C995.1 2094.3 985.7 2090.4 978.7 2083.4C971.6 2076.3 967.8 2067 967.8 2057C967.8 2047 971.7 2037.6 978.7 2030.6L1107.1 1902.2L1159.9 1955L1031.5 2083.4ZM1212.7 1902.1L1159.9 1849.3L1213.6 1795.6C1221.8 1805 1230.3 1814.1 1239.1 1822.9C1247.9 1831.8 1257.1 1840.2 1266.4 1848.4L1212.7 1902.1ZM1623.9 1907.6C1365.1 1907.6 1154.5 1697 1154.5 1438.2C1154.5 1179.4 1365.1 968.8 1623.9 968.8C1882.7 968.8 2093.3 1179.4 2093.3 1438.2C2093.3 1697 1882.7 1907.6 1623.9 1907.6Z" fill="#64728C" stroke="#64728C" stroke-width="35"/>
</svg>
