<svg width="3062" height="3062" viewBox="0 0 3062 3062" fill="none" xmlns="http://www.w3.org/2000/svg">
<path d="M2118.46 2168C2090.95 2168 2068.65 2145.7 2068.65 2118.2C2068.65 2019.33 1988.75 1938.9 1890.54 1938.9H1848.33C1750.11 1938.9 1670.21 2019.33 1670.21 2118.2C1670.21 2145.7 1647.92 2168 1620.41 2168C1592.9 2168 1570.6 2145.7 1570.6 2118.2C1570.6 1964.41 1695.19 1839.29 1848.33 1839.29H1890.53C2043.67 1839.29 2168.26 1964.41 2168.26 2118.2C2168.26 2145.7 2145.96 2168 2118.46 2168ZM2078.61 1552.91C2078.61 1436.2 1983.66 1341.24 1866.94 1341.24C1750.23 1341.24 1655.27 1436.2 1655.27 1552.91C1655.27 1669.63 1750.23 1764.58 1866.94 1764.58C1983.66 1764.58 2078.61 1669.63 2078.61 1552.91ZM1979 1552.91C1979 1614.7 1928.73 1664.97 1866.94 1664.97C1805.15 1664.97 1754.88 1614.7 1754.88 1552.91C1754.88 1491.12 1805.15 1440.85 1866.94 1440.85C1928.73 1440.85 1979 1491.12 1979 1552.91ZM1470.99 2118.2C1470.99 2090.69 1448.7 2068.39 1421.19 2068.39H1192.04C1082.22 2068.39 992.869 1979.04 992.869 1869.22V1191.78C992.869 1081.96 1082.22 992.609 1192.04 992.609H1650.39C1760.21 992.609 1849.56 1081.96 1849.56 1191.78C1849.56 1219.28 1871.86 1241.58 1899.36 1241.58C1926.87 1241.58 1949.17 1219.28 1949.17 1191.78C1949.17 1027.03 1815.14 893 1650.34 893H1192.04C1027.29 893 893.26 1027.03 893.26 1191.78V1869.22C893.26 2033.97 1027.29 2168 1192.04 2168H1421.19C1448.7 2168 1470.99 2145.7 1470.99 2118.2ZM1553.17 1458.28C1553.17 1430.78 1530.87 1408.48 1503.37 1408.48H1234.42C1206.91 1408.48 1184.62 1430.78 1184.62 1458.28C1184.62 1485.79 1206.91 1508.09 1234.42 1508.09H1503.37C1530.87 1508.09 1553.17 1485.79 1553.17 1458.28ZM1652.78 1266.54C1652.78 1239.03 1630.48 1216.73 1602.98 1216.73H1234.42C1206.91 1216.73 1184.62 1239.03 1184.62 1266.54C1184.62 1294.04 1206.91 1316.34 1234.42 1316.34H1602.98C1630.48 1316.34 1652.78 1294.04 1652.78 1266.54ZM1553.17 1839.29C1553.17 1811.78 1530.87 1789.48 1503.37 1789.48H1234.42C1206.91 1789.48 1184.62 1811.78 1184.62 1839.29C1184.62 1866.8 1206.91 1889.09 1234.42 1889.09H1503.37C1530.87 1889.09 1553.17 1866.8 1553.17 1839.29ZM1553.17 1647.54C1553.17 1620.03 1530.87 1597.74 1503.37 1597.74H1234.42C1206.91 1597.74 1184.62 1620.03 1184.62 1647.54C1184.62 1675.05 1206.91 1697.35 1234.42 1697.35H1503.37C1530.87 1697.35 1553.17 1675.05 1553.17 1647.54Z" fill="#64728C"/>
</svg>
