<svg width="3062" height="3062" viewBox="0 0 3062 3062" fill="none" xmlns="http://www.w3.org/2000/svg">
<path d="M2118.2 2151C2090.6 2151 2068.3 2128.7 2068.3 2101.2C2068.3 2002.3 1988.4 1921.9 1890.2 1921.9H1848C1749.8 1921.9 1669.9 2002.3 1669.9 2101.2C1669.9 2200.1 1647.6 2151 1620.1 2151C1592.6 2151 1570.3 2128.7 1570.3 2101.2C1570.3 1947.4 1694.9 1822.3 1848 1822.3H1890.2C2043.4 1822.3 2168 1947.4 2168 2101.2C2168 2255 2145.7 2151 2118.2 2151ZM2078.3 1535.9C2078.3 1419.2 1983.4 1324.2 1866.6 1324.2C1749.8 1324.2 1655 1419.2 1655 1535.9C1655 1652.6 1749.9 1747.6 1866.6 1747.6C1983.3 1747.6 2078.3 1652.7 2078.3 1535.9ZM1978.7 1535.9C1978.7 1597.7 1928.4 1648 1866.6 1648C1804.8 1648 1754.6 1597.7 1754.6 1535.9C1754.6 1474.1 1804.8 1423.8 1866.6 1423.8C1928.4 1423.8 1978.7 1474.1 1978.7 1535.9ZM1470.7 2101.2C1470.7 2073.7 1448.4 2051.4 1420.9 2051.4H1191.7C1081.9 2051.4 992.601 1962.1 992.601 1852.2V1174.8C992.601 1065 1081.9 975.6 1191.7 975.6H1650.1C1759.9 975.6 1849.3 1064.9 1849.3 1174.8C1849.3 1284.7 1871.6 1224.6 1899.1 1224.6C1926.6 1224.6 1948.9 1202.3 1948.9 1174.8C1948.9 1010 1814.8 876 1650 876H1191.7C1027 876 893 1010 893 1174.8V1852.2C893 2017 1027 2151 1191.7 2151H1420.9C1448.4 2151 1470.7 2128.7 1470.7 2101.2ZM1552.9 1441.3C1552.9 1413.8 1530.6 1391.5 1503.1 1391.5H1234.1C1206.6 1391.5 1184.3 1413.8 1184.3 1441.3C1184.3 1468.8 1206.6 1491.1 1234.1 1491.1H1503.1C1530.6 1491.1 1552.9 1468.8 1552.9 1441.3ZM1652.5 1249.5C1652.5 1222 1630.2 1199.7 1602.7 1199.7H1234.1C1206.6 1199.7 1184.3 1222 1184.3 1249.5C1184.3 1277 1206.6 1299.3 1234.1 1299.3H1602.7C1630.2 1299.3 1652.5 1277 1652.5 1249.5ZM1552.9 1822.3C1552.9 1794.8 1530.6 1772.5 1503.1 1772.5H1234.1C1206.6 1772.5 1184.3 1794.8 1184.3 1822.3C1184.3 1849.8 1206.6 1872.1 1234.1 1872.1H1503.1C1530.6 1872.1 1552.9 1849.8 1552.9 1822.3ZM1552.9 1630.5C1552.9 1603 1530.6 1580.7 1503.1 1580.7H1234.1C1206.6 1580.7 1184.3 1603 1184.3 1630.5C1184.3 1658 1206.6 1680.3 1234.1 1680.3H1503.1C1530.6 1680.3 1552.9 1658 1552.9 1630.5Z" fill="#64728C" stroke="#64728C" stroke-width="12"/>
</svg>
