<svg width="3062" height="3062" viewBox="0 0 3062 3062" fill="none" xmlns="http://www.w3.org/2000/svg">
<path d="M1023.09 1635.2C1023.09 1635.2 1010.23 1838.84 1284.34 1828.9H1853.91L2110.68 2042V1172.37C2110.68 1172.37 2128.05 968 1906.12 968H1343.94" stroke="#64728C" stroke-width="100" stroke-miterlimit="10" stroke-linecap="round"/>
<path d="M941 1039.59C957.445 1007.28 985.991 982.107 1021.91 972.305C1090.56 953.533 1160.45 997.889 1177.98 1071.48C1195.51 1145.08 1154.09 1219.84 1085.36 1238.61C1055.75 1242.95 1021.91 1265.18 1021.91 1353" stroke="#64728C" stroke-width="100" stroke-miterlimit="10" stroke-linecap="round"/>
<path d="M1020.5 1548C1051.15 1548 1076 1522.93 1076 1492C1076 1461.07 1051.15 1436 1020.5 1436C989.848 1436 965 1461.07 965 1492C965 1522.93 989.848 1548 1020.5 1548Z" fill="#64728C"/>
</svg>
