<svg width="3063" height="3062" viewBox="0 0 3063 3062" fill="none" xmlns="http://www.w3.org/2000/svg">
<path d="M1017.47 1403.8C1010.77 1410.5 1005.37 1418.4 1001.67 1427.2C998.067 1436 996.167 1445.4 996.167 1454.9C996.167 1464.4 998.167 1473.8 1001.87 1482.6C1005.57 1491.4 1010.97 1499.3 1017.77 1506C1028.07 1516.1 1041.07 1522.9 1055.27 1525.7C1069.47 1528.5 1084.07 1527 1097.47 1521.6C1106.27 1517.7 1114.47 1512.3 1121.57 1505.7C1128.17 1499.1 1133.37 1491.2 1136.97 1482.6C1141.17 1473.8 1143.17 1464.2 1142.77 1454.4C1142.67 1435.4 1135.07 1417.2 1121.57 1403.8C1107.87 1390.2 1089.27 1382.5 1069.87 1382.4C1050.57 1382.4 1031.97 1389.8 1018.07 1403.3L1017.47 1403.7V1403.8ZM1095.17 1038.3C1104.77 1038.1 1114.27 1039.9 1123.27 1043.4C1132.17 1046.9 1140.27 1052.3 1147.17 1059C1153.97 1065.7 1159.37 1073.8 1163.17 1082.6C1166.87 1091.5 1168.77 1101 1168.77 1110.6C1168.77 1120.2 1166.87 1129.7 1163.17 1138.6C1159.37 1147.5 1153.97 1155.5 1147.17 1162.2C1140.27 1168.9 1132.17 1174.2 1123.27 1177.8C1114.27 1181.3 1104.77 1183.1 1095.17 1182.9C1085.57 1182.7 1076.07 1184.5 1067.07 1188C1058.17 1191.6 1050.07 1196.8 1043.17 1203.6C1036.37 1210.3 1030.87 1218.4 1027.17 1227.2C1023.47 1236.1 1021.57 1245.6 1021.57 1255.2C1021.57 1264.8 1023.47 1274.3 1027.17 1283.2C1030.87 1292.1 1036.37 1300.1 1043.17 1306.8C1050.07 1313.5 1058.17 1318.8 1067.07 1322.4C1076.07 1326 1085.57 1327.7 1095.17 1327.5C1216.47 1327.5 1314.67 1230.3 1314.67 1110.6C1314.67 990.9 1216.17 894 1094.87 894C1056.47 894 1018.77 903.9 985.468 922.9C952.068 941.9 924.267 969.3 904.867 1002.4C900.067 1010.6 896.867 1019.7 895.667 1029.1C894.367 1038.5 894.968 1048.1 897.468 1057.3C899.868 1066.5 904.167 1075.1 910.067 1082.6C915.867 1090.1 923.067 1096.4 931.367 1101.1L931.867 1101.3C948.667 1110.7 968.467 1113.2 987.067 1108.2C1005.67 1103.2 1021.57 1091.1 1031.37 1074.5C1037.97 1063.4 1047.27 1054.3 1058.47 1047.9C1069.67 1041.6 1082.27 1038.3 1095.17 1038.4V1038.3ZM1947.97 1012.6H1508.67C1499.07 1012.4 1489.57 1014.2 1480.67 1017.7C1471.77 1021.2 1463.57 1026.6 1456.77 1033.3C1449.87 1040 1444.47 1048.1 1440.77 1056.9C1437.07 1065.8 1435.17 1075.3 1435.17 1084.9C1435.17 1094.5 1437.07 1104 1440.77 1112.9C1444.47 1121.8 1449.87 1129.8 1456.77 1136.5C1463.57 1143.2 1471.77 1148.5 1480.67 1152.1C1489.57 1155.6 1499.07 1157.4 1508.67 1157.2H1947.97C1957.47 1157.2 1966.97 1159 1975.87 1162.6C1984.67 1166.2 1992.77 1171.5 1999.57 1178.2C2006.37 1184.9 2011.77 1192.9 2015.47 1201.7C2019.17 1210.5 2021.07 1220 2021.17 1229.5V1931.8L1906.17 1827C1892.67 1814.5 1874.87 1807.5 1856.47 1807.5H1215.87C1206.37 1807.5 1196.87 1805.7 1188.07 1802.1C1179.17 1798.5 1171.17 1793.2 1164.37 1786.5C1157.57 1779.8 1152.07 1771.8 1148.37 1763C1144.67 1754.2 1142.77 1744.8 1142.67 1735.2V1663C1142.37 1643.8 1134.47 1625.5 1120.77 1612.1C1107.07 1598.7 1088.67 1591.1 1069.47 1591.1C1050.27 1591.1 1031.87 1598.6 1018.17 1612.1C1004.47 1625.5 996.667 1643.8 996.267 1663V1735.2C996.267 1854.9 1094.57 1952 1215.87 1952H1827.87L2047.47 2149.3C2060.27 2161.1 2076.87 2168.1 2094.37 2168.8C2104.37 2168.7 2114.27 2166.7 2123.57 2163C2136.67 2157.4 2147.77 2148.2 2155.57 2136.4C2163.37 2124.6 2167.57 2110.7 2167.57 2096.6V1229.5C2167.57 1109.7 2069.17 1012.7 1947.97 1012.7V1012.6Z" fill="#64728C"/>
</svg>
