<svg width="3063" height="3062" viewBox="0 0 3063 3062" fill="none" xmlns="http://www.w3.org/2000/svg">
<path d="M1017.64 1403.02C1010.87 1409.71 1005.49 1417.67 1001.83 1426.45C998.172 1435.23 996.298 1444.66 996.32 1454.17C996.343 1463.69 998.261 1473.1 1001.96 1481.87C1005.67 1490.63 1011.08 1498.57 1017.89 1505.22C1028.2 1515.31 1041.24 1522.16 1055.4 1524.93C1069.56 1527.69 1084.22 1526.26 1097.57 1520.79C1106.45 1516.88 1114.61 1511.51 1121.72 1504.9C1128.3 1498.26 1133.52 1490.4 1137.1 1481.77C1141.28 1472.98 1143.29 1463.32 1142.95 1453.59C1142.85 1434.59 1135.22 1416.4 1121.72 1403.02C1107.96 1389.41 1089.41 1381.73 1070.05 1381.65C1050.69 1381.57 1032.07 1389.09 1018.2 1402.59L1017.64 1403.02ZM1095.3 1037.52C1104.9 1037.35 1114.44 1039.09 1123.36 1042.64C1132.28 1046.19 1140.41 1051.49 1147.26 1058.22C1154.11 1064.94 1159.55 1072.97 1163.27 1081.82C1166.98 1090.68 1168.9 1100.18 1168.9 1109.79C1168.9 1119.39 1166.98 1128.89 1163.27 1137.75C1159.55 1146.6 1154.11 1154.63 1147.26 1161.36C1140.41 1168.08 1132.28 1173.38 1123.36 1176.93C1114.44 1180.48 1104.9 1182.22 1095.3 1182.05C1085.7 1181.87 1076.16 1183.61 1067.24 1187.17C1058.32 1190.72 1050.2 1196.01 1043.35 1202.74C1036.49 1209.47 1031.05 1217.49 1027.34 1226.35C1023.62 1235.2 1021.71 1244.71 1021.71 1254.31C1021.71 1263.91 1023.62 1273.42 1027.34 1282.27C1031.05 1291.13 1036.49 1299.15 1043.35 1305.88C1050.2 1312.61 1058.32 1317.9 1067.24 1321.46C1076.16 1325.01 1085.7 1326.75 1095.3 1326.57C1216.57 1326.57 1314.85 1229.38 1314.76 1109.65C1314.66 989.929 1216.26 893 1095.01 893C1056.64 892.935 1018.91 902.904 985.571 921.919C952.235 940.933 924.449 968.333 904.97 1001.4C900.159 1009.61 897.029 1018.69 895.761 1028.12C894.493 1037.55 895.113 1047.14 897.585 1056.33C900.057 1065.52 904.331 1074.12 910.159 1081.64C915.987 1089.16 923.252 1095.45 931.533 1100.14L931.992 1100.38C948.785 1109.82 968.606 1112.3 987.21 1107.31C1005.81 1102.31 1021.72 1090.23 1031.53 1073.65C1038.06 1062.57 1047.39 1053.4 1058.59 1047.06C1069.78 1040.72 1082.44 1037.43 1095.3 1037.52ZM1948.08 1011.83H1508.86C1499.26 1011.66 1489.72 1013.4 1480.8 1016.95C1471.87 1020.5 1463.75 1025.8 1456.9 1032.52C1450.05 1039.25 1444.61 1047.28 1440.89 1056.13C1437.17 1064.98 1435.26 1074.49 1435.26 1084.09C1435.26 1093.7 1437.17 1103.2 1440.89 1112.06C1444.61 1120.91 1450.05 1128.94 1456.9 1135.66C1463.75 1142.39 1471.87 1147.69 1480.8 1151.24C1489.72 1154.79 1499.26 1156.53 1508.86 1156.36H1948.08C1957.63 1156.29 1967.11 1158.11 1975.96 1161.71C1984.81 1165.31 1992.86 1170.62 1999.66 1177.33C2006.46 1184.05 2011.86 1192.04 2015.57 1200.84C2019.28 1209.65 2021.22 1219.1 2021.27 1228.65V1930.99L1906.35 1826.21C1892.79 1813.7 1875.02 1806.74 1856.56 1806.7H1216.04C1206.49 1806.77 1197.02 1804.95 1188.16 1801.35C1179.31 1797.75 1171.26 1792.44 1164.46 1785.73C1157.66 1779.02 1152.25 1771.04 1148.54 1762.23C1144.83 1753.43 1142.89 1743.98 1142.83 1734.43V1662.18C1142.48 1642.99 1134.61 1624.71 1120.92 1611.27C1107.23 1597.82 1088.81 1590.29 1069.62 1590.29C1050.43 1590.29 1032.01 1597.82 1018.32 1611.27C1004.63 1624.71 996.766 1642.99 996.418 1662.18V1734.43C996.418 1854.15 1094.75 1951.23 1216.04 1951.23H1828.02L2047.62 2148.49C2060.44 2160.34 2077.05 2167.26 2094.49 2168C2104.51 2167.89 2114.44 2165.94 2123.75 2162.23C2136.79 2156.67 2147.9 2147.41 2155.71 2135.59C2163.51 2123.77 2167.68 2109.92 2167.68 2095.75V1228.65C2167.68 1108.88 2069.35 1011.83 1948.08 1011.83Z" fill="#64728C"/>
</svg>
