<svg width="3062" height="3062" viewBox="0 0 3062 3062" fill="none" xmlns="http://www.w3.org/2000/svg">
<path d="M2008.6 893H1052.3C1010.1 893 969.501 909.801 939.601 939.601C909.701 969.501 893 1010.1 893 1052.3V2008.6C893 2050.8 909.701 2091.4 939.601 2121.3C969.501 2151.2 1010.1 2168 1052.3 2168H2008.6C2050.8 2168 2091.4 2151.2 2121.3 2121.3C2151.2 2091.4 2168 2050.8 2168 2008.6V1052.3C2168 1010.1 2151.2 969.501 2121.3 939.601C2091.4 909.801 2050.8 893 2008.6 893ZM972.601 1200.3C972.601 1162.6 1008.3 1132 1052.3 1132H2008.6C2052.6 1132 2088.3 1162.6 2088.3 1200.3V2020C2088.3 2057.7 2052.6 2088.3 2008.6 2088.3H1052.3C1008.3 2088.3 972.601 2057.7 972.601 2020V1200.3Z" fill="#64728C"/>
<path d="M1450.8 1689.8C1471.9 1689.8 1492.2 1681.4 1507.1 1666.5C1522.1 1651.6 1530.5 1631.3 1530.5 1610.1C1530.5 1588.9 1522.1 1568.7 1507.1 1553.8C1492.2 1538.9 1471.9 1530.5 1450.8 1530.5H972.601V1689.8H1450.8ZM1610.1 1450.8H2088.3V1291.4H1610.1C1589 1291.4 1568.7 1299.8 1553.8 1314.7C1538.9 1329.7 1530.5 1350 1530.5 1371.1C1530.5 1392.2 1538.9 1412.5 1553.8 1427.4C1568.7 1442.4 1589 1450.8 1610.1 1450.8Z" fill="#64728C"/>
</svg>
