<svg width="3062" height="3062" viewBox="0 0 3062 3062" fill="none" xmlns="http://www.w3.org/2000/svg">
<path d="M1971 946H1091C1012.03 946 948 1011.6 948 1092.52V1967.48C948 2048.4 1012.03 2114 1091 2114H1971C2049.97 2114 2114 2048.4 2114 1967.48V1092.52C2114 1011.6 2049.97 946 1971 946Z" stroke="#64728C" stroke-width="111" stroke-miterlimit="10"/>
<path d="M1451.13 1644.44C1472.26 1644.44 1492.53 1636.04 1507.47 1621.1C1522.42 1606.15 1530.81 1585.88 1530.81 1564.75C1530.81 1543.62 1522.42 1523.35 1507.47 1508.4C1492.53 1493.46 1472.26 1485.06 1451.13 1485.06H973V1644.44H1451.13ZM1610.5 1405.38H2088.63V1246H1610.5C1589.37 1246 1569.1 1254.4 1554.15 1269.34C1539.21 1284.28 1530.81 1304.55 1530.81 1325.69C1530.81 1346.82 1539.21 1367.09 1554.15 1382.04C1569.1 1396.98 1589.37 1405.38 1610.5 1405.38Z" fill="#64728C"/>
</svg>
