<svg width="3062" height="3062" viewBox="0 0 3062 3062" fill="none" xmlns="http://www.w3.org/2000/svg">
<path d="M2025.62 918C2060.65 918 2095.79 936.598 2121.93 965.396C2148.17 994.314 2166.11 1034.31 2166.11 1078.62V1982.38C2166.11 2026.69 2148.17 2066.69 2121.93 2095.6C2095.79 2124.4 2060.65 2143 2025.62 2143H1035.49C1000.45 2143 965.308 2124.4 939.173 2095.6C912.93 2066.69 894.992 2026.69 894.992 1982.38V1078.62C894.992 1034.31 912.93 994.314 939.173 965.396C965.308 936.598 1000.45 918 1035.49 918H2025.62ZM1035.49 1038.42C1028.78 1038.42 1021.98 1041.98 1016.53 1049.17C1011.07 1056.36 1007.4 1066.74 1007.4 1078.62V1982.38C1007.4 1994.26 1011.07 2004.64 1016.53 2011.83C1021.98 2019.02 1028.78 2022.58 1035.49 2022.58H2025.62C2032.33 2022.58 2039.12 2019.02 2044.58 2011.83C2050.03 2004.64 2053.7 1994.26 2053.7 1982.38V1078.62C2053.7 1066.74 2050.03 1056.36 2044.58 1049.17C2039.12 1041.98 2032.33 1038.42 2025.62 1038.42H1035.49Z" fill="#64728C" stroke="#64728C" stroke-width="20"/>
<path d="M1454.38 1279.46C1454.38 1251.73 1471.43 1229.25 1492.46 1229.25H1873.28C1894.31 1229.25 1911.37 1251.73 1911.37 1279.46C1911.37 1307.19 1894.31 1329.67 1873.28 1329.67H1492.46C1471.43 1329.67 1454.38 1307.19 1454.38 1279.46Z" fill="#64728C"/>
<path d="M1392.01 1194.04C1410.42 1213.6 1410.42 1245.31 1392.01 1264.87L1250.55 1415.12C1232.14 1434.67 1202.28 1434.67 1183.87 1415.12L1136.72 1365.03C1118.3 1345.47 1118.3 1313.76 1136.72 1294.2C1155.13 1274.65 1184.99 1274.65 1203.4 1294.2L1217.21 1308.87L1325.32 1194.04C1343.74 1174.48 1373.59 1174.48 1392.01 1194.04Z" fill="#64728C"/>
<path d="M1454.38 1681.13C1454.38 1653.4 1471.43 1630.92 1492.46 1630.92H1873.28C1894.31 1630.92 1911.37 1653.4 1911.37 1681.13C1911.37 1708.85 1894.31 1731.33 1873.28 1731.33H1492.46C1471.43 1731.33 1454.38 1708.85 1454.38 1681.13Z" fill="#64728C"/>
<path d="M1392.01 1595.52C1410.42 1615.15 1410.42 1646.99 1392.01 1666.62L1250.55 1817.44C1232.14 1837.08 1202.28 1837.08 1183.87 1817.44L1136.72 1767.17C1118.3 1747.54 1118.3 1715.7 1136.72 1696.07C1155.13 1676.44 1184.99 1676.44 1203.4 1696.07L1217.21 1710.79L1325.32 1595.52C1343.74 1575.89 1373.59 1575.89 1392.01 1595.52Z" fill="#64728C"/>
</svg>
