<svg width="3062" height="3063" viewBox="0 0 3062 3063" fill="none" xmlns="http://www.w3.org/2000/svg">
<path d="M2025.6 919C2060.6 919 2095.8 937.6 2121.9 966.4C2148.1 995.3 2166.1 1035.3 2166.1 1079.6V1983.4C2166.1 2027.7 2148.1 2067.7 2121.9 2096.6C2095.8 2125.4 2060.6 2144 2025.6 2144H1035.5C1000.4 2144 965.301 2125.4 939.101 2096.6C912.901 2067.7 895 2027.7 895 1983.4V1079.6C895 1035.3 912.901 995.3 939.101 966.4C965.301 937.6 1000.4 919 1035.5 919H2025.6ZM1035.5 1039.5C1028.7 1039.5 1021.9 1043.1 1016.5 1050.2C1011 1057.4 1007.4 1067.8 1007.4 1079.7V1983.5C1007.4 1995.4 1011 2005.8 1016.5 2013C1021.9 2020.2 1028.7 2023.8 1035.5 2023.8H2025.6C2032.3 2023.8 2039.1 2020.2 2044.5 2013C2050 2005.8 2053.7 1995.4 2053.7 1983.5V1079.7C2053.7 1067.8 2050 1057.4 2044.5 1050.2C2039.1 1043 2032.3 1039.4 2025.6 1039.4H1035.5V1039.5Z" fill="#64728C" stroke="#64728C" stroke-width="5"/>
<path d="M1454.4 1280.5C1454.4 1252.8 1471.4 1230.3 1492.4 1230.3H1873.3C1894.3 1230.3 1911.3 1252.8 1911.3 1280.5C1911.3 1308.2 1894.3 1330.7 1873.3 1330.7H1492.4C1471.4 1330.7 1454.4 1308.2 1454.4 1280.5Z" fill="#64728C"/>
<path d="M1392 1195.1C1410.4 1214.7 1410.4 1246.4 1392 1265.9L1250.5 1416.1C1232.1 1435.6 1202.3 1435.6 1183.8 1416.1L1136.7 1366C1118.3 1346.4 1118.3 1314.7 1136.7 1295.2C1155.1 1275.6 1185 1275.6 1203.4 1295.2L1217.2 1309.9L1325.3 1195.1C1343.7 1175.5 1373.6 1175.5 1392 1195.1Z" fill="#64728C"/>
<path d="M1454.4 1682.2C1454.4 1654.5 1471.4 1632 1492.4 1632H1873.3C1894.3 1632 1911.3 1654.5 1911.3 1682.2C1911.3 1709.9 1894.3 1732.4 1873.3 1732.4H1492.4C1471.4 1732.4 1454.4 1709.9 1454.4 1682.2Z" fill="#64728C"/>
<path d="M1392 1596.6C1410.4 1616.2 1410.4 1648.1 1392 1667.7L1250.5 1818.5C1232.1 1838.1 1202.3 1838.1 1183.8 1818.5L1136.7 1768.2C1118.3 1748.6 1118.3 1716.7 1136.7 1697.1C1155.1 1677.5 1185 1677.5 1203.4 1697.1L1217.2 1711.8L1325.3 1596.5C1343.7 1576.9 1373.6 1576.9 1392 1596.5V1596.6Z" fill="#64728C"/>
</svg>
