<svg width="3062" height="3062" viewBox="0 0 3062 3062" fill="none" xmlns="http://www.w3.org/2000/svg">
<path d="M1943.9 1719.7H1117.1C993.5 1719.7 893 1820.3 893 1943.8V2168H2168V1943.8C2168 1820.3 2067.5 1719.7 1943.9 1719.7ZM1576 1869.1H1484.9L1466.2 1794.4H1594.6L1575.9 1869.1H1576ZM1417.7 1908L1386.8 2093.3H1231.7V1794.4H1389.3L1417.7 1908ZM1487.4 1943.8H1573.5L1598.4 2093.3H1462.5L1487.4 1943.8ZM1643.3 1908L1671.7 1794.4H1829.3V2093.3H1674.2L1643.3 1908ZM967.7 1943.8C967.7 1861.5 1034.7 1794.4 1117.1 1794.4H1156.9V2093.3H967.6V1943.8H967.7ZM2093.3 2093.3H1904.1V1794.4H1943.9C2026.3 1794.4 2093.3 1861.5 2093.3 1943.8V2093.3Z" fill="#64728C" stroke="#64728C" stroke-width="40"/>
<path d="M1530.5 1645C1737.8 1645 1906.5 1476.3 1906.5 1269C1906.5 1061.7 1737.8 893 1530.5 893C1323.2 893 1154.5 1061.6 1154.5 1269C1154.5 1476.4 1323.2 1645 1530.5 1645ZM1530.5 967.7C1696.7 967.7 1831.8 1102.8 1831.8 1269C1831.8 1435.2 1696.6 1570.3 1530.5 1570.3C1364.4 1570.3 1229.2 1435.1 1229.2 1269C1229.2 1102.9 1364.4 967.7 1530.5 967.7Z" fill="#64728C" stroke="#64728C" stroke-width="40"/>
<path d="M1757.1 1231.6H1567.8V1042.4H1493.1V1306.3H1757.1V1231.6Z" fill="#64728C" stroke="#64728C" stroke-width="40"/>
</svg>
