<svg width="3062" height="3062" viewBox="0 0 3062 3062" fill="none" xmlns="http://www.w3.org/2000/svg">
<path d="M1943.98 1719.76H1117.22C993.642 1719.76 893.102 1820.3 893.102 1943.88V2168H2168.1V1943.88C2168.1 1820.3 2067.56 1719.76 1943.98 1719.76ZM1576.15 1869.17H1485.06L1466.38 1794.46H1594.82L1576.15 1869.17ZM1417.77 1908.05L1386.9 2093.29H1231.77V1794.46H1389.38L1417.77 1908.05ZM1487.54 1943.88H1573.67L1598.57 2093.29H1462.64L1487.54 1943.88ZM1643.43 1908.05L1671.83 1794.46H1829.43V2093.29H1674.31L1643.43 1908.05ZM967.809 1943.88C967.809 1861.49 1034.84 1794.46 1117.22 1794.46H1157.07V2093.29H967.809V1943.88ZM2093.39 2093.29H1904.14V1794.46H1943.98C2026.37 1794.46 2093.39 1861.49 2093.39 1943.88V2093.29Z" fill="#64728C"/>
<path d="M1530.6 1645.05C1737.95 1645.05 1906.63 1476.37 1906.63 1269.03C1906.63 1061.68 1737.95 893 1530.6 893C1323.26 893 1154.58 1061.68 1154.58 1269.03C1154.58 1476.37 1323.26 1645.05 1530.6 1645.05ZM1530.6 967.707C1696.75 967.707 1831.92 1102.88 1831.92 1269.03C1831.92 1435.17 1696.75 1570.34 1530.6 1570.34C1364.46 1570.34 1229.29 1435.17 1229.29 1269.03C1229.29 1102.88 1364.46 967.707 1530.6 967.707Z" fill="#64728C"/>
<path d="M1757.21 1231.67H1567.96V1042.41H1493.25V1306.38H1757.21V1231.67Z" fill="#64728C"/>
</svg>
