<svg width="3062" height="3062" viewBox="0 0 3062 3062" fill="none" xmlns="http://www.w3.org/2000/svg">
<path d="M2051.8 967C2119.06 967 2176.2 1021.23 2176.2 1091.4V1531.5C2176.2 1601.67 2119.06 1655.9 2051.8 1655.9H1873.73L2013.47 2036.38L2013.85 2037.46C2021.53 2060.1 2009.79 2084.97 1987.11 2093.27L1987.11 2093.27C1960.09 2103.19 1936.95 2085.5 1930.13 2066.91L1779.21 1655.9H1762.8L1613.38 2066.79C1606.31 2086.22 1582.9 2102.95 1556.49 2093.27V2093.27C1533.48 2084.85 1521.61 2059.45 1529.92 2036.42L1529.92 2036.41L1668.31 1655.8H1548.5C1517.63 1708.5 1453.12 1721.84 1405.37 1697.96L1295.9 1643.23V2051.6C1295.9 2076.09 1275.94 2095.9 1251.5 2095.9H1011.4C986.847 2095.9 967 2076.08 967 2051.6V1847.72C920.324 1829.85 887 1784.51 887 1731.5V1611.5C887 1519.68 936.528 1444.82 1002.66 1403.88C1000.75 1402.31 998.869 1400.79 997.02 1399.3C992.861 1395.95 988.783 1392.69 984.96 1389.41C977.254 1382.79 970.235 1375.75 964.442 1366.36C952.86 1347.59 947 1320.72 947 1271.5C947 1169.83 1029.73 1087.1 1131.4 1087.1C1233.07 1087.1 1315.8 1169.83 1315.8 1271.5C1315.8 1317.4 1298.82 1359.42 1271 1391.73C1271.76 1392.1 1272.52 1392.47 1273.27 1392.86L1367.1 1439.5V1091.5C1367.1 1022.83 1422.94 967.1 1491.5 967.1H2049.95L2050.15 967H2051.8ZM1131.3 1455.8C1046.69 1455.8 975.601 1524.15 975.601 1611.5V1731.5C975.601 1741.07 980.068 1750 987.022 1756.64C994.021 1763.32 1003.03 1767.2 1011.3 1767.2C1035.88 1767.2 1055.7 1787.15 1055.7 1811.6V2007.3H1207.1V1571.5C1207.1 1538.61 1241.77 1517.11 1271.23 1531.84H1271.23C1271.23 1531.84 1271.23 1531.84 1271.23 1531.84C1271.24 1531.84 1271.24 1531.84 1271.25 1531.85C1271.26 1531.85 1271.28 1531.86 1271.3 1531.88L1272.4 1532.42C1273.17 1532.81 1274.31 1533.38 1275.78 1534.11C1278.73 1535.58 1283.02 1537.73 1288.38 1540.41C1299.12 1545.77 1314.18 1553.29 1331.45 1561.93C1366 1579.19 1409.43 1600.89 1444.93 1618.64L1444.97 1618.66C1450.2 1621.31 1456.48 1621.57 1462.17 1619.31C1466.82 1617.41 1470.72 1613.69 1472.83 1609.31L1472.82 1609.29L1473.79 1606.49C1476.33 1599.23 1473.03 1591.11 1466.09 1587.67L1466.09 1587.67L1466.08 1587.67C1442.48 1575.92 1384.36 1547.02 1332.13 1521.06C1306.02 1508.07 1281.38 1495.83 1263.28 1486.83C1254.22 1482.33 1246.8 1478.64 1241.64 1476.07C1239.06 1474.79 1237.05 1473.79 1235.68 1473.11C1234.99 1472.77 1234.47 1472.51 1234.12 1472.33C1233.94 1472.25 1233.81 1472.18 1233.72 1472.13C1233.67 1472.11 1233.64 1472.1 1233.62 1472.08L1233.59 1472.07C1233.59 1472.07 1233.58 1472.07 1236.7 1465.8L1233.58 1472.07L1233.58 1472.07C1212.25 1461.45 1188.22 1455.8 1164.3 1455.8H1131.3ZM1491.5 1055.8C1471.78 1055.8 1455.8 1071.86 1455.8 1091.5V1483.67C1470.16 1490.81 1483.72 1497.58 1495.86 1503.62L1571.84 1351.77C1582.78 1329.79 1609.49 1321.03 1631.32 1331.93L1632.34 1332.46C1653.58 1343.7 1661.9 1369.83 1651.17 1391.42L1651.16 1391.42L1651.16 1391.43L1563.23 1567.3H2051.6C2061.04 1567.3 2070.26 1563.44 2076.85 1556.85C2083.63 1550.07 2087.3 1541.15 2087.3 1531.6V1091.5C2087.3 1081.96 2083.54 1072.94 2076.85 1066.25H2076.85C2070.13 1059.64 2060.91 1055.8 2051.6 1055.8H1491.5ZM1131.4 1175.8C1078.67 1175.8 1035.7 1218.77 1035.7 1271.5C1035.7 1324.23 1078.67 1367.2 1131.4 1367.2C1184.13 1367.2 1227.1 1324.23 1227.1 1271.5C1227.1 1218.77 1184.13 1175.8 1131.4 1175.8Z" fill="#64728C" stroke="#64728C" stroke-width="14"/>
<path d="M1971.6 1134.1H1571.5C1550.9 1134.1 1534.1 1150.8 1534.1 1171.5C1534.1 1192.2 1550.8 1208.9 1571.5 1208.9H1971.6C1992.2 1208.9 2009 1192.2 2009 1171.5C2009 1150.8 1992.3 1134.1 1971.6 1134.1Z" fill="#64728C"/>
<path d="M1971.6 1274.2H1771.5C1750.9 1274.2 1734.1 1290.9 1734.1 1311.5C1734.1 1332.1 1750.8 1348.9 1771.5 1348.9H1971.6C1992.2 1348.9 2009 1332.2 2009 1311.5C2009 1290.8 1992.3 1274.2 1971.6 1274.2Z" fill="#64728C"/>
<path d="M1971.6 1414.2H1771.5C1750.9 1414.2 1734.1 1430.9 1734.1 1451.5C1734.1 1472.1 1750.8 1488.9 1771.5 1488.9H1971.6C1992.2 1488.9 2009 1472.2 2009 1451.5C2009 1430.8 1992.3 1414.2 1971.6 1414.2Z" fill="#64728C"/>
</svg>
