<svg width="3062" height="3062" viewBox="0 0 3062 3062" fill="none" xmlns="http://www.w3.org/2000/svg">
<path d="M2050.43 944H1490.29C1425.57 944 1372.92 1000.43 1372.92 1069.79V1454.87L1268.91 1399.44C1265.4 1397.56 1261.83 1395.79 1258.23 1394.11C1288.76 1359.95 1307.59 1313.66 1307.59 1262.74C1307.59 1157.92 1228.02 1072.63 1130.21 1072.63C1032.39 1072.63 952.815 1157.92 952.815 1262.74C952.815 1319.7 976.346 1370.86 1013.51 1405.74C945.072 1447 892.797 1527.49 892.797 1627.2V1755.83C892.797 1811.21 926.347 1858.34 972.815 1875.09V2098.86C972.815 2120.96 989.537 2138.89 1010.17 2138.89H1250.22C1270.86 2138.89 1287.58 2120.96 1287.58 2098.86V1649.08L1407.17 1713.15C1452.93 1737.67 1515.02 1723.06 1543.09 1667.23H1677.02L1535.2 2085.17C1528.15 2105.95 1538.16 2128.93 1557.54 2136.47C1579.7 2145.12 1599.41 2130.22 1605.41 2112.54L1756.51 1667.23H1782.7L1935.34 2112.66C1941.14 2129.56 1960.7 2145.32 1983.29 2136.43C2002.64 2128.81 2012.59 2105.81 2005.46 2085.06L1862.28 1667.23H2050.43C2113.89 1667.23 2167.8 1612.37 2167.8 1541.45V1069.79C2167.8 998.855 2113.89 944 2050.43 944ZM1027.52 1262.74C1027.52 1202.06 1073.58 1152.69 1130.2 1152.69C1186.82 1152.69 1232.88 1202.06 1232.88 1262.74C1232.88 1323.41 1186.82 1372.77 1130.2 1372.77C1073.58 1372.77 1027.52 1323.41 1027.52 1262.74ZM1479.25 1624.43C1479.15 1624.72 1479.05 1625.02 1478.96 1625.32C1476.42 1632.94 1470.66 1639.37 1463.61 1642.47C1456.14 1645.73 1447.75 1645.38 1440.58 1641.54C1369.55 1603.46 1266.92 1548.51 1266.92 1548.51C1242.13 1535.23 1212.87 1554.58 1212.87 1584.32V2058.83H1047.52V1841.59C1047.52 1819.49 1030.79 1801.56 1010.17 1801.56C986.638 1801.56 967.504 1781.05 967.504 1755.83V1627.2C967.504 1529.38 1041.82 1452.85 1130.2 1452.85H1163.2C1188.24 1452.85 1213.25 1459.14 1235.59 1471.1C1235.59 1471.1 1420.87 1569.84 1468.06 1595.03C1478.17 1600.41 1482.97 1613.04 1479.25 1624.43ZM2093.09 1541.45C2093.09 1553.67 2088.66 1565.15 2080.61 1573.78C2072.68 1582.29 2061.68 1587.17 2050.43 1587.17H1551.21C1551.14 1586.95 1551.09 1586.73 1551.03 1586.52L1643.73 1387.84C1652.95 1368.06 1645.48 1344.02 1627.03 1334.13C1608.58 1324.24 1586.14 1332.25 1576.91 1352.03L1497.85 1521.48C1483.11 1513.61 1465.98 1504.47 1447.62 1494.69V1069.79C1447.62 1044.58 1466.76 1024.06 1490.29 1024.06H2050.43C2061.68 1024.06 2072.68 1028.94 2080.62 1037.47C2088.66 1046.08 2093.09 1057.56 2093.09 1069.79V1541.45Z" fill="#64728C" stroke="#64728C" stroke-width="12"/>
<path d="M1970.61 1183.72H1570.51C1549.87 1183.72 1533.15 1200.45 1533.15 1221.08C1533.15 1241.71 1549.87 1258.43 1570.51 1258.43H1970.61C1991.23 1258.43 2007.96 1241.71 2007.96 1221.08C2007.96 1200.45 1991.24 1183.72 1970.61 1183.72Z" fill="#64728C"/>
<path d="M1970.61 1323.76H1770.55C1749.93 1323.76 1733.2 1340.48 1733.2 1361.11C1733.2 1381.75 1749.93 1398.47 1770.55 1398.47H1970.61C1991.23 1398.47 2007.96 1381.75 2007.96 1361.11C2007.96 1340.48 1991.24 1323.76 1970.61 1323.76Z" fill="#64728C"/>
<path d="M1970.61 1463.8H1770.55C1749.93 1463.8 1733.2 1480.52 1733.2 1501.15C1733.2 1521.77 1749.93 1538.5 1770.55 1538.5H1970.61C1991.23 1538.5 2007.96 1521.77 2007.96 1501.15C2007.96 1480.52 1991.24 1463.8 1970.61 1463.8Z" fill="#64728C"/>
</svg>
