<svg width="3063" height="3062" viewBox="0 0 3063 3062" fill="none" xmlns="http://www.w3.org/2000/svg">
<path d="M2143.9 920.113C2113.6 889.813 2061.3 886.913 1992.5 911.513C1945.2 928.513 1895.6 956.913 1871.8 980.613L1681.2 1171.31L1053.7 1072.71L894 1232.41L1415.7 1436.71L1248.2 1604.21L1010.4 1618.11L896.4 1732.11L1154.4 1856.61L1082.1 1928.91L1135 1981.81L1207.2 1909.61L1331.8 2167.51L1445.8 2053.51L1459.7 1815.81L1630 1645.51L1834.3 2167.11L1994 2007.41L1895.5 1380.01L2083.3 1192.21C2107 1168.51 2135.5 1118.91 2152.4 1071.51C2177 1002.81 2174.1 950.413 2143.8 920.113H2143.9ZM1027.8 1204.41L1079.7 1152.51L1615.8 1236.71L1473.5 1379.01L1027.8 1204.41ZM1914.3 1981.41L1862.4 2033.31L1687.9 1587.81L1830.2 1445.51L1914.4 1981.41H1914.3ZM2082.1 1046.31C2067.8 1086.21 2044.2 1125.61 2030.5 1139.31L1386.8 1783.01L1372.9 2020.81L1353.5 2040.21L1263.4 1853.61L1328.4 1788.61L1275.5 1735.71L1210.6 1800.61L1023.9 1710.61L1043.3 1691.21L1281 1677.21L1924.7 1033.51C1938.4 1019.81 1977.8 996.214 2017.7 981.914C2063 965.714 2087 969.013 2091 973.013C2095 977.013 2098.3 1001.01 2082.1 1046.31Z" fill="#64728C" stroke="#64728C" stroke-width="24"/>
</svg>
