<svg id="Layer_1" data-name="Layer 1" xmlns="http://www.w3.org/2000/svg" viewBox="0 0 579.63 374.55"><defs><style>.cls-1{fill:#64728c;}</style></defs><path class="cls-1" d="M469.11,370.62l110.52-39.3L496.12,100.45,385.6,139.75l11,30.7H362.27L298.41,152c-19.65-6.14-40.52,0-54,16l-2.46,2.46H184.2l11.06-30.7L84.73,100.45,0,331.32l110.52,39.3L122.8,335,253,465.18A34.29,34.29,0,0,0,277.53,475h0a34.27,34.27,0,0,0,24.56-9.82c2.46-2.46,4.92-4.92,6.14-8.6,13.51,11.05,34.39,9.82,46.67-2.46,3.68-3.68,6.14-7.36,7.37-12.28,12.28,3.69,24.56,0,34.38-8.59,6.14-6.14,9.83-13.51,9.83-22.11,7.36-1.23,16-3.68,22.1-9.82a34.3,34.3,0,0,0,9.83-24.56c0-3.69-1.23-7.37-2.46-11.05l24.56-12.28Zm12.28-239.47L547.7,316.58l-63.86,23.34L417.53,154.49ZM31.93,316.58,98.24,131.15l63.86,23.34L95.79,339.92Zm379.46,67.55c-3.69,3.68-9.83,3.68-14.74,0l-74.91-74.91-17.19,17.19,74.91,74.91c3.68,3.68,3.68,9.82,0,14.73s-9.82,3.69-14.74,0L353.67,405h0l-63.86-65.08-17.19,17.19,65.09,65.08h0c2.45,2.46,2.45,4.92,2.45,7.37s-1.23,4.92-2.45,7.37c-3.69,3.69-11.06,3.69-14.74,0l-66.31-66.31-17.2,17.19,45.44,45.44c2.46,2.45,2.46,4.91,2.46,7.37s-1.23,4.91-2.46,7.36c-3.68,3.69-11,3.69-14.73,0L132.63,310.44,174.38,195h45.44l-28.25,31.93c-7.37,8.6-9.82,18.42-8.59,29.47s6.14,19.65,14.73,27c7.37,4.91,14.74,8.59,23.33,8.59,2.46,0,6.14,0,8.6-1.22l82.28-18.42,99.47,98.24c2.45,2.45,2.45,4.91,2.45,7.37S413.84,382.9,411.39,384.13Zm11.05-38.07-71.22-71.23,27,3.69L381.92,254l-65.09-9.83L223.5,265c-3.68,1.23-8.6,0-12.28-2.46s-4.91-6.14-4.91-9.82a19.82,19.82,0,0,1,3.68-11l51.58-60.18c7.37-8.59,18.42-11.05,28.24-8.59l66.32,19.64H404l49.12,136.32Z" transform="translate(0 -100.45)"/></svg>